<svg id="Слой_1" data-name="Слой 1" xmlns="http://www.w3.org/2000/svg" viewBox="0 0 52 52"><defs><style>.cls-1{fill:#fbba00;}.cls-2{fill:#7f103f;}.cls-3{fill:#ab0051;}</style></defs><title>4U</title><path class="cls-1" d="M18.19662,33.79047a11.82655,11.82655,0,0,1-1.08977-1.65127q-2.65083-4.58976-5.30374-9.17832C10.998,21.56025,9.94852,19.8514,5.858,19.8514c-.86411,0-1.85193,0-2.858.09931a21.52545,21.52545,0,0,1,2.35584,3.507c2.30766,3.99447,5.63134,9.75362,5.85465,10.13881.14691.25592.64111,1.1409.95315,1.574a5.20192,5.20192,0,0,0,6.033-1.38006"/><path class="cls-2" d="M34.07753,13.70793c-4.09055,0-5.13889,1.71-5.9463,3.10949-.808,1.40064-8.41057,14.56637-8.84542,15.32149a12.10624,12.10624,0,0,1-1.088,1.651A5.199,5.199,0,0,0,24.229,35.17c.31263-.43368.80624-1.31808.95491-1.574.22155-.38549,7.08838-12.28634,9.39485-16.282A21.74861,21.74861,0,0,1,36.934,13.80813a28.56315,28.56315,0,0,0-2.8565-.1002"/><path class="cls-3" d="M18.19662,33.79047a5.20133,5.20133,0,0,1-6.033,1.37977,7.3909,7.3909,0,0,0,12.06656,0,5.20187,5.20187,0,0,1-6.03356-1.37977"/><path class="cls-1" d="M30.262,33.79047A11.8643,11.8643,0,0,1,29.171,32.1392c-.43456-.75658-4.49514-7.77915-5.30255-9.17832-.80331-1.40063-1.85312-3.10948-5.94514-3.10948-.86265,0-1.85194,0-2.85738.09931a21.64011,21.64011,0,0,1,2.35525,3.507c2.30589,3.99447,5.63134,9.75362,5.85464,10.13881.14691.25592.64112,1.1409.95316,1.574a5.20167,5.20167,0,0,0,6.033-1.38006"/><path class="cls-2" d="M46.142,13.70793c-4.09055,0-5.13714,1.71-5.94514,3.10949-.80625,1.40064-8.41057,14.56637-8.844,15.32149a11.72156,11.72156,0,0,1-1.09154,1.651A5.20242,5.20242,0,0,0,36.295,35.17c.31116-.43368.80625-1.31808.95492-1.574.22154-.38549,7.08838-12.28634,9.39428-16.282A21.78334,21.78334,0,0,1,49,13.80813a28.592,28.592,0,0,0-2.858-.1002"/><path class="cls-3" d="M30.262,33.79047a5.201,5.201,0,0,1-6.033,1.37977,7.3909,7.3909,0,0,0,12.06656,0A5.202,5.202,0,0,1,30.262,33.79047m-2.66435-4.377c-1.14882-1.9868-2.61557-4.5251-3.371-5.8323-1.18909,2.06114-2.42695,4.20337-3.36687,5.8323,1.27694,2.20982,2.295,3.97479,2.41608,4.18252.1475.25591.64112,1.1406.95373,1.574.31116-.43368.80624-1.31808.95491-1.574.08081-.14163,1.07537-1.86693,2.41314-4.18252"/></svg>