<svg id="Слой_1" data-name="Слой 1" xmlns="http://www.w3.org/2000/svg" viewBox="0 0 52 52"><defs><style>.cls-1{fill:#86d0f4;}.cls-2{fill:#004b93;}</style></defs><title>5O</title><path class="cls-1" d="M31.98136,28.38233c-2.39181,1.16524-4.12433,3.55705-3.971,5.31257-9.42925-2.79811-18.20688-1.74785-24.5697,1.42589-.368.184-.713.15332-.12266-.19932C9.75748,31.11911,22.16115,27.73838,31.98136,28.38233Z"/><path class="cls-2" d="M49,24.81l-.33731,1.59454a1.42379,1.42379,0,0,1-.59795.97359,3.50813,3.50813,0,0,1-1.32623.26064H37.83056l.529-2.49146c-.8816,1.93184-3.18141,2.85943-7.25209,2.85943-1.97784,0-4.02468-.16865-5.15158-1.02725l.138.65928h-4.408l-.184-1.21123H17.17822l-.69762,1.21123h-4.408l5.80321-9.09193a4.04846,4.04846,0,0,1,1.01958-1.16524,3.90979,3.90979,0,0,1,1.44888-.24532H23.863L25.42689,24.465h4.73762a.6501.6501,0,0,0,.28364.75127,3.09523,3.09523,0,0,0,1.36456.21465c1.29556,0,1.72486-.35264,1.83218-.85093.069-.30664-.06132-.621-.59795-.70528l-4.5843-.70528c-1.96251-.30664-2.54513-1.48721-2.23848-2.95143.57495-2.72145,3.39606-3.44972,6.80745-3.44972,4.67629,0,6.33983,1.2189,6.01785,3.44206H34.22752a.67643.67643,0,0,0-.4523-.8356,2.98832,2.98832,0,0,0-1.24957-.21465c-1.23423,0-1.72486.30664-1.82451.75127-.06133.299.023.483.42929.54429l4.799.73594c1.6942.26065,2.72912.97359,2.79811,2.25382l1.34156-6.29383h4.13967l-1.63287,7.67372H49ZM23.31106,22.31082a6.813,6.813,0,0,0-3.02043-.552,4.0609,4.0609,0,0,0-3.38073,1.7172,5.13107,5.13107,0,0,1,3.01276-.65162,4.693,4.693,0,0,1,2.13117.56729,1.76718,1.76718,0,0,1,.49829-.7896A1.74872,1.74872,0,0,1,23.31106,22.31082Z"/><path class="cls-2" d="M33.82121,28.597h.46763l.35264,2.22316h-.49829l-.069-.4983h-.9276l-.3373.4983H32.288Zm.19166,1.30323-.09966-.72827-.483.72827Z"/><path class="cls-2" d="M35.52308,28.62h.483l-.59795,2.20782h-.483Z"/><path class="cls-2" d="M36.558,28.62h.80493a.95087.95087,0,0,1,.69761.21465.59514.59514,0,0,1,.16866.44463.78268.78268,0,0,1-.71294.78194l.37563.75127H37.3476l-.345-.70528h-.36031l-.19165.70528h-.483Zm.63628,1.07325c.30664,0,.53662-.12266.53662-.36031a.231.231,0,0,0-.069-.17632.44889.44889,0,0,0-.322-.092h-.4063l-.16865.63628.4293-.00766Z"/><path class="cls-2" d="M38.85015,28.62h.483l-.4753,1.76319h1.10391l-.12266.44463H38.25219Z"/><path class="cls-2" d="M40.84332,28.62h.483l-.59795,2.20782h-.483Z"/><path class="cls-2" d="M41.8859,28.62h.4523l.64395,1.40289L43.35779,28.62h.483L43.2428,30.8278h-.4063l-.66695-1.44888-.391,1.44888h-.483Z"/><path class="cls-2" d="M44.362,28.62h1.6482l-.12266.4293H44.72234l-.12265.45229h1.02725l-.12265.42164H44.477l-.12265.46763H45.535l-.12265.4293H43.74876Z"/><path class="cls-2" d="M45.78793,30.45216l.3603-.30664a.77755.77755,0,0,0,.621.29131c.19932,0,.33731-.092.33731-.23,0-.10732-.07666-.16865-.37564-.29131-.28364-.12266-.54429-.26831-.54429-.598a.79.79,0,0,1,.8816-.72828,1.0745,1.0745,0,0,1,.82793.32964l-.33731.33731a.73556.73556,0,0,0-.529-.23765c-.207,0-.322.115-.322.22232,0,.12265.08432.16865.391.29131s.52895.276.52895.59795a.79076.79076,0,0,1-.88159.73594A1.19729,1.19729,0,0,1,45.78793,30.45216Z"/><path class="cls-1" d="M31.19943,31.6634h1.67886l-.12266.44463h-1.1959l-.12266.46763h1.05025l-.12266.44463H31.31441l-.23.85093h-.49062Z"/><path class="cls-1" d="M33.29226,31.6634h.80493a.95091.95091,0,0,1,.69761.21465.59511.59511,0,0,1,.16866.44463.78267.78267,0,0,1-.71294.78194l.37563.75127h-.54429l-.345-.70528h-.36031l-.19165.70528h-.49062Zm.62862,1.07325c.30664,0,.53662-.12266.53662-.36031a.24282.24282,0,0,0-.069-.17631.44884.44884,0,0,0-.322-.092H33.6449l-.16866.63628.44464-.00766Z"/><path class="cls-1" d="M36.282,31.6404h.46763l.35264,2.22316H36.604l-.069-.4983h-.92759l-.33731.4983h-.52129Zm.19165,1.30323-.09966-.72827-.483.72827Z"/><path class="cls-1" d="M37.96088,31.6634h.4523l.644,1.40289.37563-1.40289h.483l-.59795,2.20782h-.414l-.66695-1.44888-.391,1.44888h-.483Z"/><path class="cls-1" d="M40.02305,32.94363a1.34852,1.34852,0,0,1,1.34156-1.31856.95869.95869,0,0,1,.8816.46763l-.4063.276a.61263.61263,0,0,0-.54429-.30664.83753.83753,0,0,0-.78194.85093.51721.51721,0,0,0,.54429.53662.75937.75937,0,0,0,.51363-.21465l.3143.32964a1.15957,1.15957,0,0,1-.8356.33731A.94082.94082,0,0,1,40.02305,32.94363Z"/><path class="cls-1" d="M42.72917,31.6634h1.6482l-.12265.4293H43.08947l-.12265.4523h1.02725l-.12266.42163H42.84416l-.12265.46763h1.18057l-.12266.4293H42.11589Z"/></svg>