<svg id="Слой_1" data-name="Слой 1" xmlns="http://www.w3.org/2000/svg" viewBox="0 0 52 52"><defs><style>.cls-1{fill:#f29a31;}</style></defs><title>6H</title><path class="cls-1" d="M48.81227,39.7554H25.835V51.92857L25.54486,52,15.67414,36.06371c.118-.13049.1872-.26594.29658-.31962A44.80374,44.80374,0,0,0,30.49324,24.01223a22.253,22.253,0,0,0,4.7979-8.56648,8.51914,8.51914,0,0,0-.41216-5.20286c-.56183-1.543-1.51307-1.95941-3.52-1.64327a22.19863,22.19863,0,0,0,1.0547,2.14023c1.6332,2.58808,1.226,5.09678-.22342,7.57561A34.85027,34.85027,0,0,1,25.53268,25.982c-4.45214,4.15873-9.73443,7.078-14.971,10.062C8.569,37.17959,6.51674,38.211,4.48734,39.28168c-.41.2163-.83924.39595-1.55335.72982.25755-.54484.367-.8243.51472-1.08185Q8.37287,30.3433,13.3,21.75865c.84656-1.48106.88271-1.75424-.50647-2.71461-2.51411-1.738-5.1411-3.313-7.72545-4.949a4.68522,4.68522,0,0,1-1.19123-.89721h22.102V.09332L26.27424,0l3.78122,6.36908a24.57208,24.57208,0,0,1,3.09071.02086c2.5958.34244,4.32457,1.53687,4.61354,5.28384a34.87686,34.87686,0,0,1-.37415,5.41378c-.05575.68762-.13624,1.37324-.23447,2.34745a42.59445,42.59445,0,0,0,6.00766-2.93521c1.89948-.94271,3.767-1.94982,5.64852-2.92871l.25874.29424L37.876,32.46314,48.93824,39.4366Z"/></svg>