<svg id="Слой_1" data-name="Слой 1" xmlns="http://www.w3.org/2000/svg" viewBox="0 0 52 52"><defs><style>.cls-1{fill:#df1f27;}</style></defs><title>7R</title><path class="cls-1" d="M13.17358,14.20747h8.34189c1.526.061,5.229-.02035,7.12113,1.36319C24.425,7.90018,19.196,8.97853,11.93246,8.55126A18.40763,18.40763,0,0,1,2.06461,6.08938c-.63073,0,3.37745,8.11809,11.109,8.11809"/><path class="cls-1" d="M40.66115,7.67637C38.891,7.49326,40.05076,5.418,41.75983,5.947a1.64985,1.64985,0,0,1,.75281,2.74672c-1.18008,1.0173-2.3398,1.03765-3.80472,1.03765,1.62769-.59,2.48222-1.24111,2.27876-2.01426-.2238-.87489-.16277-.08139-.32553-.0407"/><path class="cls-1" d="M50,10.74863c-.08138,3.51987-3.09261,4.53718-5.24929,4.61857a13.203,13.203,0,0,0-2.19738-3.27572c2.177.28484,6.0021-.34589,7.44667-1.34285"/><path class="cls-1" d="M43.42821,10.99279c-.40692-.468-1.13938-1.34284-1.87183-1.01731a5.63982,5.63982,0,0,1-2.62465.3052,6.09679,6.09679,0,0,0,4.49648.71211"/><path class="cls-1" d="M24.16046,27.41208c2.72638-5.31033-8.89124-5.65621-8.32155.529.77315,8.64709,15.341,6.36832,16.84656-4.78133-2.31945,6.14452-7.10078,6.69386-9.01331,5.49344-.69177-.36622-.69177-1.15973-.38658-1.36319.22381-.18311.75281-.18311.87488.12208"/><path class="cls-1" d="M3.143,27.26966c2.25842-4.74064,6.12417-5.41206,8.993-4.1506a1.71257,1.71257,0,0,1,1.03765,2.177c-.73246-1.89218-3.49953-1.13938-4.04888,1.68873C6.62213,39.72147,33.05171,42.24439,34.069,22.81387a16.04939,16.04939,0,0,1,.468,3.84541c0,9.21678-7.73151,16.68379-17.25348,16.68379a17.86574,17.86574,0,0,1-3.9268-.42726c-.34588-.10174-.71211-.20347-1.058-.32554C3.57022,39.53835.90488,32.0103,3.143,27.26966"/><path class="cls-1" d="M33.98763,12.51875h0a.67265.67265,0,1,1-.63073.71211.65208.65208,0,0,1,.63073-.71211m-2.54327,4.53717h0l2.116-.997a2.86227,2.86227,0,0,1-1.68873-.7528A6.41149,6.41149,0,0,0,31.44436,17.05592Zm.50866-2.15669c2.13634,1.56666,4.65925.32554,5.88-.56968.63073.20346-.38658.91557-.71212,1.0173h0c.12208.061.22381.10173.34589.16277a3.01279,3.01279,0,0,1,.2645.16276,3.499,3.499,0,0,1-1.91254,6.42937,3.10546,3.10546,0,0,1-.61038-.061l.02035.12208a17.43006,17.43006,0,0,1-.061,11.14966c11.31243-4.39476,12.04489-17.7418,2.90949-23.23524-.14242-.08138-.28484-.14242-.42727-.22381l.12208-.061c3.174-1.56664.75281-5.49344-3.41814-3.92679,1.50561.56969,1.34284,2.13634-1.20042,4.08956C31.72921,11.31832,30.79329,12.57978,31.953,14.89923Z"/><path class="cls-1" d="M33.8859,35.85571a13.7523,13.7523,0,0,1-2.62465,5.29,14.91413,14.91413,0,0,1-11.39381,5.351,14.48151,14.48151,0,0,1-7.62978-2.19737,5.43749,5.43749,0,0,0,.529.18311c.36623.12208.73246.24416,1.09869.34589a17.81968,17.81968,0,0,0,4.06922.44761A18.06493,18.06493,0,0,0,33.8859,35.85571"/><path class="cls-1" d="M17.30383,20.08749H28.189c1.20042.04069,3.78437.12208,5.26964,1.22076-1.66838-3.45883-4.9441-5.55448-10.84447-5.33068l-8.66744-.08138a15.032,15.032,0,0,1-4.80167-.79349c1.07834,1.85149,3.86576,4.98479,8.15878,4.98479"/><path class="cls-1" d="M49.45066,14.67543c.12208,2.31946-.44762,5.12722-3.45884,5.71726A12.654,12.654,0,0,0,45.178,16.4252a6.19623,6.19623,0,0,0,4.27268-1.74977"/><path class="cls-1" d="M48.81993,20.0468c-.468,2.52291-1.60734,4.88306-3.642,5.39171a12.95655,12.95655,0,0,0,.85454-4.00818,5.3095,5.3095,0,0,0,2.78741-1.38353"/></svg>