<svg id="Слой_1" data-name="Слой 1" xmlns="http://www.w3.org/2000/svg" viewBox="0 0 52 52"><defs><style>.cls-1{fill:#382d84;}.cls-1,.cls-2{fill-rule:evenodd;}.cls-2{fill:#e20613;}</style></defs><title>8Q</title><path class="cls-1" d="M40.20545,41.20855A18.78494,18.78494,0,0,0,46,27.36511a18.67264,18.67264,0,0,0-5.79455-13.84344A19.35684,19.35684,0,0,0,26.13307,7.78a19.586,19.586,0,0,0-14.16049,5.7417A18.57073,18.57073,0,0,0,6.05476,27.36511a18.57123,18.57123,0,0,0,5.91782,13.84344,19.58644,19.58644,0,0,0,14.16049,5.7417,19.35755,19.35755,0,0,0,14.07238-5.7417Zm-1.092-26.55974a17.14355,17.14355,0,0,1,5.42476,12.7163,17.00207,17.00207,0,0,1-5.42466,12.66343,17.82543,17.82543,0,0,1-12.98047,5.28373,17.65525,17.65525,0,0,1-12.89238-5.28373,17.16556,17.16556,0,0,1-5.319-12.66343,17.22539,17.22539,0,0,1,5.319-12.7163A17.74541,17.74541,0,0,1,26.13307,9.41787a17.91749,17.91749,0,0,1,12.98037,5.23094Z"/><polygon class="cls-2" points="17.626 28.175 1 30.095 38.796 30.095 17.08 5.05 7.746 5.05 17.626 28.175 17.626 28.175"/></svg>