<svg id="Слой_1" data-name="Слой 1" xmlns="http://www.w3.org/2000/svg" viewBox="0 0 52 52"><defs><style>.cls-1{fill:#de0031;}.cls-2{fill:#f5da00;}.cls-3{fill:#00529c;}</style></defs><title>9U</title><path id="flag1" class="cls-1" d="M6.836,36.51425c-.08918,0-.08918.08918,0,.16053l.08918.08918,4.887-.16053a13.40178,13.40178,0,0,0,8.45421-3.56717s.08918-.08918,0-.16052h-.08918l-8.52555.74911-1.81926.16052c-.08918,0-.08918,0-.08918.08918A15.2024,15.2024,0,0,1,6.836,36.51425Z"/><path id="flag2" class="cls-2" d="M12.72182,29.55826l-1.81926,2.40785v.16052h.08918l8.86443-.90963a20.12364,20.12364,0,0,0,8.61473-3.13912A20.043,20.043,0,0,0,31.61,25.75922v-.16053h-.08918L15.04049,28.32758a4.375,4.375,0,0,0-2.31867,1.23068"/><path id="flag3" class="cls-3" d="M8.49472,28.30975,3.03694,36.764c-.08918.08918,0,.16052.08918.16052a7.78643,7.78643,0,0,0,4.97621-3.13912l3.56718-4.97621a4.542,4.542,0,0,1,2.72888-1.73008L31.289,23.94a37.46265,37.46265,0,0,0,12.66348-5.13673A53.48,53.48,0,0,0,49,15.236v-.16052h-.08918l-32.711,8.02615a12.138,12.138,0,0,0-7.7051,5.20808"/></svg>