<svg id="Слой_1" data-name="Слой 1" xmlns="http://www.w3.org/2000/svg" viewBox="0 0 52 52"><defs><style>.cls-1{fill:#f1a400;}</style></defs><title>9W</title><path class="cls-1" d="M27.00117,5.04249a17.99873,17.99873,0,0,1,7.24565-1.67568,8.35381,8.35381,0,0,1,5.8214,2.04879,9.45112,9.45112,0,0,1,2.82965,6.09288,14.67754,14.67754,0,0,1,.09749,2.71345c-3.31123.54723-6.6333,1.03924-9.94574,1.57-1.11535.18322-2.23869.32765-3.34721.53627-1.50062.1899-2.98774.46673-4.48287.68472a1.79289,1.79289,0,0,0-.59109.13654c-.32095.04146-.63925.06406-.95618.10832,4.94812.52958,9.90562,1.02573,14.85655,1.5366a17.41961,17.41961,0,0,0,1.88578.15379l.099.0789c.81311.016,1.61551.16048,2.42845.20327,1.41876.20462,2.85535.28352,4.27946.46419a3.14053,3.14053,0,0,1,.91194.12985A5.64177,5.64177,0,0,0,49,19.86586c-1.31059.17386-2.62386.30224-3.93843.432-2.66262.30892-5.34263.53092-8.0026.85188-2.50616.22333-4.99909.53212-7.50512.75425-3.83278.436-7.68041.78234-11.51323,1.225.27671.03477.55381.06406.83584.10832,1.32381.2795,2.6839.38676,4.02015.61651,1.73585.22735,3.46368.51086,5.20221.72724,1.907.3132,3.83264.52584,5.73981.84413,2.46469.31159,4.91845.70878,7.3818,1.03362a14.57186,14.57186,0,0,1,1.83508.33433c.123-.00133.37044-.00374.4932-.00535-2.7763.44-5.57934.73554-8.365,1.1156-4.908.64326-9.82658,1.22339-14.728,1.91372.40789.04547.81712.05751,1.22887.107a8.61588,8.61588,0,0,0,1.30791.15914c1.29988.13909,2.59843.28191,3.90353.38114.88131.14042,1.78013.20194,2.67319.26747.96957.19672,1.97645.15272,2.9515.329,1.30912.12571,2.62132.23685,3.92374.41859a47.72567,47.72567,0,0,1-13.24359,13.2131,25.83731,25.83731,0,0,1-8.32877,3.62524,14.42217,14.42217,0,0,1-4.58424.241,7.85267,7.85267,0,0,1-5.72926-3.64288,13.24449,13.24449,0,0,1-1.40566-8.5295,28.45145,28.45145,0,0,1,.97773-4.69938,44.74353,44.74353,0,0,1,7.59483-14.08611c4.13141-5.183,9.19616-9.79006,15.27566-12.55834Z"/></svg>