<svg id="Слой_1" data-name="Слой 1" xmlns="http://www.w3.org/2000/svg" viewBox="0 0 52 52"><defs><style>.cls-1{fill:#002d62;}</style></defs><title>A3</title><path id="path7390" class="cls-1" d="M31.39726,26.60739a75.081,75.081,0,0,0-7.88145,3.52524c-.03573.00812-1.08648.24523-1.16064.262-.59656-.144-8.556-2.77872-12.80011-1.4167-2.07335.67343-8.34916,2.31317-8.34916,2.31317-.63229.196.36541.26688.6691.22141.29828-.03952,1.32792-.20409,2.54811-.45148a31.934,31.934,0,0,1,5.11626-.65287,19.32329,19.32329,0,0,1,9.07511,1.6982c.22628.1099.32859.236.34267.38815.02219.41575-.66207,1.09135-.93274,1.26675a4.94263,4.94263,0,0,0,1.39017-.11748,3.58221,3.58221,0,0,1,.74-.09094,15.35254,15.35254,0,0,0,1.81243-.22628,9.006,9.006,0,0,0,3.27243-1.18717l.05792-.033c.52023-.282,5.17364-2.18,5.17364-2.18,2.7798-1.14008,3.95019-.04223,7.28271-.39789,3.33794-.35188,5.977-1.329,8.01462-1.49357.38165-.033-.49154-.28854-.72757-.31723-.98633-.11314-5.6733-.00433-7.10191-.19759-3.12518-.42225-5.44755-1.14982-6.54161-.91271"/><path id="path7394" class="cls-1" d="M38.50876,31.13271a21.64719,21.64719,0,0,1-.64312,3.92042c-.02707.10394-.07254.25173-.09365.32589-.02545.07092.04114.13425.151.13425h1.70145c.10123,0,.20788-.03085.21437-.07308.01083-.04006.04223-.15536.06983-.26093a25.47538,25.47538,0,0,0,.57816-4.04655c0-.458-.02923-.91163-.07254-1.362-.61659.12072-1.27649.22845-1.94992.314.02977.34592.04439.70105.04439,1.04805"/><path id="path7398" class="cls-1" d="M39.88112,26.98276a14.55708,14.55708,0,0,0-1.63974-3.62539,12.53129,12.53129,0,0,1-2.33482-.07092.8283.8283,0,0,0-.14454-.00866,12.4948,12.4948,0,0,1,1.99161,3.56638c.08986.01408.17865.02978.27284.04006.39681.05089,1.06807.08391,1.85465.09853"/><path id="path7402" class="cls-1" d="M11.1962,31.13271a25.51828,25.51828,0,0,0,.58032,4.04655c.02653.10557.05847.22087.0628.26093.01353.04223.10989.07308.21979.07308h1.70415c.10286,0,.17161-.06333.14725-.13425-.02761-.07416-.06551-.22195-.09745-.32589a22.28808,22.28808,0,0,1-.63337-3.84842,18.46806,18.46806,0,0,0-1.98349-.16078Z"/><path id="path7406" class="cls-1" d="M13.57937,27.97558a12.65663,12.65663,0,0,1,1.748-3.89931,23.21534,23.21534,0,0,0-2.48911.34484,14.391,14.391,0,0,0-1.28894,3.55447,17.13356,17.13356,0,0,1,2.03,0"/><path id="path7410" class="cls-1" d="M17.78958,21.361a12.62926,12.62926,0,0,1,14.429-1.16173,9.02876,9.02876,0,0,1,1.17039-.41792,5.06669,5.06669,0,0,1,1.79889.08554,14.61815,14.61815,0,0,0-20.94032,2.33157c.72324-.19976,1.36419-.3849,1.78807-.52348a7.54141,7.54141,0,0,1,1.75395-.314"/><path id="path7414" class="cls-1" d="M33.52773,20.38723a57.4749,57.4749,0,0,0-6.2455,2.79334c-.03086.00216-.864.19651-.923.203-.46935-.10881-6.77981-2.19515-10.13777-1.11625C14.57524,22.8,9.59974,24.1014,9.59974,24.1014c-.50237.14724.29178.203.53593.17377.23169-.03194,1.05021-.16728,2.0203-.36162a25.02165,25.02165,0,0,1,4.052-.51807,15.364,15.364,0,0,1,7.18635,1.348c.17973.08662.26743.19326.27934.314.0092.32048-.52781.86182-.74327.99932a4.13794,4.13794,0,0,0,1.09839-.092,2.60985,2.60985,0,0,1,.58682-.07417,12.45538,12.45538,0,0,0,1.43889-.17864,7.19074,7.19074,0,0,0,2.59142-.94086l.04764-.01841c.40817-.23548,4.0877-1.73771,4.0877-1.73771,2.21193-.903,3.13926-.02978,5.78265-.31344,2.63689-.27988,4.73677-1.04967,6.34564-1.18717.30911-.02545-.39085-.22412-.5749-.24631-.77629-.08987-4.48505-.00542-5.63-.15754-2.47016-.33292-4.31507-.90837-5.17689-.72323"/></svg>