<svg id="Слой_1" data-name="Слой 1" xmlns="http://www.w3.org/2000/svg" viewBox="0 0 52 52"><defs><style>.cls-1{fill:#f00500;}</style></defs><title>A5</title><g id="layer1"><g id="g4058"><g id="g2997"><path id="path2999" class="cls-1" d="M3,19.91041H5.69618V24.76h4.97265V19.91041h2.69583V32.16619H10.66883v-4.9203H5.69618v4.9203H3Z"/></g><g id="g3009"><path id="path3011" class="cls-1" d="M25.376,26.07461V26.0384a3.81612,3.81612,0,0,0-3.80449-3.9478A3.7567,3.7567,0,0,0,17.803,26.00253v.03587a3.81625,3.81625,0,0,0,3.80449,3.948A3.75675,3.75675,0,0,0,25.376,26.07461m-10.46189,0V26.0384A6.49572,6.49572,0,0,1,21.60749,19.542a6.43633,6.43633,0,0,1,6.65775,6.46055v.03587a6.49609,6.49609,0,0,1-6.69378,6.49625,6.43562,6.43562,0,0,1-6.6574-6.46"/></g><g id="g3013"><path id="path3015" class="cls-1" d="M34.55536,26.09071a1.89762,1.89762,0,0,0,2.1359-1.85593v-.03485c0-1.20844-.84059-1.85593-2.18843-1.85593H32.41912v3.74671Zm-4.8319-6.18025h5.00648c2.92464,0,4.69268,1.73371,4.69268,4.23644v.03569c0,2.83574-2.20644,4.30715-4.95463,4.30715H32.41912v3.6765H29.72346Z"/></g><g id="g3017"><path id="path3019" class="cls-1" d="M40.29935,27.5192l6.75854-8.05385L49,21.09519l-6.7582,8.05368Z"/></g><g id="g3021"><path id="path3023" class="cls-1" d="M39.16961,32.53462A1.68994,1.68994,0,1,1,40.85436,30.839a1.68869,1.68869,0,0,1-1.68475,1.69563"/></g></g></g></svg>