<svg id="Слой_1" data-name="Слой 1" xmlns="http://www.w3.org/2000/svg" viewBox="0 0 52 52"><defs><style>.cls-1{fill:#e20613;fill-rule:evenodd;}</style></defs><title>A9</title><path class="cls-1" d="M36.748,5.0346H3L14.88923,46.9654H49ZM25.7877,28.08768c-1.1677,2.42389,1.7073,7.21849,6.67884,8.395-6.157,3.9365-12.83578-2.93692-8.59849-9.46539-4.10458,2.91922-4.85653,6.69654-3.26424,9.95192-5.49342-1.24734-6.378-9.99614,2.89271-12.21653a9.00923,9.00923,0,0,0-9.89,4.21957c-2.69807-5.78536,5.43155-11.0842,11.34078-5.64385-1.14114-3.34381-4.23729-5.78536-9.51847-4.62652,3.47653-6.21882,12.16346-2.84843,11.93345,4.68845,1.69844-2.60077.66346-7.67845-2.32654-10.005,6.46653-1.11463,10.57116,7.28042,3.45887,11.80079,3.95421-.30965,6.47539-3.98963,6.48419-8.20926,5.75,4.38771,1.0439,12.61463-7.21843,10.48273,3.28194,2.84843,8.59843,1.955,10.81882-.26538C38.7915,34.12962,28.30883,35.67769,25.7877,28.08768Z"/></svg>