<svg id="Слой_1" data-name="Слой 1" xmlns="http://www.w3.org/2000/svg" xmlns:xlink="http://www.w3.org/1999/xlink" viewBox="0 0 52 52"><defs><style>.cls-1{fill:url(#Безымянный_градиент_6);}.cls-2{fill:url(#Безымянный_градиент_5);}.cls-3{fill:url(#Безымянный_градиент_3);}.cls-4{fill:url(#Безымянный_градиент_4);}</style><linearGradient id="Безымянный_градиент_6" x1="6857.36865" y1="-9304.08604" x2="6857.36865" y2="-9519.59133" gradientTransform="matrix(0.08663, 0, 0, -0.08663, -558.37719, -776.24301)" gradientUnits="userSpaceOnUse"><stop offset="0" stop-color="#eb2023"/><stop offset="0.09627" stop-color="#e92026"/><stop offset="0.20386" stop-color="#e31e27"/><stop offset="0.29864" stop-color="#e01e26"/><stop offset="0.4043" stop-color="#d81f27"/><stop offset="0.5" stop-color="#cf2027"/><stop offset="0.6" stop-color="#c62127"/><stop offset="0.7" stop-color="#b92025"/><stop offset="0.8" stop-color="#ae1f23"/><stop offset="0.9" stop-color="#a01d22"/><stop offset="1" stop-color="#901c1c"/></linearGradient><linearGradient id="Безымянный_градиент_5" x1="6692.80752" y1="-9350.76814" x2="6812.54056" y2="-9274.09013" gradientTransform="matrix(0.08663, 0, 0, -0.08663, -558.37719, -776.24301)" gradientUnits="userSpaceOnUse"><stop offset="0" stop-color="#6c221f"/><stop offset="0.24913" stop-color="#7f2620"/><stop offset="0.49826" stop-color="#982b24"/><stop offset="0.74913" stop-color="#b53125"/><stop offset="1" stop-color="#cb3327"/></linearGradient><linearGradient id="Безымянный_градиент_3" x1="6675.68316" y1="-9313.92308" x2="6851.10167" y2="-9212.43092" gradientTransform="matrix(0.08663, 0, 0, -0.08663, -558.37719, -776.24301)" gradientUnits="userSpaceOnUse"><stop offset="0" stop-color="#e7ebee"/><stop offset="0.24913" stop-color="#dfe4e8"/><stop offset="0.49826" stop-color="#cad1d7"/><stop offset="0.74913" stop-color="#a8b5bd"/><stop offset="1" stop-color="#93a6ad"/></linearGradient><linearGradient id="Безымянный_градиент_4" x1="6617.20934" y1="-8999.9937" x2="6617.20934" y2="-9208.36584" gradientTransform="matrix(0.08663, 0, 0, -0.08663, -558.37719, -776.24301)" gradientUnits="userSpaceOnUse"><stop offset="0" stop-color="#05aee9"/><stop offset="0.09627" stop-color="#00a9e0"/><stop offset="0.20386" stop-color="#07a3dc"/><stop offset="0.29864" stop-color="#089dd5"/><stop offset="0.4043" stop-color="#0a92cc"/><stop offset="0.5" stop-color="#0f87c3"/><stop offset="0.6" stop-color="#127cb8"/><stop offset="0.7" stop-color="#0e70ad"/><stop offset="0.8" stop-color="#0f63a3"/><stop offset="0.9" stop-color="#135393"/><stop offset="1" stop-color="#184485"/></linearGradient></defs><title>AA</title><path id="path3016" class="cls-1" d="M22.979,36.18853l5.1735,8.59692c1.60374,2.57651,4.24578,3.74579,7.53765,3.74579H49L33.41812,29.64877l-2.21066-1.25886-5.83361,1.90361-2.95606,4.27765Z"/><path id="path3018" class="cls-2" d="M33.41812,29.64878l-3.25289-3.94307L21.56788,30.33l.91185,4.66776.49926,1.19074C22.78347,33.02506,28.21516,29.35206,33.41812,29.64878Z"/><path id="path3014" class="cls-3" d="M22.979,36.18853l-4.65153-7.69115a4.31733,4.31733,0,0,1-.71385-2.52535c0-.97827.417-1.51469,2.01874-2.36415,1.86587-.89337,5.62247-1.28186,9.495-1.28186,6.29253,0,7.80092,2.01951,8.4434,4.19867a8.984,8.984,0,0,0-2.97822-.35308c-6.62918,0-11.92821,3.21794-11.92821,8.0903A6.5904,6.5904,0,0,0,22.979,36.18853Z"/><path id="path3012" class="cls-4" d="M3,3.46876H9.25682A5.89815,5.89815,0,0,1,14.0452,5.60724c1.22174,1.11063,4.92712,6.12565,12.76033,15.91377H18.32759c-3.46677,0-4.56329-.59061-5.90409-2.63534Z"/></svg>