<svg id="Слой_1" data-name="Слой 1" xmlns="http://www.w3.org/2000/svg" viewBox="0 0 52 52"><defs><style>.cls-1{fill:#cc2234;}</style></defs><title>AB</title><path id="path6" class="cls-1" d="M15.827,7.00382C21.92478.74458,32.00992-2.04768,40.14981,1.67413c2.9107,1.47868,5.50556,4.113,6.05826,7.43645.54912,2.41541-.34095,4.81287-.86854,7.14573-1.6976,6.71505-3.32343,13.44805-5.039,20.15592-.061.00359-.17586.01077-.23328.01436a125.48317,125.48317,0,0,0-4.97438-11.73968c-1.44638-2.62357-3.89767-5.07846-7.04883-5.25073-2.20007-.02153-4.40732-.10408-6.60379.08255,2.82455.11126,4.86311,2.39028,6.29154,4.59753,2.27185,3.66439,3.48494,7.83841,5.17537,11.772A18.51845,18.51845,0,0,0,37.79183,42.973c-.33019.4235-.66756.84342-1.00493,1.26333-4.24939-2.89634-5.90034-8.03222-7.659-12.60463-1.47867-3.45981-2.64152-7.24981-5.38711-9.95593a7.42142,7.42142,0,0,0-5.40506-2.26108c-2.00268.01076-4.00894-.08614-6.008.10049a6.10478,6.10478,0,0,1,2.89634.9798c2.80661,1.85911,4.37142,4.98515,5.62758,8.0071,1.57558,3.57107,2.602,7.40055,4.69084,10.73116a12.0118,12.0118,0,0,0,4.46833,4.52216c1.93807,1.04441,4.2171.63526,6.29873,1.13772a23.99353,23.99353,0,0,1-15.83834,7.09549A16.63269,16.63269,0,0,1,9.91234,49.11018a10.28143,10.28143,0,0,1-4.10942-6.2413c-.53836-2.16059.23328-4.314.69627-6.4064,1.90935-7.65537,3.79359-15.31793,5.7173-22.96971A14.15307,14.15307,0,0,1,15.827,7.00382M9.58933,36.7496a7.512,7.512,0,0,0,14.49245,3.53877,75.05522,75.05522,0,0,1-4.27811-9.60062A7.60474,7.60474,0,0,0,9.58933,36.7496Z"/></svg>