<svg id="Слой_1" data-name="Слой 1" xmlns="http://www.w3.org/2000/svg" viewBox="0 0 52 52"><defs><style>.cls-1{fill:#f01428;}</style></defs><title>AC</title><path class="cls-1" d="M26.78873,35.91549c0-1.57746.67606-1.80281,2.25352-.9014,2.70423,1.57746,5.40845,2.92957,5.40845,2.92957,0-.9014.90141-1.57746,2.47888-1.12676a26.96435,26.96435,0,0,0,3.15493.67606s-.90141-2.02817-1.35212-2.92958c-.67605-1.57746,0-2.47887.67606-2.70422,0,0-.90141-.67606-1.57747-1.12676-1.35211-.90141-1.12676-2.02817.22536-2.47888,1.80281-.9014,4.28169-1.80281,4.28169-1.80281a2.24067,2.24067,0,0,1-.67606-3.15493c.90141-1.35212,2.47888-3.38028,2.47888-3.38028H39.85916A2.048,2.048,0,0,1,37.831,17.662s-2.47887,1.80282-4.28169,2.92958c-1.57746,1.12676-2.92958,0-2.70422-1.80282.4507-2.70422.67605-5.85915.67605-5.85915a2.19657,2.19657,0,0,1-3.38028-.67606C27.01409,10,25.88733,7.29578,25.88733,7.29578S24.76057,10,23.6338,12.25352a2.15385,2.15385,0,0,1-3.15493.90141s.22536,3.15493.67606,5.85915c.22535,1.57747-1.12676,2.70423-2.70422,1.57747-1.80282-1.12676-4.50705-2.92958-4.50705-2.92958a2.16509,2.16509,0,0,1-2.02817,2.25352H7.6338s1.57747,2.02817,2.47888,3.38028a2.30541,2.30541,0,0,1-.67606,3.15493,38.72022,38.72022,0,0,0,4.28169,1.80282c1.35211.67606,1.80282,1.57747.22535,2.47888a11.26936,11.26936,0,0,1-1.57746,1.12676c.90141.22535,1.57746,1.12676.90141,2.70422-.45071.90141-1.35212,2.92958-1.35212,2.92958a27.22562,27.22562,0,0,1,3.15493-.67606,1.81,1.81,0,0,1,2.47888,1.12676s2.70422-1.57746,5.40845-2.92958c1.35211-.9014,2.25352-.4507,2.25352.90141v3.831a14.25651,14.25651,0,0,1-1.12676,5.85916C13.94366,44.47888,5.38028,36.3662,5.38028,25.5493,5.38028,14.507,14.61972,5.493,26.11268,5.493S46.84507,14.50705,46.84507,25.5493c0,10.3662-8.11268,18.92958-18.47887,20.05634v2.70422C40.53521,47.1831,50,37.493,50,25.5493,50,12.70423,39.1831,2.56338,25.88733,2.56338,12.8169,2.56338,2,12.70423,2,25.324,2,36.3662,10.338,45.60564,21.38028,47.6338c1.80282.45071,2.92958.67606,4.05634,1.80282,1.12676-2.25352,1.35212-6.76056,1.35212-9.23944Z"/></svg>