<svg id="Слой_1" data-name="Слой 1" xmlns="http://www.w3.org/2000/svg" viewBox="0 0 52 52"><defs><style>.cls-1{fill:#c5012d;}.cls-2{fill:#f19817;}</style></defs><title>AI</title><path id="path5" class="cls-1" d="M43.42914,12.16048a.98674.98674,0,0,1,.6088-.11783c1.654.00709,3.308-.02182,4.96206.00163a5.58659,5.58659,0,0,1-.43151.72773q-2.55876,3.9654-5.111,7.93461c-.084.00873-.16583.01909-.24821.02673-1.39817.08837-2.79416.2133-4.194.276-.47187.02182-.94211.06765-1.41453.08238a27.82739,27.82739,0,0,0-5.20973.58971,8.335,8.335,0,0,0-1.29507.342l-.02946.32185a24.80842,24.80842,0,0,0,6.89867-.47678c1.169-.22639,2.34738-.39878,3.51916-.61044.56734-.08783,1.12868-.22312,1.70257-.26458-.00327.03437-.01036.102-.01364.13638-.54279.8892-1.14123,1.74622-1.68184,2.63814l.03437.02346c-.11565,0-.2313.00327-.34641.00218-1.09649-.1151-2.17117-.37313-3.254-.57225a28.73946,28.73946,0,0,0-6.82884-.6339q-.03765.14075-.07474.28258a9.459,9.459,0,0,0,1.64748.515,21.1264,21.1264,0,0,0,3.3015.54988c1.58746.11511,3.182.11238,4.76894.24494.11729.01037.234.01473.35295.02073a.393.393,0,0,1-.00382.16911c-.41732.67645-.86846,1.33108-1.27924,2.01134-.79756-.31313-1.58747-.64753-2.35447-1.02994a21.47339,21.47339,0,0,0-2.115-.92794A28.36977,28.36977,0,0,0,30.95579,23.162q-.0401.15629-.0791.31367a21.43067,21.43067,0,0,0,4.89551,2.25355c.69881.20185,1.40854.366,2.1079.5668.51606.15057,1.04467.26076,1.54928.44787l.11292.04746c-.4446.64917-.85374,1.3218-1.294,1.97425-.74355-.503-1.43472-1.07741-2.12426-1.6513-.36605-.30385-.713-.63226-1.1025-.90665a25.70841,25.70841,0,0,0-4.35654-2.535c-.05564.08837-.11183.1762-.16693.26458a18.20877,18.20877,0,0,0,4.33417,3.43842c1.07032.55316,2.109,1.16414,3.1433,1.78058a2.88566,2.88566,0,0,0-.55807,1.56074,1.63942,1.63942,0,0,0,.83628,1.24815,8.015,8.015,0,0,0,1.42654.689q-1.08094-.01881-2.16026-.07091c-.56243-.72118-1.169-1.4069-1.714-2.14118-.65844-.85428-1.26833-1.74457-1.90387-2.61577a20.13806,20.13806,0,0,0-2.0097-2.253,12.89,12.89,0,0,0-1.67693-1.49472,2.1671,2.1671,0,0,0-.16857.26239,3.2984,3.2984,0,0,0,.4086.75664,17.67526,17.67526,0,0,0,3.38932,4.19342c.73863.62135,1.38181,1.34362,2.07134,2.01734a14.99034,14.99034,0,0,1,1.21543,1.276c-1.18433-.04855-2.36866.02782-3.55135.07692-.042-.09165-.084-.18221-.12438-.27331-.36113-.88429-.69444-1.78058-.9923-2.68778a20.94218,20.94218,0,0,0-1.3649-3.11275c-.39386-.73645-.85919-1.43145-1.31634-2.12971q-.1743.036-.34695.0731a8.50107,8.50107,0,0,0,.29294,1.33107,17.06423,17.06423,0,0,0,1.55583,3.8061c.34423.59462.7801,1.13359,1.078,1.756a9.66121,9.66121,0,0,1,.61535,1.2247,3.40564,3.40564,0,0,0,.60117.05019c-.33059.07091-.67318-.01419-1.0054.04964-.66717.04255-1.32834.14456-1.99388.20566-.07091.00218-.14074.00382-.21111.00546-.174-1.26834-.08129-2.553-.23458-3.823a22.96741,22.96741,0,0,0-.59025-3.10783c-.11892-.45279-.25531-.90066-.36223-1.35672-.14565-.00218-.29131-.0049-.43642-.00709a18.15914,18.15914,0,0,0,.28586,5.17373c.13638.60225.38186,1.17287.51333,1.77622a11.30436,11.30436,0,0,1,.25967,1.26069c.00164.05347.006.16039.00818.21385a13.24416,13.24416,0,0,0-1.67638.31422c-.35732.08837-.70536.21-1.067.27931.22421-1.20015.51006-2.38884.83519-3.56553a14.75023,14.75023,0,0,0,.4506-2.56941,27.48653,27.48653,0,0,0,.13529-2.88962c-.126.00545-.25094.01145-.37641.01691a18.45225,18.45225,0,0,0-.99067,3.266,33.47811,33.47811,0,0,0-.40477,4.63257c-.03546.39114-.03219.78719-.10365,1.175l-.02619.09765a6.52508,6.52508,0,0,0-2.29337,1.13578,1.2593,1.2593,0,0,0-.46588,1.25306,2.41146,2.41146,0,0,0,.91266,1.12377,9.49621,9.49621,0,0,0,2.48158,1.22252,14.89727,14.89727,0,0,0,3.72373.737,30.46348,30.46348,0,0,0,3.34732.09819,24.98194,24.98194,0,0,1-4.22561.53516,13.604,13.604,0,0,1-6.23695-1.1385,22.90943,22.90943,0,0,1-2.97855-1.81877c-.82429-.59735-1.64257-1.20233-2.475-1.78713a26.75825,26.75825,0,0,0-2.93927-1.58747,26.60908,26.60908,0,0,0-5.5965-1.78331C7.58074,31.365,5.28464,31.09062,3,30.76a2.85581,2.85581,0,0,1,.61753-.042,55.05326,55.05326,0,0,0,12.59664-1.1516,4.98581,4.98581,0,0,0,.95138-.24166q.9083-.419,1.79422-.88484a3.80567,3.80567,0,0,1,.67863-.3344,8.93725,8.93725,0,0,1-.79919.60607c-.324.2564-.65026.51115-.98575.75337-.65245.473-1.28416.9743-1.93006,1.456a11.57859,11.57859,0,0,0-.91484.72336c.4386-.2253.85047-.49751,1.27325-.75009,1.50673-.90665,2.96382-1.89514,4.49673-2.7587a32.51975,32.51975,0,0,0,3.34568-2.00425,27.0935,27.0935,0,0,0,2.60541-2.18044c-.05782-.07747-.11455-.15493-.17183-.23185,1.29125-.84829,2.56995-1.71621,3.8552-2.57323a.625.625,0,0,0,.486.04637,22.30928,22.30928,0,0,0,4.45419-2.59286c1.68893-1.29507,3.35441-2.62177,5.07553-3.87484.62135-.491,1.2847-.92684,1.89405-1.43254-.62844.31531-1.216.70645-1.81059,1.08014a1.73757,1.73757,0,0,1-.437.16038,3.19185,3.19185,0,0,1,.39-.3104q1.48436-1.02694,2.96382-2.06153m-.26022,4.97679c-1.084.359-2.16572.72609-3.25567,1.0665-1.05449.33-2.10735.66881-3.18148.93066a24.52846,24.52846,0,0,0-5.85181,2.325c.02291.108.04528.216.06874.32458a16.29714,16.29714,0,0,0,2.12971-.41568,23.57818,23.57818,0,0,0,5.26592-2.01461c.83137-.37641,1.67857-.71573,2.52031-1.06759,1.05667-.43041,2.10135-.89029,3.15857-1.31961a1.17069,1.17069,0,0,0,.5297-.29349c-.45769.16474-.91811.3224-1.384.46423M26.8431,24.2165a21.076,21.076,0,0,0-2.82252,2.57759A22.09255,22.09255,0,0,0,22.366,28.90472c-.64044.91593-1.35235,1.77785-2.0157,2.67632-.68627.90884-1.41126,1.78822-2.08062,2.70961a11.87805,11.87805,0,0,0,1.05122-1.1205c.79537-.84011,1.624-1.64857,2.41557-2.493.79155-.73482,1.54437-1.51,2.32337-2.25846a11.02134,11.02134,0,0,0,1.00213-1.078,22.16167,22.16167,0,0,0,1.56783-2.085,10.57335,10.57335,0,0,0,.59352-.923c-.09819-.0922-.246-.23785-.38023-.1162m.67154.22257a10.75032,10.75032,0,0,0-.88811,1.19961,15.01448,15.01448,0,0,0-1.576,2.95727c-.60007,1.55528-1.19633,3.1122-1.81549,4.65984-.39987,1.03976-.84283,2.06316-1.21815,3.1122a6.37988,6.37988,0,0,0,.4926-.89847c.36878-.71464.75991-1.41727,1.14014-2.1259.58535-1.06431,1.15433-2.13735,1.77786-3.17985a20.21642,20.21642,0,0,0,2.41393-5.64505C27.73176,24.492,27.6232,24.4658,27.51464,24.43907Z"/><g id="_f19817ff" data-name="#f19817ff"><path id="path40" class="cls-2" d="M40.51223,14.372c.59462-.37368,1.18215-.76482,1.81059-1.08013-.60935.5057-1.2727.94157-1.894,1.43254-1.72112,1.25306-3.3866,2.57977-5.07553,3.87484a22.30976,22.30976,0,0,1-4.45419,2.59286.625.625,0,0,1-.486-.04637c.78773-.63553,1.67857-1.127,2.48866-1.732.26022-.20075.54989-.35786.821-.54334,1.04631-.69444,2.04734-1.45817,3.11657-2.1188.51934-.32622.95848-.76537,1.48818-1.07741.37532-.23675.71736-.52261,1.10032-.74791a3.12766,3.12766,0,0,1,.64753-.39386A1.73706,1.73706,0,0,0,40.51223,14.372Z"/><path id="path42" class="cls-2" d="M43.16892,17.13727c.46588-.14183.9263-.29949,1.384-.46424a1.17045,1.17045,0,0,1-.5297.29349c-1.05722.42933-2.1019.8892-3.15857,1.31962-.84174.35186-1.68894.69118-2.52031,1.06759a23.57818,23.57818,0,0,1-5.26592,2.01461,16.29879,16.29879,0,0,1-2.12971.41568c-.02346-.10856-.04583-.21657-.06874-.32458a24.52862,24.52862,0,0,1,5.85181-2.325c1.07413-.26185,2.127-.60062,3.18148-.93066C41.0032,17.86336,42.085,17.49623,43.16892,17.13727Z"/><path id="path44" class="cls-2" d="M39.01532,21.00938c1.39981-.06273,2.7958-.18766,4.194-.276.06055-.00327.18112-.01037.24167-.01364a2.18651,2.18651,0,0,1-.27767.41023c.00327-.03436.01036-.102.01363-.13638-.57389.04146-1.13523.17675-1.70257.26458-1.17178.21166-2.35011.384-3.51916.61044a24.80836,24.80836,0,0,1-6.89866.47679l.02945-.32186a8.33554,8.33554,0,0,1,1.29507-.342,27.82748,27.82748,0,0,1,5.20973-.58971c.47242-.01473.94266-.06055,1.41454-.08237Z"/><path id="path46" class="cls-2" d="M31.09653,22.58758a28.74,28.74,0,0,1,6.82884.63389c1.08286.19912,2.15754.45715,3.254.57226.09764.00872.19475.01418.294.01963-.09219.14675-.18275.29513-.282.43751-.1211-.1151-.30331-.04691-.45169-.07092-1.58693-.13256-3.18149-.12983-4.76895-.24493a21.12642,21.12642,0,0,1-3.3015-.54989,9.45973,9.45973,0,0,1-1.64747-.515Q31.05863,22.72859,31.09653,22.58758Z"/><path id="path48" class="cls-2" d="M30.95579,23.162a28.36934,28.36934,0,0,1,4.38436,1.26125,21.46974,21.46974,0,0,1,2.115.92793c.767.38241,1.55692.71681,2.35447,1.02994a3.03243,3.03243,0,0,1-.25639.40478c-.0311-.01036-.09274-.03164-.12384-.042-.5046-.18712-1.03322-.29731-1.54928-.44788-.69936-.20075-1.40908-.36495-2.1079-.56679a21.431,21.431,0,0,1-4.8955-2.25355Q30.916,23.31858,30.95579,23.162Z"/><path id="path50" class="cls-2" d="M30.4981,23.9372c.0551-.08838.11128-.17621.16693-.26458a25.70793,25.70793,0,0,1,4.35653,2.535c.3895.27439.73645.6028,1.1025.90665.68954.57389,1.38071,1.14833,2.12426,1.6513a1.50624,1.50624,0,0,1-.27276.39059c-1.03431-.61644-2.073-1.22742-3.14329-1.78058A18.209,18.209,0,0,1,30.4981,23.9372Z"/><path id="path52" class="cls-2" d="M25.40075,24.46253c.38732-.24548.75718-.51824,1.15705-.74354.05728.07692.114.15438.17183.23184a27.09092,27.09092,0,0,1-2.60541,2.18045,32.51975,32.51975,0,0,1-3.34568,2.00425c-1.53292.86356-2.99,1.852-4.49673,2.7587-.42278.25258-.83465.52479-1.27325.75009a11.57859,11.57859,0,0,1,.91484-.72336c.6459-.48169,1.27761-.983,1.93-1.456.3355-.24221.66172-.497.98576-.75336a8.94247,8.94247,0,0,0,.79919-.60607,1.97435,1.97435,0,0,1,.563-.38405c.6148-.31313,1.18924-.69718,1.77458-1.06.44024-.24112.845-.539,1.26779-.80792C23.97475,25.40956,24.679,24.92241,25.40075,24.46253Z"/><path id="path54" class="cls-2" d="M30.047,24.34088a2.16589,2.16589,0,0,1,.16857-.26239,12.89011,12.89011,0,0,1,1.67693,1.49473,20.13707,20.13707,0,0,1,2.0097,2.253c.63554.8712,1.24543,1.76149,1.90387,2.61577.545.73428,1.1516,1.42,1.714,2.14118q-.19474,0-.38841.00109a14.98873,14.98873,0,0,0-1.21542-1.276c-.68954-.67372-1.33271-1.396-2.07135-2.01734a17.6755,17.6755,0,0,1-3.38932-4.19342A3.29917,3.29917,0,0,1,30.047,24.34088Z"/><path id="path56" class="cls-2" d="M26.8431,24.2165c.1342-.12165.282.024.38023.1162a10.57335,10.57335,0,0,1-.59352.923,22.1631,22.1631,0,0,1-1.56783,2.085,11.02134,11.02134,0,0,1-1.00213,1.07795c-.779.74845-1.53182,1.52364-2.32337,2.25846-.79155.84446-1.6202,1.65292-2.41557,2.493a11.87805,11.87805,0,0,1-1.05122,1.1205c.66936-.92139,1.39435-1.80077,2.08062-2.7096.66336-.89848,1.37526-1.7604,2.0157-2.67633a22.094,22.094,0,0,1,1.65457-2.11062A21.07672,21.07672,0,0,1,26.8431,24.2165Z"/><path id="path58" class="cls-2" d="M27.51464,24.43908c.10856.02673.21712.05291.32677.07964a20.2166,20.2166,0,0,1-2.41393,5.64506c-.62354,1.04249-1.19251,2.11553-1.77786,3.17984-.38023.70863-.77137,1.41127-1.14014,2.1259a6.37979,6.37979,0,0,1-.4926.89847c.37532-1.049.81828-2.07243,1.21814-3.1122.61917-1.54764,1.21543-3.10456,1.8155-4.65984a15.01448,15.01448,0,0,1,1.576-2.95727A10.7502,10.7502,0,0,1,27.51464,24.43908Z"/><path id="path60" class="cls-2" d="M29.43542,24.53072q.17266-.03681.34695-.0731c.45715.69827.92248,1.39327,1.31634,2.12972a20.94356,20.94356,0,0,1,1.3649,3.11274c.29786.90721.63117,1.8035.9923,2.68779.04092.1031.08292.20621.12275.31095a3.40556,3.40556,0,0,1-.60117-.05019,9.66121,9.66121,0,0,0-.61535-1.2247c-.29786-.62244-.73373-1.16141-1.07795-1.756a17.06462,17.06462,0,0,1-1.55583-3.8061A8.501,8.501,0,0,1,29.43542,24.53072Z"/><path id="path62" class="cls-2" d="M27.12241,27.94132a18.45142,18.45142,0,0,1,.99067-3.266c.12547-.00546.25039-.01146.37641-.01691A27.4864,27.4864,0,0,1,28.3542,27.548a14.75023,14.75023,0,0,1-.4506,2.56941c-.32513,1.17669-.611,2.36538-.8352,3.56553a4.08055,4.08055,0,0,1-.47515.18548L26.614,33.749c.07147-.38787.06819-.78392.10365-1.17506A33.47812,33.47812,0,0,1,27.12241,27.94132Z"/><path id="path64" class="cls-2" d="M28.74479,24.66492c.14511.00218.29076.00491.43642.00709.10692.45606.2433.90393.36223,1.35672a22.96741,22.96741,0,0,1,.59025,3.10783c.15329,1.27.06055,2.55468.23457,3.823.07037-.00164.1402-.00328.21112-.00546a2.35623,2.35623,0,0,1-.75282.13584c-.00764-.072-.01582-.14293-.02291-.21439a11.30407,11.30407,0,0,0-.25967-1.2607c-.13147-.60335-.377-1.174-.51334-1.77622A18.1595,18.1595,0,0,1,28.74479,24.66492Z"/></g></svg>