<svg id="Слой_1" data-name="Слой 1" xmlns="http://www.w3.org/2000/svg" viewBox="0 0 52 52"><defs><style>.cls-1{fill:#e2231b;}</style></defs><title>AK</title><g id="g3501"><g id="g3511"><path id="path3513" class="cls-1" d="M34.64413,31.06572a2.83238,2.83238,0,0,0,2.76941-2.77361c.00613-.86961-.8273-1.328-1.03049-1.93338a1.12466,1.12466,0,0,1,.49327-1.38163c.732-.28751.8819.19156,1.13548.55142.10531.14666.441.11274.55466-.00775a1.714,1.714,0,0,0,.492-.835c.09045-.38636-.32143-1.035-1.50988-.99528a2.54577,2.54577,0,0,0-1.83809.87575c-.38732.36665-1.61067,2.03934-.70616,3.47751.24648.38958.83505.86929.45548,1.235-.59019.56823-1.60485-.31173-1.79577-.57856a.297.297,0,0,0-.50329-.02358c-.094.13955-.5482.94909-.47745,1.2508.20222.93391,1.40942,1.19492,1.96084,1.13839M33.288,24.45054c.367-.05491,1.56059-.19576,1.515.30237-.0714.81082-.3757.79823-1.442,1.02726q-.30381.06735-.64123.13891c-.01744.05427-.03456.08592-.04781.08851a42.00954,42.00954,0,0,0-.65318,4.24214c-.09594.72005.04393,1.495-.81244,1.61486-.857.11985-1.15131-.76107-1.14679-1.515a22.57827,22.57827,0,0,1,.67935-3.9598c-.87188.2229-1.80643.47519-2.73807.76593a47.64483,47.64483,0,0,0-3.37607,7.54584c-.20319.9071-.61248,1.1862-1.21753.9226a1.24532,1.24532,0,0,1-.7333-1.54832,53.36442,53.36442,0,0,1,2.72-6.00819,17.80633,17.80633,0,0,0-2.155,1.01725.67665.67665,0,0,1-.99884-.46162,1.0351,1.0351,0,0,1,.53915-1.34675,28.61525,28.61525,0,0,1,3.90263-1.4149c2.83562-4.7716,6.35642-9.67048,7.37173-9.57906.44159.0378.37181.512.75784.9436.38474.42738.4374.69066-.02067,1.82775A24.51469,24.51469,0,0,0,33.02539,24.49c.09012-.01293.17508-.02649.26263-.03941m-.32272-5.15989a60.64994,60.64994,0,0,0-3.89325,5.95165c.72522-.166,1.42621-.30947,2.07907-.43255a46.67559,46.67559,0,0,1,1.81418-5.5191m9.34291,2.70286A1.49023,1.49023,0,0,0,43.506,20.75693a.79214.79214,0,0,0-1.02662-.83086A1.48791,1.48791,0,0,0,41.281,21.1617a.79244.79244,0,0,0,1.02726.83182m6.45043,3.692c.28039-.44159.87252-.2972.7152.11145a5.85288,5.85288,0,0,1-1.05439,1.70467,3.765,3.765,0,0,1-2.22832,1.56674A.8105.8105,0,0,1,45.17,28.42521l-.0336-.09821c-.00258-.08883-.04587-.12792-.09239-.12049-.04845.00581-.08625.04006-.17638.12631a3.3529,3.3529,0,0,1-1.83582,1.25565c-.94618.125-1.495-.61119-1.36032-1.68045a9.31943,9.31943,0,0,1-.75268.99528,3.76437,3.76437,0,0,1-1.90527,1.41523c-.75462.10176-1.151-.43771-1.02339-1.39423a6.21573,6.21573,0,0,1,.49522-1.58579c.28718-.64156.73523-1.5241,1.14678-2.2435a8.31717,8.31717,0,0,0,.69389-1.48243.3658.3658,0,0,1,.19867-.30591,1.87241,1.87241,0,0,1,.73233-.2888c.53592-.04038,1.24466.34694.77884,1.14808l-.17961.30268c-.02487.06332-.3463.64285-.52978.9604-.33951.532-.77723,1.32542-1.04988,1.863a2.32391,2.32391,0,0,0-.27555.74363c-.01583.11823.02326.18866.11888.17541a1.23967,1.23967,0,0,0,.553-.36891,10.60451,10.60451,0,0,0,.9226-1.12449l.19124-.24584c.15409-.20125,1.37388-1.7935,1.7373-2.187a5.76219,5.76219,0,0,1,2.80558-2.09523.91832.91832,0,0,1,1.02662.58147c.12857.3534.15409.37731.46873.51234.49715.2.66093.36729.62637.62346-.02068.18026-.08851.32175-.40542.82149-.22451.38312-.47034.82891-.64672,1.17489-.37343.73685-.57759,1.23659-.21611,1.36354.13471.04749.38959-.083.70649-.41607a7.28619,7.28619,0,0,0,.869-1.1652m-3.85417,1.3096a11.3361,11.3361,0,0,0,1.70144-3.09955c.0294-.22645-.03747-.3182-.21579-.29462a3.00331,3.00331,0,0,0-1.18942,1.01337,9.93523,9.93523,0,0,0-1.69757,3.05595c-.0281.22483.06008.37246.22257.3534a2.709,2.709,0,0,0,1.17877-1.02855m-22.38655-3.723c.47907-.08819,1.56222.56661,1.04245,1.172-.534.62282-1.1413.49878-2.09361.89417A3.948,3.948,0,0,0,19.92813,26.893a6.42644,6.42644,0,0,0-1.15842,2.98939c-.00226.24-.02132.36148-.14762.44386-1.25695.82084-1.6433.20157-1.61293-.54917a3.599,3.599,0,0,1,.18187-.80759c-.9646,1.45076-1.82162,2.18115-2.38079,2.28161-.75042.13633-1.17328-.38215-1.09284-1.34739a6.16662,6.16662,0,0,1,.41349-1.60227c.2581-.65673.66255-1.56027,1.03856-2.29615.09724-.19253.187-.37666.26683-.54238-.5679.10951-1.37775.27652-2.32749.493-.01518.03166-.02326.04943-.033.05169a41.13292,41.13292,0,0,0-.65479,4.24149c-.09433.7207.04457,1.49567-.81148,1.61551-.85734.1205-1.14226-.75946-1.1484-1.515a16.37824,16.37824,0,0,1,.67612-3.92071c-.89191.22871-1.83227.48811-2.76359.77561-.01324.01939-.02229.03037-.02229.03037a43.90667,43.90667,0,0,0-3.326,7.46735c-.20254.90645-.61183,1.18555-1.21624.92357a1.23692,1.23692,0,0,1-.733-1.54994,44.252,44.252,0,0,1,2.68315-5.899c-.00969.00258,0-.0252.02423-.07333a18.56544,18.56544,0,0,0-2.16532.98785.71521.71521,0,0,1-1.05472-.45451,1.02583,1.02583,0,0,1,.587-1.3558,32.62509,32.62509,0,0,1,3.91522-1.38809c2.84241-4.78064,6.37257-9.70181,7.39176-9.61135.439.03876.36891.513.75688.94456.38474.429.4361.6913-.021,1.82775a24.27594,24.27594,0,0,0-1.76379,5.4293c1.65137-.27329,3.09148-.43125,3.22554-.45225.45742-.0659,1.2424.24551.82827,1.13612,0,0-.43707.76625-.607,1.09446-.31238.54367-.71133,1.35837-.95781,1.90948a2.20733,2.20733,0,0,0-.23485.75494c-.01228.11855.03.18574.126.168a1.26258,1.26258,0,0,0,.53625-.39056,14.09718,14.09718,0,0,0,2.26385-3.06886l.34888-.71585a3.84574,3.84574,0,0,0,.30269-.7627c.0365-.25746.04425-.324.25746-.45936a1.4165,1.4165,0,0,1,1.33512-.168c.34177.22451.2539.63219-.03,1.12741,1.14388-1.28893,1.43946-1.34,1.694-1.3839M11.55272,24.82042a45.68116,45.68116,0,0,1,1.81677-5.52879,59.64441,59.64441,0,0,0-3.90973,5.97976c.72328-.17089,1.42653-.31981,2.093-.451M18.18114,20.735a.791.791,0,0,1,1.02726.8315,1.49232,1.49232,0,0,1-1.19912,1.23594.79453.79453,0,0,1-1.02694-.83666,1.49132,1.49132,0,0,1,1.1988-1.23078"/></g></g></svg>