<svg id="Слой_1" data-name="Слой 1" xmlns="http://www.w3.org/2000/svg" viewBox="0 0 52 52"><defs><style>.cls-1{fill:#003263;}</style></defs><title>AM</title><path class="cls-1" d="M34.75282,18.87332a3.62164,3.62164,0,0,1,1.60974.40974c.83207.39461,1.80614.84866,3.02732,1.43885,0,.0054,1.96713-1.40228,2.073-1.47512a1.03586,1.03586,0,0,1,1.52562.28333,37.49477,37.49477,0,0,1,2.80408,6.89423.77629.77629,0,0,1-.51081.95713,10.63487,10.63487,0,0,1-1.28643.21619c-.71374.08832-.70115.6664-.70115,1.01454,0,.43374.0057,3.33482.0057,4.32853a2.62512,2.62512,0,0,1-2.75082,2.6021H35.298a3.61268,3.61268,0,0,1-3.5945-3.4595c-.00217-1.17484,0-9.35047.00268-10.26614a3.04269,3.04269,0,0,1,3.0466-2.94388Z"/><path class="cls-1" d="M26.44456,35.54284H9.37052V37.439H29.40457a10.03362,10.03362,0,0,0,.727-3.53424c0-.09818.0064-12.87127.0064-12.87127a3.07177,3.07177,0,0,1,2.499-3.1861c.05741-.01259.11582-.02517.17608-.03624a26.29646,26.29646,0,0,1,15.4457,1.35577c.61721.3008.75788-.19169.73959-.40218a6.32646,6.32646,0,0,0-6.17145-6.38881A10.71725,10.71725,0,0,0,37.04945,13.804a.17755.17755,0,0,1-.21252-.06813,8.53577,8.53577,0,0,0-3.3531-1.90652.2.2,0,0,1,.01258-.39664,26.99951,26.99951,0,0,1,6.96707.20275c.26254.04514.462-.10811.35738-.34948-.0836-.18532-.1462-.26721-.27931-.5514a3.0964,3.0964,0,0,0-1.93894-1.48788,44.40066,44.40066,0,0,0-10.318-1.28966,49.16672,49.16672,0,0,0-9.68922,1.06037c-.26587.05623-.63986.1529-.70786.16349-.30379.06161-.37615.35165-.24218.492.07955.08846.31187.28334.4218.4183a.461.461,0,0,1-.06026.67428L10.28482,17.698h5.34306a.69742.69742,0,0,1,.02533,1.39234H8.74744L6.64686,21.00122h8.98538l.05054-.00436a.69513.69513,0,0,1,0,1.38247l-.0549.00571H5.10745L3.004,24.28166H21.15273l.05823.0022a.70422.70422,0,0,1,.63718.69122.658.658,0,0,1-.62374.7025H3v1.8961H21.13392l.05456.00436a.69178.69178,0,0,1,.65784.71993.70074.70074,0,0,1-.66623.6597H3v1.90717H26.731a.668.668,0,0,1,.635.72013.67946.67946,0,0,1-.632.65966H9.37757V34.156h17.067l.36275-.00422c.31878,0,.59524.39733.59524.71861a.68321.68321,0,0,1-.60363.67242Z"/><path class="cls-1" d="M15.74806,42.097l-.00216,1.94293s2.56566.00808,4.02872,0A10.3132,10.3132,0,0,0,25.74513,42.097Z"/><path class="cls-1" d="M15.74806,38.82967l-.00216,1.90064H27.33455A10.61632,10.61632,0,0,0,28.73817,38.834l-12.99011-.00437Z"/></svg>