<svg id="Слой_1" data-name="Слой 1" xmlns="http://www.w3.org/2000/svg" viewBox="0 0 52 52"><defs><style>.cls-1{fill:#004169;}</style></defs><title>AS</title><path id="path3099" class="cls-1" d="M39.18943,33.207a1.96055,1.96055,0,0,1-1.11325-.99541c-.053-.11459-.30561-1.03047-.56124-2.0353s-.4777-1.84245-.49351-1.8614a16.89222,16.89222,0,0,0-.87,1.45155l-.84132,1.486-.99937.01355c-.80339.01089-.99469.00081-.97548-.05141.05686-.15458,5.63148-9.9526,5.82054-10.23024a2.73159,2.73159,0,0,1,1.61218-1.189,3.50678,3.50678,0,0,1,1.09457-.08886c0,.02108-.81057,1.476-1.80126,3.23306S38.26739,26.142,38.27645,26.1515s.6252-.42171,1.36919-.95814l1.35272-.97533,1.08789.01346,1.08788.01345-2.31107,1.67151C39.592,26.83578,38.552,27.60462,38.552,27.625s.38863,1.2886.86361,2.81829.86361,2.79365.86361,2.80879a3.51565,3.51565,0,0,1-1.08978-.04508Z"/><path id="path3097" class="cls-1" d="M29.58,31.39431a13.11011,13.11011,0,0,1-1.84859-.21935,4.84727,4.84727,0,0,1,.3907-.75876l.414-.71942.55793.09043a5.6031,5.6031,0,0,0,1.8402.045.95162.95162,0,0,0,.60988-.54078c.07135-.26839-.05777-.44487-.69269-.94683a5.38754,5.38754,0,0,1-.75485-.70048c-.64374-.88173-.09858-2.20133,1.17594-2.84645a4.186,4.186,0,0,1,2.01113-.46341,14.0816,14.0816,0,0,1,2.18966.11179,7.28278,7.28278,0,0,1-.35983.69621l-.3758.68055-1.1082-.02209a11.50245,11.50245,0,0,0-1.29171.02109.61352.61352,0,0,0-.46943.37089c-.06492.20319.05414.34572.61439.73548,1.01075.70316,1.28918,1.28232,1.05619,2.19694a2.87841,2.87841,0,0,1-2.0099,2.09765,6.81037,6.81037,0,0,1-1.49322.19444C29.98305,31.412,29.77794,31.4017,29.58,31.39431Z"/><path id="path3087" class="cls-1" d="M27.25158,24.23243a4.64722,4.64722,0,0,0-2.92668.8337,9.20778,9.20778,0,0,0-2.80224,3.95267,4.07214,4.07214,0,0,0-.4348,1.4891c0,.47306.16442.72383.54125.82432a4.68606,4.68606,0,0,0,2.72877-.76019c.17663-.10762.32887-.19552.33885-.19552a1.16116,1.16116,0,0,1-.01649.2878c-.019.1583-.03526.37228-.03749.47551l-.00449.1877h.93408c1.06586,0,.92714.07066,1.036-.52556a8.8558,8.8558,0,0,1,.54875-1.70964c.11251-.25172.736-1.38019,1.38538-2.50894s1.19232-2.08593,1.207-2.12571c.02183-.05937-.09665-.082-.65971-.13139C28.36751,24.26294,27.76752,24.2291,27.25158,24.23243Zm-.24889,1.28888c.10518.00005.17842.00774.17842.025,0,.06833-1.95436,3.32693-2.08256,3.47246a3.92415,3.92415,0,0,1-1.09751.74768c-.45147.17336-.801.17033-.90859-.00626-.1266-.20778.02205-.67444.46329-1.46094.90272-1.60907,1.83306-2.49749,2.84872-2.72166A3.28715,3.28715,0,0,1,27.00269,25.52131Z"/><path id="path3083" class="cls-1" d="M46.26,24.234c-.10773.0004-.19388.001-.24889.00469-2.11072.14237-3.61866,1.41075-4.91928,4.13568a5.164,5.164,0,0,0-.73617,2.15387.69317.69317,0,0,0,.56075.80086,1.57,1.57,0,0,0,.72717-.00313,6.51034,6.51034,0,0,0,2.153-.86186c.07409-.05461.14069-.08966.14843-.07978a2.31917,2.31917,0,0,1-.03448.37228c-.07577.55305-.13463.52087.94307.52087h.93108l.03149-.21273a9.01744,9.01744,0,0,1,.82913-2.48078c.09831-.18418.68135-1.208,1.29541-2.27587a17.28433,17.28433,0,0,0,1.057-1.96148C48.8593,24.30174,47.01411,24.23132,46.26,24.234Zm-.18142,1.29514c.03266-.0001.065-.00015.09746.00156l.28637.01565-1.00155,1.70182a8.152,8.152,0,0,1-1.28192,1.9427,3.1198,3.1198,0,0,1-.97306.59908c-.64237.219-.9536.09035-.88311-.36445a6.84774,6.84774,0,0,1,.74217-1.54228C43.95339,26.39933,45.06632,25.53269,46.0786,25.52913Z"/><path id="path3079" class="cls-1" d="M3,31.30683c0-.01138,1.32712-1.00691,2.94917-2.21227S8.89188,26.89625,8.884,26.888c-.01306-.01364-2.86267.08229-4.92441.16578l-.83962.034.38315-.3703a6.98464,6.98464,0,0,1,1.01932-.914,3.35074,3.35074,0,0,1,1.4586-.43121c.3-.0277,1.54363-.05055,2.7637-.05079l2.21831-.00043L14.19027,22.883c1.775-1.341,3.49119-2.62431,3.81379-2.85186A5.997,5.997,0,0,1,21.7737,18.724l.42195.01509-.3173.52014c-.42024.68887-5.49481,9.61972-5.64859,9.94106a7.21414,7.21414,0,0,0-.56271,2.01465l-.00075.11262H13.55525v-.11871a8.73223,8.73223,0,0,1,.38786-1.508,32.04756,32.04756,0,0,1,2.63029-4.88022C17.58558,23.1,18.42464,21.67247,18.438,21.64834a18.75322,18.75322,0,0,0-2.48418,1.82077l-2.3666,1.7769,1.14751.025,1.1475.025-.30848.339a2.98487,2.98487,0,0,1-1.15414.82887,3.98694,3.98694,0,0,1-1.41608.16647c-.60693.02513-1.17907.06355-1.27143.08537-.109.02575-1.22742.842-3.18681,2.32573l-3.01888,2.286H4.26319C3.56844,31.32752,3,31.31821,3,31.30683Z"/><path id="path3075" class="cls-1" d="M17.34554,31.25572a7.56915,7.56915,0,0,1,.29671-1.27964,13.004,13.004,0,0,1,.56524-1.32642c.37152-.76282,3.95159-7.08841,4.50391-7.95791A2.82331,2.82331,0,0,1,24.50429,19.344a3.07168,3.07168,0,0,1,1.04556-.0542c0,.01383-1.213,2.15926-2.6956,4.7676-1.5841,2.787-2.79349,4.96949-2.933,5.29305a7.632,7.632,0,0,0-.51264,1.83229v.14482H18.37708C17.513,31.32752,17.34554,31.31587,17.34554,31.25572Z"/></svg>