<svg id="Слой_1" data-name="Слой 1" xmlns="http://www.w3.org/2000/svg" viewBox="0 0 52 52"><defs><style>.cls-1{fill:#c92116;}</style></defs><title>AT</title><path class="cls-1" d="M27.39931,29.19052l1.90256,5.85612-2.20344-1.60131-.7385.53649,3.84633,2.79472a7.532,7.532,0,0,1-8.02772.24357l-.76122.55319a8.42087,8.42087,0,0,0,9.53539-.25426l.001.00058L28.31185,29.189Zm.56368,3.10432-.28359-.86746-4.98147,3.61926.842-2.59037-.73848-.53669L21.33233,36.4405a7.53927,7.53927,0,0,1-2.71478-7.56019l-.76073-.5528A8.42915,8.42915,0,0,0,21.04691,37.319l-.0004.001Zm6.46466-2.04809a6.91725,6.91725,0,0,0-.412-2.34912h-.00116l.00038-.00034H25.46565l-.28049.78332h6.15758l-2.204,1.444.28222.78315,3.8504-2.52307a6.17831,6.17831,0,0,1,.28807,1.86205,6.53521,6.53521,0,0,1-2.54162,5.09346l.29135.80874A7.33037,7.33037,0,0,0,34.42765,30.24675Zm-1.503-2.77213h.9405A8.42887,8.42887,0,0,0,26,22.07408l-.0002.00078-.00018-.00048L23.35776,30.205l.73928.53513L25.9998,24.884l.84145,2.59076h.91292l-1.469-4.5213A7.56834,7.56834,0,0,1,32.92464,27.47462Zm-14.93991.42324L24.90119,32.923l.73733-.53764-4.98146-3.61946,2.724.00039.282-.86824-4.75779-.0002a7.57527,7.57527,0,0,1,6.3556-4.91852l.2902-.89312a8.431,8.431,0,0,0-7.56679,5.81107l.001.00057Zm9.26773-12.3806a1.22391,1.22391,0,1,0,2.24171.91331.442.442,0,1,0-.77559.18957s-.17579.13267-.5932-.03749c-.41764-.17-.45065-.3879-.45065-.3879a.44192.44192,0,1,0-.42227-.67749Zm2.31125,4.00325c-.33272-.62446-1.032-.41411-1.38628.62487q.38487.08055.75908.18852C29.20378,19.52732,29.56371,19.52051,29.56371,19.52051Zm.17229-1.403c.65905-.50609,1.02384-.871,1.61239-.871a1.15309,1.15309,0,0,1,.92009.36691,1.64744,1.64744,0,0,1,.36343,1.13943,1.59276,1.59276,0,0,1-.36633,1.10346,2.86578,2.86578,0,0,1-.90554.63857.73225.73225,0,0,0-.43529.7415,2.887,2.887,0,0,0,1.95676-.85048,2.39268,2.39268,0,0,0,.59631-1.63305,2.49525,2.49525,0,0,0-.57592-1.69941A1.99016,1.99016,0,0,0,31.36,16.388a2.04474,2.04474,0,0,0-1.53.71732,2.514,2.514,0,0,1-1.84761.765C28.06477,18.61188,29.202,18.52766,29.736,18.11753Zm.99528,2.02757c-.11539-.34624-.801-.65168-1.141.40071q.35081.12658.68975.27669C30.41894,20.25368,30.73128,20.1451,30.73128,20.1451Zm-6.24362-.11665q.39594-.05665.80085-.08382c-.30613-1.32014-1.13417-1.70717-1.54148-.9943C23.747,18.95033,24.24253,19.06571,24.48766,20.02845Zm1.51254-2.336-.00058-.00058V17.693a2.40421,2.40421,0,0,0-.5398.87349,2.94639,2.94639,0,0,1,.54038.78455,2.94653,2.94653,0,0,1,.54037-.78455,2.4041,2.4041,0,0,0-.53979-.87349v-.00115Zm.71169,2.25219q.40471.027.80085.08382c.24513-.96274.74063-1.07812.74063-1.07812C27.84606,18.23746,27.018,18.62449,26.71189,19.94463Zm-1.577-4.21254.86476-.62837.86474.62837-.33019-1.01666.86474-.62827H26.33l-.3304-1.01664-.33041,1.01664h-1.0688l.86484.62827Zm.86476.07759a.69654.69654,0,1,0,.69633.69635A.69649.69649,0,0,0,25.99962,15.80968Zm4.67883,6.6992v-.963a10.07429,10.07429,0,0,0-9.3565,0v.963a9.25563,9.25563,0,0,1,9.3565,0Zm-6.521-5.233a1.24461,1.24461,0,0,0,.5905-1.75864.442.442,0,1,0-.42229.67749s-.033.21794-.45063.3879c-.41741.17016-.5932.03749-.5932.03749a.442.442,0,1,0-.77559-.18957A1.24447,1.24447,0,0,0,24.15744,17.2759Zm-1.72075,2.24461s.35991.00681.6272.81339q.3741-.10779.75908-.18852C23.46867,19.1064,22.76941,18.89605,22.43669,19.52051Zm-.71636,1.302q.33886-.1499.68975-.27669c-.33992-1.05239-1.0256-.74695-1.141-.40071C21.26912,20.1451,21.58146,20.25368,21.72033,20.8225Zm-.64468.41393a.73225.73225,0,0,0-.43529-.7415,2.86555,2.86555,0,0,1-.90554-.63857,1.59276,1.59276,0,0,1-.36634-1.10346,1.64749,1.64749,0,0,1,.36342-1.13943,1.15314,1.15314,0,0,1,.92011-.36691c.58855,0,.95334.36488,1.61239.871.534.41013,1.67123.49435,1.75359-.24718a2.514,2.514,0,0,1-1.84761-.765,2.04476,2.04476,0,0,0-1.53-.71732,1.99016,1.99016,0,0,0-1.54186.66547,2.4952,2.4952,0,0,0-.57592,1.69941,2.39268,2.39268,0,0,0,.59631,1.63305A2.887,2.887,0,0,0,21.07565,21.23643Zm13.38309,6.66086a8.78867,8.78867,0,0,1,.21966.86844H48.06557c-.76121.7484-1.11124,1.23477-3.27274,1.23477h-4.169a3.435,3.435,0,0,1-1.509.86825h5.99754A4.15593,4.15593,0,0,0,48.68966,29.377L50,27.89729ZM42.974,32.10372H38.805a3.43714,3.43714,0,0,1-1.509.86824H43.2935a4.15644,4.15644,0,0,0,3.57731-1.49175l.2463-.27815h-1.209C45.32991,31.758,44.794,32.10372,42.974,32.10372Zm-1.81886,2.103H36.98617a3.43715,3.43715,0,0,1-1.509.86826h5.99752a4.15634,4.15634,0,0,0,3.57729-1.49155l.2463-.27817H44.0893C43.51106,33.861,42.97514,34.20674,41.15512,34.20674Zm-1.81885,2.103H32.66881a8.90929,8.90929,0,0,1-.86979.86844H39.6558a4.15642,4.15642,0,0,0,3.57729-1.49176l.2463-.27814H42.27045C41.69219,35.964,41.15629,36.30978,39.33627,36.30978ZM16.52289,35.075a3.43717,3.43717,0,0,1-1.50906-.86826h-4.169c-1.82,0-2.35594-.34573-2.93418-.90146H6.70176l.2463.27817A4.15634,4.15634,0,0,0,10.52535,35.075Zm2.8083,1.23478H12.66373c-1.82,0-2.35592-.34575-2.93416-.90146h-1.209l.2463.27814a4.15645,4.15645,0,0,0,3.57731,1.49176H20.201A8.91151,8.91151,0,0,1,19.33119,36.30978Zm-6.446-5.441a3.435,3.435,0,0,1-1.509-.86825h-4.169c-2.1615,0-2.51151-.48637-3.27274-1.23477H17.3216a8.78874,8.78874,0,0,1,.21968-.86844H2L3.31034,29.377a4.156,4.156,0,0,0,3.57731,1.49176ZM14.704,32.972a3.43714,3.43714,0,0,1-1.509-.86824H9.026c-1.82,0-2.35593-.34575-2.93417-.90166H4.88291l.24628.27815A4.15644,4.15644,0,0,0,8.7065,32.972Z"/></svg>