<svg id="Слой_1" data-name="Слой 1" xmlns="http://www.w3.org/2000/svg" viewBox="0 0 52 52"><defs><style>.cls-1{fill:#0b1560;}</style></defs><title>AY</title><path class="cls-1" d="M26.50313,29.66563,23.7,33.11563c-1.725,1.94062-3.23437,2.5875-6.39687,2.5875H3L7.24063,31.4625c1.65312-1.58125,2.94687-2.15625,6.6125-2.15625H16.5125c2.3,0,2.44375-.07187,3.80938-1.4375l7.7625-9.2c1.4375-1.725,2.94687-2.37187,5.53437-2.37187H49l-2.73125,3.52187a7.28334,7.28334,0,0,1-6.0375,2.51562h-8.05a1.06782,1.06782,0,0,0-.93437.43126c-.14375.14375-1.725,2.08437-1.725,2.08437H39.94375l-2.08437,2.51562a6.751,6.751,0,0,1-5.31876,2.37188H26.50313Z"/></svg>