<svg id="Слой_1" data-name="Слой 1" xmlns="http://www.w3.org/2000/svg" viewBox="0 0 52 52"><defs><style>.cls-1{fill:#8ebde7;}.cls-2{fill:#4c4f54;}</style></defs><title>B0</title><path class="cls-1" d="M39.39539,30.762h0a4.80209,4.80209,0,1,1,4.68451-4.80066A4.67824,4.67824,0,0,1,39.39539,30.762Zm0-15.13756h0A10.33958,10.33958,0,1,0,49.5,25.96129,10.26291,10.26291,0,0,0,39.39539,15.62439Z"/><path class="cls-2" d="M29.01977,34.36244h0a11.24878,11.24878,0,0,1-7.93658,3.32949,11.69428,11.69428,0,0,1,0-23.38385,11.1124,11.1124,0,0,1,7.93658,3.25206,13.39646,13.39646,0,0,1,5.88467-4.29737A18.31332,18.31332,0,0,0,21.08319,6.99094,18.80614,18.80614,0,0,0,2.5,26,18.757,18.757,0,0,0,21.08319,45.00906a18.3133,18.3133,0,0,0,13.82125-6.27183A14.43972,14.43972,0,0,1,29.01977,34.36244Z"/></svg>