<svg id="Слой_1" data-name="Слой 1" xmlns="http://www.w3.org/2000/svg" viewBox="0 0 52 52"><defs><style>.cls-1{fill:#49559f;}</style></defs><title>B2</title><g id="_Группа_" data-name="&lt;Группа&gt;"><g id="_Группа_2" data-name="&lt;Группа&gt;"><g id="_Группа_3" data-name="&lt;Группа&gt;"><path id="_Контур_" data-name="&lt;Контур&gt;" class="cls-1" d="M25.10507,6.18391c-.01238-.04355-.02469-.08567-.03292-.12923l-1.959-3.7793a.31607.31607,0,0,0-.58994.08107l-.7306,3.52338a.31607.31607,0,0,1-.562.12553L19.03879,3.0938a.316.316,0,0,0-.56846.1837l-.06672,3.6457a.31588.31588,0,0,1-.52505.23067L15.05819,4.66529a.3159.3159,0,0,0-.52115.28637l.58416,3.63788a.31586.31586,0,0,1-.48145.31623L11.51288,6.921a.31582.31582,0,0,0-.46889.3669l1.35585,4.02323c.02469.03878.04567.07621.06872.115l9.10778,9.71614a.227.227,0,0,0,.31328.01515,6.39019,6.39019,0,0,1,3.669-1.50656.22633.22633,0,0,0,.212-.2357Z"/></g></g><g id="_Группа_4" data-name="&lt;Группа&gt;"><g id="_Группа_5" data-name="&lt;Группа&gt;"><path id="_Контур_2" data-name="&lt;Контур&gt;" class="cls-1" d="M11.33636,12.61981c-.04115-.02247-.077-.04421-.11609-.06669l-4.06119-1.289a.31567.31567,0,0,0-.35984.47391l1.97814,3.00737A.31591.31591,0,0,1,8.469,15.231l-3.61-.51248a.3154.3154,0,0,0-.27169.53134l2.53422,2.62494a.31547.31547,0,0,1-.20793.53389l-3.75633.23195a.31547.31547,0,0,0-.1659.57049L5.9802,21.371a.31534.31534,0,0,1-.11653.56357l-3.61643.8047a.31537.31537,0,0,0-.07161.59058L5.983,25.21722l.1301.03273,13.32011.43878a.22618.22618,0,0,0,.23181-.21,6.37189,6.37189,0,0,1,1.52766-3.65661.22625.22625,0,0,0-.01646-.31631Z"/></g></g><g id="_Группа_6" data-name="&lt;Группа&gt;"><g id="_Группа_7" data-name="&lt;Группа&gt;"><path id="_Контур_3" data-name="&lt;Контур&gt;" class="cls-1" d="M6.15735,26.89357l-.12928.03491L2.24372,28.88487a.31541.31541,0,0,0,.0811.58914l3.52817.72961a.31539.31539,0,0,1,.12557.56126L3.06315,32.95166a.31544.31544,0,0,0,.184.56773l3.65053.06657a.31555.31555,0,0,1,.231.52438L4.63673,36.927a.31586.31586,0,0,0,.287.52043l3.64274-.58334a.31557.31557,0,0,1,.31662.48079L6.89561,40.4676a.3157.3157,0,0,0,.36762.46826l4.02865-1.35407c.03707-.02318.07614-.04553.11528-.06871l9.72912-9.09563a.22748.22748,0,0,0,.01646-.31277,6.37336,6.37336,0,0,1-1.50862-3.66411.22572.22572,0,0,0-.23589-.21165Z"/></g></g><g id="_Группа_8" data-name="&lt;Группа&gt;"><g id="_Группа_9" data-name="&lt;Группа&gt;"><path id="_Контур_4" data-name="&lt;Контур&gt;" class="cls-1" d="M12.60181,40.64393c-.02061.03915-.044.077-.06672.11606l-1.29076,4.05575a.31583.31583,0,0,0,.47454.35929l3.01134-1.97553a.31592.31592,0,0,1,.48629.30811l-.51318,3.60507a.316.316,0,0,0,.53209.27156l2.62845-2.53083a.316.316,0,0,1,.5346.20766l.23218,3.75135a.31593.31593,0,0,0,.57129.1655l2.16277-2.98485a.31606.31606,0,0,1,.56431.11635L22.7348,49.721a.316.316,0,0,0,.59133.07168l1.88994-3.80231c.01237-.04381.0206-.08609.03292-.12989l.43936-13.30232a.226.226,0,0,0-.21038-.23141,6.39026,6.39026,0,0,1-3.66153-1.52563.22653.22653,0,0,0-.31662.017Z"/></g></g><g id="_Группа_10" data-name="&lt;Группа&gt;"><g id="_Группа_11" data-name="&lt;Группа&gt;"><path id="_Контур_5" data-name="&lt;Контур&gt;" class="cls-1" d="M26.89468,45.816c.01238.04356.02469.08563.03292.12924l1.959,3.77934a.31607.31607,0,0,0,.58994-.08107l.73054-3.52343a.31612.31612,0,0,1,.56205-.12552l2.18972,2.91152a.316.316,0,0,0,.56846-.1837l.06671-3.6457a.31589.31589,0,0,1,.52505-.23068l2.82037,2.48859a.31588.31588,0,0,0,.52115-.28638l-.58416-3.63788a.31586.31586,0,0,1,.48145-.31622l3.12693,1.98475a.31582.31582,0,0,0,.46889-.3669l-1.35584-4.02323c-.02469-.03879-.04567-.07621-.06873-.115L30.42134,30.8576a.227.227,0,0,0-.31329-.01515,6.39016,6.39016,0,0,1-3.669,1.50656.22659.22659,0,0,0-.212.2357Z"/></g></g><g id="_Группа_12" data-name="&lt;Группа&gt;"><g id="_Группа_13" data-name="&lt;Группа&gt;"><path id="_Контур_6" data-name="&lt;Контур&gt;" class="cls-1" d="M40.66339,39.38015c.04115.02247.077.04421.11609.06669l4.06113,1.289a.31567.31567,0,0,0,.35983-.47394L43.2223,37.25459a.31592.31592,0,0,1,.30838-.48559l3.6099.51248a.3154.3154,0,0,0,.27169-.53134L44.87849,34.1252a.31547.31547,0,0,1,.20793-.53389l3.75639-.23195a.31547.31547,0,0,0,.16591-.57049L46.0198,30.629a.31534.31534,0,0,1,.11653-.56357l3.61643-.8047a.31537.31537,0,0,0,.07161-.59058L46.017,26.78274l-.1301-.03273-13.32-.43878a.22617.22617,0,0,0-.23181.21,6.37147,6.37147,0,0,1-1.52772,3.65662.22667.22667,0,0,0,.01646.31631Z"/></g></g><g id="_Группа_14" data-name="&lt;Группа&gt;"><g id="_Группа_15" data-name="&lt;Группа&gt;"><path id="_Контур_7" data-name="&lt;Контур&gt;" class="cls-1" d="M45.84234,25.10635l.12928-.03491L49.756,23.11505a.31535.31535,0,0,0-.0811-.58918l-3.5281-.72961a.3154.3154,0,0,1-.12557-.56127l2.91547-2.18677a.31543.31543,0,0,0-.184-.56773l-3.65053-.06657a.31555.31555,0,0,1-.231-.52438l2.49194-2.81663a.31586.31586,0,0,0-.287-.52042l-3.64281.58333a.31557.31557,0,0,1-.31661-.48078l1.98738-3.12277a.3156.3156,0,0,0-.36725-.46826l-4.02865,1.35407c-.03706.02318-.07614.04554-.11527.06872l-9.72907,9.09563a.22748.22748,0,0,0-.01646.31276,6.37276,6.37276,0,0,1,1.50856,3.66411.22572.22572,0,0,0,.23589.21165Z"/></g></g><g id="_Группа_16" data-name="&lt;Группа&gt;"><g id="_Группа_17" data-name="&lt;Группа&gt;"><path id="_Контур_8" data-name="&lt;Контур&gt;" class="cls-1" d="M39.39788,11.356c.02061-.03916.04448-.077.06672-.11606l1.2907-4.05576a.31584.31584,0,0,0-.47455-.35928l-3.0114,1.97553a.31589.31589,0,0,1-.48623-.30812l.51318-3.60507a.316.316,0,0,0-.53209-.27155L34.13576,7.14654a.316.316,0,0,1-.5346-.20766L33.369,3.18754a.31592.31592,0,0,0-.57129-.1655L30.63493,6.00693a.31607.31607,0,0,1-.56432-.11635L29.26482,2.279a.31608.31608,0,0,0-.59139-.07168L26.78355,6.00964c-.01237.04381-.0206.08609-.03291.12989l-.43937,13.30232a.226.226,0,0,0,.21039.23141,6.39032,6.39032,0,0,1,3.66153,1.52563.22652.22652,0,0,0,.31661-.017Z"/></g></g><circle id="_Контур_9" data-name="&lt;Контур&gt;" class="cls-1" cx="25.99987" cy="25.99998" r="5.60682"/></g></svg>