<svg id="Слой_1" data-name="Слой 1" xmlns="http://www.w3.org/2000/svg" viewBox="0 0 52 52"><defs><style>.cls-1{fill:#003876;}</style></defs><title>B6</title><path id="path19" class="cls-1" d="M3.55955,21.61473H5.40969v9.91366a2.5161,2.5161,0,0,1-2.68531,2.576H2V32.363h.52514c.635,0,1.03441-.2911,1.03441-.98V21.61473Zm0-3.71913H5.40969v1.85047H3.55955V17.8956Z"/><path id="path21" class="cls-1" d="M8.45412,25.38776a1.93418,1.93418,0,0,1,1.94142-2.14015c1.0888,0,1.88668.74356,1.94042,2.14015Zm5.73214,1.52309V25.38776a3.73268,3.73268,0,0,0-3.79056-3.88183c-1.77888,0-3.79172,1.1604-3.79172,4.73461,0,3.77287,2.19456,4.6802,4.08166,4.6802a4.23539,4.23539,0,0,0,3.31858-1.488l-1.34113-1.14213a2.8938,2.8938,0,0,1-2.01391.88849,2.05949,2.05949,0,0,1-2.195-2.26822Z"/><path id="path23" class="cls-1" d="M15.65313,18.82079h1.85014v2.79394h1.34137v1.41495H17.50327v5.35077c0,.50844.19916.68966.65138.68966h.69v1.74142h-.961a2.10439,2.10439,0,0,1-2.23052-2.26764V23.02968h-.92668V21.61473h.92668V18.82079Z"/><path id="path25" class="cls-1" d="M24.99519,25.07939a1.94707,1.94707,0,1,1,0,3.88167H21.98333V25.07939Zm-4.97188,5.73214h5.44262a3.52682,3.52682,0,0,0,3.59149-3.66407,2.89608,2.89608,0,0,0-2.1037-2.97582v-.03571a2.82179,2.82179,0,0,0,1.90512-2.77517c-.00017-2.03178-1.30756-3.46516-3.82826-3.46516H20.02331V30.81153Zm4.78934-11.17384a1.86371,1.86371,0,1,1,0,3.70077H21.98333V19.63769Z"/><path id="path27" class="cls-1" d="M30.12092,17.8956h1.85015V28.435c0,.41717.23594.6351.69089.6351h.63394v1.74142h-.81623c-1.34327,0-2.35875-.58011-2.35875-2.23167V17.8956Z"/><path id="path29" class="cls-1" d="M34.07559,21.61473H35.926V27.0924a1.82892,1.82892,0,1,0,3.64572,0V21.61473h1.851v9.1968h-1.851v-.98009H39.537a2.93809,2.93809,0,0,1-2.3776,1.08922,3.09009,3.09009,0,0,1-3.08379-3.19258V21.61473Z"/><path id="path31" class="cls-1" d="M44.2672,25.38776a1.93493,1.93493,0,0,1,1.94108-2.14015c1.08823,0,1.88619.74356,1.942,2.14015ZM50,26.91085V25.38776a3.7326,3.7326,0,0,0-3.79172-3.88183c-1.77789,0-3.79213,1.1604-3.79213,4.73461,0,3.77287,2.19588,4.6802,4.08173,4.6802a4.237,4.237,0,0,0,3.3204-1.488l-1.34294-1.14205a2.88937,2.88937,0,0,1-2.01284.88857,2.05991,2.05991,0,0,1-2.1953-2.2683L50,26.91085Z"/></svg>