<svg id="Слой_1" data-name="Слой 1" xmlns="http://www.w3.org/2000/svg" viewBox="0 0 52 52"><defs><style>.cls-1{fill:#14427a;}.cls-1,.cls-2{fill-rule:evenodd;}.cls-2{fill:#e11a27;}</style></defs><title>BA</title><path class="cls-1" d="M45.82991,24.49093a18.81437,18.81437,0,0,1-5.49456,2.88822c-1.90185.70451-2.7473.98636-3.80415,1.33847-1.19732.35231-3.59252,1.12707-3.59252,1.12707a55.754,55.754,0,0,0,8.4534,1.902,25.72,25.72,0,0,0,4.22657-1.902,9.18215,9.18215,0,0,0,2.536-1.62021,1.96575,1.96575,0,0,0,.77486-1.268c0-.07047.07048-.14094.07048-.282V26.5338a.21782.21782,0,0,1-.07048-.14081.70148.70148,0,0,0-.07046-.28174,1.18162,1.18162,0,0,0-.42256-.63395,4.181,4.181,0,0,0-1.54985-.84545,8.37111,8.37111,0,0,0-.98627-.28185l-.07047.14093Z"/><path class="cls-2" d="M49,26.60427a.34762.34762,0,0,0-.07048-.21128c0-.14093-.07046-.21139-.14092-.35221a2.68909,2.68909,0,0,1-.3521-.42265,1.86855,1.86855,0,0,1-.42276-.35221,6.96331,6.96331,0,0,0-2.32473-.775A26.69778,26.69778,0,0,0,42.94183,24.35c-.42268,0-3.31091,0-4.01543.07047-3.2403.07046-7.25572.07046-8.31233.07046-10.77789,0-15.49782-.2114-20.71056-1.268A55.59883,55.59883,0,0,1,3,21.53235c3.94484-.14092,26.83908-1.12718,30.99531-1.19764a59.36874,59.36874,0,0,1,6.19922,0,10.192,10.192,0,0,1,2.46554.28184,14.53539,14.53539,0,0,1,2.04289.49314,4.44909,4.44909,0,0,1,2.11334,1.40882.84727.84727,0,0,1,.28173.28162,3.164,3.164,0,0,0,.42269.63417,12.343,12.343,0,0,1,.91578,1.62022,2.508,2.508,0,0,1,.28176.63407.45531.45531,0,0,1,.1408.35219c.07046.21128.07046.42268.14094.493v.07047Z"/></svg>