<svg id="Слой_1" data-name="Слой 1" xmlns="http://www.w3.org/2000/svg" viewBox="0 0 52 52"><defs><style>.cls-1{fill:#00447c;}.cls-2{fill:#6caedf;}.cls-3{fill:#fdb813;}.cls-4{fill:#ee3224;}.cls-5{fill:#5a3f99;}</style></defs><title>BE</title><g id="layer1"><path id="path15303" class="cls-1" d="M25.22284,17.1284c-.67561,0-.98839.52-.98839,1.23549v10.7607c0,1.27151.31374,1.59418,1.34708,1.59418.91347,0,.83248-.279,1.78548-.279.95364,0,1.04068.51811,2.51083.51811,2.46237,0,4.36805-1.82948,4.36805-5.56368,0-3.21737-1.79377-4.96586-4.25646-4.96586a20.09571,20.09571,0,0,0-2.30358.4384c-.556,0-.829-.6399-.829-1.19563V18.36389c0-.83439-.44-1.23548-.99636-1.23548h-.63767Zm14.93745,2.96517c-2.58194,0-5.04558,1.54317-5.04558,5.59557a4.77618,4.77618,0,0,0,5.08543,5.16513c2.97952,0,4.4079-1.78739,4.4079-2.42314,0-.477-.71228-1.02825-1.34708-1.02825-1.03271,0-1.313,1.38694-3.021,1.38694a2.13717,2.13717,0,0,1-2.06446-1.82533c0-.6753.47315-1.03622,1.38694-1.03622h4.13689c.95395,0,1.34708-.234,1.34708-1.1478a4.70062,4.70062,0,0,0-4.88616-4.68689Zm0,2.06446c.95363,0,1.79345.711,1.79345,1.34708,0,.55637-.68231.837-1.99272.837-1.07289,0-1.62606-.32108-1.62606-.91666,0-.71483,1.03143-1.26737,1.82533-1.26737ZM29.28,22.29353c1.58844,0,2.30359,1.55273,2.30359,3.57893,0,2.14576-1.11242,3.17242-2.3833,3.17242-1.35059,0-2.30358-1.14782-2.30358-3.4514C26.89673,23.28957,28.048,22.29353,29.28,22.29353ZM47.11887,27.2036c-1.35058,0-1.74562.51428-1.74562,1.86519,0,.87361.15623,1.78548,1.78548,1.78548,1.15164,0,1.7536-.39536,1.7536-1.86519,0-.954-.16452-1.78548-1.79345-1.78548Z"/><path id="path15315" class="cls-2" d="M7.24848,16.55449A2.46223,2.46223,0,0,0,4.70577,18.34c-.31788,1.1121-.3115,1.47494-.55,1.67389C3.55988,20.52974,3,20.68565,3,21.36094c0,.99317,1.5065.63608,1.5065,2.54271v5.40427c0,1.033.48144,1.38693,1.55432,1.38693,1.03239,0,1.46665-.47315,1.46665-1.38693V23.70438a1.44663,1.44663,0,0,1,.47825-1.18766c.31788-.23881,1.3152-.47985,1.3152-1.19563a.99466.99466,0,0,0-.63768-.8768c-.5959-.27834-.71738-.43074-.71738-.74926,0-.278.20183-.47985.83695-.83695.67529-.35805.58984-.83088.58984-1.26737,0-.557-.59271-1.03621-1.38693-1.03621H7.24848Zm4.28834.0558a1.19148,1.19148,0,0,0-1.18766,1.27534V29.24415c0,1.03335.43394,1.47462,1.62606,1.47462.99318,0,1.47462-.44032,1.47462-1.27535V18.0849c0-.99253-.44127-1.47461-1.27535-1.47461Zm3.71444,3.834c-.55637,0-1.194.20406-.71738,1.79345.11892.43712,2.62242,7.82136,2.62242,8.497a1.2967,1.2967,0,0,1-1.14781,1.23548c-.71547.1591-1.15578.47284-1.15578,1.108a1.00641,1.00641,0,0,0,1.07607,1.07607h.98839c1.15164,0,2.42571-.35837,3.22024-2.82169L23.278,21.79934a2.48757,2.48757,0,0,0,.0797-.63767.81267.81267,0,0,0-.87679-.71737h-.67753a1.28025,1.28025,0,0,0-1.38693,1.03621l-.83695,3.84994c-.11892.59654-.36,1.23549-.75723,1.23549-.31756,0-.59017-.20278-.78912-1.19563L17.236,21.71964c-.19831-.83439-.59176-1.27534-1.26737-1.27534h-.71738Z"/><path id="path15339" class="cls-3" d="M25.725,31.77889c-1.35314,0-1.7536.51907-1.7536,1.87317,0,.87583.16069,1.79345,1.79345,1.79345,1.15419,0,1.74562-.39918,1.74562-1.87317C27.51048,32.6168,27.35776,31.77889,25.725,31.77889Zm4.29631,0c-1.35346,0-1.7536.51907-1.7536,1.87317,0,.87583.1607,1.79345,1.79345,1.79345,1.15419,0,1.74563-.39918,1.74563-1.87317C31.8068,32.6168,31.65407,31.77889,30.02132,31.77889Z"/><path id="path15347" class="cls-4" d="M34.38139,31.77889c-1.35314,0-1.74562.51907-1.74562,1.87317,0,.87583.15272,1.79345,1.78547,1.79345,1.15451,0,1.7536-.39918,1.7536-1.87317,0-.95554-.16069-1.79345-1.79345-1.79345Zm4.29631,0c-1.35377,0-1.75359.51907-1.75359,1.87317,0,.87583.16037,1.79345,1.79345,1.79345,1.15418,0,1.75359-.39918,1.75359-1.87317,0-.95554-.16037-1.79345-1.79345-1.79345Z"/><path id="path15355" class="cls-5" d="M42.974,31.77889c-1.35313,0-1.75359.51907-1.75359,1.87317,0,.87583.16133,1.79345,1.79345,1.79345,1.1545,0,1.75359-.39918,1.75359-1.87317C44.76746,32.6168,44.60741,31.77889,42.974,31.77889Zm4.23254,0c-1.35314,0-1.75359.51907-1.75359,1.87317,0,.87583.16069,1.79345,1.79345,1.79345,1.1545,0,1.75359-.39918,1.75359-1.87317,0-.95554-.16037-1.79345-1.79345-1.79345Z"/></g></svg>