<svg id="Слой_1" data-name="Слой 1" xmlns="http://www.w3.org/2000/svg" viewBox="0 0 52 52"><defs><style>.cls-1{fill:#11185e;}</style></defs><title>BT</title><g id="_11185eff" data-name="#11185eff"><path class="cls-1" d="M10.25592,20.78008h1.853c-.01518.61489-.00506,1.23024-.00874,1.8456-.61535,0-1.23116.0023-1.847-.00368C10.2504,22.008,10.25638,21.39405,10.25592,20.78008Z"/><path class="cls-1" d="M18.13916,20.78008h3.81353a4.41686,4.41686,0,0,1,2.53592.76988,2.10567,2.10567,0,0,1,.751,1.525,2.33129,2.33129,0,0,1-.63053,1.88607,3.5913,3.5913,0,0,1-1.38063.75977,3.94,3.94,0,0,1,1.39673.61351,2.05829,2.05829,0,0,1,.67928.88348,2.8882,2.8882,0,0,1,.13383,1.56965,2.4955,2.4955,0,0,1-1.17046,1.669,5.00968,5.00968,0,0,1-2.6863.60708q-1.72189-.00069-3.44469,0c-.00322-3.42768.00414-6.85581.0023-10.28348m1.93666,1.52136c.00506.89038.0023,1.78122.00276,2.67159q.77333.00483,1.54758-.00644a2.07442,2.07442,0,0,0,1.27761-.42633,1.29286,1.29286,0,0,0,.10164-1.8318,1.78114,1.78114,0,0,0-1.19437-.407c-.57856-.01057-1.15666.00276-1.73522,0m.00322,7.24719c.499-.00138.99891.00552,1.49837-.00782a2.49687,2.49687,0,0,0,1.48089-.47922,1.47911,1.47911,0,0,0-.07772-2.18225,2.43021,2.43021,0,0,0-1.40133-.40978c-.49946-.006-.99938.0023-1.49929-.00414C20.0703,27.49285,20.08318,28.52074,20.079,29.54863Z"/><path class="cls-1" d="M32.90763,20.78008h1.8502q-.00069,5.1415-.00046,10.283c-.6172.00092-1.23485,0-1.8525.00046Q32.91177,25.92135,32.90763,20.78008Z"/><path class="cls-1" d="M36.3514,20.78008h1.8502c.00138.85036-.00322,1.70073.00368,2.55109.46312-.0023.92625-.0092,1.38937-.006q.00069.70022,0,1.40041c-.464.00138-.92855-.00046-1.39259.00092.00092,1.36638-.00322,2.73322.00276,4.0996a1.00813,1.00813,0,0,0,.293.837,1.61088,1.61088,0,0,0,1.1562.11084q.00069.703,0,1.40593c-.16051.011-.32055.02714-.4806.04H38.4035a2.265,2.265,0,0,1-1.566-.63191,2.58955,2.58955,0,0,1-.48428-1.70946c-.00552-1.38386.00184-2.76817-.00506-4.152-.38126-.00138-.76252,0-1.14378-.00046-.00138-.464.00184-.92855-.00184-1.39213.38218-.02346.76574.00414,1.14838-.01288Q36.35232,22.05034,36.3514,20.78008Z"/><path class="cls-1" d="M40.3144,20.78008h1.83686q0,.92234-.00046,1.84514-.91888.00138-1.8387,0C40.31026,22.01032,40.313,21.395,40.3144,20.78008Z"/><path class="cls-1" d="M3.476,23.96538a5.89469,5.89469,0,0,1,3.43181-.79288,2.797,2.797,0,0,1,1.87918.6963,2.65134,2.65134,0,0,1,.60431,1.83364q.00276,2.6801.00322,5.36066-.74574.00069-1.49239-.00046c-.06853-.26859-.13521-.53763-.20374-.80622a3.53213,3.53213,0,0,1-1.97989.9635H5.071a2.38694,2.38694,0,0,1-1.58207-.7639A2.10792,2.10792,0,0,1,3,29.292v-.41713a2.0423,2.0423,0,0,1,.706-1.41053,4.36734,4.36734,0,0,1,1.57058-.78184q1.01064-.34147,2.02082-.682c.09658-.03955.24145-.07634.24513-.20466a1.214,1.214,0,0,0-.1743-.92165,1.52269,1.52269,0,0,0-1.10193-.33849,5.05,5.05,0,0,0-2.78979,1.03985c-.00092-.53671.00046-1.07342-.00046-1.61013M7.21779,27.296q-.73194.25249-1.4556.52751a1.42392,1.42392,0,0,0-.78874.63881,1.058,1.058,0,0,0,.12786,1.11757,1.14667,1.14667,0,0,0,1.05088.27732A2.68774,2.68774,0,0,0,7.54754,29.017c.00782-.62547-.00138-1.2514.00414-1.87734A1.91823,1.91823,0,0,1,7.21779,27.296Z"/><path class="cls-1" d="M16.44763,23.28656a2.24029,2.24029,0,0,1,1.199-.08048q.00069.87129-.00276,1.74258a2.52994,2.52994,0,0,0-1.68279.32745,2.296,2.296,0,0,0-1.1999,1.89619c-.00644,1.29693-.00276,2.59386-.00414,3.89126-.61673-.00138-1.23346.00367-1.84973-.00368q-.00069-3.86321,0-7.72549.89818-.009,1.79593-.00276,0,.70641.00046,1.41329A3.68493,3.68493,0,0,1,16.44763,23.28656Z"/><path class="cls-1" d="M26.26614,23.96584a5.78868,5.78868,0,0,1,3.04089-.80713,3.51541,3.51541,0,0,1,2.03462.50635,2.07837,2.07837,0,0,1,.797,1.43077,13.7163,13.7163,0,0,1,.05427,1.75545q0,2.10613,0,4.21228c-.5013-.00138-1.00259.00276-1.50343-.00322-.06853-.26721-.13245-.53533-.19914-.80254a3.565,3.565,0,0,1-1.98863.96212h-.64157a2.55951,2.55951,0,0,1-1.1792-.40885,1.975,1.975,0,0,1-.84254-1.25416,2.273,2.273,0,0,1,.24329-1.60415,2.87311,2.87311,0,0,1,1.51355-1.10607c.84254-.30032,1.69567-.57167,2.54051-.86463.0837-.03127.1927-.08048.19178-.18626a1.98911,1.98911,0,0,0-.04369-.70779.81336.81336,0,0,0-.55418-.465,2.70789,2.70789,0,0,0-.975-.07358A5.36352,5.36352,0,0,0,26.2666,25.576q-.00207-.80507-.00046-1.61013m3.35041,3.46722c-.37114.1343-.74367.26491-1.11113.40932a1.32985,1.32985,0,0,0-.77586.7,1.05455,1.05455,0,0,0,.13061.99937,1.11173,1.11173,0,0,0,1.03617.32377,2.72807,2.72807,0,0,0,1.43812-.8407c-.00644-.62731-.00046-1.25509.00414-1.8824A4.40278,4.40278,0,0,1,29.61655,27.43306Z"/><path class="cls-1" d="M43.9288,24.08542a3.63908,3.63908,0,0,1,2.25353-.91154,4.574,4.574,0,0,1,2.64583.55465c-.00091.56062.00277,1.12125-.00367,1.68187a3.71683,3.71683,0,0,0-.93223-.591,2.759,2.759,0,0,0-1.709-.12647,2.01765,2.01765,0,0,0-1.27532,1.06652,3.45231,3.45231,0,0,0-.17476,2.466,2.09266,2.09266,0,0,0,1.067,1.3627,2.79267,2.79267,0,0,0,2.03416.01288,5.37378,5.37378,0,0,0,1.1562-.63329v1.47675c.04461.14809-.07772.18764-.16648.23961a5.18907,5.18907,0,0,1-1.93068.53579h-.7915a3.58515,3.58515,0,0,1-1.99047-.72895,3.71581,3.71581,0,0,1-1.2721-2.168,5.40556,5.40556,0,0,1,.0138-2.3055A3.76758,3.76758,0,0,1,43.9288,24.08542Z"/><path class="cls-1" d="M10.25316,23.33715c.61674-.023,1.23347-.00874,1.8502-.0023-.00552,2.57639-.00092,5.15232-.00322,7.72871-.61489-.00092-1.22978.00092-1.84468-.00092C10.25776,28.48763,10.25132,25.91216,10.25316,23.33715Z"/><path class="cls-1" d="M40.30888,23.33577c.6149-.01978,1.23025-.00736,1.84514-.00046-.00092,2.57547.00276,5.1514-.0023,7.72733-.61351.00046-1.22656.00368-1.83962-.00276Q40.31279,27.19806,40.30888,23.33577Z"/></g></svg>