<svg id="Слой_1" data-name="Слой 1" xmlns="http://www.w3.org/2000/svg" viewBox="0 0 52 52"><defs><style>.cls-1{fill:#da0021;}</style></defs><title>CA</title><g id="layer1"><path id="path2488" class="cls-1" d="M46.361,3.5c-2.095,7.76949-8.51106,8.38026-11.3479,8.55484a14.516,14.516,0,0,0-5.32478,1.484c-6.93954,3.62219-7.11439,11.26034-7.11439,11.26034V36.06s-1.00372,5.62989-6.45958,5.62989a6.654,6.654,0,0,1-6.896-5.84853v-14.098A1.92784,1.92784,0,0,0,7.69054,19.867H5.63905v-.30566h5.36884a2.83611,2.83611,0,0,1,2.095-2.83684,9.82486,9.82486,0,0,1,2.22607-.04377c1.17858.04377,2.79333-1.61449,2.79333-1.61449a3.54018,3.54018,0,0,1-3.44815,3.53517c-1.091.04351-.65482-.21809-1.74583-.21809-1.00371-.04378-1.22208,1.1783-1.22208,1.1783a2.08938,2.08938,0,0,1,2.095,2.095V34.3139s-.13108,1.65853,1.83312,1.65853c0,0,1.74583-.043,1.74583-1.65853V23.75136a19.60892,19.60892,0,0,1,6.24148-12.39567s4.45187-3.9719,9.77665-4.32107C38.72281,6.68627,41.16724,6.99193,46.361,3.5h0"/><path id="path2490" class="cls-1" d="M38.76659,17.5542a9.487,9.487,0,0,0,5.71773-7.94352c-2.13851,2.095-4.49565,3.62274-9.34019,3.84083a12.2226,12.2226,0,0,0-7.46329,3.40436c-3.40437,2.83684-3.49166,7.94326-3.49166,7.94326V34.532a18.17518,18.17518,0,0,1-.17458,1.96419c-1.17858,4.75808-4.40836,6.67794-8.2927,6.67794A6.75811,6.75811,0,0,1,10.26605,40.861c2.22579,5.49909,8.72915,5.41179,8.72915,5.41179,8.77293-.34889,9.77665-8.86023,9.77665-8.86023V26.58817c0-1.78961-.17459-4.05892,1.92041-6.24149a7.53436,7.53436,0,0,1,3.9719-2.095,15.3052,15.3052,0,0,0,4.10243-.69748"/><path id="path2492" class="cls-1" d="M35.84246,28.37863S34.795,32.6124,38.89767,32.6124c3.14249,0,3.36058-4.01568,3.36058-4.67a5.96363,5.96363,0,0,0-6.02311-5.93582c-5.71774,0-6.0669,5.98015-6.0669,5.98015v9.384C27.89866,49.984,16.11431,47.36549,16.11431,47.36549A17.704,17.704,0,0,0,21.3518,48.5c3.31707,0,10.99873-1.00372,12.701-11.43519V28.77212s0-2.09527,1.87663-2.09527a1.812,1.812,0,0,1,1.74583,1.78961s0,1.13452-1.00372,1.13452-.78562-1.09156-.82913-1.22235"/></g></svg>