<svg id="Слой_1" data-name="Слой 1" xmlns="http://www.w3.org/2000/svg" viewBox="0 0 52 52"><defs><style>.cls-1{fill:#006056;}</style></defs><title>CX</title><path class="cls-1" d="M44.6208,33.43592c-.18755-.68806-2.20141-.395-3.86465-.54481a23.5567,23.5567,0,0,1-5.76641-1.21519,42.19408,42.19408,0,0,1-6.11845-2.61257s-.7434-.392-.82021-.43634c-.15429-.093-.27463-.15943-.42446-.25249-.09-.05382-.22739-.13433-.32854-.18158a1.82911,1.82911,0,0,1-.32408-.19118c-.1174-.0672-.27017-.13955-.38387-.21038-.16827-.10485-.27532-.18755-.43263-.30125A3.027,3.027,0,0,0,25.877,27.316c-.07893-.04951-.22437-.127-.29157-.1713-.14689-.096-.2407-.17568-.38758-.27834-.0923-.06569-.158-.10183-.265-.172-.10848-.0635-.20743-.1499-.30412-.21854a1.30883,1.30883,0,0,1-.17349-.12844c-.10923-.10409-.2156-.19859-.32778-.28938-.10485-.07748-.20078-.17349-.30488-.25029-.06425-.04793-.175-.13729-.24069-.18824-.16314-.1174-.26942-.20819-.43256-.32853-.10636-.07749-.19639-.18234-.305-.26134-.11664-.09-.22368-.19118-.35061-.27607a2.12507,2.12507,0,0,1-.22814-.18974c-.07976-.0945-.15429-.15649-.237-.25393-.059-.06645-.17787-.13955-.24432-.20743a2.17276,2.17276,0,0,0-.38387-.37064,1.40253,1.40253,0,0,1-.13736-.15135.854.854,0,0,0-.11732-.14023c-.06577-.0672-.08792-.08565-.116-.1115-.028-.02653-.06493-.05753-.15353-.14688a1.68659,1.68659,0,0,1-.12254-.15648,1.1636,1.1636,0,0,0-.10629-.14106c-.07756-.0849-.1344-.14613-.19118-.20373-.04066-.04279-.08345-.08928-.13811-.14394a.95865.95865,0,0,1-.08119-.11664,1.13814,1.13814,0,0,0-.08194-.107c-.04944-.05541-.08338-.0347-.093-.0288-.02736.01995-.04135.07453-.00816.14393a2.18687,2.18687,0,0,0,.14174.22225c.00665.0133.01625.02359.02.031a.607.607,0,0,1,.04354.0753c.02291.03689.04649.0768.07386.11445a2.34619,2.34619,0,0,0,.189.21847.69617.69617,0,0,1,.06569.06645.92012.92012,0,0,1,.11218.1462c.03621.051.07454.10409.11884.155a.29177.29177,0,0,1,.05911.07378c.02359.02729.04279.05466.06864.08051.03765.03614.07235.07454.11.11219.06275.0613.12625.127.186.17863.04649.03991.093.0864.14394.138.12034.14621.25695.29241.36542.4312a1.27144,1.27144,0,0,0,.25325.19556,1.75635,1.75635,0,0,1,.20448.24146c.0443.05458.14983.15058.2023.21257a1.62719,1.62719,0,0,0,.369.36029,1.137,1.137,0,0,1,.24879.23472c.04656.0576.186.19564.2385.26065.13358.169.19564.32846.17349.33292-.09011.02435-.31153-.16978-.44367-.25763-.10636-.07461-.127-.10114-.22739-.17719a2.21624,2.21624,0,0,1-.24288-.20449c-.0443-.04354-.1676-.17273-.20449-.22a3.6787,3.6787,0,0,0-.45848-.45773c-.15724-.15134-.34918-.28567-.49977-.42008-.0443-.05163-.09-.09593-.13289-.14688-.04944-.04868-.11294-.09669-.15724-.14469a1.99237,1.99237,0,0,0-.251-.32559c-.08784-.0694-.15134-.13138-.24069-.19859a.91886.91886,0,0,1-.09155-.08784.62551.62551,0,0,1-.12987-.107c-.10266-.13214-.20229-.265-.3079-.39718-.04944-.06569-.11664-.11883-.16238-.18233-.10409-.141-.18823-.28863-.28938-.42-.14325-.18831-.347-.32045-.48728-.50868-.14023-.19194-.22588-.41933-.361-.62162-.05534-.08709-.14688-.14983-.20743-.234-.03689-.04649-.05761-.10629-.09374-.1558-.07015-.11-.15429-.21628-.22815-.32037-.093-.13955-.15648-.28938-.251-.43634a1.85113,1.85113,0,0,0-.10637-.19118,2.22982,2.22982,0,0,1-.17122-.25763c-.0672-.09963-.0982-.169-.14325-.23918-.04793-.07454-.07749-.13955-.10848-.186-.03251-.05314-.099-.1462-.12549-.18453-.08489-.13214-.10856-.19564-.20154-.31818-.0539-.07537-.11226-.13584-.1617-.1174-.04278.02729-.02729.07454-.017.10629a.56919.56919,0,0,0,.08421.169c.07008.13146.09449.19345.17122.31379.03621.05761.09971.1868.15134.25688.04581.076.099.1595.13071.2193.03908.06123.09222.23177.14317.30041a1.43676,1.43676,0,0,1,.13139.22445,3.76146,3.76146,0,0,0,.24583.38092c.05322.0945.1041.19489.15429.29157.10342.15286.22369.29754.32484.454.0635.1115.12405.22225.186.33443.05836.08935.14544.1654.2038.25914.07235.11294.11219.23253.186.34033.05677.08489.12987.16828.186.25173.10114.14764.186.29014.29089.42893.05541.07605.13138.1425.1846.217.08119.10334.14174.23034.22142.32038a1.766,1.766,0,0,1,.20154.23109c.11.13509.39347.53227.34328.53446-.16239.02139-.47837-.33663-.61271-.468a3.18916,3.18916,0,0,1-.29308-.27169c-.10485-.1425-.17939-.30412-.28718-.44291-.0369-.048-.0945-.08792-.13366-.13812a2.78971,2.78971,0,0,0-.22588-.27682,1.05227,1.05227,0,0,1-.10628-.10115c-.12776-.16457-.2348-.34177-.36248-.51231-.05239-.07234-.12254-.13433-.17349-.20373-.03841-.05314-.062-.11521-.09745-.17273-.05238-.07832-.11883-.15429-.169-.23185-.0384-.0561-.06055-.11514-.09744-.17425-.068-.10258-.16094-.19337-.22814-.29747-.0539-.08414-.07016-.19708-.12406-.28129-.141-.217-.29671-.4355-.43406-.64966-.03319-.05753-.051-.121-.0849-.17418-.11218-.17719-.217-.36837-.33073-.54337-.04059-.06494-.05609-.1388-.09819-.20222-.05315-.07975-.1292-.1425-.18234-.21711a1.86127,1.86127,0,0,1-.08414-.19489c-.04354-.093-.10039-.18452-.14764-.26942-.02955-.05465-.04581-.1078-.0768-.1595a5.80173,5.80173,0,0,1-.35432-.66441c-.05616-.121-.144-.23548-.2001-.35583-.0635-.13508-.12178-.27312-.18233-.4067-.03546-.08716-.06645-.17425-.099-.26284-.06342-.141-.16381-.26285-.22731-.406-.04581-.10115-.0672-.19119-.10931-.27389-.0251-.051-.07529-.09305-.10924-.07234-.03613.02434-.04059.06713-.0192.14393a2.82088,2.82088,0,0,0,.16465.40164c.0768.169.11513.34252.19194.51231.03764.09525.10039.18385.14393.27607.076.15875.1462.3234.2156.47693.04278.08936.07378.1772.124.25982a1.514,1.514,0,0,1,.08346.144c.04868.11143.06426.22293.11294.32552.051.10779.13365.20085.18453.30343a13.84468,13.84468,0,0,0,.82315,1.55031c.08716.13433.13214.299.2193.43483.08558.13879.21258.24727.299.38236.07378.1152.09223.26874.16163.39128.09895.18158.23109.33443.34108.505.0288.04649.03689.10334.0694.15278.03916.06426.09449.13146.13728.19489a2.66161,2.66161,0,0,0,.14544.2732c.065.09079.15724.16532.22369.25468.0827.11369.13736.24288.22225.35582.05828.07976.14983.13358.20819.21258.09669.12186.42.55146.516.67038a4.50041,4.50041,0,0,1,.51821.69464c.03689.07529.16684.2503.13879.28719-.06864.045-.39128-.30858-.44662-.36029a4.70671,4.70671,0,0,1-.36761-.45471c-.02881-.03326-.3389-.33813-.36543-.37208a1.28124,1.28124,0,0,1-.08641-.12329c-.08784-.12481-.13728-.28273-.234-.40383-.03613-.0502-.09744-.09-.13138-.13728-.0731-.0945-.12254-.20086-.1927-.299-.11074-.15066-.25173-.28424-.36172-.43339-.11884-.16464-.20449-.35953-.32559-.52047-.06123-.08263-.13872-.15354-.19783-.23843-.02283-.0384-.03614-.0768-.059-.11808a1.41927,1.41927,0,0,1-.13879-.21408,1.95687,1.95687,0,0,0-.09374-.19791c-.12549-.19783-.25325-.409-.38017-.60832-.05912-.08784-.09011-.18452-.14771-.27456-.09669-.147-.21333-.27834-.31-.42673-.11445-.17569-.17425-.38977-.285-.56546-.07378-.11445-.16389-.226-.23473-.34033-.08345-.1248-.12329-.27388-.19639-.40383-.059-.11664-.14764-.22444-.20154-.34033-.062-.12548-.10629-.25173-.16684-.38311-.031-.0694-.08338-.13955-.11437-.2097-.037-.08928-.04876-.18158-.09011-.268-.11075-.24213-.27759-.47322-.39053-.71384-.08194-.172-.15429-.35288-.22149-.536a2.69924,2.69924,0,0,0-.09745-.28938c-.10114-.2215-.22663-.457-.32407-.67847-.04135-.11884-.08414-.23548-.13063-.35583a.35066.35066,0,0,0-.02366-.10114c-.0443-.10334-.10848-.20744-.14688-.31-.03916-.12035-.07681-.23843-.1137-.36172-.158-.39128-.29754-.83352-.44888-1.24324-.01913-.07235-.02215-.16533-.04869-.24508-.0768-.20668-.155-.41933-.23253-.62676-.03991-.10629-.14325-.0731-.11959.03689.03319.14476.04944.17795.07529.2924.011.05753.0251.11438.03175.17274.01769.07083.05534.14249.07379.21038.03915.12473.04286.24954.08716.36837.05828.16979.12027.33.17568.50566.01474.08716.0347.17576.051.25838a2.50306,2.50306,0,0,0,.08784.23851c.08633.21484.169.42.24584.62895.0288.12254.06123.24289.09154.364.031.06637.07605.13577.10705.20078.02729.05609.03243.11294.05752.17349.05322.13728.10267.27464.16465.41268.05246.11218.11075.22663.1558.34622.02215.06056.02215.10705.04279.16684.13138.35878.27464.73229.42893,1.06748.03613.0849.04649.17349.08565.26058.031.07091.07529.147.107.217.0155.04506.031.09155.04868.13509.04657.10039.127.18461.17425.28575a5.75072,5.75072,0,0,0,.41781.77954,4.77374,4.77374,0,0,1,.33149.7722,2.49519,2.49519,0,0,0,.20078.34033,1.257,1.257,0,0,1,.0849.18158,3.15274,3.15274,0,0,0,.20675.378,1.00313,1.00313,0,0,1,.12548.2599,1.40131,1.40131,0,0,1,.07379.30192c-.02283.017-.15354-.06055-.19632-.11a1.02817,1.02817,0,0,1-.21485-.29384c-.03023-.07083-.09373-.19269-.13063-.26133a4.32844,4.32844,0,0,0-.31818-.47912c-.05541-.09079-.08716-.19632-.1366-.29528-.08413-.18309-.1809-.36837-.27093-.55812a1.91323,1.91323,0,0,0-.13728-.22512c-.04362-.07234-.0672-.15134-.116-.22368a5.04709,5.04709,0,0,1-.299-.51382c-.06123-.127-.09079-.25695-.15134-.38244a1.05427,1.05427,0,0,0-.07605-.1174,2.16144,2.16144,0,0,1-.09223-.20887c-.048-.09525-.11521-.1905-.16245-.28938-.09-.19791-.14318-.40164-.23624-.60022-.045-.08785-.11883-.16684-.15867-.25915-.06721-.13947-.0731-.31591-.14106-.46211-.17047-.38531-.36981-.78543-.51677-1.19221-.0214-.06645-.028-.144-.05163-.2156-.0635-.17787-.14991-.34108-.21114-.51458-.02956-.07892-.03621-.15353-.06645-.23321-.04211-.11664-.09744-.23994-.14325-.361a.63082.63082,0,0,0-.031-.12254c-.05019-.1115-.08262-.24508-.13357-.361-.02956-.05979-.07016-.12254-.09677-.186-.04059-.11664-.02653-.2636-.07007-.375-.05836-.16835-.13071-.34479-.1868-.50422-.03689-.0982-.04135-.18824-.07824-.285-.03689-.107-.07975-.22958-.12035-.33738-.03915-.11438-.03689-.23624-.07605-.35431-.02653-.09079-.0635-.1809-.09449-.26723-.05979-.15951-.079-.32778-.13947-.47837-.00892-.02737-.02-.05541-.03107-.08051-.01474-.04135-.03984-.08194-.08414-.06788-.04354.0133-.04354.07083-.04059.11142a1.17048,1.17048,0,0,0,.08565.3197c.03689.09744.05533.20743.0827.30192.01617.06426.01255.13071.02948.19708.02071.0923.05465.18166.08051.274.02139.09.01028.17938.031.251.0598.19784.124.423.19413.6127.02661.09744.03326.21265.06274.29755.0347.09819.07159.20153.10705.30268.031.0827.04059.16608.07461.24583a2.33156,2.33156,0,0,1,.11143.26723c.03689.12254.03545.24433.07824.36021.068.186.15361.3677.22149.54852.0192.06645.02359.13509.0502.20381.05314.158.09374.32627.15353.48351.08051.22519.1868.443.26579.6644.07825.22.09155.48426.18234.68883.048.09963.14544.15867.18823.25762a1.35567,1.35567,0,0,1,.04581.21114c.02359.08119.0635.16389.0945.24138.01844.07385.03613.1403.05752.21038a2.741,2.741,0,0,0,.12262.24659,3.42834,3.42834,0,0,0,.16457.38387,2.65573,2.65573,0,0,1,.17644.26723c.051.10931.0694.226.12035.33958.07453.16759.1617.32483.22814.49908a3.20358,3.20358,0,0,0,.15059.46286c.07378.138.16759.2599.24357.39643.048.1019.09525.2038.14325.30419.03689.08414.11219.155.1558.24062.059.10334.11589.21265.16389.316a1.30486,1.30486,0,0,0,.09669.22588c.0672.107.11664.19488.18377.30124a1.81749,1.81749,0,0,1,.17054.32922,1.31056,1.31056,0,0,0,.11665.24659c.05246.07159.1211.13585.16759.21333a.85824.85824,0,0,1,.08119.34993c-.05685.0214-.21477-.12994-.25687-.18528-.12179-.15059-.18385-.35069-.29754-.50792a3.13308,3.13308,0,0,1-.28938-.47247,4.58316,4.58316,0,0,0-.21409-.42077,2.18387,2.18387,0,0,1-.19783-.29089c-.0384-.08935-.0598-.19488-.09669-.28129-.06055-.12768-.1809-.21114-.24364-.341-.07015-.147-.09964-.29754-.1713-.43339-.03613-.06569-.08489-.14022-.11589-.20962-.0443-.08784-.06123-.1713-.10485-.2599-.08262-.17863-.20887-.33073-.29006-.50565-.08489-.18461-.13365-.38168-.22225-.56629-.04573-.09744-.127-.18233-.17492-.282-.06207-.13289-.09306-.27169-.15581-.40526-.04059-.08195-.09373-.15581-.13289-.23851-.0539-.11218-.07378-.23986-.12844-.35726-.12035-.27245-.24727-.55442-.36762-.82686-.0443-.1041-.05465-.21114-.10334-.31743-.04724-.0923-.09154-.18309-.1403-.27312-.10485-.2407-.14174-.519-.248-.76185-.0539-.1174-.1233-.2348-.1713-.36837-.07748-.20449-.10477-.41638-.18377-.629-.11294-.31886-.20743-.65186-.32113-.97374-.03326-.09745-.037-.19043-.0731-.28863-.03394-.093-.07015-.18679-.10561-.28053-.02215-.07454-.03689-.18083-.05828-.282-.08489-.27093-.17273-.54111-.25914-.81651-.01845-.06425-.02358-.17938-.0443-.26428-.0155-.04649-.0384-.10334-.05609-.1462-.02139-.0635-.02139-.11589-.04211-.18082-.06342-.19791-.11959-.43112-.18082-.629-.02-.06048-.02366-.14907-.04506-.22142a9.21534,9.21534,0,0,0-.24583-.8955c-.01693-.048-.05239-.10334-.10115-.0923-.04944.0133-.04278.07091-.03613.1174.01625.1307.06274.24289.08489.34917.00885.04944.00885.11521.01331.1713a.774.774,0,0,0,.028.15868c.05239.16835.11143.36694.16314.53453.01693.07968.00143.20373.02358.29747a7.77686,7.77686,0,0,0,.223.82981,6.25858,6.25858,0,0,1,.16978.722c.01921.10107.02654.20592.03909.30926a1.58182,1.58182,0,0,0,.10114.25248,1.72073,1.72073,0,0,1,.0443.18015c.0539.17054.09306.34108.1558.51306.04128.1174.10554.2311.14764.347a.83749.83749,0,0,1,.02434.15875c.03175.11589.05171.23624.08641.35213.08338.23328.16313.48872.248.7242.048.12768.06274.25468.10628.38168.186.50566.37208,1.01063.55812,1.51039.03024.1137.06124.22293.0923.33292.03984.113.10629.209.152.30866.06131.13063.08194.26723.13146.40746.05753.16094.13138.285.19488.454.02948.079.059.1676.09593.24584.02805.05685.07681.11589.1041.172.05095.1019.06274.226.10628.32559a2.91343,2.91343,0,0,0,.19126.27539,2.94435,2.94435,0,0,1,.10409.29822c.07008.15278.15649.29308.22369.45622.0288.06645.042.12549.073.19345.03326.07453.0901.14764.1248.22368l.00371.00885a.15541.15541,0,0,1,.01323.03984c.00816.031.0192.07091.0288.0982a.92651.92651,0,0,0,.08421.15353c.011.01406.04649.05314.07454.09011a.2081.2081,0,0,1,.03916.04793,3.675,3.675,0,0,1,.12919.36694c.05314.11369.14832.20372.20592.31961.04211.08792.0635.30934.0096.316-.22663,0-.24364-.31667-.31962-.485-.0613-.12995-.15429-.23472-.223-.36172a.70147.70147,0,0,1-.0502-.12549,1.02712,1.02712,0,0,0-.04868-.12776c-.02956-.06047-.02956-.05163-.0502-.09373-.02146-.04279-.08421-.12549-.10636-.16238l-.00363-.0059c-.08489-.1403-.14174-.34033-.2038-.43633-.03765-.051-.08262-.10554-.11589-.15875a2.71832,2.71832,0,0,1-.13214-.29452c-.04211-.09079-.1115-.18015-.15429-.27464-.04944-.1137-.0539-.25687-.107-.36762-.02661-.06426-.07748-.12481-.10485-.1809-.06569-.1329-.10259-.27093-.16609-.39861-.03023-.06275-.08413-.12111-.11513-.1831-.05246-.10779-.0768-.22444-.13289-.32264a7.45526,7.45526,0,0,1-.34849-.68066c-.05685-.13433-.07674-.2679-.13434-.39566-.05171-.11445-.12254-.22512-.17274-.33443-.03469-.07084-.04135-.14318-.07234-.22293-.04725-.12768-.10266-.25763-.14915-.38244-.02653-.08784-.05314-.27827-.07673-.35651-.037-.09381-.08489-.19639-.127-.28938-.06131-.13811-.08119-.28575-.14325-.42454-.04725-.10772-.10183-.22217-.14242-.33141-.03326-.09449-.04211-.18385-.07976-.2673-.031-.06713-.07015-.14469-.09449-.21114-.02729-.08414-.04876-.21771-.07529-.32551-.03992-.11884-.09155-.2348-.12776-.35213-.02063-.08935-.02283-.29308-.04725-.34993-.124-.364-.24213-.75746-.35726-1.12289-.05314-.17054-.07975-.33882-.127-.50641-.01693-.06645-.02064-.15134-.03394-.21779-.03545-.10409-.07975-.21189-.11521-.32264-.01769-.07378-.02872-.15059-.042-.22293a2.00883,2.00883,0,0,0-.0864-.231c-.07084-.22074-.11075-.45554-.17493-.67257-.02215-.09-.02215-.20668-.04725-.28862-.08194-.26874-.10266-.57876-.18233-.85929-.01845-.08271-.03032-.16389-.048-.23851-.141-.52266-.2001-1.111-.35439-1.613-.02872-.09812.0096-.22142-.01693-.327-.031-.11665-.0635-.22-.09744-.32484-.01331-.05458-.01406-.09517-.0251-.14317-.02661-.08565-.06426-.1521-.11226-.14326-.05534.01845-.04573.0694-.042.14106a1.61561,1.61561,0,0,0,.03984.31c.0192.07975.0096.14393.03024.217a5.2449,5.2449,0,0,1,.09086.54043c.00885.06124.003.14394.0155.21772.014.07537.07378.1713.08489.25181.01769.107.0155.24946.03614.36837.0229.09812.04876.19337.07461.28492.02283.08195.00514.15875.02873.23329a1.76376,1.76376,0,0,1,.07975.23548c.01474.09381,0,.22958.0192.31379.11815.45992.15285,1.00693.28862,1.44916.017.06494.01852.13063.0347.19564.1137.38682.19715.7995.31674,1.18413.011.05979.011.12027.02881.186.03689.138.06939.28046.10039.41781a1.56222,1.56222,0,0,0,.028.18158c.03984.14174.09079.2791.13433.41789a1.88919,1.88919,0,0,1,.037.20373c.01323.05163.04128.11294.05677.16533.02442.07975.01777.15656.04287.23185a.855.855,0,0,1,.06123.13584c.02.08414.02956.16684.05322.24433.03394.09819.08413.19269.124.29013.02956.08119.02956.16389.0598.23767.05541.13441.11369.29611.16684.44223.0443.1174.05019.23843.0923.361.028.07756.06645.1617.09525.23926a1.82031,1.82031,0,0,0,.04944.18528,1.65316,1.65316,0,0,0,.12254.22664c.03621.08194.0192.19859.04725.28719.0266.093.07824.16827.10855.25316.03024.08565.02873.1772.05314.265a1.82749,1.82749,0,0,0,.10115.19783c.02359.0753.05314.14991.07824.22293.02291.048.0635.10047.08565.14545.04128.08716.07454.17719.11067.26579a4.21885,4.21885,0,0,1,.0923.42666c.01036.04135.01036.13955-.01769.1521-.05541.01036-.12253-.0827-.16018-.13955a1.69317,1.69317,0,0,1-.1846-.31962c-.01626-.045-.0273-.08489-.04136-.12843-.03764-.0945-.06939-.20524-.11-.30125a1.95658,1.95658,0,0,1-.08708-.18967c-.03251-.09086-.017-.19859-.0539-.27985-.031-.0694-.08565-.121-.11589-.18967-.02139-.0598-.03326-.124-.05836-.1868a1.97394,1.97394,0,0,0-.11884-.21113,1.707,1.707,0,0,1-.05163-.217,1.659,1.659,0,0,0-.09676-.27463c-.03984-.08709-.09-.17788-.12995-.26723-.01912-.0502-.02653-.10115-.04059-.15135-.02654-.06864-.06048-.14174-.08633-.20818-.01845-.051-.02956-.10554-.051-.15278-.03326-.07537-.07091-.158-.10258-.23994-.02147-.06645-.02518-.1366-.04725-.20154-.04286-.11521-.08422-.24735-.12111-.36029-.02661-.08935-.03689-.17938-.06055-.26722-.0325-.10486-.07975-.20744-.11959-.313-.02729-.08263-.03394-.17123-.06055-.25688-.03689-.1115-.09449-.21559-.13358-.33292-.01995-.0923-.02434-.18679-.04354-.27464-.065-.21779-.13441-.45553-.20449-.67771-.0768-.24878-.0864-.52712-.15875-.77961-.04875-.17788-.11218-.35212-.16608-.52856-.02071-.09079-.02215-.17274-.04725-.26428-.04875-.19859-.12329-.457-.18755-.66441-.03318-.11-.02215-.22217-.05609-.33814-.0325-.11883-.03318-.26057-.07159-.38531a1.63489,1.63489,0,0,1-.07166-.22958c-.01988-.10039-.01988-.217-.03024-.29165-.01474-.07234-.14544-.50936-.15943-.58911S8.699,7.14882,8.688,7.09492c-.00589-.03538-.0731-.22512-.08051-.27093a1.5388,1.5388,0,0,0-.02653-.20079c-.02147-.09668-.07681-.31372-.08565-.378-.01111-.062-.01111-.18823-.02434-.25249-.01036-.0635-.05465-.20668-.08127-.31-.03613-.124-.00589-.25694-.04354-.375a2.57387,2.57387,0,0,0-.08633-.254c-.02-.07378-.04657-.16979-.05322-.21553-.003-.06425-.00733-.203-.00884-.25543-.00219-.07091-.03394-.18975-.04135-.29233a2.11756,2.11756,0,0,0-.0598-.37578c-.014-.0502-.00884-.11-.02064-.16019-.03469-.13736-.06788-.26284-.141-.254-.04581.00665-.06645.04952-.04286.14031.02441.10628.034.189.06206.29527a1.82517,1.82517,0,0,1,.01769.24735c.00514.073.0059.09079.01625.16389.00439.028.01625.09744.02434.12844A.7124.7124,0,0,1,8.0405,4.63c-.00143.04868-.00143.1019-.00143.16978A.39433.39433,0,0,0,8.0538,4.909a.8169.8169,0,0,1,.0251.127c.00371.04135-.003.08784,0,.12254a.58318.58318,0,0,0,.0214.141.72735.72735,0,0,1,.0635.35515.92515.92515,0,0,0,.04943.40232c.017.08194,0,.16827.01407.24432.0325.10629.05609.22149.08564.33224.02064.09223.00885.17122.031.25763.0325.12178.11664.28643.127.34177.00885.0517.00658.20085.02434.29383s.03908.19935.04506.2599c.00808.06123-.00152.08709.00362.13063.00666.04135.068.25695.07605.31009.0118.05314.00885.08195.01845.13879.01255.05829.06055.28349.07015.35727.01255.07529.0096.11588.02291.19125.02063.11362.06644.20744.08927.31448.01558.08043.01036.1329.02.19488.02366.10183.05836.19338.07529.29157.0155.07167.0155.14621.031.22293.03545.16321.05911.32779.10266.49024.02729.09449.08338.18234.11074.27388.02283.08489.031.1772.0539.25982.01989.07461.073.14031.08928.21855.0133.0672.01255.13289.02366.20078.01625.0768.051.15361.06713.23185.01255.059.006.11883.02147.18007.02064.06576.05382.12556.07159.192.014.08557.014.16752.0347.25241.02653.09744.06644.19194.09963.28129.02737.08565.01111.17644.03765.27018.05314.19564.11815.41418.18309.59728.03031.09963.02661.20153.06131.31228.02653.07159.05979.11959.0886.18082.02139.0635.00143.13214.01988.20744.03031.12034.0517.27978.09154.39869.04944.13062.127.23994.17349.36762.04354.13433.04725.27093.09374.41191.04354.1174.10409.23034.14764.3389.03991.09668.02661.22368.06055.32551.04286.11075.12254.19564.16389.31228.04649.12776.07975.25839.11959.38834.01482.05684.0251.11.03689.16684.04725.16827.13736.30638.19715.46733.0214.07529.0273.13947.05171.20887a2.81361,2.81361,0,0,0,.13947.34554c.0465.10039.1078.19851.15724.29822.037.09155.048.186.0849.28424.03915.09223.0827.19118.11891.28568.02139.059.02434.11294.05087.17054.113.25468.25249.51155.37435.76555.06343.13585.08928.28348.15573.42666.0517.1078.1152.21409.16245.33073.031.07386.03984.14764.073.21779.06425.1366.15134.27539.21779.40973a.542.542,0,0,1,.04354.23918c-.00363.00816-.00439.01769-.01474.02071-.04279.01323-.12844-.0613-.17644-.107-.16314-.15951-.18975-.46438-.30563-.67552a1.97874,1.97874,0,0,1-.09888-.18453.69049.69049,0,0,0-.05027-.1307c-.06932-.13433-.15573-.25687-.22142-.40088-.04581-.10115-.05171-.217-.0982-.31667-.186-.40013-.39937-.78846-.57951-1.19524-.0849-.18452-.10039-.39052-.17055-.58911-.04429-.11808-.11513-.21409-.16464-.32778-.03908-.08489-.0502-.17712-.0886-.26572-.05163-.11521-.12617-.22-.172-.347-.02729-.07975-.03764-.16094-.07015-.2407-.0347-.09-.09374-.16237-.13358-.24946a2.61444,2.61444,0,0,1-.10628-.39718c-.0251-.07975-.05617-.1595-.079-.23034-.02215-.068-.03031-.13735-.05322-.20153-.05382-.1521-.14469-.28575-.20222-.44223-.03764-.10486-.03175-.237-.07529-.33814-.037-.0849-.10636-.15354-.13955-.23987-.0347-.09154-.00076-.20153-.03175-.31084-.02661-.10334-.07015-.19784-.10334-.29823-.01995-.06055-.02661-.11808-.04059-.17787-.04952-.12557-.09306-.24954-.1366-.37435-.02359-.06569-.0251-.124-.0502-.18309-.03394-.07529-.08708-.14469-.11664-.22369-.031-.12178-.04211-.25022-.07015-.36686-.04793-.15943-.10848-.28719-.155-.44367-.0096-.048-.0096-.09374-.02442-.147-.0384-.13652-.05458-.29157-.09374-.42817-.01474-.06493-.01255-.121-.028-.18528-.03764-.12919-.08194-.26058-.12254-.38312-.01776-.08119-.02214-.1617-.0421-.23918-.06418-.19935-.121-.44072-.18083-.63561-.01625-.0576-.01111-.10855-.02955-.17281-.048-.155-.11-.33882-.14764-.49681-.01625-.09593-.01625-.18233-.03394-.26874-.02586-.10629-.06275-.20963-.08641-.31886-.00665-.0502,0-.08716-.003-.12844-.0096-.06871-.017-.13879-.03023-.20894-.07016-.2791-.1772-.62162-.23851-.90359-.0192-.0982-.02283-.2001-.03243-.30125a1.374,1.374,0,0,0-.037-.22512,2.11459,2.11459,0,0,1-.06418-.2215c-.0155-.12178-.0155-.23993-.03621-.35431,0-.00741-.00295-.01625-.00295-.02737-.02434-.14317-.0982-.4355-.11513-.54995-.01626-.141-.03327-.28054-.05171-.41638a2.46248,2.46248,0,0,0-.03024-.27759C7.57325,4.974,7.53923,4.85,7.52078,4.69938c-.00884-.10039-.00665-.18755-.01625-.27169-.00809-.05239-.011-.14318-.076-.14318-.06577,0-.05761.0753-.06207.13948a2.58694,2.58694,0,0,0,.03032.43633c.02139.17349.00657.341.02653.51526.0096.09669.03916.1942.051.28794.02434.1676.03984.33149.06131.49092l.00068.00665c.00816.07968.01482.14983.0288.22a.118.118,0,0,0,.00371.0192l.00219.0118a.02623.02623,0,0,1,.00227.0133h.00219c.00665.03251.01179.06494.02139.09669.01769.06131.01179.11294.02729.178.05322.19042.03992.39786.09306.58322.07454.27607.1174.58465.19413.857.02139.0827,0,.1617.02139.24878.02291.08641.04506.1713.06645.25839.0229.10266.00521.2097.03545.31893.02434.09525.05315.1927.08051.288.02729.11142.031.23033.062.35212a3.44223,3.44223,0,0,1,.10039.38538c.02661.141.03984.30337.06645.45252.02358.127.093.27388.12254.41048.00741.04793.00219.09374.011.138.01776.09744.04581.19707.0672.28862a1.18666,1.18666,0,0,0,.02071.1307c.04649.17939.10259.40451.15943.58171.01331.04944.02.10258.031.15353.03545.12625.07234.21855.09011.28794.01179.0598.01844.13063.03394.19859.02653.09374.05753.18015.0731.26277.01693.06721.02653.12776.045.1964a2.08987,2.08987,0,0,0,.08565.22958c.0576.16389.06274.33663.11959.49092.03326.09373.08051.1846.1115.28348.02283.09154.0288.20078.059.30193.05171.15723.1137.33518.16835.49167.06713.1846.10848.38833.17047.56258.02661.07007.02291.13947.04581.22073.0502.17274.1137.36838.16828.54845.0325.0923.0325.1809.07015.274.05685.14469.14393.27237.20078.423.04657.12919.05685.26209.107.38387.06645.1617.14106.32484.20524.49757.04211.11816.05466.2348.10629.34623.03991.096.096.19639.13955.29089.02736.08489.0576.16759.08716.25173a1.856,1.856,0,0,0,.138.26058c.05238.11664.062.24069.10628.36845.06789.19118.1639.38606.24214.56621.0325.06864.0384.13138.06644.20667.04944.127.13071.22293.18453.34109.05171.11075.065.23034.113.33882a.90643.90643,0,0,1,.12549.46952c-.00151.02139-.0059.03621-.03032.0443-.042.01549-.0886-.05534-.11808-.08195a1.049,1.049,0,0,1-.21408-.39861c-.1174-.24954-.26429-.48729-.378-.72866-.06131-.12768-.08421-.2658-.14545-.39718-.03326-.08119-.0864-.16019-.12329-.23919-.0539-.11588-.08119-.23472-.13955-.33881a4.25822,4.25822,0,0,1-.22142-.502c-.02442-.062-.02661-.12405-.05541-.186-.0288-.06426-.07824-.12549-.107-.189-.045-.10334-.07084-.23034-.11513-.33814-.09079-.20153-.19489-.41706-.27464-.6297-.06721-.19633-.10334-.38237-.17349-.58171-.031-.08338-.07084-.17349-.0982-.25468-.02283-.0731-.02654-.13879-.051-.20668-.06638-.1846-.152-.37208-.22664-.54262a2.49148,2.49148,0,0,1-.08043-.26133c-.04279-.11-.08935-.23185-.127-.34033-.05609-.14326-.05609-.31153-.11294-.46287-.11445-.32189-.265-.66222-.36392-1.004-.02071-.07681-.01549-.15951-.0384-.237-.05314-.17055-.11-.36173-.16018-.54414-.06275-.19927-.05685-.41486-.1174-.6105-.08044-.25839-.17055-.52191-.2503-.77221-.02434-.07749-.014-.15648-.03613-.24138-.0561-.19118-.12179-.42151-.186-.60385-.03319-.09079-.03319-.19118-.06645-.27539-.03984-.10183-.1462-.06789-.1366.04951a2.80786,2.80786,0,0,0,.0539.29822,1.72067,1.72067,0,0,0,.02956.2215c.03318.138.0768.251.11074.37646.042.12844.042.24727.07825.38168.02139.06494.048.13955.06493.20078.04354.13139.04354.27608.08489.39718.03621.09155.06275.20819.09155.30934.01844.06939.01482.124.03916.19042.03545.11959.07234.2385.10923.361.02.06789.01255.13063.0288.19489.02729.09374.04876.19193.07605.28129.02586.08338.02215.20373.05239.29452.0502.16464.11294.34108.16979.49832.06274.17493.07091.35726.1329.53151.11293.31523.2193.6762.33148.99294.02585.082.01844.16533.04354.25249.03689.13653.0657.27018.11521.40451.02283.06426.06713.12995.09.1868.0406.07748.04725.16094.08338.23843.03032.0635.06721.127.09382.19488.0347.09971.02064.22369.06048.316.03031.079.07461.16094.10114.23843.03251.08935.03251.18165.06645.2636.0325.07083.08421.14023.11664.20819.031.06788.037.13652.065.20743.02509.07529.07083.15572.09963.22663.03764.07824.03984.16828.07748.25174.02956.0731.07756.14022.10637.21779.02729.07967.02948.16827.05979.251.04725.1233.12322.23178.17568.34623.03909.0886.042.18974.08119.27539.04506.1041.10924.203.15581.30412.06418.13585.10628.27834.16683.406.10115.22664.13358.47542.23987.69835.07756.17054.1809.32483.25476.48872.03832.0886.05389.186.09592.27094.048.09971.12776.1809.175.28129.03318.10039.06342.20153.10409.299.05685.12624.141.23918.19783.36028.03614.07084.04944.14023.08044.21114.06274.13433.16608.24947.22958.38312.031.09.06645.17719.09449.268.0694.14174.17644.26353.24811.40973a2.82168,2.82168,0,0,0,.14612.32188c.10039.15354.16095.25393.25839.406.0635.10182.14325.25248.19489.35953.04951.107.13289.19707.17938.30563.05171.10258.11816.21408.17349.31523.06426.11.12776.19337.19783.30042.11521.17054.18536.35144.296.52931.076.11816.16986.24138.25248.35734.22815.313.55593.87109.69616,1.05932.11445.15285.20819.33443.31818.49394.07975.12254.1809.24508.27018.36021.07166.096.13214.19783.20153.29678l.05761.076a33.9811,33.9811,0,0,0,8.44686,7.76545,11.42344,11.42344,0,0,0,2.05233,1.07859c.17054.07091.05466.19488-.03326.24878L11.27764,48.24412c-.04725.031-.16382.11959-.11657.21636.03394.07007.18672.028.231.01617,12.06575-4.236,20.82263-7.71971,26.17485-10.25993,5.42826-2.57576,7.25094-4.04926,7.05386-4.7808M12.51937,19.21676c-.02949-.0576-.06419-.12405-.08709-.18089-.02366-.0694-.02661-.1329-.05609-.19784-.0945-.20894-.20086-.44072-.29754-.64966a.59792.59792,0,0,1-.0561-.36173c.00741-.01474.03765-.00438.05171.0118a.39988.39988,0,0,1,.08043.0768c.0214.03024.02661.0635.048.09374a1.7672,1.7672,0,0,1,.14317.22444c.079.17054.1004.361.18015.52856.05095.11.13441.20449.1905.31743a1.94032,1.94032,0,0,1,.06418.18755.82264.82264,0,0,1,.01255.15429c.00227.05465-.0059.0886-.02729.09155-.14915-.00666-.189-.18975-.24659-.296m.62827,4.60141a.05067.05067,0,0,1-.04355.0384c-.16018-.00521-.2097-.24508-.27985-.35288-.05753-.09449-.107-.1905-.16752-.28348a1.49374,1.49374,0,0,1-.12995-.20078,2.25439,2.25439,0,0,0-.11664-.27464,1.3555,1.3555,0,0,0-.10629-.124,1.711,1.711,0,0,1-.22368-.39128c-.0096-.05314-.02661-.10629-.03916-.15792-.03614-.09306-.0731-.18755-.1041-.28129a.50277.50277,0,0,1-.0133-.1809c.00522-.0133.01036-.02215.02147-.0192.12549.01626.24213.31675.30336.423.06569.11959.17054.21484.2289.33292.04944.11.06864.24954.12474.35439.04573.082.12473.14983.17349.22588a2.43679,2.43679,0,0,1,.16464.34547c.059.12776.14023.226.19194.34993a.34485.34485,0,0,1,.0155.1964m3.37442-.68361c-.07454-.003-.10629-.051-.15429-.08859a.54906.54906,0,0,1-.23178-.45471c-.00075-.02071.00514-.02812.02-.02812.14764-.00068.29973.22966.358.33443a.43807.43807,0,0,1,.051.17795c-.0037.04279-.02071.059-.04286.059m1.01585.03984c-.099.03765-.347-.24137-.41419-.344-.12693-.18974-.251-.40239-.38826-.58616a1.036,1.036,0,0,1-.29164-.57218c-.00439-.03614-.02283-.12179-.0022-.11884.13366.00809.26353.24735.33149.34033.04868.06494.10629.12919.15278.19935.06425.10114.09305.22587.16169.31886.08566.1152.19043.226.27978.34184a.86594.86594,0,0,1,.14545.20078c.0133.045.05533.20675.0251.22m3.55093,1.9682c-.14764.01912-.31009-.19269-.38168-.29089-.02215-.03032-.10266-.2001-.08051-.22883.02956-.0229.19715.0347.2407.06864a.727.727,0,0,1,.25173.41706c.0037.02215-.02064.034-.03024.034"/></svg>