<svg id="Слой_1" data-name="Слой 1" xmlns="http://www.w3.org/2000/svg" viewBox="0 0 52 52"><defs><style>.cls-1{fill:#1c3b33;}</style></defs><title>CY</title><path class="cls-1" d="M14.9724,27.83017a12.5418,12.5418,0,0,0,6.92566-8.78394A20.54187,20.54187,0,0,1,28.03133,8.85585,18.4867,18.4867,0,0,1,30.47292,7.1968a20.40536,20.40536,0,0,1-.436,3.01544,20.49647,20.49647,0,0,1-4.11528,6.8463c-1.2164,1.51813-2.46164,3.01337-3.66216,4.54382a6.26809,6.26809,0,0,0-.5805,1.16881,4.18347,4.18347,0,0,0,1.24739-.33719A40.63933,40.63933,0,0,0,32.236,14.5019a24.36551,24.36551,0,0,1,8.05615-6.23577,13.75469,13.75469,0,0,1,4.232-1.28006,20.781,20.781,0,0,1-1.1853,2.07247,19.307,19.307,0,0,1-6.94875,5.674c-1.70211.882-3.42429,1.72525-5.13747,2.58589l.14958.49084a27.07591,27.07591,0,0,0,2.92482-.64411c3.70771-1.23984,7.44821-2.26636,11.41019-2.00353,1.05052.06969,2.09127.28667,3.13651.436L49,16.06659a31.61164,31.61164,0,0,1-3.10439,1.61592,20.79892,20.79892,0,0,1-9.501,1.18351c-5.212-.45022-9.47574,1.64045-13.89186,4.96943,6.48315-.85151,12.39688-.90505,17.59576,2.9419a15.2199,15.2199,0,0,1-8.69047.27255c-2.13995-.53749-4.25973-1.16094-6.37284-1.798a6.6216,6.6216,0,0,0-5.59085.853,70.48212,70.48212,0,0,0-6.55993,4.6624c7.40129-.905,14.725-1.67977,21.78781,1.313l.06529.46137c-1.08482.28876-2.157.64341-3.25668.85461-4.23981.81427-8.41175.025-12.58888-.60106-1.45621-.21827-2.91169-.47648-4.3773-.58983-3.22349-.24929-5.20607,1.72428-6.95285,4.05064a1.6389,1.6389,0,0,0-.15169.57268,2.56412,2.56412,0,0,0,.91574.09038,27.982,27.982,0,0,1,9.94532-1.1,50.32046,50.32046,0,0,1,6.28533,1.18167,4.23564,4.23564,0,0,1,.97791.53981c-3.51957,1.8764-7.04854,1.70884-10.646.98278a28.83941,28.83941,0,0,0-4.55241-.691C7.38044,37.719,5.73188,38.97,4.8162,41.804c-.24613.76179-.32535,1.578-.57863,2.33676-.11593.34729-.46473.87-.71339.87307-.79248.00985-.47482-.63108-.38733-1.03143a19.8304,19.8304,0,0,1,4.84886-9.77575,51.59216,51.59216,0,0,1,3.90637-3.77415,6.10959,6.10959,0,0,0,2.07162-7.01306,12.18131,12.18131,0,0,1-.11588-7.52234,13.69074,13.69074,0,0,1,1.229-2.21208A10.138,10.138,0,0,1,16.322,15.80478a16.13341,16.13341,0,0,1-.74549,10.43006C15.421,26.6569,15.25816,27.0763,14.9724,27.83017Z"/></svg>