<svg id="Слой_1" data-name="Слой 1" xmlns="http://www.w3.org/2000/svg" viewBox="0 0 52 52"><defs><style>.cls-1{fill:#00adef;}.cls-2,.cls-3{fill:#fff;}.cls-2{stroke:#fff;stroke-miterlimit:3.864;stroke-width:0.51271px;}.cls-4{fill:#ed1c24;}</style></defs><title>CZ</title><path id="path2411" class="cls-1" d="M35.73638,9.05323,2,42.94677H36.22055L50,9.05323H35.73638"/><path id="path2415" class="cls-2" d="M26.84284,20.3891a1.493,1.493,0,1,1,1.49305,1.493A1.49318,1.49318,0,0,1,26.84284,20.3891Z"/><path id="path2419" class="cls-3" d="M29.86441,19.56909a1.49366,1.49366,0,1,1,1.493,1.493A1.494,1.494,0,0,1,29.86441,19.56909Z"/><path id="path2423" class="cls-2" d="M32.93664,20.3891a1.49366,1.49366,0,1,1,1.493,1.493A1.49317,1.49317,0,0,1,32.93664,20.3891Z"/><path id="path2427" class="cls-2" d="M31.35741,36.44361c-2.0735,0-4.84664-1.94677-4.84664-4.30165V26.26744s-.50571,1.47908-1.83651,1.52344a2.30092,2.30092,0,0,1-2.2015-2.2256,3.08719,3.08719,0,0,1,2.13434-2.71356,9.39265,9.39265,0,0,1,1.83143-.16983,4.55693,4.55693,0,0,0,1.19393-.35489c.02913,0-.014-1.23574,0-1.24968.01393-.0152,1.38021-.00507,1.38021-.00507v1.34728l.40938.07224s.77693-.89227,1.30292-.89227c.01521,0,0-1.43346,0-1.43346h.63244l.63245.00127s-.014,1.43346,0,1.43346c.52725,0,1.3029.89227,1.3029.89227l.40939-.07225V21.07352s1.3663-.01014,1.38023.00507c.01521.01394-.02915,1.24968,0,1.24968a4.55316,4.55316,0,0,0,1.19518.35488,9.38956,9.38956,0,0,1,1.83017.16984,3.0643,3.0643,0,0,1,2.13435,2.71356,2.1693,2.1693,0,0,1-2.20153,2.22433c-1.3308-.04436-1.72624-1.52344-1.72624-1.52344V32.142C36.31431,34.49684,33.43218,36.44361,31.35741,36.44361Z"/><path id="path2431" class="cls-4" d="M35.63119,22.88974s-.17237-.29278-.85677-.29278l-.00127-1.398h-.687l-.00507,1.44614a2.487,2.487,0,0,0-1.22816.46134,3.36524,3.36524,0,0,0-1.30671,2.35488c.01269.99874,0,4.55767,0,4.55767a4.95774,4.95774,0,0,1,.948.87072,4.21547,4.21547,0,0,1,.58936,1.076h.38657l-.00253-5.60837A2.5055,2.5055,0,0,1,33.62106,25.18a3.7771,3.7771,0,0,1,.57161-1.29911,2.25773,2.25773,0,0,1,1.26487-.89607.39579.39579,0,0,0,.17365-.09506"/><path id="path2435" class="cls-4" d="M30.09253,22.17492a1.38453,1.38453,0,0,1,.929-.41952l.00128-1.39923h.68694l.0038,1.39923a1.6887,1.6887,0,0,1,1.2218.9341s-.3232.18758-.50823.32446c-.63373.47275-.75666,1.12928-1.08745,1.74271A6.7399,6.7399,0,0,0,30.21674,23.014a3.66736,3.66736,0,0,0-.51458-.32446c-.0583-.02028.39037-.51458.39037-.51458"/><path id="path2439" class="cls-4" d="M27.04056,22.88974s.20027-.29531.88594-.29531V21.19519h.692v1.4474a3.11443,3.11443,0,0,1,1.22813.46008,3.21426,3.21426,0,0,1,1.30671,2.35615v4.55766a4.90964,4.90964,0,0,0-.948.87073,4.20912,4.20912,0,0,0-.58937,1.07858l-.33966-.25729v-5.365a1.631,1.631,0,0,0-.13182-1.1635,5.177,5.177,0,0,0-.64258-1.29911,2.17319,2.17319,0,0,0-1.26743-.90621.79787.79787,0,0,1-.19392-.08492"/><path id="path2443" class="cls-4" d="M30.20534,19.56909a1.15209,1.15209,0,1,1,1.15208,1.1521,1.15213,1.15213,0,0,1-1.15208-1.1521"/><path id="path2447" class="cls-4" d="M33.27757,20.3891a1.15273,1.15273,0,1,1,1.1521,1.15209,1.15295,1.15295,0,0,1-1.1521-1.15209"/><path id="path2451" class="cls-4" d="M28.92523,31.51457a5.04086,5.04086,0,0,0-1.8441-.8834c-.04309,0,.03675-4.04562,0-4.27629a2.13756,2.13756,0,0,0-.57034-1.21546s-.54627-.40051-.67808-.35615c-.09252.03041.2763.29151.29785.91255a1.60986,1.60986,0,0,1-1.63879,1.50823c-1.346.08746-1.78834-1.52978-1.3891-2.45881.34346-.79721,1.11154-2.10772,3.58429-1.68187,1.41571.24334,2.1863,2.0621,2.23827,2.85171.0431.64512,0,4.17237,0,4.39037v1.20912"/><path id="path2455" class="cls-4" d="M33.8251,31.51457a5.50779,5.50779,0,0,1,1.91128-.8834c.04309,0,0-3.76425,0-4.4043a1.40175,1.40175,0,0,1,.50443-1.08745s.54628-.42332.67935-.379c.09125.03042-.27756.29151-.29912.91382a1.609,1.609,0,0,0,1.63879,1.507c1.346.08745,1.82129-1.545,1.38911-2.45754-.379-.801-1.11155-2.10773-3.58429-1.68314-1.41571.24334-2.22433,2.01267-2.23955,3.05323-.00759.64512.01648,3.92269,0,4.19011-.01266.21927,0,1.23067,0,1.23067"/><path id="path2459" class="cls-4" d="M27.08113,31.01522a4.34891,4.34891,0,0,1,2.48416,1.40811s.82-1.63878,1.79213-2.04816c.97339.40938,1.79215,2.04816,1.79215,2.04816a4.53994,4.53994,0,0,1,2.58681-1.41952c.00381.076,0-.07731,0,0a4.61139,4.61139,0,0,1-4.32826,4.64639,4.32807,4.32807,0,0,1-4.327-4.32827,2.252,2.252,0,0,1,0-.30671"/><path id="path2463" class="cls-4" d="M27.18377,20.3891a1.1521,1.1521,0,1,1,1.15212,1.15209,1.15214,1.15214,0,0,1-1.15212-1.15209"/></svg>