<svg id="Слой_1" data-name="Слой 1" xmlns="http://www.w3.org/2000/svg" viewBox="0 0 52 52"><defs><style>.cls-1{fill:#f2ca31;}.cls-2{fill:#272525;}.cls-3{fill:#fff;}.cls-4{fill:#c9272b;}.cls-5{fill:#f1c930;}</style></defs><title>DD</title><path class="cls-1" d="M21.91113,37.82221a9.362,9.362,0,0,1-.26671,1.6,5.06631,5.06631,0,0,1-1.15554.08892A5.46849,5.46849,0,0,1,19.33333,39.6c-.7111,0-1.06667-.17779-1.24446-.53331C18,38.8,18,37.82221,17.91113,37.55556c-.17779-.35558-.97781-.26666-1.6,0-.26666.08886-.26666.44444-.7111.88888-.35552.44445-.8.97776-1.33333.97776-1.06668,0-1.6.08892-1.77778-.08887a4.58885,4.58885,0,0,1,.26665-1.68891,2.67873,2.67873,0,0,0,.35558-1.15554.67189.67189,0,0,0-.08887-.35552c0-.17779-.08892-.26672-.08892-.35558,0-.53331.62224-.7111,1.77778-.7111a3.5212,3.5212,0,0,1,1.33333.17779,1.446,1.446,0,0,1,.26666.53331c0,.26665-.08887.62223.08892.7111a1.09349,1.09349,0,0,0,.44445-.17779,1.97428,1.97428,0,0,1,1.06667-.53331c.62218-.08887,1.33334-.26666,1.6-.26666a6.46586,6.46586,0,0,1,1.86665.53331A3.20508,3.20508,0,0,1,21.91113,37.82221Z"/><path class="cls-1" d="M30,36.4c0,.44445-.53331,1.51112-2.4,2.66667a9.05111,9.05111,0,0,1-3.55556.44444h-.26665c-.44445-.26665-.7111-.53336-.7111-.97781a2.35521,2.35521,0,0,1,.26665-.88889A2.69753,2.69753,0,0,0,23.6,36.66667a.2754.2754,0,0,0-.08887-.17779.27523.27523,0,0,1-.08892-.17779c0-.08887.35558-.35552,1.06668-.62218A6.00449,6.00449,0,0,1,26,35.24447,9.27935,9.27935,0,0,1,28.48888,35.6C29.46669,35.86664,30,36.13336,30,36.4Z"/><path class="cls-1" d="M35.77778,25.2889C33.2,27.24447,24.84446,30.53331,22.53331,30.97776c-1.77778.35557-3.02219.08892-3.28884-.88889-.17779-.7111.53331-3.11111.7111-4.7111.17779-1.51113.35552-3.46664.35552-3.73335-1.15555,0-2.93332.17779-3.82221.17779a1.332,1.332,0,0,1-1.33334-1.68885A16.70371,16.70371,0,0,1,19.86664,13.2,19.60972,19.60972,0,0,1,27.6,8.48888a2.11641,2.11641,0,0,1,1.95557.53336c4.53331,3.64443,3.82221,7.11112,6.93332,10.04444C38.62223,21.11111,37.46669,23.95557,35.77778,25.2889Z"/><path class="cls-1" d="M37.91113,37.73334c.62218.26666,1.24441.44445,1.86665.7111,0,.17779-.35558.35558-1.15555.53332a6.57281,6.57281,0,0,1-1.6.26671A13.03862,13.03862,0,0,0,35.33333,38.8c-.62223-.08892-1.15554-.26671-1.77777-.35558a.671.671,0,0,0-.62224.35558c-.26665.35552-.35552.53331-.44444.53331A1.70873,1.70873,0,0,1,31.4222,39.6h-.26666a.812.812,0,0,1-.26665-.44445.96674.96674,0,0,1,.08887-.44444.96614.96614,0,0,0,.08892-.44444,1.56342,1.56342,0,0,0-.08892-.53332A1.56422,1.56422,0,0,1,30.88889,37.2a1.64716,1.64716,0,0,1,.17779-.62218c.44444-.08892.8-.44444,1.15554-1.1556.26666-.62218.62224-1.15554.88889-1.77778.35558-.62218.62223-.97775.88889-.97775a2.20937,2.20937,0,0,0,.7111-.08887.47639.47639,0,0,0,.35558-.26671.80709.80709,0,0,1,.62223-.26666h1.15555l.08886.08893A16.09856,16.09856,0,0,1,35.51112,34a3.40945,3.40945,0,0,0-.88889,1.86664.68819.68819,0,0,0,.08887.26672c.08892,0,.7111-.44445,1.95557-1.24447a13.46431,13.46431,0,0,1,2.22222-1.15555,8.57438,8.57438,0,0,0,1.06668.17779A12.89959,12.89959,0,0,1,38,35.51112q-1.46664,1.2-1.6,1.33334A9.67972,9.67972,0,0,0,37.91113,37.73334Z"/><path class="cls-1" d="M26,2A24,24,0,1,0,50,26,24.01328,24.01328,0,0,0,26,2Zm0,46.66667A22.66667,22.66667,0,1,1,48.66667,26,22.59117,22.59117,0,0,1,26,48.66667Z"/><path class="cls-2" d="M21.91113,37.82221a9.362,9.362,0,0,1-.26671,1.6,5.06631,5.06631,0,0,1-1.15554.08892A5.46849,5.46849,0,0,1,19.33333,39.6c-.7111,0-1.06667-.17779-1.24446-.53331C18,38.8,18,37.82221,17.91113,37.55556c-.17779-.35558-.97781-.26666-1.6,0-.26666.08886-.26666.44444-.7111.88888-.35552.44445-.8.97776-1.33333.97776-1.06668,0-1.6.08892-1.77778-.08887a4.58885,4.58885,0,0,1,.26665-1.68891,2.67873,2.67873,0,0,0,.35558-1.15554.67189.67189,0,0,0-.08887-.35552c0-.17779-.08892-.26672-.08892-.35558,0-.53331.62224-.7111,1.77778-.7111a3.5212,3.5212,0,0,1,1.33333.17779,1.446,1.446,0,0,1,.26666.53331c0,.26665-.08887.62223.08892.7111a1.09349,1.09349,0,0,0,.44445-.17779,1.97428,1.97428,0,0,1,1.06667-.53331c.62218-.08887,1.33334-.26666,1.6-.26666a6.46586,6.46586,0,0,1,1.86665.53331A3.20508,3.20508,0,0,1,21.91113,37.82221Z"/><path class="cls-2" d="M30,36.4c0,.44445-.53331,1.51112-2.4,2.66667a9.05111,9.05111,0,0,1-3.55556.44444h-.26665c-.44445-.26665-.7111-.53336-.7111-.97781a2.35521,2.35521,0,0,1,.26665-.88889A2.69753,2.69753,0,0,0,23.6,36.66667a.2754.2754,0,0,0-.08887-.17779.27523.27523,0,0,1-.08892-.17779c0-.08887.35558-.35552,1.06668-.62218A6.00449,6.00449,0,0,1,26,35.24447,9.27935,9.27935,0,0,1,28.48888,35.6C29.46669,35.86664,30,36.13336,30,36.4Z"/><path class="cls-2" d="M35.77778,25.2889C33.2,27.24447,24.84446,30.53331,22.53331,30.97776c-1.77778.35557-3.02219.08892-3.28884-.88889-.17779-.7111.53331-3.11111.7111-4.7111.17779-1.51113.35552-3.46664.35552-3.73335-1.15555,0-2.93332.17779-3.82221.17779a1.332,1.332,0,0,1-1.33334-1.68885A16.70371,16.70371,0,0,1,19.86664,13.2,19.60972,19.60972,0,0,1,27.6,8.48888a2.11641,2.11641,0,0,1,1.95557.53336c4.53331,3.64443,3.82221,7.11112,6.93332,10.04444C38.62223,21.11111,37.46669,23.95557,35.77778,25.2889Z"/><path class="cls-2" d="M37.91113,37.73334c.62218.26666,1.24441.44445,1.86665.7111,0,.17779-.35558.35558-1.15555.53332a6.57281,6.57281,0,0,1-1.6.26671A13.03862,13.03862,0,0,0,35.33333,38.8c-.62223-.08892-1.15554-.26671-1.77777-.35558a.671.671,0,0,0-.62224.35558c-.26665.35552-.35552.53331-.44444.53331A1.70873,1.70873,0,0,1,31.4222,39.6h-.26666a.812.812,0,0,1-.26665-.44445.96674.96674,0,0,1,.08887-.44444.96614.96614,0,0,0,.08892-.44444,1.56342,1.56342,0,0,0-.08892-.53332A1.56422,1.56422,0,0,1,30.88889,37.2a1.64716,1.64716,0,0,1,.17779-.62218c.44444-.08892.8-.44444,1.15554-1.1556.26666-.62218.62224-1.15554.88889-1.77778.35558-.62218.62223-.97775.88889-.97775a2.20937,2.20937,0,0,0,.7111-.08887.47639.47639,0,0,0,.35558-.26671.80709.80709,0,0,1,.62223-.26666h1.15555l.08886.08893A16.09856,16.09856,0,0,1,35.51112,34a3.40945,3.40945,0,0,0-.88889,1.86664.68819.68819,0,0,0,.08887.26672c.08892,0,.7111-.44445,1.95557-1.24447a13.46431,13.46431,0,0,1,2.22222-1.15555,8.57438,8.57438,0,0,0,1.06668.17779A12.89959,12.89959,0,0,1,38,35.51112q-1.46664,1.2-1.6,1.33334A9.67972,9.67972,0,0,0,37.91113,37.73334Z"/><path class="cls-2" d="M26,2A24,24,0,1,0,50,26,24.01328,24.01328,0,0,0,26,2Zm0,46.66667A22.66667,22.66667,0,1,1,48.66667,26,22.59117,22.59117,0,0,1,26,48.66667Z"/><path class="cls-3" d="M21.91113,37.82221a9.362,9.362,0,0,1-.26671,1.6,5.06631,5.06631,0,0,1-1.15554.08892A5.46849,5.46849,0,0,1,19.33333,39.6c-.7111,0-1.06667-.17779-1.24446-.53331C18,38.8,18,37.82221,17.91113,37.55556c-.17779-.35558-.97781-.26666-1.6,0-.26666.08886-.26666.44444-.7111.88888-.35552.44445-.8.97776-1.33333.97776-1.06668,0-1.6.08892-1.77778-.08887a4.58885,4.58885,0,0,1,.26665-1.68891,2.67873,2.67873,0,0,0,.35558-1.15554.67189.67189,0,0,0-.08887-.35552c0-.17779-.08892-.26672-.08892-.35558,0-.53331.62224-.7111,1.77778-.7111a3.5212,3.5212,0,0,1,1.33333.17779,1.446,1.446,0,0,1,.26666.53331c0,.26665-.08887.62223.08892.7111a1.09349,1.09349,0,0,0,.44445-.17779,1.97428,1.97428,0,0,1,1.06667-.53331c.62218-.08887,1.33334-.26666,1.6-.26666a6.46586,6.46586,0,0,1,1.86665.53331A3.20508,3.20508,0,0,1,21.91113,37.82221Z"/><path class="cls-3" d="M30,36.4c0,.44445-.53331,1.51112-2.4,2.66667a9.05111,9.05111,0,0,1-3.55556.44444h-.26665c-.44445-.26665-.7111-.53336-.7111-.97781a2.35521,2.35521,0,0,1,.26665-.88889A2.69753,2.69753,0,0,0,23.6,36.66667a.2754.2754,0,0,0-.08887-.17779.27523.27523,0,0,1-.08892-.17779c0-.08887.35558-.35552,1.06668-.62218A6.00449,6.00449,0,0,1,26,35.24447,9.27935,9.27935,0,0,1,28.48888,35.6C29.46669,35.86664,30,36.13336,30,36.4Z"/><path class="cls-3" d="M35.77778,25.2889C33.2,27.24447,24.84446,30.53331,22.53331,30.97776c-1.77778.35557-3.02219.08892-3.28884-.88889-.17779-.7111.53331-3.11111.7111-4.7111.17779-1.51113.35552-3.46664.35552-3.73335-1.15555,0-2.93332.17779-3.82221.17779a1.332,1.332,0,0,1-1.33334-1.68885A16.70371,16.70371,0,0,1,19.86664,13.2,19.60972,19.60972,0,0,1,27.6,8.48888a2.11641,2.11641,0,0,1,1.95557.53336c4.53331,3.64443,3.82221,7.11112,6.93332,10.04444C38.62223,21.11111,37.46669,23.95557,35.77778,25.2889Z"/><path class="cls-3" d="M37.91113,37.73334c.62218.26666,1.24441.44445,1.86665.7111,0,.17779-.35558.35558-1.15555.53332a6.57281,6.57281,0,0,1-1.6.26671A13.03862,13.03862,0,0,0,35.33333,38.8c-.62223-.08892-1.15554-.26671-1.77777-.35558a.671.671,0,0,0-.62224.35558c-.26665.35552-.35552.53331-.44444.53331A1.70873,1.70873,0,0,1,31.4222,39.6h-.26666a.812.812,0,0,1-.26665-.44445.96674.96674,0,0,1,.08887-.44444.96614.96614,0,0,0,.08892-.44444,1.56342,1.56342,0,0,0-.08892-.53332A1.56422,1.56422,0,0,1,30.88889,37.2a1.64716,1.64716,0,0,1,.17779-.62218c.44444-.08892.8-.44444,1.15554-1.1556.26666-.62218.62224-1.15554.88889-1.77778.35558-.62218.62223-.97775.88889-.97775a2.20937,2.20937,0,0,0,.7111-.08887.47639.47639,0,0,0,.35558-.26671.80709.80709,0,0,1,.62223-.26666h1.15555l.08886.08893A16.09856,16.09856,0,0,1,35.51112,34a3.40945,3.40945,0,0,0-.88889,1.86664.68819.68819,0,0,0,.08887.26672c.08892,0,.7111-.44445,1.95557-1.24447a13.46431,13.46431,0,0,1,2.22222-1.15555,8.57438,8.57438,0,0,0,1.06668.17779A12.89959,12.89959,0,0,1,38,35.51112q-1.46664,1.2-1.6,1.33334A9.67972,9.67972,0,0,0,37.91113,37.73334Z"/><path class="cls-2" d="M35.77778,25.2889C33.2,27.24447,24.84446,30.53331,22.53331,30.97776c-1.77778.35557-3.02219.08892-3.28884-.88889-.17779-.7111.53331-3.11111.7111-4.7111.17779-1.51113.35552-3.46664.35552-3.73335-1.15555,0-2.93332.17779-3.82221.17779a1.332,1.332,0,0,1-1.33334-1.68885A16.70371,16.70371,0,0,1,19.86664,13.2,19.60972,19.60972,0,0,1,27.6,8.48888a2.11641,2.11641,0,0,1,1.95557.53336c4.53331,3.64443,3.82221,7.11112,6.93332,10.04444C38.62223,21.11111,37.46669,23.95557,35.77778,25.2889Z"/><path class="cls-4" d="M28.66667,25.46667C29.37778,24.93333,30,24.75556,30,24.48889a1.86166,1.86166,0,0,0-2.48889-1.24445,6.49521,6.49521,0,0,0-3.82222,2.4,7.77982,7.77982,0,0,1,1.15556-1.68888c.71111-.62223.88888-.8.88888-.8a2.45864,2.45864,0,0,0-2.22222.17778,4.00955,4.00955,0,0,0-1.77778,2.93333c-.26666,1.51111.08889,2.13333.44445,2.22222a3.38543,3.38543,0,0,0,1.68889-.53333C24.48889,27.6,27.95556,25.91111,28.66667,25.46667Z"/><path class="cls-5" d="M21.02222,21.64444a24.30854,24.30854,0,0,1-.35555,3.73334c-.35556,2.04444-1.15556,4.44444-.53334,4.88889C21.2,30.97778,24.04444,30,27.68889,28.4s6.84445-2.75556,8-4.08889a3.64835,3.64835,0,0,0,.88889-3.46666c-.26667-.97778-1.86667-2.13334-2.31111-2.75556-.35556-.62222-2.84445-5.68889-4.08889-6.93333s-1.6-1.95556-3.11111-1.42223a20.73151,20.73151,0,0,0-7.37778,4.88889,18.10845,18.10845,0,0,0-3.91111,6.04445c-.08889.35555.44445.8,1.42223.62222a41.04359,41.04359,0,0,1,8.71111.08889c2.75555.44444,7.11111.8,8.17777.53333s1.6-.53333.88889.17778c-.97777.97778-2.48889,2.4-7.91111,5.06667-1.15555.53333-5.24444,2.66666-5.95556,1.95555-.62222-.53333-.08888-1.77777.26667-4.08888.26667-1.68889.44444-3.37778.44444-3.37778Z"/><path class="cls-2" d="M26.71111,14.8a2.40164,2.40164,0,0,1,1.15556-1.15556c.44444-.08888.88888.17778.53333.53334a5.84481,5.84481,0,0,1-1.06667.53333C27.06667,14.97778,26.62222,15.06667,26.71111,14.8Z"/><path class="cls-5" d="M28.48888,35.6A9.27935,9.27935,0,0,0,26,35.24447a6.00449,6.00449,0,0,0-1.51112.44444c-.7111.26666-1.06668.53331-1.06668.62218a.27523.27523,0,0,0,.08892.17779.2754.2754,0,0,1,.08887.17779,2.69753,2.69753,0,0,1-.26666.97775,2.35521,2.35521,0,0,0-.26665.88889c0,.44445.26665.71116.7111.97781h.26665A9.05111,9.05111,0,0,0,27.6,39.06668C29.46669,37.91113,30,36.84446,30,36.4,30,36.13336,29.46669,35.86664,28.48888,35.6Zm-2.1333,2.13335a2.5965,2.5965,0,0,1-.8.17779c-.44445,0-.7111-.17779-.7111-.53336a1.55618,1.55618,0,0,1,.08886-.44445c.19559-.07112.30225-.08.30225-.08886h.49777A2.98216,2.98216,0,0,1,26.97776,37.2C26.97776,37.37777,26.7111,37.64442,26.35558,37.73334Z"/><path class="cls-5" d="M21.91113,37.82221a9.362,9.362,0,0,1-.26671,1.6,5.06631,5.06631,0,0,1-1.15554.08892A5.46849,5.46849,0,0,1,19.33333,39.6c-.7111,0-1.06667-.17779-1.24446-.53331C18,38.8,18,37.82221,17.91113,37.55556c-.17779-.35558-.97781-.26666-1.6,0-.26666.08886-.26666.44444-.7111.88888-.35552.44445-.8.97776-1.33333.97776-1.06668,0-1.6.08892-1.77778-.08887a4.58885,4.58885,0,0,1,.26665-1.68891,2.67873,2.67873,0,0,0,.35558-1.15554.67189.67189,0,0,0-.08887-.35552c0-.17779-.08892-.26672-.08892-.35558,0-.53331.62224-.7111,1.77778-.7111a3.5212,3.5212,0,0,1,1.33333.17779,1.446,1.446,0,0,1,.26666.53331c0,.26665-.08887.62223.08892.7111a1.09349,1.09349,0,0,0,.44445-.17779,1.97428,1.97428,0,0,1,1.06667-.53331c.62218-.08887,1.33334-.26666,1.6-.26666a6.46586,6.46586,0,0,1,1.86665.53331A3.20508,3.20508,0,0,1,21.91113,37.82221Z"/><path class="cls-5" d="M37.91113,37.73334c.62218.26666,1.24441.44445,1.86665.7111,0,.17779-.35558.35558-1.15555.53332a6.57281,6.57281,0,0,1-1.6.26671A13.03862,13.03862,0,0,0,35.33333,38.8c-.62223-.08892-1.15554-.26671-1.77777-.35558a.671.671,0,0,0-.62224.35558c-.26665.35552-.35552.53331-.44444.53331A1.70873,1.70873,0,0,1,31.4222,39.6h-.26666a.812.812,0,0,1-.26665-.44445.96674.96674,0,0,1,.08887-.44444.96614.96614,0,0,0,.08892-.44444,1.56342,1.56342,0,0,0-.08892-.53332A1.56422,1.56422,0,0,1,30.88889,37.2a1.64716,1.64716,0,0,1,.17779-.62218c.44444-.08892.8-.44444,1.15554-1.1556.26666-.62218.62224-1.15554.88889-1.77778.35558-.62218.62223-.97775.88889-.97775a2.20937,2.20937,0,0,0,.7111-.08887.47639.47639,0,0,0,.35558-.26671.80709.80709,0,0,1,.62223-.26666h1.15555l.08886.08893A16.09856,16.09856,0,0,1,35.51112,34a3.40945,3.40945,0,0,0-.88889,1.86664.68819.68819,0,0,0,.08887.26672c.08892,0,.7111-.44445,1.95557-1.24447a13.46431,13.46431,0,0,1,2.22222-1.15555,8.57438,8.57438,0,0,0,1.06668.17779A12.89959,12.89959,0,0,1,38,35.51112q-1.46664,1.2-1.6,1.33334A9.67972,9.67972,0,0,0,37.91113,37.73334Z"/></svg>