<svg id="Слой_1" data-name="Слой 1" xmlns="http://www.w3.org/2000/svg" viewBox="0 0 52 52"><defs><style>.cls-1{fill:#f8ac00;}</style></defs><title>DE</title><path class="cls-1" d="M26,2A23.73314,23.73314,0,0,0,2,26,23.73314,23.73314,0,0,0,26,50,23.736,23.736,0,0,0,50,26,23.88079,23.88079,0,0,0,26,2Zm0,45.82513A21.55247,21.55247,0,0,1,4.24262,26,21.54946,21.54946,0,0,1,26,4.17487c12.47213,0,21.63934,9.8442,21.63934,21.93959A21.3798,21.3798,0,0,1,26,47.82513Zm14.47869-6.94437V37.027L24.38688,22.87122c-.6295-.6105-.35409-.83943.118-.83943H36.623l-6.059,4.80764,2.24262,2.02226L45.5541,19.24642H26.74754c-2.47869,0-3.46229,0-4.0918.22893a2.2748,2.2748,0,0,0-1.73115,1.33546,3.41035,3.41035,0,0,0,.118,2.40381,30.40835,30.40835,0,0,0,4.09181,4.3116c-2.47869-1.44992-9.04918-5.647-9.04918-5.647h1.88852V19.13194H6.32787C6.32787,19.17011,40.47869,40.88076,40.47869,40.88076Z"/></svg>