<svg id="Слой_1" data-name="Слой 1" xmlns="http://www.w3.org/2000/svg" viewBox="0 0 52 52"><defs><style>.cls-1{fill:#003d50;}.cls-2{fill:#d81939;}</style></defs><title>DY</title><path class="cls-1" d="M34.38033,25.81879C22.66341,31.85344,11.12269,35.5315,5.57257,34.38623c-4.88939-1.01312-2.48874-7.7085,4.493-13.19254h1.47562c-5.484,4.6251-5.9025,10.39546-2.42267,10.858,3.94235.46251,14.13959-1.67385,24.513-6.49717Z"/><path class="cls-1" d="M46.58177,17.51564a4.27109,4.27109,0,0,1,.94705.13215,1.399,1.399,0,0,1,.4625.19821c.06607,0,.13214.06607.19822.13215.13214.06607.06607.13215.13214.19822a.79863.79863,0,0,1-.19822.66073,6.45924,6.45924,0,0,1-1.67384,1.60777c-.66073.52858-1.34347.947-2.0042,1.40955-.13214.06607-.2643.19821-.39644.26429.13214.06607.19823.06607.33037.13215h0a.23067.23067,0,0,0,.13214.06607c.19822-.06607.33036-.19822.52859-.2643a.5173.5173,0,0,1,.52858-.06607,1.13888,1.13888,0,0,1,.39644.39644.93611.93611,0,0,1-.06607.7268c.881.39643,1.67384.8149,2.48874,1.21133.19822.13215.39643.19822.59466.33037.06607.13214-.06607.26429-.19823.33036-.33036.13215-.59466.39644-.947.39644A9.48551,9.48551,0,0,1,46.758,25.114a13.88631,13.88631,0,0,0-1.60777-.33036,8.77711,8.77711,0,0,1-1.27741-.2643,4.46313,4.46313,0,0,0-.947-.13214,7.86154,7.86154,0,0,0-1.27741-.06607,12.03677,12.03677,0,0,1-1.54169-.06607c-.81491.33036-1.5417.72679-2.48875,1.07918-.59465.19822-1.14526.39644-1.73992.59466.19823.2643.46251.33037.59466.66073a.06471.06471,0,0,1-.06607.06607c-.13214.06607-.19822.06607-.33036.13215a16.93429,16.93429,0,0,1-1.73993-.46251h-.13214c-.26429.06607-.66073.33036-.947,0,0-.06607-.06607-.13215-.06607-.2643,0-.06607-.06607-.06607-.13214-.13214-.13214-.06607-.19822-.06607-.26429-.13215-.19823-.06607-.33037-.13215-.52859-.19822a5.72146,5.72146,0,0,1-1.0792-.39643c-.06607-.06607-.13214-.13215,0-.2643a.87651.87651,0,0,1,.8149-.13214c.2643,0,.59466.06607.8149.06607h0c-.33036-.33037-.59465-.66073-.947-1.01312a.34328.34328,0,0,1-.13214-.2643c0-.06607.06607-.13214.13214-.19821A.24274.24274,0,0,1,32.0678,23.33c.26429-.13215.33036-.19822.52859-.13215.59465.26429,1.07919.46251,1.73992.7268a.9391.9391,0,0,0,.39643.13214,2.19914,2.19914,0,0,0,.39644-.19821.88019.88019,0,0,0,.33036-.19822,6.09319,6.09319,0,0,1,.52859-.33036c.39643-.2643.59466-.39644.947-.59466-.4625-.19822-1.01311-.46251-1.47563-.66073-.52859-.13215-.66073-.19822-1.14526-.33036a7.25128,7.25128,0,0,1-.7268-.19822c-.66073-.13215-.8149-.19822-1.40956-.33037-.2643-.13214-.59466-.13214-.947-.26429v-.13215c.06607-.13214.26429-.26429.39643-.39643a1.73236,1.73236,0,0,1,.59466-.33036,10.24128,10.24128,0,0,1,1.34348.13214c.59465.06607,1.21133.13215,1.73992.19822.7268.06607,1.60777.13215,2.33457.26429.06607,0,.13214.06607.19822,0,.06607.06607.13214,0,.19822.06607h.19823a3.48539,3.48539,0,0,1,1.21133-.7268.81319.81319,0,0,1,.66073.33037,21.96461,21.96461,0,0,1,2.6209-1.67385,13.86448,13.86448,0,0,1,2.33456-1.01312,11.5321,11.5321,0,0,1,1.47563-.26429c-.1542.11015-.08813.11015.044.11015"/><path class="cls-2" d="M47.04429,18.04422a4.61085,4.61085,0,0,0-1.14526.33036,13.445,13.445,0,0,0-1.5417.66073A19.79009,19.79009,0,0,0,42.221,20.24665c-.26429.19822-.881.66073-.947.7268-.46251-.06607-.881-.06607-1.34348-.13215l.06607-.06607A9.88617,9.88617,0,0,1,41.73645,19.63a15.19294,15.19294,0,0,1,2.07028-1.07918,6.48711,6.48711,0,0,1,1.93814-.52859,2.29019,2.29019,0,0,1,1.29942.022"/><path class="cls-2" d="M38.41077,20.99547c.13214-.06607.19823-.13215.33037-.19822s.19822-.13214.26429-.13214a.56439.56439,0,0,0,0,.46251c0,.13215.13214.19822.13214.26429-.26429.19822-.52859.33037-.8149.52858a.34326.34326,0,0,1-.13214-.26429.74561.74561,0,0,1,.06607-.52858Z"/><path class="cls-2" d="M37.92624,23.1979a6.34262,6.34262,0,0,1-1.01312.52858c-.66072.33037-1.40955.7268-2.42267,1.21134a1.1778,1.1778,0,0,1-.8149.13214.838.838,0,0,1-.39643-.06607l-1.0792-1.07919c-.06607-.06607-.13214-.13214-.13214-.19821l.19823-.13215h.06607a13.5119,13.5119,0,0,1,1.40956.66073c.19822.06607.39643.19822.59466.26429a1.92927,1.92927,0,0,0,.59465-.13214l.13214-.06607a2.94275,2.94275,0,0,1,.52859-.33037c.52859-.33036,1.01311-.59466,1.5417-.947l.13214-.06607c.26428.08808.39642.15416.66072.22023"/></svg>