<svg id="Слой_1" data-name="Слой 1" xmlns="http://www.w3.org/2000/svg" viewBox="0 0 52 52"><defs><style>.cls-1{fill:#7fbe26;}</style></defs><title>EI</title><path class="cls-1" d="M26.23046,6.46057c-1.03642,1.20225-.74622-.37311-1.49244.37311a16.15981,16.15981,0,0,0-3.97986,5.265c-1.98993,4.51881-.74622,11.608,3.23364,14.34413A9.14674,9.14674,0,0,1,22.831,29.26192c-1.57536-3.48239-2.98491-6.84041-6.17711-8.66451a7.23293,7.23293,0,0,0-1.78264-.53894,9.11179,9.11179,0,0,0-4.353.29021c-.87058.2902.20729.62185-.49749.82914a5.02505,5.02505,0,0,0-1.20226.66331A3.91637,3.91637,0,0,0,7.11879,24.826c0,.20729.04145,1.53392.04145,1.53392C2.517,27.76949,1.52209,33.11744,2.1854,34.56844a3.32647,3.32647,0,0,0,1.98993,2.03139c.7877.33165-1.03642.66331.95351.995a14.31124,14.31124,0,0,0,5.43086-.37311,30.335,30.335,0,0,0,10.90318-5.804A34.16736,34.16736,0,0,1,11.96922,42.238c.24873,1.11935-.87059,1.65828-.7877,3.06782.04145.33165-.456,1.03642-.62185,1.36807-.12437.16583.08292.456.41457.20729,5.14068-4.1457,10.07405-9.28637,12.976-15.6293,6.21855,8.91326,11.77379,8.99618,14.1783,9.24491a9.74473,9.74473,0,0,0,3.897-.37311,15.10813,15.10813,0,0,0,4.97484-2.07285c.95351-.66332-.49749-.70477.33166-1.24371a5.68651,5.68651,0,0,0,1.65828-2.15577c.49748-.995.91205-3.68967-1.40955-6.30147A4.93389,4.93389,0,0,0,49.98527,24.37c.08292-1.16079-.12437-2.48742-2.19722-3.60677a3.63961,3.63961,0,0,0-.9535-.41457c-2.69471-.41457-.04145-1.32663-2.446-1.03642a6.34883,6.34883,0,0,0-1.11934.12436c-4.60172.49749-5.96982,1.7412-9.86676,3.93842-3.64821,2.07285-6.92333,4.89192-8.45724,5.804a9.72141,9.72141,0,0,0,.91206-2.03139c.456-.95351,3.77258-2.81907,5.43086-3.81405,1.74119-1.07789,8.91325-4.7261,10.94465-9.90822a10.43836,10.43836,0,0,0,.74622-2.69471c.20729-1.86556-.70477-.58039-.74622-1.16079a5.92072,5.92072,0,0,0-.456-1.78264c-1.49245-3.48239-7.00625-2.902-8.91326-.995-.74617-2.65323-5.09915-1.94847-6.63307-.33165"/></svg>