<svg id="Слой_1" data-name="Слой 1" xmlns="http://www.w3.org/2000/svg" viewBox="0 0 52 52"><defs><style>.cls-1{fill:#d72027;}</style></defs><title>EK</title><path class="cls-1" d="M31.10123,7.18405a5.46681,5.46681,0,0,0-1.14615,3.32929V20.96513a3.92164,3.92164,0,0,1-.846,2.15585c-.27289.27289-1.883,1.71922-2.0194,1.883l.90054.02729c.30019-.27289,3.41116-3.02911,3.71134-3.41116a5.34361,5.34361,0,0,0,1.419-3.60218V7.97544a3.851,3.851,0,0,1,1.06428-2.75622c.382-.40934,1.58278-1.419,1.8011-1.66464l-.95513-.02729c-.191.2456-3.60218,3.32929-3.92965,3.65676Z"/><path class="cls-1" d="M23.43294,45.198,27.22615,48.5h2.5379a9.19074,9.19074,0,0,0,6.49485-2.67435,7.82628,7.82628,0,0,0,2.12856-5.62159V34.7735a4.41138,4.41138,0,0,0-1.47362-3.22014c-.16374-.16373-1.28259-1.228-1.28259-1.228v4.17526s1.228,1.2553,1.44633,1.50091c1.11886,1.20072,1.11886,3.38386-2.456,6.8496a7.25776,7.25776,0,0,1-4.85749,2.2923l-6.33111.05458Z"/><path class="cls-1" d="M33.99389,22.90267a4.21855,4.21855,0,0,0-.81868,2.51061V27.46h2.074a3.13164,3.13164,0,0,0,2.10128-1.11886V24.29442a5.066,5.066,0,0,0,1.11886,1.17344c.21831-.2729,2.12856-2.56519,3.71134-2.59248,2.64706-.02729,2.04669,3.32929.98241,4.39357-.35476.35476-1.91025,1.7738-2.40145,2.23772-1.25531,1.20072-3.41116.62765-3.41116-2.456,0,0-2.2923,2.18315-2.64706,2.48333s-1.5282,1.55549-1.5282,1.55549V36.52a5.29341,5.29341,0,0,1-1.55548,4.25713c-.2729.30018-3.19285,2.97453-3.60219,3.27471l-.95512.02729s1.71922-1.55549,2.04669-1.91025a3.717,3.717,0,0,0,.846-2.59248c0-.35476-.05458-8.51425-.05458-8.51425H16.58334c-4.63917,0-5.62159-5.13038-5.64888-6.52213V19.38235a3.45288,3.45288,0,0,0-1.39175-2.70163H10.8526c.16373.05457.98241.382.98241,3.5476,0,0-.05458,3.65676-.05458,3.87508a3.3988,3.3988,0,0,0,3.111,3.43844l15.06367-.02729a5.62433,5.62433,0,0,1,1.14615-2.75622c.40934-.46391,3.65676-3.41115,4.01152-3.71134h.95513c-.13645.13645-1.71923,1.5282-2.0467,1.91025h0Zm4.93936,3.08369a13.31559,13.31559,0,0,0,1.28259,1.5009c1.63736,1.30989,2.40146-.10915,1.30989-1.58277-.43663-.60037-2.10128-.43663-2.59248.08187Z"/><path class="cls-1" d="M22.778,35.70133c0,.73681-2.31959,2.67435-2.456,2.78351-.16374-.79139-.7641-1.63736-2.48333-3.38387l2.5379-2.5379c1.71923,1.71922,2.40146,2.10127,2.40146,3.13826Z"/><path class="cls-1" d="M27.19886,6.52911c.5185.51849,1.61007,1.883.95513,2.56519-.57308.57307-1.47362,1.50091-1.47362,1.50091-.05458-.32747-.90055-1.14615-.90055-1.14615v2.75621c-.02729,1.11886-.43663,1.419-.43663,1.419a7.3396,7.3396,0,0,1,2.04669,4.63918v2.67435a1.82694,1.82694,0,0,1-.51849,1.36446c-.191.21832-2.074,2.12857-2.37417,2.37417a2.20473,2.20473,0,0,1-1.55548.57308H15.87382c-1.11886,0-2.265-.87326-2.265-1.74652,0-.21831.02729-2.61977.02729-2.61977a1.95575,1.95575,0,0,0,1.61007.90055,2.54332,2.54332,0,0,0,1.61006-.7641c.191-.21832,5.3487-5.567,5.3487-5.567a43.34181,43.34181,0,0,0-3.98424-3.302,1.378,1.378,0,0,0-1.96482.81868,17.79419,17.79419,0,0,0,0,5.34869l-1.93754-1.93754a2.67038,2.67038,0,0,1,.191-3.493A5.1086,5.1086,0,0,1,17.89322,11.141H20.704c1.883,0,3.95695,1.883,3.95695,1.883a1.20619,1.20619,0,0,0,.30018-.65494c0-.98241-.02729-3.57489-.02729-3.57489-1.419-1.419-1.61006-2.89266-.92783-3.5749C25.28861,3.93663,25.75253,3.5,25.75253,3.5a4.39983,4.39983,0,0,0,1.44633,3.02911Zm-8.869,14.19042a6.19479,6.19479,0,0,1-1.47362,1.30988H24.8247c2.15585,0,1.71922-1.33717,1.33717-2.0194a29.58539,29.58539,0,0,0-3.302-3.957s-4.39356,4.53-4.53,4.66647Z"/><path class="cls-1" d="M9.24252,27.97847H7.93264a3.11928,3.11928,0,0,1,1.39175,2.75622v6.3584c0,4.12068,3.41116,7.94117,7.55913,7.94117h3.46573a4.98785,4.98785,0,0,0,4.0661-1.61006A17.67752,17.67752,0,0,0,25.698,42.087a4.47,4.47,0,0,0,1.50091-3.60219v-2.074a3.8186,3.8186,0,0,0-1.55549-3.0564C25.3159,33.027,24.44264,32.181,24.44264,32.181v4.25713s.87326.92783,1.25531,1.228a2.18671,2.18671,0,0,1-1.30988,3.87507H16.77436A6.74725,6.74725,0,0,1,10.19765,34.91V31.4715c.02729-3.493-.95513-3.493-.95513-3.493Z"/><path class="cls-1" d="M17.593,35.72862c0,.73681-2.31959,2.67435-2.456,2.78351-.16374-.79139-.7641-1.63736-2.48333-3.38387l2.5379-2.5379c1.69194,1.69193,2.40146,2.074,2.40146,3.13826Z"/></svg>