<svg id="Слой_1" data-name="Слой 1" xmlns="http://www.w3.org/2000/svg" viewBox="0 0 52 52"><defs><style>.cls-1{fill:#548f46;}.cls-2{fill:#f1d212;}.cls-3{fill:#c12237;}</style></defs><title>ET</title><g id="_548f46ff" data-name="#548f46ff"><path id="path2565" class="cls-1" d="M47.67863,12.39235H48.727A3.91975,3.91975,0,0,1,50,13.59048v2.69579c-.4493.74883-.59906,1.49766-.97348,2.24649a8.821,8.821,0,0,1-2.39625,2.99532,26.48478,26.48478,0,0,1-4.56787,2.47114C38.0936,25.72153,33.975,27.369,29.85647,28.9415c-8.312,2.99532-16.84867,5.99064-25.5351,8.53666a21.94657,21.94657,0,0,1-2.17161.37441c.07489-.59906.97348-.82371,1.57255-1.12324A218.16377,218.16377,0,0,0,43.11076,15.08814,30.53608,30.53608,0,0,1,47.67863,12.39235Z"/></g><g id="_f1d212ff" data-name="#f1d212ff"><path id="path2568" class="cls-2" d="M43.18565,24.67317c.52418-.14977,1.273,0,1.42278.4493a2.06908,2.06908,0,0,1-.52419,1.79719,14.466,14.466,0,0,1-6.29017,5.092,32.21351,32.21351,0,0,1-4.79251,1.34789c-7.9376,1.87208-16.025,3.22-24.18721,4.493a.56775.56775,0,0,1,.29954.14977c-.14977,0-.4493.07488-.52419.07488-.14976-.29953-1.12324-.22465-.67394.07488a8.283,8.283,0,0,0-2.77067.52419l-.37442-.37442c-.8986,0-1.87207.07488-2.77067.14977,0-.22465.07488-.4493.07488-.67395a21.94662,21.94662,0,0,0,2.17161-.37442,11.76969,11.76969,0,0,0,1.72231-.29953c2.99532-.74883,5.91576-1.57254,8.83619-2.47114,8.16225-2.546,16.24961-5.39157,24.11233-8.38689C40.34009,25.72153,41.688,25.12246,43.18565,24.67317Z"/></g><path id="path2571" class="cls-3" d="M36.37129,33.35959c.67395-.07488,1.49766-.37441,2.02185.07489.67394.59906,0,1.273-.4493,1.87207a14.38677,14.38677,0,0,1-6.21529,3.819,17.01267,17.01267,0,0,1-3.9688.37442,195.5292,195.5292,0,0,1-20.96724-.52418A5.32889,5.32889,0,0,1,5.22,38.67629a8.283,8.283,0,0,1,2.77067-.52419c.14976,0,.4493-.07488.67394-.07488.14977,0,.4493-.07488.52418-.07488,4.8674-.52418,9.65991-1.273,14.37754-2.09672C27.83463,35.15679,32.103,34.18331,36.37129,33.35959Z"/></svg>