<svg id="Слой_1" data-name="Слой 1" xmlns="http://www.w3.org/2000/svg" viewBox="0 0 52 52"><defs><style>.cls-1{fill:#7bcbe2;}.cls-2{fill:#089bc9;}.cls-3{fill:#8f174f;}.cls-4{fill:#c8c4c3;}.cls-5{fill:#b4175e;}</style></defs><title>EW</title><path class="cls-1" d="M19.9682,13.50869c-3.68663-.504-5.5585,1.54775-8.14,3.4339L3.00285,23.87322,3,23.87465l1.69911.8981.01142.00714a7.469,7.469,0,0,0,7.37754-.83528l3.72661-2.96129,1.425-1.13369,7.102-5.64274Z"/><path class="cls-2" d="M3.00286,23.87322l1.69626.901.01143.00572a7.46468,7.46468,0,0,0,7.379-.83528l3.72518-2.95987,1.42639-1.13368Z"/><path class="cls-3" d="M35.03883,17.78929l-4.73749-.85241A7.75731,7.75731,0,0,0,24.2474,18.2876s-2.03465,1.51348-3.53528,2.68429l-3.33681,2.6429L9.65653,29.75441l-.06425.0514L11.92247,31.038a7.46859,7.46859,0,0,0,7.389-.831l6.90207-5.46712,5.56563-4.3834Z"/><path class="cls-4" d="M20.71352,20.97189C22.21131,19.80108,24.246,18.2876,24.246,18.2876a6.85244,6.85244,0,0,1,1.59629-.92237l-8.59975,2.48583L15.8161,20.98332l-3.72376,2.96129a7.46466,7.46466,0,0,1-7.379.83528c1.88472,1.1294,4.81175,1.38926,9.22085.07424l3.01127-.89667.43263-.34267Z"/><path class="cls-4" d="M32.84427,23.60479a18.52276,18.52276,0,0,1,3.55955-2.39588l-9.62635,3.087-.56542.44548L19.31,30.207a7.46513,7.46513,0,0,1-7.389.831c3.39821,1.86615,8.63116.494,13.0317-1.07087l.26272-.21274c-.00142,0,7.36612-5.95972,7.62884-6.14962"/><path class="cls-4" d="M44.164,29.80581c-3.86367-1.12227-5.02307-.41264-9.57494.95664h-.00144l-.37981.31554v-.00142l-.00429.00428.00429-.00286-.01142.00714-7.33613,5.81694a7.82362,7.82362,0,0,1-7.56744.7653c2.72714,1.42211,5.54708,1.07373,10.37166-.4312L49,31.30073Z"/><path class="cls-3" d="M45.44621,21.78432l-5.11445-.93093c-3.06409-.56828-4.51333.42263-7.4889,2.7514-.26273.19133-7.62884,6.14962-7.62884,6.14962L16.9441,36.4266l2.32876,1.23221a7.82239,7.82239,0,0,0,7.58886-.75674l7.33612-5.81694.01-.00714-.00429.00286Z"/><polygon class="cls-5" points="16.944 23.957 33.3 19.157 26.776 24.296 9.591 29.806 16.944 23.957"/><polygon class="cls-5" points="24.951 29.966 42.762 24.005 34.589 30.762 16.946 36.427 24.951 29.966"/></svg>