<svg id="Слой_1" data-name="Слой 1" xmlns="http://www.w3.org/2000/svg" viewBox="0 0 52 52"><defs><style>.cls-1{fill:#c1912d;}</style></defs><title>EY</title><polygon class="cls-1" points="28.784 16.204 28.728 16.156 28.166 15.59 27.553 16.206 28.166 16.823 28.784 16.204"/><polygon class="cls-1" points="30.016 16.205 29.962 16.155 29.4 15.59 28.787 16.206 29.4 16.823 30.016 16.205"/><path class="cls-1" d="M21.6401,16.08261c.01834.13384.11353.18426.20588.23277.11025.05795.2403.11216.2403.31191v4.69525h5.21588v.0966a.63193.63193,0,0,0-.00658.12533.708.708,0,0,0,.36563.72323.64365.64365,0,0,0,.28787.06643.688.688,0,0,0,.37316-.114l.08952-.056-.0848-.06738a.99952.99952,0,0,1-.20119-.71194v-.0622H30.0703l-.00141-4.31642a3.67808,3.67808,0,0,1-1.19536,1.25426.42941.42941,0,0,0,.19694.2761c.24266.13336.22428.25963.22428.25963v1.7325h-1.161c.00095-.02591.00141-.05748.00141-.09188l-.00141-.08009a1.29441,1.29441,0,0,0-1.30752-1.455c-.01932,0-.04193,0-.05935.0019-.36092.00989-.678.01743-.95129.01743h-.065c-.695,0-1.05922-.07681-1.14639-.2422l-.04-.07256-.066.0457a.48681.48681,0,0,0-.20024.42688c.00235.27942.155.588.43347.60924.17433.00754.425.01131.678.01131.45184,0,.90179-.008.90179-.008.96829.007.98336.416.99089.61252v.22474H22.87644V14.79209a6.82943,6.82943,0,0,1-1.2406,1.21892l.0019.02686a.42661.42661,0,0,1,.00236.04474"/><path class="cls-1" d="M18.63237,21.97434s-.08434.687,1.35132.687c1.16709,0,1.20571-.72464,1.20571-.73172,0,0,.00285-2.67108.00285-2.69653-.001-.15359-.04242-.65491-.52067-.66057H16.60113V18.279c0-.066.06172-.09189.10885-.12111.23841-.14747.278-.278.20214-.32651a4.182,4.182,0,0,1-.95319-.866l.00092,2.35115H20.036s.01838-.00187.041-.00187a.26718.26718,0,0,1,.29966.29871v1.88233a.3946.3946,0,0,1-.4071.40805c-.646,0-.60263-.32841-.60263-.32841l-.00141-1.05919H15.95893v.80617h2.67344Z"/><path class="cls-1" d="M35.60833,16.58881a.32972.32972,0,0,1,.22521-.31237.30642.30642,0,0,0,.20591-.23653l.00187-.066c0-.07679-.057-.10083-.12815-.13146a2.29221,2.29221,0,0,1-.45421-.32839,2.822,2.822,0,0,1-.52112-.52914l-.139-.2238v6.56012h.80948s-.01415-4.58168,0-4.73246"/><path class="cls-1" d="M32.85357,22.16993l-.55081.55646-.55644-.55646.55644-.556Zm-1.88561,0,1.3348,1.33437,1.3292-1.33437-.826-.82738.99512-1.05306V14.76405a3.30033,3.30033,0,0,1-1.02054,1.26461l.00141.04383a.28629.28629,0,0,0,.163.22664.33171.33171,0,0,1,.18187.3185c.00943.15268,0,3.327,0,3.327l-.8241.8594-.82783-.8594c0-.05091-.01084-3.18278,0-3.32743a.332.332,0,0,1,.18092-.31853.29107.29107,0,0,0,.16349-.22946l.0019-.06407A4.06389,4.06389,0,0,1,30.79831,14.765v5.60081l.9942.97815Z"/><path class="cls-1" d="M28.61854,25.07024l.19362.12345c.05562.03345.06031.057.06031.07633v1.71272H25.0984l-.8519,1.08087L24.246,25.27755l.00566-.05418a.19735.19735,0,0,1,.04475-.03014l.17859-.11166.01884-.0099v-.1701H22.61154v.16821l.18613.12061a.26476.26476,0,0,0,.0438.02922l.0014-.00046.00049,5.12069-.00989.06643a.12312.12312,0,0,1-.03534.0344l-.18659.12532v.16539h1.88234v-.16725l-.19648-.12487a.41888.41888,0,0,0-.04946-.02686l-.00144.00049V28.06361l.20309.0622.2615-.15032a.44732.44732,0,0,1,.11825-.056.33937.33937,0,0,1,.10554-.01225h3.93146V29.709l1.406-1.50727V25.22056c0-.02215.02781-.04524.02781-.04524l.20355-.10224v-.17151H28.61854Z"/><path class="cls-1" d="M48.895,27.18108a3.003,3.003,0,0,0-1.50305-1.70374,6.27924,6.27924,0,0,0-3.03579-.58238H39.23119v.16633s.21485.14325.22144.14325l.0019-.00144-.00095.60783h4.89408A4.48044,4.48044,0,0,1,46.5,26.20011a1.81576,1.81576,0,0,1,1.04128,1.61894,1.66856,1.66856,0,0,1-.27185.92963,2.11905,2.11905,0,0,1-.81561.69546,4.854,4.854,0,0,1-2.14668.36986H41.75572V26.23074H40.35963l.00095,4.11287-.00894.06076c-.009.01085-.02356.02545-.03676.03819l-.172.10837-.0151.01084v.16679h4.184a10.071,10.071,0,0,0,1.88187-.13571,4.47267,4.47267,0,0,0,1.60246-.65585,2.76062,2.76062,0,0,0,.98994-1.07711,2.20209,2.20209,0,0,0,.2139-.965,2.43092,2.43092,0,0,0-.105-.71383"/><path class="cls-1" d="M33.12148,25.96783l-4.545,4.74943h2.09155v-.19978h-.073a.61168.61168,0,0,1-.09706-.0094.24317.24317,0,0,1-.07678-.02215l3.51211-3.653Z"/><path class="cls-1" d="M37.75932,30.53646v.20073h2.09152L34.307,24.89559l-.80807.84623.89713.9527.9282.93386h-1.5676l-.85941.9.18612.12723.2026-.1098a.20875.20875,0,0,1,.05654-.01743c.0132-.00236.06548-.00331.147-.00331l2.68049.00049,1.84983,1.977s-.02827.03391-.18894.03391Z"/><path class="cls-1" d="M21.75757,25.18524l.171-.11449v-.16961H20.06039v.16915l.18753.12062c.04334.02967.06551.05653.06551.08058l.00092,5.0632-.01317.065a.47341.47341,0,0,1-.05044.041l-.19035.123v.16962H21.9286V30.5651l-.17293-.12156a.18679.18679,0,0,0-.04287-.02732l-.0019.00092L21.71,25.279l.00517-.05467Z"/><path class="cls-1" d="M12.51067,29.60688H12.4348l-.20685.00472-.24548.14089a.625.625,0,0,1-.10885.05607l-4.18212.01131a4.93885,4.93885,0,0,1-2.15893-.368,1.75012,1.75012,0,0,1-1.07239-1.63024,1.65292,1.65292,0,0,1,.27847-.91644,2.39186,2.39186,0,0,1,1.62509-1.03094,2.99748,2.99748,0,0,1,.51215-.0438H9.0301c.12815-.00567.10885.02542.11308.03911l-.024.15075h.17859L10.2198,24.906H7.64767a12.5853,12.5853,0,0,0-1.38053.05749,4.61708,4.61708,0,0,0-.48955.0867,4.52465,4.52465,0,0,0-1.22081.47635A3.154,3.154,0,0,0,3.21723,26.875,2.33388,2.33388,0,0,0,3,27.8923,2.47833,2.47833,0,0,0,4.505,30.12283a4.69888,4.69888,0,0,0,1.50776.50934,11.03281,11.03281,0,0,0,1.6816.10131h3.88953Z"/><path class="cls-1" d="M10.37233,28.20956l.90605-1.13175h-6.097l-.61393.916,5.49622-.00048c.10318.0113.139.03675.14275.05418l-.0226.16208Z"/><path class="cls-1" d="M10.84557,24.90137l-.85049,1.06626.17387.0608.0245.00612.26481-.13335a.39043.39043,0,0,1,.22239-.07256h3.3684l.00141,4.51385-.01458.06312a.12383.12383,0,0,1-.04147.03347l-.19225.1272v.1668H15.684v-.16962l-.19556-.1192-.04664-.04288a.29792.29792,0,0,1-.00141-.049V25.82864l2.9877-.00046c.115.01412.12959.04.1291.04334v.15927H18.725l.92679-1.12942Z"/><polygon class="cls-1" points="12.935 33.577 11.514 37.155 12.183 37.155 13.024 34.919 13.124 34.609 13.224 34.919 13.597 35.902 12.656 35.902 12.856 36.413 13.787 36.413 14.072 37.155 14.797 37.155 13.393 33.577 12.935 33.577"/><rect class="cls-1" x="16.55992" y="33.57679" width="0.69405" height="3.57762"/><path class="cls-1" d="M20.53141,35.49226h-.4523V34.12964h.44713a.55715.55715,0,0,1,.45751.16821.7588.7588,0,0,1,.13712.48906q0,.70533-.58946.70535m.56826.39436a1.07264,1.07264,0,0,0,.53666-.44478,1.35135,1.35135,0,0,0,.1894-.72323,1.06931,1.06931,0,0,0-.33124-.85472,1.43173,1.43173,0,0,0-.96308-.28695H19.38506v3.57762h.69405V35.98134H20.474l.82075,1.17322h.77791Z"/><polygon class="cls-1" points="27.507 33.577 26.844 36.123 26.823 36.123 25.997 33.577 25.313 33.577 25.498 34.145 24.861 36.123 24.835 36.123 24.177 33.577 23.456 33.577 24.514 37.155 25.077 37.155 25.803 34.94 26.523 37.155 27.108 37.155 28.191 33.577 27.507 33.577"/><polygon class="cls-1" points="30.764 33.577 29.343 37.155 30.012 37.155 30.853 34.919 30.953 34.609 31.053 34.919 31.426 35.902 30.485 35.902 30.685 36.413 31.616 36.413 31.9 37.155 32.626 37.155 31.221 33.577 30.764 33.577"/><polygon class="cls-1" points="35.178 35.082 34.399 33.577 33.631 33.577 34.799 35.687 34.799 37.154 35.493 37.154 35.493 35.687 36.666 33.577 35.978 33.577 35.178 35.082"/><path class="cls-1" d="M39.54929,35.03986l-.13149-.03155a1.07137,1.07137,0,0,1-.43959-.18186.4598.4598,0,0,1,.024-.62857.73033.73033,0,0,1,.442-.105,1.33911,1.33911,0,0,1,.54183.11026,1.43243,1.43243,0,0,1,.39957.24735v-.72609a1.57888,1.57888,0,0,0-.915-.23133,1.37628,1.37628,0,0,0-.9447.29213,1.03733,1.03733,0,0,0-.32888.818,1.00977,1.00977,0,0,0,.90514,1.02572l.13145.03157a1.12254,1.12254,0,0,1,.45.18141.37358.37358,0,0,1,.12863.30251q0,.50034-.64691.4999a1.3577,1.3577,0,0,1-.93153-.36845v.72606a1.57149,1.57149,0,0,0,.9103.237,1.40709,1.40709,0,0,0,1.005-.32088,1.14446,1.14446,0,0,0,.33644-.86838.91092.91092,0,0,0-.22618-.66012,1.43084,1.43084,0,0,0-.71-.34961"/></svg>