<svg id="Слой_1" data-name="Слой 1" xmlns="http://www.w3.org/2000/svg" viewBox="0 0 52 52"><defs><style>.cls-1{fill:#006946;}</style></defs><title>F9</title><path class="cls-1" d="M48.8519,6.57533H18.17655c-3.54927,0-5.31654,1.642-6.53178,6.42866l-1.49629,5.60546c-.06072.16808.12947.28425.27643.18052a9.017,9.017,0,0,1,4.80014-1.19879H41.20312c3.22668,0,5.65162-2.8663,6.31905-5.34419L48.99043,6.7596a.1329.1329,0,0,0-.13853-.18427"/><path class="cls-1" d="M43.74069,20.49061h-29.288c-3.5491,0-5.09073,1.351-6.52591,6.42844L6.4117,32.51777a.16427.16427,0,0,0,.25958.18725,9.66211,9.66211,0,0,1,4.9056-1.20046H35.41572c3.72832,0,6.34177-2.91588,7.50009-7.21459l.96385-3.61211a.13315.13315,0,0,0-.139-.18725"/><path class="cls-1" d="M24.09558,34.40713H10.7178c-3.45354,0-5.22189,1.55869-6.43307,6.05291L3.0058,45.2391a.13993.13993,0,0,0,.14065.18557l12.77829-.00337c3.22685,0,5.96075-2.056,7.14666-6.47742l1.16777-4.35269a.14418.14418,0,0,0-.14359-.18406"/></svg>