<svg id="Слой_1" data-name="Слой 1" xmlns="http://www.w3.org/2000/svg" viewBox="0 0 52 52"><defs><style>.cls-1{fill:#473729;}</style></defs><title>FJ</title><g id="g66239"><g id="g66241"><path id="path66243" class="cls-1" d="M12.10747,44.90975c-.05267.2046-.0387.23673-.10355.201-.46689-.37242-1.80056-1.61751-2.25705-2.04206a16.9498,16.9498,0,0,1-1.53325-1.69214c.4823-.16747,3.66919-.42134,3.752-.42277a26.73552,26.73552,0,0,1,.14189,3.956"/></g></g><g id="g66245"><g id="g66247"><path id="path66249" class="cls-1" d="M16.72083,38.43755a11.21557,11.21557,0,0,1-2.84434.05249c-.04622-.081-.19026-3.42784-.19026-3.42784.0799.10569.16948.28315.21821.33528.04838.05214,1.04092,1.17154,1.18783,1.32865.14512.15747,1.01619,1.1619,1.21506,1.31579a3.38828,3.38828,0,0,1,.4135.39563"/></g></g><g id="g66251"><g id="g66253"><path id="path66255" class="cls-1" d="M27.27237,26.91725c-.21858.37956-.33718.55845-.41314.69807-.07489.14-.22969.31564-.32034.4549a5.00338,5.00338,0,0,1-.34936.45276c-.315-.43027-.7858-1.08227-1.07353-1.49754-.28988-.41491-.62562-1.09762-.8055-1.36114.41422-.53845.64964-.84446.80264-1.06084.19851-.27959.536-.77662.75211-1.139.21607-.36064.32786-.5431.32786-.5431.29239.38814.66612.98836.92984,1.37578.26408.38778.58513.91017.72416,1.09727a1.75832,1.75832,0,0,1,.12649.18782,1.11814,1.11814,0,0,0,.07811.14711c.01863.02535.02258.02249.01039.05a1.33273,1.33273,0,0,1-.21.28494c-.06987.09-.13688.18353-.20066.27887-.10535.15461-.20173.31529-.30636.47025-.02329.03571-.0516.06713-.07274.10391"/></g></g><g id="g66257"><g id="g66259"><path id="path66261" class="cls-1" d="M16.18547,46.549c.08206-.1239,1.64182-2.38378,1.68948-2.468.0498-.08426.20388-.41669.296-.59665.09209-.18032.2974-.54346.3791-.69986.081-.15568,1.56872-2.71478,1.56872-2.71478.1788.15926.10714.06678.23255.1439.1247.0757.5425.31029.62778.36528.08384.055.15049.10248.15049.10248-.15874.22245-.717,1.2201-.85638,1.49-.13831.26851-1.883,3.62137-1.96467,3.79991-.08241.17817-.32607.68878-.40633.90873a1.65815,1.65815,0,0,1-.21857.38135c-.08887.15711-.13832.28637-.20246.40813a2.97855,2.97855,0,0,1-.15586.2653c-.17092-.16282-.64426-.29458-.7643-.43134a4.65049,4.65049,0,0,0-.7367-.47525c.17163-.246.239-.2978.36118-.47919"/></g></g><g id="g66263"><g id="g66265"><path id="path66267" class="cls-1" d="M14.06913,45.70058c-.06414-.19817-.38484-4.52761-.42174-4.75078-.0387-.22459-.00144-.5131-.04264-.6395.17342-.12212,4.68824-.63237,4.79825-.67236.11-.03749.20424.06963.10678.17746-.0989.10748-3.71828,5.90553-3.89135,6.10121a1.42207,1.42207,0,0,1-.38949.34492c-.153-.26316-.05984-.25244-.15981-.56095"/></g></g><g id="g66269"><g id="g66271"><path id="path66273" class="cls-1" d="M11.90277,38.68057c-.09639.05249-4.34354,1.06478-4.54492,1.158-.20066.0957-.06951-.085-.12613-.06177.07561-.19067,5.32319-6.139,5.32319-6.139-.02938.51917-.59087,4.98215-.65214,5.04285"/></g></g><g id="g66275"><g id="g66277"><path id="path66279" class="cls-1" d="M5.84249,37.99643c-.1.05928-.1788-.09426-.1788-.09426-.20389-.44027-.42569-.77769-.4995-.91838a1.54959,1.54959,0,0,1-.11144-.30993c.41207-.41991,2.63651-2.54589,3.183-3.17.54393-.62309,2.12734-2.1824,2.4466-2.57589.31855-.39313.48158-.552.52781-.62522.0455-.07284.15372-.23459.15372-.23459.06664.27744.12541.4399.21069.712.08814.28494.25763.76127.315.95765-1.014,1.23617-2.39,2.52232-2.65335,2.83619-.26444.31314-2.77877,2.7212-2.92675,2.92437a4.76148,4.76148,0,0,1-.46689.49811"/></g></g><g id="g66281"><g id="g66283"><path id="path66285" class="cls-1" d="M3.899,34.61722a2.88672,2.88672,0,0,1-.20281-.60916c-.04157-.11961-.08815-.46811-.13079-.66343-.04192-.1971-.08671-.58523-.10606-.69092.09388-.03856.258-.19139.41171-.28851.15479-.096,1.96753-1.77248,2.237-2.061.26946-.28815.88577-.84232,1.29354-1.23081.4092-.38992,1.66905-1.745,1.89192-1.9046.22467-.15889.65644-.54917.77218-.59987-.38412-.22959-2.63257-1.34293-3.17937-1.5893-.54751-.24388-2.85687-1.46505-3.16324-1.62-.30528-.15711-.89508-.43062-.9628-.45883.01147-.26387.11144-.6013.14225-.87588.03082-.2753.09854-.67272.09854-.78912.35474.10283,3.60182,1.925,3.90711,2.08206.30708.15639.832.336,1.00186.41062.17092.075,2.338,1.233,2.52938,1.32365.19205.08891.34685.17175.34685.17175.0627.06284.07417.07677.06521.38028-.00788.30386.01792.70556-.01469.96586-.03368.25959.00251,1.39221.00251,1.39221-.69621.67735-1.4924,1.63858-2.1406,2.21167-.64641.57381-3.10233,2.97294-3.10233,2.97294-.16554.15354-1.01511,1.05228-1.21076,1.16082a3.72313,3.72313,0,0,0-.48659.30958"/></g></g><g id="g66287"><g id="g66289"><path id="path66291" class="cls-1" d="M4.24055,26.00155c.19958.09784.67292.25459.90189.37135a4.60044,4.60044,0,0,0,.56543.20746c.16267.06427,1.03482.266,1.123.28422,0,0-.0903.06463-.27877.20353-.19995.14783-1.04665.858-1.487,1.20475-.44181.346-1.47412,1.158-1.7124,1.32543a1.82155,1.82155,0,0,1-.44575.23316c-.15766-.89266-.27233-1.77748-.30458-2.15632-.03189-.37885-.12075-1.67608-.09889-1.93852a1.24948,1.24948,0,0,0,.00824-.30458,6.39987,6.39987,0,0,1,.73312.24066c.34363.126.85029.25781.99577.32886"/></g></g><g id="g66293"><g id="g66295"><path id="path66297" class="cls-1" d="M11.21835,22.71579c-.81912-.32529-6.89729-2.98009-6.94853-3.00544-.04945-.02678-.7926-.24852-.7926-.24852a4.16528,4.16528,0,0,1,.2003-.93408c.05733-.12391.22287-.4192.22287-.4192.20532.11462.46833.19853.71951.34493.25011.14532,2.91134,1.36221,3.56563,1.64893.655.28637,2.92532,1.20725,3.03425,1.24188a2.43251,2.43251,0,0,1,.23255.08891,2.30032,2.30032,0,0,0-.1591.68557c-.01755.18068-.067.3917-.058.45847a.43431.43431,0,0,1-.01684.13855"/></g></g><g id="g66299"><g id="g66301"><path id="path66303" class="cls-1" d="M12.307,19.27484c.06127-.07534.0172-.16175.02938-.23245.01254-.07177-.50165-1.98958-.60412-2.397-.10463-.40778-.73384-2.297-.74853-2.34843-.01613-.05142-.07238-.22531-.14548-.216-.15479.0225-4.45892.99408-4.73232,1.05228a4.477,4.477,0,0,0-.55217.15282,4.84943,4.84943,0,0,0-.50093.23852c.16948.12.42532.1921.56292.28137s6.09286,3.19325,6.21074,3.28466a1.89414,1.89414,0,0,0,.48051.18425"/></g></g><g id="g66305"><g id="g66307"><path id="path66309" class="cls-1" d="M7.12846,12.58679a2.1757,2.1757,0,0,1-.23542.08963c.21141-.34886.65035-1.03621.90082-1.36007A19.53131,19.53131,0,0,1,9.25078,9.59386c.42031-.39313,1.08786-1.0255,1.27418-1.189.18776-.16283.2906-.2371.2906-.2371a.60764.60764,0,0,1,.1702-.02749c.07274.0432.07668.09355.13473.24887.06844.21246.3232,1.97173.35689,2.20954.0326.23709.18131.99764.19313,1.10369-.18561.0482-3.64088.67914-3.84835.752-.12541.04428-.54285.06392-.6937.13247"/></g></g><g id="g66311"><g id="g66313"><path id="path66315" class="cls-1" d="M13.56072,16.96158c-.08027-.40313-.29884-2.22989-.31532-2.4884-.01756-.2578-.26337-1.47112-.26337-1.47112a2.19805,2.19805,0,0,1,.39988-.01142c.20425.02213,3.53231.35421,3.63694.38384.10463.03071.29167.05285.35976.126a10.92938,10.92938,0,0,0-1.946,1.485c-.76716.71128-1.75038,1.82747-1.87185,1.976"/></g></g><g id="g66317"><g id="g66319"><path id="path66321" class="cls-1" d="M19.038,12.11015c-.37337.00464-4.84089-.78412-5.06592-.83376-.22323-.04856-.6421-.10676-.6421-.10676-.10356-.762-.35976-1.96672-.44217-2.37557-.08456-.41062-.24509-1.09048-.28486-1.40684-.04551-.34778-.02437-.3892.19671-.1489.11538.12533,5.88074,4.50083,6.05559,4.64544.17881.146.268.22781.18275.22639"/></g></g><g id="g66323"><g id="g66325"><path id="path66327" class="cls-1" d="M22.22161,11.02706c-.3361.07319-.98609.23245-1.10936.26637-.12075.03428-.11609.07891-.17486.03142-.03117-.02392-.45363-.32493-.6679-.49525-.21786-.17-5.45362-4.75363-5.56219-4.83148-.10785-.07962-.09854-.10819-.02329-.15139.07489-.04106.77791-.521.937-.66486.157-.14426.21034-.1464.21034-.1464.10248.13462,1.76866,1.73321,2.1062,2.02493.57617.49882,1.6952,1.47647,2.0958,1.82961.39881.35314,1.16311,1.11405,1.40067,1.33007.23864.21817.67364.64808.703.67772a.74961.74961,0,0,1,.08456.12926"/></g></g><g id="g66329"><g id="g66331"><path id="path66333" class="cls-1" d="M18.623,4.18562c-.10248-.11355-.19887-.19246.02043-.26566.21929-.07248.712-.27673,1.03482-.36956.32034-.09177.42963-.12783.42963-.12783a18.79209,18.79209,0,0,0,1.578,1.66357c.50774.50561,3.37644,3.25538,3.67886,3.56174.30278.306,1.22653,1.38721,1.22653,1.38721.19564-.28387,1.49061-4.07556,1.61889-4.2923.12792-.21531.98036-2.14919,1.04593-2.32022.06521-.171.4049-.80912.4049-.80912.21.04285.38878.05428.52745.0932.15766.04606.559.09355.67077.11854a.481.481,0,0,1,.19242.0932,2.60567,2.60567,0,0,0-.268.60665c-.11358.27959-.66575,1.59181-.93127,2.23024-.26659.6388-1.35158,3.83062-1.47269,4.04236s-.30672.52132-.35509.64772c-.33073-.06784-2.92245.02892-2.92245.02892a2.54286,2.54286,0,0,0-.23864-.22924c-.11323-.08533-1.97434-1.95494-2.24272-2.21345-.268-.25745-3.11917-3.009-3.27-3.195-.1161-.14425-.4995-.40277-.72775-.65093"/></g></g><g id="g66335"><g id="g66337"><path id="path66339" class="cls-1" d="M25.96647,6.631c-.28593-.37206-.92016-1.06656-1.46946-1.68964-.54859-.622-1.17851-1.38506-1.33653-1.544-.15551-.16139-.55468-.61665-.55468-.61665a7.13828,7.13828,0,0,1,1.52536-.271c.6955-.06678,1.4967-.08856,1.90017-.11355.39272-.02535.72273-.02535.97284-.02714.25261-.00071.48516-.00964.48516-.00964-.21786.82233-1.52286,4.27159-1.52286,4.27159"/></g></g><g id="g66341"><g id="g66343"><path id="path66345" class="cls-1" d="M29.7764,10.9033c.14333-.23674.36011-.54953.48087-.74842.11932-.2,2.21369-3.64886,2.39428-3.92274.1806-.27494.91945-1.3972,1.05454-1.61644.13473-.22174.42891-.787.42891-.787a3.62376,3.62376,0,0,1,1.16382.3792,3.44783,3.44783,0,0,1,.68439.41634c.11215.06606.20925.13212.20925.13212-.37731.53917-.51311.7327-.57617.847-.1333.25173-.96746,1.223-1.19321,1.50754-.22538.286-.48623.74234-.74888,1.03263-.26229.29066-1.53182,2.10063-1.73283,2.37771a4.6264,4.6264,0,0,0-.37481.59916c-.09352.19746-.06736.26209-.21355.21674-.17128-.05249-.62563-.20246-.85424-.25923-.229-.05606-.72237-.1746-.72237-.1746"/></g></g><g id="g66347"><g id="g66349"><path id="path66351" class="cls-1" d="M33.70881,12.12721c.32106-.51881,1.19679-1.88281,1.53934-2.35628.34148-.4724,1.49133-2.00957,1.754-2.33165.26158-.32136,1.114-1.43648,1.25591-1.6018.14584-.16425.06414.07391.04766.416-.01541.31672-.23,3.34429-.22753,3.62423a1.01426,1.01426,0,0,1-.15265.54774,1.48538,1.48538,0,0,1-.56041.31458c-.25046.07356-3.16826,1.2908-3.35458,1.33971a1.29872,1.29872,0,0,1-.30171.04749"/></g></g><g id="g66353"><g id="g66355"><path id="path66357" class="cls-1" d="M37.9936,16.02043c-.25083-.2171-.70948-.65415-1.06206-.96766-.34936-.31422-.97391-.82089-1.2405-1.04763a6.38093,6.38093,0,0,0-.72058-.58309,5.09933,5.09933,0,0,1,1.01655-.23281c.24151-.05713,1.50243-.30386,1.63286-.35564a2.24924,2.24924,0,0,1,.36047-.1214c.17163-.03035.14368-.09141.1272.22174-.01684.31386-.08349,2.69871-.07919,2.823.005.12212.04336.33171-.03475.26352"/></g></g><g id="g66359"><g id="g66361"><path id="path66363" class="cls-1" d="M39.85693,17.1795c-.11932.14961-.15981.1771-.1548.1189a7.86047,7.86047,0,0,1,.01541-.81268c.00967-.16354.05948-.64308.05948-.78876s.06271-1.00015.0688-1.284c.0043-.28672.10463-1.42077.09925-1.54288a9.1394,9.1394,0,0,1,1.32578-.25388c.34041-.05284,2.51684-.49382,2.73075-.53131.21356-.03642.36011-.0782.44288-.0957.08278-.01714-.02329.07-.19886.20424-.17594.13426-.50523.46383-.74638.62451-.24079.1614-1.75362,1.99744-2.1062,2.42556-.354.42741-1.44188,1.77427-1.53611,1.936"/></g></g><g id="g66365"><g id="g66367"><path id="path66369" class="cls-1" d="M40.80554,21.22546c-.08958-.30136-.239-1.08191-.27877-1.27116a3.48768,3.48768,0,0,0-.13151-.60666c.158-.14032.16806-.20317.28953-.31064.12075-.10712,1.54793-1.685,1.80951-1.92067.25978-.23673,1.34477-1.32186,1.4752-1.4754.1315-.156.31639-.497.46366-.6545.14942-.15782,1.04307-1.22081,1.17565-1.32651.13472-.10569.2974-.23066.2974-.23066a2.768,2.768,0,0,1,.4178.5381c.17164.27351.34255.46633.39773.57238a3.55,3.55,0,0,0,.24259.41241,8.034,8.034,0,0,1-.75247.60023,3.27268,3.27268,0,0,0-.40347.38992,2.20374,2.20374,0,0,1-.34614.40563c-.18023.15889-3.78241,4.067-3.90424,4.18625-.12434.12033-.23112.24887-.30636.33314-.076.08427-.32464.26173-.44611.35814"/></g></g><g id="g66371"><g id="g66373"><path id="path66375" class="cls-1" d="M43.71408,10.68674a4.22615,4.22615,0,0,0-.49412.07891c-.12147.02749-3.36677.45276-3.36677.45276s.03225-.44169.04264-.64272c.0104-.20067.18024-2.68764.22933-2.90617a5.32777,5.32777,0,0,0,.08277-.592c.01612-.1164-.00215-.20174.05375-.24994.0412-.03392.091.0432.13688.09676.06342.07213.04264.02321.17342.16711.13079.14461.51025.44312.67758.657.16841.216,1.56765,1.75856,1.74968,1.96851.18023.20817.32607.42456.4676.602a3.45675,3.45675,0,0,1,.24724.36778"/></g></g><g id="g66377"><g id="g66379"><path id="path66381" class="cls-1" d="M42.391,24.31c-.0903.13461-.15443.19246.014.28208.16805.08891,4.12962,1.53,4.61729,1.68429.48624.15425,1.64576.60415,1.8518.687a3.45746,3.45746,0,0,1,.38412.18675c.02293.29494.04514.52989.04264.908a3.61494,3.61494,0,0,1-.072.86517c-.41636-.14318-1.16883-.46347-1.52285-.60773-.35474-.14568-1.35517-.5181-1.80557-.67985-.45-.16-1.25448-.4649-1.65472-.61773-.40418-.15175-2.70925-1.03049-2.90274-1.0812.05016-.29886.05948-.83482.09818-1.07155a4.17438,4.17438,0,0,0-.05017-.90945c-.02651-.23174-.02795-.58131-.0412-.68771-.02294-.16.0498-.19532.18381-.30351.13186-.10712.7471-.67057,1.12548-.98122.37946-.30994,5.09387-4.36979,5.22573-4.47762.13258-.10712.38806-.33814.38806-.33814s.43966,1.08584.52995,1.4172a3.06734,3.06734,0,0,1,.10176.63736,12.40783,12.40783,0,0,0-1.43936,1.00264c-.42354.34279-.92088.67379-1.11868.83554-.19743.16247-3.35888,2.56374-3.49217,2.66908A2.844,2.844,0,0,0,42.391,24.31"/></g></g><g id="g66383"><g id="g66385"><path id="path66387" class="cls-1" d="M49.45628,25.26232c-.23219-.1264-.722-.251-1.0126-.36421-.291-.11355-2.24093-.773-2.43586-.83482A2.5828,2.5828,0,0,1,45.705,23.978c-.05124-.0325.19457-.13676.28415-.22817.08743-.09141,2.98516-2.30272,3.127-2.41806.14189-.11319.277-.29243.27268-.0682-.00466.21889,0,.517.0043.60238.02365.42848.10678,1.34792.10678,1.87638,0,.27137,0,.58559-.009.787-.00824.201-.0215.562-.03476.73306"/></g></g><g id="g66389"><g id="g66391"><path id="path66393" class="cls-1" d="M48.77326,32.00756c-.072.1264-.17593.306-.253.47133a4.37444,4.37444,0,0,1-.28343.49525,1.76036,1.76036,0,0,1-.33718.48919c-.11215-.05856-2.23806-1.27616-2.524-1.42006-.28558-.14426-4.13142-2.322-4.22458-2.39485-.095-.07355-.095-.171-.09961-.33386-.004-.16318-.00968-.75662-.004-.94265.0061-.185.00072-.48633.00072-.48633.41888.21638.947.4674,1.23907.6213.29239.15389,2.5627,1.3365,2.97333,1.56038.40992.22174,1.42074.69878,1.69019.8991.26695.19852.61452.39384.84993.547a5.13543,5.13543,0,0,0,.6396.32208c.14656.07034.33288.1721.33288.1721"/></g></g><g id="g66395"><g id="g66397"><path id="path66399" class="cls-1" d="M46.35074,36.03781c-.34291.145-4.81545.58523-5.08778.59666-.27088.01107-.64282.03928-.64282.03928-.01863-.45955-.08528-1.038-.10678-1.439-.02257-.40313-.0774-1.14262-.12147-1.45862-.04551-.31565-.12649-1.19046-.167-1.48a2.11284,2.11284,0,0,1,.00287-.6013c.01326-.13462.07346-.09.16554-.00643.07059.06963,1.18317.8566,1.72352,1.28008.53819.42277,3.51475,2.49483,3.71935,2.68336a4.387,4.387,0,0,0,.51455.386"/></g></g><g id="g66401"><g id="g66403"><path id="path66405" class="cls-1" d="M38.7739,37.592c-.80443.1-3.39292.30708-3.5126.286-.11861-.02285-.15981-.0757-.0559-.145.10534-.06784.83775-.58737,1.03124-.72627a10.38238,10.38238,0,0,0,.971-.89446c.28558-.29743.83094-1.01692.99182-1.21617a3.16387,3.16387,0,0,1,.45578-.50346c.0104.17925.02294.41491.04049.61844A25.58582,25.58582,0,0,1,38.7739,37.592"/></g></g><g id="g66407"><g id="g66409"><path id="path66411" class="cls-1" d="M40.49484,44.06518l-.08671.02571-.02007-.0757c-.06521-.19-.1616-4.88039-.1831-5.03072.63387-.04713,5.24543-.52524,5.512-.602.01613.1-.02794.10247-.0412.18174-.01326.07963-.85531,1.34615-.90117,1.4197-.04479.07391-1.20324,1.43648-1.52644,1.80319-.32177.36956-2.60534,2.11526-2.75333,2.27809"/></g></g><g id="g66413"><g id="g66415"><path id="path66417" class="cls-1" d="M38.63778,44.29916c.02938.17675.20173.69057.10964.85482a.43331.43331,0,0,1-.4246-.14461c-.12-.166-4.90324-4.70757-5.09028-4.95a4.72475,4.72475,0,0,0-.37015-.41955c.38018-.03392,4.06119-.03392,4.32456.00321a5.96736,5.96736,0,0,0,.84921-.00678c.13867.29279.54142,4.2873.60162,4.66293"/></g></g><g id="g66419"><g id="g66421"><path id="path66423" class="cls-1" d="M35.23622,47.23068a8.03108,8.03108,0,0,0-.46761-.752c-.1487-.18639-1.20108-1.38649-1.616-1.82818-.4135-.44312-3.42553-3.86561-3.5366-3.94059-.10893-.07534-.04623-.06356.09208-.10712.13616-.04107.4092-.10962.63817-.16068a2.835,2.835,0,0,0,.421-.13176c.38126.39563.535.56238,1.01441,1.0562.47978.49526,3.88131,4.14162,4.23927,4.54082.35724.401.49985.56453.57331.66451a1.12691,1.12691,0,0,1-.47477.2528c-.27519.08462-.54823.30636-.88326.406"/></g></g><g id="g66425"><g id="g66427"><path id="path66429" class="cls-1" d="M32.73042,48.23319c-.15551.095-.60305.19138-.79726.27315-.19205.08034-1.07639.24924-1.07639.24924a19.5537,19.5537,0,0,0-1.32255-1.72964c-.40634-.53167-1.56729-2.01635-1.82707-2.35985-.25978-.34314-2.76766-2.93474-2.76766-2.93474a5.00479,5.00479,0,0,0-.58692.84054c-.21464.44241-3.227,6.38971-3.255,6.5079-.22825-.10355-.76681-.18853-.98932-.28315a4.39877,4.39877,0,0,1-.62061-.28316,4.72275,4.72275,0,0,1,.58012-1.16189c.224-.32708.18812-.14747.29238-.37349.10392-.22567.63136-1.1844.77612-1.46862.1462-.28458,2.04529-4.032,2.1062-4.15805a2.85014,2.85014,0,0,1,.215-.39777c.58835.08284,2.09831.11712,2.46308.12105a14.25358,14.25358,0,0,1,2.03489,1.96887c.71378.842,1.20718,1.39434,1.74824,1.95637.54071.56059,2.8447,3.09755,3.02672,3.23324"/></g></g><g id="g66431"><g id="g66433"><path id="path66435" class="cls-1" d="M23.66606,49.5293a2.39507,2.39507,0,0,1-.53425-.12247l-.08636-.02107.01684-.05463c.215-.36135.26731-.62165.483-1.023.215-.40348.74709-1.58894.86032-1.82175.11359-.23281.33216-.76448.46689-.98479a5.91912,5.91912,0,0,1,.38054-.66093c.23613.29243.51024.59808.78328.9023.27591.306,1.03626,1.018,1.4125,1.40542a9.54475,9.54475,0,0,1,.81732.94908c.24617.32565.5124.68664.63208.85161.1186.16675.07775.20781-.31282.2878-.41314.08069-.47764.08641-1.01726.20745a6.456,6.456,0,0,1-1.39207.17925c-.36728-.00393-.38842.02392-.7858.01535a5.38332,5.38332,0,0,0-.54572-.00071,11.061,11.061,0,0,1-1.17851-.10891"/></g></g><g id="g66437"><g id="g66439"><path id="path66441" class="cls-1" d="M26.042,35.66889c-.05268-.1364-.22073-.497-.301-.73163a8.28274,8.28274,0,0,1-.25083-1.09977c-.034-.27387-.14655-.998-.1401-1.10619a5.47494,5.47494,0,0,1,.10105-.73949,2.644,2.644,0,0,1,.12863-.47347c.03978-.08319.14082-.43919.2003-.59094.05841-.15283.07167-.27959.12506-.4267.04335-.12247.06127-.21888.12147-.37135a1.72092,1.72092,0,0,1,.35187.58416,3.7679,3.7679,0,0,1,.22681.8159,5.54725,5.54725,0,0,1,.0602,1.31044c-.05052.38206-.07489.832-.148,1.18832a9.78209,9.78209,0,0,1-.273,1.149c-.08672.19853-.08672.37885-.20245.49168"/></g></g><g id="g66443"><g id="g66445"><path id="path66447" class="cls-1" d="M22.6863,33.439a2.28961,2.28961,0,0,1-.01469-.45669c.014-.1264.07489-.56238.13545-.85482a6.09492,6.09492,0,0,1,.33753-.9448,4.27793,4.27793,0,0,1,.57833-.86588c.18382-.20675.41278-.47205.463-.51347.07525-.085.1-.03749.11753.14533a1.81772,1.81772,0,0,1,.02651.50311,6.029,6.029,0,0,1-.2501,1.08727,2.16474,2.16474,0,0,1-.47549.86267c-.26587.27816-.559.66807-.65537.7884a.68543.68543,0,0,1-.26265.24888"/></g></g><g id="g66449"><g id="g66451"><path id="path66453" class="cls-1" d="M20.70222,31.37605c-.17414.09891-.29418.12926-.19564.00322.09746-.12676.37086-.69593.47334-.88731a5.104,5.104,0,0,1,1.6196-1.78391c.3662-.21281.39093-.216.53425-.24138.09926-.01607.08743.02857-.0326.23638-.12.20817-.167.4042-.38126.76555a4.51056,4.51056,0,0,1-.74924,1.01372,3.92174,3.92174,0,0,1-.89866.68664c-.22109.13925-.26516.13675-.36979.20709"/></g></g><g id="g66455"><g id="g66457"><path id="path66459" class="cls-1" d="M20.90941,28.47278c.17091-.12426.34577-.24424.52457-.35814.06522-.04214.13043-.08106.19672-.12176.07131-.04321.12219-.09855.18991-.14461.03727-.02393.06414-.04535.09639-.06856a.77519.77519,0,0,0,.12828-.09212c.04622-.05178.02042-.0832-.03655-.09713a.7683.7683,0,0,0-.40168-.03142c-.273.05-.41278.03607-.60018.07034-.1616.02964-.17629.06392-.3576.10355a2.96272,2.96272,0,0,0-.57188.22924,4.886,4.886,0,0,0-.89938.44562,5.167,5.167,0,0,0-.76215.622,5.15233,5.15233,0,0,0,1.247-.05713,3.38573,3.38573,0,0,0,1.2466-.49989"/></g></g><g id="g66461"><g id="g66463"><path id="path66465" class="cls-1" d="M22.14357,25.76132c-.38269.10533-.50846.165-.74459.24566a2.668,2.668,0,0,0-.53605.166,5.0649,5.0649,0,0,1-1.602.28744,13.388,13.388,0,0,1-1.44259-.02178c-.49842-.04035-.94059-.15461-1.14161-.16782a2.56129,2.56129,0,0,1-.40418-.10141c-.05447-.01035-.06916-.04035.11251-.14175a3.609,3.609,0,0,1,.47119-.161c.24079-.11283.41744-.16461.58908-.23031.24939-.09605.65357-.2071,1.01261-.30386a3.5598,3.5598,0,0,1,1.06456-.11176c.28845.01892.63208.03677.87358.03427a4.35209,4.35209,0,0,1,.8245.12534,2.28909,2.28909,0,0,1,.69728.216c.13366.09891.11252.08177.22575.165"/></g></g><g id="g66467"><g id="g66469"><path id="path66471" class="cls-1" d="M26.23589,20.4196c-.124.2-.124.23673-.24652.05213a8.26526,8.26526,0,0,1-.31246-1.09655,8.509,8.509,0,0,1-.12362-1.81176,12.00645,12.00645,0,0,1,.09926-1.26295,2.29911,2.29911,0,0,1,.39666-1.18368,2.73808,2.73808,0,0,1,.42425,1.14762,8.06269,8.06269,0,0,1,.14512,1.44576c.00716.19139.00143.28923-.00215.59452-.00144.19389-.06844.60273-.08564.813-.01756.21067-.07274.45419-.09209.66772a1.193,1.193,0,0,1-.1057.43169,1.73667,1.73667,0,0,1-.09711.20246"/></g></g><g id="g66473"><g id="g66475"><path id="path66477" class="cls-1" d="M27.78325,21.17072a2.98758,2.98758,0,0,0,.8073-1.00407,10.03473,10.03473,0,0,0,.44252-1.13583,12.28208,12.28208,0,0,0,.27519-1.36614c-.32249.25459-.73921.798-.93772.983a2.57364,2.57364,0,0,0-.4909.87518c-.08277.2403-.19672.7684-.263.993a.76232.76232,0,0,0-.03332.35707.74436.74436,0,0,0,.05088.2703c.028.04391.06271.05855.14906.02749"/></g></g><g id="g66479"><g id="g66481"><path id="path66483" class="cls-1" d="M29.03314,22.39532a3.33089,3.33089,0,0,1,1.051-1.54c.58227-.48561.52637-.45883.83775-.5938s.31926-.16425.52565-.25245c.2046-.08891.0602.08248-.029.25066a4.88717,4.88717,0,0,1-.43643.79412,3.18747,3.18747,0,0,1-.59876.60951,4.99181,4.99181,0,0,1-.92553.63523,1.1022,1.1022,0,0,1-.42461.09676"/></g></g><g id="g66485"><g id="g66487"><path id="path66489" class="cls-1" d="M30.34048,23.94145a2.55943,2.55943,0,0,1-.29669.08034c-.07131.01072-.16877.04392-.157-.05641a.65913.65913,0,0,1,.06844-.20282,2.57718,2.57718,0,0,1,.16519-.33921,1.06039,1.06039,0,0,1,.25727-.24173,3.14982,3.14982,0,0,1,.69944-.44134c.29884-.12319.40777-.23138.63888-.34064a2.9417,2.9417,0,0,1,.65823-.24423,3.75957,3.75957,0,0,1,.61022-.10177,4.377,4.377,0,0,1-.94166,1.03121,5.0229,5.0229,0,0,1-1.06063.66022c-.2415.07355-.488.15354-.64174.19638"/></g></g><g id="g66491"><g id="g66493"><path id="path66495" class="cls-1" d="M36.1992,25.6818a7.64339,7.64339,0,0,1-1.65257.39848c-.583.05713-1.066.07034-1.77368.07606a9.69655,9.69655,0,0,1-1.534-.09927c-.22753-.03892-.39164-.09712-.49878-.11711a1.12828,1.12828,0,0,1-.43607-.176c-.06235-.07034-.23542-.17818.00573-.2528.24079-.07284,1.24193-.44027,1.5981-.53667a3.56063,3.56063,0,0,1,.99649-.11784c.41565.02357.58943.02928.89651.05606a4.82768,4.82768,0,0,1,.85352.13033c.268.0707.73706.18032.99863.27066a1.06535,1.06535,0,0,1,.41924.23209c.06163.05892.12684.136.12684.136"/></g></g><g id="g66497"><g id="g66499"><path id="path66501" class="cls-1" d="M34.31172,28.69455a5.87464,5.87464,0,0,1-1.30966-.06534,5.36427,5.36427,0,0,1-1.18353-.35814,8.33859,8.33859,0,0,1-1.05131-.54167.5187.5187,0,0,1-.201-.25566,2.52268,2.52268,0,0,1,.67292-.03178,2.743,2.743,0,0,1,.97606.12069c.38376.14139.79583.36813,1.07209.48918a6.42562,6.42562,0,0,1,.82306.42348.85569.85569,0,0,1,.20138.21924"/></g></g><g id="g66503"><g id="g66505"><path id="path66507" class="cls-1" d="M32.12156,31.722a2.26641,2.26641,0,0,1-.53425-.2903,7.108,7.108,0,0,0-.68833-.41634,2.53692,2.53692,0,0,1-.65071-.492c-.13043-.1639-.48875-.79555-.717-1.178-.22968-.3817-.27053-.50918-.081-.37206.18991.13854.38412.21352.62348.36671a6.2424,6.2424,0,0,1,1.066.88695,5.82136,5.82136,0,0,1,.77755,1.02264,1.20671,1.20671,0,0,1,.20424.4724"/></g></g><g id="g66509"><g id="g66511"><path id="path66513" class="cls-1" d="M29.29737,33.63772a6.7597,6.7597,0,0,1-1.25519-1.93709,5.12846,5.12846,0,0,1-.382-1.47005c-.01111-.09426-.01182-.3817-.01182-.3817-.005-.146.01684-.09141.15622.04427a7.38948,7.38948,0,0,1,.70446.84054,3.25825,3.25825,0,0,0,.30027.40313,2.168,2.168,0,0,1,.463,1.10262,3.87879,3.87879,0,0,1,.02508,1.39828"/></g></g><g id="g66515"><g id="g66517"><path id="path66519" class="cls-1" d="M22.42631,24.01537a6.73476,6.73476,0,0,1-1.2946-.1921,3.92681,3.92681,0,0,1-1.1907-.4774c-.30529-.21389-.588-.35636-.82126-.53632a1.9542,1.9542,0,0,1-.30458-.3235,1.35048,1.35048,0,0,1-.1-.151.85647.85647,0,0,1,.311-.00357.805.805,0,0,1,.22467.06534c.06987.02535.79833.151,1.08356.246a2.3227,2.3227,0,0,1,.96925.43205,11.24022,11.24022,0,0,0,.97176.69486c.18274.10961.44288.23744.15085.24566"/></g></g><g id="g66521"><g id="g66523"><path id="path66525" class="cls-1" d="M23.32279,22.73289c-.23363-.10748-.55647-.30565-.73921-.40456a5.49031,5.49031,0,0,1-.679-.39563,4.84314,4.84314,0,0,1-.69872-.57988,2.56923,2.56923,0,0,1-.47334-.63807c-.19385-.346-.37373-.72271-.44073-.847-.06593-.125-.1419-.2503.20961-.11783.35187.1339.44289.20746.69479.30993a3.05119,3.05119,0,0,1,.57223.36707,2.03033,2.03033,0,0,1,.34148.27387c.06557.07463.1444.15961.34829.36778a3.62389,3.62389,0,0,1,.84419,1.49111c.00574.02857.02043.17318.02043.17318"/></g></g><g id="g66527"><g id="g66529"><path id="path66531" class="cls-1" d="M24.16961,21.36875a6.18315,6.18315,0,0,1-.99255-1.42826,8.96637,8.96637,0,0,1-.44539-1.17476,8.38813,8.38813,0,0,1-.20388-.85946.40351.40351,0,0,1-.00287-.211,7.30164,7.30164,0,0,1,.64964.80447,5.03776,5.03776,0,0,1,.52529.86982c.06844.16532.18848.30886.24223.47882a3.89373,3.89373,0,0,1,.14512.46955c.03153.186.07918.41027.09459.62308a2.73081,2.73081,0,0,1-.01218.42776"/></g></g></svg>