<svg id="Слой_1" data-name="Слой 1" xmlns="http://www.w3.org/2000/svg" viewBox="0 0 52 52"><defs><style>.cls-1{fill:#f4ca35;}</style></defs><title>FR</title><path id="path8582" class="cls-1" d="M33.15252,6.59438a42.94608,42.94608,0,0,0,8.71034,1.97869l2.08955.02053.06449-.058a13.40208,13.40208,0,0,0,3.3876-.78223c.13075-.03073.44456-.1096.57781.06866a.59946.59946,0,0,1-.297.65689,18.80375,18.80375,0,0,1-4.93486,2.59475v-.03418a14.84663,14.84663,0,0,0-1.70573.529,18.79388,18.79388,0,0,1-6.622.8561c-4.24495-.21786-7.85279-1.73469-11.60067-1.55529a10.28562,10.28562,0,0,0-9.13917,3.96667,11.18608,11.18608,0,0,0-2.05392,4.66825c.111,1.52486,2.25177,2.11059,3.05379,3.37176a19.62705,19.62705,0,0,1,1.0355,2.39419,45.32688,45.32688,0,0,0,2.86251,4.68939l-.0273.03074a7.08857,7.08857,0,0,0,2.86521,2.46285,12.67147,12.67147,0,0,1,3.7635,4.02334l-.04271.02385A39.0624,39.0624,0,0,1,27.29624,41.034c.32058.94184.67408,1.77032.9484,2.687.09387.08564.09387.224.14888.34434.253.72555.46832,1.49861.77692,2.17133-.13315.10138.10408.13992.07511.23859.01709.40757.41435,1.01841-.11606,1.29138A8.71617,8.71617,0,0,1,27.536,45.358a47.02107,47.02107,0,0,0-3.07879-4.63824l.03417-.03074c-.68992-.86662-1.45235-1.84284-2.24124-2.73987-3.32551-3.68162-8.213-5.89254-11.78528-9.39756l-.03418.03074a7.01123,7.01123,0,0,1-.74659-.9458l.02386-.03417c-.43529-.60939-.69388-1.30462-1.11468-1.92858l.02385-.03074a30.22426,30.22426,0,0,1-2.88365-5.126,16.528,16.528,0,0,1-.46967-2.30844l-.08335-.28881c.04605-.80337-1.947-1.269-.85078-2.80978.68857-.74264,3.35322-1.65812,4.25964-3.05243a.7496.7496,0,0,0-.111-.64512c0-.14888-.15461-.30589-.26255-.4604-.50395-.62657-1.87055-.13179-1.84815-1.05665.13992-.00688.00688-.1294.099-.18233a2.14669,2.14669,0,0,1,.02052-1.14364,6.20615,6.20615,0,0,0,.49072-2.3969c.05563-.28745.34308-.459.63313-.57115a13.8479,13.8479,0,0,1,1.61988-.29286l.07.05668c1.28618-.10554,2.83083-.01365,3.68432.99726a3.58612,3.58612,0,0,1-.12669,2.447c-.06449.44456-.55145.80734-.43789,1.27565a.74257.74257,0,0,0,.74931.06626,21.64647,21.64647,0,0,0,5.05092-4.45862,6.07893,6.07893,0,0,1,4.98779-1.389c3.57607.27589,6.59849,1.47475,9.93192,2.28865Z"/><path id="path8588" class="cls-1" d="M23.93479,13.0467c.50395.67013-.17034,1.26107-.3709,1.85076-2.09872,3.15141-2.83083,6.721-4.22379,10.09674a.47378.47378,0,0,1-.4604.10554,1.07622,1.07622,0,0,1-.32839-1.08436A29.03131,29.03131,0,0,1,21.35578,13.651a1.93388,1.93388,0,0,1,1.78616-.99331,1.50105,1.50105,0,0,1,.79275.38924Z"/><path id="path8594" class="cls-1" d="M29.46549,14.00261c.268,1.203-.5949,2.18977-.97747,3.26622C26.446,21.3451,23.99491,25.334,22.784,29.69121a.63385.63385,0,0,1-.29943.38663.291.291,0,0,1-.36278-.16076,10.68767,10.68767,0,0,1,.50655-5.18032,54.57042,54.57042,0,0,1,4.53917-10.8025c.22837-.17409.2639-.32162.54874-.40247a1.86666,1.86666,0,0,1,1.74918.47092Z"/><path id="path8600" class="cls-1" d="M35.37157,14.20744c.5501.41434.2663,1.19782.05022,1.68322-2.39294,5.2991-6.26875,9.86837-7.87259,15.426-.4432,1.178-.73076,2.39554-1.09885,3.58263-.0649.21369-.37725.22025-.60021.16764a4.48665,4.48665,0,0,1-.15023-1.68854A33.28672,33.28672,0,0,1,29.45424,20.687c.992-1.94171,1.951-3.68849,2.99179-5.58384a2.35613,2.35613,0,0,1,1.50122-1.19647,2.74218,2.74218,0,0,1,1.42463.30079Z"/><path id="path8606" class="cls-1" d="M41.92641,14.48061c.38362.64241.01365,1.34952-.16075,1.96422-1.52226,4.25827-4.36882,7.78277-6.65518,11.66244a58.64352,58.64352,0,0,0-4.542,10.18655c-.45112,1.03946-.61344,2.19374-1.16083,3.18173-.0447.10648-.18472.04272-.28068.07-.33631-.2837-.29287-.68856-.37215-1.04738.25848-4.33194,1.92858-8.24609,3.49689-12.15576,1.96286-4.35965,4.59448-8.52291,6.38346-13.03041a2.53282,2.53282,0,0,1,1.50111-1.4787,1.92264,1.92264,0,0,1,1.79011.64772Z"/></svg>