<svg id="Слой_1" data-name="Слой 1" xmlns="http://www.w3.org/2000/svg" viewBox="0 0 52 52"><defs><style>.cls-1{fill:#ff8200;}.cls-2{fill:#006496;}</style></defs><title>FZ</title><g id="C1.0_Navigation" data-name="C1.0 Navigation"><g id="C2.5.1_Interactions_Desktop-Phablet" data-name="C2.5.1 Interactions Desktop-Phablet"><g id="a.-Logo"><path id="Fill-5" class="cls-1" d="M13.73883,23.20105v4.37734c0,.403-.17489,1.00542-1.78551,1.00542s-1.78594-.60247-1.78594-1.00542V23.20105H9.25249v4.42723c0,1.08392.89,1.55627,2.54183,1.55627a6.80146,6.80146,0,0,0,1.93463-.27543v1.97874h.90071l-.00473-7.68681Zm-8.2993-2.08891c-.96431,0-2.39487.20256-2.39487,1.19583v.89308H2v.51225H3.04466v5.332h.87579v-5.332H5.299l.00043-.51225h-1.379v-.78291c0-.76252.8818-.884,1.51908-.884,1.05455,0,1.57924.08024,1.57924,1.24528l-.00043,6.26587H7.8937V21.25311H7.01877c-.48774,0-.72323-.141-1.57924-.141Zm43.59831,2.648A.97141.97141,0,1,0,50,24.73086a.96545.96545,0,0,0-.96216-.97071Z"/><path id="Fill-6" class="cls-2" d="M42.04877,24.52388a16.53532,16.53532,0,0,1,1.67465-.11754c-.21143-.82282-1.17745-1.14422-2.77131-1.14422a8.06732,8.06732,0,0,0-2.60543.47972v1.14291a4.35317,4.35317,0,0,1,2.62906-.69182c.58229,0,.90372.105,1.073.33095ZM20.80568,27.3957c-.04942.63327-.72537.97592-1.382.97592-1.42239,0-1.62178-.62415-1.62178-2.04987,0-1.424.27889-2.04684,1.55174-2.04684.82507,0,1.40262.34049,1.452.97332.03954.51182.06016.77337.06016,1.07352,0,.301-.02062.59293-.06016,1.074Zm.06016-3.78442a4.28107,4.28107,0,0,0-1.761-.35133c-2.21782,0-2.89421.84407-2.89421,3.0618,0,2.20862.99439,3.06267,3.21306,3.06267a28.39935,28.39935,0,0,0,3.03344-.51052V21.453H20.86584v2.15831ZM46.692,23.39571l-1.59128.00044v.96334H46.692v-.96378Zm-4.45755,3.98568c0,.83452-.77351,1.04532-1.30336,1.04532-.90372,0-1.36653-.27456-1.36653-.86532,0-.99761,1.26769-1.51073,2.66989-1.59618v1.41618Zm4.79273-2.452-.462.00087c-6.45148,0-8.5421,1.20928-8.5421,2.59205,0,1.28432,1.09408,1.84775,2.865,1.84775,1.14264,0,2.299-.49837,2.90409-.49837V25.75788c.7546-.09629,1.31884-.1119,1.31884-.1119v3.60007h1.59v-2.71a3.8274,3.8274,0,0,1,.32616-1.60659Zm-13.0525,3.44219c-.657,0-1.33258-.34265-1.382-.97592-.03954-.481-.05974-.77293-.05974-1.07395,0-.30015.0202-.5617.05974-1.07395.04942-.6324.6274-.97289,1.45247-.97289,1.27242,0,1.55131.62286,1.55131,2.04684,0,1.42572-.199,2.04987-1.62178,2.04987ZM34.29307,23.26a4.27559,4.27559,0,0,0-1.76016.35133V21.453H30.94164V28.8739a28.32873,28.32873,0,0,0,3.033.51052c2.21824,0,3.21306-.854,3.21306-3.06267,0-2.21773-.67682-3.0618-2.89464-3.0618ZM28.03841,27.436c0,.403-.13021,1.00411-1.32356,1.00411S25.393,27.839,25.393,27.436V23.40092H23.80045v4.42722c.00043,1.08393,1.10353,1.55628,2.75626,1.55628a12.099,12.099,0,0,0,2.87315-.50228l.199-.02082v-5.4604H28.03841V27.436Z"/></g></g></g></svg>