<svg id="Слой_1" data-name="Слой 1" xmlns="http://www.w3.org/2000/svg" viewBox="0 0 52 52"><defs><style>.cls-1{fill:#f79720;}.cls-2{fill:#ffe500;}</style></defs><title>G4</title><g id="_Группа_" data-name="&lt;Группа&gt;"><polygon class="cls-1" points="13.528 35.384 4.939 29.869 14.419 31.411 8.213 23.608 16.706 28.232 12.933 18.792 19.789 25.054 19.139 16.313 23.859 24.259 26.045 15.216 27.681 24.259 32.599 16.265 31.9 25.149 38.956 18.745 35.182 27.581 43.677 23.512 37.414 31.26 46.951 29.965 38.114 35.384 49 36.784 3 36.784 13.528 35.384"/><polygon class="cls-2" points="19.555 36.06 15.117 33.211 20.016 34.007 16.809 29.976 21.198 32.365 19.248 27.487 22.791 30.723 22.455 26.206 24.894 30.312 26.023 25.639 26.869 30.312 29.41 26.182 29.049 30.772 32.694 27.463 30.744 32.029 35.134 29.926 31.898 33.929 36.826 33.26 32.259 36.06 37.885 36.784 14.115 36.784 19.555 36.06"/></g></svg>