<svg id="Слой_1" data-name="Слой 1" xmlns="http://www.w3.org/2000/svg" viewBox="0 0 52 52"><defs><style>.cls-1{fill:#358e9d;}.cls-2{fill:#202d5c;}</style></defs><title>GA</title><path id="path6658" class="cls-1" d="M21.3438,28.0702a15.84352,15.84352,0,0,0-7.47533-1.89344H9.31726l-.24319-.42848h5.35027a34.64558,34.64558,0,0,1,7.41743.63693,18.91012,18.91012,0,0,1,5.96405,2.8778c.44007.28373,6.39833,4.55121,6.39833,4.55121a3.46954,3.46954,0,0,1-1.9803,1.02489,4.01967,4.01967,0,0,1-1.92818-.71221s-3.19048-2.29877-3.67687-2.6404A48.74551,48.74551,0,0,0,21.338,28.076Z"/><g id="g6660"><path id="path6662" class="cls-1" d="M21.10061,31.43439c2.25244,1.49391,3.57843,2.58828,4.0127,2.901.42849.31268,2.432,1.74289,2.432,1.74289a3.73339,3.73339,0,0,0,2.04978.718,3.71925,3.71925,0,0,0,1.91081-.99594s-4.78282-3.37577-5.2171-3.67687a13.55,13.55,0,0,0-4.82914-2.26981,27.6991,27.6991,0,0,0-6.01617-.61378H11.08911l.25477.44007s3.28313.00579,3.53211.00579a12.96785,12.96785,0,0,1,6.22462,1.7371Z"/></g><g id="g6664"><path id="path6666" class="cls-1" d="M21.836,24.54389a56.68616,56.68616,0,0,1,6.30568,4.09956c.5385.388,4.89863,3.50894,4.89863,3.50894a4.20323,4.20323,0,0,0,1.95134.68905,3.60074,3.60074,0,0,0,1.93977-1.00752s-6.96-5.00864-7.58535-5.44871a19.0219,19.0219,0,0,0-7.15686-3.451,42.54314,42.54314,0,0,0-8.77237-.70642H7.04745l.25477.44006H12.861c1.15228,0,5.59347.05791,8.96924,1.87608Z"/></g><g id="g6668"><path id="path6670" class="cls-2" d="M47.05871,24.4744c-.857-.15055-1.98609-.22-1.98609-.22l-1.54023.44006-.88013-.73537s1.83553.14476,2.34508.22c.44007,0,.29531-.22.06949-.66589a.85994.85994,0,0,0-.72958-.44006H39.71076a8.54187,8.54187,0,0,1-1.77763-.21424,2.06912,2.06912,0,0,1-1.33178-.938c-.37058.85118,1.10016,1.84133,1.10016,1.84133l4.58016,3.28312a1.10174,1.10174,0,0,0,1.10017.07528,11.00363,11.00363,0,0,1,1.83554-.73538,11.58957,11.58957,0,0,1,2.64039-.14475,2.71531,2.71531,0,0,1,1.10017.59061c.29531-2.06136-1.03068-2.19454-1.905-2.35667Z"/></g><g id="g6672"><path id="path6674" class="cls-2" d="M22.73927,17.67075a55.68678,55.68678,0,0,1,8.41916,5.29816c.67168.48639,7.24372,5.19394,7.24372,5.19394a4.129,4.129,0,0,0,1.98608.73537,3.28146,3.28146,0,0,0,1.89923-.96119h0s-9.2877-6.67627-9.95938-7.15687a25.64525,25.64525,0,0,0-9.47879-4.58595c-3.92006-1.03647-10.66-.99015-11.44171-.99015H3l.26057.44586h7.70694c1.94555,0,7.55639.16213,11.77755,2.02083Z"/></g><g id="g6676"><path id="path6678" class="cls-2" d="M22.25288,21.09863c-3.44525-1.72552-7.69536-1.93976-10.16783-1.93976H5.28139l-.25477-.44007h7.39427a53.29913,53.29913,0,0,1,10.10414.7817,24.58376,24.58376,0,0,1,8.3323,4.04166c.36479.25477,8.80132,6.30568,8.80132,6.30568A3.3531,3.3531,0,0,1,37.661,30.838a4.12553,4.12553,0,0,1-1.98029-.73538s-5.48925-3.93743-6.022-4.3138a60.32481,60.32481,0,0,0-7.40585-4.696Z"/></g></svg>