<svg id="Слой_1" data-name="Слой 1" xmlns="http://www.w3.org/2000/svg" viewBox="0 0 52 52"><defs><style>.cls-1{fill:#a29061;}</style></defs><title>GF</title><path id="path200" class="cls-1" d="M16.24832,30.45346a32.5996,32.5996,0,0,1-4.40211,1.0624c-.21713-5.82123-3.36684-9.34317-2.117-11.15,2.31221-3.34359,7.27265-7.08267,12.45153-10.213-1.021,1.361-1.211,2.66893-1.70863,3.01789a21.61387,21.61387,0,0,0-5.48777,5.52654,36.45259,36.45259,0,0,1,7.44713-6.11719c-.884,1.644-.49113,2.28118-1.19164,2.9119a30.81094,30.81094,0,0,0-5.13364,6.17277A16.55249,16.55249,0,0,1,19.23,18.59a6.255,6.255,0,0,0-.63072,2.44662,21.29408,21.29408,0,0,1-2.351,9.41684M13.72157,47.33682a2.312,2.312,0,0,0-3.51807-.30373,1.20428,1.20428,0,0,0,.52991,1.90508c-.77547-.769.20679-1.96583,1.19811-1.00812.55058.5312.84785,1.39715,1.82107.94221a.81709.81709,0,0,1-.031-1.53544m16.02258-8.30791a4.94614,4.94614,0,0,1-5.43995.58548c1.40361,1.43463,2.54614,2.19847,3.9407,2.17391,1.55483-.08272,4.39694-1.43592,5.28227-1.76679Zm-13.8435-7.81807a35.43,35.43,0,0,1-4.892,1.05852C8.90329,32.63,7.88613,33.1366,7.00984,34.367c-.906,1.27177-.959,1.88957-.86465,2.466.084.51311.43814.8.51052,1.35191A1.74927,1.74927,0,0,0,8.376,39.5433a.524.524,0,0,1-.12537-.89567,2.10285,2.10285,0,0,1,2.21656-.3593,13.20787,13.20787,0,0,1,3.56331,3.73908c1.24851,1.89732-.0181,2.30961-1.22008,1.88052-1.79006-.63718-3.18332-1.73835-3.9575-1.74869-.94608-.01164-1.51218.73023-.92928,1.88181-.11115-1.242,1.39456-1.22395,1.31184-.24944-.0853,1.00295-.63976,1.308.34121,2.47376-.18094-.875-.02843-1.73189,1.23688-1.728,1.26661.00388,2.92742.6682,4.08029,3.30869,2.1248-.08918,4.26123-1.23947,6.09781-1.84434-1.16968-.38515-2.4505-1.30667-4.24572-3.32161,3.49092,1.12056,7.009,3.487,11.23144,1.89862A82.01962,82.01962,0,0,1,40.425,40.75563c-1.45789-.09047-4.13069-.31794-5.23445-.37481-1.507.56222-2.95972,1.1309-4.69161,1.75645-1.59748.57772-3.72228,1.24334-5.78633-1.04172-2.34064-2.59009-6.23481-5.3456-5.49553-7.43938A5.17411,5.17411,0,0,0,22.60462,36.643a24.90882,24.90882,0,0,0,4.47061,1.09471c1.93868.28693,2.1933-.25073,2.78395-.86077,1.62462-1.675,3.45086-4.99535,4.65155-7.02579-2.10412.14087-6.72077.10727-8.53538-.844,2.435.11374,5.17241.212,6.68329.13441,1.35967-.07108,1.83917.09694,2.26309-.82975a18.159,18.159,0,0,0,.66562-1.7306,31.34453,31.34453,0,0,1-8.51212-.11891,47.16774,47.16774,0,0,1,6.42739-.3425c1.0792-.03231,1.73835-.04394,1.99943-.92927.26366-.88534.40453-1.42817.40453-1.42817-1.0779.39032-5.153.51181-8.25233.2236,1.71121-.25979,5.11037-.46141,6.37052-.57127,1.32606-.11374,1.68665-.17707,1.85984-1.00165.19516-.9422.30114-1.38552.30114-1.38552a52.3595,52.3595,0,0,1-8.04166.44073c1.24851-.28434,5.05221-.66174,6.33045-.9254,1.05465-.21584,1.423-.31794,1.53286-1.21491a5.47564,5.47564,0,0,1,.41229-1.58067c-2.26051.33733-7.15375,1.18906-7.809,1.41265,1.25239-1.04818,4.3181-1.40231,5.7217-1.70862,1.31055-.28693,1.591-.13959,1.94386-1.18906a8.36474,8.36474,0,0,1,.58289-1.401,42.0004,42.0004,0,0,0-7.11885,1.82108c.79745-.937,4.0777-1.85985,5.37016-2.05113,2.41948-.358,1.38164-.91894,2.66505-2.6728a18.41739,18.41739,0,0,0-6.8203,2.1235c.97452-1.32994,3.54909-2.10024,5.34819-2.47893,1.05206-.2223,1.59489-.11244,2.099-1.00553a11.37138,11.37138,0,0,1,1.48632-1.98521,24.1145,24.1145,0,0,0-7.18088,2.34322c1.17484-1.48891,3.90063-2.25275,5.418-2.57328,1.62462-.3425,1.98263-.36189,2.58233-1.00165a15.78115,15.78115,0,0,1,1.88311-1.72285,22.11534,22.11534,0,0,0-7.41095,1.91155c1.4049-1.50184,5.75273-2.43887,7.08784-2.49445,1.89344-.08013,1.29762-.76771,3.62017-2.07051-5.37533-.07884-11.87122.92152-15.06488,4.0428-1.20974,1.1826-5.83932,5.95047-8.454,9.25011a6.34049,6.34049,0,0,0-1.909,4.4202c-.3425,3.60854-1.30151,8.66851-5.7915,12.70614.12925-.1887.78452-1.29892,1.23171-2.21268M8.99893,35.61553c.83622.13571.34121,1.20328-.31536.67983a.94572.94572,0,0,0-.08013.27012.8878.8878,0,0,0,.63718.28693c-.442.47045-.83622.12795-1.27694.51052a1.51817,1.51817,0,0,0-.2572,1.50571,1.25889,1.25889,0,0,1-.46012-1.242.45644.45644,0,0,0-.48855-.0504L6.701,37.29831S8.0619,37.17682,7.85511,36.117c-.11632-.59324.51957-1.3868.71344-1.63625.08788-.11244.82717-1.13219,4.61665-1.73577-1.10246.40066-3.15618.69922-4.18627,2.87055"/></svg>