<svg id="Слой_1" data-name="Слой 1" xmlns="http://www.w3.org/2000/svg" viewBox="0 0 52 52"><defs><style>.cls-1{fill:#c40040;}</style></defs><title>GL</title><path class="cls-1" d="M17.37861,41.68709a1.487,1.487,0,0,0,1.50726-1.50726,1.56982,1.56982,0,0,0-1.50725-1.60177,1.6521,1.6521,0,0,0-1.60177,1.60177A1.5698,1.5698,0,0,0,17.37861,41.68709Z"/><path class="cls-1" d="M17.37861,16.1539a1.60178,1.60178,0,0,0,0,3.20355,1.60474,1.60474,0,0,0,0-3.20355Z"/><path class="cls-1" d="M11.72632,38.3897a1.79031,1.79031,0,1,0,1.78879,1.79013A1.77117,1.77117,0,0,0,11.72632,38.3897Z"/><path class="cls-1" d="M11.72632,36.12932a1.58876,1.58876,0,0,0,1.60177-1.60178,1.57094,1.57094,0,0,0-1.60177-1.5086,1.48809,1.48809,0,0,0-1.50725,1.5086A1.51223,1.51223,0,0,0,11.72632,36.12932Z"/><path class="cls-1" d="M34.1498,33.01895a1.48871,1.48871,0,0,0-1.50726,1.5086,1.513,1.513,0,0,0,1.50726,1.60177,1.58816,1.58816,0,0,0,1.60178-1.60177A1.57007,1.57007,0,0,0,34.1498,33.01895Z"/><path class="cls-1" d="M11.72632,30.287a1.32218,1.32218,0,1,0,0-2.63811,1.31906,1.31906,0,0,0,0,2.63811Z"/><path class="cls-1" d="M17.37861,35.94062a1.36855,1.36855,0,0,0,1.3189-1.41307,1.34728,1.34728,0,0,0-1.31889-1.3199,1.36727,1.36727,0,1,0,0,2.733Z"/><path class="cls-1" d="M28.5917,35.94062a1.36943,1.36943,0,0,0,1.3189-1.41307,1.34822,1.34822,0,0,0-1.3189-1.3199,1.36728,1.36728,0,1,0,0,2.733Z"/><path class="cls-1" d="M17.37861,21.99557a1.36694,1.36694,0,1,0,0,2.7323,1.36855,1.36855,0,0,0,1.3189-1.41308A1.34694,1.34694,0,0,0,17.37861,21.99557Z"/><path class="cls-1" d="M28.5917,24.7282a1.36943,1.36943,0,0,0,1.3189-1.41307,1.34764,1.34764,0,0,0-1.3189-1.31923,1.367,1.367,0,1,0,0,2.7323Z"/><path class="cls-1" d="M17.37861,27.83723a1.13443,1.13443,0,1,0,0,2.26172,1.13086,1.13086,0,1,0,0-2.26172Z"/><path class="cls-1" d="M6.16687,43.57208a2.21445,2.21445,0,0,0,0,4.42792,2.21445,2.21445,0,0,0,0-4.42792Z"/><path class="cls-1" d="M6.16687,32.36a2.21445,2.21445,0,0,0,0,4.42792,2.21445,2.21445,0,0,0,0-4.42792Z"/><path class="cls-1" d="M6.16687,21.14759a2.21462,2.21462,0,0,0,0,4.42825,2.21461,2.21461,0,0,0,0-4.42825Z"/><path class="cls-1" d="M17.37861,43.57208a2.21448,2.21448,0,0,0,0,4.42792,2.21445,2.21445,0,0,0,0-4.42792Z"/><path class="cls-1" d="M28.5917,43.57208a2.21445,2.21445,0,0,0,0,4.42792,2.21448,2.21448,0,0,0,0-4.42792Z"/><path class="cls-1" d="M22.93807,38.86128a1.31872,1.31872,0,1,0,0,2.63744,1.32187,1.32187,0,1,0,0-2.63744Z"/><path class="cls-1" d="M22.93807,35.75192a1.168,1.168,0,0,0,1.13018-1.22471,1.06888,1.06888,0,0,0-1.13018-1.037,1.13074,1.13074,0,0,0-1.13018,1.037A1.23347,1.23347,0,0,0,22.93807,35.75192Z"/><path class="cls-1" d="M22.93807,29.91025a.88972.88972,0,0,0,.94182-.94216.944.944,0,0,0-.94182-.94283,1.013,1.013,0,0,0-.94182.94283A.94386.94386,0,0,0,22.93807,29.91025Z"/><path class="cls-1" d="M17.37861,10.40676a1.7125,1.7125,0,0,0-1.79013,1.696,1.73241,1.73241,0,0,0,1.79013,1.78981,1.711,1.711,0,0,0,1.696-1.78981A1.6883,1.6883,0,0,0,17.37861,10.40676Z"/><path class="cls-1" d="M17.37861,8.5221a2.05532,2.05532,0,0,0,1.97917-1.97884A1.99,1.99,0,0,0,17.3786,4.56509a1.93151,1.93151,0,0,0-1.97749,1.97817A1.98975,1.98975,0,0,0,17.37861,8.5221Z"/><path class="cls-1" d="M39.80343,32.83091a1.71265,1.71265,0,0,0-1.79014,1.69663,1.73223,1.73223,0,0,0,1.79014,1.78913,1.71163,1.71163,0,0,0,1.696-1.78913A1.6893,1.6893,0,0,0,39.80343,32.83091Z"/><path class="cls-1" d="M45.36289,32.548a2.05514,2.05514,0,0,0-1.97884,1.97952A1.98908,1.98908,0,0,0,45.36289,36.505a1.931,1.931,0,0,0,1.9775-1.97749A1.98966,1.98966,0,0,0,45.36289,32.548Z"/><path class="cls-1" d="M34.1498,15.96554A1.79031,1.79031,0,1,0,35.94,17.75568,1.85348,1.85348,0,0,0,34.1498,15.96554Z"/><path class="cls-1" d="M39.80343,9.93551a2.21462,2.21462,0,0,0,0,4.42825,2.21462,2.21462,0,0,0,0-4.42825Z"/><path class="cls-1" d="M45.36289,9.18171a2.69569,2.69569,0,0,0,2.63744-2.63845A2.6141,2.6141,0,0,0,45.36289,4a2.53279,2.53279,0,0,0-2.54461,2.54326A2.61479,2.61479,0,0,0,45.36289,9.18171Z"/></svg>