<svg id="Слой_1" data-name="Слой 1" xmlns="http://www.w3.org/2000/svg" viewBox="0 0 52 52"><defs><style>.cls-1{fill:#cc2234;}</style></defs><title>H3</title><path id="path6" class="cls-1" d="M16.60958,8.46507C22.23826,2.6873,31.54762.10984,39.06137,3.54535c2.68679,1.36493,5.082,3.79663,5.59224,6.86441.50688,2.22961-.31473,4.44265-.80173,6.59606-1.567,6.19851-3.06779,12.41359-4.65137,18.60547-.05632.00331-.16233.00994-.21534.01326a115.82757,115.82757,0,0,0-4.59174-10.83663c-1.33511-2.42176-3.59785-4.68781-6.50661-4.84683-2.03083-.01988-4.06829-.09608-6.09581.0762,2.60729.1027,4.489,2.20641,5.80759,4.24387,2.09709,3.38251,3.21686,7.23546,4.77726,10.86644a17.094,17.094,0,0,0,4.50891,6.53975c-.30479.39092-.61621.77854-.92763,1.16615-3.92252-2.67354-5.44647-7.41436-7.06981-11.635-1.36493-3.19368-2.43832-6.69214-4.97272-9.1901a6.85056,6.85056,0,0,0-4.98929-2.08715c-1.84862.00994-3.70055-.07951-5.54586.09276a5.63518,5.63518,0,0,1,2.67354.90444c2.59072,1.7161,4.03516,4.60167,5.19469,7.39116,1.45438,3.29638,2.40188,6.83128,4.33,9.90569a11.08793,11.08793,0,0,0,4.12461,4.17431c1.789.96406,3.89271.58639,5.81421,1.0502a22.14788,22.14788,0,0,1-14.62,6.54968,15.35327,15.35327,0,0,1-9.74667-2.657,9.49055,9.49055,0,0,1-3.79331-5.7612c-.49694-1.99439.21534-3.98215.64271-5.9136,1.76248-7.0665,3.50178-14.13962,5.27751-21.20281a13.06429,13.06429,0,0,1,3.33282-5.98979M10.85169,35.92271a6.93413,6.93413,0,0,0,13.37765,3.26656,69.28318,69.28318,0,0,1-3.949-8.86212A7.01976,7.01976,0,0,0,10.85169,35.92271Z"/></svg>