<svg id="Слой_1" data-name="Слой 1" xmlns="http://www.w3.org/2000/svg" viewBox="0 0 52 52"><defs><style>.cls-1{fill:#0c4da1;}.cls-2{fill:#00adee;}</style></defs><title>H9</title><path class="cls-1" d="M27.36593,21.74874a40.58621,40.58621,0,0,0,4.42545-8.09989l4.17093,1.441a17.56493,17.56493,0,0,0,2.50051,5.48774l-.36355.54132a19.83926,19.83926,0,0,1-3.0703-3.15918A60.64939,60.64939,0,0,1,4,43.55267c1.66155-1.16661,3.37083-2.27185,4.97147-3.51677,1.65692-1.28873,3.26641-2.65181,4.78966-4.09527A57.42829,57.42829,0,0,0,18.0374,31.435a60.89339,60.89339,0,0,0,3.8096-5.01185c1.16374-1.7,2.17328-3.50552,3.31416-5.36872Z"/><path class="cls-2" d="M48,8.26293c-.31647,1.65251-.62562,3.22144-.91594,4.79384-.38541,2.08752-.71249,4.18718-1.16,6.261a5.417,5.417,0,0,1-.901,1.73414A46.28629,46.28629,0,0,1,31.1916,34.26115a71.90982,71.90982,0,0,1-19.04431,8.48193c-.77435.22344-1.55912.41242-2.3441.59579a.86645.86645,0,0,1-.37142-.06861c2.41337-1.1287,4.85755-2.18512,7.22258-3.39609a66.13329,66.13329,0,0,0,13.26172-9.06386,82.94694,82.94694,0,0,0,16.799-20.5182c.33535-.56463.63842-1.14835.96869-1.71611A1.8766,1.8766,0,0,1,48,8.26293Z"/><path class="cls-2" d="M15.038,43.61649c2.62732-.77129,5.27474-1.48072,7.8775-2.32746a49.31734,49.31734,0,0,0,13.07241-6.26217,28.67809,28.67809,0,0,0,7.81453-7.86481,5.15426,5.15426,0,0,1,.8738-1.12953c-.11641.65831-.2229,1.31857-.35127,1.97454-.2811,1.43641-.556,2.87447-.87221,4.30328a3.05389,3.05389,0,0,1-.48276,1.1284A16.39506,16.39506,0,0,1,37.87161,37.786,38.11739,38.11739,0,0,1,27.16629,41.8213c-2.41252.56231-4.85844.99562-7.30431,1.39543-1.58291.25874-3.19279.3526-4.79057.52034Z"/></svg>