<svg id="Слой_1" data-name="Слой 1" xmlns="http://www.w3.org/2000/svg" viewBox="0 0 52 52"><defs><style>.cls-1{fill:#6d4293;}.cls-2{fill:#cc3a8d;}.cls-3{fill:#ee936c;}</style></defs><title>HA</title><g id="g3"><path id="path5" class="cls-1" d="M47.55678,30.04949c.55663.38816.66876.459,1.10145-.12689A9.216,9.216,0,0,0,47.887,19.25977a5.49145,5.49145,0,0,0-.45255-3.123,3.42545,3.42545,0,0,1-1.04619.90777,2.172,2.172,0,0,0-1.73426-.863c-.37824-.01422-.27362.14083-.088.2189,2.68147,1.12291,1.73614,4.24834,1.38983,4.912a3.1687,3.1687,0,0,0-.27765,1.52905,4.86472,4.86472,0,0,0-2.26326.06867,4.79327,4.79327,0,0,1-2.91109-.34229,2.506,2.506,0,0,1-1.55078-1.9199c-.02307-.20012-.15344-.34014-.2315.03139a2.17667,2.17667,0,0,0,.415,1.89307c-.49735,2.44138-5.28622,2.2638-5.28622,2.2638-.27952-.926-1.99286-1.286-2.73888-2.39847v.00108a.0206.0206,0,0,1-.00724-.01046,9.90041,9.90041,0,0,1-1.71012,5.4241c-.04909.06035-.02039.13064.08906.11427A4.221,4.221,0,0,0,31.645,26.46883c.12152-.15773.25-.10355.26611.05768.78545,7.64068-2.13289,16.33882-3.70352,19.74485-.42357.91743-.87934,1.44964.12554.74548a21.5236,21.5236,0,0,1,7.33515-3.07178,22.58072,22.58072,0,0,0,7.43091-2.87944,9.46146,9.46146,0,0,0,4.47341-6.851c.39567-3.90766-3.64934-5.06544-3.77756-5.14082-.129-.07431-.05365-.155.10623-.16283a6.09556,6.09556,0,0,1,3.6555,1.13847Z"/><path id="path7" class="cls-2" d="M7.81492,28.911c.16122-.00108.24652.10891.10649.16283C4.56716,30.37569,4.47622,31.813,4.52424,32.99653c.1344,3.42641,4.29287,7.63425,7.19887,9.00637.71812.32592.9912.45469.91448-.33908a6.17734,6.17734,0,0,1,1.27608-3.98089c.10221-.12474.21166-.13788.194.011-.01663.14673-1.65378,5.06652,2.10312,6.72057,2.64766,1.168,7.01377.67842,9.47125,4.574.08986.14942.13171.13681.19234.01261,2.296-5.00991-.01878-9.64-.39863-10.6505a10.1622,10.1622,0,0,0,2.97735-2.34185,6.68422,6.68422,0,0,0,.92924-1.49311c.16658-.35463.11186-.53436-.187-.36509A16.048,16.048,0,0,1,18.0692,35.64634a1.49293,1.49293,0,0,1-1.27421-1.7415,5.8904,5.8904,0,0,1,.44557-1.28521c.06117-.15049.26182-.72563.07082-1.00166a.81948.81948,0,0,1-.1969-.8281,1.41171,1.41171,0,0,1,1.02956-.73368,7.4764,7.4764,0,0,1,2.09587-.12929,2.6098,2.6098,0,0,0,.51156-.02173.29312.29312,0,0,0,.26236-.38683c-.04668-.13976-.15559-.24572-.316-.64166a.46511.46511,0,0,1-.57567.3093c-.32539-.04936-.978-.26933-1.57519-.43323a1.05926,1.05926,0,0,0-1.32625.41472c-.34229.48447-.335-.00188-.30178-.16122.05016-.25163.41257-.62611.45281-.85761.03139-.17973.07457-.434-.423-.78813a5.58439,5.58439,0,0,1-.74521-.60438c-.47829-.48286-.56092-.98074.3541-1.75894a12.95006,12.95006,0,0,0,2.53715-2.95938,1.20724,1.20724,0,0,0,.03433-1.28253,6.47027,6.47027,0,0,1-.42437-.67278c-.21246-.41069-.05983-.77472.28837-1.31981a7.411,7.411,0,0,0,.66715-1.727,8.1207,8.1207,0,0,1,2.31664-3.6665c.44745-.86592.16042-2.30564,1.95262-3.87761,1.41773-1.24631,6.27366-2.906,12.04462-1.9824.18456-.15264.33156-.28435.45308-.39729-2.14255-2.33756-6.76806-4.08631-10.09307-4.20166-2.26379-.07806-7.10283.39836-9.85163,3.53935-2.0154-.353-7.75738.82273-11.404,8.87089-.3506.77419-.25162.98879.24465.81147a7.0037,7.0037,0,0,1,3.58763-.408c.29911.07135.173.17919.11777.188-.05741.00993-.16552.0448-.39541.08638a8.56961,8.56961,0,0,0-3.52432,1.67981A9.80845,9.80845,0,0,0,3.23582,29.58621c.34819.63657.54536.76453,1.08455.35329A6.01239,6.01239,0,0,1,7.81492,28.911Z"/><path id="path9" class="cls-2" d="M19.16448,27.07187c-.16014.28193-.481.64756-1.22029.20682a9.99915,9.99915,0,0,0-1.14571-.628c-.07377-.03407-.13118-.06814-.10811-.13091.02173-.0507.15076-.07565.34766-.03917.39541.07136.99657.23365,1.12613.24841.13118.01475.52364.099.68486-.05821.14432-.13923.279-.21112.35248-.10006a.73929.73929,0,0,1-.037.5011Z"/><path id="path11" class="cls-3" d="M47.38858,10.9852a9.81951,9.81951,0,0,0,.44316,2.98137,2.64912,2.64912,0,0,1-1.44348,3.07849,2.172,2.172,0,0,0-1.73426-.863c-.37824-.01422-.27362.14083-.088.21889,2.68147,1.12291,1.73614,4.24834,1.38983,4.912a3.16871,3.16871,0,0,0-.27765,1.52905,4.86484,4.86484,0,0,0-2.26326.06868,4.79326,4.79326,0,0,1-2.91109-.3423,2.506,2.506,0,0,1-1.55078-1.91989c-.02307-.20012-.15344-.34015-.2315.03138a2.17666,2.17666,0,0,0,.415,1.89307c-.49735,2.44139-5.28622,2.2638-5.28622,2.2638-.31842-1.05424-2.49423-1.37346-2.98782-2.90546a3.04657,3.04657,0,0,1-.04184-1.48586,2.18892,2.18892,0,0,0,2.38317-.80691c.23767-.29481.048-.30795-.12179-.20012a2.14345,2.14345,0,0,1-3.37008-1.4137,3.194,3.194,0,0,0-1.922-2.057c1.0977-.69209.793-1.88878,1.36354-2.90144,1.50571-2.66269,3.64611-1.86544,3.64611-1.86544a2.1802,2.1802,0,0,0,1.45876,1.2777c.36268.10837.3034-.07082.14084-.18858a2.14375,2.14375,0,0,1,.05123-3.65389,9.06179,9.06179,0,0,0,2.44782-2.03793,5.85368,5.85368,0,0,0,2.47036.6371c2.39792.21461,2.96313,1.46279,3.01169,1.93921a2.325,2.325,0,0,0-.99067,1.31472c-.11159.36267.06921.30446.18751.1419.93487-1.27823,2.08568-1.03626,3.16245-.54187.68217.31251,1.66935,1.109,2.649.896Z"/><path id="path13" class="cls-1" d="M32.79985,11.20087a2.18077,2.18077,0,0,0,1.45876,1.2777c.1741.0515.25216.03729.26611-.00456-.01583-.0389-.03192-.07619-.04775-.11347a.3787.3787,0,0,0-.07779-.07082,2.14353,2.14353,0,0,1,.0515-3.65389c.67091-.45738,1.164-.83132,1.52369-1.12748-5.77123-.92333-10.6269.73636-12.04462,1.9824-1.79274,1.5717-1.50491,3.01169-1.95235,3.87762a6.58328,6.58328,0,0,1,2.57631-1.13177c2.56-.56977,3.86769.36,4.467,1.1028a2.77347,2.77347,0,0,1,.13252-.27335c1.50678-2.66243,3.64665-1.86518,3.64665-1.86518Z"/><path id="path15" class="cls-1" d="M36.40491,18.63581c.0161.12071.0676.15532.15666.04158A5.36492,5.36492,0,0,1,38.63733,16.956a3.089,3.089,0,0,0,1.98883-2.13477,3.72436,3.72436,0,0,1,.60116-1.89736c.16712-.194-.05016-.19851-.21031-.12957a3.32127,3.32127,0,0,0-1.36166,1.23719,1.50416,1.50416,0,0,1-.58694-1.18488c.00134-.09925-.088-.15-.18858-.019a2.50649,2.50649,0,0,0-.53222,1.308s-.39567-.16256-.36563-.81281c.00617-.10944-.05553-.055-.08557-.01958a1.44328,1.44328,0,0,0-.27872,1.32813,5.02849,5.02849,0,0,0-1.66505-.10167c-.30984-.58855-1.35308-.51532-1.36461.165-.01181.61537,1.06014.83158,1.35817.25a4.6891,4.6891,0,0,1,2.811.72643c.15.09228.21058.17893.15291.26531-.04265.0633-.23741,0-.47883-.09523-.27148-.1065-2.11814-.76077-3.33655.276-.06143.052-.05392.114.0169.114.27979.01421.90911.07806,1.146.42437a2.10117,2.10117,0,0,0-1.106,1.52744c-.05767.253.095.25.19234.129a3.5929,3.5929,0,0,1,1.20392-.86458,3.09161,3.09161,0,0,0-.143,1.18837Z"/><path id="path17" class="cls-2" d="M23.96731,19.9524a3.0269,3.0269,0,0,0-1.23987-.28945c-.12582-.02253-.15-.14941.03889-.24169.25726-.12367.73931-.02012.75648-.1006.01583-.07028-.09389-.25055-.46059-.39111a4.06331,4.06331,0,0,0-1.59129-.03917c-.4123.07028-.7723-.29615-.1242-.84151a3.16841,3.16841,0,0,1,1.91856-.4834c.35114-.0456.2028-.20226.10917-.24116a2.66558,2.66558,0,0,0-1.4196-.2653,3.03963,3.03963,0,0,0-2.01137,1.05156,1.64155,1.64155,0,0,0-.39111.78679c-.04024.44449.31091.62181.68753.46729A.87878.87878,0,0,1,20.7,19.2772c.18295.01878.29508.17678.22775.22748a.63654.63654,0,0,0-.24921.41258c-.06089.26906.12849.48178.29535.75084a1.49127,1.49127,0,0,1,.18509.338.23585.23585,0,0,1-.10757.30206c-.13654.10622-.05633.29508.21729.21835a1.65808,1.65808,0,0,0,.71731-.37421c.33425-.28006.32781-.46113.56333-.69451a2.09086,2.09086,0,0,1,1.34691-.17973c.44476.06331.54724-.04534.07109-.32566Z"/></g></svg>