<svg id="Слой_1" data-name="Слой 1" xmlns="http://www.w3.org/2000/svg" viewBox="0 0 52 52"><defs><style>.cls-1{fill:#e31b1b;}.cls-2{fill:#fddb4d;}.cls-3{fill:#418a34;fill-rule:evenodd;}</style></defs><title>HY</title><circle class="cls-1" cx="25.99999" cy="26.00001" r="24.00001" transform="translate(-6.31588 8.45906) rotate(-16.50706)"/><circle class="cls-2" cx="25.99998" cy="26.00001" r="22.03679" transform="translate(-10.76956 25.99999) rotate(-45)"/><path class="cls-3" d="M41.00418,31.34227a4.04936,4.04936,0,0,1-2.74269,1.62846q-6.91722-.00594-13.83446-.01179c-.6904-.356-.76694-.84941,0-1.15174h7.82212a2.13259,2.13259,0,0,0,1.78919-.86194c2.35716-3.08926,4.99445-6.03951,7.04462-9.36042a4.81469,4.81469,0,0,1-2.82147,1.53856H28.65017a2.69157,2.69157,0,0,0-2.33,1.142q-2.88129,3.66321-5.76261,7.32621c-4.95921,5.92841-8.39448-7.17-1.6851-5.08525q-1.37294-1.72386-2.7461-3.44765a1.65027,1.65027,0,0,0-2.49646,0c-4.13365,5.28917-4.2101,13.44234,4.49362,14.22157H36.722q2.14108-2.969,4.28218-5.93805ZM38.13775,14.71968c-1.277,1.56608-4.72617,7.24012-7.324,7.24012H25.52964a3.00345,3.00345,0,0,0-2.33,1.03423q-.92577,1.1529-1.85154,2.30567-.75934-.98051-1.51867-1.9609,2.69406-3.42609,5.38817-6.8522a3.05309,3.05309,0,0,1,2.43392-1.07742h8.44633A2.62588,2.62588,0,0,0,38.13775,14.71968Z"/></svg>