<svg id="Слой_1" data-name="Слой 1" xmlns="http://www.w3.org/2000/svg" viewBox="0 0 52 52"><defs><style>.cls-1{fill:#193254;}.cls-2{fill:#c4a669;}.cls-3{fill:#c4a569;}</style></defs><title>I4</title><path class="cls-1" d="M26.07606,2.00012A24,24,0,1,0,49.99971,25.97363,24.06021,24.06021,0,0,0,26.07606,2.00012ZM37.06186,9.4325A4.188,4.188,0,0,1,41.394,13.69965a4.268,4.268,0,0,1-8.53537.05277A4.16188,4.16188,0,0,1,37.06186,9.4325Zm5.39906,16.41806A12.697,12.697,0,0,1,40.5264,29.555c-1.30139,1.75845-2.62625,3.5169-4.06837,5.16985-1.49485,1.70571-3.11283,3.30589-4.73667,4.89437a15.99418,15.99418,0,0,1-3.08349,2.40907c-.28141.1641-.58622.28134-.87933.422a1.05485,1.05485,0,0,1-1.19591-.15824,1.912,1.912,0,0,1,.32828-1.70571c.71521-1.35987,1.47729-2.69628,2.21593-4.05028A18.46173,18.46173,0,0,0,31.1,30.98521a4.4085,4.4085,0,0,0,.11725-1.94016,4.09746,4.09746,0,0,0-.99658-1.82292,13.38533,13.38533,0,0,0-2.9311-2.25666,95.45611,95.45611,0,0,0-10.08883-5.14641c-1.84074-.86163-3.64044-1.79949-5.45771-2.69628a.50026.50026,0,0,0-.13485-.0293c-.1876-.13484-.381-.26377-.55689-.40444A16.882,16.882,0,0,1,9.615,15.4757c-.4338-.43961-.37519-.72682.11725-1.19577h2.978c1.3483.23448,2.69664.44548,4.03907.70926,1.87.36341,3.74009.72682,5.59253,1.1723,4.51977,1.08436,9.02194,2.20979,13.53,3.33519A17.64289,17.64289,0,0,1,40.374,21.16719a6.24809,6.24809,0,0,1,1.149.79133A3.44913,3.44913,0,0,1,42.46092,25.85056Z"/><path class="cls-2" d="M12.70931,14.27738c1.34785.23491,2.70028.4465,4.04243.71036,1.86826.3673,3.73985.72791,5.5905,1.17252,4.51677,1.08512,9.02432,2.209,13.53136,3.33417a17.66756,17.66756,0,0,1,4.50113,1.67493,6.30224,6.30224,0,0,1,1.14879.78687,3.453,3.453,0,0,1,.93974,3.8934,12.64064,12.64064,0,0,1-1.93469,3.70294c-1.30481,1.76265-2.62733,3.52161-4.071,5.16949-1.49471,1.70617-3.11152,3.31-4.73573,4.89638a16.009,16.009,0,0,1-3.08271,2.40781c-.28017.16368-.58726.28111-.881.42176a1.04087,1.04087,0,0,1-1.19314-.15745,1.91114,1.91114,0,0,1,.32408-1.70392c.71618-1.362,1.48047-2.69865,2.21955-4.04871A18.4307,18.4307,0,0,0,31.101,30.9823a4.45842,4.45842,0,0,0,.11733-1.93983,4.13844,4.13844,0,0,0-.995-1.81784,13.45043,13.45043,0,0,0-2.93253-2.261,96.05873,96.05873,0,0,0-10.09007-5.14589c-1.83809-.85851-3.63891-1.79677-5.45746-2.69719a.5134.5134,0,0,0-.13715-.02563c-.18536-.13538-.37722-.26276-.55481-.40767A16.63243,16.63243,0,0,1,9.61331,15.4756c-.431-.44216-.37449-.72963.11635-1.19822Z"/><path class="cls-3" d="M37.11513,17.94848a4.21475,4.21475,0,0,1-4.25771-4.19631,4.26763,4.26763,0,1,1,8.53492-.05086A4.2401,4.2401,0,0,1,37.11513,17.94848Z"/></svg>