<svg id="Слой_1" data-name="Слой 1" xmlns="http://www.w3.org/2000/svg" viewBox="0 0 52 52"><defs><style>.cls-1{fill:#f15e33;}</style></defs><title>IG</title><path id="path2801" class="cls-1" d="M48.139,32.406,25.98021,10.11928,3.85112,32.37285a22.71914,22.71914,0,0,1-.66968-3.3241l22.79877-22.927,22.83505,22.9635A23.03328,23.03328,0,0,1,48.139,32.406"/><path id="path2803" class="cls-1" d="M46.76,36.07515,25.98021,15.19169,5.23337,36.05524a22.7845,22.7845,0,0,1-1.03256-2.54449l21.7794-21.89861L47.7893,33.534A23.09335,23.09335,0,0,1,46.76,36.07515"/><path id="path2805" class="cls-1" d="M44.91925,39.2566,25.98021,20.211,7.06427,39.23006c-.419-.61042-.81154-1.24737-1.17772-1.89759L25.98021,17.12909,46.097,37.359c-.36288.65354-.75875,1.28386-1.17771,1.89759"/><path id="path2807" class="cls-1" d="M42.65619,42.04991l-16.676-16.76648L9.33391,42.03332c-.43216-.45449-.84782-.92889-1.24039-1.41988L25.98021,22.6195,43.89328,40.63335c-.39256.491-.80823.96206-1.23709,1.41656"/><path id="path2809" class="cls-1" d="M40.06655,44.402,25.98021,30.22977,11.90707,44.38209c-.36949-.29526-.73237-.59383-1.08535-.90567L25.98021,28.236l15.175,15.26035-.17814.15924c-.2969.25545-.5971.50425-.9105.74643"/><path id="path2811" class="cls-1" d="M37.025,46.41569,25.98021,35.30881,14.952,46.39579c-.33649-.18578-.66969-.38151-.993-.58387L25.98021,33.72306,38.01793,45.83182c-.32659.20236-.65648.39809-.993.58387"/><path id="path2813" class="cls-1" d="M33.51822,47.98817l-7.538-7.58041L18.462,47.9749c-.3035-.10947-.6037-.22227-.90389-.3417l8.42211-8.47613,8.44191,8.49272c-.30021.11611-.60041.22891-.9039.33838"/><path id="path2815" class="cls-1" d="M29.44406,49l-3.46385-3.4767-3.454,3.47007c-.26061-.03981-.51793-.08626-.77524-.136l4.2292-4.253,4.2457,4.26294c-.25732.04976-.52123.09289-.78185.1327"/><path id="path2817" class="cls-1" d="M48.901,28.28905,25.98021,5.236,3.09568,28.2592q-.094-1.04-.09568-2.1066a23.0005,23.0005,0,1,1,46,0q0,1.07983-.099,2.13645"/></svg>