<svg id="Слой_1" data-name="Слой 1" xmlns="http://www.w3.org/2000/svg" viewBox="0 0 52 52"><defs><style>.cls-1{fill:#0f2659;}</style></defs><title>IR</title><path class="cls-1" d="M49.5,6.071a.3741.3741,0,0,0-.24045-.33922,2.53075,2.53075,0,0,0-1.40091-.13133,4.73711,4.73711,0,0,0-1.83889.657,11.97044,11.97044,0,0,0-4.2042,4.3677.99986.99986,0,0,0-.14242.28484,1.32914,1.32914,0,0,0,.32887,1.20411.16706.16706,0,0,0,.07657-.01073,2.08955,2.08955,0,0,0,.80977-.63516.18946.18946,0,0,1,.01073-.07657c.05475-.36179.18644-.3396.39434.07657a.37178.37178,0,0,0,.24044.08767H43.687c.14242-.18607.19718-.31739.16388-.40507a.3428.3428,0,0,0,.263-.02182,29.14948,29.14948,0,0,0,3.66744-2.98863,2.73254,2.73254,0,0,1,.56932-.43762A2.57112,2.57112,0,0,0,49.5,6.071Z"/><path class="cls-1" d="M48.88371,6.55113a.212.212,0,0,0-.1206-.20235,1.43833,1.43833,0,0,0-.78535-.1365,2.68274,2.68274,0,0,0-1.068.28928,6.78185,6.78185,0,0,0-2.56765,2.27985.56845.56845,0,0,0-.09322.15426.75654.75654,0,0,0,.13206.69471.09767.09767,0,0,0,.044-.003,1.18367,1.18367,0,0,0,.48534-.32257.1031.1031,0,0,1,.00925-.04291c.047-.20161.11986-.18348.219.06067a.21048.21048,0,0,0,.13206.05993l.08656.007c.08879-.09877.12578-.17053.11061-.22158a.19642.19642,0,0,0,.14945-.00074A16.4523,16.4523,0,0,0,47.8209,7.64241a1.56873,1.56873,0,0,1,.34107-.222,1.45069,1.45069,0,0,0,.72173-.86932Z"/><path class="cls-1" d="M46.19472,9.9574c-.75575.59114-1.56552,1.26958-2.25506,1.91584v.04365a1.65833,1.65833,0,0,1,.84232.30667,1.21836,1.21836,0,0,1,.27375.49274c.044.19717.07657.38324.11985.59151a2.4923,2.4923,0,0,1,1.39092-.51457,1.54174,1.54174,0,0,1,1.54961,1.51448,1.64073,1.64073,0,0,1-.7073,1.33173c-.0085.00591.01074,0,.01074.01072a.83009.83009,0,0,0,.7232.27375,1.53239,1.53239,0,0,0,.84232-1.70794A4.67262,4.67262,0,0,0,46.19472,9.9574Z"/><path class="cls-1" d="M47.85864,14.358a.67455.67455,0,0,0-.01147-.175,1.18743,1.18743,0,0,0-.3714-.78831,1.21689,1.21689,0,0,0-.91964-.38287,1.23363,1.23363,0,0,0-.86488.32812.12843.12843,0,0,0-.05475.05475,1.20716,1.20716,0,0,0-.35032.60187,1.4207,1.4207,0,0,0-.03255.31776,1.22852,1.22852,0,0,0,.38287.9189,1.25505,1.25505,0,0,0,.91963.38361,1.3273,1.3273,0,0,0,.50347-.09914.98033.98033,0,0,0,.20753-.11985.997.997,0,0,0,.20864-.16462,1.35815,1.35815,0,0,0,.32-.516,1.24766,1.24766,0,0,0,.06289-.3592Z"/><path class="cls-1" d="M41.695,10.176q.37843-.47608,1.11717-1.44492a2.14884,2.14884,0,0,0-1.3136-.0111c-3.9963.88671-6.57912,3.02118-7.77286,6.62314a15.72109,15.72109,0,0,0-.701,6.28354,27.25679,27.25679,0,0,0,1.16045,6.11893,7.75923,7.75923,0,0,0,1.60992.13132q5.69759-.03275,8.29815-3.67816a6.79113,6.79113,0,0,1,1.73976,3.45953,7.74024,7.74024,0,0,1,.16462,1.45677,11.187,11.187,0,0,1-1.27033,5.65874,16.664,16.664,0,0,1-6.72153,6.56912,35.91527,35.91527,0,0,1-10.5854,3.64524,38.30437,38.30437,0,0,0,3.15287-3.51428,12.77254,12.77254,0,0,0,2.211-4.41173,5.60731,5.60731,0,0,0,.22972-1.57661A7.98205,7.98205,0,0,0,31.35,30.03434a11.07022,11.07022,0,0,0-4.094-3.01082,9.5085,9.5085,0,0,1,3.94081,4.34587,7.43019,7.43019,0,0,1,.53676,4.09433,8.57764,8.57764,0,0,1-2.32054,5.23295,26.87906,26.87906,0,0,1-8.68177,5.74679A43.5815,43.5815,0,0,0,32.9048,44.53909a31.31881,31.31881,0,0,0,6.26135-2.7367,16.4589,16.4589,0,0,0,6.8536-7.5757,9.13364,9.13364,0,0,0,.755-2.79182c.48127-4.08286-.40544-6.98381-2.63868-8.70248q-1.344-1.039-2.70378-2.05752A4.41205,4.41205,0,0,1,39.75766,16.909c-.01147-1.66392.22973-2.74854.711-3.26274a.063.063,0,0,1,.05475.0222c1.17118,2.07972,2.28835,4.21455,3.32784,6.42559a4.97209,4.97209,0,0,1,.76649.1206,15.10634,15.10634,0,0,0,1.98094.19717c-.01073-.02183-.01073-.044-.02182-.06585a9.19727,9.19727,0,0,0-3.04338-2.59465h.07658a5.47541,5.47541,0,0,1,1.87219.06584c.2079.03256.3063.06585.317.06585a1.76732,1.76732,0,0,1,1.41237,1.24776,2.28232,2.28232,0,0,1,.04329.438c0,.27374.12059.39434.36141.37288.22973-.01146.307-.19791.21974-.53676A3.50159,3.50159,0,0,0,47.31,18.321a2.17923,2.17923,0,0,0-.87562-.72246,2.167,2.167,0,0,1,.71174-.14242,14.41978,14.41978,0,0,0,1.86109-.42689.18953.18953,0,0,1,.01073-.07658,1.335,1.335,0,0,0-.25229-.80977,1.51723,1.51723,0,0,0-.175.01073q-.13095,0-.42689-.03255a2.73746,2.73746,0,0,0-.36142-.044c-.03329-.01073-.13132-.0333-.27375-.06585a.75831.75831,0,0,1-.37214-.24045,1.793,1.793,0,0,1-.59114.12059,1.49847,1.49847,0,0,1-1.09461-.46019,1.47274,1.47274,0,0,1-.46019-1.0946,4.7459,4.7459,0,0,0-.05475-.657,4.04172,4.04172,0,0,0-.16387-.799.96838.96838,0,0,0-.28485-.45982,1.98362,1.98362,0,0,0-.438-.25192.33291.33291,0,0,0-.47017.14243.92415.92415,0,0,1-.73319.30666,1.46258,1.46258,0,0,1-.96365-.263A1.38821,1.38821,0,0,1,41.355,11.753a1.46637,1.46637,0,0,1,.34-1.577Z"/><path class="cls-1" d="M40.45793,14.2156a12.71086,12.71086,0,0,0-.34958,1.91621,7.06454,7.06454,0,0,0,.219,2.29835c.219,1.0295,1.10534,2.0368,2.64866,3.02154a9.25751,9.25751,0,0,0,.58-1.14936q-1.45272-3.09146-3.09812-6.08674Z"/><path class="cls-1" d="M42.89906,12.48583c.17572.044.25229.02183.25229-.03255-.07657-.799-.29556-.90891-.66845-.33922A.5536.5536,0,0,0,42.89906,12.48583Z"/><path class="cls-1" d="M44.0155,24.92234a.07733.07733,0,0,0-.054.02182,9.44633,9.44633,0,0,1-5.6162,3.08666,8.63822,8.63822,0,0,1-6.251-.76575c-.16388-.10987-.32812-.219-.492-.33959q-4.10506-3.08628-4.5105-9.89623a6.77857,6.77857,0,0,0-1.13826-.70027c-.66771-.36215-2.10191-.99621-4.31332-1.92694a32.29855,32.29855,0,0,0-6.645-1.98168,34.58665,34.58665,0,0,0-4.8057-.64589,20.84013,20.84013,0,0,0-3.42661.21862,15.545,15.545,0,0,0-3.2731.76649.15815.15815,0,0,0,.0111.0762,9.587,9.587,0,0,0,1.4342,2.26579c1.39018-.55785,3.72182-.76574,6.99491-.60187a27.37939,27.37939,0,0,1,9.93988,2.56136c-.10912.18644-.28447.219-.52492.1206a29.04222,29.04222,0,0,0-10.1156-2.25507,14.00463,14.00463,0,0,0-6.37121.89744.12.12,0,0,0,.02219.06659,7.91538,7.91538,0,0,0,2.15666,2.42967,11.71571,11.71571,0,0,1,5.156-.87561,22.85064,22.85064,0,0,1,5.33135.71173c.99621.25155,1.94877.51457,2.84621.76575a17.67622,17.67622,0,0,1,2.5399.94145v.307q-2.3202-.76123-4.67437-1.41237a25.23718,25.23718,0,0,0-5.40756-.85416,10.53755,10.53755,0,0,0-6.032,1.13863c0,.03256,0,.05475.02183.06585a7.15652,7.15652,0,0,0,2.47405,1.94876c.83233-.20789,1.66393-.39434,2.51808-.536a11.129,11.129,0,0,1,3.03228-.06658,24.87171,24.87171,0,0,1,4.30222.76648c1.04023.31777,2.14594.67844,3.31712,1.07278,1.16045.4047,1.58772.71174,1.24813.94146A26.02322,26.02322,0,0,0,19.91119,21.812a29.47574,29.47574,0,0,0-5.02469-.94146,10.28485,10.28485,0,0,0-5.44086.75576c0,.02182,0,.04328.0222.054a10.37875,10.37875,0,0,0,2.96642,1.96023,26.26349,26.26349,0,0,1,7.90382.25155c4.08323.76648,7.06075,2.00351,8.95514,3.7A15.15415,15.15415,0,0,1,32.74092,31.5a10.25542,10.25542,0,0,1,.75576,3.45953,9.12769,9.12769,0,0,1-1.4342,4.95922,16.46136,16.46136,0,0,1-3.50282,4.50975,53.78619,53.78619,0,0,0,6.0098-1.98094,20.50622,20.50622,0,0,0,7.70627-4.89374A12.61454,12.61454,0,0,0,45.473,31.02944a7.1111,7.1111,0,0,0-1.45751-6.1071Z"/><path class="cls-1" d="M49.0953,17.35775v-.044l-1.97022.3936c.04329.01147.11986.07658.24045.21974a3.6599,3.6599,0,0,1,.45945.755c.15315.317.28484.60186.38361.84306a.07995.07995,0,0,0,.06585-.02257,2.37786,2.37786,0,0,0,.82086-2.14482Z"/><path class="cls-1" d="M25.614,13.23013a30.98011,30.98011,0,0,0-4.02848-1.72977,44.93336,44.93336,0,0,0-7.80579-2.00315c-1.29141-.23009-2.62721-.40506-4.00666-.54749a23.04553,23.04553,0,0,0-5.37463-.0873,16.34248,16.34248,0,0,0-1.88292.32813c-.0222.02182-.0222.08767.0111.18607-.0111.02219,0,.044.01072.07694A7.8277,7.8277,0,0,0,3.71994,12.026c.01073,0,.01073,0,.02183.0111.01073,0,.66771-.13133,1.981-.40507a16.28284,16.28284,0,0,1,4.59816-.19717c1.7516.14242,3.04338.29557,3.87534.44909.82123.16388,2.00351.44835,3.52464.86451a47.79969,47.79969,0,0,1,4.90447,1.64173,26.7428,26.7428,0,0,1,4.795,2.47443v.0873a21.78645,21.78645,0,0,0,1.42347,6.3161,7.69183,7.69183,0,0,0,3.32785,3.51428,11.33145,11.33145,0,0,1-3.12-6.22879,15.75611,15.75611,0,0,1-.18644-4.80607A10.22512,10.22512,0,0,0,25.614,13.23012Z"/><path class="cls-1" d="M45.71271,14.32474a.82928.82928,0,1,0,.84454-.84418.84542.84542,0,0,0-.84454.84418Z"/><path class="cls-1" d="M45.9317,14.32474a.62518.62518,0,1,1,.62554.62554A.62517.62517,0,0,1,45.9317,14.32474Z"/></svg>