<svg id="Слой_1" data-name="Слой 1" xmlns="http://www.w3.org/2000/svg" viewBox="0 0 52 52"><defs><style>.cls-1{fill:#e4420c;}.cls-2{fill:#a6167c;}.cls-3{fill:#04873c;}.cls-4{fill:#049a8c;}.cls-5{fill:#6fb62c;}.cls-6{fill:#8d762c;}.cls-7{fill:#d4027d;}.cls-8{fill:#049ee4;}.cls-9{fill:#fcaa04;}</style></defs><title>IZ</title><path class="cls-1" d="M7.36355,10.09233,33.64989,5.19314h0C25.235,2.475,14.32984,4.5258,7.36355,10.07605"/><path class="cls-2" d="M45.77579,20.91611,33.21043,23.22736l12.56536-2.31125C45.33633,13.29877,41.29979,8.481,35.79838,6.007h0L8.19365,11.16657h0l4.99684,6.64076c14.22555-7.63362,20.01994-1.02541,20.01994,2.653v2.767"/><path class="cls-3" d="M33.19416,23.22736,8.30758,27.915C14.16707,20.60686,29.80867,19.907,33.19416,23.22736Z"/><path class="cls-4" d="M45.82462,37.12738l-35.64525,6.657C14.16708,46.71417,20.40093,47.90234,25.98373,48a57.70833,57.70833,0,0,0,19.71069-3.28783S45.77579,41.31041,45.82462,37.12738Z"/><path class="cls-5" d="M19.78242,31.54458c1.25328-1.66019,4.1342-3.239,10.72614-2.002,7.2267-1.35093,15.39745-2.88092,15.39745-2.88092,0-1.92061-.03256-3.49942-.09766-4.36206V22.2345L7.29845,29.42866A9.7579,9.7579,0,0,0,6.094,34.1L19.701,31.56087S19.71732,31.54458,19.78242,31.54458Z"/><path class="cls-6" d="M33.21043,30.35641h0v1.5137h0L45.88973,29.51v-1.5137C45.906,27.99634,33.21043,30.35641,33.21043,30.35641Z"/><path class="cls-7" d="M18.80584,34.23019a3.95449,3.95449,0,0,1,.21159-1.22073L6.094,35.41836v.60223c0,.30925.01628.6185.03256.91148,0,0,8.31722-1.54626,12.64674-2.36008C18.78957,34.3604,18.80584,34.23019,18.80584,34.23019Z"/><path class="cls-8" d="M33.21043,33.20478h0v5.0294L45.8409,35.8741c.01628-1.64391.03256-3.36921.04883-5.0294Z"/><path class="cls-9" d="M18.98488,35.85782,6.32186,38.2179h0a9.12,9.12,0,0,0,2.63678,4.52483h0L27.77412,39.227s-.11393-.0651-.30925-.179C21.41006,39.341,19.53828,37.37153,18.98488,35.85782Z"/></svg>