<svg id="Слой_1" data-name="Слой 1" xmlns="http://www.w3.org/2000/svg" viewBox="0 0 52 52"><defs><style>.cls-1{fill:#036;}.cls-2{fill:#00b2e2;}.cls-3{fill:#57c8e7;}.cls-4{fill:#98dae9;}</style></defs><title>J2</title><path class="cls-1" d="M39.298,33.45805a15.70333,15.70333,0,1,1-7.60359-18.7958l.56236-.49394a16.39053,16.39053,0,1,0,7.79133,19.253Z"/><path class="cls-2" d="M13.8898,33.60157A183.64078,183.64078,0,0,0,41.97628,28.9508q-.21527.95869-.4297,1.91571A103.05078,103.05078,0,0,1,13.8898,33.60157"/><path class="cls-2" d="M15.39583,32.66123A164.65367,164.65367,0,0,0,42.658,25.90953q-.22029.98121-.43888,1.9616c-10.33948,3.2507-19.15625,4.70166-26.82325,4.7901"/><path class="cls-3" d="M16.83929,31.66249a199.62046,199.62046,0,0,0,26.50786-8.83428q-.219.98622-.44055,1.97328c-9.49344,3.72712-18.27432,6.181-26.06731,6.861"/><path class="cls-4" d="M18.2794,30.4802A131.0916,131.0916,0,0,0,44.20153,19.00848l-.54067,2.4205C33.43986,26.50443,24.78,29.7543,18.2794,30.4802"/><path class="cls-3" d="M20.14505,29.23031a181.74189,181.74189,0,0,0,25.0594-14.70155q-.29787,1.3329-.59657,2.6658c-8.176,5.2198-16.33609,9.5435-24.46283,12.03575"/><path class="cls-2" d="M21.57933,27.6834A167.24725,167.24725,0,0,0,46.446,8.98105q-.363,1.62827-.72841,3.25737a105.22173,105.22173,0,0,1-24.13825,15.445"/><path class="cls-2" d="M47,5.10708q-1.37044.03628-2.73923.07092A120.079,120.079,0,0,1,34.02809,16.16912c-3.71961,3.54356-7.45758,6.72167-11.19888,9.848C31.02437,20.487,39.15612,14.29347,47,5.10708"/></svg>