<svg id="Слой_1" data-name="Слой 1" xmlns="http://www.w3.org/2000/svg" viewBox="0 0 52 52"><defs><style>.cls-1{fill:#00a3e0;}.cls-2{fill:#0089c5;}.cls-3{fill:#015890;}.cls-4{fill:#233b75;}.cls-5{fill:#41b4e3;}.cls-6{fill:#0099d6;}.cls-7{fill:#038bc6;}.cls-8{fill:#1e397c;}.cls-9{fill:#005a90;}.cls-10{fill:#54b8db;}.cls-11{fill:#0a7ab9;}.cls-12{fill:#018cc1;}.cls-13{fill:#1f3b6e;}.cls-14{fill:#44b5e2;}</style></defs><title>J9</title><path class="cls-1" d="M4.50384,23.82153H6.736s-.05823,6.26931-.05823,6.50223a3.0273,3.0273,0,0,1-2.56207,3.04731,9.62124,9.62124,0,0,1-2.11565,0c.15528-.33.77638-1.82451.77638-1.82451a1.46065,1.46065,0,0,0,1.708-1.63041Z"/><path class="cls-2" d="M7.90053,25.85954s2.44561-.95107,4.2507,0,1.3975,2.11565,1.43631,3.39669l.01941,3.78488a11.4598,11.4598,0,0,1-4.09543.36878,2.26683,2.26683,0,0,1-2.4262-2.56207c.097-2.8144,4.38658-2.2127,4.38658-2.2127a1.33232,1.33232,0,0,0-.69875-1.184c-.757-.36878-2.87262.11646-2.87262.11646Zm3.57137,4.36717s-2.29034-.33-2.27093.46583v.50465c.07764.87343,2.27093.52406,2.27093.52406Z"/><polygon class="cls-3" points="14.17 25.704 20.206 25.704 20.206 27.179 16.654 31.508 20.206 31.508 20.206 33.274 14.015 33.274 14.015 31.935 17.353 27.49 14.189 27.471 14.17 25.704"/><path class="cls-4" d="M22.55479,30.2073c.67934,2.69794,4.87182.757,4.87182.757v1.8051c-6.69632,2.54266-7.08452-2.77558-7.08452-2.77558s-.38819-4.52244,3.649-4.52244,3.4161,4.73595,3.4161,4.73595Zm-.01941-1.514H25.3886a1.439,1.439,0,0,0-1.41691-1.4169A1.46279,1.46279,0,0,0,22.53538,28.69335Z"/><path class="cls-2" d="M30.08572,30.18789c.67934,2.69794,4.87182.757,4.87182.757V32.75c-6.71573,2.54266-7.10392-2.77558-7.10392-2.77558s-.38819-4.52244,3.649-4.52244,3.41609,4.73595,3.41609,4.73595Zm-.01941-1.51395h2.83381a1.41691,1.41691,0,0,0-2.83381,0Z"/><path class="cls-5" d="M40.87748,25.85954s2.44561-.95107,4.2507,0,1.3975,2.11565,1.43631,3.39669l.01942,3.78488a11.45989,11.45989,0,0,1-4.09544.36878,2.26683,2.26683,0,0,1-2.4262-2.56207c.09705-2.8144,4.38658-2.2127,4.38658-2.2127a1.33232,1.33232,0,0,0-.69875-1.184c-.757-.36878-2.87263.11646-2.87263.11646Zm3.57137,4.36717s-2.29034-.33-2.27093.46583v.50465c.07764.87343,2.27093.52406,2.27093.52406Z"/><path class="cls-6" d="M35.44278,26.22833V33.274h2.19329V27.45113a5.42764,5.42764,0,0,1,2.67853.1941v-1.8051S37.48079,25.06375,35.44278,26.22833Z"/><polygon class="cls-2" points="47.108 31.799 48.564 30.266 50 31.741 48.544 33.216 47.108 31.799"/><rect class="cls-7" x="45.47756" y="18.54212" width="1.0093" height="4.4448"/><path class="cls-3" d="M42.10028,22.17172H39.59644v.8152h3.59078a1.35871,1.35871,0,0,0,1.51395-1.30045V18.56153h-1.0093v2.93085c0,.83461-.67933.71815-.67933.71815v-.93166c0-1.74686-2.75617-1.04812-2.75617-1.04812v.7958a6.612,6.612,0,0,1,1.0093-.1941c.27173,0,.89284,0,.87343.67934Z"/><circle class="cls-8" cx="39.1112" cy="19.22145" r="0.48524"/><circle class="cls-9" cx="41.20744" cy="23.84094" r="0.48524"/><circle class="cls-10" cx="31.40558" cy="19.22145" r="0.48524"/><circle class="cls-10" cx="32.49252" cy="19.22145" r="0.48524"/><circle class="cls-11" cx="35.61747" cy="23.84094" r="0.48524"/><circle class="cls-11" cx="36.72382" cy="23.84094" r="0.48524"/><polygon class="cls-12" points="27.892 22.249 28.611 21.492 29.348 22.23 28.611 22.968 27.892 22.249"/><path class="cls-13" d="M38.626,22.61814c0,1.0093-.71816.854-.71816.854v.83461c1.76628,0,1.70805-1.33926,1.70805-1.33926v-2.8144h-.97048v2.465Z"/><path class="cls-2" d="M37.57784,20.1337h-.97048v1.16458c.01941.91225-.71816.854-.71816.854h-.87343v-1.9992h-.97048v2.48444c0,1.0093-.71816.854-.71816.854v.83461c1.76628,0,1.70805-1.33926,1.70805-1.33926h.87344c1.76627,0,1.708-1.33926,1.708-1.33926Z"/><path class="cls-14" d="M33.11363,22.55991c0,.05823-2.98908.91225-3.16377-.87344v-.71815c.33-1.22281,3.16377-.65993,3.16377-.65993Zm-1.00931-1.53336s-1.26162-.23292-1.26162.31055v.15528s.13587.58229,1.26162.33Z"/></svg>