<svg id="Слой_1" data-name="Слой 1" xmlns="http://www.w3.org/2000/svg" viewBox="0 0 52 52"><defs><style>.cls-1{fill:#f4701d;}.cls-2{fill:#fff;}.cls-3{fill:#231f20;}.cls-4{fill:#bdde15;}</style></defs><title>JE</title><rect class="cls-1" width="52" height="52"/><path id="path6890" class="cls-2" d="M4.53576,29.75,3.023,27.79s-.9304-1.298.9309-3.11419a2.85624,2.85624,0,0,1,2.43467-.73411,3.41792,3.41792,0,0,1,1.8613-2.84578s2.61344-1.307,4.18831,2.54132a7.17926,7.17926,0,0,1,.1372,2.70007s-.04506.59339-.5308.62945c0,0-.55183.07161-.58488-.6625a3.34608,3.34608,0,0,0-.98448-2.989,1.28025,1.28025,0,0,0-2.04658.21482s-.76966,1.18128.83275,3.04309A.94589.94589,0,0,1,9.19578,27.79s-.39159.50125-1.11568-.03556L6.63592,26.27173s-.6655-.61142-1.08263-.0656A.84151.84151,0,0,0,5.35,27.25321L6.53126,28.798s.35854.82975-.14271,1.18178a1.13963,1.13963,0,0,1-1.57537-.033Z"/><path id="path6894" class="cls-2" d="M20.3869,26.93072l-.78769-.07161c-1.50326-.21482-.32849-2.39861-.32849-2.39861a1.27859,1.27859,0,0,0-.4592-1.324l-.17876-.17927a2.72848,2.72848,0,0,0-3.79171-.57236c-2.50277,2.21934-1.07663,4.40313-1.07663,4.40313a2.64145,2.64145,0,0,0,3.14424.76315.65246.65246,0,0,1,.64948.09814,2.40417,2.40417,0,0,0,1.84427.91889,1.75127,1.75127,0,0,0,1.70056-.671c.45319-.90086-.71607-.96646-.71607-.96646M17.10546,24.783l-.656,1.07361a.66662.66662,0,0,1-1.003.10767s-.47071-.37607.036-.93992l.8593-.88583s.86179-.35754.76365.64447"/><path id="path6898" class="cls-2" d="M21.86468,20.881s3.04558-1.00251,4.75766,1.21683c0,0,.56686.50126.316,2.07663l-.48023,2.09666s-.50676.74262-.84377-.03255l.03556-2.13321a1.664,1.664,0,0,0-1.61994-1.44368,1.07114,1.07114,0,0,0-1.18078,1.18128v1.94193a.7901.7901,0,0,1-.81473.55183s-.82324-.07762-.85879-.69505l-.25088-2.57738s-.91538-1.86982.53681-2.21934Z"/><path id="path6902" class="cls-2" d="M34.0995,24.71177a.64253.64253,0,0,0-.55183-.73711l-.033-.48022-.03255-.25038c-.09865-.82374-1.11518-.89484-1.11518-.89484-4.3831-.24788-4.52882,2.46971-4.52882,2.46971a2.93054,2.93054,0,0,0,3.41214,3.22186c.58789.036.2003.79069.2003.79069-1.28894,2.75965-4.79422,2.61043-4.79422,2.61043-1.21382.07161-.29544.70406-.29544.70406a3.70435,3.70435,0,0,0,1.50977.47722c2.55936,0,3.41264-.89485,3.41264-.89485,3.19782-2.29145,2.81624-7.01657,2.81624-7.01657m-3.11419,1.69155s-1.21733-.14622-1.25339-1.11568c0,0,.10767-.683,1.32149-.683l.1968.03556s1.08313,0,1.05008.9309c0,0,.11668,1.12719-1.315.83225"/><path id="path6906" class="cls-2" d="M34.96017,24.92609s-.32248-2.04058,3.54384-4.00954c0,0,1.79019-1.28844,3.22235-.10716a2.49106,2.49106,0,0,0,1.10967.671s4.72512,1.91238,1.8613,6.84681a6.47876,6.47876,0,0,1-5.83528,2.07612s-4.51029-.42363-3.90188-5.47724"/><path id="path6910" class="cls-2" d="M46.05989,23.8761a5.69764,5.69764,0,0,0-3.03256-3.1267l-.0631-.026-.0661-.014a1.70136,1.70136,0,0,1-.70155-.44066L42.16,20.23111l-.03655-.03054a2.90035,2.90035,0,0,0-1.89135-.67852,4.259,4.259,0,0,0-2.23787.71608A7.412,7.412,0,0,0,34.37179,23.509c-.023-.019-.04506-.03906-.0686-.05658l-.001-.011-.002-.025-.003-.025-.032-.24236a1.91131,1.91131,0,0,0-1.85379-1.58789c-.2018-.011-.4016-.017-.59289-.017a4.99,4.99,0,0,0-4.04559,1.53782,2.49669,2.49669,0,0,0-.55133-1.49926,4.59706,4.59706,0,0,0-3.76717-1.71608,6.64143,6.64143,0,0,0-1.667.21582l-.25639-.023-.12869-.01152-.12469.03a1.75555,1.75555,0,0,0-1.24538.96345,2.88791,2.88791,0,0,0,.12018,2.22986l.23786,2.44168a1.38257,1.38257,0,0,0,.11167.43716c-.02354-.002-.04907-.005-.0641-.00551l-.73961-.0671a.39353.39353,0,0,1-.0681-.01653,2.48835,2.48835,0,0,1,.3365-1.22835l.03606-.0681.022-.07111a2.02727,2.02727,0,0,0-.689-2.14823l-.11617-.11618a3.39519,3.39519,0,0,0-2.68454-1.36956,3.945,3.945,0,0,0-2.15625.686l-.032.023-.02954.02554a5.65431,5.65431,0,0,0-1.1918,1.44918C11.96956,20.509,10.232,20.09341,9.29053,20.09341a3.3209,3.3209,0,0,0-1.3936.29694l-.03655.01853-.03505.022A4.60571,4.60571,0,0,0,5.70613,23.151a3.41337,3.41337,0,0,0-2.324.98048c-2.29195,2.25439-1.05459,4.04309-1,4.1182l.008.011.00851.011,1.51228,1.96045.0716.09315.09565.0681.22884.16174a1.82378,1.82378,0,0,0,1.26891.5278,2.12439,2.12439,0,0,0,1.298-.48123A1.734,1.734,0,0,0,7.255,28.48655l-.03856-.08964-.05908-.07661-1.1247-1.47072a.2277.2277,0,0,1,.022-.03155c.01453.01.02955.02.04207.03055l1.41863,1.45619.04457.04607.05157.03756a1.84663,1.84663,0,0,0,1.10267.40311,1.42794,1.42794,0,0,0,1.06911-.47472A1.71463,1.71463,0,0,0,9.88993,26.098l-.015-.01953-.016-.019c-1.09114-1.26791-.80571-2.013-.75864-2.11418.1292-.18428.25238-.27742.36605-.27742a.87281.87281,0,0,1,.46921.22083l.01853.017.01051.00951a2.53759,2.53759,0,0,1,.72159,2.24338l-.01753.09214.004.08863a1.35877,1.35877,0,0,0,1.33351,1.41814,1.16284,1.16284,0,0,0,.1352-.00751,1.27119,1.27119,0,0,0,.94142-.56636l.021.03556.008.012.00851.012a3.04914,3.04914,0,0,0,2.5884,1.3275,4.17093,4.17093,0,0,0,1.3911-.24737,3.226,3.226,0,0,0,2.27592,1.03456h.00751c.08162.00551.16024.008.23636.008a2.45145,2.45145,0,0,0,2.16326-1.06811l.013-.02253.012-.02354a1.44258,1.44258,0,0,0,.12169-1.13421c.00951.001.02.004.03.00451l.03706.004h.03756a1.58064,1.58064,0,0,0,1.58088-1.15424l.02253-.09164v-.09464l-.0005-1.9229c.01-.38658.1337-.41612.306-.41763.73861.08163.88784.52429.91838.70156l-.03505,2.07863-.0025.17076.0676.15673a1.199,1.199,0,0,0,1.10266.82775,1.44745,1.44745,0,0,0,1.11568-.6645l.08412-.12269.033-.14571.02-.08613a3.38049,3.38049,0,0,0,.81723,1.42013,3.82247,3.82247,0,0,0,2.48975,1.05559,4.5881,4.5881,0,0,1-3.80323,1.81824c-.03556,0-.05759-.001-.0636-.001l-.04006-.0015-.03806.0025c-.74812.04407-1.1973.316-1.335.80772a1.24692,1.24692,0,0,0,.63947,1.3325l.031.02154.034.019A4.4591,4.4591,0,0,0,27.843,33.412l.01352.0005h.014c2.51078,0,3.622-.81322,3.9129-1.07261a7.44661,7.44661,0,0,0,2.70807-4.10719,4.77575,4.77575,0,0,0,.63246,1.04057,5.61768,5.61768,0,0,0,3.54183,1.91338,8.70118,8.70118,0,0,0,1.019.06059,7.119,7.119,0,0,0,5.53534-2.44167l.03-.03956.02554-.04257a5.77028,5.77028,0,0,0,.78418-4.8473m-14.5494,1.7211.00651.05408-.00151.006a.54722.54722,0,0,1-.09214.00651,1.40975,1.40975,0,0,1-.27892-.033l-.033-.006-.025-.00351a1.172,1.172,0,0,1-.45719-.17727,1.36784,1.36784,0,0,1,.36-.05057l.12018.022.07111.011.05959.0015a.6535.6535,0,0,1,.27091.07011.242.242,0,0,1,.002.04406Z"/><path id="path6914" class="cls-3" d="M4.53533,29.75061,3.02255,27.79016s-.9309-1.298.9309-3.11469a2.85518,2.85518,0,0,1,2.43467-.73361,3.42081,3.42081,0,0,1,1.8618-2.84678s2.61344-1.30647,4.18881,2.54233a7.17738,7.17738,0,0,1,.13721,2.69956s-.04457.59389-.5308.62995c0,0-.55183.07161-.58488-.662a3.3478,3.3478,0,0,0-.98449-2.99,1.28053,1.28053,0,0,0-2.04708.21482s-.76966,1.18178.83276,3.04359a.94589.94589,0,0,1-.0656,1.21683s-.39109.50125-1.11568-.03556L6.63549,26.27187s-.6655-.61192-1.08263-.0661a.84232.84232,0,0,0-.2033,1.04758l1.18177,1.54533s.358.82975-.14321,1.18178a1.1395,1.1395,0,0,1-1.57537-.033Z"/><path id="path6918" class="cls-3" d="M20.38708,26.9309l-.78769-.0716c-1.50326-.21483-.32849-2.39861-.32849-2.39861a1.27924,1.27924,0,0,0-.45869-1.325l-.17927-.17877a2.72935,2.72935,0,0,0-3.79221-.57286c-2.50327,2.21984-1.07662,4.40413-1.07662,4.40413a2.64062,2.64062,0,0,0,3.14423.76315.65406.65406,0,0,1,.65.09865,2.40619,2.40619,0,0,0,1.84428.91888,1.75211,1.75211,0,0,0,1.70056-.67151c.45318-.90086-.71608-.96646-.71608-.96646m-3.28194-2.14773-.65649,1.07362a.66617.66617,0,0,1-1.00251.10766s-.47171-.37607.036-.93992l.8593-.88633s.8623-.358.76365.645"/><path id="path6922" class="cls-3" d="M21.86422,20.88035s3.04659-1.00251,4.75867,1.21733c0,0,.56685.50126.31647,2.07613l-.48072,2.09766s-.50677.74312-.84427-.03255l.036-2.13321A1.66413,1.66413,0,0,0,24.03,22.66153a1.0708,1.0708,0,0,0-1.18078,1.18128v1.94293a.79021.79021,0,0,1-.81523.55133s-.82323-.07762-.85879-.69505l-.25088-2.57788s-.91537-1.87032.53731-2.21984Z"/><path id="path6926" class="cls-3" d="M34.09993,24.71125a.64223.64223,0,0,0-.55183-.73711l-.03255-.48022-.033-.25088c-.09865-.82324-1.11518-.89484-1.11518-.89484-4.3841-.24738-4.52932,2.47022-4.52932,2.47022a2.93069,2.93069,0,0,0,3.41214,3.22235c.58838.03605.2003.79069.2003.79069-1.28894,2.76015-4.79422,2.61093-4.79422,2.61093-1.21433.07161-.29544.70406-.29544.70406a3.69381,3.69381,0,0,0,1.50927.47722c2.56035,0,3.41364-.89485,3.41364-.89485,3.19831-2.29145,2.81624-7.01757,2.81624-7.01757M30.98524,26.4028s-1.21733-.14572-1.25339-1.11568c0,0,.10766-.683,1.32149-.683l.1968.03556s1.08363,0,1.05058.9309c0,0,.11668,1.1277-1.31548.83225"/><path id="path6930" class="cls-3" d="M34.85537,24.92609s-.32249-2.04108,3.54434-4.01c0,0,1.79019-1.28894,3.22235-.10716a2.4945,2.4945,0,0,0,1.10967.671s4.72612,1.91238,1.8618,6.84781a6.48064,6.48064,0,0,1-5.83628,2.07612s-4.5108-.42363-3.90188-5.47774"/><path id="path6934" class="cls-4" d="M41.41906,22.82557,39.97538,22.76a3.62477,3.62477,0,0,0-3.08564,1.52179l-.0656.17877a3.028,3.028,0,0,0-.358,1.39661c.14321,3.22836,3.86983,3.11469,3.86983,3.11469,3.34754.14021,3.7206-2.53582,3.7206-2.53582.60891-3.002-2.63747-3.61044-2.63747-3.61044m1.34853,2.99551a3.45732,3.45732,0,0,1-2.661,2.21984s-.61493.42965-1.84979-.75163c0,0-1.5964-1.75464.70056-3.54484l.16425-.10716a1.00629,1.00629,0,0,1,1.42614.46821l.28694.03255h.28643s1.91188-.57236,1.64648,1.683"/><path id="path6938" class="cls-4" d="M31.24514,19.34673v-.328l.20881-.21533.25038-.21482.28643-.17877.23836-.07161h.44217l.42914.03606.24487.14321.16425.17877.1998.25088.17877.301.07161.23586v.28643l-.21483.25038-.2684.27741-.304.0656h-.74612l-.328-.0656-.25088-.1342-.17877-.14321-.21483-.21483Z"/><path id="path6942" class="cls-4" d="M34.46138,17.93521v-.313l.09815-.28643.2629-.21482.42664-.17026.28643-.06509.23886.03254.1963.20281.20881.25038.03606.28643-.17877.37606-.2624.304-.27491.21483h-.35754l-.35253-.14272-.1968-.27792Z"/><path id="path6946" class="cls-4" d="M42.2309,16.58367l.20581.07161.331.033.28643-.06911.28643-.14271.21132-.17927.16474-.25038.1312-.31047v-.44166l-.16425-.28593-.307-.10766h-.645l-.22985.10766-.23535.17877-.21432.21482-.14372.26841-.03605.2689v.28593l.21532.14322Z"/><path id="path6950" class="cls-4" d="M46.21091,20.46256l-.0656.31047.0656.25038.20882.21482.28643.20882.39109.13119h.328l.355-.03254.28643-.16425.24437-.21483.22984-.322.09815-.31648-.0656-.29544-.1968-.28343-.23835-.17877-.3941-.17877-.28643-.07211-.328.03606-.31648.17877-.21482.10766-.28593.322Z"/><path id="path6954" class="cls-4" d="M33.85268,33.45919l.28643.13119.355.07161h.26239l.27792-.23535.28593-.30146.21482-.322.03606-.25088v-.27441l-.32249-.334-.39359-.28643-.22985-.036-.41462.14321-.21482.10767-.25038.20881-.13721.16375-.1317.30746v.677Z"/><path id="path6958" class="cls-4" d="M37.02139,34.37817l.304.13119H38.077l.358-.06559.25088-.13721.27191-.28643.09764-.28643v-.34l-.22884-.19679-.24787-.21483-.28694-.0711-.41712-.07211-.22985.14321-.17576.14322-.25088.13721-.16425.19729-.0651.16675-.0661.21483-.03255.25038Z"/><path id="path6962" class="cls-4" d="M47.81621,29.43733l.39409.03555.331.03606.27742-.03606.25038-.10716.322-.17927.23285-.21432.1968-.23886.14322-.1968L50,28.18444l-.10716-.28643-.26891-.24787-.23285-.2629-.28643-.16975-.25038-.10717-.21482-.03605h-.29494l-.27742.03605-.21482.10717-.21483.1377-.24487.16375-.13119.343-.09865.28643.0656.32248.09864.295.09865.27792.17577.21432Z"/><path id="path6966" class="cls-4" d="M41.35372,35.23756l.03255-.5964.37907-.44166.42915-.28643.34051-.28644.48323-.16725h.35854l.307.0656.337.17326.322.322.358.358.22985.26289.1312.31.14021.358v.44767l-.20581.41162-.29545.31047L44.2,36.84849l-.54883.21482-.48974.03555h-.39409l-.36355-.0711-.352-.21483-.358-.334-.20881-.346-.0656-.34352Z"/></svg>