<svg id="Слой_1" data-name="Слой 1" xmlns="http://www.w3.org/2000/svg" viewBox="0 0 52 52"><defs><style>.cls-1{fill:#ed1650;}.cls-2{fill:#290088;}</style></defs><title>JJ</title><path class="cls-1" d="M35.09239,11.90314,19.95723,6.48159C18.376,5.91685,17.47236,5.01326,17.47236,3.432V.4953c0-.79064.56474-.45179,1.24244-.2259C23.7975,2.07659,39.83624,7.837,41.19163,8.28878c.22589.113.33884.113.45179.22589.4518.33885,0,.90359-1.69423,1.46834a43.91377,43.91377,0,0,1-4.8568,1.92013m0,9.37476c2.59782-.90359,4.51795-1.69423,4.8568-1.80718,1.92013-.6777,2.259-1.35539,1.35539-1.69424h.11295c-.11295,0-.11295-.11295-.2259-.11295-.2259-.113-1.46834-.56474-3.27552-1.24243-2.03308.79064-4.96975,1.80718-7.90642,2.82372ZM9.79183,20.03546c0,.6777.33885.79065,1.01654.56475.33885-.113.90359-.33885,1.58129-.56475.2259-.113.33884-.113.56474-.2259h0c1.12949-.45179,2.59783-.90359,4.17911-1.46833-2.59782-.90359-5.0827-1.80718-6.43809-2.37193-.56474-.11295-.90359,0-.90359.67769v3.38847Zm2.37193-7.11578,9.9395,3.61437c2.59783-.9036,5.3086-1.92014,7.90643-2.82373C22.668,10.99955,13.858,7.837,11.03427,6.82044c-.67769-.33885-1.24244-.56474-1.24244.113V9.75711a3.15951,3.15951,0,0,0,2.37193,3.16257"/><path class="cls-2" d="M41.07868,24.77932,17.35941,33.36343V27.603s21.34734-7.79348,22.58978-8.13232c1.92013-.6777,2.259-1.35539,1.35539-1.69424.90359.33885.79064.4518.79064,2.93668.113,2.71077.113,3.61436-1.01654,4.06616M22.89391,46.4655c0-1.24243.11294-2.259-.9036-1.80718l-4.518,1.69424V52l4.29206-1.58129c1.12949-.45179,1.24243-1.24243,1.24243-2.37192V46.4655Zm7.11578-11.85963c0-1.24244.11294-2.259-.9036-1.80718L17.35941,36.9778v5.64744l11.40784-4.06616c1.12949-.45179,1.24244-1.24243,1.24244-2.37192ZM41.41752,8.40173c.90359.33884.56475,1.01654-1.35538,1.69423-1.01654.33885-20.10491,7.22873-27.10774,9.82655h0c-.2259.113-.33884.113-.56474.2259-.6777.2259-1.24244.4518-1.58129.56475-.67769.11294-1.01654,0-1.01654-.6777,0,.4518,0,1.35539.79065,1.58129l6.21218,2.259a2.09878,2.09878,0,0,0,.9036,0c.56474-.22589,23.38042-8.47116,23.38042-8.47116,1.12949-.4518,1.12949-1.35539,1.12949-4.06616,0-2.48488,0-2.59783-.79065-2.93667"/></svg>