<svg id="Слой_1" data-name="Слой 1" xmlns="http://www.w3.org/2000/svg" viewBox="0 0 52 52"><defs><style>.cls-1{fill:#e60013;}</style></defs><title>JL</title><g id="g4280"><path id="path4282" class="cls-1" d="M26.35158,40.86552H28.1931l-.07952-2.19414"/></g><g id="g4284"><path id="path4286" class="cls-1" d="M36.8556,29.04c-4.90621,4.77751-12.243,1.72643-11.497-4.13716.57548-4.52221,6.11995-9.02558,10.3157-11.47188l.00209-.05127c-.54722-.52107-1.68772-1.70551-2.42328-2.59384a4.83275,4.83275,0,0,0-7.71663.13393L13.4661,12.04561v.07533l12.94092.74812c2.29668.13079,3.04375,2.21088.82973,3.88918-8.21782,6.22249-9.68266,12.81537-7.84637,18.03756l-.06173.0293a10.54844,10.54844,0,0,1-1.626-3.749A15.44772,15.44772,0,1,1,36.8556,29.04m3.01864,14.49575H32.44535L35.08,36.674h3.27394l-2.08323,5.4074h4.16123Zm-11.58175,0-.05022-1.3508H25.28641l-1.08922,1.3508H21.49663l5.48063-6.35327a1.4123,1.4123,0,0,1,1.00657-.50851h2.92656l.655,6.86178ZM17.09161,43.767a10.54377,10.54377,0,0,1-2.27471-.23124l.55874-1.45752c1.49729.17578,2.78113.046,3.28232-1.26292L20.24941,36.674h3.27185L21.76972,41.238c-.8967,2.33435-3.10653,2.529-4.67811,2.529M49.90638,28.11189a24.14491,24.14491,0,0,0-.11928-5.308h-.04081A14.33837,14.33837,0,0,1,44.47178,30.892l-.03662-.04708A17.52259,17.52259,0,0,0,49.27859,20.1274a23.8675,23.8675,0,0,0-2.43584-6.03414l-.03662.01465a16.45317,16.45317,0,0,1-4.157,13.31445l-.045-.03557a18.684,18.684,0,0,0,2.70369-15.64253,23.99864,23.99864,0,0,0-38.61663,0A18.67986,18.67986,0,0,0,9.39381,27.38679l-.04185.03557A16.4484,16.4484,0,0,1,5.196,14.1079l-.03872-.01464A23.74766,23.74766,0,0,0,2.72351,20.1274,17.50085,17.50085,0,0,0,7.5638,30.84488l-.03558.04709a14.3329,14.3329,0,0,1-5.27451-8.08808H2.2129a24.145,24.145,0,0,0-.11928,5.308A14.44886,14.44886,0,0,0,6.485,34.42749l-.03244.05022A12.98079,12.98079,0,0,1,2.54145,30.915l-.03453.0136a24.00569,24.00569,0,0,0,46.98617,0l-.03453-.0136a12.96794,12.96794,0,0,1-3.91116,3.56273l-.03139-.05023a14.47272,14.47272,0,0,0,4.39037-6.3156"/></g></svg>