<svg id="Слой_1" data-name="Слой 1" xmlns="http://www.w3.org/2000/svg" viewBox="0 0 52 52"><defs><style>.cls-1{fill:#2a428f;}</style></defs><title>JP</title><g id="g8831"><path id="path30" class="cls-1" d="M33.948,23.71857a2.14344,2.14344,0,0,1-.38343,2.0005,4.12727,4.12727,0,0,1-2.619,1.23364s.94745,1.75043,1.267,2.51728H29.46415c-.55347-.98913-1.05248-2.00049-1.56372-3.01185-.02112-.1-.09669-.18338-.03279-.18338,1.17141-.1,2.67345.11114,3.39751-1.028a1.10292,1.10292,0,0,0,.10669-.63905c-.19171-.6446-.83075-.67239-1.36311-.69461-3.02408.05-6.88448,5.5736-6.88448,5.5736L22.35684,29.47s.8591-1.4059,1.34866-2.0505c2.19333-3.11188,5.13239-5.23463,8.68826-4.91233A2.0296,2.0296,0,0,1,33.948,23.71857"/><path id="path32" class="cls-1" d="M40.9331,22.71277l-4.89566,6.7739h-3.173c-.08892-.05,4.8123-6.7739,4.8123-6.7739H40.9331"/><path id="path34" class="cls-1" d="M13.97366,23.72969a1.78874,1.78874,0,0,0-.63905-.78909,6.0637,6.0637,0,0,0-4.59947.36676c-2.57674.96691-6.8189,5.96258-6.73388,6.16263,1.02247.09447,3.30526.0389,3.30526.0389a11.54272,11.54272,0,0,1,1.53315-2.345c1.63986-.02778,3.30082-.15,4.87677-.05L10.10659,29.47a6.62289,6.62289,0,0,0,.71518-.01111L13.3135,26.297A2.91,2.91,0,0,0,13.97366,23.72969Zm-.66016,1.03359A2.69923,2.69923,0,0,1,12.31269,26.297c-1.55482,0-3.13021.0778-4.70616,0a8.4549,8.4549,0,0,1,4.49333-2.81736,1.41485,1.41485,0,0,1,1.08583.30007,1.22083,1.22083,0,0,1,.12781.98358"/><path id="path36" class="cls-1" d="M24.04615,24.18536a3.39053,3.39053,0,0,0-3.23691-1.706c-3.91819-.02223-8.83719,7.02951-8.83719,7.02951l.31953-.01111h5.89868a7.57486,7.57486,0,0,0,4.70616-1.97827A3.56215,3.56215,0,0,0,24.04615,24.18536ZM20.213,27.4695c-1.95882,1.41146-4.47166,1.43369-6.94227,1.28365,0,0,3.81205-4.32329,6.40991-4.51778a1.65887,1.65887,0,0,1,1.78878.88911,2.56866,2.56866,0,0,1-1.25642,2.345"/><path id="path158" class="cls-1" d="M49.89642,23.66856a1.82725,1.82725,0,0,0-.639-.79464,6.081,6.081,0,0,0-4.59558.37232c-2.57841.96134-6.81835,5.96258-6.735,6.16263,1.02247.09447,3.30637.0389,3.30637.0389a11.50287,11.50287,0,0,1,1.53371-2.345c1.63929-.02778,3.30082-.15,4.87342-.05l-1.6115,2.35614s.50568.01111.71684-.01112l2.49506-3.16189A2.90142,2.90142,0,0,0,49.89642,23.66856Zm-.65572,1.03359a2.74609,2.74609,0,0,1-1.00024,1.53371c-1.55595,0-3.13411.07224-4.70673,0a8.4569,8.4569,0,0,1,4.49-2.81736,1.42446,1.42446,0,0,1,1.08916.30007,1.23784,1.23784,0,0,1,.12781.98358"/></g></svg>