<svg id="Слой_1" data-name="Слой 1" xmlns="http://www.w3.org/2000/svg" viewBox="0 0 52 52"><defs><style>.cls-1{fill:#fe5815;}</style></defs><title>JQ</title><path id="path10" d="M8.46947,28.4482c0,1.39611-.47193,2.045-1.51406,2.045a1.48126,1.48126,0,0,1-1.63217-1.63207V27.642H2v.49161c0,3.6772,1.59285,5.36827,5.01436,5.36827,3.36256,0,5.01431-1.57306,5.01431-4.81766V19.40268H8.46947V28.4482Z"/><path id="path12" d="M15.92218,28.86118a2.27592,2.27592,0,0,0,2.399,2.41865,2.10807,2.10807,0,0,0,1.98613-1.16023h3.28387c-.64893,2.45806-2.92994,3.53956-5.329,3.53956-3.48055,0-5.84021-2.104-5.84021-5.68288a5.60408,5.60408,0,0,1,5.76157-5.62392c3.83449,0,5.74193,2.871,5.58465,6.50883h-7.846ZM20.268,26.89472A2.15908,2.15908,0,0,0,18.18354,24.712a2.30894,2.30894,0,0,0-2.26137,2.18268H20.268Z"/><path id="path14" d="M30.72926,24.92832H28.5858V30.7882h2.14345v2.55629c-.64893.01969-1.27819.09833-1.92713.09833-2.98894,0-3.73621-.86518-3.73621-3.75585V24.92831H23.27656v-2.281h1.78935V19.40266h3.51987v3.24465h2.14346v2.281Z"/><polygon id="polygon16" class="cls-1" points="42.705 17.613 43.019 22.667 50 22.667 43.314 27.091 44.789 34.387 39.106 29.451 31.457 33.423 36.019 27.17 31.693 22.667 38.693 22.667 42.705 17.613"/></svg>