<svg id="Слой_1" data-name="Слой 1" xmlns="http://www.w3.org/2000/svg" viewBox="0 0 52 52"><defs><style>.cls-1{fill:#0f2d53;}</style></defs><title>JU</title><polygon class="cls-1" points="22.01 32.388 24.16 34.868 25.525 33.256 22.796 30.114 21.432 28.543 20.15 27.054 18.91 28.708 20.315 30.403 20.315 30.403 22.01 32.388"/><path class="cls-1" d="M49.42124,20.39792A8.29331,8.29331,0,0,0,43.261,17.66924a7.69387,7.69387,0,0,0-4.01035,1.447c-.04134.04134-.08269.04134-.124.08269a.04049.04049,0,0,0-.04135.04134,2.29368,2.29368,0,0,0-.33075.24807L37.26619,17.876a6.07735,6.07735,0,0,1-1.0336-1.48838,3.827,3.827,0,0,1-.16537-.78553c-.124-.62015-.20672-1.69509-.20672-1.69509a1.51046,1.51046,0,0,0-.124-.53747l-.16538-.37209a6.04691,6.04691,0,0,1,2.10854-.49613l.53746.6615V11.63306a1.32152,1.32152,0,0,0-.53746-.86822,1.50547,1.50547,0,0,0-.9509-.37209c-.53747-.08269-.62016.08269-1.0336-.28941l-.37209-.53747H33.0078l-.90957.33075s-.49613.124-.82687.9509l-.70285,2.14988a7.07064,7.07064,0,0,0-.20672,1.81912c-.04134,1.07494-.04134.04135-.04134.04135a9.88731,9.88731,0,0,1-.24807,2.10853l-.37209,1.28166a7.62738,7.62738,0,0,1-1.07494,1.90181L26.55816,22.5478h0l-.5788.6615-.57881-.6615h0l-1.28166-1.447-.16537-.20672h0l-.62016-.74418A7.44369,7.44369,0,0,1,22.21707,18.124l-.33074-1.15762a9.88731,9.88731,0,0,1-.24807-2.10853s0,1.03359-.04134-.04135a11.2513,11.2513,0,0,0-.20672-1.81912l-.70285-2.14988c-.33074-.82687-.82687-.9509-.82687-.9509l-.90957-.33074H16.63566l-.37209.53746c-.41344.37209-.49613.24807-1.0336.28941a1.71221,1.71221,0,0,0-.9509.37209,1.56747,1.56747,0,0,0-.53746.86822V13.1628l.53746-.66151a6.04667,6.04667,0,0,1,2.10854.49613l-.16538.3721a1.51046,1.51046,0,0,0-.124.53746s-.0827,1.03359-.20672,1.69509a3.82677,3.82677,0,0,1-.16537.78553,9.87961,9.87961,0,0,1-1.323,1.81912l-1.199,1.28166A7.69612,7.69612,0,0,0,8.739,17.71061,8.29319,8.29319,0,0,0,2.57881,20.4393L2,21.0181l.45478.70285a7.59969,7.59969,0,0,0,4.54781,3.14213A7.4884,7.4884,0,0,0,12.79072,23.292L11.385,21.721a4.98853,4.98853,0,0,1-3.969,1.11628A5.406,5.406,0,0,1,4.77,21.30753a5.76443,5.76443,0,0,1,3.88631-1.52972,6.02082,6.02082,0,0,1,3.88631,1.90181l3.34884,3.88631,1.36434-1.57106-2.56332-2.97675,3.01809-3.76228,1.24031-1.52973a18.38228,18.38228,0,0,0,2.2739,5.04394L17.876,24.65636h0l-1.323,1.57106h0v.04134h0l-1.447,1.65375A29.00789,29.00789,0,0,1,8.739,32.92511a3.9802,3.9802,0,0,0,2.19122.62015,3.47833,3.47833,0,0,0,2.43928-1.03359c.33075-.33075.82688-.78553,1.323-1.24031,0,0-.24807.53746.33074,1.571a2.405,2.405,0,0,0,2.14988,1.28166A4.2264,4.2264,0,0,0,20.60465,32.429l-1.11629-1.24032s-.99225,1.447-2.23256.53747a1.53915,1.53915,0,0,1-.41344-1.11629,2.21315,2.21315,0,0,1,.20672-.74418c.82688-1.40568,3.10078-4.38244,4.46512-6.11887l1.03359-1.323,1.48838,1.69509h0l.57881.66151h0l.04135.04134-2.60465,3.22481,1.199,1.323,2.77-3.01808h0l3.34884,3.72093h0l1.40568,1.57106h0l.49613.53746.33075.37209a4.16122,4.16122,0,0,0,3.26615,1.48838,2.40507,2.40507,0,0,0,2.14988-1.28166,2.09,2.09,0,0,0,.33074-1.57106c.49613.49613.99225.90957,1.323,1.24032a3.74749,3.74749,0,0,0,4.67184.41343,27.98975,27.98975,0,0,1-6.36694-5.00259l-.82687-.9509-1.6951,1.90181a3.04739,3.04739,0,0,1,.78553,1.73644,1.53912,1.53912,0,0,1-.41343,1.11629c-1.199.86822-2.27391-.62016-2.27391-.62016l-3.39019-4.093h0L27.42635,24.7804l.04134-.04135h0l1.28166-1.48837h0l.78553-.90957.33075.41344,2.19121,2.97675,1.52972-1.86047-2.522-2.9354h0l-.24806-.28942a18.36545,18.36545,0,0,0,2.23255-5.04394L34.2894,17.1318l3.01808,3.76228-.62015.70285h0l-2.522,2.9354-2.19121,2.522-.66151.74419,1.36434,1.571,1.07494-1.28166.124-.124L35.5297,26.062l.9509-1.11628,2.97675-3.43153a6.31371,6.31371,0,0,1,3.88631-1.90181A5.76437,5.76437,0,0,1,47.23,21.14214a4.84869,4.84869,0,0,1-2.646,1.52973,5.083,5.083,0,0,1-4.01035-1.15762l-1.36434,1.571a7.48836,7.48836,0,0,0,5.78813,1.57106,7.58125,7.58125,0,0,0,4.54781-3.14213L50,20.81139Z"/><path class="cls-1" d="M28.04653,36.14989l-1.40569,1.65375.16538.20671h0l.86822.99225a7.39659,7.39659,0,0,1,1.86047,3.43153,4.3458,4.3458,0,0,0,.28941-4.05169s-.124-.62015-1.77779-2.23255"/><path class="cls-1" d="M26.97159,32.96641,24.739,35.52973c-2.23256,2.06719-2.39793,2.85271-2.39793,2.85271a4.48851,4.48851,0,0,0,.28941,4.05169A7.7873,7.7873,0,0,1,24.491,39.0026l.86822-.99225h0l3.05943-3.55556h0l1.81912-2.10853-1.36433-1.6124Z"/></svg>