<svg id="Слой_1" data-name="Слой 1" xmlns="http://www.w3.org/2000/svg" viewBox="0 0 52 52"><defs><style>.cls-1{fill:#9c8761;}</style></defs><title>KC</title><path id="path196" class="cls-1" d="M6.70549,26.07375,45.20274,50c.85254-5.78626-4.51393-9.20128-4.56418-9.70211-.05834-.64022,4.27243-2.2367,4.59173-6.61773.53973-7.313-9.47844-7.77822-9.822-2.30964-.18315,2.85909,3.0001,2.92393,3.099.80068.13777-2.84289,3.08439-2.3064,3.54145.89306.46193,3.20432-3.27239,4.56093-4.76515,4.51879-2.32423-.07132-5.41672-1.96441-5.69712-4.76191-.38737-3.85264,3.9661-4.35023-1.65-3.87534a4.87523,4.87523,0,0,1-4.83971-2.88988c1.27233-1.76343,2.6338-2.98876,4.83971-2.80074,5.61607.47813,1.2626-.02432,1.65-3.91424.2804-2.82181,3.37289-4.736,5.69712-4.80567,1.49275-.04538,5.22708,1.32419,4.76515,4.56093-.45707,3.227-3.40368,3.76836-3.54145.90117-.09887-2.14594-3.28212-2.07787-3.099.80878.34361,5.5172,10.36177,5.05041,9.822-2.33234-.31444-4.334-4.48638-5.971-4.59011-6.64366C40.58669,11.4752,46.03744,7.72629,45.20273,2"/></svg>