<svg id="Слой_1" data-name="Слой 1" xmlns="http://www.w3.org/2000/svg" viewBox="0 0 52 52"><defs><style>.cls-1{fill:#e50421;}.cls-2{fill:#004795;}</style></defs><title>KE</title><path class="cls-1" d="M36.276,11.56054a17.86584,17.86584,0,0,1,12.63158,17.0697,18.66779,18.66779,0,0,1-.34139,3.414v.13656a19.98434,19.98434,0,0,1-3.687,8.53485v.06829A23.96039,23.96039,0,0,0,10.26173,7.94177l-.06828.06828a16.60279,16.60279,0,0,0-5.394,12.29019A15.84052,15.84052,0,0,0,5.8236,26.03566v.06828A10.57615,10.57615,0,0,0,26.03413,21.7341V17.15941a5.51808,5.51808,0,0,1,2.86771-4.8478h0a9.22228,9.22228,0,0,1,4.50641-1.16075,10.39556,10.39556,0,0,1,2.8677.40968Z"/><path class="cls-2" d="M47.20059,31.69978A16.6028,16.6028,0,0,1,41.80654,43.99l-.06826.06826A24.06431,24.06431,0,0,1,29.291,49.76633c-.36185.05463-.72375.0956-1.09244.12973h-.0205c-.3209.02734-.64862.05463-.97639.0683a1.85,1.85,0,0,1-.198.00684c-.34139.02046-.68962.02729-1.03785.02729-.62816,0-1.25631-.02729-1.87767-.06826-.19116-.0205-.38236-.03417-.57352-.05463-.20487-.02051-.40286-.041-.60086-.06831-.20482-.02729-.40286-.05459-.60085-.08193-.396-.06143-.79206-.13652-1.18125-.21166s-.77835-.16386-1.16071-.26626c-.00683.0068-.00683.0068-.01367,0a23.99091,23.99091,0,0,1-15.431-12.495c-.0683-.12973-.12973-.25947-.198-.396-.0751-.15024-.14336-.30043-.21166-.4575-.08193-.17749-.157-.355-.23213-.53255-.0956-.20483-.17753-.40286-.25263-.61453-.12973-.34139-.25946-.68279-.37556-1.031-.06143-.18433-.1229-.36869-.17749-.55985-.06147-.18437-.11611-.37557-.1707-.5599s-.10243-.36873-.15024-.553a.09722.09722,0,0,1-.01366-.041q-.13315-.52235-.2458-1.06515c-.08876-.41653-.16386-.833-.22533-1.25634-.0273-.198-.05459-.396-.08193-.60086s-.0478-.40286-.06826-.60086c-.02051-.19116-.03413-.38236-.05464-.57352a.51654.51654,0,0,0-.00683-.10243c-.0068-.17753-.02046-.3619-.0273-.53939-.01367-.20487-.0205-.4097-.0273-.61453S2,26.23747,2,26.03265c0-.28.00683-.5599.01363-.83986.00683-.12973.01367-.25946.0205-.396a.5158.5158,0,0,1,.00684-.10243c.00683-.2458.02729-.4848.0478-.72376v-.03413c.02729-.32093.06142-.64182.10239-.95592,0-.01367.00683-.0273.00683-.041q.06146-.47115.1434-.94226c.00684-.06826.02047-.1434.03414-.21166q.06144-.36868.1434-.73742c.07509-.36869.16386-.73059.25262-1.09245l.20483-.71691a2.70055,2.70055,0,0,1,.10244-.33456c.01362-.041.02729-.08877.04776-.13657.0683-.239.15023-.478.23216-.71013.2185-.60765.45746-1.2085.71692-1.79569.01367-.03417.02734-.06147.041-.0956.12973-.28.25946-.55306.396-.82619.29359-.58719.60769-1.15391.94225-1.71381a.05172.05172,0,0,0,.01367-.02729c.17069-.27313.33456-.53939.51209-.79885.17749-.27313.36185-.53943.553-.80569.19116-.25946.38236-.51209.57352-.76476l.01367-.01363v.06827a19.98422,19.98422,0,0,0-3.68707,8.53485v.13656a18.66849,18.66849,0,0,0-.3414,3.414A17.73028,17.73028,0,0,0,6.67025,34.0827,17.9698,17.9698,0,0,0,15.724,40.43946a9.70389,9.70389,0,0,0,2.86771.40966,9.22237,9.22237,0,0,0,4.50639-1.16071,5.51812,5.51812,0,0,0,2.86772-4.84782V30.2659A10.59231,10.59231,0,0,1,36.54906,19.68268a10.48531,10.48531,0,0,1,9.62734,6.2134v.06826A15.84071,15.84071,0,0,1,47.20059,31.69978Z"/></svg>