<svg id="Слой_1" data-name="Слой 1" xmlns="http://www.w3.org/2000/svg" viewBox="0 0 52 52"><defs><style>.cls-1{fill:#b1121a;}</style></defs><title>KK</title><path id="path22074" class="cls-1" d="M25.99916,2.92308C12.74513,2.92308,2,13.25493,2,26.0009A22.41381,22.41381,0,0,0,7.27627,40.42454L5.14582,44.0547l2.68967-2.97813.00338.00179,1.7672-1.95608-.00169-.00719L25.92989,21.02178l6.99447,13.16449L14.661,38.46307l27.16356-.0503L26.09714,8.3243,8.69205,38.00862A19.61134,19.61134,0,0,1,4.563,26.0009c0-11.25152,9.59628-20.37272,21.4362-20.37272s21.43621,9.1212,21.43621,20.37272S37.83907,46.37182,25.99915,46.37182a21.906,21.906,0,0,1-15.47907-6.28677L8.66164,41.95312a24.39891,24.39891,0,0,0,17.33751,7.1238C39.25655,49.07692,50,38.74327,50,26.00089c0-12.746-10.74344-23.07781-24.00084-23.07781"/></svg>