<svg id="Слой_1" data-name="Слой 1" xmlns="http://www.w3.org/2000/svg" viewBox="0 0 52 52"><defs><style>.cls-1{fill:#00aae7;}</style></defs><title>KL</title><path id="path2500" class="cls-1" d="M30.31775,37.47737V25.977h7.18193l2.15406,6.46861,2.1592-6.46861H49V37.47737H44.68674V28.85084l-2.8738,8.62653H37.49968l-2.87123-8.62653v8.62653Zm-19.411-6.4699L15.93722,25.977H11.62781L7.312,30.289V25.977H3V37.47865H7.312V33.16282l4.31583,4.31583h5.75144"/><path id="path2504" class="cls-1" d="M28.87962,34.60223v2.87508H17.3793V25.977h4.31326v8.62524ZM23.84791,13.39515V11.95953h1.43433V10.52135h1.4369v1.43818h1.44075v1.43562H26.71914v1.43818h-1.4369V13.39515"/><path id="path2508" class="cls-1" d="M17.3793,19.50844A2.51586,2.51586,0,1,0,14.86088,16.99a2.5181,2.5181,0,0,0,2.51842,2.51842m5.75016,0A2.51586,2.51586,0,1,0,20.61232,16.99a2.51591,2.51591,0,0,0,2.51714,2.51842m5.75016,0A2.51586,2.51586,0,1,0,26.36505,16.99a2.51837,2.51837,0,0,0,2.51457,2.51842m5.74759,0a2.51586,2.51586,0,1,0-2.512-2.51842,2.51783,2.51783,0,0,0,2.512,2.51842m.00129.71845H17.3793v2.87482H34.6285Z"/></svg>