<svg id="Слой_1" data-name="Слой 1" xmlns="http://www.w3.org/2000/svg" viewBox="0 0 52 52"><defs><style>.cls-1{fill:#a00;}</style></defs><title>KM</title><path class="cls-1" d="M21.05235,45.05729,16.20852,50l4.65991-11.69c2.56292-6.42951,4.60722-11.74264,4.54272-11.807s-5.22724,2.01706-11.47293,4.62532-11.47768,4.815-11.6268,4.90383.13056-.28958.62145-.841,2.62864-2.80744,4.75071-5.01347,3.88812-4.09972,3.92468-4.2082a64.54783,64.54783,0,0,0-4.80019-4.89937c-2.6767-2.58616-4.84008-4.7286-4.80771-4.761s5.29141,2.0206,11.68667,4.56219,11.69661,4.62106,11.78067,4.62106-2.02884-5.19418-4.69548-11.54263S15.95579,2.37624,15.995,2.33845s2.30013,2.08165,5.02432,4.70988l4.95308,4.77858,4.82615-4.96928c2.65438-2.7331,4.828-4.91845,4.83058-4.85634S33.55124,7.34469,31.006,13.73748,26.41479,25.397,26.4592,25.44133s5.10474-2.02341,11.24516-4.595,11.3681-4.73,11.617-4.79659-1.71745,2.12555-4.36951,4.87136l-4.822,4.99237,4.93507,4.86064L50,35.63477l-11.42433-4.533c-6.28335-2.49316-11.6047-4.58433-11.82518-4.647-.33978-.09667-.36939-.03242-.19419.42181.11355.29473,2.16249,5.21149,4.5532,10.92616s4.4877,10.73078,4.66,11.14691c.27969.67524.10085.562-1.66387-1.05346-1.08749-.99555-2.38453-2.23416-2.88226-2.75248s-1.89993-1.86193-3.11611-2.98575l-2.21121-2.04332-4.84383,4.94271Z"/></svg>