<svg id="Слой_1" data-name="Слой 1" xmlns="http://www.w3.org/2000/svg" viewBox="0 0 52 52"><defs><style>.cls-1{fill:#ed1c24;}</style></defs><title>KQ</title><path id="path2454" class="cls-1" d="M27.68889,3.40015A22.586,22.586,0,0,0,11.88211,9.4604C2.36184,17.96255.14783,32.27929,6.93209,41.42788c6.06995,8.19511,17.29356,9.41682,26.413,3.48425,6.878,4.20662,11.64378,1.553,13.58469-.606C49.0226,41.98059,49,37.336,49,37.336s-4.4361,3.86563-9.54451,2.02008c6.86829-8.58132,7.909-20.65821,1.91989-28.73533A17.63565,17.63565,0,0,0,27.68889,3.40015ZM29.15306,7.0363a13.53948,13.53948,0,0,1,11.76661,5.25223c4.80458,6.48042,3.29031,16.833-3.132,24.645-.28605.34745-.6044.67226-.90822,1.01C32.71,34.81328,27.01177,29.32511,24.80909,27.23716c.37977-.17128,8.51669-1.107,12.42434-7.02019,2.29321-3.4794,1.02459-11.53227-.404-9.09039a5.19662,5.19662,0,0,1-.65613.85814c-.3022.33453-.68521.72077-1.11186,1.11186a103.07756,103.07756,0,0,1-11.31248,8.28233s1.36395-3.83816,2.52429-6.97011c1.16194-3.12709-4.04663-1.83909-7.0703-.1519-.28928.15513-2.736,1.79384-2.92994,2.82812,1.26053-.25049,2.012-.31189,1.86818.05011-.09373.24889-.20038.49452-.30382.75793-.9244,2.40632-2.18494,5.64171-3.43415,8.8884a39.03963,39.03963,0,0,0-1.41406,5.758c-.13575.808-.24563,1.55787-.30383,2.22209a11.99879,11.99879,0,0,0,.30383,4.84821l7.72644.35391a.893.893,0,0,1-.3022-.202c-.50907-.4816-1.42053-1.91021-.808-5.55445.808-4.77872,2.01686-5.49462,2.2722-5.60613.42989,1.95059,3.03013,9.56873,8.88838,14.4444C24.40024,46.929,17.34771,47.45415,12.333,44.45958a12.17293,12.17293,0,0,1-1.31224-.95993,12.45821,12.45821,0,0,1-2.32391-2.374A13.48143,13.48143,0,0,1,6.979,38.09552c-3.0285-7.45331.084-17.83979,7.87834-24.797A23.28747,23.28747,0,0,1,29.15306,7.0363Z"/></svg>