<svg id="Слой_1" data-name="Слой 1" xmlns="http://www.w3.org/2000/svg" viewBox="0 0 52 52"><defs><style>.cls-1{fill:#ed1650;}.cls-2{fill:#290088;}</style></defs><title>LA</title><path class="cls-1" d="M33.69356,14.07189,20.88689,9.48443A2.63,2.63,0,0,1,18.7843,6.904V4.4191c0-.669.47786-.38229,1.0513-.19114,4.30074,1.52915,17.872,6.40333,19.01885,6.78562.19115.09557.28672.09557.38229.19114.38229.28672,0,.76458-1.43358,1.24244a37.15588,37.15588,0,0,1-4.1096,1.62473m0,7.93249c2.19816-.76458,3.82288-1.43359,4.1096-1.52916,1.62473-.57343,1.91144-1.14686,1.14687-1.43358h.09557c-.09557,0-.09557-.09557-.19115-.09557-.19114-.09558-1.24243-.47786-2.77159-1.0513-1.7203.669-4.20517,1.52916-6.69,2.38931ZM12.2854,20.95308c0,.57344.28671.669.86015.47786.28671-.09557.76457-.28671,1.338-.47786.19114-.09557.28671-.09557.47786-.19114h0c.95572-.38229,2.19816-.76458,3.53617-1.24244-2.19816-.76458-4.30075-1.52915-5.44762-2.007-.47786-.09558-.76457,0-.76457.57343v2.86716Zm2.007-6.021,8.41035,3.05831c2.19816-.76458,4.49189-1.62473,6.69005-2.38931-6.21219-2.29373-13.66682-4.96975-16.05612-5.8299-.57343-.28671-1.05129-.47786-1.05129.09557V12.256a2.67344,2.67344,0,0,0,2.007,2.676"/><path class="cls-2" d="M38.75888,24.96711,18.68873,32.2306V27.35642s18.06313-6.59448,19.11443-6.8812c1.62473-.57343,1.91144-1.14686,1.14687-1.43358.76457.28672.669.38229.669,2.48488.09557,2.29373.09557,3.0583-.86015,3.44059M23.37177,43.317c0-1.05129.09557-1.91144-.76458-1.52915L18.7843,43.22139V48L22.416,46.662c.95573-.38229,1.0513-1.05129,1.0513-2.007V43.317Zm6.021-10.03507c0-1.05129.09557-1.91144-.76458-1.52915l-9.9395,3.53617v4.7786l9.65279-3.44059c.95572-.38229,1.05129-1.0513,1.05129-2.007ZM39.0456,11.10915c.76457.28672.47786.86015-1.14687,1.43358-.86015.28672-17.01184,6.11662-22.93731,8.31478h0c-.19115.09557-.28672.09557-.47786.19115-.57344.19114-1.0513.38228-1.338.47786-.57344.09557-.86015,0-.86015-.57344,0,.38229,0,1.14687.669,1.338l5.25647,1.91145a1.77592,1.77592,0,0,0,.76458,0c.47786-.19115,19.78343-7.16791,19.78343-7.16791.95572-.38229.95572-1.14687.95572-3.4406,0-2.10259,0-2.19816-.669-2.48488"/></svg>