<svg id="Слой_1" data-name="Слой 1" xmlns="http://www.w3.org/2000/svg" viewBox="0 0 52 52"><defs><style>.cls-1{fill:#00abbf;}</style></defs><title>LG</title><path id="path3011" class="cls-1" d="M30.45467,7.23669,8.37865,33.79077a.747.747,0,0,0-.21.78242.65526.65526,0,0,0,.64773.404l34.11371.008a.53559.53559,0,0,0,.52107-.54994.50754.50754,0,0,0-.44251-.54673c-1.22814-.287-7.92678-1.73639-12.73993-3.1954-2.98216-.90267-4.14938-3.46476-3.37017-6.88463.85617-3.79184,4.49569-15.97061,4.50692-16.00588a.54641.54641,0,0,0-.23248-.691.5396.5396,0,0,0-.71829.12506"/><path id="path3015" class="cls-1" d="M26.04329,1.99038A24.00964,24.00964,0,1,1,2,26.05291,24.01282,24.01282,0,0,1,26.04329,1.99038m0,2.92765A21.11724,21.11724,0,1,0,47.15893,26.05291,21.1172,21.1172,0,0,0,26.04329,4.918"/></svg>