<svg id="Слой_1" data-name="Слой 1" xmlns="http://www.w3.org/2000/svg" viewBox="0 0 52 52"><defs><style>.cls-1{fill:#efae00;}</style></defs><title>LH</title><path class="cls-1" d="M26.37986,1.99986A24.00166,24.00166,0,1,0,50,26.05837C50,12.88809,39.33346,1.99986,26.37986,1.99986ZM25.97078,47.4835A21.48342,21.48342,0,1,1,47.47919,26.11674,21.42347,21.42347,0,0,1,25.97078,47.4835Z"/><path class="cls-1" d="M34.46828,21.66827l-.35177.8778c1.93416-.11674,2.63769-.11674,4.16165-.11674,2.6377,0,4.68874.11674,6.388.23461l-.82041,1.11239c-3.04792-.11786-4.39542-.17623-6.68135-.17623-1.23062,0-2.16792.05837-3.63343.11673l-.40909.8778c1.288-.11674,3.10522-.174,4.9225-.174s3.92676.05725,5.15627.11562l-.82042,1.054c-.87886-.05837-2.51969-.05837-3.80876-.05837a55.84382,55.84382,0,0,0-5.9778.29185l-.41021.76105a60.79751,60.79751,0,0,1,6.68134-.35021,26.11087,26.11087,0,0,1,2.9299.11673l-.9373,1.1124c-1.64083-.11674-2.169-.11674-2.813-.11674-4.51341,0-7.50287.64319-10.49122,2.34153a17.0012,17.0012,0,0,0,11.37008,4.6247c.35064,0,.52709,0,1.40595-.05949L38.395,36.24392c-10.84187-2.868-12.776-3.629-22.739-9.54123a49.62368,49.62368,0,0,0-9.72925-4.50684l.35177-1.23025a23.145,23.145,0,0,1,3.16478.93728l.58666-1.347,10.66542,4.508h.00112l-.29332.58483a34.47456,34.47456,0,0,1-5.21695-1.93183l-.29221.52646.87886.46921c3.0479,1.57935,4.10208,1.93069,5.80248,1.93069,3.575,0,6.27113-1.98906,7.5602-5.56086a41.61272,41.61272,0,0,1,8.38061-.64319,63.25565,63.25565,0,0,1,8.55706.52646l-.82042.99565c-1.46551-.17623-4.22009-.35134-6.15425-.35134C36.69576,21.60991,35.28869,21.60991,34.46828,21.66827Z"/></svg>