<svg id="Слой_1" data-name="Слой 1" xmlns="http://www.w3.org/2000/svg" viewBox="0 0 52 52"><defs><style>.cls-1{fill:#1c2d5b;}</style></defs><title>LO</title><path id="path18" class="cls-1" d="M26.65833,27.071a5.12521,5.12521,0,0,0,.18862-1.0773,2.96891,2.96891,0,0,0-2.74707-3.11741h-.95812a3.05846,3.05846,0,0,0-2.753,3.11741,4.08888,4.08888,0,0,0,.20586,1.20806,2.85562,2.85562,0,0,0,2.52495,1.90935c1.67567.06353,2.90589-.3078,3.53873-2.04011ZM24.01419,17.8727H49l-1.30434,5.00361H42.611l-3.01449,11.251H33.98793l3.01547-11.251H31.72547a5.55551,5.55551,0,0,1,.82047,3.11741c-.25092,3.71676-2.32476,7.97968-8.67408,8.122H8.60863v.01157H3L7.35452,17.87836h5.60863L9.95335,29.11113h5.14717A8.77735,8.77735,0,0,1,14.53,25.99372c0-3.784,2.88964-8.11536,9.00527-8.11536.15957,0,.31347,0,.47328.01059h0Z"/><path id="path22" class="cls-1" d="M26.68147,26.98533l-.06254.15981H23.438l.96378.68972h0a.95463.95463,0,0,1,.20488,1.15709h0l-1.818-1.84681-2.194.00567-.03448-.08545h0c.752-.19921,1.48212-.43289,2.143-.64934h0l1.65819-3.49932h0c.17705.35877.65032.706.3078,1.24745h0l-1.28784,2.03543h0c.7636-.20586.95222.54641,1.15709.68972a1.467,1.467,0,0,0,.83771.0394c.25683-.05688.01748-.31938.23368-.31938,1.0544,0,.64934.46737.935.4164.0394,0,.09628-.04605.13666-.04039Z"/></svg>