<svg id="Слой_1" data-name="Слой 1" xmlns="http://www.w3.org/2000/svg" viewBox="0 0 52 52"><defs><style>.cls-1{fill:#001246;}</style></defs><title>LY</title><path id="path22" class="cls-1" d="M13.3419,14.32232c2.523-.0494,5.05149-.00658,7.57558-.02086H49.35667a.61523.61523,0,0,1,.63019.49736,1.66384,1.66384,0,0,1-.24153.96177c-.46112.95957-.89479,1.93122-1.35263,2.8908a2.155,2.155,0,0,1-1.05619,1.03423,4.00672,4.00672,0,0,1-1.60625.17457q-16.68768-.00165-33.37428-.0011a5.90477,5.90477,0,0,1-1.6304-.09772c-.43148-.18445-.38866-.74987-.23166-1.11.50944-1.07815,1.00459-2.16289,1.51293-3.24213a2.20087,2.20087,0,0,1,1.33506-1.08694Z"/><path id="path26" class="cls-1" d="M24.65587,23.3735a28.88038,28.88038,0,0,1,1.99052-2.19912,1.64516,1.64516,0,0,1,.32169.49077c.2119.56872.42709,1.13744.64008,1.70725.88492.02525,1.77861-.0494,2.66023.03953.34914.0516.29533.50833.123.72242-.54128.70925-1.17148,1.34494-1.73031,2.03992.236.55774.44246,1.12646.65107,1.69408.07684.23165.10539.61263-.20531.66972a16.6341,16.6341,0,0,1-2.58449.1087c-.594.61043-1.1034,1.301-1.69736,1.91256a.39439.39439,0,0,1-.38647.12845,21.80845,21.80845,0,0,1-.81466-2.0465c-.8948-.03843-1.79728.05489-2.68548-.04941-.37987-.04611-.32718-.51712-.14273-.74438.54017-.71694,1.2033-1.33726,1.7314-2.06408-.19543-.63788-.50943-1.23515-.67741-1.88072-.08564-.30412.23935-.493.50174-.49845.76524-.06807,1.536-.01317,2.30451-.03074Z"/><path id="path28" class="cls-1" d="M5.13941,32.17764c5.40282-.03623,10.80783-.00439,16.21175-.01537q9.7758.00165,19.55269.0022a.64653.64653,0,0,1,.72572.6335,1.56156,1.56156,0,0,1-.23056.7839q-.67191,1.42783-1.33286,2.86006a2.0251,2.0251,0,0,1-1.91585,1.25272q-17.77791-.01154-35.55694-.00549c-.51931,0-.72132-.6291-.51163-1.03863.35133-.82453.75317-1.6271,1.12536-2.44175A4.82548,4.82548,0,0,1,4.05138,32.731,1.97162,1.97162,0,0,1,5.13941,32.17764Z"/></svg>