<svg id="Слой_1" data-name="Слой 1" xmlns="http://www.w3.org/2000/svg" viewBox="0 0 52 52"><defs><style>.cls-1{fill:#007b5e;}</style></defs><title>ME</title><g id="g2857"><path id="path2859" class="cls-1" d="M34.55668,42.8924a15.79031,15.79031,0,0,1-3.04183-.36977,7.80483,7.80483,0,0,1-2.45749-.95412c-.143-.07827-.19029-.10661-.32929-.18353-.06748,0-.15924-.12686-.22672-.12686a2.1104,2.1104,0,0,1-.97706-1.39541,2.68579,2.68579,0,0,1,.614-2.054h.004a2.973,2.973,0,0,1,.49527-.49663c.21323-.15789.48988-.081.69771-.15789.1363,0,.20917-.46559.48718-.39.27935.15654.07422.46693-.14035.62348v.23212a1.7092,1.7092,0,0,0,.4197.02024c-.13495.22672-.26586.23077-.34818.36707,0,.07557.27935.07557.27935.15115-.21052.23482-.62483.081-.90553.23482v.15654c.695-.07692,1.46154-.61943,2.15924-.23347a2.96154,2.96154,0,0,0-.35087.15655c.35087.22942.699,0,1.04453.07692.41836.1525.83536,0,1.25641.07557-.06882-.15249-.2807-.07557-.35222-.23211a3.25139,3.25139,0,0,1,1.67341.309,1.10762,1.10762,0,0,0-.834-.386c-.21052,0-.4197-.23347-.556-.46693v-.04589c0-.06073.00944-.10661.06882-.10661a1.00569,1.00569,0,0,1,.55466.10661.59666.59666,0,0,0,.48853.04589c.26046-.1417.46289.1228.71255-.04049h.0081a.37587.37587,0,0,1,.04588-.03509c-.278-.31039-.76653,0-1.04454-.386.278-.15655.556,0,.83536-.23347.14035-.15655.48853-.15655.76383-.15655a4.777,4.777,0,0,1,1.04589.07963c.06882,0,.21187.15384.27935.15384.278,0,.556.30769.834.15655,0-.07558-.1363-.15655-.20648-.23347a.65755.65755,0,0,1-.62753-.23347c0-.07692,0-.15654.06883-.15654.34548,0,.62888.39.97571.23346-.556-.386-1.18084-.15384-1.74224-.46288-.34683-.23347-.834-.309-1.11471-.69906-.06748.15655-.20783.081-.27666.081s-.06882-.15654-.13765-.15654c-.35088,0-.76788.07557-.76788-.23347,0-.31039.417-.22942.62618-.22942.76788-.15655,1.39271.31039,2.15789.386.07423,0,.07423.1525.07423.23347,0,.1525-.143.07558-.21188.07558a5.41156,5.41156,0,0,0,1.11336.07692,5.2506,5.2506,0,0,1,1.53307.23212c.2807.07692.556.23347.8367.07692-.21187-.1525-.62618.07962-.556-.309,0-.1525.2753,0,.4143-.07692l-.07017-.07558c.07017-.15654.21187-.081.35088-.081-.48718-.22807-.97571-.46289-1.46424-.695.27935-.46693.76923-.15249,1.18353-.15249,0,0,0-.15655-.07017-.15655.143-.23347.35088.07558.55735,0-.06882-.15789-.20647-.15789-.34548-.23347-.48853-.07692-.9757-.23346-1.46288-.309.07017-.15384.417.07558.34817-.23347-.1417-.386-.63023-.31039-.90688-.46288a1.27481,1.27481,0,0,1,.90688-.15655c.34683.07962.76654-.07557,1.11471,0-.556-.54251-1.32523.07962-1.95141-.46289.139-.15519.34952-.23212.41835-.46558.41835.15249.90688-.07693,1.32119,0a15.71639,15.71639,0,0,0-1.57085-.5884c-.03239-.01079-.06478-.02294-.09852-.03239a.87045.87045,0,0,0-.65047.03239,3.67438,3.67438,0,0,1-.39406.12281,1.91261,1.91261,0,0,1-1.46424-.07692.77324.77324,0,0,1,.09582-.04589,1.97129,1.97129,0,0,1,.81106-.18623h.417c.14035,0,0-.23077.14035-.23077a3.43761,3.43761,0,0,1,.90418,0,4.804,4.804,0,0,0,1.23077.417c.17274.03644.34278.07962.51012.12281.06883.081.139.15654.21188.23212.4143.081.834.081,1.112.386.06882.081.13765,0,.13765-.07557-.06613-.36033-.12955-.52227.1471-.66532l.06208-.03239a.55139.55139,0,0,0-.41971-.38461c.48853-.15655,1.04994-.23212,1.39542.31039h.21052c0-.1579.14035-.23347.20918-.31039.34818-.07962.55735.31039.90553.31039a17.24584,17.24584,0,0,1,1.94467-.1579c-.48043-.15249-.90148-.23211-1.38866-.38461a.60616.60616,0,0,1-.48853-.1579c.20918-.22807.62753-.15249.834-.07557.1417.07557.1417-.309.21052-.23347a3.86622,3.86622,0,0,1,.97571.309,7.455,7.455,0,0,1,.90419.39c-.27666-.61809-1.18219-.54251-1.18219-1.085-.07018-.3023.46559.21187.68016-.05668-1.31714-.31309-2.63428-.18894-3.95412-.40891-.07017-.07692-.139-.1525-.20647-.22942a1.87445,1.87445,0,0,1,1.25371-.31039c.06882.07692.1336.07692.20513.15385a2.224,2.224,0,0,1,.7004.07557v-.1525a9.48322,9.48322,0,0,0-1.46289-.15654c-.35087-.1525-.77058.07962-1.11606.15654-1.18623.07693-2.36842-.15654-3.55195-.07692a12.67231,12.67231,0,0,0-1.73954,0,5.121,5.121,0,0,1-1.53307,0,3.77836,3.77836,0,0,0-1.32388.07692,1.98274,1.98274,0,0,1-.973-.15654.08813.08813,0,0,1,.06612-.1525c.90689-.15655,1.74224.07692,2.57625,0-.34548-.31039-.834-.15655-1.251-.23347-.07018,0-.14035-.15654-.20783-.23212a1.76565,1.76565,0,0,1,.90149-.07827c.07422,0,.07422.07827.07422.15385h1.32119l-.07018-.07558c.90823-.23077,1.80972-.07827,2.71795-.23077-.62888-.23211-1.39676.07288-2.02159-.15654a.60509.60509,0,0,1,.62483-.07557c-.06748-.15655-.34548-.081-.413-.23347a7.8,7.8,0,0,1,1.8772-.15655c0-.15249-.13765-.31039,0-.46289a.37851.37851,0,0,0,.27935.22942c.4197-.07692.76518-.15249,1.04588.23347a.94835.94835,0,0,1-.62618.15655c.20648.309.55736,0,.834.07692.06883,0,.06883.07557.06883.15655a2.61586,2.61586,0,0,0,1.32388-.15655c.06883,0,.20918.309.34548.07557-.4143-.22807-.90283-.15249-1.25236-.386a11.22047,11.22047,0,0,1-1.11336-.85155.391.391,0,0,1,.55871,0,1.65646,1.65646,0,0,0,.55465.23347c.14035.07557.07153-.23347.20783-.23347a1.253,1.253,0,0,1,.90823.07557,3.61679,3.61679,0,0,0,1.32389.23347c.06882,0,.06882-.07557.14035-.1525,0,.08907.07017.07423.1282.07693-.4089-.34683-.92307-.0189-1.31444-.3104a3.07448,3.07448,0,0,0-.48718-.39.59378.59378,0,0,1,.76519.15655c0-.07423,0-.23212.06747-.23212.14305,0,.2834.23212.42105.15789-.20917-.31039-.55735-.15789-.834-.39136-.48853-.22942-1.11876-.07692-1.60594-.309,0-.07693.07287-.07693.1417-.07693a.08912.08912,0,0,0-.06883-.15249,2.204,2.204,0,0,1-1.39541-.31039,1.57792,1.57792,0,0,1,1.32254,0,4.91955,4.91955,0,0,0,.556.31039c.07288,0,.28206.07692.28206-.081-.07153-.07558-.14036-.22942-.28206-.309.21053-.22807.48853.23347.69906,0a.2984.2984,0,0,1-.06883-.22807c.34548-.23481.90284.22807,1.11606,0,.34278-.31579.55736.07558.90554,0a2.51638,2.51638,0,0,0-.94332-.44129,6.48044,6.48044,0,0,1-1.35628-.41566c.06748-.15249.20918-.15249.34683-.15249-.21053-.23347-.48853-.23347-.76788-.386a2.43456,2.43456,0,0,1,1.04453,0c.2807.07558.55736.22942.83941.309a.743.743,0,0,1,.34818.30905,1.47773,1.47773,0,0,0-.90689-.85156.0911.0911,0,0,1,.07018-.15654c.1363-.07692.27935.07692.4197.15654a.09143.09143,0,0,0,.06883-.15654.24471.24471,0,0,1-.14035-.07692c.27665-.309.55735,0,.834,0,.06882,0,.14305.15384.21187.23346a.31181.31181,0,0,1,.06748-.23346,9.05048,9.05048,0,0,0-2.2996-.776,15.59329,15.59329,0,0,0-1.87854-.07558c-1.251-.07692-2.50607,0-3.75978-.15249.69635-.39,1.53306.07557,2.22807-.23212-.07018-.1579-.28205-.07828-.34953-.23482.48853-.309,1.11336.23482,1.53306-.07557-.62483-.23347-1.32253-.15655-1.95276-.38732a.41893.41893,0,0,1,.39406-.18218c-.08232-.08233-.22942-.22268-.04319-.36033.21053-.07962.48853.07692.69906,0-.69906-.15519-1.46424-.15519-1.95277-.77463a11.51438,11.51438,0,0,1,2.8556-.386,2.33284,2.33284,0,0,1,1.46154,0,.70847.70847,0,0,1,.34953.309c.13765-.23347-.07288-.23347-.1417-.309a3.23987,3.23987,0,0,0-1.18219-.46694c-.2753-.07557-.556-.07557-.834-.15249-.8367-.309-1.67476,0-2.57624-.15655-.1417-.07692-.34953.07557-.55736.07557.06883.1579.34548,0,.27665.1579-.20782.386-.695.07557-1.112.1525a5.83976,5.83976,0,0,1-2.29824-.22942c.55735-.309,1.18218,0,1.81106-.081-.07287-.07557.135-.15249,0-.22807.34683-.23212.62349.22807.97166.07558.07153-.07558-.1363-.23212-.06747-.39.06747-.15249.20647,0,.34548-.07557v-.1525c.5614-.39,1.04993,0,1.60054.22807-.274-.22807-.62484-.309-.83131-.61808a.15561.15561,0,0,1,.13765-.22942A3.72872,3.72872,0,0,1,38.249,17.64a2.97749,2.97749,0,0,0-2.15925-.53981,12.55714,12.55714,0,0,1-3.41025.07692c-1.67612-.23212-3.20783-.39-4.87315-.77463-.07422-.07692-.21322-.15789-.21322-.23347,0-.31039.35087,0,.4197-.23346l-.06883-.07693a.31659.31659,0,0,1,.48718,0,.09167.09167,0,0,1-.07287.15655h-.13765c-.06883.31039.2807.15384.34818.15384a5.18511,5.18511,0,0,0,1.53306-.07692c.62618-.15654,1.25236.23347,1.87854.31039-.06882-.07692-.27665-.07692-.20782-.23347.20782-.31039.62618-.07692.90688-.07692a4.98927,4.98927,0,0,1,1.73819.386c.14035,0,.28205.15654.4197.081.20918,0-.06882-.081-.06882-.15655-.76654-.46693-1.60054-.31039-2.2996-.8529a.08891.08891,0,0,1,.07153-.1525c.139-.07962.20782.1525.34413.07558-.62484-.69906-1.66937,0-2.43725-.46559.1417-.23347,0-.46289.07422-.61943.06748-.23347.41431-.07557.69366-.07557a.24377.24377,0,0,0,.20783.07557,6.9108,6.9108,0,0,1,1.32523.46694c.13631.07557-.06882-.081-.06882-.1579a.15721.15721,0,0,1,.1363-.1525.25294.25294,0,0,1,.2834.22942,1.28324,1.28324,0,0,1,.76248,0c.20918.15655.35088.46559.62888.46559-.07287-.23212-.278-.309-.4197-.46559a.08861.08861,0,0,1,.06748-.15249h.35222c-.21052,0-.35222-.07693-.48853-.07693-.42105-.07557-.6977-.39-1.04588-.54251.06883-.15654.2807-.07557.417-.15654-.417-.309-1.04453,0-1.46153-.386a1.62248,1.62248,0,0,1,1.18758-.15654,4.34737,4.34737,0,0,0-1.39541-.07558.4486.4486,0,0,1-.55736-.23346c-.06882-.1525.27666-.07693.14035-.22942-.2834-.15655-.62887.07692-.97705-.07963l.06882-.07692c-.34548-.31039-.69635-.15385-1.04318-.07692.20917.15384-.07018.15384-.07018.23347-.48718,0-.97571.15249-1.45884.15249-.49257.07693-1.04993.23482-1.46288.31039-.28071,0-.48853-.386-.83941-.46288.07017-.15655.28205-.07963.41835-.07963a12.72119,12.72119,0,0,0,1.74224,0c.1417,0,.48718.23212.556-.15384-.1363,0-.27666.07692-.34683-.07693.48448-.23211.97706,0,1.46154-.23211-.278,0-.48448-.23347-.69771-.3104.21323-.38461.48988-.07962.69771.07693.1363.081.20917-.15655.34683-.07693a1.19757,1.19757,0,0,0,1.18488.386,2.00356,2.00356,0,0,1-1.11336-.61808,2.3058,2.3058,0,0,1,1.60054.23211,1.76,1.76,0,0,0-1.04453-.5425,23.74578,23.74578,0,0,0-4.66532-.15655c-.14035,0-.55736.31444-.62618.081-.06883-.39.48583-.15789.69366-.39-.274-.22807-.62484.15654-.76249-.1525a3.715,3.715,0,0,1,2.22672.1525c-.06747-.309-.4197-.07692-.48852-.309a.15778.15778,0,0,1,.143-.15385c.34548,0,.76249.23482,1.04319.15385.41565-.15385.90418.081,1.32119.081a1.52488,1.52488,0,0,0-.90554-.39137c-.62483-.23346-1.32118-.07557-1.946-.46153l.06747-.081a.23469.23469,0,0,1-.1363-.07557c.48178-.54251,1.112.07557,1.59919,0a.35811.35811,0,0,1-.2807-.15249c.21322-.1579.4197,0,.62753-.081-1.25236-.309-2.50877-.309-3.82726-.54251-.14035,0-.07153-.15249-.07153-.22942.48853-.46558,1.11606,0,1.67207-.23346a10.81013,10.81013,0,0,0-2.15925-.07693,12.07972,12.07972,0,0,1-1.88529.07557l.004.00136c0,.07692.278.15789.06748.23346a4.93138,4.93138,0,0,0-1.03914.1525c.27665.07692.62618-.07557.90284.07692-.62619.39-1.46424.15655-2.0216.62349-.1363.15249-.48853,0-.69365.07557-.41836.23347-.97571.23347-1.39407.54386a2.89212,2.89212,0,0,0,1.59919-.23482c.07423,0,.143.1525.143.1525.48853-.309.97166-.1525,1.52767-.22807.07422-.081.21322,0,.21322-.15655.06883.15655.28071.309.06883.38462-.48853.15789-.90688.46693-1.39.31039a1.71738,1.71738,0,0,0-.63023.07962c-.13765.07692-.278.23482-.48853.23482.06882.07557-.27665.15115-.06748.15115.1363,0,.21053-.15115.41836-.15115.13765,0,.06882.30769.20512.22807.07423-.1525.28071-.22807.35223-.1525.62348.07558,1.31849-.31039,1.88124,0,0,0-.1417.309-.2807.309a15.69914,15.69914,0,0,0-2.02024.23347,4.71585,4.71585,0,0,1-1.80972,0,.96645.96645,0,0,0-.90553.23347c.2807.07692.556-.081.76788.07692-.27935.30769-.69906.30769-1.04454.54251-.143.15115-.34817.22807-.48852.46154.834-.386,1.74224-.53846,2.57894-.8529.13631-.07557.20648.31444,0,.39136-.11875,0-.23346.15655-.34817.166.25371.03644.50742-.085.76113-.01484.143,0,.4197,0,.48853-.15115,0-.07692-.20918-.15789-.278-.23482.4197-.30769,1.39136-.46558,1.32118.3104,0,.15249-.20648.07557-.2753.07557-.13765-.07557,0-.22807-.06883-.309-.14305-.07693-.27935.15789-.4197.081,0,.22807.4197.07692.35088.38461-.07423.07693-.1417.23077-.21053.23077-.83941-.15384-1.53306.23212-2.29824.15655-.28071,0-.76789-.15655-.97571.07557.139,0,.34548,0,.4197.15655,0,.15384-.2807.15384-.35088.31039a.24.24,0,0,1,.20783.07557.61942.61942,0,0,1,.48853-.15654,25.00707,25.00707,0,0,1,3.34413-.309c.20918,0,.69635-.07693.69635.15789-.07017.38462-.62618.15115-1.04723.23212-.1363.07557-.274.309-.34818.309-.48853.1525-.90148-.15654-1.39-.07692,0,.07692,0,.15384-.06748.15384h-.977l.06882.07558c-.06882.15654-.27935.081-.417.081a2.70858,2.70858,0,0,0-1.74224-.31039c.14035,0,.35222-.07962.48853,0,.14035.07692.20647.15384.34548.15384.143.07558,0,.38462-.06748.38462a3.51485,3.51485,0,0,0-1.53306-.07557c.14305.23347.4197-.07693.48853.15789,0,.30769-.34548,0-.41971.23212-.4143-.23212-.834.22807-1.31849.1525.417.23347.83536-.07693,1.31849.07557a.92561.92561,0,0,0,.41971-.1525,3.97585,3.97585,0,0,1,1.88124.1525s0,.1579-.06883.1579h-.55736c-.07287,0-.07287.15249-.07287.15249.41835.1579.83806-.23347,1.25506.1579-.06882.07422-.13765.23211-.27935.15249-.27665-.07827-.55736,0-.834-.07827,0,.15789-.21187.07827-.1417.15789.21053.1525.48718.07558.69906.07558,0,.07692.27665.07692.06747.23347a.10167.10167,0,0,1-.06747.03373c.26315.10932.57894.05533.834.19569a.09065.09065,0,0,1-.07017.15654h-.27665c.14035.23347.48852-.07692.55735.23347a.15616.15616,0,0,1-.13765.1525,3.71347,3.71347,0,0,1-2.23212-.386.0923.0923,0,0,1,.07422-.15654c.41431-.07693.69366.23346,1.108.23346-.41431-.31039-1.04454-.15384-1.46019-.53981a.54615.54615,0,0,1,.48853-.15654c-.41836-.23347-.76653.07692-1.18624,0-.20648-.07558-.34548-.23347-.556-.1552v.1552c-.55736.23347-1.11471.23347-1.67072.46289.48718.07962.90823-.22942,1.39271,0-.06747.15654-.34817.07962-.34817.309a2.07846,2.07846,0,0,1,.9757.081c-.83805.309-1.81376.1525-2.64507.61943a3.75632,3.75632,0,0,1,1.60054-.15789c.13765,0,.06883.23347.13765.23347a3.08271,3.08271,0,0,1,1.88124.15654c.07018.07693.14035.1525.20783.23347-.34548.1525-.76518-.081-1.11336-.081a4.87613,4.87613,0,0,0-2.7139.61943,4.75611,4.75611,0,0,1,1.807-.309c.07287,0,.21052.23212.278.15654a9.351,9.351,0,0,0,1.46424.07558,2.95667,2.95667,0,0,1,1.80971.07692c-.2753.15655-.62618,0-.90553.081,0,0,0,.1525.07287.1525-.90688.46559-1.81241,0-2.78812.15789a3.28171,3.28171,0,0,1-1.18084.23212c.62349.07558,1.32254-.31444,1.8799,0a2.72505,2.72505,0,0,0,1.39.1525c.07422,0,.07422.07557.07422.15655.27666,0,.27666.15249.34278.386-.695.1525-1.31848-.23347-2.01889-.23347-.06882,0-.06882.1579-.06882.1579.2807.07557.55735-.081.76923.15249-.14305.15655-.21188.386-.35223.46559-.48853.07692-.90418-.15654-1.39271.07692.35222,0,.76923-.07692.8367.23212.06748.15385-.21052,0-.27935.15385-.41565-.22942-.834.07557-1.25236.07557.20648.1579.41835-.07557.62618,0,.06883,0,.06883.081.06883.1579-.06883.07557-.06883.15519-.13631.15519-.21322,0-.4197.07692-.62888.07692a13.10556,13.10556,0,0,1-1.73819,0c0,.1525-.21052.07693-.1417.1525.27935.081.62483-.22942.90419,0-.417.39-.973,0-1.39272.23347-.20782.15655-.48718.23347-.62483.46694.556-.07693,1.04454-.38732,1.60054-.23347,0,.15654-.20783.15654-.20783.23347.139.07557.41971-.07693.556.07557-.34818.31039-.83536.31039-1.18084.54251.20783.07692.48718-.1525.41431,0-.20648.386-.76518.54386-1.11471.8529.2807-.07692.55735-.15789.83941-.23347a4.16233,4.16233,0,0,1,1.38731-.23346c.21187.081.14305.309,0,.39a7.35476,7.35476,0,0,0-1.807.22942,1.66182,1.66182,0,0,0-.83806.61943c.41836-.22942.83806-.61943,1.32659-.46289.13765,0,.417,0,.48448.1579,0,.15115-.34683.38461-.278.38461.41835.15385.90688-.15654,1.32388.07693-.31713.28475-.92307.17814-1.18758.56815a.60822.60822,0,0,0-.06343.1255c.13091-.04453.25911-.09176.38867-.1255a1.54016,1.54016,0,0,1,.23751-.02564A8.92432,8.92432,0,0,1,13.94535,24.3a4.74126,4.74126,0,0,1-.83671.25911c-1.32794.29015-2.68421.07962-4.00135.37787a.98172.98172,0,0,1,.65992.29149c-.41836.23347-.90689-.07557-1.25237.15655-.2807.1525-.69365.07692-.90553.46289.417-.07693.90553-.53981,1.11336-.07693.06883.23482-.556,0-.4143.386,0,.081.4143-.15115.55195.081,0,.07557-.20512,0-.20512.1525.556.07557,1.112-.1525,1.60054.07557-.41971.23347-.90689.08232-1.32254.15655v.15384c.06882.07962.278,0,.20917.07962-.14035.23347-.5587.07693-.77057.3104a1.39968,1.39968,0,0,1,.77057.15249c.13631.15655.556-.15249.62484.07962.06882.386-.48853.3104-.76519.3104-.76788,0-1.53306,0-2.29959.07557v.15789a1.01862,1.01862,0,0,1,.83536,0c-.62483.46154-1.38732.22807-2.08907.54116a2.41818,2.41818,0,0,1,1.25371.23077c-.41431.38867-.97166.1552-1.46019.309.97166.15655,2.01619-.15384,2.9919.07963,0,.15384-.139.07692-.20782.15384-.27935.07558-.55736-.07692-.83671.07558a1.78967,1.78967,0,0,1-.62483.15654.35507.35507,0,0,1-.27666.1525c.41431.15789.76384-.309,1.18084-.1525.20918.1525.55736,0,.48853.23347,0,.1525-.34818.07692-.48853.386.20918,0,.48853-.07693.62618.15114a2.55279,2.55279,0,0,1-1.67071.23482,5.56057,5.56057,0,0,0-1.94872,0c.20513.07557.41835,0,.556.23347a4.18747,4.18747,0,0,1-.9757.54251.90222.90222,0,0,0,.48852-.1579c.06748,0,.20918.1579.34953.081,0-.081,0-.15655.06748-.15655.2807,0,.5587-.07692.76923.07557-.143.1579-.4197-.07557-.48853.23347.48853.07693,1.18219-.309,1.60189.07693a4.91063,4.91063,0,0,1-1.2969.49662A5.37622,5.37622,0,0,0,3.5,32.74125c.21053,0,.556-.081.69771-.081A12.0709,12.0709,0,0,1,7.052,32.43086c.20647,0,.62618-.07557.55735.22942-.14035.46694-.62753.62214-1.18488.62214,0,0,0,.15384.06882.15384.282-.07557.55871,0,.76518-.15384a2.47411,2.47411,0,0,0,.63024-.309.89111.89111,0,0,1,.62617-.07962.31357.31357,0,0,1,.06883.23347c-.417.46559-.97436.46559-1.53171.61808.417.1579.83671-.15249,1.31984-.15249.4197.07692.77057-.23212,1.25641-.15655-.06883-.15384-.34953-.07557-.27936-.23347.1417-.22942.63023-.8475.83806-.54251.13765.1579-.282.31309-.20783.31309.48718.54251.97031-.38866,1.60054-.15519v-.1579c-.21052-.07557-.4197.081-.63023-.07557.48853-.31039,1.11876-.31039,1.60594-.61943.03374,0-.01484-.01755-.07557-.04589-.06073-.03239-.13361-.06747-.13361-.10661,0-.31039.274-.23347.41566-.23347a3.96145,3.96145,0,0,1,2.64642-.23347,2.95079,2.95079,0,0,1-1.39406.23347c.21188.30769.70041-.23347.76788.23347a.25943.25943,0,0,1,.00675.10661.32248.32248,0,0,1-.42645.20378c.07152.38462.48853,0,.4197.23212,0,.07557-.1417.305-.21052.305-.34548.1579-.76519-.07557-1.11336,0-.48853.1579-.97706-.07557-1.46424.23347a.09183.09183,0,0,0,.07422.15655c-.35088.23212-.76788,0-1.04453.386h-.21188c.48853.07962.90553-.07557,1.39271,0l-.06882.07962.06882.07693c-.21052.07692-.34682.31039-.556.386-.4197.07692-.83671-.1525-1.25506.15655.34953.07692.699-.07963,1.04453.07692-.20917.1525-.48853.07692-.695.1525,0,.081,0,.15654.06882.15654a5.19448,5.19448,0,0,1,1.53441.07692,7.75163,7.75163,0,0,1-1.1174.61809s-.06883-.1525-.13631-.1525a2.96161,2.96161,0,0,1-.76788-.23212,2.44537,2.44537,0,0,0-1.04588.15655c.07017,0,.21187,0,.21187.07557-.06882.1525-.27935.07692-.4197.07692-.48718-.309-1.04453-.15249-1.53306-.38461a1.78029,1.78029,0,0,0-1.53037-.08232s-.34952,0-.20782.08232c.48852.15115,1.11336-.1579,1.53306.15115-.55736.54116-1.39541.39-1.88394.92847a8.37257,8.37257,0,0,1,2.718-.46289c.34817,0,.76653-.15654,1.112.15385-.76384.15654-1.39.54251-2.1579.77463-.06882.07692-.06882.23347-.20782.31039a7.3645,7.3645,0,0,0-1.88125.92712c.34953.081.69906-.22672,1.04454-.22672.417,0,1.04453-.62348,1.46154-.23481-.23482.33063-.73145.37786-.95682.726a.7557.7557,0,0,0-.08772.20378.53.53,0,0,1,.17139-.20378c.058-.03913.11876-.07287.17949-.10661A1.98513,1.98513,0,0,0,7.747,37.3121c.1417-.081.34817.07558.48717,0a2.43248,2.43248,0,0,1,.62618-.31444c.07288,0,.07288.07963.07288.15655-.07288.15789-.278.15789-.34953.309.20783.15655.41835-.15115.62753-.15115.34818,0,.62483-.46828.90689-.5479a17.14188,17.14188,0,0,1,1.87584-.386,1.96739,1.96739,0,0,0,.62618-.23212c.76923-.15384,1.46424-.22942,2.23077-.386.35087-.07693.6977-.23347,1.04453,0a6.26456,6.26456,0,0,1-2.64507.54116c-.21188.07692-.34953.38731-.63023.46289a9.49386,9.49386,0,0,0-2.5722.5479c.41835.22672.90148-.23481,1.32119.07558,0,.07557,0,.23212-.06883.23212a6.92655,6.92655,0,0,1-.87719.18353,4.3744,4.3744,0,0,0-.51822.12686,1.38579,1.38579,0,0,1,1.11876,0,.73155.73155,0,0,0-.2807.386c0,.07693.139.07693.20647.07693.14305-.07693.14305-.23482.27936-.3104a1.63937,1.63937,0,0,1,.8394-.15249c.06748,0,.1363.15249.1363.309a4.28977,4.28977,0,0,0,.70176-.4359,1.07708,1.07708,0,0,1,.552-.18353c.76788-.081,1.46153-.15655,2.23211-.23212-.4197-.07558-.77058.07557-1.18758-.07558a10.48856,10.48856,0,0,1,2.22672-.62348c.143,0,.35088-.07692.27935.07558-.06747.31309-.556,0-.76653.39.27935.15789.556,0,.83806.07692.06747,0,.06747-.15384.13765-.15384.76788-.07963,1.66936-.31309,2.29959.15384-.63023.23212-1.32388-.15384-1.94871,0-.49663.16869-.95817.33334-1.50878.57625l-.15384.00135c-.11741.03644-.23617.07962-.35763.12146h-.48852a5.31027,5.31027,0,0,0-1.87855.22807s0,.15789.06883.15789a11.49045,11.49045,0,0,1-2.1579.695c-.48853,0-.97435.46694-1.53306.61943.34548.23212.62753-.15249,1.04453-.31039a.24.24,0,0,1,.20783.07692.52027.52027,0,0,1-.14035.54791c-.06748.15115.07153.22807.14035.305.13765-.305.48853-.61944.76788-.305.06883.07558,0,.22807,0,.305a1.49949,1.49949,0,0,1,1.11336-.69636c.14035,0,.14035.23347,0,.309a1.47517,1.47517,0,0,0,.90284-.46559c.21052-.07692.41835.15655.63023,0A5.25145,5.25145,0,0,1,15.75371,38.86c.07288,0,.07288.07423.07288.15115a1.84027,1.84027,0,0,1,.62618-.15115c.06882-.07692.20782,0,.20782-.15789,0,.081.28071.081.06883.23212a19.00315,19.00315,0,0,0,2.08907-.15115c-.27665-.23347-.62483.07692-.83266-.23347,0-.07692,0-.15654.06748-.15654a19.50953,19.50953,0,0,0,2.15789,0c-.34818-.3104-.83671,0-1.24966-.07693-.07423,0-.07423-.07692-.143-.15789a2.75177,2.75177,0,0,1,.35088-.197h0A9.09819,9.09819,0,0,1,21.747,37.6198c.08367,0,.09177.08637.08367.18353-.00674.06748-.01619.14035-.01619.20378a16.87807,16.87807,0,0,1-.695,2.0135A4.98235,4.98235,0,0,1,19.6552,41.802a6.70379,6.70379,0,0,1-2.72605,1.09177l-10.77868-.0027c0,.21323-.00405.71255,0,.78678H48.5V42.8924Zm2.57895-7.36572c.1363.081.34683.081.48853.23347-.20918.07557-.55736.309-.76519.07557-.06882-.1525.27666,0,.20783-.1525-.07152-.07557-.27665.07693-.27665-.07557.06882-.15924.22132-.14845.34548-.081m2.85695-5.7274a3.5958,3.5958,0,0,1,1.52766.309c.07288.07557,0,.15114-.06882.15114a1.40454,1.40454,0,0,1-.76653-.07557c-.278-.1525-.556-.07557-.83536-.23212.07017-.07692.07017-.1525.143-.1525m-1.53307-6.04183c.06883,0,.08368.25911.20918.15654.278-.23346.556,0,.83671.07693,0,.07692.2753.15249.06747.23212a2.39286,2.39286,0,0,1-1.04453,0c-.13765-.07963-.34818-.38867-.06883-.46559M7.747,28.55637c-.13766-.386.76787-.386,1.18623-.386.06882,0,.06882.081.13765.081-.34818.38461-1.11336.77192-1.32388.305m3.5533,2.247c-.14035.39-.69636.081-1.04453-.07557.06882-.1579.2807-.23347.34817-.1579.278,0,.77733.00945.69636.23347m.55736-.386c-.14036,0-.41971.07692-.41971-.07558-.06882-.15789.27935-.23346.41971-.08232Zm0-1.62753c0,.07962,0,.15654-.06883.15654-.56005-.07692-1.04588.23347-1.60189,0,.13765-.07692.20648-.15654.34953-.07692v-.1552a3.11175,3.11175,0,0,1-.83806,0c0,.1552-.07017.1552-.139.23212-.13765.07692-.13765-.07692-.21053-.15654,0,.07962,0,.15654-.07017.15654-.06748-.15654-.13631.07692-.20783,0-.06883-.07692-.13765-.07692-.06883-.15654a2.22055,2.22055,0,0,1,1.53442-.386c.06747,0,.06747.07962.06747.1525.48853,0,.90149-.22942,1.39,0a.22951.22951,0,0,1-.20513.07962c-.07153.07827,0,.07827.06883.15385m16.57354,6.65857c-.1417,0-.27935.07827-.34682-.07558,0,.07558,0,.15385-.07153.15385h-.62618c-.07287,0-.07287-.15385-.07287-.22942a.5027.5027,0,0,1,.35087-.15655c.20918,0,.27935.07558.41971.23212.1363-.07557.27395-.15654.417-.07557a.27039.27039,0,0,1-.07018.15115m-1.18623-9.60054v-.1525c.21053,0,.48718-.23347.699,0a.5948.5948,0,0,1-.699.1525m.27935,5.498c-.06882.07693-.13765.15655-.21052,0,0-.15249,0-.386.1417-.46154.13765,0,.20917.309.06882.46154m0,1.47234c.06883-.31039.4197-.38732.76518-.31039.06883,0,.06883.07692.06883.15249-.06883.1579-.23617.19164-.34548.31309-.20648.22942-.4197.69636-.699.61944-.27666-.07693.07287-.46559.21052-.77463m.97706,1.16059c0,.07692-.09177.02159-.143.07692-.20648.23347-.34548.70041-.69366.46559a2.44523,2.44523,0,0,1,.69366-.776c.07287,0,.143,0,.143.081Zm-.2807-3.94737c-.1363-.07962-.32254-.2834-.1363-.39.1363-.07557.34682,0,.48448,0a3.272,3.272,0,0,1,1.46423-.22942c.06883,0,.06883.07692.13631.15385,0,.07557,0,.15654-.06748.15654-.4197.1525-.83671-.15654-1.18758.07692a1.87806,1.87806,0,0,1-.69366.23212m1.94872,3.17139a4.55856,4.55856,0,0,1-1.04184,0c.13765-.309.48583-.15249.62618-.38461.20513.15519.48853-.07693.62483.15519.06883.15385-.1363.15385-.20917.22942m.76653,1.93792c0-.07692,0-.15249.06747-.15249a.5074.5074,0,0,1,.143,0,4.809,4.809,0,0,1,1.46019.309c-.06612.07557-.13765.22942-.20782.22942-.41836-.15385-.76384-.07827-1.112-.22942-.07152,0-.2834,0-.35087-.15655m1.60459,1.857h-.41836c0,.07963,0,.15655-.06882.15655-.2807-.07692-.556,0-.76654-.15655.21053-.46288.62484-.23346,1.04184-.23346.07018,0,.21188-.07558.278.07962,0,.07692,0,.15384-.06612.15384m4.10661-3.87044c-.41835.1552-1.04589.38866-1.32119-.07692-.14305-.15655.21323-.26316.2753-.23212.34953.15519.76924-.07693,1.04589.309m-.55736-1.93387c.06883.15249-.20782.15249-.41835.15249-.27665,0-.62483.07693-.834-.15249.41971-.15655,1.11336-.46559,1.25236,0m-1.18353-1.471a1.06241,1.06241,0,0,0,.62753.22942.16153.16153,0,0,1,.13765.15655.18554.18554,0,0,1-.27665.07557c-.2807-.1525-.62618.07557-.83671-.23212.1417-.07692.21053-.31039.34818-.22942m-1.53307,3.87045a2.28254,2.28254,0,0,1,.62888,0c.278.07692.62349,0,.83536.23346a.08878.08878,0,0,1-.06882.1525c-.35088-.07557-.69771.07692-1.04454-.07557a.47539.47539,0,0,1-.4197-.1579.08912.08912,0,0,1,.06882-.15249m0,3.32793a1.29585,1.29585,0,0,1-.76653.07692c.1417-.07692.278-.309.41836-.23346.143.07962.27935,0,.34817.15654m-.48852-1.93252c-.278-.081-.556.07557-.76249,0-.06882-.081-.21052,0-.21052-.15655,0-.07557,0-.07557.06882-.15789.07288-.07558.09717.16464.21188.08232a.68356.68356,0,0,1,.76383.07557.09186.09186,0,0,1-.07152.15655m0-3.48583c0,.15249-.20513,0-.278.15249-.06612.07828-.13765,0-.13765-.07557a.331.331,0,0,1,.27935-.15654.23277.23277,0,0,1,.13631.07962m-.34413-1.1606c.06612,0,.06612.07558.139.1525,0,.07557,0,.1579-.07288.1579-.13765,0-.278-.1579-.4143-.08233-.34953.08233-.695-.07557-.97706.1579.282.07557.62753-.07557.90688.07557a3.19438,3.19438,0,0,1-2.02024.39.97181.97181,0,0,0-.14575-.03914.51529.51529,0,0,0,.07692.11606c-.21052.1525-.35087.309-.62483.309-.07287,0-.07287.07557-.143.07557s-.07017-.07557-.07017-.15249c.1255-.27531.363-.305.614-.36707-.34008-.02429-.69231.04723-.95816-.251a1.08012,1.08012,0,0,1,1.251-.23211c-.06883.07557-.06883.07557-.14305.15114.2834-.15114.69906.081.83941-.23347.06882-.07557-.27666-.07557-.27666-.22807,0-.08232.20648-.15789.34548-.15789.27935,0,.63023.15789.90554.15789a2.61468,2.61468,0,0,0,.76788,0m-.21188-1.085c0-.07692-.06883-.07692-.1363-.07692,0,.07692,0,.1525-.07018.1525a1.48586,1.48586,0,0,1-.556-.1525c-.56276-.07692-1.11876.07692-1.60729-.23347.14305-.61943.69906-.07692,1.11876-.31039-.83536-.38461-1.81242.46694-2.50877-.1525-.06748-.07962.28205-.07962.4197-.15654-.13765-.15655-.26451-.07557-.4197-.07557-.06748,0-.06748-.081-.13766-.081a4.00262,4.00262,0,0,1,1.11336-.85155.84716.84716,0,0,1,.97706.23212c-.27935.1579-.699-.07557-.90823.31039,0,.081,0,.23347.06883.23347.21457,0,.4197-.07692.62753-.07692.41835.07692.69365.386,1.11336.23347.14305-.081.2807-.30905.48853-.23347a.25055.25055,0,0,1,0,.46558h-.34548c.06882.53981.76248.07288.97436.53981.06612.15655-.1417.15655-.21188.23347m-2.5749-5.96491c.06883-.15384.21323-.11606.34818-.07692.27665.07692.556-.1525.76518.07692-.278.31309-1.18488.62213-1.11336,0M33.025,21.358c.34817-.15385.977-.23347,1.04588.15654.06748.07693-.26856.11067-.41565.1525a2.08988,2.08988,0,0,1-1.67477,0,4.92615,4.92615,0,0,1,1.11876-.23212Zm1.11336,5.96086c0-.07692.07422-.07692.1417-.15249,0,.07557.06882.06342.13765.07557a2.97714,2.97714,0,0,1,1.18353.309c-.2753.07692-.20647.1579-.34412.39136-.35088-.23346-.90824-.081-1.18624-.46693,0-.07693.1417-.07693.20918-.07693-.06748,0-.1417,0-.1417-.07962m-.06748-3.32793c0-.07693.1417-.07693.20918-.07693.06882,0,.55735,0,.34548.22942a.53511.53511,0,0,1-.55466-.15249m-.834-1.78138A1.1439,1.1439,0,0,1,34.28,22.134c.13765.07557.278-.07693.4197.07557a1.61363,1.61363,0,0,1-1.46289,0M33.025,23.605c.143.07558.48853.07558.4197.22942-.20783.46559-.90418,0-1.32254-.15384A1.00233,1.00233,0,0,1,33.025,23.605m-.83266-1.471c0-.07693.1363-.07693.20648-.07693v.1525c-.07018,0-.20648,0-.20648-.07557m-.07018,2.78542a1.29178,1.29178,0,0,1-1.18623.15655c.21052-.07558.41835-.07558.5614-.31039.20648.15384.41431,0,.62483.15384m.34683.85155a.089.089,0,0,1,.07153-.15249c.06612,0,.081-.04724.139,0,.27665.22942.69365-.081.97571.22942,0,.07962,0,.15789-.07423.15789-.34413-.15789-.76518.07423-1.112-.23482m.21053,2.09042c-.07288-.15249.07827-.386.48853-.386.06882,0,.06882.07557.1363.07557l-.06748.07692c.27666.081.62483,0,.90149.31444a.08786.08786,0,0,1-.06748.1525c-.48988,0-1.18623.23212-1.39136-.23347m1.18218.62213c-.13765,0-.417.07288-.55735-.15654a7.63217,7.63217,0,0,1,1.87854-.15655,1.14506,1.14506,0,0,1,.69906.15655c-.62483.54251-1.32389.15654-2.02025.15654m2.57625-1.5506c0,.07557,0,.15654-.06747.15654a4.15757,4.15757,0,0,1-2.1579-.23347c.20513-.23346.556.07693.76518-.23346.13631-.15655.38057.06882.62348,0a.6425.6425,0,0,1,.83671.31039m-.90418-5.72875c-.07153,0-.139,0-.139-.07962a.58508.58508,0,0,1,.695,0c-.06882.15655-.20782.07962-.34952.07962.5614.31039,1.18623-.23212,1.67476.07693-.48853.15384-.98111.18758-1.53306.31039-.34818.07557-.48718-.23347-.76788-.31039.143-.23212.2807.07692.4197-.07693m-.48718.61943c0,.07828,0,.15385-.06883.15385-.4197-.23347-.8394.23212-1.25371-.07557a1.40378,1.40378,0,0,1,.97571-.23482c.13765,0,.278,0,.34683.15654m-2.718-1.085a23.13682,23.13682,0,0,1,2.37112.1525c-.20918.39-.5614,0-.83806.1579-.13765.07557-.34817.23212-.48853.15519-.34817-.23212-.76653-.15519-1.11336-.31309a.08913.08913,0,0,1,.06883-.1525M31.28677,19.501a2.275,2.275,0,0,1,.76654.309c-.07288.07692-.07288.15385-.1417.15385-.34548-.07693-.76519.07962-1.04454-.23347.1363-.07692.20648-.29015.4197-.22942m-2.15924-2.09042c.695,0,1.39406-.23347,2.01889.22942a.09105.09105,0,0,1-.06882.15654c-.34953,0-.76788-.309-1.11876-.07557-.41431.22807-.97031,0-1.45749,0-.07018,0-.07018-.15789-.07018-.23347.20648-.23346.48314-.07692.69636-.07692m0,2.63293c.13765,0,.34413,0,.2807.15249-.07287.46559-.699.23347-.97706.07693a1.9,1.9,0,0,1,.69636-.22942M28.778,24.4565c.07288.07693.21053.07693.27936.22807,0,.081,0,.1579-.06883.1579-.21053.07692-.49528.20918-.55736,0-.07287-.23347.20648-.386.34683-.386M28.43117,26.08l-.07287.07692h-.13765a.08791.08791,0,0,1,.06882-.15115c.06883,0,.1417,0,.1417.07423m.13766-11.69231c.06882,0,.16329-.02024.20917.081.07288.1525.34953,0,.417.1525-.20648.07557-.55736.23347-.76384.07557.13766-.07557,0-.22807.13766-.309m-.556.15654c.07153.07693.139.1525,0,.22942-.139,0-.34818.081-.34818-.07692-.07152-.1525.23617-.2753.34818-.1525m.34548.46289c.07287,0,.143-.07692.21053-.15249a.08833.08833,0,0,1,.06882.15249,1.15211,1.15211,0,0,1-1.11336.1579c.20783-.31039.54926-.1579.834-.1579M27.73212,19.887a.6853.6853,0,0,1,.55735.15655c-.20512.15249-.48313.386-.76518.305-.06882,0-.06882-.07557-.06882-.1525.06882-.07692.06882-.07692.13765-.15249-.06883,0-.27935.07557-.27935-.07962.07287-.15385.27935-.07693.41835-.07693m.21187,2.556a.08894.08894,0,0,1-.07017.1525h-.56c-.06883,0-.06883-.07558-.13766-.07558A.5757.5757,0,0,1,27.944,22.443m-.9757-8.36437c.06882,0,.06882.07557.06882.15789-.20648.23212-.55735.46019-.8367.23212.143-.23212.34817-.15654.48718-.31444.06882-.07557.21052.08232.2807-.07557m-.90554,0h.13766c.07422,0,.27935-.1525.27935,0-.06883.15789-.27935.39-.48583.15789,0-.08232,0-.15789.06882-.15789m-2.29689.46558a3.34261,3.34261,0,0,1,1.73819.1525c-.06613.23347-.27395.1579-.417.1579-.20917.07557-.4143.15249-.55735.07557a.86515.86515,0,0,0-.556-.23347c0,.1579-.07152.23347-.139.23347a2.12862,2.12862,0,0,1-1.39271-.15655,6.03865,6.03865,0,0,1,1.32389-.22942m.1363,6.19433a.27508.27508,0,0,1-.06748.1525c-.20647-.1525-.62618-.07557-.55735-.38461,0-.1579.20783-.23347.41835-.23347.20648,0,.278.15654.34548.23347,0,.15519-.20648.07557-.2753.07557.06882.07962.06882.07962.1363.15654m-.76248-3.4089c0-.07557.20647-.1525.20647,0,0,.081-.20647.081-.20647,0m.556,3.95142a.08927.08927,0,0,1-.06747.15384.79208.79208,0,0,1-.56276-.15384l-.1363.15384a.50036.50036,0,0,1-.27665-.386c0-.1579.21322-.11471.34548-.07693a1.94515,1.94515,0,0,1,.6977.309m-.90688,1.00539c0-.07692,0-.15249.07152-.15249.06883,0,.03914.07557.13766.07557.06747,0,.06747.07692.1417.07692-.1417.15655-.21053.15655-.35088,0M22.72,30.0314c-.06747,0-.06747-.07962-.06747-.15654,0-.07558.06747-.07558.06747-.1525a.166.166,0,0,1,0,.309m-.34818-11.45884c-.07152.07558-.14035.22807-.20782.22807-.27935,0-.48853.23347-.69771.3104-.07017,0-.07017-.1525-.20783-.1525a2.02,2.02,0,0,1-1.32118-.23347c.34548-.309.76518,0,1.18218-.1525a1.4158,1.4158,0,0,1,1.25236,0M18.57692,29.1677a.98006.98006,0,0,1-1.09986-.15789c.13765-.15654.34818,0,.48853.07692.27665.06073.46289-.21862.66936-.18083a9.12833,9.12833,0,0,1,1.1606-.34953c.21052,0,.34817.15789.48718.31309a8.75414,8.75414,0,0,1-1.70581.29824m.4521.78408a.96725.96725,0,0,1-1.32389,0c.143-.1525.34818,0,.48853.07962.34818.07693.55735-.39.83536-.07962m-2.92443-.92848c-.13765,0-.41431.07963-.41431-.07692.06343-.39.552-.23212.83131-.31039a3.36927,3.36927,0,0,1,1.25371-.07962c.07288,0,.07288.07962.1417.07962-.55735.31039-1.18758.15385-1.81241.38731m3.83266-2.86639c-.07423,0-.21053-.07692-.21053-.15115,0-.15789.1363-.31039.27935-.23482a4.319,4.319,0,0,1,.41431.61944c0,.07557,0,.15789-.07018.15789a.3521.3521,0,0,1-.2753-.15789v-.1525c0-.081-.06883-.081-.13765-.081m-2.23212-7.50877a2.31425,2.31425,0,0,1,1.74359.15249c-.07423.3104-.35088.23347-.63023.23347a2.105,2.105,0,0,1-.97031-.07557c.13765-.1579.34548-.07692.55735-.1579-.21187-.07557-.48853.081-.7004-.15249M19.863,20.04355c.14305.07557,0,.305.07423.386.13765.07693.39676-.04183.48313.1525.06882.15654-.13765.15654-.20918.23347-.274-.15385-.69366.23347-.83671,0-.20512-.309.143-.07693.28071-.23347a15.859,15.859,0,0,0-1.8799-.23347,20.01438,20.01438,0,0,1,2.08772-.305m.97571,2.09042a.08675.08675,0,0,1-.1363.07557c-.21323-.1525-.49123-.23212-.62753-.46559,0-.07692,0-.15249.06882-.15249a.76368.76368,0,0,1,.695.54251m-2.78542.695c.14035-.309.5587-.15249.90823,0-.143.15655-.27935.23347-.34953.386-.20648.07692-.62618-.22942-.5587-.386m1.11606,1.93658c-.20783.15384-.33739.31039-.55736.31039h-.20648a.09172.09172,0,0,1-.07422-.15655c.21053-.23482.63023-.386.83806-.15384M19.029,23.21494a1.02424,1.02424,0,0,1,1.04588,0,.86093.86093,0,0,1-1.04588,0m1.39136,4.72739a1.17664,1.17664,0,0,1-.69366.30905c-.4197,0-.76518.305-1.18488.15249.20917-.386.62753-.15249.90688-.386.20648-.23347.62618-.15655.97166-.07558m-.07018,2.31714c0,.08232.282.08232.07018.23482-.13765.07557-.34548-.09312-.34548.07557v.1579c-.27935.07557-.70041.23212-.90553-.07557.34817-.39272.76788-.3104,1.18083-.39272m.83806,2.01485c-.20648.386-.62618-.07558-.83806.23347-.139-.23347-.413.07692-.55465-.1525.34817-.31309.97571-.15655,1.39271-.081m-.20648-6.42645c-.07422,0-.21052.07962-.27935-.07693,0-.07557,0-.15249.06883-.15249.06747,0,.08772-.054.1363,0,.07422.07692.2807.15249.07422.22942m.62618.309c-.21187.081-.34953.15654-.56275,0a.40588.40588,0,0,1,.56275,0m-.62618,3.95142c.20648.07557.61.07152.55736.386-.07288.39-.55736.23347-.83671,0,.06883-.1525.1363-.386.27935-.386m.76518,1.085c.06748.07692.13766.309,0,.309-.2807.07692-.70175,0-.70175-.23212,0-.31039.52362-.27665.70175-.07692m-.9757,1.46693a4.21321,4.21321,0,0,1,.9757,0,.404.404,0,0,1,.06748.54251c-.41835-.54251-1.108-.22942-1.73954-.22942a.35768.35768,0,0,1-.27935-.15519,1.45269,1.45269,0,0,1,.97571-.1579m1.11336.62214c0,.07827.06882.23346-.07018.31039-.06748,0-.139-.07693-.2753-.07693-.07288,0-.07288-.07962-.143-.15519a1.08115,1.08115,0,0,1,.48853-.07827m-1.60189-8.51687c.27935-.081.63832-.52767.8367-.30905.06883.07693.27666-.07962.34683,0,.1417.22807.34818.1525.55466.30905a.0884.0884,0,0,1-.06748.15384,4.05438,4.05438,0,0,1-1.67071-.15384M21.39609,22.443c-.13766,0-.06883-.309-.20783-.386a.57089.57089,0,0,1,.62618-.07962c.139.07962.34953.07962.48583.23212-.20378.386-.62483.07692-.90418.23347m.07017-6.89339c.07288,0,.07288.07962.1417.07962-.1417.15385-.2807.15385-.34953,0,0-.07962.13766-.07962.20783-.07962m-1.46019-.61943a1.74635,1.74635,0,0,0,.556,0,1.05934,1.05934,0,0,1,.69635.07692c-.21322.07962-.27665.23212-.4197.31039-.27665.1552-.62753-.07827-.90148-.23077,0-.07962,0-.15654.06882-.15654m-.55735.15654h.278c.06883,0,.06883.07828.06883.1525-.14035.15789-.42106.247-.42106,0a.27671.27671,0,0,1,.07423-.1525m-.27935,1.54791a1.57789,1.57789,0,0,1,.8367.07693c-.21052.15654-.4197,0-.63158.15654.35223,0,.70041-.23347.97571.1525a2.26183,2.26183,0,0,1-1.59919.07962c-.20917,0-.34548-.07962-.55735.07692a.48694.48694,0,0,0-.34548-.39c.4143-.22807.90958-.03779,1.32119-.1525m-.62753,1.62348a3.36964,3.36964,0,0,1,1.74089,0c0-.07557,0-.15249.06747-.15249.282,0,.695-.23347.83806.15249.07017.23347-.20648.1579-.2807.1579a15.69894,15.69894,0,0,1-3.33873.07557c.27935-.386.62483-.15115.973-.23347M18.40553,24.3a.55225.55225,0,0,1-.48853.15654A1.19958,1.19958,0,0,1,17.35965,24.3a1.22324,1.22324,0,0,1,1.04588,0m-.143,2.166a2.09618,2.09618,0,0,1-1.53306.08232c.143-.31039.34143-.23482.55736-.23482.34952,0,.699-.15654.9757.1525m-1.87854-5.65047V20.972a1.27808,1.27808,0,0,1-1.18219.07693c.34683-.23347.76519-.07693,1.18219-.23347m-.06883,2.17-.07287.07692c.34953.309.76653-.23347,1.04454.07558,0,.07692-.17544.00944-.20648.07692-.28205.61943-1.04724.39-1.53172.23212a2.34624,2.34624,0,0,1-.6977-.23212,1.65661,1.65661,0,0,1,1.46423-.22942m-2.23076.695c.21052-.07558.33873,0,.556,0a4.27441,4.27441,0,0,1,.97571-.07558c.07422.07558.13765.22942.27935.309-.1417.22942-.417,0-.62483.07693V24.223c-.48853.31039-.90823-.1552-1.32523-.38867.06882-.07692.06882-.15384.139-.15384m-.139,2.09041c.139-.07557.21187.07693.2807.15655,0,.07827,0,.22942-.06883.22942-.21187,0-.41835.081-.63023-.07692.1417-.07423.27935-.23212.41836-.309M13.527,27.70887q1.98583-.12147,3.97031-.23347c-.34953-.23347-.76788,0-1.11336-.07693,0,0-.27935-.15654-.06883-.23211a25.29829,25.29829,0,0,1,3.05938-.3104.81862.81862,0,0,1,.97571.46289c.139.309-.2753.15655-.34413.15655-.699.07557-1.46423-.23347-2.08907.15249a2.28651,2.28651,0,0,1,1.25237.081s.27935.15249.06882.15249a12.98516,12.98516,0,0,1-2.36572.309,2.745,2.745,0,0,1-1.11876-.15249c-.90283-.07558-1.87989-.07558-2.78407-.07558a.60275.60275,0,0,1,.55735-.23346m1.74359.77462c-.14305.07288-.21052.1525-.35088.1525-.06882.62078-.76248.31039-1.11336.62078-.21052.07558-.21052-.23347-.34817-.31039.21052-.15654.48718-.07692.76788-.15654.1363,0,.06882-.23347.06882-.23347-.48853-.1525-.973.15789-1.46154,0-.07152-.07288-.278-.22942-.14035-.22942a6.1499,6.1499,0,0,1,3.13361,0v.15654c-.21053,0-.41836-.07962-.556,0m-2.857,5.80567c-.139,0-.139-.23347-.20918-.386a.28636.28636,0,0,1,.41566-.23347c.2807.23347.49123.07557.76923.07557.27935.081.62483-.22942.90553-.309a.95739.95739,0,0,1,.41971.15655c.1363,0,.34548-.15655.48717,0-.8394.69635-1.81241.54251-2.78812.69635m2.5776.46694c-.07153,0-.07153.15115-.07153.23212a.78774.78774,0,0,1-.90553,0c-.2753-.15655-.48718.22807-.76383-.081.834-.309,1.74089-.386,2.57625-.695a1.72531,1.72531,0,0,1,1.39136,0,4.55634,4.55634,0,0,1-2.22672.54386m2.22672-1.78273a3.71861,3.71861,0,0,1-1.60189.15385,5.18524,5.18524,0,0,0-2.36572.46559c-.06883,0-.139-.15655-.139-.15655.21052-.309.55735-.23347.834-.386.06882-.07693-.27666-.07693-.27666-.07693.34548-.31309.76518-.07962,1.11336-.15519l-.06747-.1579c0-.15249.20512-.15249.27665-.22942.34683-.07557.699.07693,1.04183-.07557.139-.15655.28205-.39.48853-.46829h.41971l.06747.1552c-.1363.23212-.34818.23212-.556.38866.06882,0,.06882.07693.06882.15385a.48868.48868,0,0,0,.41971-.15385c.20647-.07557.27665.15385.41835.31039.06883.07693-.07287.1525-.1417.23212m.55735-1.16059c-.07017-.1579-.278-.07962-.34682-.07962a2.92937,2.92937,0,0,0-1.81242.23212c-.20783.07692-.62483.23346-.69636,0-.06882-.3104.35088-.1525.55871-.386.13765-.07692.417.07557.55465,0a3.26907,3.26907,0,0,1,2.09042-.15654,4.06364,4.06364,0,0,1,2.08772.54251,3.04853,3.04853,0,0,1-1.18218.15789c-.21053,0-.278-.31039-.48718-.39-.27936,0-.556-.07828-.76654.07962m4.17814,5.031c-.139.31039-.4143.07692-.62618.15384-.20783.07963-.62483.27936-.62483,0,0-.07692.06883-.23346.1363-.23346a.94763.94763,0,0,0,.48853-.1525c.21188,0,.4197-.15385.62618,0Zm.06748-1.93657c-.06748.15654-.34548.23346-.413.081a1.14743,1.14743,0,0,1,.139-.46694,22.08907,22.08907,0,0,0-2.22942.1525c-.4197.15789-.919.29689-1.18623,0-.06883-.07558-.278-.1525-.06883-.22807.69906-.23347,1.60054.386,2.02025-.39.556.15655,1.11336-.15249,1.60189.15655.21187.07692.21187.46154.1363.695m.07557-11.46019c.13495-.07558.39.08232.413.15789.07422.22942-.20918,0-.34548.07558,0-.07558-.27935-.15115-.06748-.23347m.20378,5.2672.07152.07558c.34818.23346.417.776.07018.776-.1417,0-.34548-.54252-.1417-.85156m.2834,1.62753c0-.15789.1363-.15789.27665,0-.14035.07558-.27665.1525-.27665,0m.34548,1.004a.98141.98141,0,0,1-.27665-.61808c0-.07557.1363-.07557.20782-.07557.06883,0,.03914.08367.06883.15114a.51671.51671,0,0,1,0,.54251M23.2085,24.609c-.14305.07557-.4197-.309-.14305-.46559,0,0,.112.0081.14305.07963.06883.15384.13765.386,0,.386m.20918,8.75169c-.07153,0-.07153-.07827-.07153-.1579,0-.07557.07153-.07557.07153-.15249a.16892.16892,0,0,1,0,.31039M23.90216,23.138c-.1363.07692-.20648-.07558-.27395-.1525,0-.081.13765-.081.20647-.081.06748,0,.06748.081.139.081,0,.07692,0,.1525-.07152.1525m0-1.004c0-.07693-.20648-.07693-.06748-.23212.139-.1579.34548-.07828.34548.07557a.20377.20377,0,0,1-.278.15655m.77058,9.2888a12.9014,12.9014,0,0,1-.21457-1.78138c0-.1525.21457-.07557.278-.07557a.323.323,0,0,1,.282.23346c-.06883.54251.06882,1.23752-.34548,1.62349m-.27935-3.7139c.06478-.081.06478-.23347.20513-.1579a.10059.10059,0,0,1,.07422.1579c-.07422.07557-.07422.15249-.14305.15249-.07152,0-.07152-.07692-.1363-.15249m-.21323-.61944a.09223.09223,0,0,1,.07288-.15654c.14035,0,.34548-.07693.48313.07557a.25672.25672,0,0,1,.1417-.07557c.07152.07557.14035.15654.20917.23347a.68646.68646,0,0,1-.90688-.07693m.21323-2.01349c0-.15655.305-.27936.417-.15655.06748.081,0,.23347-.07422.23347h.4197c.07423,0,.48853.07557.282.1552-.20782.15384-.62753-.07963-.8394.15384,0-.15384-.20513,0-.20513-.15384,0-.06883,0-.135.04183-.15115a.08466.08466,0,0,1-.04183-.081m.556-4.5695c0,.15519-.35087.23211-.556.15519.06478-.07962.1363-.23212.27935-.23212.13765,0,.34548-.081.27665.07693m-.27665-1.8583h.13765l-.07422.07692Zm.34548,5.5749a.38373.38373,0,0,1,.2807-.07963c0,.07558.24966.1498.09582.22268a.17648.17648,0,0,1,.10931.16734c0,.15114-.20513.23212-.34818.23212-.13765,0-.20648-.30905,0-.38867a.29855.29855,0,0,1,.08637-.02969.60817.60817,0,0,1-.224-.12415m-.14035-1.0081h-.1417c0-.07692-.278-.1525-.06343-.22942-.14305-.15655-.14305-.39,0-.46559.13765,0,.27665-.07692.4143.07558.06883.081.27936.15789.27936.23346-.1363.23347-.48853-.07557-.69366.15655.13765,0,.34548-.081.48313.07692,0,.07558,0,.1525-.06883.1525Zm.07152,1.39406c0,.07557,0,.15655-.07152.15655-.1417,0-.34818.07692-.4197-.081,0-.15114.21457-.15114.35222-.15114.06748,0,.06748.07557.139.07557m.62483-1.471c-.1363.07692-.2753.15384-.41835,0a.24845.24845,0,0,1,.41835,0m-.1363.61943c-.07152-.1525-.35088-.22807-.282-.46559.07423-.07692.143,0,.143.07962,0-.07962.06748-.07962.139-.07962a.29975.29975,0,0,1,.1363.38867.23915.23915,0,0,1-.1363.07692M24.67274,22.057c-.07422,0-.07422-.07962-.07422-.15519.21187-.31039.63158-.1579.90553-.1579.07017,0,.07017.07962.14035.07962-.278.3104-.62618.23347-.97166.23347m.48313-3.09851c-.13765-.07692-.278-.386-.06883-.54251a.97437.97437,0,0,1,.35088.07557c.20648.081.34818,0,.417.23347.06747.15655-.06883.15655-.143.23347a.70536.70536,0,0,1-.556,0m.07423,2.47638c0,.07962.27395.15655.06882.23212a1.2365,1.2365,0,0,1-.56275-.1525c.1417-.15654.35087-.07962.49393-.07962m-.77193,2.63293h.14035c0,.07557.29014.23212.07422.23212-.07422,0-.21457.07692-.27935-.07692,0-.07963,0-.1552.06478-.1552m.62887,2.17c0-.15789.27936-.23212.35088-.081.06613.15654,0,.46559-.139.46559-.143.07692-.21188-.23212-.21188-.38462m.417,8.82591c-.13765-.54251-.31309-1.27665.07017-1.7031.07018-.07827.21188,0,.21188.07557a4.213,4.213,0,0,1-.28205,1.62753m.28205-3.09851c-.07422-.07828-.1417-.07828-.1417-.1525.1417-.39-.14035-.8529.278-1.085a1.55764,1.55764,0,0,1-.1363,1.23752m.34548-1.78138c-.06883.07557-.13765.15789-.20918.23347-.06747,0-.1363,0-.1363-.07558,0-.23346,0-.54251.20783-.54251a.18989.18989,0,0,1,.058-.01349l-.058-.06343.06882-.081v.1444c.15925-.00135.22807.22537.06883.39811M24.04116,15.93559c.07423,0,.07423.07962.07423.15654h.55735c0-.07692,0-.15654.06343-.15654.07422,0,.1417.15654.1417.15654.20917-.15654.48853,0,.62618.1525-.417.31444-.90553,0-1.32389,0a1.87341,1.87341,0,0,1-1.11471-.1525,2.40036,2.40036,0,0,1,1.60729-.386,6.982,6.982,0,0,1,1.807,0c-.76788.46288-1.60189,0-2.4386.22942M27.24494,37.3121c-.48853-.23481,0-.93387-.06883-1.47638.06883,0,.06883-.309.21053-.07557,0,.07557,0,.07557-.07287.15654a.1834.1834,0,0,0,.07287.1525c.06883.07692.20648.07692.20648.15654,0,.23212.07152.309,0,.46289-.06883.23212-.27935.69906-.34818.62348"/></g></svg>