<svg id="Слой_1" data-name="Слой 1" xmlns="http://www.w3.org/2000/svg" xmlns:xlink="http://www.w3.org/1999/xlink" viewBox="0 0 52 52"><defs><style>.cls-1{fill:none;}.cls-2{fill:#131f6b;}.cls-3{clip-path:url(#clip-path);}.cls-4{fill:#c20025;}</style><clipPath id="clip-path"><path class="cls-1" d="M12.52484,8.751l-.24925.91092H27.49633A2.15342,2.15342,0,0,1,29.60907,12.657l-2.73044,9.915a3.92552,3.92552,0,0,1-3.76518,2.81637,2.14572,2.14572,0,0,1-2.0071-2.88736l1.24985-4.54689a1.72513,1.72513,0,0,0-1.666-2.30581L10.62052,15.656l-.2464.897h4.312a1.64657,1.64657,0,0,1,1.64574,2.28955s-.53788,1.889-1.17245,4.25258a3.10573,3.10573,0,0,1-3.04609,2.35994H7.91507l-.29149,1.073h3.97256c.45623,0,2.60572.08318,1.9622,2.37434-.6697,2.37639-1.16614,4.25034-1.16614,4.25034a3.114,3.114,0,0,1-2.91264,2.28112h-4.328l-.23541.91326,10.08081.00832a3.34891,3.34891,0,0,0,2.93681-2.32093l1.25125-4.53a4.04171,4.04171,0,0,1,3.59252-2.89323,2.0999,2.0999,0,0,1,2.209,2.81321L22.26886,39.337a4.10228,4.10228,0,0,1-3.76314,2.99411H3.26042L3,43.249H21.17907c10.72758-.43429,17.49129-7.86265,19.9975-12.53214a8.29221,8.29221,0,0,1,6.38367-4.10561l1.07779-.06989a.09637.09637,0,0,0,.09243-.06864c.0656-.18993.25613-.90535.26547-.95024.01363-.04855-.00934-.05443-.0459-.06246-.03534-.005-1.06683-.0716-1.06683-.0716a4.1,4.1,0,0,1-4.1117-4.10886c.07253-4.66289-2.60592-12.09583-13.093-12.5286Z"/></clipPath></defs><title>MH</title><path class="cls-2" d="M48.95,25.46064c-.03534-.0062-1.06683-.07343-1.06683-.07343a4.0979,4.0979,0,0,1-4.1117-4.107c.07253-4.6635-2.60592-12.09644-13.093-12.52859H12.52484l-.24781.9097h15.2193a2.15268,2.15268,0,0,1,2.11152,2.99511l-2.72922,9.91566a3.92441,3.92441,0,0,1-3.766,2.81514,2.14391,2.14391,0,0,1-2.00629-2.88553l1.24985-4.54749a1.72539,1.72539,0,0,0-1.666-2.30662L10.62154,15.656l-.24742.89764h4.312a1.64559,1.64559,0,0,1,1.64574,2.28892s-.53788,1.88787-1.17245,4.25319a3.10735,3.10735,0,0,1-3.04609,2.3587H7.91507l-.29149,1.07221h3.97256c.45623,0,2.60572.08462,1.961,2.37639-.66727,2.37638-1.16494,4.24913-1.16494,4.24913a3.11637,3.11637,0,0,1-2.91143,2.28172H5.15151l-.23419.91326,10.07959.00894a3.35149,3.35149,0,0,0,2.93681-2.32155L19.185,29.50329a4.04084,4.04084,0,0,1,3.59374-2.892,2.099,2.099,0,0,1,2.20779,2.81258L22.26886,39.3376a4.1006,4.1006,0,0,1-3.76314,2.99286H3.26183L3,43.2484H21.1803c10.72635-.4351,17.49006-7.863,19.99462-12.532a8.29536,8.29536,0,0,1,6.38532-4.10509L48.638,26.542a.09771.09771,0,0,0,.09324-.06866c.06479-.19115.25634-.906.26466-.95084.01363-.048-.00832-.05443-.0459-.06186"/><g class="cls-3"><rect class="cls-4" x="7.08977" y="7.88983" width="42.59944" height="18.10972"/></g></svg>