<svg id="Слой_1" data-name="Слой 1" xmlns="http://www.w3.org/2000/svg" viewBox="0 0 52 52"><defs><style>.cls-1{fill:#c4161c;fill-rule:evenodd;}</style></defs><title>MK</title><path class="cls-1" d="M22.77183,29.94941a21.16017,21.16017,0,0,1,5.521,0c1.62134.307,4.73249,1.22673,10.2542-1.13809,1.18354-.438,5.21475-1.2266,6.26655.65649-.08765-.52544-.35051-1.83892-4.07543-3.37182a8.63855,8.63855,0,0,0-3.89972-.35051c-1.27081.08727-6.661.39428-10.25445-1.48874-3.55609-1.86355-7.41394-4.06791-12.84525-2.24578,1.1558-.273,4.69657.74855,5.39539,1.15073.68456.394,6.6609,3.98506,8.45742,3.98506-.61336.52544-4.29445,1.48873-6.66076,1.70775A133.97548,133.97548,0,0,1,2,30.081,82.77753,82.77753,0,0,0,22.77183,29.94941Z"/><path class="cls-1" d="M40.258,25.37052c1.00913-.42689,6.09331-3.10474,9.742-1.31912-1.47494-.81553-4.114-2.71747-9.58676-1.16455-2.6389.854-5.43378,1.97944-5.55,2.29C34.86327,25.17685,38.47291,24.78841,40.258,25.37052Z"/></svg>