<svg id="Слой_1" data-name="Слой 1" xmlns="http://www.w3.org/2000/svg" viewBox="0 0 52 52"><defs><style>.cls-1{fill:#a5c9c6;}.cls-2{fill:#0075a9;}</style></defs><title>ML</title><path class="cls-1" d="M46.81928,41.239c.00215-.01324,11.4915-72.60642-36.72726-.16127-.21633.323-.69762,3.40762,1.7226.36651,28.34-38.28152,33.43442-30.48865,33.43442.696a.89759.89759,0,0,0,.45486.74416C46.52784,43.10749,46.76851,41.55683,46.81928,41.239Z"/><path class="cls-2" d="M.09334,41.917S13.7092,24.50075,22.01665,24.50075c0,0,6.26886.07511,8.64473,7.82611,0,0,.338,3.53482,3.14694.09687,0,0,6.44359-6.97784,11.91778-6.97784,0,0,6.73289-.82162,6.249,10.70723,0,0-.1455,4.89384-.72624,6.54133a.41648.41648,0,0,1-.457.26881c-.27392-.0683-.37337-.40409-.44634-.64-.11688-.37336-.27777-3.16656-.30677-3.55273-.00259-.00467-.48772-9.73861-4.74961-9.73861,0,0-6.00411-1.11516-13.7556,11.91821,0,0-3.76885,5.32777-4.11809-1.84206,0,0,.48369-11.23763-6.54068-11.23763,0,0-7.89419-.38639-19.08572,14.09523-.22721.29358-.68207,1.08423-1.14143,1.115C.20581,43.1092-.18486,42.28137.09334,41.917Z"/></svg>