<svg id="Слой_1" data-name="Слой 1" xmlns="http://www.w3.org/2000/svg" viewBox="0 0 52 52"><defs><style>.cls-1{fill:#002d62;}</style></defs><title>MS</title><path class="cls-1" d="M48.39684,11.61363c-6.75116,1.73369-12.22219,5.6575-16.96413,11.212a11.21964,11.21964,0,0,1-1.96468-3.9544C23.49885,26.243,20.204,38.27872,20.14,48.39987A26.17722,26.17722,0,0,0,26.354,50C24.79286,26.26245,39.169,15.10608,48.39684,11.61363Z"/><path class="cls-1" d="M30.33349,13.26384c-10.96715,6.08327-17.799,17.77394-19.52991,28.97484a27.04073,27.04073,0,0,0,5.40982,4.241C16.5,33.8234,22.83375,23.78294,29.23705,17.31564A6.67814,6.67814,0,0,1,30.33349,13.26384Z"/><path class="cls-1" d="M4.673,32.54052a26.764,26.764,0,0,0,3.36445,6.40885c4.34678-15.93171,17.824-25.8024,24.283-28.23459C19.33852,12.72119,9.67653,21.93792,4.673,32.54052Z"/><path class="cls-1" d="M3.32611,19.88142A26.62323,26.62323,0,0,0,3.546,28.41636h.00279c9.431-14.9772,26.79032-19.9362,34.02845-19.94733C24.356,5.714,11.747,11.32143,3.32611,19.88142Z"/><path class="cls-1" d="M10.18023,5.33834a26.86493,26.86493,0,0,0-5.94414,10.341c16.13765-13.66091,37.4597-9.751,44.68113-6.08327C37.44083.35986,22.0796.32368,10.18023,5.33834Z"/><path class="cls-1" d="M42.52785,10.13316a11.43,11.43,0,0,0-10.65547,4.48592c1.05471-.8098,1.973-1.48047,2.80789-2.01477,1.31072,1.51943,3.22531,2.06207,4.42192,1.19106a2.73936,2.73936,0,0,0,.91276-2.68265,10.64662,10.64662,0,0,1,2.24017.6651C42.68369,11.9253,43.16233,10.1916,42.52785,10.13316Z"/><path class="cls-1" d="M38.6458,13.22209c-.92947.73467-2.4461.28664-3.52306-.90163A7.38636,7.38636,0,0,1,39.13,11.032,2.16,2.16,0,0,1,38.6458,13.22209Z"/></svg>