<svg id="Слой_1" data-name="Слой 1" xmlns="http://www.w3.org/2000/svg" xmlns:xlink="http://www.w3.org/1999/xlink" viewBox="0 0 52 52"><defs><style>.cls-1{fill:#fff;}.cls-2{fill:#1b1d80;}.cls-3{mask:url(#mask);}.cls-4{fill:#df0011;}</style><mask id="mask" x="2" y="6.76122" width="44.75908" height="38.47755" maskUnits="userSpaceOnUse"><g id="mask-2"><polygon id="path-1" class="cls-1" points="24.38 45.239 2 45.239 2 6.762 46.759 6.762 46.759 45.239 24.38 45.239"/></g></mask></defs><title>MU</title><path id="Fill-1" class="cls-2" d="M48.95536,20.47814c-15.79657.438-31.0843,4.023-32.5048,9.10658a5.00444,5.00444,0,0,0-.16249,1.38147c0,5.00665,10.45151,6.71916,21.76594,8.12971.19413.02224.18558-.13173.12229-.24293-.04447-.0787-.2138-.37809-.33011-.58424A.34779.34779,0,0,0,37.5939,38.09c-6.19257-1.57564-12.47921-3.87752-12.47921-6.02372,0-4.05972,10.53361-8.08095,22.52878-9.9192a1.65456,1.65456,0,0,0,.85093-.36184c.33268-.26517,1.06474-.86309,1.37433-1.1103.20182-.16766.13-.2207.05387-.219-.32156.00514-.64311.012-.96724.02224Z"/><g class="cls-3"><path id="Fill-3" class="cls-4" d="M31.48078,44.98643C23.27505,42.93006,15.14286,36.04324,16.424,29.66282,18.296,20.35351,30.81543,11.3359,46.43925,7.09825c.35235-.10436.48234-.337.03079-.337H25.14624c-3.69193,0-4.49241.47732-5.92232,2.41223-.762,1.029-7.14357,9.82853-10.02135,13.795a2.34385,2.34385,0,0,1-2.05849.98028H2l.00428.00514C8.10021,41.17734,14.64855,45.23878,21.208,45.23878H31.56459c.14624,0,.29248-.1574-.08381-.25235"/></g></svg>