<svg id="Слой_1" data-name="Слой 1" xmlns="http://www.w3.org/2000/svg" viewBox="0 0 52 52"><defs><style>.cls-1{fill:#db2228;}</style></defs><title>NF</title><path class="cls-1" d="M19.12142,29.822c.08838-.208.19265-.41083.262-.625.1732-.53484.31851-1.0789.49952-1.61092.08572-.252.23495-.48168.34063-.72781a1.84681,1.84681,0,0,0,.092-.367c.03251-.16238.06585-.3253.08461-.48962a6.692,6.692,0,0,1,.54648-1.42574c.11757-.33629.17087-.69459.26241-1.04053a9.95225,9.95225,0,0,1,.68571-2.0041c.07725-.15175.09971-.33038.162-.491.129-.33243.27162-.65955.40044-.992a3.4467,3.4467,0,0,0,.09981-.36714c.039-.14755.07822-.295.11629-.44284.00962-.03735.03426-.0867.01972-.11194-.13581-.2357.05022-.43591.07242-.653a.21871.21871,0,0,1,.15037-.14789c.21691-.01509.43979-.06491.618.14969.228.27459.51247.50565.71807.79432a1.56515,1.56515,0,0,1,.19121.62979.26725.26725,0,0,1-.15227.21116,1.15869,1.15869,0,0,0-.64255.52528,6.76067,6.76067,0,0,0-.39269.78454c-.1258.24366-.14706.54518-.39552.72236a.08852.08852,0,0,0-.03814.064c.03534.23266-.112.3612-.25986.50218-.06374.06077-.07849.172-.11831.259-.05272.11518-.11.22828-.16192.34383-.0411.0915-.08.18422-.1144.27842-.0393.10778-.03972.25513-.114.32029-.30379.2664-.30377.65249-.4191.98941-.15235.44511-.26561.90347-.40468,1.35335a1.16421,1.16421,0,0,1-.16559.34506,3.20782,3.20782,0,0,0-.45545,1.08881c-.10743.38309-.29482.74326-.43688,1.11738-.06989.18406-.11353.37791-.17433.56562-.15145.46767-.31821.93083-.454,1.40293-.06855.23832-.07726.49327-.12392.73863-.0483.254-.10031.51912-.3868.61635a.473.473,0,0,1-.33976.00824.97671.97671,0,0,1-.59425-.84955c-.01452-.47213-.10544-.94183-.16043-1.41289-.01268-.10856-.01866-.21828-.02106-.32761-.01426-.64966-.016-1.2998-.04263-1.94894-.02415-.58986-.05866-1.18029-.11927-1.7673-.03669-.35526-.1309-.70465-.20082-1.05637-.05742-.28886-.13356-.57521-.17008-.8666a4.90139,4.90139,0,0,1,.01107-.59449,6.932,6.932,0,0,0-.148-1.56907,1.71684,1.71684,0,0,1,.05534-.94959.21416.21416,0,0,1,.29471-.14207,3.095,3.095,0,0,1,1.22915.8028.58635.58635,0,0,1,.12761.52531c-.02985.17064-.05044.34289-.07649.51422a.19543.19543,0,0,1-.02556.09052,1.6025,1.6025,0,0,0-.27279.97667c-.02227.35661-.12.71072-.12043,1.066-.00082.67962.045,1.35925.06833,2.039a.85806.85806,0,0,1-.0241.24822.94429.94429,0,0,0,.03954.616,4.1424,4.1424,0,0,1,.145.65335c.068.32362.13727.647.204.97087.036.17478.0649.35109.10386.52518a.6371.6371,0,0,0,.07034.14037Z"/><path class="cls-1" d="M8.25874,24.03326c.02666.62278.05105,1.24568.08067,1.86832.02445.5141.03279,1.0304.08977,1.54109.04888.43815.15553.86994.2386,1.30417a5.98019,5.98019,0,0,1,.1297.6766c.01611.22131-.042.4477-.029.66963.02.34407.08615.6854.10759,1.02945a6.48463,6.48463,0,0,1,.00395.99232c-.02469.26885-.1497.33368-.40275.22128a6.94861,6.94861,0,0,1-.7159-.40949,1.79306,1.79306,0,0,1-.186-.13848.84284.84284,0,0,1-.29881-.79928c.022-.3775.27258-.66358.30688-1.02236.025-.26182.046-.524.06942-.786.03634-.40678.07449-.81341.10776-1.22044.00314-.03836-.01682-.10872-.03686-.113a.21443.21443,0,0,0-.15913.01788,3.22809,3.22809,0,0,1-1.20491.51522A4.07317,4.07317,0,0,0,5.341,28.8914a.27881.27881,0,0,0-.09554.15729c-.12059.45133-.22151.9084-.35633,1.35531-.10127.33571-.24756.65762-.36687.98817-.1367.37873-.26143.7618-.40064,1.13957-.04336.11768-.13513.21841-.17307.337-.10094.31554-.18667.63605-.27238.95621-.0098.03661.03011.08422.02751.12551-.0067.10618-.0219.21207-.03918.31718-.00471.02867-.03576.05244-.04289.08138-.06185.25107-.15216.32307-.36445.20479A2.21672,2.21672,0,0,1,2.16783,33.678a1.366,1.366,0,0,1-.15216-.4092c-.0344-.29635-.03393-.30176.23419-.43466A1.69728,1.69728,0,0,0,3.084,31.79718a2.07282,2.07282,0,0,1,.41263-.849c.02861-.02953.033-.08134.05333-.12033.06859-.1314.13913-.26177.20931-.39233.04634-.08621.09512-.17116.13928-.25845.02288-.0452.03683-.09482.057-.14151.0986-.2285.194-.45849.29875-.68417.0474-.10219.11675-.194.17058-.29346a2.21479,2.21479,0,0,0,.15755-.32123c.08725-.25224.1655-.50781.23982-.76423.062-.21379.0935-.43833.17346-.64455.13545-.34931.29825-.688.45-1.031a2.77187,2.77187,0,0,0,.117-.2606c.133-.41138.25524-.82633.39334-1.23594.04235-.12561.14294-.23208.18235-.3581a14.66123,14.66123,0,0,1,.455-1.4841c.17757-.40859.1474-.8455.29161-1.24859a.70881.70881,0,0,1,.179-.28439.41463.41463,0,0,1,.575-.01367.979.979,0,0,1,.44983.7437c.05456.62584.14645,1.24842.2228,1.87236Zm-2.528,3.82346a1.58416,1.58416,0,0,0,.19989-.0543c.325-.14982.64844-.303.97287-.454.20291-.09445.41084-.17925.60788-.28456.071-.038.17054-.12777.16551-.186a4.613,4.613,0,0,0-.01471-1.16333,8.22816,8.22816,0,0,1-.20093-.975c-.05075-.24967-.10327-.49906-.16055-.7473-.03179-.13779-.075-.273-.113-.40932l-.05734-.00273a.69986.69986,0,0,0-.08907.1338c-.12169.32329-.24239.64706-.35623.97318-.15969.45746-.2981.923-.47437,1.3738a2.79487,2.79487,0,0,0-.27953.9669A4.086,4.086,0,0,1,5.73074,27.85672Z"/><path class="cls-1" d="M40.18038,21.04277c.01356-.18631.02864-.37253.04017-.559.00785-.12695-.04309-.16853-.17674-.14425-.68715.12483-1.37578.24155-2.0641.3599a.79656.79656,0,0,1-.135.007,1.151,1.151,0,0,0-.8712.25505.60647.60647,0,0,1-.72574.03393,2.86692,2.86692,0,0,1-.653-.41881.38672.38672,0,0,1,.2674-.642c.32482-.0348.65244-.04256.978-.07167.54337-.04858,1.08766-.09231,1.62842-.16242.31566-.04093.62373-.13748.938-.19315a5.85269,5.85269,0,0,1,.6503-.06938c.25213-.016.29652-.06457.32256-.30625a2.94492,2.94492,0,0,1,.115-.401,7.41328,7.41328,0,0,0,.22195-.92527c.03893-.31461.17719-.45148.49872-.40646a1.2649,1.2649,0,0,1,.78971.5375,1.74356,1.74356,0,0,1,.18636.29143.56816.56816,0,0,1-.10292.63958c-.05606.07823-.1297.14511-.178.22732-.07478.12714-.018.231.12235.21477.50957-.05908,1.0178-.12967,1.52672-.19448.24782-.03156.498-.049.74371-.092.5101-.08921,1.01487-.21566,1.52768-.28061.4579-.058.924-.04936,1.38586-.07885.27525-.01758.55059-.04337.82383-.08057.58953-.08028,1.1773-.17342,1.76709-.25155.05967-.00791.12816.0507.19255.07843-.03841.05144-.06691.13151-.11712.1489-.14339.04965-.29776.06649-.44389.10955-.29389.08659-.58384.18661-.87809.27188-.15254.0442-.31085.06848-.46644.10229-.05013.0109-.11236.00834-.14789.03761-.34882.28738-.79417.12748-1.17958.2569a5.9868,5.9868,0,0,1-.60259.06038.8835.8835,0,0,0-.37593.1988c-.14365.12652-.26657.23858-.47363.13446a.40027.40027,0,0,0-.20531-.00559c-.25465.02757-.50837.08158-.76317.0863a5.98527,5.98527,0,0,0-1.405.20659,4.91073,4.91073,0,0,1-.99386.10425c-.35451.01708-.39028.04467-.49135.38092-.1081.35966-.24343.71108-.3619,1.06774a1.17828,1.17828,0,0,0-.02846.20791,5.5038,5.5038,0,0,1-.18987,1.22748,10.41861,10.41861,0,0,0-.26769,1.4607,6.15273,6.15273,0,0,0-.12445.77549c-.03759.35014-.05144.70279-.08564,1.05337-.02281.23376-.07948.46493-.092.69882a5.06893,5.06893,0,0,0,.00207.95851,1.9155,1.9155,0,0,1-.05345.87117.3074.3074,0,0,1-.45838.19544c-.19464-.09741-.38577-.20378-.56985-.31985a1.025,1.025,0,0,1-.37261-.63063.19816.19816,0,0,1,.07327-.16054.58526.58526,0,0,0,.21993-.387c.06084-.32563.16291-.64334.23271-.9676.04823-.22407.07017-.45375.10514-.68073.07933-.51481.1607-1.02931.23888-1.54429.0769-.5065.15023-1.01354.22665-1.52012.01523-.101.04163-.20033.05542-.30145.03539-.25956.06542-.51985.09981-.77955.03015-.22773.06332-.45506.09516-.68257Z"/><path class="cls-1" d="M45.38648,24.15539a2.03561,2.03561,0,0,0-.52936.66445,5.94018,5.94018,0,0,1-.36832.64169c-.01933.03256-.06168.0539-.0744.08759a5.87891,5.87891,0,0,1-1.12143,1.5042,3.69793,3.69793,0,0,0-.34022.57749.76844.76844,0,0,1-1.27766.18555c-.07726-.0669-.14714-.14232-.22064-.21358a.97568.97568,0,0,1-.21961-1.00124c.0767-.335.142-.67277.22694-1.0056.126-.494.27379-.98253.394-1.47783a4.73766,4.73766,0,0,0,.06523-.60027c.0518-.47265.10628-.945.15746-1.41773.03791-.35016.067-.70143.11368-1.05037a.21781.21781,0,0,1,.13283-.15105,1.25227,1.25227,0,0,1,1.07542.21854.31255.31255,0,0,1,.09406.38031c-.05413.16921-.11158.33756-.1592.50862a5.72955,5.72955,0,0,0-.26656,1.03542,7.65077,7.65077,0,0,1-.483,1.66978,5.667,5.667,0,0,0-.152.84938c-.04793.31683-.08839.63487-.12672.953a1.23367,1.23367,0,0,0,.02357.22908,1.23614,1.23614,0,0,0,.20525-.16026c.26824-.34388.53022-.69264.795-1.03925.29225-.3826.58909-.76179.876-1.14835.1101-.14836.19591-.31452.297-.46984.14886-.22873.30322-.45388.45212-.68258.26393-.40538.5007-.83145.79547-1.21282a2.03613,2.03613,0,0,0,.43829-1.12142c.019-.24741.14881-.35418.38292-.27211a5.455,5.455,0,0,1,.77389.31876.35559.35559,0,0,1,.132.55834,4.02764,4.02764,0,0,0-.45535,1.43445c-.03847.225-.13757.4391-.18427.66333-.065.31192-.1095.62825-.15745.9435-.07119.468-.14266.93608-.20315,1.40553a3.07319,3.07319,0,0,0,.00371.41912c.003.29673.002.59355.0092.89017a1.6707,1.6707,0,0,0,.03857.36165.431.431,0,0,1-.10943.47713.5198.5198,0,0,1-.52671-.05452,6.58036,6.58036,0,0,1-.55157-.60645,1.01973,1.01973,0,0,1-.145-.75838c.05659-.72373.13985-1.44537.21244-2.16785.01015-.101.02092-.202.02729-.30326C45.43768,24.204,45.41432,24.18875,45.38648,24.15539Z"/><path class="cls-1" d="M31.25355,28.28864c.04078-.06659.0829-.13239.12213-.19987.29954-.51525.62433-1.018.88831-1.55092a5.24744,5.24744,0,0,1,.56275-.97041,2.99727,2.99727,0,0,0,.49089-1.49431c.0928-.58545.09925-1.1841.16747-1.77421a1.89168,1.89168,0,0,1,.18923-.61992c.10812-.21489.33967-.11785.509-.10214.34463.032.73367.48415.50744.87045a1.65807,1.65807,0,0,0-.11685.482c-.09681.44786-.20374.89393-.285,1.34461-.07257.40228-.11408.81009-.17329,1.21488-.08136.55611-.20591,1.1097-.23387,1.66828a3.37778,3.37778,0,0,0,.21267.892,5.06837,5.06837,0,0,1,.11407.56178c.02264.18135-.11306.27626-.25042.35242-.13653.07568-.24152-.00912-.31957-.10287a4.021,4.021,0,0,1-.73572-1.07631,4.425,4.425,0,0,1-.1189-.52026c-.01243-.04907-.04731-.11835-.085-.12815a.17084.17084,0,0,0-.14406.06113,4.24291,4.24291,0,0,0-.85105,1.40086.56116.56116,0,0,1-.51156.4028.48839.48839,0,0,1-.48587-.24759,1.49317,1.49317,0,0,1-.41439-.704,3.91386,3.91386,0,0,1,.0986-1.90517,3.93934,3.93934,0,0,0,.0947-.62271c.12184-.59465.27495-1.18369.37463-1.78179.07036-.42223.06142-.85711.11291-1.28331a1.88206,1.88206,0,0,1,.1711-.49755c.014-.0326.10044-.05106.15178-.048a1.02432,1.02432,0,0,1,.88363,1.31684,3.07969,3.07969,0,0,0-.10309.56356c-.07118.32975-.1532.65715-.22839.986-.1295.56648-.25616,1.13361-.387,1.69977a.82068.82068,0,0,1-.08046.21528,1.6725,1.6725,0,0,0-.18964.8721c.00392.23461.00078.46933.00078.704Z"/><path class="cls-1" d="M21.99379,29.8341a1.49121,1.49121,0,0,0,.18009-.157c.24761-.29473.49957-.58658.73156-.89339.15628-.20667.2785-.43876.422-.65548.26172-.3952.52114-.79221.794-1.17966a4.80625,4.80625,0,0,0,.77867-1.51188,2.67781,2.67781,0,0,1,.16482-.40881c.04868-.10679.07905-.2501.2538-.19363a.31721.31721,0,0,1,.22034.36215.51982.51982,0,0,1-.05345.16357,1.8402,1.8402,0,0,0-.18834.75732c-.03374.31112-.11482.61685-.16792.9262-.04966.2893-.09491.57958-.1322.87071-.03425.26732-.068.53583-.07858.80474-.01052.26732.0024.53607.01549.80368.01407.28747.05169.57428.053.86151a.27591.27591,0,0,1-.15737.20433c-.37747.11414-.66772-.13789-.81149-.50148a1.568,1.568,0,0,1,.03727-1.20253,6.06748,6.06748,0,0,0,.19671-.88009c.00552-.0267-.01187-.05813-.03114-.1416-.13432.15087-.245.27146-.35131.39576a2.38528,2.38528,0,0,0-.24762.31312.89763.89763,0,0,0-.07785.26964c-.01527.07053.00812.1748-.03259.21035a2.28318,2.28318,0,0,0-.45888.87661,2.485,2.485,0,0,1-.74658,1.00353.90626.90626,0,0,1-1.12241.07108,1.24243,1.24243,0,0,1-.45573-1.41872c.1586-.50591.2771-1.025.45027-1.52551a7.07682,7.07682,0,0,1,.42657-.87945c.22494-.44017.44416-.88379.68577-1.31476.28749-.51281.57539-1.02769.90277-1.515.22012-.32766.51809-.60195.76433-.91347.20208-.25566.37566-.53364.5687-.79672a.30779.30779,0,0,1,.48812-.07464,2.2281,2.2281,0,0,1,.78416,1.20232.32721.32721,0,0,1-.40887.37121.94821.94821,0,0,1-.36886-.22571c-.11713-.12074-.212-.12978-.32454-.02362-.12086.114-.22839.24241-.35166.35353A5.75216,5.75216,0,0,0,23.2727,25.6407c-.08075.13717-.21927.24387-.28429.386a6.0229,6.0229,0,0,0-.34919.90942c-.16126.59128-.28424,1.19289-.43436,1.78736-.07164.2837-.17308.55975-.25211.84176a1.1004,1.1004,0,0,0-.0137.24215Z"/><path class="cls-1" d="M27.2859,24.641a2.01589,2.01589,0,0,0,.15645-.20665c.14352-.248.26119-.51361.427-.74511a3.162,3.162,0,0,1,.43534-.40069.40077.40077,0,0,0,.13459-.17911,1.21654,1.21654,0,0,1,.60677-.73265.96089.96089,0,0,1,.85506.0873,1.95459,1.95459,0,0,1,.16518.13117.44207.44207,0,0,1,.14652.4341c-.07821.316-.17.62895-.24015.94669-.11013.49859-.22362.99742-.30508,1.5011-.09.55647-.16272,1.117-.21065,1.6786-.0396.46393-.02634.93217-.05,1.3978a1.47886,1.47886,0,0,1-.1026.30076,1.757,1.757,0,0,0-.05888.28692,1.32353,1.32353,0,0,1-.02559.34094.43137.43137,0,0,1-.22861.24336.40921.40921,0,0,1-.324-.09625,1.38655,1.38655,0,0,1-.35345-1.58353,6.0764,6.0764,0,0,0,.17353-.91689c.06478-.38425.12183-.7698.18576-1.15419.064-.3847.13314-.76854.1986-1.153.08455-.49649.16885-.993.24979-1.49011a1.29037,1.29037,0,0,0-.009-.22028,1.81973,1.81973,0,0,0-.24351.22071,7.77108,7.77108,0,0,0-.82168,1.17451c-.26811.56276-.66413,1.03284-.97169,1.56285a1.842,1.842,0,0,0-.17912.48253,10.67055,10.67055,0,0,1-.28785,1.23025c-.22287.58973-.08112,1.217-.25606,1.80411a.398.398,0,0,1-.0798.16433.84436.84436,0,0,1-.679.07613c-.18128-.104-.22067-.25832-.17723-.53506.06465-.41188.10065-.82832.168-1.23968.07024-.42905.16518-.854.24508-1.28156.02707-.14485.03836-.29257.0618-.43819.06993-.43456.1427-.86867.21363-1.30307.08343-.511.17042-1.02143.245-1.53369a.6548.6548,0,0,0-.04562-.28018c-.07773-.24.0321-.40058.28586-.37545a7.78946,7.78946,0,0,1,.77309.12317.21637.21637,0,0,1,.14729.12952.83766.83766,0,0,1-.07846.72451,1.48149,1.48149,0,0,0-.22319.79569Z"/><path class="cls-1" d="M37.04758,25.96525c-.08125.13293-.16044.26718-.24433.39842-.08858.13856-.18159.2743-.27284.41115a.6608.6608,0,0,0-.064.09533,4.703,4.703,0,0,1-.33164.74454c-.11305.17007-.19508.34756-.29109.5224a.64391.64391,0,0,1-.55835.35808,1.06163,1.06163,0,0,1-.83118-.82313,13.801,13.801,0,0,1,.05048-1.6797,3.68969,3.68969,0,0,1,.36594-1.39832,5.12617,5.12617,0,0,0,.27865-.95594,3.40911,3.40911,0,0,1,.81629-1.39482c.14457-.14512.259-.3221.41148-.45709.23885-.21146.49646-.4021.75135-.59465a.20657.20657,0,0,1,.14875-.01374,1.44883,1.44883,0,0,1,1.20346,1.005.4711.4711,0,0,1-.11305.493.35747.35747,0,0,1-.44423-.0627.49921.49921,0,0,0-.68652-.10709,1.23851,1.23851,0,0,0-.21683.21087,3.16844,3.16844,0,0,1-.25949.30711,3.13519,3.13519,0,0,0-.61255.94535,8.19611,8.19611,0,0,1-.40287.71392,2.06039,2.06039,0,0,0-.33489.80794,2.159,2.159,0,0,1-.08932.2709,1.55334,1.55334,0,0,0-.11977.37985c-.02054.38445-.01805.77024-.01822,1.1555,0,.04231.04091.08463.06284.127a.45666.45666,0,0,0,.12828-.07285.56984.56984,0,0,0,.09629-.16518,3.20233,3.20233,0,0,1,.57329-.85731,4.7055,4.7055,0,0,0,.33626-.55826c.29677-.47111.58957-.94513.90107-1.40643a1.84256,1.84256,0,0,0,.30414-1.0711c-.00049-.207.06944-.26718.25377-.17649a2.872,2.872,0,0,1,.59211.3494.87729.87729,0,0,1,.19271.96271c-.06339.26022-.16861.51-.24145.76829a1.79908,1.79908,0,0,0-.03766.34349c-.03617.454-.06877.9084-.107,1.36226-.02077.24624-.05625.49134-.07282.73778-.00633.09418.0393.19266.02881.28551a.43323.43323,0,0,1-.10363.25c-.03184.031-.14806-.00573-.21629-.035a2.50983,2.50983,0,0,1-.39211-.201.85094.85094,0,0,1-.35494-.77163c.00012-.3151.02437-.63012.0323-.94532a1.6094,1.6094,0,0,0-.02812-.2373Z"/><path class="cls-1" d="M13.56065,27.28216a1.92542,1.92542,0,0,0,.17641-.21813c.16413-.27394.30509-.56323.48658-.82466a2.38009,2.38009,0,0,1,.37789-.3236.46122.46122,0,0,0,.13838-.19518,1.244,1.244,0,0,1,.71648-.77894.54385.54385,0,0,1,.73668.35634c.03726.15532.0695.31212.114.46534a.29116.29116,0,0,1-.169.38061c-.14278.072-.231-.01476-.31256-.11094a1.74368,1.74368,0,0,1-.1228-.171.23442.23442,0,0,0-.40039-.03643c-.21369.25514-.42664.51309-.61374.7877-.19752.28988-.3611.60267-.54578.90159-.15155.24529-.301.4932-.47161.7251a2.68287,2.68287,0,0,0-.52927,1.15315,4.28332,4.28332,0,0,1-.2438,1.07938c-.23539.51066-.04672,1.0538-.20987,1.56234-.05832.18179-.06942.37243-.28523.43675a.586.586,0,0,1-.66721-.19336.35879.35879,0,0,1-.05653-.21655c.09739-.63924.20716-1.27658.30749-1.91539.08335-.53067.1516-1.06379.24033-1.59351.06016-.35913.15-.71319.216-1.07147.07414-.403.14837-.80674.19742-1.2132a1.39822,1.39822,0,0,0-.05748-.46845.27323.27323,0,0,1,.25942-.3602,4.701,4.701,0,0,1,.8092.14385.35384.35384,0,0,1,.18428.25117.76223.76223,0,0,1-.12837.64528,2.24221,2.24221,0,0,0-.22819.75512Z"/><path class="cls-1" d="M11.83684,26.337a.79867.79867,0,0,1-.12888.40889,2.08015,2.08015,0,0,0-.237.93888,5.22628,5.22628,0,0,1-.10728.93207c-.14314.70724-.30875,1.40993-.4655,2.11441a.17352.17352,0,0,1-.02179.073c-.1893.22065-.11061.48631-.1321.73683-.029.33765-.07524.67389-.11865,1.01015a.22155.22155,0,0,1-.0605.117.68937.68937,0,0,1-.863-.10934.388.388,0,0,1-.04461-.21778c.0631-.489.127-.97829.20685-1.46482.12637-.77023.26358-1.53871.39956-2.30733.118-.66668.2475-1.33141.35547-1.99966a1.09159,1.09159,0,0,0-.04746-.43406c-.06432-.24462.0392-.402.2902-.3872a3.2264,3.2264,0,0,1,.59127.07123C11.81586,25.90991,11.82585,25.937,11.83684,26.337Z"/><path class="cls-1" d="M11.451,24.07484a3.747,3.747,0,0,1,.412.21074.24128.24128,0,0,1,.08133.32035.58186.58186,0,0,0-.02292.223.42632.42632,0,0,1-.1638.40811.39572.39572,0,0,1-.4319-.043.69608.69608,0,0,1-.33515-.83594A.50777.50777,0,0,1,11.451,24.07484Z"/></svg>