<svg id="Слой_1" data-name="Слой 1" xmlns="http://www.w3.org/2000/svg" viewBox="0 0 52 52"><defs><style>.cls-1{fill:#ee3725;}</style></defs><title>NN</title><path id="path24" class="cls-1" d="M26.07277,22.8976c2.37348-2.32463,6.40987-4.21354,7.15251-3.4714.79149.30692-.82306,3.084-.96863,3.89132.71056-.30692,2.21163-2.486,2.92268-2.7929a1.38511,1.38511,0,0,1,1.3555.32271c.17765.27436.35578,1.243.5497,1.51784C40.49079,20.29812,46.02874,18.79706,50,18.313l-1.77591,1.63035c-3.22862.40363-8.08857.5487-10.78477,3.32582-.61286.24228-1.03377.17764-1.21092-.29015a15.94325,15.94325,0,0,0-.58128-1.696c-1.0165.41943-3.35839,3.2454-4.37538,3.68111-.54921.22649-.678,0-.77471-.27436.113-.678,2.3567-3.97175,1.74383-4.16518-3.40724,1.45271-5.79651,4.69761-6.76564,5.69881-.41894.43522-.61286-.07994-.66171-.07994l.71056-1.841a13.30747,13.30747,0,0,0-3.762,1.469v-.95235a25.1051,25.1051,0,0,1,4.31075-1.92148M21.762,20.86312v.35577c.08092-.113.17764-.24228.25857-.37156Zm0-.75842.79148-.04886.85564-1.2267-1.64712.113Zm0,5.66674c-1.42064.7752-2.93848,1.82427-4.86045,3.08453-.48357.19393-2.56641.83936-2.50227-.38784l3.82717-5.52167C13.932,24.60938,10.735,27.64407,6.182,33.56987c-1.04956.679-3.8104,1.87361-4.182.75892a55.17388,55.17388,0,0,1,5.55423-16l4.69811-1.1137c-3.988,5.21425-5.57052,10.89825-6.50658,14.56259,3.89131-4.58511,9.57434-9.18649,13.627-10.47834l.20971-.29064,2.17956-.14557v.35578c-1.45271,2.147-2.32512,3.93967-3.84247,6.136A38.90623,38.90623,0,0,1,21.762,24.81909v.95235Zm0-6.8293-.74264.04835-.904,1.21092L21.762,20.1047Z"/><path id="path28" class="cls-1" d="M35.25053,33.855l.81567-1.43a4.06866,4.06866,0,0,1,1.75618-.36417c.31926.04836.41054.20626.376.4895a3.4683,3.4683,0,0,1-.60249,1.30467h1.12949a2.24263,2.24263,0,0,0,.53934-1.204.9594.9594,0,0,0-.87833-1.14134,5.8447,5.8447,0,0,0-1.90668.18751l.17567-.31334h-1.091l-1.431,2.47117h1.11716Zm-.85416-2.46625L32.98019,33.855H31.87635L33.294,31.3838Zm7.38986,1.16157-.301.42684h1.25385c.39179,0,1.75864.02565,1.66884-.65283-.16975-1.282-4.11436-1.43-4.66653.13816-.77718,2.22,3.5,1.5815,4.3902,1.33033-.04195-.13866-.08339-.27683-.12533-.415-.489.23784-3.22171.56352-3.32435-.40068-.09523-.89117.92867-1.06634,1.59383-1.06634,1.02834,0,1.15368.63951.46335.63951Zm7.72638-.3765a6.61392,6.61392,0,0,0-2.44552-.25116c-.26449.0301-.52947.12533-.53983.264-.01184.16876.10066.25363.51466.27584.81567.04392,2.13416.08783,2.108.7155-.01579.376-.47717.94051-2.597.902a9.56245,9.56245,0,0,1-2.07-.32469q.13765-.18874.27583-.37749a7.05917,7.05917,0,0,0,1.882.20083c1.52969-.08783,1.5815-.51319.28818-.60151-.96568-.06612-1.62641-.20281-1.40485-.95383.3163-1.07127,2.68435-.74066,3.88836-.36318l.10017.51368ZM21.48979,33.855h1.1295c.527-.96764,1.31059-2.0404,2.54569-2.05668.77816-.01037.43917.35035-.02467.602a3.67053,3.67053,0,0,1-1.11668.23784l-.13767.3005A2.24022,2.24022,0,0,1,25.56664,34.044h1.27951a2.66539,2.66539,0,0,0-1.543-1.19266,2.79881,2.79881,0,0,0,1.2045-.41449c.16333-.11251.49789-.47173.3015-.70217a1.84768,1.84768,0,0,0-1.61851-.38835,5.36419,5.36419,0,0,0-1.36734.36318l.17518-.301h-1.091Zm7.22553-.82849c-.09967.1885-.06266.31384.05033.36417a5.962,5.962,0,0,1,2.80969-.27535l-.02516.66369a7.41927,7.41927,0,0,0-3.28636.12583c-.3691.08092-1.12851-.06267-.70217-.81567l.96567-1.70535h1.10384l-.91583,1.64268ZM12.6339,33.855a6.77139,6.77139,0,0,1,2.39618-1.90716,8.159,8.159,0,0,1,2.59651-.55217c.0755,0,1.85635-.16234,1.204.80333l-1.10335,1.656H16.49758l1.279-1.75568c.31384-.414-.12484-.33949-.376-.31481a4.35193,4.35193,0,0,0-2.65967,1.34217,7.095,7.095,0,0,1,2.00783-.28768l-.452.50135c-.50084.01924-1.79763.04391-2.145.51466H12.6339Zm7.903-2.47117-1.43,2.47117H20.2231l1.41422-2.47117Z"/></svg>