<svg id="Слой_1" data-name="Слой 1" xmlns="http://www.w3.org/2000/svg" viewBox="0 0 52 52"><defs><style>.cls-1,.cls-2{fill:#00529b;}.cls-1{fill-rule:evenodd;}</style></defs><title>5N</title><path class="cls-1" d="M26.0432,37.70544l4.29669,4.30549a.914.914,0,0,0,1.30586,0l.78976-.78329a.93191.93191,0,0,0,0-1.31515l-5.07222-5.08013v-4.1139l2.36361,1.73811-.29084-2.613,3.68657,2.12705L34.87325,38.546a.91266.91266,0,0,0,1.1234.649l1.08059-.29167a.91283.91283,0,0,0,.65006-1.1321l-1.58525-5.9464L42.024,30.261A.93761.93761,0,0,0,42.677,29.1203l-.2937-1.075A.932.932,0,0,0,41.2485,27.385l-6.91694,1.864-3.55544-2.06126,2.67154-1.17782L31.067,24.94062l3.66091-2.107,6.56058,1.7525a.94938.94938,0,0,0,1.14045-.66036L42.714,22.848a.9411.9411,0,0,0-.6501-1.13777l-5.94185-1.59241,1.571-5.89214a.92182.92182,0,0,0-.6501-1.12922l-1.06632-.2859a.92372.92372,0,0,0-1.13475.65181l-1.86469,6.94414-3.55257,2.05272.3222-2.91322-2.38358,1.74962v-4.1453l5.07222-5.07167a.9318.9318,0,0,0,0-1.31506l-.78976-.7948a.9242.9242,0,0,0-1.30586,0L26.0432,14.28566,21.7151,9.92879a.94672.94672,0,0,0-1.32009,0l-.7784.78617a.90365.90365,0,0,0,0,1.31217l4.79,4.82582v4.22251l-2.09849-1.538.325,2.94175L19.055,20.40646l-1.859-6.94414a.91363.91363,0,0,0-1.11766-.65181l-1.08342.2859a.93325.93325,0,0,0-.6501,1.12922l1.571,5.89214L9.99106,21.71018A.91938.91938,0,0,0,9.3467,22.848l.27087,1.07783a.948.948,0,0,0,1.14045.66036l6.552-1.7525,3.6438,2.107-2.36648,1.04067,2.69151,1.19212L17.70633,29.249l-6.91411-1.864a.94.94,0,0,0-1.13476.66036l-.27656,1.075a.92629.92629,0,0,0,.65293,1.14073l5.86772,1.56379-1.591,5.9464a.92886.92886,0,0,0,.64724,1.1321l1.08911.29167a.928.928,0,0,0,1.13193-.649l1.75062-6.57536,3.6495-2.11553-.288,2.57863,2.11558-1.53517v4.24258l-4.79,4.8143a.90042.90042,0,0,0,0,1.30938l.7784.78617a.92582.92582,0,0,0,1.32009,0Z"/><polygon class="cls-1" points="26.103 11.7 21.772 7.346 26.103 3 30.443 7.346 26.103 11.7"/><polygon class="cls-1" points="26.103 49 21.772 44.652 26.103 40.3 30.443 44.652 26.103 49"/><rect class="cls-2" x="39.16887" y="13.47666" width="6.14938" height="6.13501" transform="translate(15.35527 53.08521) rotate(-75.04013)"/><polygon class="cls-1" points="38.382 33.022 44.31 31.43 45.898 37.376 39.973 38.969 38.382 33.022"/><rect class="cls-2" x="6.69032" y="13.57538" width="6.1336" height="6.14975" transform="translate(-3.98122 3.09701) rotate(-15.01811)"/><rect class="cls-2" x="6.94339" y="32.2836" width="6.15351" height="6.14015" transform="translate(-26.72183 35.91235) rotate(-75.04704)"/></svg>