<svg id="Слой_1" data-name="Слой 1" xmlns="http://www.w3.org/2000/svg" viewBox="0 0 52 52"><defs><style>.cls-1{fill:#ff595a;}.cls-2{fill:#31006f;}</style></defs><title>5N</title><path class="cls-1" d="M17.94257,21.19787,15.53907,30.052a1.11986,1.11986,0,0,0,.94524,1.40511l8.19231.99946a.14933.14933,0,0,1-.00308.2968l-8.61735.8719a2.23946,2.23946,0,0,0-1.93759,1.64655L11.41046,45.33956a.52291.52291,0,0,0,.78356.57825L32.61545,33.01769a.52283.52283,0,0,0,.04947-.848l-13.889-11.2409a.52264.52264,0,0,0-.83336.26912"/><path class="cls-2" d="M34.05777,30.80194l2.40315-8.85376a1.11992,1.11992,0,0,0-.94489-1.40545l-8.19233-.99946a.14931.14931,0,0,1,.00309-.2968l8.617-.87183A2.23966,2.23966,0,0,0,37.88173,16.728l2.7078-10.06777A.52264.52264,0,0,0,39.806,6.0824L19.38488,18.98211a.523.523,0,0,0-.0498.84838L33.2244,31.07106a.52265.52265,0,0,0,.83337-.26912"/></svg>