<svg id="Слой_1" data-name="Слой 1" xmlns="http://www.w3.org/2000/svg" viewBox="0 0 52 52"><defs><style>.cls-1{fill:#003e4a;}</style></defs><title>NZ</title><path class="cls-1" d="M3.83075,25.28956A201.72718,201.72718,0,0,1,18.62712,8.654C21.34837,5.84473,26.14141,2,31.31908,2c5.61667,0,9.11329,4.09952,9.11329,7.8958,0,3.7759-2.42493,7.664-7.63264,7.664a4.80061,4.80061,0,0,1-5.03566-4.632,3.33141,3.33141,0,0,1,3.46441-3.27413c2.34865,0,2.91665,2.57317,2.72949,3.50756a2.936,2.936,0,0,0,1.773-2.83134c0-2.21636-1.92235-3.84713-4.41192-3.84713-3.79061,0-7.516,3.52146-8.9403,4.91907a80.18635,80.18635,0,0,0-8.30263,9.34956H48.90648l-1.94185,4.53812Z"/><path class="cls-1" d="M3.09352,27.68593s2.25777,6.83741,5.252,13.379C10.89493,46.63132,15.10577,50,20.25166,50a7.96346,7.96346,0,0,0,8.13694-7.58071,6.63576,6.63576,0,0,0-6.65709-6.94463c-3.85393,0-4.65551,3.05378-4.65551,3.82049a3.35006,3.35006,0,0,0,3.17566,3.4022,2.7523,2.7523,0,0,0,3.025-2.35405,2.45185,2.45185,0,0,1,.86149,2.076c0,1.44223-1.16309,3.28805-3.8865,3.28805-2.16282,0-5.35269-1.202-7.55229-6.07516-2.58168-5.71351-2.77157-7.40137-2.77157-7.40137H44.00065l1.94506-4.54488Z"/></svg>