<svg id="Слой_1" data-name="Слой 1" xmlns="http://www.w3.org/2000/svg" viewBox="0 0 52 52"><defs><style>.cls-1{fill:#0d3f88;}.cls-1,.cls-2{fill-rule:evenodd;}.cls-2{fill:#ff0d0f;}</style></defs><title>OF</title><path class="cls-1" d="M6.57218,22.34144c-1.95058,0-3.12223,2.29136-3.48573,5.11825-.36188,2.82526.41381,5.11662,2.29948,5.11662,1.88729,0,3.25043-2.29136,3.61393-5.11662C9.36174,24.6328,8.52277,22.34144,6.57218,22.34144Zm.24991,5.11825c-.22556,1.63252-.73187,2.95508-1.30309,2.95508-.57285,0-.714-1.32256-.49008-2.95508.22557-1.63251.67345-2.95671,1.26415-2.95671C6.88538,24.503,7.046,25.82718,6.82209,27.45969Zm6.64042-5.11825L11.9939,28.2581l-.18338-5.91666H9.649l.57283,10.23487H12.828l2.79605-10.23487Zm6.3548,2.5429.28561-2.5429H16.3543L15.03661,32.57631h3.85571l.28562-2.54126H17.65253l.18337-1.428h1.32581l.28723-2.319H18.13449l.18013-1.4037Zm6.1763.33753A2.687,2.687,0,0,0,23.097,22.34469v-.00325H21.08958L19.85626,32.57631h2.00737l.50145-4.164.74,4.164h2.009l-.80977-4.55838C25.3802,27.9595,25.93519,26.5769,25.99361,25.22187Zm-1.76071.18176a1.78835,1.78835,0,0,1-1.71528,1.74773l.36675-3.0492C23.56593,24.19141,24.314,24.49975,24.2329,25.40363Zm11.48928-3.06219H33.043l-2.9421,10.23487h2.24431l.31644-1.58221h.91849q1.239-1.1757,2.40009-2.28811Zm-1.74125,6.96984h-.9834l1.11-4.65251Zm2.15668,3.265L36.0159,29.5758q-1.13188.70347-2.33031,1.4183h.25153l-.04382,1.58221Zm-7.77636-2.25079.839-7.98408H26.95592L25.88,32.57631h3.66424l.297-2.25079ZM37.10478,28.891l-.40569,3.68532H38.489l.701-5.03872Q38.17744,28.20941,37.10478,28.891Zm2.80579-6.54955H37.82692l-.56635,5.13285q1.48971-1.43614,2.79767-2.72951Zm1.3891,0-.18824,1.355q.70347-.70592,1.33555-1.355ZM40.722,26.499l-.38459,2.77171-.14768-2.40658c-.23692.16066-.47548.32294-.71889.48522l.3213,5.227h2.16967l.83086-7.54592Q41.79462,25.76063,40.722,26.499Zm3.82814-4.15756-.06005.43978c.2061-.14443.4057-.2921.594-.43978Zm1.7883.00162.00163-.00162h-.07465q-.92012.75947-1.92462,1.53028L43.148,32.57631h1.78992c1.59682-.00973,3.15306-.542,3.90766-4.6947C49.485,24.36992,48.03907,22.40636,46.3384,22.34306Zm.74486,5.32435c-.32455,2.254-.88117,2.67109-1.84348,2.72465l-.00324.00324.76757-5.60995C46.73761,24.84539,47.40782,25.4085,47.08326,27.66741Z"/><path class="cls-2" d="M47.45325,19.42369A6.96317,6.96317,0,0,1,45.084,22.34144c-.18825.14768-.38785.29535-.594.43978-.47709.33591-.998.66533-1.55786.99151-.56311.32943-1.16678.65561-1.80453.98341.69942-.70428,1.37611-1.35664,1.91488-1.98953V22.765c.12333-.1428.23693-.284.3424-.42355a2.97879,2.97879,0,0,0,.766-2.32868h1.40857l.00325-.58907Z"/></svg>