<svg id="Слой_1" data-name="Слой 1" xmlns="http://www.w3.org/2000/svg" viewBox="0 0 52 52"><defs><style>.cls-1{fill:#ef001e;}</style></defs><title>OK</title><path id="path2666" class="cls-1" d="M43.25324,26.81081l-.16437-5.57146c-.00685-.19519-.17464-.20889-.262-.0137L40.29116,26.8519c-.10274.22087-.03939.43147.15238.41606h2.5426C43.2053,27.25426,43.2755,27.07962,43.25324,26.81081ZM47.41043,17.714A67.72178,67.72178,0,0,0,47.383,7.08983,3.37029,3.37029,0,0,0,43.97921,4.001,70.8106,70.8106,0,0,0,5.80942,16.31167a3.3412,3.3412,0,0,0-.92287,4.47908,73.85921,73.85921,0,0,0,4.77358,6.82136l1.97244-8.08153A2.20189,2.20189,0,0,1,12.891,18.0855a7.17494,7.17494,0,0,1,3.0066-.41949H16.502l-.41093,1.60433L20.37157,17.666h3.3987l-.65749,2.72923H18.168a2.867,2.867,0,0,0-2.91927,2.16934H15.247l-.71912,2.87819-.00513.02739c-.01541.08732-.2671,1.14032-.27224,1.22593a1.64343,1.64343,0,0,0,.25683,1.12491,1.81878,1.81878,0,0,0,1.38688.76877,3.64538,3.64538,0,0,0,.41091.01369h4.82323l-.68144,2.7532H12.8174A69.80984,69.80984,0,0,0,34.65121,47.6875,3.35587,3.35587,0,0,0,38.995,46.26639a72.495,72.495,0,0,0,6.02-14.94055H43.38337l-.04452-1.84744a.20438.20438,0,0,0-.22772-.202h-3.6093c-.238-.00343-.32188.05478-.40064.238l-.81158,1.81149H33.25749L40.1439,17.71053Zm-12.05551,2.707H30.19439a1.157,1.157,0,0,0-.80987,2.1077l3.30281,2.45357c2.7241,2.05634,1.12662,6.36763-3.06652,6.37447H21.46566l.65577-2.77546h5.24613c1.79267.00857,2.66417-1.56322,1.38345-2.44157-1.25674-.87664-2.07174-1.57693-3.31993-2.46555-2.52548-1.78924-1.3355-5.96355,2.90216-5.98752h7.69114Z"/></svg>