<svg id="Слой_1" data-name="Слой 1" xmlns="http://www.w3.org/2000/svg" viewBox="0 0 52 52"><defs><style>.cls-1{fill:#004fa3;}</style></defs><title>OM</title><path id="path7129" class="cls-1" d="M19.34739,41.45681c-2.39786-1.99972-5.22086-3.90046-5.4458-7.86391-.13272-2.34162.866-3.62829.956-5.72923.14846-3.51132-.69281-5.54928-2.769-7.43427a2.01479,2.01479,0,0,1-1.63982.62083c-2.37086-.25868-2.47434-3.12442-4.74624-3.33361a1.92153,1.92153,0,0,0-1.88049.98524l-.87053-.884,1.055-1.08646-1.651-.0045L2,15.39748a1.15423,1.15423,0,0,0,1.44186-1.07071H21.05469c-1.23042.29467-1.80852,1.6803-3.05919,1.87825a2.50984,2.50984,0,0,1-1.8715-.56685.23594.23594,0,0,0-.21819.21369c0,.42064,1.27766.776,1.70279.7693,2.15268-.045,2.56208-2.29439,5.02517-2.29439H50l-3.88472,3.43258a1.80157,1.80157,0,0,1-1.21017.4139L18.86152,18.18l.67257.73106,25.34853.0045-4.05568,3.43933a2.059,2.059,0,0,1-1.31365.39815H23.17812l.67707.72656H39.59877L35.58808,26.8267a2.51311,2.51311,0,0,1-1.60158.42739H25.35105l.67482.7558h8.24181L30.29074,31.474a1.85969,1.85969,0,0,1-1.20793.42513H27.10108c.01125.69957.72881.70856,1.14945.66808h1.0977M12.3,13.72168a2.74569,2.74569,0,0,1-.49712-1.69155,1.62465,1.62465,0,0,1,1.46437-1.48686c.87726.01575,1.55433.56685,2.54407.58035a2.14089,2.14089,0,0,0,1.02348-.42289,2.57391,2.57391,0,0,1-1.58808,2.0852c-.7243.18445-1.66906-.12822-2.29214.126a1.50056,1.50056,0,0,0-.65458.80979"/></svg>