<svg id="Слой_1" data-name="Слой 1" xmlns="http://www.w3.org/2000/svg" xmlns:xlink="http://www.w3.org/1999/xlink" viewBox="0 0 52 52"><defs><style>.cls-1{fill:#fff;}.cls-2{fill:#fcfcfc;}.cls-3{fill:#fafafa;}.cls-4{fill:#f8f8f9;}.cls-5{fill:#f7f7f7;}.cls-6{fill:#f5f5f6;}.cls-7{fill:#f4f4f4;}.cls-8{fill:#f2f3f3;}.cls-9{fill:#f1f1f2;}.cls-10{fill:#eff0f0;}.cls-11{fill:#eeefef;}.cls-12{fill:#ededee;}.cls-13{fill:#ebeced;}.cls-14{fill:#eaebeb;}.cls-15{fill:#e8e9ea;}.cls-16{fill:#e7e8e9;}.cls-17{fill:#e6e6e7;}.cls-18{fill:#e4e5e6;}.cls-19{fill:#e3e4e5;}.cls-20{fill:#e1e3e4;}.cls-21{fill:#e0e1e2;}.cls-22{fill:#dfe0e1;}.cls-23{fill:#dddfe0;}.cls-24{fill:#dcdddf;}.cls-25{fill:#dbdcdd;}.cls-26{fill:#d9dbdc;}.cls-27{fill:#d8d9db;}.cls-28{fill:#d7d8d9;}.cls-29{fill:#d5d7d8;}.cls-30{fill:#d4d5d7;}.cls-31{fill:#d3d4d6;}.cls-32{fill:#d1d3d4;}.cls-33{fill:#ed1b2e;}.cls-34{fill:url(#linear-gradient);}.cls-35{fill:url(#linear-gradient-2);}.cls-36{fill:url(#linear-gradient-3);}.cls-37{fill:url(#linear-gradient-4);}.cls-38{fill:url(#linear-gradient-5);}.cls-39{fill:url(#linear-gradient-6);}.cls-40{fill:url(#linear-gradient-7);}.cls-41{fill:url(#linear-gradient-8);}.cls-42{fill:url(#linear-gradient-9);}.cls-43{fill:url(#linear-gradient-10);}.cls-44{fill:url(#linear-gradient-11);}.cls-45{fill:url(#linear-gradient-12);}.cls-46{fill:#ed1c25;}.cls-47{fill:url(#linear-gradient-13);}.cls-48{fill:url(#linear-gradient-14);}.cls-49{fill:url(#linear-gradient-15);}.cls-50{fill:url(#linear-gradient-16);}.cls-51{fill:url(#linear-gradient-17);}.cls-52{fill:url(#linear-gradient-18);}.cls-53{fill:url(#linear-gradient-19);}.cls-54{fill:url(#linear-gradient-20);}.cls-55{fill:url(#linear-gradient-21);}.cls-56{fill:url(#linear-gradient-22);}</style><linearGradient id="linear-gradient" x1="-655.06806" y1="559.34286" x2="-653.9607" y2="559.34286" gradientTransform="matrix(2.139, 10.063, 10.063, -2.139, -4194.6414, 7800.7658)" gradientUnits="userSpaceOnUse"><stop offset="0" stop-color="#ed1b2e"/><stop offset="0.21005" stop-color="#ea1a2d"/><stop offset="0.38225" stop-color="#e0182a"/><stop offset="0.54106" stop-color="#ce1526"/><stop offset="0.69102" stop-color="#b71020"/><stop offset="0.72472" stop-color="#b00f1e"/><stop offset="1" stop-color="#b00f1e"/></linearGradient><linearGradient id="linear-gradient-2" x1="-655.06883" y1="559.1124" x2="-653.9107" y2="559.1124" xlink:href="#linear-gradient"/><linearGradient id="linear-gradient-3" x1="-655.06758" y1="559.40468" x2="-653.99197" y2="559.40468" xlink:href="#linear-gradient"/><linearGradient id="linear-gradient-4" x1="-655.05001" y1="559.25947" x2="-655.04987" y2="559.25947" xlink:href="#linear-gradient"/><linearGradient id="linear-gradient-5" x1="-655.06792" y1="559.40265" x2="-653.98108" y2="559.40265" xlink:href="#linear-gradient"/><linearGradient id="linear-gradient-6" x1="-655.07596" y1="559.22337" x2="-653.93987" y2="559.22337" xlink:href="#linear-gradient"/><linearGradient id="linear-gradient-7" x1="-655.06319" y1="559.12989" x2="-653.99424" y2="559.12989" xlink:href="#linear-gradient"/><linearGradient id="linear-gradient-8" x1="-655.06837" y1="559.1138" x2="-653.96247" y2="559.1138" xlink:href="#linear-gradient"/><linearGradient id="linear-gradient-9" x1="-655.07293" y1="559.21799" x2="-653.94337" y2="559.21799" xlink:href="#linear-gradient"/><linearGradient id="linear-gradient-10" x1="-655.06719" y1="559.07297" x2="-653.96912" y2="559.07297" xlink:href="#linear-gradient"/><linearGradient id="linear-gradient-11" x1="-655.06623" y1="559.20405" x2="-653.96994" y2="559.20405" xlink:href="#linear-gradient"/><linearGradient id="linear-gradient-12" x1="-655.06473" y1="559.54808" x2="-654.06743" y2="559.54808" xlink:href="#linear-gradient"/><linearGradient id="linear-gradient-13" x1="-622.61218" y1="526.69805" x2="-621.53054" y2="526.69805" gradientTransform="matrix(12.524, 0, 0, -12.524, 7818.984, 6610.5411)" gradientUnits="userSpaceOnUse"><stop offset="0" stop-color="#ed1b2e"/><stop offset="0.09048" stop-color="#e91a2c"/><stop offset="0.18403" stop-color="#dc1728"/><stop offset="0.279" stop-color="#c81220"/><stop offset="0.37494" stop-color="#ab0c15"/><stop offset="0.47078" stop-color="#860307"/><stop offset="0.5" stop-color="#790002"/><stop offset="1" stop-color="#790002"/></linearGradient><linearGradient id="linear-gradient-14" x1="-622.62898" y1="526.60554" x2="-621.52163" y2="526.60554" xlink:href="#linear-gradient-13"/><linearGradient id="linear-gradient-15" x1="-622.63634" y1="526.62611" x2="-621.50974" y2="526.62611" xlink:href="#linear-gradient-13"/><linearGradient id="linear-gradient-16" x1="-622.64476" y1="526.66085" x2="-621.50356" y2="526.66085" xlink:href="#linear-gradient-13"/><linearGradient id="linear-gradient-17" x1="-622.62913" y1="526.62987" x2="-621.47075" y2="526.62987" xlink:href="#linear-gradient-13"/><linearGradient id="linear-gradient-18" x1="-622.62805" y1="526.69412" x2="-621.52237" y2="526.69412" xlink:href="#linear-gradient-13"/><linearGradient id="linear-gradient-19" x1="-622.62222" y1="526.68103" x2="-621.52754" y2="526.68103" xlink:href="#linear-gradient-13"/><linearGradient id="linear-gradient-20" x1="-622.62906" y1="526.66908" x2="-621.52131" y2="526.66908" xlink:href="#linear-gradient-13"/><linearGradient id="linear-gradient-21" x1="-622.64649" y1="526.75579" x2="-621.5058" y2="526.75579" xlink:href="#linear-gradient-13"/><linearGradient id="linear-gradient-22" x1="-622.62963" y1="526.75318" x2="-621.52043" y2="526.75318" xlink:href="#linear-gradient-13"/></defs><title>OS</title><path class="cls-1" d="M29.36442,30.97522s1.56374-.357,1.43819-1.01013c-.05812-.317,0-.64907-1.722-.52247-1.7194.13176-22.645,1.859-25.3798,1.859-.34608,0-1.81694.09962-1.69347.74869.12761.65422.97331.69418,1.22185.73.249.0306,2.84684.318,3.58049.97023,1.13988,1.01168-.2854,3.8539-2.20871,5.2236-3.6256,2.58482-1.75468,2.73427-.79172,2.13705C8.69612,38.09987,17.28441,34.137,29.36442,30.97522ZM4.70893,38.9103c1.90614-1.35781,3.32723-4.15381,2.21955-5.16607-.71394-.65215-3.29047-.93543-3.53688-.96811-.24439-.03273-1.10566-.07162-1.2286-.71187-.12145-.63605,1.33911-.73519,1.67839-.73519,2.71094,0,23.39842-1.71159,25.10326-1.84133,1.70649-.12555,1.65044.19041,1.709.50429.12093.63611-1.43872.99149-1.43872.99149C17.25174,34.11417,8.72,38.063,3.967,40.98667,3.01285,41.57863,1.172,41.43337,4.70893,38.9103Z"/><path class="cls-2" d="M29.215,30.98351s1.55965-.35538,1.43872-.99149c-.0586-.31388-.00255-.62984-1.709-.50429-1.70484.12974-22.39232,1.84133-25.10326,1.84133-.33928,0-1.79984.09914-1.67839.73519.12294.64025.98421.67914,1.2286.71187.24641.03268,2.82294.316,3.53688.96811,1.10768,1.01226-.31341,3.80826-2.21955,5.16607C1.172,41.43337,3.01285,41.57863,3.967,40.98667,8.72,38.063,17.25174,34.11417,29.215,30.98351ZM4.81943,38.84856c1.88644-1.348,3.30131-4.09728,2.22838-5.11209-.69471-.65114-3.24946-.93028-3.49177-.96242-.24227-.03273-1.1139-.06955-1.23535-.6937-.12347-.62522,1.32614-.72117,1.66393-.72117,2.68236,0,23.13634-1.69608,24.8236-1.82576,1.68933-.12454,1.63535.17532,1.694.48559.11672.61741-1.43458.97438-1.43458.97438C17.21954,34.09345,8.74128,38.02618,4.1252,40.86474,3.17935,41.44788,1.37123,41.31038,4.81943,38.84856Z"/><path class="cls-3" d="M29.06765,30.99339s1.5513-.357,1.43458-.97438c-.05866-.31027-.00468-.61013-1.694-.48559C27.121,29.6631,6.667,31.35918,3.98462,31.35918c-.33779,0-1.7874.096-1.66393.72117.12145.62415.99308.661,1.23535.6937.24231.03214,2.79706.31128,3.49177.96242,1.07293,1.01481-.34194,3.76411-2.22838,5.11209-3.4482,2.46182-1.64008,2.59932-.69423,2.01618C8.74128,38.02618,17.21954,34.09345,29.06765,30.99339ZM4.92994,38.78369c1.86466-1.335,3.27692-4.03915,2.23459-5.05343-.67293-.65115-3.20376-.92821-3.44608-.96089-.24025-.03219-1.12277-.06694-1.24417-.67606-.11672-.6122,1.31733-.70613,1.65092-.70613,2.6585,0,22.87436-1.681,24.54659-1.80866,1.6701-.124,1.61824.15928,1.67684.46748.11672.59924-1.4299.95621-1.4299.95621C17.18894,34.0706,8.76514,37.9883,4.28294,40.74127,3.34644,41.31665,1.57,41.18484,4.92994,38.78369Z"/><path class="cls-4" d="M28.91873,31.00221s1.54662-.357,1.4299-.95621c-.0586-.3082-.00674-.59148-1.67684-.46748-1.67223.12762-21.88809,1.80866-24.54659,1.80866-.33359,0-1.76764.09393-1.65092.70613.1214.60912,1.00392.64387,1.24417.67606.24232.03268,2.77315.30974,3.44608.96089,1.04233,1.01428-.36993,3.71847-2.23459,5.05343-3.36,2.40115-1.5835,2.533-.647,1.95758C8.76514,37.9883,17.18894,34.0706,28.91873,31.00221ZM5.03992,38.72089c1.84547-1.32407,3.25359-3.9805,2.24346-4.99738-.65115-.65114-3.16078-.92561-3.40044-.95828-.23818-.03012-1.13366-.0628-1.25039-.65736-.1173-.59929,1.30431-.69269,1.63536-.69269,2.63045,0,22.61079-1.66542,24.26792-1.791,1.65458-.12347,1.60268.1427,1.66133.44777.11465.58526-1.42783.9391-1.42783.9391C17.15675,34.05036,8.78692,37.95042,4.44068,40.61934,3.513,41.18691,1.76921,41.06137,5.03992,38.72089Z"/><path class="cls-5" d="M28.76933,31.011s1.54248-.35384,1.42783-.9391c-.05865-.30507-.00675-.57124-1.66133-.44777-1.65713.1256-21.63747,1.791-24.26792,1.791-.331,0-1.75266.0934-1.63536.69269.11673.59456,1.01221.62724,1.25039.65736.23966.03267,2.74929.30714,3.40044.95828,1.01013,1.01688-.398,3.67331-2.24346,4.99738-3.27071,2.34048-1.52692,2.466-.59924,1.89845C8.78692,37.95042,17.15675,34.05036,28.76933,31.011Zm-23.621,7.64712C6.97412,37.345,8.38017,34.73625,7.4001,33.7173c-.62936-.65221-3.11716-.922-3.35321-.95414-.23764-.03167-1.14407-.06073-1.25665-.64025-.11465-.58734,1.2914-.67814,1.62032-.67814,2.60457,0,22.34881-1.652,23.98676-1.77752,1.6395-.11986,1.58972.13229,1.64832.43273.11051.566-1.42369.92141-1.42369.92141-11.49581,3.00719-19.81112,6.89168-24.023,9.47442C3.67956,41.05722,1.96584,40.93583,5.14835,38.65815Z"/><path class="cls-6" d="M28.622,31.02139s1.5342-.35538,1.42369-.92141c-.0586-.30044-.00882-.55259-1.64832-.43273-1.63795.12554-21.38219,1.77752-23.98676,1.77752-.32892,0-1.735.0908-1.62032.67814.11258.57952,1.019.60858,1.25665.64025.236.03214,2.72385.30193,3.35321.95414.98007,1.01895-.426,3.62767-2.25175,4.94085-3.18251,2.27768-1.46879,2.39907-.54945,1.83766C8.81083,37.91307,17.12614,34.02858,28.622,31.02139Zm-23.361,7.5729c1.804-1.30016,3.20589-3.86373,2.2585-4.88273-.61013-.65322-3.07668-.9204-3.31018-.95053-.23345-.03267-1.15284-.0586-1.26334-.62415-.11258-.57432,1.281-.663,1.60735-.663,2.57652,0,22.08519-1.63742,23.70758-1.76094,1.62238-.1188,1.57521.11677,1.6354.41509.10636.54738-1.42321.90223-1.42321.90223C17.094,34.0094,8.83468,37.87726,4.75664,40.37341,3.84606,40.92748,2.16508,40.81182,5.26093,38.59429Z"/><path class="cls-7" d="M28.473,31.03021s1.52957-.35485,1.42321-.90223c-.06019-.29832-.013-.53389-1.6354-.41509-1.62239.12352-21.13106,1.76094-23.70758,1.76094-.32637,0-1.71993.08873-1.60735.663.1105.56555,1.02989.59148,1.26334.62415.2335.03013,2.70005.29731,3.31018.95053.94739,1.019-.45452,3.58257-2.2585,4.88273-3.09585,2.21753-1.41487,2.33319-.50429,1.77912C8.83468,37.87726,17.094,34.0094,28.473,31.03021ZM5.36884,38.53048c1.78687-1.2872,3.182-3.80512,2.26731-4.82514-.58834-.65215-3.031-.91732-3.26241-.94893-.2335-.03012-1.16373-.054-1.27217-.60343-.11-.56449,1.27217-.65008,1.59227-.65008,2.55267,0,21.82321-1.62138,23.42849-1.74485,1.60735-.11779,1.56219.10168,1.62032.3974.10636.53081-1.419.88464-1.419.88464-11.2623,2.94747-19.461,6.80918-23.40926,9.21139C4.01469,40.79987,2.36431,40.68729,5.36884,38.53048Z"/><path class="cls-8" d="M28.32363,31.04009s1.52538-.35383,1.419-.88464c-.05813-.29572-.013-.51519-1.62032-.3974-1.60528.12347-20.87582,1.74485-23.42849,1.74485-.3201,0-1.7023.08559-1.59227.65008.10844.54945,1.03867.57331,1.27217.60343.23137.03161,2.67407.29678,3.26241.94893.91472,1.02-.48044,3.53794-2.26731,4.82514-3.00453,2.15681-1.35415,2.26939-.45447,1.721C8.86268,37.84927,17.06133,33.98756,28.32363,31.04009ZM5.48147,38.46774C7.24651,37.1893,8.6422,34.7176,7.755,33.69859c-.56662-.65427-2.98955-.91365-3.21885-.94638-.22935-.03007-1.17053-.04978-1.27636-.58627-.10844-.55153,1.25872-.635,1.57675-.635,2.52462,0,21.56171-1.60735,23.15191-1.72721,1.58764-.11672,1.54668.08666,1.60528.37876.10121.51364-1.41742.86748-1.41742.86748-11.14511,2.91586-19.2877,6.76354-23.10165,9.077C4.18125,40.66912,2.563,40.56175,5.48147,38.46774Z"/><path class="cls-9" d="M28.17631,31.04992s1.51863-.35384,1.41742-.86748c-.0586-.2921-.01764-.49548-1.60528-.37876-1.5902.11986-20.62729,1.72721-23.15191,1.72721-.318,0-1.68519.08352-1.57675.635.10583.53649,1.047.5562,1.27636.58627.2293.03273,2.65223.29211,3.21885.94638.8872,1.019-.50849,3.49071-2.27353,4.76915-2.91846,2.094-1.30022,2.20138-.40681,1.6592C8.88861,37.81346,17.0312,33.96578,28.17631,31.04992Zm-22.58694,7.355c1.74793-1.26127,3.13688-3.69148,2.28235-4.71155-.54531-.65577-2.94438-.91312-3.17114-.94325-.22723-.03007-1.18136-.04564-1.28512-.56916-.10584-.53852,1.24831-.62049,1.56426-.62049,2.49822,0,21.29968-1.59126,22.87022-1.71112,1.57048-.11624,1.53366.07109,1.58971.36006.09962.49755-1.41226.84883-1.41226.84883A92.47069,92.47069,0,0,0,5.23033,40.00608C4.34781,40.53991,2.76638,40.445,5.58937,38.40494Z"/><path class="cls-10" d="M28.02739,31.05826s1.51188-.35128,1.41226-.84883c-.056-.289-.01923-.4763-1.58971-.36006-1.57054.11986-20.372,1.71112-22.87022,1.71112-.31595,0-1.6701.082-1.56426.62049.10376.52352,1.05789.53909,1.28512.56916.22676.03013,2.62583.28748,3.17114.94325.85453,1.02007-.53442,3.45028-2.28235,4.71155-2.823,2.04-1.24156,2.135-.359,1.60114A92.47069,92.47069,0,0,1,28.02739,31.05826ZM5.69988,38.34214c1.72822-1.25038,3.113-3.63442,2.29117-4.6555-.52608-.65529-2.90342-.90845-3.12858-.93857-.22463-.0306-1.18966-.04564-1.29135-.55153-.10381-.52709,1.23742-.607,1.54923-.607,2.47224,0,21.03766-1.57728,22.59315-1.69507,1.55545-.11465,1.51863.05658,1.57723.34294.097.47944-1.41279.83173-1.41279.83173A92.0891,92.0891,0,0,0,5.3886,39.88361C4.51432,40.41022,2.96355,40.3215,5.69988,38.34214Z"/><path class="cls-11" d="M27.87794,31.06915s1.50981-.35229,1.41279-.83173c-.0586-.28636-.02178-.45759-1.57723-.34294-1.55549.11779-20.12091,1.69507-22.59315,1.69507-.31181,0-1.653.0799-1.54923.607.10169.50589,1.06672.52093,1.29135.55153.22516.03012,2.6025.28328,3.12858.93857.82185,1.02108-.563,3.40512-2.29117,4.6555-2.73633,1.97936-1.18556,2.06808-.31128,1.54147A92.0891,92.0891,0,0,1,27.87794,31.06915ZM5.81039,38.27833c1.709-1.23842,3.09123-3.57683,2.29946-4.6-.50637-.65375-2.85981-.9043-3.0829-.935-.22261-.03007-1.19852-.041-1.29761-.53383-.10429-.51524,1.22653-.592,1.53366-.592,2.44631,0,20.77621-1.56172,22.314-1.67945,1.53834-.11258,1.50359.043,1.56224.32424.09287.46281-1.40811.81563-1.40811.81563A91.50891,91.50891,0,0,0,5.54836,39.75908C4.68087,40.28054,3.16225,40.196,5.81039,38.27833Z"/><path class="cls-12" d="M27.73115,31.078s1.501-.35282,1.40811-.81563c-.05865-.28121-.0239-.43682-1.56224-.32424-1.53781.11773-19.86771,1.67945-22.314,1.67945-.30713,0-1.63795.07677-1.53366.592.09909.49287,1.075.50376,1.29761.53383.22309.03066,2.57653.28121,3.0829.935.79177,1.02315-.59042,3.36156-2.29946,4.6-2.64814,1.91763-1.12952,2.00221-.262,1.48075A91.50891,91.50891,0,0,1,27.73115,31.078ZM5.92036,38.21453c1.68987-1.22547,3.06531-3.51717,2.30621-4.54085-.48459-.65423-2.81672-.90431-3.0372-.93337C4.9709,32.71125,3.98,32.70243,3.885,32.2256c-.09962-.50323,1.21563-.579,1.5207-.579,2.41825,0,20.5121-1.54562,22.0354-1.66133,1.5207-.11359,1.488.026,1.54663.30612.0908.44464-1.404.79746-1.404.79746A91.01737,91.01737,0,0,0,5.704,39.63821C4.8495,40.1508,3.36355,40.073,5.92036,38.21453Z"/><path class="cls-13" d="M27.58376,31.08886s1.49478-.35282,1.404-.79746c-.05865-.28014-.02593-.41971-1.54663-.30612-1.5233.11571-19.61715,1.66133-22.0354,1.66133-.30507,0-1.62032.07576-1.5207.579.09494.47683,1.08589.48565,1.30436.51471.22048.02906,2.55261.27914,3.0372.93337.7591,1.02368-.61634,3.31538-2.30621,4.54085C3.36355,40.073,4.8495,40.1508,5.704,39.63821A91.01737,91.01737,0,0,1,27.58376,31.08886ZM6.03087,38.15173c1.66808-1.21458,3.0414-3.46112,2.31455-4.48533-.46488-.65317-2.77315-.90117-2.99162-.92922-.21841-.03007-1.22031-.03581-1.31318-.49861-.09754-.49027,1.20475-.56343,1.50567-.56343,2.39238,0,20.2506-1.53058,21.75627-1.64624,1.50566-.11051,1.47559.013,1.53366.28742.08873.42854-1.40392.78083-1.40392.78083a90.64557,90.64557,0,0,0-21.57,8.41653C5.01606,40.02111,3.56018,39.94742,6.03087,38.15173Z"/><path class="cls-14" d="M27.4323,31.09715s1.49265-.35229,1.40392-.78083c-.05807-.27446-.028-.39793-1.53366-.28742-1.50567.11566-19.36389,1.64624-21.75627,1.64624-.30092,0-1.60321.07316-1.50567.56343.09287.4628,1.09477.46854,1.31318.49861.21847.02805,2.52674.276,2.99162.92922.72685,1.02421-.64647,3.27075-2.31455,4.48533-2.47069,1.79569-1.01481,1.86938-.16858,1.362A90.64557,90.64557,0,0,1,27.4323,31.09715ZM6.14138,38.089c1.64837-1.20267,3.01754-3.40044,2.32076-4.42827-.441-.65422-2.72959-.89755-2.94592-.92661-.21427-.027-1.22706-.03167-1.31786-.47944-.09494-.47783,1.19438-.54945,1.49063-.54945,2.36693,0,19.9891-1.51656,21.4792-1.63121,1.48643-.1079,1.45844-.00207,1.51656.27138.08458.41037-1.3993.76059-1.3993.76059a90.32626,90.32626,0,0,0-21.2634,8.28525C5.18262,39.89137,3.75941,39.824,6.14138,38.089Z"/><path class="cls-15" d="M27.28545,31.106s1.48388-.35022,1.3993-.76059c-.05812-.27345-.03013-.37928-1.51656-.27138-1.4901.11465-19.11227,1.63121-21.4792,1.63121-.29625,0-1.58557.07162-1.49063.54945.0908.44777,1.10359.45245,1.31786.47944.21633.02906,2.5049.27239,2.94592.92661.69678,1.02783-.67239,3.2256-2.32076,4.42827-2.382,1.735-.95876,1.80239-.11933,1.30224A90.32626,90.32626,0,0,1,27.28545,31.106ZM6.24934,38.02411c1.6312-1.18971,2.99624-3.34338,2.33213-4.37068-.42179-.65475-2.687-.89447-2.9013-.924-.21379-.02805-1.23742-.02805-1.32561-.46179-.0934-.46488,1.18291-.53543,1.47708-.53543,2.341,0,19.72713-1.49993,21.2006-1.61251,1.46884-.1095,1.44292-.0187,1.501.25215.08251.39225-1.39723.743-1.39723.743A89.83039,89.83039,0,0,0,6.18032,39.26828C5.34913,39.76014,3.95817,39.69841,6.24934,38.02411Z"/><path class="cls-16" d="M27.136,31.11479s1.47974-.3507,1.39723-.743c-.05807-.27085-.03215-.36165-1.501-.25215-1.47347.11258-18.85959,1.61251-21.2006,1.61251-.29417,0-1.57048.07055-1.47708.53543.08819.43374,1.11182.43374,1.32561.46179.21427.02954,2.47951.26926,2.9013.924.66411,1.0273-.70093,3.181-2.33213,4.37068-2.29117,1.6743-.90021,1.736-.069,1.24417A89.83039,89.83039,0,0,1,27.136,31.11479ZM6.35984,37.96131c1.60943-1.17876,2.97239-3.28472,2.33835-4.31563-.40261-.65322-2.64341-.89134-2.85566-.91833-.20959-.02906-1.2457-.026-1.33029-.4457-.09286-.45085,1.17053-.52039,1.46-.52039,2.313,0,19.46563-1.48595,20.92146-1.59747,1.45376-.10583,1.4299-.03113,1.4885.23711.07991.37408-1.39356.72377-1.39356.72377A89.40564,89.40564,0,0,0,6.33806,39.14582C5.51622,39.63147,4.15533,39.57441,6.35984,37.96131Z"/><path class="cls-17" d="M26.98867,31.12467s1.47347-.34969,1.39356-.72377c-.0586-.26824-.03474-.34294-1.4885-.23711-1.45583.11152-18.60851,1.59747-20.92146,1.59747-.2895,0-1.55289.06954-1.46.52039.08459.41972,1.1207.41664,1.33029.4457.21225.027,2.453.26511,2.85566.91833.634,1.03091-.72892,3.13687-2.33835,4.31563-2.20451,1.6131-.84362,1.67016-.02178,1.18451A89.40564,89.40564,0,0,1,26.98867,31.12467ZM6.46982,37.89857c1.59025-1.16585,2.94646-3.22613,2.34722-4.257-.38082-.65582-2.60043-.88932-2.81-.91625-.20752-.02906-1.2566-.02285-1.33911-.42753-.0908-.44,1.15959-.50589,1.44754-.50589,2.2865,0,19.201-1.47086,20.64185-1.58137,1.43665-.10589,1.41481-.0467,1.47346.21735.07577.358-1.391.70613-1.391.70613a89.07371,89.07371,0,0,0-20.344,7.88992C5.68277,39.50173,4.35456,39.44987,6.46982,37.89857Z"/><path class="cls-18" d="M26.83975,31.134s1.46678-.3481,1.391-.70613c-.05865-.26405-.03681-.32324-1.47346-.21735C25.31645,30.321,8.402,31.79186,6.11545,31.79186c-.288,0-1.53834.06593-1.44754.50589.08251.40468,1.13159.39847,1.33911.42753.20959.02693,2.4292.26043,2.81.91625.59924,1.03091-.757,3.09119-2.34722,4.257-2.11526,1.5513-.78705,1.60316.02593,1.12532A89.07371,89.07371,0,0,1,26.83975,31.134ZM6.58033,37.8363c1.57053-1.15544,2.9226-3.17061,2.35344-4.20151-.35905-.65529-2.55682-.88672-2.76227-.91472-.20752-.02752-1.26547-.0187-1.34792-.40781-.08612-.4296,1.14869-.49341,1.43458-.49341,2.25844,0,18.93949-1.45482,20.36318-1.56533,1.419-.10269,1.3993-.06019,1.4579.19924.07369.34193-1.38888.69-1.38888.69A88.72279,88.72279,0,0,0,6.654,38.90042C5.84928,39.372,4.55533,39.32534,6.58033,37.8363Z"/><path class="cls-19" d="M26.69036,31.14279s1.46257-.3481,1.38888-.69c-.0586-.25943-.03889-.30193-1.4579-.19924C25.19765,30.364,8.5166,31.81885,6.25816,31.81885c-.28589,0-1.5207.06381-1.43458.49341.08245.38911,1.1404.38029,1.34792.40781.20545.028,2.40322.25943,2.76227.91472.56916,1.0309-.78291,3.04607-2.35344,4.20151-2.025,1.489-.731,1.53574.07369,1.06412A88.72279,88.72279,0,0,1,26.69036,31.14279ZM6.69084,37.772c1.54875-1.143,2.89875-3.11147,2.36225-4.14339-.33981-.65481-2.51372-.88411-2.71923-.9111-.20337-.027-1.27423-.0161-1.35207-.39119-.08665-.41557,1.13573-.47736,1.419-.47736,2.23257,0,18.676-1.4418,20.082-1.5487,1.40393-.10269,1.38889-.07677,1.44494.1816.07157.32376-1.38479.67191-1.38479.67191A88.36125,88.36125,0,0,0,6.81176,38.77795C6.01584,39.24336,4.75249,39.2008,6.69084,37.772Z"/><path class="cls-20" d="M26.543,31.15373s1.45636-.34815,1.38479-.67191c-.056-.25837-.041-.28429-1.44494-.1816-1.406.1069-17.84945,1.5487-20.082,1.5487-.28329,0-1.50567.06179-1.419.47736.07784.37509,1.1487.3642,1.35207.39119.20551.027,2.37942.25629,2.71923.9111.5365,1.03192-.8135,3.00039-2.36225,4.14339-1.93835,1.42884-.675,1.4714.12092,1.006A88.36125,88.36125,0,0,1,26.543,31.15373ZM6.79874,37.70863c1.53164-1.13153,2.87489-3.05276,2.37108-4.08681-.318-.65428-2.4707-.8805-2.67407-.9085-.20078-.02592-1.28253-.012-1.35829-.372-.08458-.40468,1.12484-.46541,1.404-.46541,2.20659,0,18.416-1.42523,19.80491-1.53159,1.38687-.10169,1.37178-.09181,1.4299.16241.06694.30714-1.38214.65529-1.38214.65529A88.10389,88.10389,0,0,0,6.96944,38.655C6.18239,39.11107,4.95119,39.07579,6.79874,37.70863Z"/><path class="cls-21" d="M26.39411,31.162s1.44908-.34815,1.38214-.65529c-.05812-.25422-.043-.2641-1.4299-.16241-1.38889.10636-17.59832,1.53159-19.80491,1.53159-.27914,0-1.48856.06073-1.404.46541.07576.36,1.15751.34608,1.35829.372.20337.028,2.356.25422,2.67407.9085.50381,1.03405-.83944,2.95528-2.37108,4.08681-1.84755,1.36716-.61635,1.40244.1707.94638A88.10389,88.10389,0,0,1,26.39411,31.162ZM6.9093,37.64589c1.50981-1.12069,2.851-2.99422,2.37936-4.03034-.29837-.65316-2.42919-.87731-2.62843-.9043-.1987-.02592-1.29347-.00988-1.365-.3549-.08405-.39272,1.11443-.44984,1.38889-.44984,2.18066,0,18.15245-1.41067,19.52582-1.5165,1.36971-.09962,1.35675-.10482,1.4128.14472.06689.29-1.37805.63712-1.37805.63712a87.78229,87.78229,0,0,0-19.11695,7.3607C6.349,38.98239,5.14835,38.95232,6.9093,37.64589Z"/><path class="cls-22" d="M26.24466,31.17185s1.44494-.34709,1.37805-.63712c-.05605-.24954-.04309-.24434-1.4128-.14472-1.37337.10583-17.34516,1.5165-19.52582,1.5165-.27446,0-1.47294.05712-1.38889.44984.07156.345,1.16633.329,1.365.3549.19924.027,2.33006.25114,2.62843.9043.47163,1.03612-.86955,2.90965-2.37936,4.03034-1.761,1.30643-.56035,1.3365.21841.88666A87.78229,87.78229,0,0,1,26.24466,31.17185ZM7.01928,37.58309c1.49063-1.10874,2.82766-2.93557,2.38871-3.97428-.27914-.65317-2.38611-.8737-2.58327-.89963-.19663-.027-1.30229-.00675-1.37391-.3388-.0799-.37822,1.10359-.43582,1.376-.43582,2.15261,0,17.88835-1.39515,19.24717-1.49891,1.35414-.09861,1.34325-.11933,1.3993.12761.0628.27239-1.37545.61847-1.37545.61847A87.3451,87.3451,0,0,0,7.28752,38.41062C6.51546,38.85271,5.34705,38.82673,7.01928,37.58309Z"/><path class="cls-23" d="M26.09781,31.18173s1.43825-.34608,1.37545-.61847c-.056-.24694-.04516-.22622-1.3993-.12761-1.35882.10376-17.09456,1.49891-19.24717,1.49891-.27239,0-1.45588.0576-1.376.43582.07162.33205,1.17728.31181,1.37391.3388.19716.02593,2.30413.24646,2.58327.89963.439,1.03871-.89808,2.86554-2.38871,3.97428-1.67223,1.24364-.50382,1.26962.26824.82753A87.3451,87.3451,0,0,1,26.09781,31.18173Zm-18.968,6.33649c1.47087-1.09578,2.80376-2.87744,2.39494-3.91563-.25736-.65577-2.343-.87216-2.53764-.89809s-1.31313-.00414-1.38007-.3201c-.07783-.36786,1.09211-.42184,1.36036-.42184,2.12881,0,17.629-1.38006,18.96808-1.48282,1.337-.09754,1.33029-.13542,1.38634.1095.0586.25523-1.37338.60131-1.37338.60131A87.31457,87.31457,0,0,0,7.44367,38.28614C6.682,38.72089,5.54629,38.70017,7.12978,37.51822Z"/><path class="cls-24" d="M25.94841,31.19055s1.432-.34608,1.37338-.60131c-.056-.24492-.04931-.207-1.38634-.1095-1.33911.10276-16.83927,1.48282-18.96808,1.48282-.26825,0-1.43819.054-1.36036.42184.06694.316,1.18551.29418,1.38007.3201s2.28028.24232,2.53764.89809c.40882,1.03819-.92407,2.81985-2.39494,3.91563-1.58349,1.182-.44776,1.20267.31389.76792A87.31457,87.31457,0,0,1,25.94841,31.19055ZM7.24029,37.45548c1.44908-1.08489,2.7799-2.81885,2.40322-3.85964-.23812-.65321-2.29946-.86748-2.49194-.89447-.19249-.02486-1.322,0-1.38682-.30193-.07783-.35437,1.07968-.40627,1.34585-.40627,2.10023,0,17.36434-1.365,18.68836-1.46779,1.31993-.09648,1.31318-.1494,1.37184.09287.056.23664-1.37184.58319-1.37184.58319A86.87817,86.87817,0,0,0,7.60348,38.16469C6.84857,38.59222,5.74291,38.57564,7.24029,37.45548Z"/><path class="cls-25" d="M25.799,31.20144s1.42783-.34655,1.37184-.58319c-.05866-.24227-.05191-.18935-1.37184-.09287-1.324.10275-16.58813,1.46779-18.68836,1.46779-.26617,0-1.42368.0519-1.34585.40627.06482.30193,1.19433.27707,1.38682.30193.19248.027,2.25382.24126,2.49194.89447.37668,1.04079-.95414,2.77475-2.40322,3.85964-1.49738,1.12016-.39172,1.13674.36319.70921A86.87817,86.87817,0,0,1,25.799,31.20144ZM7.35027,37.39167c1.4299-1.07453,2.756-2.76072,2.41-3.802-.2164-.65322-2.25643-.86749-2.44684-.8924-.18781-.02487-1.33029.00313-1.39309-.28483-.07363-.3414,1.06879-.39118,1.3329-.39118,2.07429,0,17.10284-1.35106,18.40927-1.45174,1.30489-.09388,1.29814-.16443,1.35674.07369.05191.22053-1.3671.56656-1.3671.56656a86.71207,86.71207,0,0,0-17.89047,6.831C7.01513,38.461,5.94215,38.45058,7.35027,37.39167Z"/><path class="cls-26" d="M25.65217,31.20973s1.419-.346,1.3671-.56656c-.0586-.23812-.05185-.16757-1.35674-.07369-1.30643.10068-16.335,1.45174-18.40927,1.45174-.26411,0-1.40653.04978-1.3329.39118.0628.288,1.20528.26,1.39309.28483.19041.02491,2.23044.23918,2.44684.8924.346,1.04132-.98012,2.72751-2.41,3.802-1.40812,1.05891-.33514,1.06932.41143.649A86.71207,86.71207,0,0,1,25.65217,31.20973ZM7.46078,37.32993c1.40812-1.06469,2.73219-2.70419,2.41883-3.747-.19716-.65322-2.21333-.86281-2.40167-.88773-.18781-.02491-1.34118.00622-1.39931-.26718-.07368-.33,1.0579-.37769,1.31526-.37769,2.04832,0,16.84134-1.336,18.13268-1.4341,1.28726-.09441,1.28258-.17952,1.34124.055.04978.20338-1.36509.54839-1.36509.54839A86.48016,86.48016,0,0,0,7.91943,37.92035C7.18169,38.33024,6.13883,38.3261,7.46078,37.32993Z"/><path class="cls-27" d="M25.50272,31.21961s1.41487-.345,1.36509-.54839c-.05866-.23456-.054-.14945-1.34124-.055-1.29134.09807-16.08436,1.4341-18.13268,1.4341-.25736,0-1.38894.04771-1.31526.37769.05813.2734,1.2115.24227,1.39931.26718.18834.02492,2.20451.23451,2.40167.88773.31336,1.04286-1.01071,2.68236-2.41883,3.747-1.322.99617-.27909,1.00031.45865.59042A86.48016,86.48016,0,0,1,25.50272,31.21961Zm-17.934,6.04646c1.391-1.05269,2.70882-2.64447,2.42761-3.68834-.17538-.65481-2.16977-.86026-2.356-.88619-.18367-.02385-1.35.00983-1.40812-.24853-.0695-.317,1.04913-.36372,1.30436-.36372,2.02037,0,16.57729-1.32248,17.85153-1.418,1.27216-.09494,1.26961-.19456,1.32821.03788.04564.18627-1.363.53022-1.363.53022A86.44581,86.44581,0,0,0,8.07717,37.79688C7.34612,38.19949,6.336,38.20156,7.56873,37.26607Z"/><path class="cls-28" d="M25.35332,31.22944s1.4086-.34395,1.363-.53022c-.0586-.23244-.05605-.13282-1.32821-.03788-1.27424.09547-15.83116,1.418-17.85153,1.418-.25523,0-1.37386.0467-1.30436.36372.05812.25836,1.22445.22468,1.40812.24853.18627.02593,2.18066.23138,2.356.88619.28121,1.04387-1.03665,2.63565-2.42761,3.68834-1.23274.93549-.22261.93342.50844.53081A86.44581,86.44581,0,0,1,25.35332,31.22944ZM7.67924,37.20227c1.36918-1.0418,2.68236-2.58742,2.43589-3.63235-.15561-.65322-2.12875-.8566-2.31242-.88252-.18159-.02386-1.35882.013-1.41279-.23037-.069-.30613,1.03611-.34916,1.28725-.34916,1.99646,0,16.31781-1.307,17.57446-1.4019,1.25246-.09186,1.25506-.21013,1.31106.01918.04308.16863-1.35622.51263-1.35622.51263a86.54253,86.54253,0,0,0-16.97363,6.4351C7.51268,38.06768,6.53469,38.07389,7.67924,37.20227Z"/><path class="cls-29" d="M25.20647,31.23778s1.3993-.344,1.35622-.51263c-.056-.22931-.0586-.111-1.31106-.01918-1.25665.09494-15.578,1.4019-17.57446,1.4019-.25114,0-1.35627.043-1.28725.34916.054.24333,1.2312.20651,1.41279.23037.18367.02592,2.15681.2293,2.31242.88252.24647,1.04493-1.06671,2.59055-2.43589,3.63235-1.14455.87162-.16656.86541.5536.47061A86.54253,86.54253,0,0,1,25.20647,31.23778ZM7.78975,37.13952c1.34739-1.034,2.65643-2.52881,2.44423-3.57481-.136-.65322-2.08519-.85553-2.26471-.87938s-1.36976.016-1.42162-.2122c-.06694-.29423,1.02576-.33625,1.27217-.33625,1.97107,0,16.05583-1.29034,17.29586-1.38581,1.23741-.08973,1.23949-.22255,1.29761.00207.03889.15153-1.35622.49553-1.35622.49553A86.3843,86.3843,0,0,0,8.39313,37.55042C7.67924,37.93539,6.73185,37.94734,7.78975,37.13952Z"/><path class="cls-30" d="M25.05707,31.24867s1.39511-.344,1.35622-.49553c-.05812-.22462-.0602-.0918-1.29761-.00207-1.24.09547-15.32479,1.38581-17.29586,1.38581-.24641,0-1.33911.042-1.27217.33625.05186.22824,1.2421.18829,1.42162.2122s2.12876.22616,2.26471.87938c.2122,1.046-1.09684,2.54077-2.44423,3.57481-1.0579.80782-.11051.79587.60338.4109A86.3843,86.3843,0,0,1,25.05707,31.24867Zm-17.15735,5.827c1.32615-1.02209,2.63518-2.4717,2.451-3.51871-.11466-.65321-2.04216-.84984-2.21908-.87476-.1774-.02492-1.378.01817-1.42783-.1961-.06482-.28121,1.01226-.32222,1.25872-.32222,1.943,0,15.79227-1.27737,17.01672-1.36817,1.21978-.09181,1.22446-.23812,1.28253-.01658.03479.13437-1.35207.47731-1.35207.47731A86.29992,86.29992,0,0,0,8.55087,37.427C7.84367,37.80257,6.92848,37.82175,7.89972,37.07566Z"/><path class="cls-31" d="M24.9097,31.25643s1.38686-.34294,1.35207-.47731c-.05807-.22154-.06275-.07523-1.28253.01658-1.22445.0908-15.0737,1.36817-17.01672,1.36817-.24646,0-1.32354.041-1.25872.32222.04983.21427,1.25043.17118,1.42783.1961.17692.02492,2.10442.22155,2.21908.87476.18419,1.047-1.12484,2.49662-2.451,3.51871-.97124.74609-.056.72691.65115.35129A86.29992,86.29992,0,0,1,24.9097,31.25643ZM8.01023,37.01185c1.30643-1.00912,2.60872-2.41,2.45773-3.46111-.09547-.65115-1.99907-.84624-2.17445-.87216-.17484-.02232-1.38421.02178-1.434-.17745-.06073-.26926,1.00136-.30714,1.24363-.30714,1.91709,0,15.53029-1.25973,16.73758-1.35313,1.20267-.08612,1.20735-.25162,1.27015-.03321.03007.11779-1.35213.45866-1.35213.45866A86.80112,86.80112,0,0,0,8.70914,37.305C8.01023,37.67288,7.12771,37.69982,8.01023,37.01185Z"/><path class="cls-32" d="M24.7587,31.26631s1.3822-.34087,1.35213-.45866c-.0628-.21841-.06748-.05291-1.27015.03321C23.63339,30.93426,10.02019,32.194,8.1031,32.194c-.24227,0-1.30436.03788-1.24363.30714.04983.19923,1.2592.15513,1.434.17745.17538.02592,2.079.221,2.17445.87216.151,1.05115-1.1513,2.452-2.45773,3.46111-.88252.688,0,.661.69891.29317A86.80112,86.80112,0,0,1,24.7587,31.26631Z"/><path class="cls-33" d="M30.318,14.16682l.00467.00935c-.04983-.00234-.10168-.00287-.15619-.00287.05865,0,.10636.00856.16241.01142l-.00414-.00855Z"/><path class="cls-33" d="M29.84641,13.65084a.91773.91773,0,0,0-.097-.03682A.91773.91773,0,0,1,29.84641,13.65084Z"/><path class="cls-33" d="M30.06067,14.1767c-.15768.00255-.32631.015-.50637.035C29.73436,14.19174,29.903,14.17925,30.06067,14.1767Z"/><path class="cls-33" d="M29.10032,13.27442l-.03267.006c-.14478.02747-.74816.14345-1.16166.22777l.01971-.00341C28.3994,13.40905,29.10032,13.27442,29.10032,13.27442Z"/><path class="cls-33" d="M27.77832,14.60758q.36037-.11365.688-.19355Q28.13864,14.49421,27.77832,14.60758Z"/><path class="cls-33" d="M28.61159,13.44873c.04723-.00127.09494-.00281.14685-.00281l-.02184-.00106C28.6915,13.44486,28.65255,13.44746,28.61159,13.44873Z"/><path class="cls-33" d="M29.51334,13.52864c-.041-.01089-.08665-.01557-.12974-.02386C29.42669,13.51307,29.47233,13.51775,29.51334,13.52864Z"/><path class="cls-33" d="M27.562,14.67372c-.29417.09675-.60965.21246-.94324.3422C26.95233,14.88618,27.26781,14.77047,27.562,14.67372Z"/><path class="cls-33" d="M28.42325,13.45447l-.0628.00494Z"/><path class="cls-33" d="M29.35146,14.2361c-.2122.02981-.43534.07029-.6776.12554C28.91612,14.30639,29.13926,14.26591,29.35146,14.2361Z"/><path class="cls-33" d="M29.13926,13.46483c-.04776-.00494-.09292-.00542-.14063-.008C29.04634,13.45941,29.09357,13.46042,29.13926,13.46483Z"/><path class="cls-33" d="M35.01035,12.27178h0l-.07784.01142c-.96035.14371-1.92538.2947-2.88159.45632l-.03214.00542c-.98681.166-1.96432.34247-2.91846.52948C31.01688,12.8996,33.02684,12.56648,35.01035,12.27178Z"/><path class="cls-33" d="M35.01035,12.27077c-.02593.00361-.05393.00855-.07991.013l.00207-.00053C34.95849,12.27932,34.98442,12.27438,35.01035,12.27077Z"/><path class="cls-33" d="M26.32249,15.13551c-.331.13564-.67707.28376-1.047.4542C25.64542,15.42007,25.99145,15.27115,26.32249,15.13551Z"/><path class="cls-33" d="M32.05092,12.73952,32.094,12.732c-.03427.006-.069.01142-.10376.01737l.02853-.00441Z"/><path class="cls-34" d="M49.96111,10.64c.03214-.01063.03889-.02306.03889-.0306a.01558.01558,0,0,0-.00468-.0109s-7.29222.5331-14.985,1.67324h0l-2.715,3.69174v-.001h0v-.00286c0-.00155.00207-.02593.00207-.05032v-.04c0-.034-.00415-.07937-.00829-.12921a.559.559,0,0,0-.00675-.06274,1.72938,1.72938,0,0,0-.15981-.53883c-.013-.0254-.0306-.05138-.04569-.07731a1.43991,1.43991,0,0,0-.15561-.22542c-.02179-.02545-.041-.05138-.06487-.07629a1.77392,1.77392,0,0,0-.78551-.45861c-.04308-.014-.09494-.02391-.1427-.03554a3.07573,3.07573,0,0,0-.49341-.07316c-.03629-.00261-.069-.006-.10583-.00755a1.39323,1.39323,0,0,1,.13856.62469c.00207,1.07554-1.004,3.09559-5.60289,7.13395a59.81977,59.81977,0,0,1-6.50724,4.85213l4.34368-.69832a64.59113,64.59113,0,0,1,12.09712-8.759A112.098,112.098,0,0,1,49.96111,10.64Z"/><path class="cls-35" d="M31.99025,12.74935c-.97751.16555-1.94461.34013-2.88993.52507C30.04564,13.089,31.01274,12.9149,31.99025,12.74935Z"/><path class="cls-36" d="M32.094,12.732c.94325-.15849,1.89324-.30767,2.83643-.44825C33.98725,12.42378,33.03726,12.573,32.094,12.732Z"/><path class="cls-33" d="M32.05092,12.73952l-.03214.00542Z"/><path class="cls-37" d="M32.05092,12.73952l-.03214.00542Z"/><path class="cls-33" d="M34.93251,12.2832l-.00207.00053c-.94319.14058-1.89318.28976-2.83643.44825l-.04309.00754C33.00713,12.5779,33.97216,12.42691,34.93251,12.2832Z"/><path class="cls-38" d="M34.93251,12.2832l-.00207.00053c-.94319.14058-1.89318.28976-2.83643.44825l-.04309.00754C33.00713,12.5779,33.97216,12.42691,34.93251,12.2832Z"/><path class="cls-33" d="M32.2891,15.74017a.57264.57264,0,0,0-.00675-.06274A.559.559,0,0,1,32.2891,15.74017Z"/><path class="cls-39" d="M32.2891,15.74017a.57264.57264,0,0,0-.00675-.06274A.559.559,0,0,1,32.2891,15.74017Z"/><path class="cls-33" d="M31.07086,14.301c-.04308-.014-.09494-.02391-.1427-.03554C30.97592,14.27706,31.02778,14.28694,31.07086,14.301Z"/><path class="cls-40" d="M31.07086,14.301c-.04308-.014-.09494-.02391-.1427-.03554C30.97592,14.27706,31.02778,14.28694,31.07086,14.301Z"/><path class="cls-33" d="M32.01878,12.74494l-.02853.00441c-.97751.16555-1.94461.3396-2.88993.52507C30.05446,13.08741,31.032,12.911,32.01878,12.74494Z"/><path class="cls-41" d="M32.01878,12.74494l-.02853.00441c-.97751.16555-1.94461.3396-2.88993.52507C30.05446,13.08741,31.032,12.911,32.01878,12.74494Z"/><path class="cls-33" d="M32.12254,15.1386c-.013-.02593-.0306-.05085-.04569-.07731C32.09194,15.08722,32.10958,15.1132,32.12254,15.1386Z"/><path class="cls-42" d="M32.12254,15.1386c-.013-.02593-.0306-.05085-.04569-.07731C32.09194,15.08722,32.10958,15.1132,32.12254,15.1386Z"/><path class="cls-33" d="M30.32478,14.17617l.00414.00855c.03682.00155.06954.00494.10583.00755C30.39379,14.18913,30.36786,14.17771,30.32478,14.17617Z"/><path class="cls-43" d="M30.32478,14.17617l.00414.00855c.03682.00155.06954.00494.10583.00755C30.39379,14.18913,30.36786,14.17771,30.32478,14.17617Z"/><path class="cls-33" d="M31.85637,14.75958c.02385.02491.04308.05084.06487.07629C31.89945,14.80994,31.88022,14.785,31.85637,14.75958Z"/><path class="cls-44" d="M31.85637,14.75958c.02385.02491.04308.05084.06487.07629C31.89945,14.80994,31.88022,14.785,31.85637,14.75958Z"/><path class="cls-33" d="M35.01035,12.27178v-.001c-.02593.00361-.05186.00855-.07784.01243Z"/><path class="cls-45" d="M35.01035,12.27178v-.001c-.02593.00361-.05186.00855-.07784.01243Z"/><path class="cls-46" d="M27.9257,13.50478c.01918-.0026.07576-.01009.15981-.0205.02386-.00255.04149-.00542.06949-.008.04309-.00494.10169-.00855.15567-.013l.04978-.00388.0628-.00494h.00414c.054-.00313.11673-.00414.17538-.0052l.00882-.00054c.041-.00127.07991-.00387.125-.00387l.02184.00106c.07778,0,.16029.006.24019.01089.04771.0026.09287.00308.14063.008.08453.00856.16444.02439.24434.04.04309.00829.08873.013.12974.02386a1.53292,1.53292,0,0,1,.236.08538.91773.91773,0,0,1,.097.03682.85608.85608,0,0,1,.25788.19689,1.56687,1.56687,0,0,1,.21374.31909l.00675.00935c.04308.00154.069.013.11.0161a3.07573,3.07573,0,0,1,.49341.07316c.04776.01163.09962.02151.1427.03554a1.77392,1.77392,0,0,1,.78551.45861c.02385.02544.04308.05036.06487.07629a1.43991,1.43991,0,0,1,.15561.22542c.01509.02646.03273.05138.04569.07731a1.72938,1.72938,0,0,1,.15981.53883.57264.57264,0,0,1,.00675.06274c.00414.04984.00829.09521.00829.12921v.04c0,.02439-.00207.04877-.00207.05032v.00387l2.715-3.69174h0c-1.98351.2947-3.99347.62782-5.91,1.00264C29.10032,13.27442,28.3994,13.40905,27.9257,13.50478Z"/><path class="cls-47" d="M30.06067,14.1767c.02806-.00053.05866-.00393.08458-.00393l.02126.00053C30.13436,14.17277,30.09547,14.17617,30.06067,14.1767Z"/><path class="cls-48" d="M21.21922,15.03638l3.96547.59381c.03007-.0145.0586-.02592.0908-.04048-.0322.01509-.05813.02439-.0908.03948Z"/><path class="cls-49" d="M26.61874,15.01592c-.097.03783-.19663.07911-.29625.11959C26.42211,15.095,26.52172,15.05375,26.61874,15.01592Z"/><path class="cls-50" d="M27.77832,14.60758c-.07363.02231-.14058.04122-.21634.06614C27.63774,14.64933,27.70469,14.62989,27.77832,14.60758Z"/><polygon class="cls-51" points="21.198 15.021 21.208 15.034 21.219 15.036 21.208 15.033 21.198 15.021"/><path class="cls-52" d="M29.5543,14.21171c-.06694.0075-.13388.01451-.20284.02439C29.42042,14.22622,29.48736,14.21873,29.5543,14.21171Z"/><path class="cls-53" d="M28.67386,14.36164c-.06694.015-.14063.035-.20752.05239C28.53323,14.39665,28.60692,14.37668,28.67386,14.36164Z"/><path class="cls-33" d="M30.318,14.16682a1.56687,1.56687,0,0,0-.21374-.31909.85608.85608,0,0,0-.25788-.19689.91773.91773,0,0,0-.097-.03682,1.53292,1.53292,0,0,0-.236-.08538c-.041-.01089-.08665-.01557-.12974-.02386-.0799-.01556-.15981-.03139-.24434-.04-.04569-.00441-.09292-.00542-.14063-.008-.0799-.00494-.16241-.01089-.24019-.01089-.05191,0-.09962.00154-.14685.00281-.0654.0016-.13022.00261-.18834.00574l-.0628.00494c-.26612.01892-.45446.04978-.45446.04978l.01971-.00441-.01971.00341-6.68677,1.49965-.01089.00314-.01036.00983.01036.01248.01089.00309,3.96547.59281c.03267-.01509.0586-.02439.0908-.03948.36993-.17044.716-.31856,1.047-.4542.09962-.04048.19923-.08176.29625-.11959.33359-.12974.64907-.24545.94324-.3422.07576-.02492.14271-.04383.21634-.06614q.36037-.11365.688-.19355c.06689-.01738.14058-.03735.20752-.05239.24226-.05525.4654-.09573.6776-.12554.069-.00988.1359-.01689.20284-.02439.18006-.02.34869-.03246.50637-.035.0348-.00053.07369-.00393.10584-.0034.05451,0,.10636.00053.15619.00287Z"/><path class="cls-54" d="M30.318,14.16682a1.56687,1.56687,0,0,0-.21374-.31909.85608.85608,0,0,0-.25788-.19689.91773.91773,0,0,0-.097-.03682,1.53292,1.53292,0,0,0-.236-.08538c-.041-.01089-.08665-.01557-.12974-.02386-.0799-.01556-.15981-.03139-.24434-.04-.04569-.00441-.09292-.00542-.14063-.008-.0799-.00494-.16241-.01089-.24019-.01089-.05191,0-.09962.00154-.14685.00281-.0654.0016-.13022.00261-.18834.00574l-.0628.00494c-.26612.01892-.45446.04978-.45446.04978l.01971-.00441-.01971.00341-6.68677,1.49965-.01089.00314-.01036.00983.01036.01248.01089.00309,3.96547.59281c.03267-.01509.0586-.02439.0908-.03948.36993-.17044.716-.31856,1.047-.4542.09962-.04048.19923-.08176.29625-.11959.33359-.12974.64907-.24545.94324-.3422.07576-.02492.14271-.04383.21634-.06614q.36037-.11365.688-.19355c.06689-.01738.14058-.03735.20752-.05239.24226-.05525.4654-.09573.6776-.12554.069-.00988.1359-.01689.20284-.02439.18006-.02.34869-.03246.50637-.035.0348-.00053.07369-.00393.10584-.0034.05451,0,.10636.00053.15619.00287Z"/><path class="cls-46" d="M28.42739,13.45447h-.00414c.05812-.00313.12294-.00414.18834-.00574l-.00882.00054C28.54412,13.45033,28.48137,13.45134,28.42739,13.45447Z"/><path class="cls-55" d="M28.42739,13.45447h-.00414c.05812-.00313.12294-.00414.18834-.00574l-.00882.00054C28.54412,13.45033,28.48137,13.45134,28.42739,13.45447Z"/><path class="cls-46" d="M28.155,13.47625c-.028.00261-.04563.00548-.06949.008-.084.01041-.14063.0179-.15981.0205l-.01971.00441s.18834-.03086.45446-.04978l-.04978.00388C28.25669,13.4677,28.19809,13.47131,28.155,13.47625Z"/><path class="cls-56" d="M28.155,13.47625c-.028.00261-.04563.00548-.06949.008-.084.01041-.14063.0179-.15981.0205l-.01971.00441s.18834-.03086.45446-.04978l-.04978.00388C28.25669,13.4677,28.19809,13.47131,28.155,13.47625Z"/></svg>