<svg id="Слой_1" data-name="Слой 1" xmlns="http://www.w3.org/2000/svg" viewBox="0 0 52 52"><defs><style>.cls-1{fill:#ed1c24;}</style></defs><title>OU</title><g id="layer1"><g id="g2826"><g id="g2828"><path class="cls-1" d="M27.91182,26.40883v3.30422h3.45379V26.40883Zm0,0v3.30422h3.45379V26.40883Zm0,0v3.30422h3.45379V26.40883Zm-2.93345,3.63872v.8911l2.3406,2.11578h.59285V30.04755Zm10.50822-18.083v2.07953H32.29387V11.96456h-5.051v2.15386H24.27311V11.96456H19.37253v1.522H16.847v-1.522H4L23.3811,29.49005h.892V26.1115h3.45378v-3.936h3.675V18.42523h4.12279V14.60159h3.898v-2.637ZM15.73382,17.42264H13.58V14.93518h2.15386Zm3.71305,4.12188H16.58775V18.64823h2.85912Zm4.0829,3.75022h-3.229V22.21262h3.229Zm.07615-6.94384H20.15213V14.60159h3.45379Zm3.6369,3.56438h-3.006V18.9084h3.006ZM31.40187,18.166h-3.49V14.74935h3.49005Zm12.847-6.20141v2.637H39.53323v4.23248h-3.8599v3.08121H39.497A18.51912,18.51912,0,0,1,48,11.96456ZM37.305,26.52033v2.89539h.78141a23.76823,23.76823,0,0,1,.25926-2.89539Zm-5.34476-3.86171V26.1115h3.713V22.65862ZM31.84787,30.344v2.26536h2.821V30.344Zm-3.08212,3.268v.74243l1.6716,1.52293h1.11319V33.61193Zm-.85393-7.2031v3.30422h3.45379V26.40883Zm0,0v3.30422h3.45379V26.40883Zm0,0v3.30422h3.45379V26.40883Zm0,0v3.30422h3.45379V26.40883Zm0,0v3.30422h3.45379V26.40883Zm4.97672,10.50732v1.15126l2.15205,1.968V36.91615Z"/></g></g></g></svg>