<svg id="Слой_1" data-name="Слой 1" xmlns="http://www.w3.org/2000/svg" viewBox="0 0 52 52"><defs><style>.cls-1{fill:#e31f26;}.cls-2{fill:#4d4d4f;}</style></defs><title>PC</title><path class="cls-1" d="M30.12774,27.14107l.28154-.79013a.23622.23622,0,0,1,.29062-.17256.20793.20793,0,0,1,.13623.1998.17246.17246,0,0,0,.02725.08174,1.5488,1.5488,0,0,0,1.49852.68115.76877.76877,0,0,0,.79013-.88095.86127.86127,0,0,0-.17256-.40869c-.07265-.09082-1.3078-1.57117-1.3078-1.57117a2.52666,2.52666,0,0,1-.49042-1.31688A2.56371,2.56371,0,0,1,33.7696,20.266a3.57689,3.57689,0,0,1,2.47937.67206l-.27246.78105a.23622.23622,0,0,1-.29062.17256.20794.20794,0,0,1-.13623-.1998.17243.17243,0,0,0-.02725-.08174,1.41353,1.41353,0,0,0-1.39862-.67207.8665.8665,0,0,0-.81737,1.19882,2.17369,2.17369,0,0,0,.26338.47226l.68114.81737.31787.38145a2.70411,2.70411,0,0,1,.64482,1.29871,2.563,2.563,0,0,1-2.58835,2.69734,3.45266,3.45266,0,0,1-2.49754-.663m12.76012,0,.28154-.79013a.23622.23622,0,0,1,.29062-.17256.20793.20793,0,0,1,.13623.1998.3367.3367,0,0,0,.01817.08174,1.5488,1.5488,0,0,0,1.49852.68115.76877.76877,0,0,0,.79013-.88095.86127.86127,0,0,0-.17256-.40869c-.07266-.09082-1.3078-1.57117-1.3078-1.57117a2.52657,2.52657,0,0,1-.49042-1.31688A2.57922,2.57922,0,0,1,46.52063,20.266,3.57687,3.57687,0,0,1,49,20.9381l-.27246.78105a.23622.23622,0,0,1-.29062.17256.20794.20794,0,0,1-.13623-.19981.1724.1724,0,0,0-.02724-.08173,1.41355,1.41355,0,0,0-1.39862-.67207.8665.8665,0,0,0-.81738,1.19882,2.17452,2.17452,0,0,0,.26338.47226l.68114.81737.31787.38145a2.70407,2.70407,0,0,1,.64482,1.29871,2.56863,2.56863,0,0,1-2.58835,2.69734A3.4538,3.4538,0,0,1,42.88786,27.14107Zm-3.2695-5.90326-1.38953,3.20592a4.00236,4.00236,0,0,0-.36328,1.2079.56546.56546,0,0,0,.42685.57216,1.08408,1.08408,0,0,0,.23613.04541.96318.96318,0,0,0,.88095-.57216l2.23416-5.18579h2.57018a.19553.19553,0,0,1,.09991.01817.227.227,0,0,1,.11806.2997.20807.20807,0,0,1-.1998.12715.40072.40072,0,0,0-.34512.28154L42.6154,24.17127a4.56822,4.56822,0,0,1-4.26851,2.90622,4.07513,4.07513,0,0,1-1.78914-.40869,1.59311,1.59311,0,0,1-.87186-1.42586,4.58,4.58,0,0,1,.41777-1.79822l1.00809-2.33406c0-.00908.00908-.02725.00908-.03633a.16709.16709,0,0,0-.0999-.14531.2237.2237,0,0,1-.15439-.20888.255.255,0,0,1,.27246-.22705h2.80631a.19557.19557,0,0,1,.0999.01816.227.227,0,0,1,.11807.29971.20809.20809,0,0,1-.19981.12714A.43572.43572,0,0,0,39.61836,21.23781ZM25.56861,23.53554h1.35321l-.37236-1.58934Zm-12.2697.336-.97176,2.2614h2.27956a.43319.43319,0,0,0,.40869-.22705.301.301,0,0,1,.25429-.14531.22484.22484,0,0,1,.22705.22705.26875.26875,0,0,1-.01816.09082l-.31787.73564H9.47542l2.47029-5.72162c0-.00909.00908-.08174.00908-.0999-.00908-.09082-.109-.13623-.15439-.1544a.233.233,0,0,1-.1544-.20888c0-.12715.109-.227.28154-.227h5.17671l-.39053.89911a.26249.26249,0,0,1-.31787.16348.21272.21272,0,0,1-.12714-.218.16969.16969,0,0,0-.09082-.15439c-.00908-.00909-.03633-.00909-.04541-.00909H14.49773l-.91728,2.13426h1.37138a.34475.34475,0,0,0,.336-.17256.301.301,0,0,1,.25429-.14531.21025.21025,0,0,1,.20889.22705.26875.26875,0,0,1-.01817.09082l-.37236.8537a.26248.26248,0,0,1-.31786.16348.21338.21338,0,0,1-.109-.218.16967.16967,0,0,0-.09082-.15439c-.00908,0-.01816-.00909-.02724-.00909Zm14.26772,2.94255a.24927.24927,0,0,1-.27245-.227.233.233,0,0,1,.15439-.20889.15342.15342,0,0,0,.0999-.14531.05463.05463,0,0,0-.00908-.03633l-.445-1.89812h-2.0071l-1.16249,1.88a.06867.06867,0,0,0-.00908.03633.16706.16706,0,0,0,.0999.14531.2237.2237,0,0,1,.15439.20888.24927.24927,0,0,1-.27246.22705H22.7078a.3863.3863,0,0,1-.0999-.01816.21987.21987,0,0,1-.11807-.29971c.03633-.09082.11807-.11806.227-.13622a.42792.42792,0,0,0,.2997-.18164l3.64186-5.75795H28.8926a.25542.25542,0,0,1,.27245.227.23294.23294,0,0,1-.15439.20888.16709.16709,0,0,0-.0999.14531L30.264,26.805H27.56663Zm-4.105-3.29675a.19549.19549,0,0,1,.0999.01817.227.227,0,0,1,.11807.2997.20808.20808,0,0,1-.19981.12715.368.368,0,0,0-.336.28154l-1.09891,2.552H19.81066l-.09082-.17255a4.46531,4.46531,0,0,1-1.85271.35419,2.05814,2.05814,0,0,1-2.0616-2.05252,1.608,1.608,0,0,1,.00908-.20888,5.0303,5.0303,0,0,1,4.986-4.45015,5.90422,5.90422,0,0,1,2.988.73564l-.27246.6539-.02724.05449a.24717.24717,0,0,1-.29062.109c-.12715-.05449-.09082-.12715-.1544-.25429a.70687.70687,0,0,0-.2997-.327,1.53937,1.53937,0,0,0-.9536-.26338,2.51639,2.51639,0,0,0-1.68925.64482,5.5248,5.5248,0,0,0-1.84363,3.442.68754.68754,0,0,0-.00908.13623.90706.90706,0,0,0,.90819.91728,1.2616,1.2616,0,0,0,1.19882-.89l.43593-1.02626c0-.00908.00908-.04541.00908-.06357a.20176.20176,0,0,0-.14531-.19072.22156.22156,0,0,1-.15439-.19981c0-.12714.0999-.22705.27246-.22705ZM10.83771,21.10158a1.15892,1.15892,0,0,0-1.06259-.68114l-1.553-.00909H5.5157a.255.255,0,0,0-.27246.22705.23292.23292,0,0,0,.15439.20888.16709.16709,0,0,1,.0999.14532c0,.00908-.00908.02724-.00908.03632L3.00363,26.805H5.661a.255.255,0,0,0,.27245-.22705.2237.2237,0,0,0-.15439-.20889.10955.10955,0,0,1-.07265-.0999c0-.00908.00908-.02725.00908-.03633L6.542,24.28934h1.88a2.637,2.637,0,0,0,2.19783-1.18065,2.14553,2.14553,0,0,0,.218-2.00711ZM8.52182,22.77265a1.431,1.431,0,0,1-1.22607.76289H6.878l1.0535-2.434a1.81088,1.81088,0,0,1,.22705,0,.78933.78933,0,0,1,.29062.0999C8.86693,21.44669,8.90326,22.146,8.52182,22.77265ZM3,26.81411l.00363-.00907H3Z"/><path class="cls-2" d="M31.39921,31.7002l-.05449-.62666h-.87187l-.31786.62666h-.64482l1.553-2.92439h.67206l.336,2.92439h-.67206m-.12715-1.97987v-.35419H31.263l-.02725.0999c-.01816.05449-.05449.13623-.109.25429l-.47226.95361h.68114Z"/><polyline class="cls-2" points="33.207 31.7 32.516 31.7 33.116 28.776 33.815 28.776 33.207 31.7"/><path class="cls-2" d="M36.40336,29.44788a.9424.9424,0,0,1-.2543.6539.996.996,0,0,1-.62665.31786v.00909l.51767,1.27147h-.73564l-.445-1.3078h-.00908l-.27246,1.3078h-.67206l.58124-2.79724a2.34631,2.34631,0,0,1,.90819-.17256,1.25375,1.25375,0,0,1,.74472.19072.58681.58681,0,0,1,.26338.52676m-.67207.01816c0-.227-.12714-.336-.39052-.336a.54951.54951,0,0,0-.218.03633l-.218,1.0535a.53988.53988,0,0,0,.15439.01817.64446.64446,0,0,0,.49043-.20889A.89029.89029,0,0,0,35.73129,29.466Z"/><polyline class="cls-2" points="38.011 31.7 36.576 31.7 37.175 28.776 37.866 28.776 37.366 31.237 38.102 31.237 38.011 31.7"/><polyline class="cls-2" points="39.264 31.7 38.565 31.7 39.173 28.776 39.864 28.776 39.264 31.7"/><path class="cls-2" d="M42.17038,31.7002h-.50859l-.63573-1.64383c-.02725-.08174-.05449-.1544-.07265-.20889l-.02725-.09082h-.00908l-.00908.0999c-.00909.06358-.01817.13623-.03633.218l-.336,1.62567h-.57217l.59941-2.92439h.59033l.59032,1.49852a1.80816,1.80816,0,0,1,.07266.19981l.02724.09081h.00909l.00908-.09081a.87913.87913,0,0,1,.03633-.19981l.30878-1.48943H42.788l-.61757,2.9153"/><polyline class="cls-2" points="44.868 29.239 44.059 29.239 43.905 29.984 44.613 29.984 44.523 30.429 43.814 30.429 43.651 31.237 44.459 31.237 44.359 31.7 42.861 31.7 43.469 28.776 44.968 28.776 44.868 29.239"/><path class="cls-2" d="M46.80217,29.31165a.711.711,0,0,0-.3996-.109.39022.39022,0,0,0-.40869.27246.51413.51413,0,0,0-.02725.16348.39416.39416,0,0,0,.19981.30878c.05449.03633.14531.0999.29062.19981a.6266.6266,0,0,1,.29062.53583,1.04091,1.04091,0,0,1-.26337.69023,1.138,1.138,0,0,1-.9082.37236,1.23331,1.23331,0,0,1-.74471-.17256l.25429-.4541a.73318.73318,0,0,0,.41777.11807.512.512,0,0,0,.35419-.12715.41833.41833,0,0,0,.13623-.327.37744.37744,0,0,0-.19072-.2997c-.14531-.109-.23613-.17256-.27246-.20889a.69343.69343,0,0,1-.26337-.52675.9736.9736,0,0,1,.26337-.663,1.05787,1.05787,0,0,1,.83554-.34512,1.14247,1.14247,0,0,1,.663.17256l-.22705.39961"/></svg>