<svg id="Слой_1" data-name="Слой 1" xmlns="http://www.w3.org/2000/svg" viewBox="0 0 52 52"><defs><style>.cls-1{fill:#ed1c24;}.cls-2{fill:#b49142;}.cls-3{fill:#254aa5;}</style></defs><title>PG</title><g id="layer1"><path id="path3237" class="cls-1" d="M35.64918,26.52209c.03922.12017-.02167.228.01858.32457,0,.18591.00309.36463.00309.55259-.03508.86792-.09081,1.72248-.09081,2.58732,0,.8032-.03922,1.35888-.03922,1.8786.00413.13661-.02374.86483-.01857.99836a8.7411,8.7411,0,0,1-.14448,1.27671,5.59593,5.59593,0,0,1-1.88339,3.52713,7.25047,7.25047,0,0,1-1.16822.83505c-.13.06265-.26109.13045-.39319.19516a.17775.17775,0,0,1-.04438.00924h-.05366c-.21362-.13661-.42725-.27219-.64293-.40572a4.29427,4.29427,0,0,0-1.50671-.53718,3.13877,3.13877,0,0,0-.83695-.03492,5.90738,5.90738,0,0,0-4.17958,3.0259,5.12805,5.12805,0,0,0-.516,1.4431,4.722,4.722,0,0,0-.0258,1.23871,5.66135,5.66135,0,0,0,1.67286,3.64936,11.50279,11.50279,0,0,0,1.69247,1.36916c.21878.13558.44479.27527.66047.416.02167.00924.03922.00924.03922.04212h.02477v.01849a5.36739,5.36739,0,0,1-2.57792-1.00966,9.19056,9.19056,0,0,1-1.41074-1.12572,5.5804,5.5804,0,0,1-.63261-.79191,7.98179,7.98179,0,0,1-.60991-.97885,7.02881,7.02881,0,0,1-.65119-3.41826,7.51785,7.51785,0,0,1,.44273-2.05835,5.95837,5.95837,0,0,1,.52322-1.00452c.99484-1.628,2.743-2.65921,4.257-3.68223.9773-.65427,1.9515-1.31984,2.93087-1.97618A15.34269,15.34269,0,0,0,33.1631,30.7826a9.96124,9.96124,0,0,0,1.75336-2.62532c.17957-.39647.58411-1.22844.73271-1.63517"/><path id="path3243" class="cls-2" d="M35.50367,22.21537a1.33807,1.33807,0,0,1,.0227.40263v.87717a15.73437,15.73437,0,0,1-.08771,1.77178,7.64029,7.64029,0,0,1-1.289,3.0752c-.20537.33381-.4386.63681-.65532.9583a6.26684,6.26684,0,0,1-.64912.8217,11.02587,11.02587,0,0,1-1.27245,1.11545c-.70279.52281-1.38184,1.03637-2.12488,1.48522-.75645.455-1.47678.96858-2.2064,1.46263A15.18572,15.18572,0,0,0,22.99487,38.03a7.0637,7.0637,0,0,0-.71414,1.46262,6.43048,6.43048,0,0,0-.41589,2.70441,7.413,7.413,0,0,0,.63777,2.425,7.32936,7.32936,0,0,0,.76058,1.39072,7.56448,7.56448,0,0,0,1.33024,1.42051,15.88787,15.88787,0,0,0,1.55006,1.18016,5.70256,5.70256,0,0,0,.84623.3862c0,.0072-.483-.08731-.483-.07395a6.38666,6.38666,0,0,1-2.645-1.33629,8.14181,8.14181,0,0,1-3.12385-5.94086,5.80922,5.80922,0,0,1,.27658-2.35724c1.1032-2.85951,3.79154-5.06679,6.23015-6.893q1.27554-.97064,2.55108-1.93407.822-.624,1.6481-1.249c.16306-.16228.32611-.32457.49226-.48377a15.38306,15.38306,0,0,0,2.27452-2.82767c.1775-.2917.3612-.58237.5129-.8864a7.42241,7.42241,0,0,0,.60165-1.78822,7.15423,7.15423,0,0,0,.17853-1.01376"/><path id="path3249" class="cls-3" d="M35.24258,3c.161,0,.31888,0,.40867.13353.10836.15509.05779.60086.05779.8258.00827,1.11648.05779,12.14878.05779,12.84312.01548.7652-.00723,1.69064-.01858,2.46509a11.92916,11.92916,0,0,1-1.65532,5.606,9.54957,9.54957,0,0,1-1.128,1.81081c-.34984.39236-.70278.78267-1.08978,1.1473-.76058.70768-1.56244,1.33628-2.36739,1.95666Q28.25391,30.83137,27,31.86723c-.58824.44269-1.1775.88538-1.741,1.3825-.36223.31841-.70485.65017-1.064.97474-.36945.33485-.70072.72412-1.05263,1.08875a9.58679,9.58679,0,0,0-2.40455,3.66271,8.0647,8.0647,0,0,0-.33952,1.47289,7.22306,7.22306,0,0,0,.01134,1.401,7.83408,7.83408,0,0,0,3.03819,5.78886,8.458,8.458,0,0,0,1.805,1.11134,1.8,1.8,0,0,0,.50877.20132v.01952a11.95772,11.95772,0,0,1-5.81012-2.29151,8.2674,8.2674,0,0,1-.89577-.79294,10.00421,10.00421,0,0,1-2.774-8.16766,12.51989,12.51989,0,0,1,1.06811-4.11157A17.42554,17.42554,0,0,1,21.741,28.14084c.39835-.32868.79154-.65427,1.18267-.98193.68008-.54026,1.33953-1.09593,2.00929-1.665.30857-.2691.6161-.53616.92673-.80526.903-.85149,1.84211-1.67113,2.67493-2.60375a35.91856,35.91856,0,0,0,2.79567-3.50043c.49949-.73439.95356-1.4883,1.40661-2.23912a16.56231,16.56231,0,0,0,.92364-1.82006,20.439,20.439,0,0,0,1.68008-7.45279,13.33735,13.33735,0,0,0-.14551-2.40243c-.04644-.26295-.09185-.52692-.14241-.79294a1.81467,1.81467,0,0,1-.07018-.58854c.01858-.1551.13932-.227.26007-.28862"/></g></svg>