<svg id="Слой_1" data-name="Слой 1" xmlns="http://www.w3.org/2000/svg" xmlns:xlink="http://www.w3.org/1999/xlink" viewBox="0 0 52 52"><defs><style>.cls-1{fill:url(#linear-gradient);}.cls-2{fill:url(#linear-gradient-2);}.cls-3{fill:#ffc010;}.cls-4{fill:url(#linear-gradient-3);}.cls-5{fill:url(#linear-gradient-4);}</style><linearGradient id="linear-gradient" x1="18.07072" y1="20.2631" x2="43.04438" y2="37.74984" gradientUnits="userSpaceOnUse"><stop offset="0" stop-color="#00b7ec"/><stop offset="0.1319" stop-color="#00b3e9"/><stop offset="0.2766" stop-color="#00a5df"/><stop offset="0.4274" stop-color="#008fd0"/><stop offset="0.58151" stop-color="#0071ba"/><stop offset="0.5989" stop-color="#006db7"/><stop offset="1" stop-color="#006db7"/></linearGradient><linearGradient id="linear-gradient-2" x1="17.44514" y1="20.07411" x2="34.4435" y2="31.97649" xlink:href="#linear-gradient"/><linearGradient id="linear-gradient-3" x1="29.84074" y1="25.56971" x2="41.55423" y2="28.70833" gradientUnits="userSpaceOnUse"><stop offset="0" stop-color="#fcf4a5"/><stop offset="0.07661" stop-color="#fcf29e"/><stop offset="0.18757" stop-color="#fdeb8b"/><stop offset="0.31949" stop-color="#fde06b"/><stop offset="0.46617" stop-color="#fed140"/><stop offset="0.6044" stop-color="#ffc010"/><stop offset="1" stop-color="#ffc010"/></linearGradient><linearGradient id="linear-gradient-4" x1="29.13857" y1="25.38159" x2="43.05917" y2="29.1116" xlink:href="#linear-gradient-3"/></defs><title>PS</title><path class="cls-1" d="M41.47584,39.99,48.5,12.17117s-8.89388,0-10.25831.32846L20.60545,33.59746a7.93354,7.93354,0,0,1-2.82988,2.07187L4.25783,39.99Z"/><path class="cls-2" d="M47.03827,12.02392s-3.73012-.03656-4.9915.009a26.10666,26.10666,0,0,0-3.94453.27884l-.01545.00422L20.42763,33.46394c.00108-.00116-.08208.09129-.23171.2398a7.76406,7.76406,0,0,1-3.09412,1.915L3.5,39.98983h.3316l13.62394-4.33737A8.53717,8.53717,0,0,0,20.504,33.53015l17.6398-21.12476a26.80749,26.80749,0,0,1,3.90555-.27137c1.7767-.0461,3.73013-.05509,4.98894-.05509.81214,0,1.33375.00376,1.335.00376l.00081-.03209C48.374,12.0506,47.85076,12.02392,47.03827,12.02392Z"/><path class="cls-3" d="M36.58033,26.31086a13.318,13.318,0,0,1,4.23341,4.03351v1.343a6.48126,6.48126,0,0,0,1.69484-5.37656Z"/><path class="cls-3" d="M38.99681,25.80215h3.41752q-.03351-.14665-.07353-.29074h-3.344Z"/><path class="cls-4" d="M31.62019,27.80075l-.32707.36337V26.56521a11.03528,11.03528,0,0,1,3.90637.4906,5.8844,5.8844,0,0,0-2.01678-.74495V25.00272h8.994a6.47948,6.47948,0,1,0-1.44311,6.76813A12.68077,12.68077,0,0,0,31.62019,27.80075Z"/><path class="cls-5" d="M36.09889,20.04252a7.20408,7.20408,0,1,0,7.204,7.2041A7.20408,7.20408,0,0,0,36.09889,20.04252Zm0,13.95391a6.74985,6.74985,0,1,1,6.74978-6.74981A6.74984,6.74984,0,0,1,36.09889,33.99643Z"/></svg>