<svg id="Слой_1" data-name="Слой 1" xmlns="http://www.w3.org/2000/svg" xmlns:xlink="http://www.w3.org/1999/xlink" viewBox="0 0 52 52"><defs><style>.cls-1{fill:url(#Безымянный_градиент_20);}.cls-2{fill:#fff;}.cls-3{fill:url(#Безымянный_градиент_19);}.cls-4{fill:url(#Безымянный_градиент_18);}.cls-5{fill:url(#Безымянный_градиент_17);}</style><linearGradient id="Безымянный_градиент_20" x1="-490.48208" y1="-576.3183" x2="-490.86496" y2="-575.53164" gradientTransform="matrix(55.882, 0, 0, -39.995, 27441.00189, -23008.22302)" gradientUnits="userSpaceOnUse"><stop offset="0" stop-color="#be0000"/><stop offset="0.3898" stop-color="#de0000"/><stop offset="0.768" stop-color="#f60000"/><stop offset="1" stop-color="red"/></linearGradient><linearGradient id="Безымянный_градиент_19" x1="-367.5727" y1="-709.53122" x2="-367.5727" y2="-709.20065" gradientTransform="matrix(3.775, 0, 0, -4.141, 1413.71081, -2912.58504)" gradientUnits="userSpaceOnUse"><stop offset="0" stop-color="#fff" stop-opacity="0"/><stop offset="0.51203" stop-color="#e0e0e0" stop-opacity="0.262"/><stop offset="0.66549" stop-color="#c5c5c5" stop-opacity="0.549"/><stop offset="0.82415" stop-color="#b5b5b5" stop-opacity="0.805"/><stop offset="1" stop-color="#afafaf"/></linearGradient><linearGradient id="Безымянный_градиент_18" x1="-471.72265" y1="-633.73181" x2="-471.01395" y2="-633.73181" gradientTransform="matrix(17.654, 0, 0, -8.38853, 8349.53567, -5280.01243)" gradientUnits="userSpaceOnUse"><stop offset="0" stop-color="#fff" stop-opacity="0"/><stop offset="0.08391" stop-color="#f1f1f1" stop-opacity="0.093"/><stop offset="0.24826" stop-color="#d4d4d4" stop-opacity="0.325"/><stop offset="0.44531" stop-color="silver" stop-opacity="0.555"/><stop offset="0.7032" stop-color="#b3b3b3" stop-opacity="0.781"/><stop offset="1" stop-color="#afafaf"/></linearGradient><linearGradient id="Безымянный_градиент_17" x1="-474.30535" y1="-583.9967" x2="-473.71562" y2="-583.9967" gradientTransform="matrix(19.762, 0, 0, -26.31, 9381.49652, -15343.29439)" gradientUnits="userSpaceOnUse"><stop offset="0" stop-color="#fff" stop-opacity="0"/><stop offset="0.28583" stop-color="#ededed" stop-opacity="0.282"/><stop offset="0.886" stop-color="#bdbdbd" stop-opacity="0.848"/><stop offset="1" stop-color="#afafaf"/></linearGradient></defs><title>QF</title><path class="cls-1" d="M48,41.7455,22.28439,15.74486A18.31484,18.31484,0,0,0,9.373,10.2545H4l.40156,1.04957,1.79049,4.71007L15.92241,41.7455Z"/><path class="cls-2" d="M19.95061,31.99073a.88253.88253,0,0,0,.72438.75116,31.6052,31.6052,0,0,1,14.99632,6.65488c.02677.02677.05354.02677.10787.02677a.20228.20228,0,0,0,.10787-.05355.16391.16391,0,0,0,0-.215,31.97212,31.97212,0,0,0-11.19488-7.6202l-1.31333-.537a1.81992,1.81992,0,0,1-1.12437-1.69049c.08031-2.79045,6.669-2.22826,7.33832-3.56837l.10629-.24173a12.46132,12.46132,0,0,0-4.74-2.52353c-.02756.0811-.05511.40156.29369.99209.40156.64565-.42833,1.66451-1.6338.56455l-.10708-.08031c-8.89023-8.21152-15.58527-3.9597-19.12058-13.16253L6.185,15.98028C9.6935,21.99109,18.93254,22.62571,19.95061,31.99073Z"/><path class="cls-3" d="M25.24963,23.9548a.72426.72426,0,0,1,.02363.69682.68929.68929,0,0,1-.63541.36771v2.19519c.96374-.2677,2.06291-.45667,2.97233-.64407v-1.2346A2.71234,2.71234,0,0,1,25.24964,23.954Z"/><path class="cls-4" d="M21.74425,32.93085A31.64014,31.64014,0,0,1,35.64454,39.37C26.29842,31.4002,22.06628,32.8222,21.745,32.92928Z"/><path class="cls-5" d="M4.39054,11.30171,6.18575,15.9976c3.50775,6.01081,12.74757,6.65488,13.76486,16.0199C18.90655,20.04943,13.68312,21.821,8.0597,16.40074A10.658,10.658,0,0,1,4.39054,11.30171Z"/></svg>