<svg id="Слой_1" data-name="Слой 1" xmlns="http://www.w3.org/2000/svg" viewBox="0 0 52 52"><defs><style>.cls-1{fill:#5d0833;}.cls-2{fill:#75808b;}.cls-3{fill:#757f8a;}.cls-4{fill:#76808b;}.cls-5{fill:#75808a;}.cls-6{fill:#77828d;}.cls-7{fill:#77818c;}.cls-8{fill:#79828d;}</style></defs><title>QR</title><path class="cls-1" d="M26.16152,18.75324l2.14711-1.70241c.10166-.07242.20591-.14149.30453-.21784q.65094-.504,1.29919-1.0114c.27419-.18833.54955-.375.82234-.56533q1.075-.75,2.14737-1.50371c.10106-.07117.19128-.15773.28652-.23717l.83954-.54285c.90629-.57694,1.80762-1.16188,2.71978-1.72937a73.91184,73.91184,0,0,1,9.9018-5.26577c.97492-.41778,1.9796-.76614,2.97-1.148a.53528.53528,0,0,0,.10278-.07032h.41683a1.81081,1.81081,0,0,1,.11456.20721.29749.29749,0,0,1-.1239.41708c-.10062.05644-.20121.11419-.30639.16108a89.18874,89.18874,0,0,0-10.74445,5.90341c-1.36339.84875-2.72336,1.697-4.14672,2.44782a55.84684,55.84684,0,0,0-5.67247,3.54586c-.11575.08007-.31516.15876-.20262.33794.10277.16363.24889.02806.3596-.04489a67.35311,67.35311,0,0,1,15.48635-7.34092c2.07546-.70739,4.18245-1.32233,6.27582-1.977a4.43838,4.43838,0,0,1,.43811-.10239.30389.30389,0,0,1,.38541.25372.28934.28934,0,0,1-.19644.38568c-.33227.13219-.66391.26618-.99849.39235-3.96587,1.49558-7.89421,3.08121-11.71065,4.93052-1.101.53349-2.17981,1.11256-3.2688,1.67073l-1.39977.80494c-.83376.51736-1.67029,1.03034-2.49893,1.55577a.51606.51606,0,0,0-.27028.52661c.131.01757.26176.04605.39336.05107,1.6653.06346,3.33079.12156,4.996.18618.33473.013.66863.04744,1.00291.072-.09583.34308-.38623.52409-.62389.749a4.24174,4.24174,0,0,1-2.29626.7818c-.40441.01883-.81007.01411-1.21384.04044a.42831.42831,0,0,0-.315.142.37992.37992,0,0,0,.07624.33109c.2625.30562.549.59059.82659.88327A5.88535,5.88535,0,0,0,36.07135,23.174a12.76449,12.76449,0,0,0,3.64878,1.36918c.85546.19052,1.7293.2985,2.59486.44374.0677.01136.13495.02541.23128.04369v1.44578a85.38043,85.38043,0,0,0-9.27163.73654c-.04125.00766-.07678.046-.17789.10966a2.49825,2.49825,0,0,0,.44118.15c.80257.10117,1.60446.22429,2.4107.27642,2.11283.13661,4.2278.24041,6.34188.35795a.81653.81653,0,0,1,.11216.03035l-.3179,1.58389a83.04415,83.04415,0,0,0-8.92589.706.73472.73472,0,0,0-.17128.091.8229.8229,0,0,0,.57964.21432c1.21913.12614,2.43816.26079,3.66045.34685,1.40794.09912,2.81923.15078,4.229.224a1.07053,1.07053,0,0,1,.13965.03214l-.689,1.64552c-1.20619.07034-2.39553.11733-3.58068.21513a19.08722,19.08722,0,0,0-3.52115.43939l-.00977.09572a2.34389,2.34389,0,0,0,.43315.13442c1.09133.12206,2.18263.24774,3.27648.34293.85254.0742,1.70878.10617,2.60042.1591a2.55809,2.55809,0,0,1-.14753.27292c-.33507.47082-.67949.93507-1.01,1.409a.5962.5962,0,0,1-.489.25779c-.98888.09815-1.97563.21866-2.9619.34111a3.06972,3.06972,0,0,0-.48387.14605.79055.79055,0,0,0,.58609.25765c.57107.0877,1.14607.14984,1.71953.22207.13561.01708.27118.03456.46322.059a15.99962,15.99962,0,0,1-3.25266,2.47545L33.17992,38.575l-.57691-.61087-1.79042-2.23932-.81777-1.15872-1.26054-1.83959-.97282-1.42834c-.56457-.8651-.84838-.95212-1.81256-.68218-.57588.16124-1.17229.25144-1.7623.35792a1.53424,1.53424,0,0,1-.40191-.03405l-.00622-.09993c.12943-.06663.263-.12644.38759-.20107a19.14065,19.14065,0,0,0,1.76818-1.08275,5.37443,5.37443,0,0,0,2.0747-2.99421,7.85723,7.85723,0,0,0,.05157-3.23913c-.06016-.3607-.14927-.71657-.22513-1.07464A4.04655,4.04655,0,0,1,26.581,24.36641a4.96608,4.96608,0,0,0-.80669-3.82327l-.41442,1.896a2.83847,2.83847,0,0,0-1.74783,1.92481c.42508.14794.73329-.08888,1.07588-.23677a.84148.84148,0,0,1-.00923.13736,26.95746,26.95746,0,0,1-1.81005,4.82465c-.36771.73032-.80845,1.42388-1.2161,2.13409a1.26055,1.26055,0,0,0-.13181.10064,10.6031,10.6031,0,0,1-.95237.92874,8.79453,8.79453,0,0,1-1.0926.62269l-.61219.00494L17.179,31.14858a2.03816,2.03816,0,0,0,1.03643-.70358.7129.7129,0,0,0,.20021-.67358c-.09829.06781-.17818.1235-.25867.17833a8.10422,8.10422,0,0,1-.80513.53489.9568.9568,0,0,1-.56166.09278.53064.53064,0,0,1-.42572-.738c.25827-.38482.52075-.76691.77317-1.15553.14737-.22688.27866-.46421.41719-.69684l.94363-1.27284c.169-.20123.34242-.39887.50592-.60443.32918-.4139.65294-.83211.97893-1.24853L21.158,23.51741l1.66694-1.723,1.59828-1.54077c.03278-.00706.07522-.00334.09692-.02277Q25.34283,19.49429,26.16152,18.75324Z"/><path class="cls-2" d="M29.99482,34.56611l.81777,1.15872q-2.54944.05066-5.09889.10129c-1.17921.02335-2.35832.05246-3.53763.06836-2.12787.02869-4.25579.05752-6.38378.06849a15.74518,15.74518,0,0,1-1.8957-.09539,2.30643,2.30643,0,0,1-.861-.33249.39021.39021,0,0,1-.01636-.72338,1.92452,1.92452,0,0,1,.68835-.30572,6.73842,6.73842,0,0,1,1.26831-.14722c1.43431-.01092,2.8689.00136,4.30325.01645,1.44549.01521,2.89087.04225,4.33623.0681q1.6301.02916,3.26.06857c.91312.02074,1.82616.04592,2.73929.06673C29.74124,34.58151,29.8681,34.57062,29.99482,34.56611Z"/><path class="cls-3" d="M26.16152,18.75324q-.82.73963-1.64135,1.47767c-.0217.01943-.06414.01571-.09692.02277-1.50308.027-3.00606.06173-4.50925.07908-2.25512.026-4.51039.051-6.76557.04883a5.34379,5.34379,0,0,1-1.25746-.2107,1.7331,1.7331,0,0,1-.6095-.31424.41782.41782,0,0,1,.00565-.74676,2.31763,2.31763,0,0,1,.80827-.37229,6.6787,6.6787,0,0,1,1.37127-.15893c2.00129-.007,4.00272.00713,6.004.025,1.30663.01167,2.61319.03847,3.91959.067C24.31416,18.69083,25.23777,18.72521,26.16152,18.75324Z"/><path class="cls-4" d="M29.91235,15.8216q-.64936.506-1.29919,1.01139c-.09862.07635-.20287.14542-.30453.21784a1.69711,1.69711,0,0,0-.34834-.06756c-1.724.02557-3.44782.05894-5.17176.0873q-2.23868.03681-4.47744.06716c-1.099.01577-2.19827.05075-3.29679.03438a8.05756,8.05756,0,0,1-1.43522-.19578,1.59339,1.59339,0,0,1-.58772-.28092.38659.38659,0,0,1-.01567-.67064,1.91751,1.91751,0,0,1,1.18931-.42185q1.78458-.06512,3.5716-.05822c1.72407.00773,3.448.04378,5.172.07186,1.11059.01809,2.22119.03831,3.33154.06718,1.15615.03006,2.312.07129,3.468.10923A1.8671,1.8671,0,0,1,29.91235,15.8216Z"/><path class="cls-5" d="M22.825,21.79445,21.158,23.5174q-4.01067.0402-8.02132.0806a6.02517,6.02517,0,0,1-2.09261-.22406,2.5203,2.5203,0,0,1-.702-.3603c-.32545-.25149-.305-.55592.026-.80582a2.49748,2.49748,0,0,1,1.42385-.48864q1.802-.07088,3.60694-.06424c1.956.00832,3.91188.04329,5.86771.07424C21.78628,21.7374,22.30552,21.772,22.825,21.79445Z"/><path class="cls-4" d="M34.00812,12.97253l-.83954.54285c-1.46829.04957-2.9363.10994-4.4049.14624q-3.43554.08492-6.87174.14242c-1.51572.027-3.03171.04741-4.5476.049a6.11062,6.11062,0,0,1-1.06043-.14009,1.1334,1.1334,0,0,1-.38-.16239c-.31853-.19623-.34036-.47252-.0124-.63695a2.72473,2.72473,0,0,1,.98054-.29434c.63182-.04906,1.26958-.02861,1.90482-.02518q2.15319.01163,4.3063.0363,1.805.02335,3.60972.069c1.59608.03992,3.19216.08254,4.78774.13821C32.32366,12.86705,33.16565,12.92659,34.00812,12.97253Z"/><path class="cls-4" d="M32.603,37.96415l.57691.61087c-.18287.02263-.36526.05954-.54867.06556-1.09826.036-2.19661.07067-3.29517.09509q-3.59061.07983-7.18147.14768c-1.58451.02823-3.16934.03876-4.754.059a3.10746,3.10746,0,0,1-1.2904-.20788c-.19945-.08584-.44424-.16978-.43794-.43342.00611-.25513.23345-.367.44488-.42585a3.60038,3.60038,0,0,1,.943-.18754c2.12853.00358,4.257.03233,6.38552.05309.28928.00282.5786.00457.86783.01,1.63084.03088,3.26181.05618,4.8924.09652C30.33857,37.87531,31.47067,37.92445,32.603,37.96415Z"/><path class="cls-2" d="M19.98334,24.86122c-.326.41643-.64975.83464-.97893,1.24854-.1635.20556-.337.4032-.50592.60442-2.02458.0182-4.04913.04385-6.07376.05029a4.86337,4.86337,0,0,1-1.90137-.32281,2.16052,2.16052,0,0,1-.42646-.22667.5012.5012,0,0,1-.00424-.90492,2.49332,2.49332,0,0,1,1.3609-.46549q1.76645-.07151,3.53571-.069c1.5964.00247,3.19274.03723,4.78908.05964A1.78241,1.78241,0,0,1,19.98334,24.86122Z"/><path class="cls-2" d="M17.55486,27.987c-.13853.23263-.26982.47-.41719.69684-.25242.38862-.5149.77071-.77317,1.15553-1.15462.01617-2.30926.046-3.46384.04313a5.40916,5.40916,0,0,1-1.91054-.2588,2.45755,2.45755,0,0,1-.68658-.38424.41932.41932,0,0,1,.00773-.70945,1.77976,1.77976,0,0,1,.46793-.28739,4.76167,4.76167,0,0,1,1.89553-.334c1.57063.00415,3.14118.02972,4.71175.04838A1.01617,1.01617,0,0,1,17.55486,27.987Z"/><path class="cls-4" d="M17.179,31.14858l1.68458,1.7317c-.90043.02566-1.80073.06154-2.70135.07418-.96.01346-1.9217.03529-2.88006-.00622a8.73444,8.73444,0,0,1-1.52535-.26952,1.27527,1.27527,0,0,1-.48064-.26522.44564.44564,0,0,1,.03546-.77942,2.52761,2.52761,0,0,1,1.46471-.46726c1.224-.03262,2.44921-.02,3.67394-.02441C16.69323,31.14153,16.93614,31.14637,17.179,31.14858Z"/><path class="cls-2" d="M27.76146,31.29818l.97282,1.42834c-.08074.00494-.16144.01292-.24224.01439q-2.72332.04941-5.44666.0977c-1.06376.01934-2.12748.04149-3.19127.05939-.12594.00212-.25219-.01465-.3783-.02266a8.79453,8.79453,0,0,0,1.0926-.62269,10.6031,10.6031,0,0,0,.95237-.92874,1.25818,1.25818,0,0,1,.13182-.10063c.87953.00852,1.75909.01507,2.63859.02606Q26.02635,31.271,27.76146,31.29818Z"/><path class="cls-6" d="M32.15805,10.75954c-.2333.03449-.46552.08385-.70009.10067-.71446.05125-1.42934.10184-2.14494.1307q-1.54218.06219-3.0856.09219-2.44525.05041-4.89091.078a2.73558,2.73558,0,0,1-.81472-.11355.47271.47271,0,0,1-.292-.33108c.00044-.11132.17136-.2699.30166-.32185a1.81261,1.81261,0,0,1,.67172-.13222q2.49778.02418,4.99524.07917c1.10919.02576,2.21825.069,3.32642.12371.87483.04317,1.74821.11569,2.62223.17518Z"/><path class="cls-6" d="M32.14982,40.84461c-.24746.03367-.49395.08087-.74254.09846-.71456.05055-1.42953.09942-2.14515.12985q-1.38609.05893-2.77348.087-2.60157.05188-5.20354.08089a2.57791,2.57791,0,0,1-.77844-.11951c-.12-.03728-.28771-.20951-.27789-.30453a.50529.50529,0,0,1,.28589-.335,1.92215,1.92215,0,0,1,.705-.13838q2.46315.0218,4.926.07672c1.13233.02647,2.26451.07094,3.39582.12641.87439.04287,1.74732.11529,2.62092.17456Z"/><path class="cls-7" d="M36.07135,23.174a5.88535,5.88535,0,0,1-1.58593-1.10255c.85357.03451,1.70719.06755,2.56068.10405.577.02467,1.15435.04511,1.73047.08361,1.00189.06695,2.00314.14391,3.00414.22319a4.04272,4.04272,0,0,1,.46408.09l.00823.10015a6.5627,6.5627,0,0,1-.73735.13483c-1.18607.08461-2.373.15832-3.56.22862-.56491.03345-1.13086.04894-1.69609.07763A.76284.76284,0,0,0,36.07135,23.174Z"/><path class="cls-8" d="M34.40844,16.7522l1.39977-.80494a1.55613,1.55613,0,0,0,.255.06142c1.01329.07321,2.02705.13985,3.04018.215a3.85266,3.85266,0,0,1,.454.08712l-.00006.09885c-.32157.04731-.64168.11771-.96495.13791-1.33716.08352-2.67526.15222-4.0131.22447A.99133.99133,0,0,1,34.40844,16.7522Z"/><path class="cls-8" d="M37.40765,19.89285c.23766-.22494.52806-.406.62389-.749a18.17008,18.17008,0,0,1,3.255.31532,1.743,1.743,0,0,1-.94486.22128c-.83909.07284-1.6813.10931-2.5221.16318C37.68181,19.85242,37.545,19.87606,37.40765,19.89285Z"/></svg>