<svg id="Слой_1" data-name="Слой 1" xmlns="http://www.w3.org/2000/svg" viewBox="0 0 52 52"><defs><style>.cls-1{fill:#d52229;}.cls-2{fill:#222161;}</style></defs><title>QS</title><g id="g44"><path id="path46" class="cls-1" d="M2,28.74512s4.99387-2.8867,6.80871-3.66014c1.82094-.77344,5.86475-2.42385,6.97923-2.81362s5.84039-1.91228,6.68691-2.15589,3.83067-1.09012,3.83067-1.09012a9.35042,9.35042,0,0,0,3.66013.21924c1.43117-.3654,3.66014-.99268,4.19-1.06576a16.37486,16.37486,0,0,1,3.78194.02436,41.355,41.355,0,0,0-6.65646,4.55538c-.90133.82216-3.73322,3.514-4.123,4.43358a2.1852,2.1852,0,0,0,.63336,2.7649,14.54431,14.54431,0,0,0,3.63578,1.93664c.24361.1218.57856.24969-.20706.24969s-5.90129-.24969-7.12539-.38367a13.26132,13.26132,0,0,1-2.96587-.5542c-.95615-.31668-3.69059-1.5956-4.29351-1.84529a17.19669,17.19669,0,0,0-3.55661-1.04141,35.76809,35.76809,0,0,0-7.11321-.09744C4.58828,28.39189,2,28.74512,2,28.74512"/></g><g id="g48"><path id="path50" class="cls-2" d="M3.7157,29.51424l2.2107-1.05968a36.81327,36.81327,0,0,1,4.59192-.17052,15.95223,15.95223,0,0,1,6.827,1.54079c.85261.38368,4.07427,2.028,6.05354,2.07672,1.2911.11571,4.87816.33495,5.56634.37149.68818.03045,2.5152.09744,2.6979.04872s.43849-.28623.067-.53592c-.35322-.15226-3.35563-1.30937-4.00727-2.229-.268-.30451-1.37636-1.54079.24969-3.23384a51.26086,51.26086,0,0,1,3.922-3.82457c.95615-.77344,2.8867-2.229,3.43481-2.56392.5542-.335,1.86356-1.12667,1.86356-1.12667a4.39853,4.39853,0,0,1,1.09013-.201,13.1032,13.1032,0,0,1,2.19852.201c-.19488.17661-2.61264,1.62-3.06331,1.93665s-3.38609,2.71618-3.89156,3.20338c-.49939.48721-2.42995,2.41167-2.56393,2.56393s-1.05358,1.26064.51766,2.28378a16.14547,16.14547,0,0,0,5.46889,1.99754s3.05114.68818,4.123.87088,4.61019.77345,5.34709.87089,2.95369.51765,3.15466.58464.97442.35323-.24969.45067-6.30324.31668-7.44208.31668-10.34705.04873-10.64546.03046c-.30451-.01828-6.18753-.28624-7.88057-.50548s-4.89643-.7369-6.40677-1.57733a15.85821,15.85821,0,0,0-3.89156-1.8453c-1.02313-.17052-3.0694-.72472-9.34218-.475"/></g></svg>