<svg id="Слой_1" data-name="Слой 1" xmlns="http://www.w3.org/2000/svg" viewBox="0 0 52 52"><defs><style>.cls-1{fill:#d22332;}</style></defs><title>RL</title><path class="cls-1" d="M39.99151,21.12507c-1.27268.77568-2.55443,1.53692-3.81658,2.32938q-12.55277,7.88146-25.103,15.767a2.09756,2.09756,0,0,1-.98962.37851c-1.99.03525-3.98084.01745-6.08233.01745.14426-.13583.193-.21716.26191-.24147a16.01957,16.01957,0,0,0,6.07871-4.03965q7.06137-7.17,14.10522-14.35722c2.07038-2.10943,4.16782-4.19371,6.19033-6.34821a7.08285,7.08285,0,0,1,5.21868-2.30518c3.98455-.07179,7.9713-.02206,11.95713-.01977a.67979.67979,0,0,1,.188.05573c-.08674.79635-10.28552,23.766-12.08554,27.21188-1.16436.042-2.35234.10548-3.541.12264q-2.24162.03237-4.484.00025a4.54929,4.54929,0,0,1-3.5-1.81762,1.75134,1.75134,0,0,1-.34235-1.68594,5.95662,5.95662,0,0,0,.10236-.76349c-.38861.34675-.63547.55156-.86484.77437-1.00064.972-2.01187,1.934-2.98536,2.93263a1.48179,1.48179,0,0,1-1.23108.49054c-.72693-.035-1.4568-.009-2.36479-.009.302-.27992.46968-.46109.66224-.61008Q28.46636,30.419,39.5698,21.83364c.20846-.16129.39383-.35244.59-.52967l.55756-.4489.1064-.15837-.20563.06432Z"/></svg>