<svg id="Слой_1" data-name="Слой 1" xmlns="http://www.w3.org/2000/svg" viewBox="0 0 52 52"><defs><style>.cls-1{fill:#01185b;}</style></defs><title>RO</title><path id="svg_32" data-name="svg 32" class="cls-1" d="M26.09866,2A24.0002,24.0002,0,1,0,50,25.96716,24.106,24.106,0,0,0,26.09866,2ZM3.874,25.96716A22.22528,22.22528,0,0,1,26.09866,3.80824a21.99235,21.99235,0,0,1,13.96162,5.063L16.34522,32.29039a18.76357,18.76357,0,0,0-4.58081-.36159c-1.80824.1315-4.285,1.75339-5.84111,3.441A22.15171,22.15171,0,0,1,3.874,25.96716Zm22.22467,22.2246A22.39421,22.39421,0,0,1,6.21921,36.09316a28.66979,28.66979,0,0,1,5.47945-.54794,21.84628,21.84628,0,0,1,5.063.65751L35.852,45.60547,25.55071,37.17808l18.915,1.07395A22.03221,22.03221,0,0,1,26.09866,48.19176ZM24.53155,33.737,40.84929,9.52882a22.40529,22.40529,0,0,1,7.34247,16.43834A21.96964,21.96964,0,0,1,45.01365,37.474Z"/></svg>