<svg id="Слой_1" data-name="Слой 1" xmlns="http://www.w3.org/2000/svg" viewBox="0 0 52 52"><defs><style>.cls-1{fill:#bed600;}.cls-2{fill:#fff;}</style></defs><title>S7</title><path class="cls-1" d="M50,26.00517A24,24,0,1,1,26.00728,1.99992,23.98661,23.98661,0,0,1,50,26.00517"/><path class="cls-2" d="M24.25841,13.478c-3.78038,0-6.23284.209-8.00813.868-2.98332,1.16214-5.04361,3.59784-5.04361,6.79875,0,2.666,1.24139,4.59673,4.834,6.81737,3.83321,2.32377,4.59792,3.0917,4.59792,4.49192,0,1.53247-1.50148,3.27678-5.36483,3.27678a23.03348,23.03348,0,0,1-4.67717-.50411l-.61925-.15613c-.34544.92609-1.12962,3.11676-1.36872,3.91161l.61315.18034a25.52784,25.52784,0,0,0,5.92279.66311c6.60316,0,10.54288-3.98933,10.54288-8.16679,0-2.56693-1.16518-4.51782-5.10405-6.97553a19.82715,19.82715,0,0,1-3.59411-2.6135,2.31987,2.31987,0,0,1-.5505-1.61155,2.35871,2.35871,0,0,1,.42147-1.43239,3.26,3.26,0,0,1,1.8122-1.079,20.434,20.434,0,0,1,4.99078-.29617H26l1.66861-4.17255h-3.4102Zm17.66,0H30.1756l-1.66878,4.17238h3.8923c2.61908,0,3.12285-.05639,3.78055-.05639-.94946,2.172-6.67175,16.75405-6.67175,16.75405h4.84294S41.59563,16.196,42.36339,14.29286C42.57607,13.86817,42.47041,13.478,41.91838,13.478Z"/></svg>