<svg id="Слой_1" data-name="Слой 1" xmlns="http://www.w3.org/2000/svg" viewBox="0 0 52 52"><defs><style>.cls-1{fill:#163a90;}.cls-2{fill:#fcffff;}</style></defs><title>SK</title><path id="path5553" class="cls-1" d="M1.10992-.02774A1.1132,1.1132,0,0,0,0,1.08221V50.91785a1.11315,1.11315,0,0,0,1.10992,1.10989H50.94556A1.067,1.067,0,0,0,52,50.91785V1.08221A1.067,1.067,0,0,0,50.94556-.02774H1.10992"/><path id="path5555" class="cls-2" d="M32.79829,24.11313H28.46958l-.49946.222-12.04269,14.984.05549.27746h1.44291l.333-.111,3.21879-4.16221.16649-.05549H25.1398l.111.05549-.83244,4.10672.222.16648h5.16114l.222-.111s.61046-3.10776,2.9413-15.15048ZM22.143,33.88048l4.3287-5.66062.111-.05548v.05548l-1.05443,5.66062-.111.05549H22.1985l-.05549-.05549"/><path id="path5557" class="cls-2" d="M4.66169,37.54322c-.0555.222.0555.49948.38847.77695a8.7353,8.7353,0,0,0,5.32764,1.55392c5.21664,0,7.159-3.38528,6.49306-6.21558-.16648-.77695-1.22092-4.93916-1.3319-5.49413-.444-1.66491.38847-2.83031,1.88687-2.83031a5.20692,5.20692,0,0,1,2.9968.99891l.27747-.16647.16649-.999a.35318.35318,0,0,0-.222-.44393,7.66628,7.66628,0,0,0-4.21771-.94346c-4.66169,0-6.715,3.05232-5.88261,6.27111.27749,1.05441,1.33192,5.10564,1.33192,5.82709a2.1193,2.1193,0,0,1-2.27535,2.44182,6.37059,6.37059,0,0,1-4.27321-2.05333l-.333.111-.333,1.16539"/><path id="path5559" class="cls-2" d="M31.35538,37.65425c-.0555.16647.05551.444.38848.72145a8.25092,8.25092,0,0,0,5.21665,1.49839c5.21664,0,7.159-3.38528,6.49307-6.21558-.16649-.77695-1.22092-4.93916-1.38741-5.49413-.38848-1.66491.38847-2.83031,1.94237-2.83031a5.20689,5.20689,0,0,1,2.9968.99891l.27747-.16647.16649-.999a.35318.35318,0,0,0-.222-.44393,7.84312,7.84312,0,0,0-4.21771-.94346c-4.71718,0-6.715,3.05232-5.8826,6.27111.27748,1.05441,1.33191,5.10564,1.33191,5.82709a2.1193,2.1193,0,0,1-2.27535,2.44182,6.37062,6.37062,0,0,1-4.27321-2.05333l-.333.111-.222,1.27642"/></svg>