<svg id="Слой_1" data-name="Слой 1" xmlns="http://www.w3.org/2000/svg" viewBox="0 0 52 52"><defs><style>.cls-1{fill:#ef4023;}</style></defs><title>SN</title><path id="path253" class="cls-1" d="M16.97395,44.021c0,2.19748-2.41345,3.979-5.39076,3.979C8.6,48,6.1916,46.21849,6.1916,44.021c0-2.195,2.4084-3.97815,5.39327-3.97815,2.97563,0,5.38908,1.78319,5.38908,3.97815"/><path id="path255" class="cls-1" d="M20.7479,34.54874c0,1.837-2.11849,3.31932-4.73277,3.32437-2.61681-.005-4.73194-1.4874-4.73194-3.32437,0-1.83109,2.11513-3.31009,4.73194-3.31177,2.61428,0,4.73277,1.48068,4.73277,3.31177"/><path id="path257" class="cls-1" d="M23.83025,26.6479c0,1.47647-1.8042,2.66975-4.02773,2.67311-2.22353,0-4.02521-1.19664-4.02521-2.67311,0-1.479,1.80168-2.67563,4.02521-2.67563s4.02773,1.19916,4.02773,2.67563"/><path id="path259" class="cls-1" d="M32.06218,5.05462C32.05967,5.637,31.12185,6.105,29.95966,6.105c-1.15966,0-2.1-.46807-2.1-1.05042S28.8,4.0042,29.95966,4c1.16219,0,2.1.46891,2.10252,1.05462"/><path id="path265" class="cls-1" d="M26.442,19.70252c0,1.1874-1.53278,2.14958-3.426,2.14958s-3.42942-.96219-3.42942-2.14958c0-1.18319,1.53614-2.14874,3.42942-2.14874s3.42605.96555,3.42605,2.14874"/><path id="path267" class="cls-1" d="M28.69664,13.9042c0,.94874-1.30672,1.72857-2.92017,1.72857-1.61681,0-2.92773-.77983-2.92773-1.72857,0-.95042,1.31092-1.72773,2.92773-1.72773,1.61345,0,2.92017.77731,2.92017,1.72773"/><path id="path269" class="cls-1" d="M29.55378,43.3605c0,1.97563-2.18823,3.57311-4.89243,3.57311-2.70589,0-4.89748-1.59748-4.89748-3.57311,0-1.979,2.19159-3.58067,4.89159-3.57647,2.71009,0,4.89832,1.60084,4.89832,3.57647"/><path id="path271" class="cls-1" d="M40.31681,40.38235c0,1.74622-1.97648,3.15714-4.41261,3.15714-2.437,0-4.41344-1.41092-4.41344-3.15714,0-1.73781,1.97647-3.15126,4.41344-3.15126,2.43613,0,4.41261,1.40924,4.41261,3.15126"/><path id="path273" class="cls-1" d="M45.8084,34.33025c0,1.374-1.616,2.48824-3.6126,2.48824S38.584,35.7042,38.584,34.33025c0-1.37059,1.61513-2.48487,3.61177-2.48487,1.995,0,3.6126,1.1126,3.6126,2.48487"/><path id="path275" class="cls-1" d="M40.5521,23.53193c.00337.90925-1.17731,1.64706-2.62605,1.64706-1.45546,0-2.63446-.73781-2.63446-1.64706,0-.90756,1.179-1.64874,2.63446-1.64874,1.44874,0,2.62941.74118,2.62605,1.64874"/><path id="path277" class="cls-1" d="M30.64622,9.07479c0,.76134-1.11429,1.37731-2.48992,1.37731-1.37059,0-2.484-.616-2.48151-1.37731,0-.75882,1.11092-1.37563,2.48151-1.37563,1.37395,0,2.48992.61681,2.48992,1.37563"/><path id="path279" class="cls-1" d="M44.842,28.05378c.0016,1.1126-1.37143,2.00756-3.06555,2.0042-1.69328.00335-3.063-.8958-3.063-2.0042-.00334-1.1,1.36975-2,3.06555-2,1.69412,0,3.063.89832,3.063,2"/></svg>