<svg id="Слой_1" data-name="Слой 1" xmlns="http://www.w3.org/2000/svg" viewBox="0 0 52 52"><defs><style>.cls-1{fill:#fcb130;}</style></defs><title>SQ</title><g id="g4758"><path id="path52" class="cls-1" d="M19.79749,45.12218H16.60292l6.44841-10.17771a5.07,5.07,0,0,0-.29775-4.33831L13.76466,15.719a2.873,2.873,0,0,1,0-2.70475l2.65976-3.98214L26.97349,26.26764a7.07752,7.07752,0,0,1-.23777,8.08246L19.79749,45.12217"/><path id="path54" class="cls-1" d="M27.5083,42.00194l3.92288-5.97272a4.60349,4.60349,0,0,1,4.10067-2.46647h4.15994l2.89753,4.57614s-2.28847-.23763-3.31381,1.39686L34.997,45.9838A5.69392,5.69392,0,0,1,29.871,49H9.724l7.66653-11.76757s1.08391-1.3815-.43127-3.66968L10.13951,22.598s-1.67869-1.61941.05926-4.39771l1.99143-3.01677,9.47946,15.363a3.98356,3.98356,0,0,1,0,4.63562l-7.11745,11.099H29.559s1.69368.31181,3.14959-1.85734l3.72937-5.73508a5.74831,5.74831,0,0,1,2.719-2.71895H36.1409a3.79453,3.79453,0,0,0-2.7783,1.93152l-3.3131,5.126a4.57888,4.57888,0,0,1-3.86361,2.16915H20.94134l6.32917-9.821s3.44733-4.53159,1.02534-8.69188L17.806,9.32987a3.05873,3.05873,0,0,1,.11924-2.89753L20.213,3,32.15876,22.241s1.75366,2.88254,1.75366,5.11109c0,2.22885-1.39665,4.75473-2.16994,6.03241L26.48294,41.5861s-.59407.78736-.1778,1.08468c.43057.297.84684-.23791,1.20314-.66883"/></g></svg>