<svg id="Слой_1" data-name="Слой 1" xmlns="http://www.w3.org/2000/svg" xmlns:xlink="http://www.w3.org/1999/xlink" viewBox="0 0 52 52"><defs><style>.cls-1{fill:url(#linear-gradient);}.cls-2{fill:#fff;}.cls-3{fill:#d1e7ed;}</style><linearGradient id="linear-gradient" x1="26" y1="40.62169" x2="26" y2="11.35725" gradientUnits="userSpaceOnUse"><stop offset="0" stop-color="#020053"/><stop offset="0.8589" stop-color="#025fbc"/></linearGradient></defs><title>SS</title><path class="cls-1" d="M3,40.62169v-.30417c.18927-.31464.54269-.63365,1.68892-.71327,2.26562-.15733,5.56971-1.16428,10.32119-5.38093L35.43239,13.518c1.24937-1.18517,1.78315-2.16781,4.59416-2.16073H49L37.58787,40.62169Z"/><path class="cls-2" d="M25.6461,36.04844,25.3,36.20591c-.17654,1.45215-.57684,2.90547.472,4.43676l11.88394.00008.991-2.54323-.03639-.00573a34.46533,34.46533,0,0,1,3.61875-25.61426C42.58678,11.88845,25.6461,36.04844,25.6461,36.04844Z"/><path class="cls-3" d="M30.54393,29.067c-2.50509,3.56941-4.51072,6.42919-4.84777,6.91-.00367.00548-.11124.09432-.11124.09432a14.07311,14.07311,0,0,0,.187,4.57135l3.35543.00008c-2.20092-5.71354,2.56644-13.21149,2.5825-13.23676C31.31244,27.97219,30.92263,28.52759,30.54393,29.067Z"/><path class="cls-2" d="M25.772,40.64267H10.66767c5.53825-5.03475,19.98162-16.70908,24.45007-19.03761,0,0-11.61139,8.05558-9.34579,19.03761"/></svg>