<svg id="Слой_1" data-name="Слой 1" xmlns="http://www.w3.org/2000/svg" xmlns:xlink="http://www.w3.org/1999/xlink" viewBox="0 0 52 52"><defs><style>.cls-1{fill:url(#Безымянный_градиент_15);}.cls-2{fill:url(#Безымянный_градиент_14);}.cls-3{fill:url(#Безымянный_градиент_13);}.cls-4{fill:url(#Безымянный_градиент_12);}</style><radialGradient id="Безымянный_градиент_15" cx="-324.18682" cy="-1707.75151" r="15.32017" gradientTransform="matrix(1.46919, 0, 0, -1.46919, 501.77853, -2483.26038)" gradientUnits="userSpaceOnUse"><stop offset="0.3" stop-color="#2e8f6f"/><stop offset="0.4572" stop-color="#168b69"/><stop offset="0.6883" stop-color="#00835e"/><stop offset="0.9" stop-color="#007952"/></radialGradient><linearGradient id="Безымянный_градиент_14" x1="9.11757" y1="-1941.16139" x2="46.61029" y2="-1962.80776" gradientTransform="matrix(0.9999, 0, 0, -0.9999, -0.09517, -1921.64944)" gradientUnits="userSpaceOnUse"><stop offset="0" stop-color="#55ae58"/><stop offset="0.4147" stop-color="#51ad58"/><stop offset="0.5906" stop-color="#45a758"/><stop offset="0.7212" stop-color="#2e9e58"/><stop offset="0.75" stop-color="#249b58"/><stop offset="0.8189" stop-color="#139957"/><stop offset="0.8903" stop-color="#039056"/><stop offset="0.9626" stop-color="#008253"/><stop offset="1" stop-color="#007952"/></linearGradient><linearGradient id="Безымянный_градиент_13" x1="-234.34765" y1="-1972.91268" x2="-233.82663" y2="-1981.9531" gradientTransform="matrix(0.9536, -0.3006, -0.396, -1.2564, -536.3816, -2529.7963)" gradientUnits="userSpaceOnUse"><stop offset="0" stop-color="#c7e0bf"/><stop offset="0.1083" stop-color="#afd4a6"/><stop offset="0.229" stop-color="#98c98f"/><stop offset="0.3623" stop-color="#87c17e"/><stop offset="0.5131" stop-color="#78ba72"/><stop offset="0.6959" stop-color="#6eb76a"/><stop offset="1" stop-color="#6cb669"/></linearGradient><linearGradient id="Безымянный_градиент_12" x1="25.53937" y1="-1927.30983" x2="25.53937" y2="-1941.43806" gradientTransform="matrix(0.9999, 0, 0, -0.9999, -0.09517, -1921.64944)" gradientUnits="userSpaceOnUse"><stop offset="0" stop-color="#fff"/><stop offset="0.2634" stop-color="#cfdcd2"/><stop offset="0.6194" stop-color="#85b09b"/><stop offset="0.8739" stop-color="#4e9779"/><stop offset="1" stop-color="#2e8f6f"/></linearGradient></defs><title>ST</title><path class="cls-1" d="M25.4412,3.22352A22.48864,22.48864,0,0,0,3,24.59183c1.43052-2.19047,4.24684-4.33625,8.62779-5.76676a43.82566,43.82566,0,0,1,12.69582-1.69873c9.83479,0,19.312,2.72692,23.64821,7.46551A22.509,22.509,0,0,0,25.4412,3.22352ZM26.6929,34.069c-4.91739,0-9.07483.76-13.05345.76a15.63084,15.63084,0,0,1-9.92419-3.39748A22.36882,22.36882,0,0,0,25.48591,48.28475c8.40427,0,16.94266-5.40914,16.94266-9.07482C42.38387,35.94654,36.12536,34.069,26.6929,34.069Z"/><path class="cls-2" d="M49,32.72789a9.36394,9.36394,0,0,0-4.9174-8.62779c-4.42565-2.63751-12.02526-4.42565-19.49076-4.42565a43.18993,43.18993,0,0,0-12.3829,1.69873C7.87269,22.8931,4.34111,25.79884,4.34111,27.8105c0,2.27988,4.55977,4.42565,9.25365,4.42565,3.03984,0,6.52672-.67055,12.29348-.67055,13.6346,0,18.6414,3.71039,18.6414,6.88435,0,4.15743-5.76676,7.86783-11.2653,9.38775v.93878C43.725,46.18368,49,40.4169,49,32.72789Z"/><path class="cls-3" d="M11.449,30.58211c4.33625-3.48687,12.87463-7.28668,23.20116-7.28668a30.53806,30.53806,0,0,1,6.88436.93878C38.137,22.53548,31.87852,21.105,25.62,21.105A37.92739,37.92739,0,0,0,12.16424,23.206c-3.30807,1.2517-5.94558,3.57629-5.94558,4.73859C6.12925,29.1516,9.75024,30.58211,11.449,30.58211Z"/><path class="cls-4" d="M25.4412,5.50341c-8.31486,0-15.06511,4.73858-15.06511,10.59475a7.82733,7.82733,0,0,0,.58115,3.03984,1.333,1.333,0,0,1,.67055-.17881,43.82566,43.82566,0,0,1,12.69582-1.69873,46.15417,46.15417,0,0,1,15.33333,2.4587,7.43794,7.43794,0,0,0,.84937-3.48688C40.59572,10.242,33.75607,5.50341,25.4412,5.50341Z"/></svg>