<svg id="Слой_1" data-name="Слой 1" xmlns="http://www.w3.org/2000/svg" viewBox="0 0 52 52"><defs><style>.cls-1{fill:#0e4d92;}</style></defs><title>SU</title><path class="cls-1" d="M20.11017,27.43005,19.85,26.65522l-13.35029.77483,2.706,1.40343Zm1.82555,2.51221-.32914-.26279-.56487-.66876L14.3454,30.36394l2.84921,1.00052Zm5.28764-.56487a2.9586,2.9586,0,0,0,1.18605-.54391l-1.9635-4.075,2.02155-1.01056-1.69023-1.54443-.70586.32653-2.9077,1.39252.85428,2.06957,1.38466-.66877Zm3.29228-8.49829a8.5645,8.5645,0,0,1,1.59158,3.42236h-1.255a4.84623,4.84623,0,0,0-.337-1.14588,11.18574,11.18574,0,0,0-4.44383-5.26625l-.71111-.488.71111.27589a10.94611,10.94611,0,0,1,4.44427,3.20192m0,12.324.36363.72159-.36363.21214-.98174.46185L28.409,32.21352a7.44442,7.44442,0,0,1-2.33717.44046,6.70709,6.70709,0,0,1-2.48864-.34747l-.963,2.2922L21.60657,34.397l-.337-.47232.337-.5915.81456-1.57585-.719-.54392.69015-.88091a6.70857,6.70857,0,0,0,3.67991,1.17819,5.91349,5.91349,0,0,0,3.6904-1.23668l.75345.199.31561.14362-.31561.25973-.7827.69539Zm15.96377-6.1524L50,24.68125H30.87883a5.68454,5.68454,0,0,1-.36362,2.218,4.52625,4.52625,0,0,1-4.44384,2.93958,5.07494,5.07494,0,0,1-4.46522-2.892,5.39644,5.39644,0,0,1-.45879-2.26557H2l3.48872,2.36946,14.62145-.767a6.33338,6.33338,0,0,0,1.49641,2.75667,6.09415,6.09415,0,0,0,4.46523,2.04294,5.55648,5.55648,0,0,0,4.44383-2.00061,6.42438,6.42438,0,0,0,1.3982-2.77762Zm-1.00008.37934-2.68245,1.34756L31.97757,27.43005l.27327-.77483Zm-7.7789,2.9579-2.95572,1.01623-4.22907-1.34275-.36362-.11917.36362-.37149.4911-.53038Zm1.39034-.175,2.39566-1.173-9.73716-1.22838-.5199.87043Zm-26.213,0-2.36117-1.07429,9.76858-1.30041.55439.84381Z"/></svg>