<svg id="Слой_1" data-name="Слой 1" xmlns="http://www.w3.org/2000/svg" viewBox="0 0 52 52"><defs><style>.cls-1{fill:#ffca05;}.cls-1,.cls-2,.cls-3{fill-rule:evenodd;}.cls-2{fill:#3d1a6f;}.cls-3{fill:#c5168c;}</style></defs><title>TG</title><path class="cls-1" d="M47.97909,31.37479A11.248,11.248,0,0,0,46.478,28.91262,11.5775,11.5775,0,0,0,44.4962,27.051a4.90912,4.90912,0,0,0-1.20108-.72065h0c-.18013-.12012-.42036-.24021-.60053-.3603a2.80588,2.80588,0,0,0,.60053-.30029h0a4.90873,4.90873,0,0,0,1.20108-.72063A11.57959,11.57959,0,0,0,46.478,23.08739a11.24748,11.24748,0,0,0,1.50111-2.4622,11.51173,11.51173,0,0,0,.9008-2.88234C48.94,17.02219,49,16.30156,49,15.641v-.96084a9.48511,9.48511,0,0,0-.54048-2.52228A12.044,12.044,0,0,0,47.3185,9.816a11.22608,11.22608,0,0,0-1.68125-2.10192,14.869,14.869,0,0,0-2.162-1.6815,10.1948,10.1948,0,0,0-2.64235-1.081,9.82719,9.82719,0,0,0-3.00269-.48042,11.93486,11.93486,0,0,0-2.94241.24021A12.17986,12.17986,0,0,0,32.30552,5.7323a8.457,8.457,0,0,0-2.222,1.62148,9.11249,9.11249,0,0,0-1.5614,2.10187,7.35559,7.35559,0,0,0-.84075,2.522,5.37643,5.37643,0,0,0-.12012,1.38122,6.89717,6.89717,0,0,0,.06,1.141,11.7,11.7,0,0,0-2.522-1.141,12.3698,12.3698,0,0,0-3.423-.60054,14.12153,14.12153,0,0,0-3.24293.36033,9.97411,9.97411,0,0,0-2.82227,1.02091,14.08226,14.08226,0,0,0-2.40216,1.62146c-.48042.42037-.96086.84077-1.44128,1.32117a15.0021,15.0021,0,0,0-1.081,1.2011,16.57283,16.57283,0,0,0-1.26115,1.50133l-.96087,1.20085a6.07345,6.07345,0,0,1-.78045.96084,12.53536,12.53536,0,0,1-1.20108,1.32117A14.23887,14.23887,0,0,1,4.141,25.18929l-.54052.36031-.3603.18016C3.12012,25.78981,3,25.84985,3,25.97H3c0,.18013.12012.24018.24021.30025l.3603.18014.54052.36033a14.24173,14.24173,0,0,1,2.34208,1.92173,12.53833,12.53833,0,0,1,1.20108,1.32117,6.07549,6.07549,0,0,1,.78045.96087l.96087,1.20082a16.572,16.572,0,0,0,1.26115,1.50136,11.00783,11.00783,0,0,0,1.081,1.141,15.32067,15.32067,0,0,0,1.44128,1.38122,14.08359,14.08359,0,0,0,2.40216,1.62148,9.97564,9.97564,0,0,0,2.82227,1.02091,11.43982,11.43982,0,0,0,3.24293.3603,12.368,12.368,0,0,0,3.42305-.60053,11.69808,11.69808,0,0,0,2.522-1.141,6.89742,6.89742,0,0,0-.06,1.141,5.37677,5.37677,0,0,0,.12012,1.38124,7.35534,7.35534,0,0,0,.84075,2.522,9.11261,9.11261,0,0,0,1.5614,2.10189,8.45692,8.45692,0,0,0,2.222,1.62146,12.17718,12.17718,0,0,0,2.58232,1.02088,11.93583,11.93583,0,0,0,2.94241.24024,9.82689,9.82689,0,0,0,3.00269-.48042,10.19488,10.19488,0,0,0,2.64235-1.081,14.86757,14.86757,0,0,0,2.162-1.68149A11.226,11.226,0,0,0,47.3185,42.184a12.04311,12.04311,0,0,0,1.141-2.34186A9.42336,9.42336,0,0,0,49,37.25986V36.359c0-.66059-.06-1.38124-.12011-2.10187a11.512,11.512,0,0,0-.9008-2.88238Z"/><path class="cls-2" d="M45.45707,32.33543a8.26278,8.26278,0,0,0-1.38124-2.16169,7.08578,7.08578,0,0,0-1.92171-1.62145A7.62711,7.62711,0,0,0,39.752,27.53138a7.85508,7.85508,0,0,0-2.64213-.42038,11.37054,11.37054,0,0,0-2.82253.3603,9.77326,9.77326,0,0,0-2.222.78073,9.17435,9.17435,0,0,0-1.80161,1.141,15.36639,15.36639,0,0,0-1.56141,1.20108c-.54049.36032-1.02091.72065-1.56118,1.08073a10.24782,10.24782,0,0,1-1.62145.84075,7.55068,7.55068,0,0,1-1.98178.30025,6.71063,6.71063,0,0,1-2.64234-.54047,6.09317,6.09317,0,0,1-2.16194-1.50113,5.4798,5.4798,0,0,1-1.441-2.222A6.18164,6.18164,0,0,1,16.81214,25.97a6.08538,6.08538,0,0,1,.48044-2.52228,5.91369,5.91369,0,0,1,1.441-2.222,6.093,6.093,0,0,1,2.16194-1.5011,6.71031,6.71031,0,0,1,2.64234-.5405,7.5495,7.5495,0,0,1,1.98178.30029,10.24615,10.24615,0,0,1,1.62145.84075c.54027.36007,1.02069.7204,1.56118,1.14077.48042.36033,1.02089.78068,1.56141,1.20108a13.00161,13.00161,0,0,0,1.80161,1.081,9.77168,9.77168,0,0,0,2.222.78068,11.37058,11.37058,0,0,0,2.82253.36033,9.67694,9.67694,0,0,0,2.64213-.36033,9.53538,9.53538,0,0,0,2.40216-1.081,7.08613,7.08613,0,0,0,1.92171-1.62145,8.26228,8.26228,0,0,0,1.38124-2.16172,9.72464,9.72464,0,0,0,.72064-2.58231,9.28711,9.28711,0,0,0-.06-2.88258,9.40935,9.40935,0,0,0-.90081-2.58229,8.76124,8.76124,0,0,0-1.56141-2.0416,8.6901,8.6901,0,0,0-2.10188-1.56141,11.91774,11.91774,0,0,0-2.46221-.84075,8.11306,8.11306,0,0,0-2.70217-.12009,7.6848,7.6848,0,0,0-2.52228.7807,6.91845,6.91845,0,0,0-1.98178,1.50131A7.089,7.089,0,0,0,30.5039,11.4372a8.69325,8.69325,0,0,0-.60051,2.46218,7.674,7.674,0,0,0,.36033,2.58232.85314.85314,0,0,0,.12009.36033.22056.22056,0,0,0,.06007.18016.22077.22077,0,0,0,.06.18019.095.095,0,0,0,.18019-.06007V16.782a4.77111,4.77111,0,0,1,.36033-1.3212,4.91678,4.91678,0,0,1,1.56138-1.92171,5.59316,5.59316,0,0,1,2.40215-.72063,4.74325,4.74325,0,0,1,2.58207.48042,4.26288,4.26288,0,0,1,1.74157,1.68153,4.98261,4.98261,0,0,1,.60054,2.46217,4.52668,4.52668,0,0,1-.72063,2.46223,4.74136,4.74136,0,0,1-1.86169,1.74129,4.5943,4.5943,0,0,1-2.522.4204,5.77236,5.77236,0,0,1-1.74157-.48042,8.40142,8.40142,0,0,1-1.56141-.96087c-.54046-.42014-1.08093-.84052-1.56138-1.26089-.54049-.48042-1.081-.96089-1.62145-1.38122a8.92513,8.92513,0,0,0-1.86143-1.2011,10.35863,10.35863,0,0,0-2.222-.96084,9.67757,9.67757,0,0,0-2.64237-.36036,10.36676,10.36676,0,0,0-2.70241.30029,9.77028,9.77028,0,0,0-2.22174.7807,16.39629,16.39629,0,0,0-1.80161,1.26112,11.81511,11.81511,0,0,0-1.50136,1.50134c-.48042.54049-.9008,1.081-1.3212,1.62122-.48042.54049-.90079,1.141-1.32117,1.68152-.48044.5405-.90082,1.02089-1.44129,1.56138a11.32881,11.32881,0,0,1-1.56115,1.3212l-.36035.18016c-.06.06005-.18016.1201-.24019.18014-.06007,0-.18018.06007-.18018.12015h0c0,.12009.12011.18013.18018.24018a.45523.45523,0,0,1,.24019.12012,1.25539,1.25539,0,0,1,.36035.24023,7.98826,7.98826,0,0,1,1.56115,1.2611A17.76046,17.76046,0,0,1,10.7467,29.393c.42038.54049.84075,1.141,1.32117,1.6815.4204.54023.84078,1.08075,1.3212,1.62122a11.81437,11.81437,0,0,0,1.50136,1.50133A16.39667,16.39667,0,0,0,16.692,35.45824a9.77022,9.77022,0,0,0,2.22174.78068,10.36543,10.36543,0,0,0,2.70241.30026,9.67754,9.67754,0,0,0,2.64237-.36031,14.34119,14.34119,0,0,0,2.222-.90079A12.68316,12.68316,0,0,0,28.342,34.01693c.54049-.42038,1.081-.9008,1.62145-1.32117a16.45892,16.45892,0,0,1,1.56138-1.321,8.40446,8.40446,0,0,1,1.56141-.96084,5.77236,5.77236,0,0,1,1.74157-.48042,4.59447,4.59447,0,0,1,2.522.42038,4.34975,4.34975,0,0,1,1.86169,1.74131,4.52658,4.52658,0,0,1,.72063,2.4622,4.82858,4.82858,0,0,1-.60054,2.4622A4.26351,4.26351,0,0,1,37.59,38.70115a4.744,4.744,0,0,1-2.58207.48042,4.87781,4.87781,0,0,1-2.40215-.72063,4.91651,4.91651,0,0,1-1.56138-1.92176,4.77024,4.77024,0,0,1-.36033-1.32117V34.8577a.095.095,0,0,0-.18019-.06007,712.78934,712.78934,0,0,1-.12009.36033.85332.85332,0,0,0-.12009.36033,7.67408,7.67408,0,0,0-.36033,2.58232,8.69347,8.69347,0,0,0,.60051,2.4622,7.08909,7.08909,0,0,0,1.38124,2.10164,6.91892,6.91892,0,0,0,1.98178,1.50134,7.68552,7.68552,0,0,0,2.52228.7807,8.11411,8.11411,0,0,0,2.70217-.12009,11.91783,11.91783,0,0,0,2.46221-.84078,10.6085,10.6085,0,0,0,2.10188-1.56138,8.76139,8.76139,0,0,0,1.56141-2.04159,9.40943,9.40943,0,0,0,.90081-2.58232,9.28709,9.28709,0,0,0,.06-2.88258,9.725,9.725,0,0,0-.72064-2.58232Z"/><path class="cls-3" d="M32.66587,25.97h0l-.06007-.06008h0a8.136,8.136,0,0,1-2.8826-1.44131c-.96084-.72061-1.86164-1.44129-2.76223-2.10185a6.37079,6.37079,0,0,0-3.18283-1.26115,4.52473,4.52473,0,0,0-2.64237.60054A4.84656,4.84656,0,0,0,18.73362,25.97h0v.06a4.84656,4.84656,0,0,0,2.40215,4.26384,5.03661,5.03661,0,0,0,2.64237.60054A6.37069,6.37069,0,0,0,26.961,29.63325c.90059-.66059,1.80139-1.38122,2.76223-2.10187a8.13632,8.13632,0,0,1,2.8826-1.44129h0a.20971.20971,0,0,0,.06007-.12009Z"/></svg>