<svg id="Слой_1" data-name="Слой 1" xmlns="http://www.w3.org/2000/svg" viewBox="0 0 52 52"><defs><style>.cls-1{fill:#00acc8;}.cls-2{fill:#575656;}</style></defs><title>TI</title><path id="path5481" class="cls-1" d="M6.50576,38.86025c3.21588-4.05613,7.19009-10.2632,12.50309-13.64291,7.86183-4.99937,13.31057,2.66118,16.85647,9.2474C38.6716,39.68646,41.70493,45.43244,45.49424,48c-9.54935-2.87182-13.33632-18.62356-26.72178-15.94834-4.95256.99238-8.75825,4.61084-12.2667,6.80859"/><path class="cls-2" d="M42.54705,47.61469C37.51258,44.81543,28.848,41.40293,24.56479,36.49485a11.318,11.318,0,0,1-2.29606-3.85016c9.80681.90344,13.36909,11.20878,20.27832,14.97Z"/><path class="cls-2" d="M25.3154,22.91144a47.16807,47.16807,0,0,1,6.89987-6.14622C37.3972,12.81208,41.63121,8.97128,43.34916,4c.67641,8.61547-8.901,14.8717-11.55518,22.71012a10.7937,10.7937,0,0,0-6.47857-3.79868Z"/></svg>