<svg id="Слой_1" data-name="Слой 1" xmlns="http://www.w3.org/2000/svg" viewBox="0 0 52 52"><defs><style>.cls-1{fill:#e1251b;fill-rule:evenodd;}.cls-2{fill:#fff;}</style></defs><title>TK</title><path class="cls-1" d="M48.5308,25.99965A22.53083,22.53083,0,1,1,25.99933,3.46885,22.531,22.531,0,0,1,48.5308,25.99965Z"/><path class="cls-2" d="M44.614,29.86651,6.86,37.89288s-.06741.01654-.12851.02605c-.25186-.40512-.49291-.825-.71807-1.24662.06422-.014.1272-.02547.1272-.02547C12.27911,35.48607,17.8592,32.814,20.22276,25.90872c2.53147-7.39922.78933-15.46017-4.4085-20.01242.00254,0-.06044-.0534-.10239-.08617q.75276-.384,1.53541-.713c.06364.02794.1571.07.1571.07,10.56865,4.42661,16.0018,10.414,16.0018,16.15916-.04709,3.5457-1.86426,5.98084-4.16614,7.91441H44.614C45.04716,29.24066,45.14962,29.75266,44.614,29.86651Z"/></svg>