<svg id="Слой_1" data-name="Слой 1" xmlns="http://www.w3.org/2000/svg" viewBox="0 0 52 52"><defs><style>.cls-1{fill:#04396f;}.cls-2{fill:#a11337;}.cls-3{fill:#fff;}.cls-4{fill:#acabb5;}</style></defs><title>TL</title><path class="cls-1" d="M4,42.13314s.86879-.08349,1.52714-.10813,2.50887.20121,6.12367-2.32956c3.95151-2.76619,25.2858-28.182,25.2858-28.182a14.37091,14.37091,0,0,1,1.845-1.57951A4.59944,4.59944,0,0,1,41.218,9.34127H48L38.716,42.52734,4,42.65873v-.52559Z"/><path class="cls-2" d="M35.7513,24.42049a2.50606,2.50606,0,0,1,1.38241,3.22609c-.92115,2.30493-10.73353,3.55594-11.39051,5.07112-.501,1.15383,3.55594,1.64657,3.55594,1.64657s-5.92658.0657-4.807-2.43633c1.02381-2.2885,10.65962-2.97013,11.65468-4.2143C37.46357,26.06707,35.7513,24.42049,35.7513,24.42049Z"/><polygon class="cls-3" points="35.445 37.322 33.652 35.931 31.871 37.222 32.1 34.972 30.07 34 32.091 33.141 31.842 30.878 33.635 32.269 35.416 30.978 35.187 33.228 37.217 34.201 35.197 35.06 35.445 37.322"/><polygon class="cls-3" points="39.567 30.922 38.671 30.566 38.097 31.304 37.923 30.358 36.98 30.201 37.704 29.612 37.334 28.718 38.231 29.074 38.804 28.338 38.977 29.282 39.92 29.44 39.198 30.028 39.567 30.922"/><polygon class="cls-3" points="31.226 40.465 30.389 39.868 29.607 40.485 29.669 39.461 28.73 39.059 29.63 38.633 29.476 37.611 30.313 38.209 31.098 37.592 31.036 38.616 31.972 39.019 31.072 39.445 31.226 40.465"/><polygon class="cls-3" points="33.137 24.991 32.299 24.394 31.515 25.01 31.578 23.988 30.64 23.584 31.541 23.159 31.386 22.137 32.224 22.736 33.006 22.118 32.944 23.142 33.882 23.545 32.982 23.972 33.137 24.991"/><polygon class="cls-3" points="26.859 29.893 25.872 29.782 25.506 30.671 25.073 29.776 24.094 29.875 24.648 29.091 24.032 28.299 25.02 28.41 25.386 27.519 25.818 28.416 26.798 28.317 26.244 29.102 26.859 29.893"/><path class="cls-4" d="M35.7513,24.42049s2.49518.88146,1.5795,3.09469c-.78976,1.90937-10.79922,3.29315-11.45758,4.807-.50095,1.15384,3.42454,2.04077,3.42454,2.04077s-5.62-.53654-4.807-2.43633c.98822-2.30493,11.07708-3.36569,11.98454-4.67556A1.95088,1.95088,0,0,0,35.7513,24.42049Z"/></svg>