<svg id="Слой_1" data-name="Слой 1" xmlns="http://www.w3.org/2000/svg" viewBox="0 0 52 52"><defs><style>.cls-1{fill:#0077bf;}.cls-2{fill:#f0f4f6;}</style></defs><title>TN</title><path class="cls-1" d="M25.06771,19.84726a4.88694,4.88694,0,0,1-.5594-1.81937,18.01436,18.01436,0,0,0-.40067-3.51767,20.73666,20.73666,0,0,0-2.062-4.65519c-.87383-1.40029-1.31176-2.538-2.3785-3.18568-1.06674-.6482-1.34646-1.20786-2.27334-1.401-.92792-.19271-1.73333-.403-2.257.1212a4.70445,4.70445,0,0,0-1.62922,2.43155,8.20032,8.20032,0,0,0,.90754,4.44413,33.69175,33.69175,0,0,0,2.97208,5.60093c1.13666,1.48805,3.21756,4.16541,3.21756,4.16541a5.1608,5.1608,0,0,1-1.45209-.893,5.4788,5.4788,0,0,0-2.04672-1.55877,17.75741,17.75741,0,0,0-3.25332-.735c-.96158-.08879-2.36214-.26435-3.25384-.38765A14.19669,14.19669,0,0,0,6.959,18.351c-.82277.19244-2.17023.55887-2.381,1.36382-.2098.80363-.38536,2.20341.01683,2.74571A4.26187,4.26187,0,0,0,7.07849,24.1081a20.03239,20.03239,0,0,1,3.25333,1.261,11.04175,11.04175,0,0,0,3.62131,1.20916c1.26018.06941,2.46782.29755,2.88684.26336.42-.03418,2.99251-.051,2.99251-.051a5.27422,5.27422,0,0,1-1.75069.69874,10.40436,10.40436,0,0,0-3.727,1.38012c-1.13818.78806-1.96095,1.33011-2.52034,1.7844a4.20646,4.20646,0,0,0-1.26023,1.50263,7.52871,7.52871,0,0,1-.89369,1.62765A10.64052,10.64052,0,0,0,7.9829,36.426a2.33751,2.33751,0,0,0,.12047,2.08142,2.5243,2.5243,0,0,0,2.85213.89374,19.8292,19.8292,0,0,0,4.30479-1.53681,17.35768,17.35768,0,0,0,3.7627-2.70976c1.17342-1.24335,4.07917-4.35581,4.07917-4.35581s-.3333.99733-.929,2.43207a15.85365,15.85365,0,0,0-1.227,4.54825,41.93986,41.93986,0,0,0,.10306,4.584,6.89232,6.89232,0,0,0,1.24131,3.62336c.75132,1.06726,1.67824,1.78539,2.65822,1.2954a3.15972,3.15972,0,0,0,1.97732-2.256,31.07359,31.07359,0,0,1,.75538-3.30642,12.62244,12.62244,0,0,0,1.33115-4.51349,18.82118,18.82118,0,0,0-.19092-3.79694c-.26028-1.48779-.69769-3.14967-.69769-3.14967a7.27808,7.27808,0,0,1,1.04886,1.75016,11.4452,11.4452,0,0,0,2.797,4.19964,49.24041,49.24041,0,0,0,5.16017,4.29047c1.31176.78754,2.5883,1.85579,3.41054,1.48779A3.61174,3.61174,0,0,0,42.275,39.24189a5.55011,5.55011,0,0,0-.47165-4.18124,18.64586,18.64586,0,0,0-4.19655-4.55128,28.82453,28.82453,0,0,0-3.98728-2.90727c-1.13668-.61251-2.57142-1.38269-2.57142-1.38269a5.0622,5.0622,0,0,1,1.67924.38588,11.84485,11.84485,0,0,0,3.79741.85846,14.89737,14.89737,0,0,0,4.07608-.50525,12.53317,12.53317,0,0,0,3.76275-1.31024c.84011-.59515,1.50467-1.01442,2.09976-1.399.59515-.38436,1.8732-1.06653,1.45367-2.08148a3.9314,3.9314,0,0,0-2.78069-2.32843,16.13292,16.13292,0,0,0-6.15855-.77279,31.3836,31.3836,0,0,0-4.97034,1.08257c-1.50467.489-4.3915,1.62488-4.3915,1.62488a8.33965,8.33965,0,0,1,1.8895-1.99387,12.3933,12.3933,0,0,0,3.554-3.83008c.92844-1.73181,1.594-2.50152,1.94412-4.0756A24.14318,24.14318,0,0,0,37.3557,9.25c.15773-.822.858-2.22129.56148-2.9042a2.61179,2.61179,0,0,0-2.53775-1.31353,6.976,6.976,0,0,0-3.482,1.52051,14.54661,14.54661,0,0,0-3.41362,4.635A66.30338,66.30338,0,0,0,25.06771,19.84726Z"/><path class="cls-2" d="M24.714,19.39276a4.8975,4.8975,0,0,1-.55939-1.81963,17.90065,17.90065,0,0,0-.40114-3.51768A20.648,20.648,0,0,0,21.69135,9.4c-.87377-1.4-1.31071-2.5377-2.37745-3.18569S17.96744,5.00647,17.04,4.8135c-.92688-.19291-1.73177-.40317-2.25751.12126a4.70272,4.70272,0,0,0-1.62817,2.43129,8.193,8.193,0,0,0,.90848,4.44434,33.62692,33.62692,0,0,0,2.97108,5.601c1.13668,1.48831,3.21762,4.1654,3.21762,4.1654a5.15448,5.15448,0,0,1-1.45214-.89295,5.48233,5.48233,0,0,0-2.04567-1.55877,17.74532,17.74532,0,0,0-3.25437-.73475c-.96262-.08906-2.36213-.26462-3.25384-.38791a14.18951,14.18951,0,0,0-3.64019-.10615c-.82276.19239-2.17027.55887-2.38053,1.364-.20979.80343-.38536,2.20294.01683,2.74525A4.2646,4.2646,0,0,0,6.72528,23.6536,20.05582,20.05582,0,0,1,9.9786,24.91429a11.0209,11.0209,0,0,0,3.6208,1.20917c1.26023.06993,2.4673.29754,2.88788.26336.41954-.0347,2.992-.05107,2.992-.05107a5.27347,5.27347,0,0,1-1.75069.69927,10.38954,10.38954,0,0,0-3.72694,1.37965c-1.13824.78806-1.961,1.32958-2.5204,1.78487a4.19042,4.19042,0,0,0-1.26018,1.50211,7.53144,7.53144,0,0,1-.89374,1.6277,10.67169,10.67169,0,0,0-1.69863,2.64187,2.33875,2.33875,0,0,0,.12147,2.08141,2.52253,2.52253,0,0,0,2.85113.89322A19.83613,19.83613,0,0,0,14.90708,37.41a17.37971,17.37971,0,0,0,3.7627-2.71075c1.17289-1.24282,4.07864-4.35529,4.07864-4.35529s-.33225.99786-.92739,2.43208a15.82635,15.82635,0,0,0-1.228,4.54825,41.91509,41.91509,0,0,0,.10207,4.58394,6.91149,6.91149,0,0,0,1.24131,3.62336c.75131,1.06727,1.67819,1.78487,2.65817,1.29593A3.16288,3.16288,0,0,0,26.57389,44.571a30.87545,30.87545,0,0,1,.7544-3.30642,12.62244,12.62244,0,0,0,1.33115-4.5135,18.85967,18.85967,0,0,0-.19092-3.79693c-.26081-1.48779-.69769-3.14968-.69769-3.14968a7.26441,7.26441,0,0,1,1.04939,1.75069,11.42869,11.42869,0,0,0,2.797,4.19912,49.10154,49.10154,0,0,0,5.15965,4.28995c1.31176.78806,2.58777,1.85579,3.41054,1.48831a3.6105,3.6105,0,0,0,1.73438-2.746,5.55031,5.55031,0,0,0-.47164-4.18124,18.66331,18.66331,0,0,0-4.19656-4.55075,28.78351,28.78351,0,0,0-3.98729-2.90727c-1.13718-.6125-2.57193-1.38269-2.57193-1.38269a5.0662,5.0662,0,0,1,1.67976.38588,11.84139,11.84139,0,0,0,3.79641.85846,14.9053,14.9053,0,0,0,4.07713-.5053,12.52977,12.52977,0,0,0,3.76218-1.31046c.84063-.59462,1.50618-1.01416,2.10029-1.39878.59514-.384,1.8732-1.06621,1.45366-2.08142a3.93075,3.93075,0,0,0-2.78068-2.32822,16.132,16.132,0,0,0-6.15908-.773,31.34152,31.34152,0,0,0-4.96981,1.08284c-1.50468.489-4.39256,1.62488-4.39256,1.62488a8.34368,8.34368,0,0,1,1.89055-1.99393,12.40562,12.40562,0,0,0,3.554-3.83033c.92844-1.73176,1.594-2.50147,1.94412-4.07556a24.16245,24.16245,0,0,0,.35221-2.62451c.15717-.82224.858-2.22155.5604-2.904a2.60891,2.60891,0,0,0-2.53618-1.31375A6.97351,6.97351,0,0,0,31.54424,6.098a14.55026,14.55026,0,0,0-3.41409,4.635A66.56369,66.56369,0,0,0,24.714,19.39276Z"/><path class="cls-1" d="M27.76518,24.98908c-.33481,1.00115-1.867,1.22725-2.82045.9088A2.21255,2.21255,0,0,1,23.67379,23.279a1.91388,1.91388,0,0,1,2.48057-1.00726A2.55645,2.55645,0,0,1,27.76518,24.98908Z"/></svg>