<svg id="Слой_1" data-name="Слой 1" xmlns="http://www.w3.org/2000/svg" viewBox="0 0 52 52"><defs><style>.cls-1{fill:lime;}</style></defs><title>TO</title><path id="path10" class="cls-1" d="M23.84222,2.03192A24.37751,24.37751,0,0,0,15.008,4.54408,23.68544,23.68544,0,0,0,2.51254,20.76a29.04538,29.04538,0,0,0-.3291,8.64848A23.73664,23.73664,0,0,0,22.39213,49.81468a34.25574,34.25574,0,0,0,7.11675,0,23.72362,23.72362,0,0,0,16.4652-10.2752,24.0849,24.0849,0,0,0,3.84633-10.234,30.09188,30.09188,0,0,0-.0514-7.00113A22.80925,22.80925,0,0,0,43.07392,8.961,23.12352,23.12352,0,0,0,29.85857,2.21724a49.819,49.819,0,0,0-6.01633-.18532Zm2.12886,9.05a1.33507,1.33507,0,0,1,.79189.86485c.26739.59716.26739.63833.26739,2.924v2.31655l2.29341.04119c2.13913.03087,2.314.05146,2.71506.2677a2.20108,2.20108,0,0,1,.7199.65892,1.969,1.969,0,0,1,.3291,1.29728c.06171,1.462-.43194,2.24447-1.55293,2.49157-.59649.13385-7.98064.09265-8.36116-.04118-.20569-.07206-.20569-.03088-.17483,4.59191.02056,5.03465.08226,5.76565.58621,6.82611a6.1228,6.1228,0,0,0,.7199,1.03988,4.49919,4.49919,0,0,0,3.74349,1.58555,4.77089,4.77089,0,0,0,3.77435-1.42082,4.99566,4.99566,0,0,0,1.32667-2.69749c.3908-1.915.92559-2.32685,2.94132-2.24448,1.27526.04118,1.77919.26769,2.14943.92663a1.65573,1.65573,0,0,1,.17483,1.2046,11.49193,11.49193,0,0,1-.9873,3.46968A9.8243,9.8243,0,0,1,27.64742,40.847a11.07831,11.07831,0,0,1-5.80036-1.9562,10.41113,10.41113,0,0,1-3.8669-7.485c-.0514-.57656-.10286-2.17241-.10286-3.552V25.34159h-2.242c-2.20085,0-2.25227,0-2.76649-.26769a1.96019,1.96019,0,0,1-1.0387-1.89444,2.35007,2.35007,0,0,1,.58621-1.96649c.60677-.60745.78161-.628,5.39927-.58687l4.124.03088-.03086-3.758c-.02057-2.06946-.0102-3.99477.03086-4.283a2.06484,2.06484,0,0,1,1.02843-1.58555,2.92445,2.92445,0,0,1,1.45009-.20592,2.751,2.751,0,0,1,1.55294.25739Z"/></svg>