<svg id="Слой_1" data-name="Слой 1" xmlns="http://www.w3.org/2000/svg" viewBox="0 0 52 52"><defs><style>.cls-1{fill:#d50000;}.cls-2{fill:#bfce00;}.cls-3{fill:#75af00;}.cls-4{fill:#a00;}</style></defs><title>TP</title><path id="path5974" class="cls-1" d="M39.48665,13.3892H26.87685V38.6108h7.22728V31.41387h5.38252a9.01234,9.01234,0,1,0,0-18.02467Zm0,10.82573H34.10413V20.61646h5.38252a1.79361,1.79361,0,0,1,1.81441,1.78406A1.818,1.818,0,0,1,39.48665,24.21493Z"/><path id="path5976" class="cls-2" d="M3.5,13.3892v7.22726H8.88252V38.6108h7.19693l1.3613-4.50668h8.10514l1.331,4.50668V13.3892Zm16.08891,13.518,1.90542-6.29074,1.87509,6.29074Z"/><path id="path5978" class="cls-3" d="M8.88287,38.6108h7.19745V20.61721h5.41321V13.3895H16.08032L8.88287,38.6108Z"/><path id="path5980" class="cls-4" d="M26.87649,38.6108h7.22769L26.87649,13.3895V38.6108Z"/></svg>