<svg id="Слой_1" data-name="Слой 1" xmlns="http://www.w3.org/2000/svg" viewBox="0 0 52 52"><defs><style>.cls-1{fill:#00bef2;}</style></defs><title>TS</title><path id="path22" class="cls-1" d="M15.52457,24.304s-2.68292,7.84049-3.19024,12.98a80.98932,80.98932,0,0,1,7.50719-13.67817,51.16821,51.16821,0,0,0-8.60235-5.13292S15.6544,16.557,24.5651,16.08059c0,0,3.71107-7.26675,13.28236-14.08059C32.06357,3.88168,26.58834,8.89649,21.022,14.37172A55.83778,55.83778,0,0,0,5.36181,18.01126c8.205,4.30043,10.16276,6.2927,10.16276,6.2927"/><path id="path26" class="cls-1" d="M47.78358,18.57405a61.92078,61.92078,0,0,0-15.56135-3.58153,30.5474,30.5474,0,0,1,.47094-6.51841,30.64981,30.64981,0,0,0-2.5618,8.4611,48.20428,48.20428,0,0,1,10.54354,1.934s-6.354,2.43828-9.867,5.24773a85.329,85.329,0,0,1,2.86564,9.74951,71.07518,71.07518,0,0,0-8.43435-6.50128C21.27987,28.92134,10.35465,39.87391,4.21642,50c2.65648-2.801,10.44016-11.70963,20.981-18.1508C27.35168,33.13551,37.378,39.785,37.378,39.785s-2.19575-11.82323-3.01292-14.51818a54.4284,54.4284,0,0,1,13.41851-6.69272"/></svg>