<svg id="Слой_1" data-name="Слой 1" xmlns="http://www.w3.org/2000/svg" viewBox="0 0 52 52"><defs><style>.cls-1{fill:#d40000;}</style></defs><title>TU</title><path id="path16213" class="cls-1" d="M23.45191,12.70268H13.55205l-.5668.64492H24.05361Zm1.08041,1.0854H9.02265l-.4787.52026H25.01434Zm-15.92521.93081.69479.66986h7.87035l.67483-.66986Zm17.97631,1.11032-15.006.01164.54021.54519H27.10368ZM12.2938,16.79a2.02277,2.02277,0,0,1,.08809.359,1.87354,1.87354,0,0,1,0,.374h2.6445l.7164-.733Zm16.35735,1.112H12.2938l-.42552.58176H29.218Zm-17.17182.9358-.70642.66984h2.51818l.49366-.66984Zm19.24455,1.122H10.31082l-.46872.52857H31.2059Zm-21.17266.95574s-.1629.1845-.26429.32745a2.05911,2.05911,0,0,0-.18782.39892h3.434a3.13229,3.13229,0,0,1,.06814-.39892c.04655-.14295.0881-.32745.0881-.32745ZM32.785,22.02078H8.908s-.06649.11635-.14129.266c-.07314.14128-.12467.27425-.12467.27425H33.32018ZM12.54312,23.34553a1.95183,1.95183,0,0,1-.02993-.364H8.48244a1.9903,1.9903,0,0,0-.14128.35405c-.04653.16288-.08809.34738-.08809.34738h4.3316S12.57137,23.50842,12.54312,23.34553Zm22.3611.743H8.165a1.37645,1.37645,0,0,0-.08809.2859,2.032,2.032,0,0,0-.04654.27591H35.38292Zm-21.86744.98235h-5.033s-.02.19613-.0266.35735c-.0133.16289-.01995.34407-.01995.34407h5.59485ZM37.03511,26.1978H7.96718s.01661.15791.01661.2809c0,.11469.005.24268.005.24268H37.48722ZM15.78434,27.5375a5.05082,5.05082,0,0,1-.758-.379H8.0453s.02.241.04654.369a3.46076,3.46076,0,0,0,.09972.3474h8.39893S16.13672,27.67214,15.78434,27.5375Zm13.48015-.364H25.70081l-.70143.70144H29.9543ZM39.08124,28.327H8.3046a1.671,1.671,0,0,0,.07812.26429c.0615.12964.09972.22938.09972.22938h31.154Zm-36.428.91918-.59173.64492H32.11012l.61833-.64492Zm38.4841,1.122H2l.51361.53023H41.67754Zm-7.72907.97237H9.87368l.50863.61167H34.05319Zm-28.37482.01H2.91918l.61168.58176H5.66175Zm1.20507,1.122H4.10264l.52525.50364H6.669Zm37.09121.015H10.96406s.16289.133.31249.23436c.14128.10139.31581.25432.31581.25432H43.79182Zm-36.15706.95076H5.03345l.67983.6283H7.81093Zm5.12113,0a5.60342,5.60342,0,0,0,.58175.29088c.31083.13463.85269.33742.85269.33742h5.91564l1.31478-.6283Zm23.25036,0H29.57034s.08809.1313.22272.30584a3.51148,3.51148,0,0,0,.266.31747l6.1284-.005ZM8.24808,34.57511H6.17537l.5136.48868H8.7617Zm37.44526.27592-.24933-.27592H30.55267l.743.49865H45.84459A2.53563,2.53563,0,0,0,45.69334,34.851Zm.08808,1.07043c-.10138-.10139-.42551-.40557-.42551-.40557H31.8824a5.04312,5.04312,0,0,0,.59673.33244,8.22575,8.22575,0,0,0,.97734.34739H46.02078S45.88281,36.02285,45.78142,35.92146Zm-36.55765-.3906H7.14607l.65489.63993H9.90527Zm1.117,1.092H8.25307l.42053.482h2.13587Zm37.181.05651H40.48411s.36068.10638.92915.20777,1.57407.30584,1.57407.30584h4.99646Zm-38.32287.91918.70642.67484h.92914v-.67484Zm38.26136.04654H44.53979l1.14357.69146h2.40515Zm-37.166,1.0804.55682.53023v-.53023Zm39.32681.0881H46.8153a3.6142,3.6142,0,0,0,.4521.22938c.24933.10139.733.25431.733.25431H50Z"/></svg>