<svg id="Слой_1" data-name="Слой 1" xmlns="http://www.w3.org/2000/svg" xmlns:xlink="http://www.w3.org/1999/xlink" viewBox="0 0 52 52"><defs><style>.cls-1{fill:none;}.cls-2{clip-path:url(#clip-path);}.cls-3{fill:url(#Безымянный_градиент_16);}.cls-4{clip-path:url(#clip-path-2);}.cls-5{fill:url(#Безымянный_градиент_16-2);}.cls-6{fill:#f7b400;}.cls-7{fill:#009fe8;}.cls-8{clip-path:url(#clip-path-3);}.cls-9{fill:url(#Безымянный_градиент_16-3);}.cls-10{clip-path:url(#clip-path-4);}.cls-11{fill:url(#Безымянный_градиент_16-4);}.cls-12{clip-path:url(#clip-path-5);}.cls-13{fill:url(#Безымянный_градиент_16-5);}.cls-14{clip-path:url(#clip-path-6);}.cls-15{fill:url(#Безымянный_градиент_16-6);}</style><clipPath id="clip-path"><path class="cls-1" d="M13.39581,32.18674c5.7044,1.63582,5.285.50333,7.4241,2.85219L4.00035,16.41578c-.04195.20973,3.69107,14.13515,9.39546,15.771"/></clipPath><linearGradient id="Безымянный_градиент_16" x1="-1095.77327" y1="-246.71189" x2="-1094.94522" y2="-246.71189" gradientTransform="matrix(-4.7034, 3.6747, 3.6747, 4.7034, -4234.33862, 5212.3383)" gradientUnits="userSpaceOnUse"><stop offset="0" stop-color="#00a63c"/><stop offset="0.05263" stop-color="#20ac37"/><stop offset="0.1313" stop-color="#4bb331"/><stop offset="0.1929" stop-color="#65b72d"/><stop offset="0.2294" stop-color="#6fb92c"/><stop offset="0.4445" stop-color="#8ac219"/><stop offset="0.66" stop-color="#aacc03"/><stop offset="0.6815" stop-color="#accd03"/><stop offset="0.8628" stop-color="#bdd401"/><stop offset="1" stop-color="#c3d600"/></linearGradient><clipPath id="clip-path-2"><path class="cls-1" d="M31.18009,35.03894c2.0972-2.30692,1.7197-1.21637,7.4241-2.85219s9.43741-15.56124,9.39546-15.771Z"/></clipPath><linearGradient id="Безымянный_градиент_16-2" x1="-929.92" y1="-376.281" x2="-929.09198" y2="-376.281" gradientTransform="translate(3030.1355 5212.29167) rotate(38.00001) scale(5.9687)" xlink:href="#Безымянный_градиент_16"/><clipPath id="clip-path-3"><path class="cls-1" d="M28.70539,33.90645c1.13249-2.93608,1.17443-1.76166,5.87217-5.3269,4.73967-3.56524,3.22969-17.91011,3.10386-18.11983Z"/></clipPath><linearGradient id="Безымянный_градиент_16-3" x1="-847.59621" y1="-375.82367" x2="-846.76815" y2="-375.82367" gradientTransform="translate(4216.77732 3643.72393) rotate(16.96828) scale(5.96864)" xlink:href="#Безымянный_градиент_16"/><clipPath id="clip-path-4"><path class="cls-1" d="M22.41378,26.81791c3.14581,5.03328,3.60719,3.94274,3.60719,7.08854h0V8.82392c-.20972.12582-6.753,12.9607-3.60719,17.994"/></clipPath><linearGradient id="Безымянный_градиент_16-4" x1="-980.9338" y1="-360.74091" x2="-980.10578" y2="-360.74091" gradientTransform="matrix(-5.954, -0.4207, -0.4207, 5.954, -5965.59719, 1756.79376)" xlink:href="#Безымянный_градиент_16"/><clipPath id="clip-path-5"><path class="cls-1" d="M26.021,33.8645h0c0-3.1458.46139-2.05525,3.60719-7.08854S26.23069,8.9078,26.021,8.782Z"/></clipPath><linearGradient id="Безымянный_градиент_16-5" x1="-770.99302" y1="-345.90335" x2="-770.165" y2="-345.90335" gradientTransform="matrix(5.9541, -0.4207, 0.4207, 5.9541, 4761.44351, 1756.80773)" xlink:href="#Безымянный_градиент_16"/><clipPath id="clip-path-6"><path class="cls-1" d="M17.3805,28.57956c4.73968,3.56525,4.78162,2.39082,5.87216,5.3269l-8.976-23.40477c-.08389.20971-1.59387,14.55456,3.10386,18.07787"/></clipPath><linearGradient id="Безымянный_градиент_16-6" x1="-1048.92241" y1="-314.41181" x2="-1048.09439" y2="-314.41181" gradientTransform="matrix(-5.7082, 1.7417, 1.7417, 5.7082, -5420.5092, 3643.42589)" xlink:href="#Безымянный_градиент_16"/></defs><title>TX</title><g class="cls-2"><polygon class="cls-3" points="14.444 8.237 -5.06 23.462 10.376 43.218 29.838 27.992 14.444 8.237"/></g><g class="cls-4"><polygon class="cls-5" points="37.556 8.237 57.06 23.462 41.624 43.218 22.162 27.992 37.556 8.237"/></g><path class="cls-6" d="M25.89514,43.218V39.40112c.04194-.04195.08389-.04195.12583-.08389.83888-.54527,1.88749-1.34222,3.22969-2.0972.20972-.12583.41944-.20972.62916-.33555.3775-.20972.79694-.3775,1.25833-.58722a19.49884,19.49884,0,0,1,2.64247-.88082,8.58778,8.58778,0,0,1,1.00666-.20972c.29361-.04195.62916-.0839.96471-.12583a.71371.71371,0,0,0,.29361-.04195,13.40437,13.40437,0,0,1,1.84554-.04194h.41944a17.97259,17.97259,0,0,1,2.05526.20972,20.1805,20.1805,0,0,1,3.48136.88082c-.04195.04195-8.1791-.58721-17.95206,7.13049"/><path class="cls-7" d="M28.36984,41.3725c-3.94274-3.2297-10.27629-8.68243-20.38481-5.243,2.55859-.08389,9.5213.54527,17.91011,7.04659.83888-.62916,1.67776-1.21637,2.4747-1.80358Z"/><g class="cls-8"><polygon class="cls-9" points="29.628 7.524 45.861 12.473 38.436 36.884 22.162 31.935 29.628 7.524"/></g><g class="cls-10"><polygon class="cls-11" points="27.783 8.908 19.31 8.321 17.506 33.739 25.979 34.368 27.783 8.908"/></g><g class="cls-12"><polygon class="cls-13" points="24.217 8.908 32.69 8.321 34.494 33.739 26.021 34.368 24.217 8.908"/></g><g class="cls-14"><polygon class="cls-15" points="22.372 7.524 6.139 12.473 13.564 36.884 29.838 31.935 22.372 7.524"/></g></svg>