<svg id="Слой_1" data-name="Слой 1" xmlns="http://www.w3.org/2000/svg" viewBox="0 0 52 52"><defs><style>.cls-1{fill:#f60;}</style></defs><title>U2</title><path class="cls-1" d="M7.73729,26.44086h-2.923c-.13286,0-.19325.0604-.19325.1691a1.0108,1.0108,0,0,0,.43482.76095,1.44305,1.44305,0,0,0,.94213.36236,2.37231,2.37231,0,0,0,.66432-.10871,2.16045,2.16045,0,0,0,.60392-.27781.68183.68183,0,0,1,.3382-.14494.39681.39681,0,0,1,.314.19326.6273.6273,0,0,1,.157.41067,1.10739,1.10739,0,0,1-.55561.85757,3.6544,3.6544,0,0,1-2.27076.73679,3.23551,3.23551,0,0,1-2.18621-.76094,2.98836,2.98836,0,0,1-.70055-.89381A3.16482,3.16482,0,0,1,2,26.27177a3.01683,3.01683,0,0,1,.62808-1.87217,3.30619,3.30619,0,0,1,1.389-1.075A3.43806,3.43806,0,0,1,5.382,23.05889a3.08686,3.08686,0,0,1,2.005.66431,2.4963,2.4963,0,0,1,.66431.79719A2.09894,2.09894,0,0,1,8.34122,25.535a1.26044,1.26044,0,0,1-.1691.66432A.54209.54209,0,0,1,7.73729,26.44086Zm-2.7539-1.15953h.62809q.39858,0,.39859-.36236a.75.75,0,0,0-.19326-.54353.6317.6317,0,0,0-.5073-.20533.64343.64343,0,0,0-.54353.2778.87546.87546,0,0,0-.18118.51938.35244.35244,0,0,0,.08455.26573A.83961.83961,0,0,0,4.98339,25.28133Z"/><path class="cls-1" d="M12.27881,23.03473a2.99615,2.99615,0,0,1,1.82386.54353,1.59693,1.59693,0,0,1,.55561.66432,2.6556,2.6556,0,0,1,.157,1.02667l-.01208.918a3.725,3.725,0,0,0,.13287,1.24408.33973.33973,0,0,0,.13286.1691.93562.93562,0,0,0,.26573.07247c.13286.02416.19325.10871.19325.26573a1.05009,1.05009,0,0,1-.24157.616A2.07753,2.07753,0,0,1,13.692,29.376a1.26134,1.26134,0,0,1-1.02667-.44691.33345.33345,0,0,0-.24157-.157.56265.56265,0,0,0-.32612.157,2.308,2.308,0,0,1-1.40111.44691A2.29207,2.29207,0,0,1,9.38,29.02567a1.68732,1.68732,0,0,1-.51938-.60393,1.59571,1.59571,0,0,1-.19325-.773,1.49567,1.49567,0,0,1,.51937-1.13538,3.39132,3.39132,0,0,1,2.42779-.7851.83618.83618,0,0,0,.4469-.07247.41736.41736,0,0,0,.09663-.32612,2.58343,2.58343,0,0,0-.13287-.95421.46878.46878,0,0,0-.4469-.28988.53.53,0,0,0-.32612.10871,1.882,1.882,0,0,0-.36235.41067,1.49327,1.49327,0,0,1-1.14746.7851.69507.69507,0,0,1-.49522-.18118.60234.60234,0,0,1-.19326-.47106.96.96,0,0,1,.24157-.59185,2.06456,2.06456,0,0,1,.65224-.51937A4.812,4.812,0,0,1,12.27881,23.03473ZM11.85607,26.622a.619.619,0,0,0-.47107.21742.82871.82871,0,0,0-.06039,1.01459.45243.45243,0,0,0,.37443.18118c.32612,0,.49522-.27781.49522-.83342a.98874.98874,0,0,0-.07247-.459A.28277.28277,0,0,0,11.85607,26.622Z"/><path class="cls-1" d="M18.4147,23.03473a6.79859,6.79859,0,0,1,1.01459.13286,2.12935,2.12935,0,0,0,.22949.02416,1.5637,1.5637,0,0,0,.41067-.10871.77518.77518,0,0,1,.24157-.06039.78547.78547,0,0,1,.57977.36235,2.66,2.66,0,0,1,.38651.64016,1.60969,1.60969,0,0,1,.14494.60393.55521.55521,0,0,1-.16909.41067.63289.63289,0,0,1-.43483.1691.68968.68968,0,0,1-.38651-.10871,4.70721,4.70721,0,0,1-.54354-.459,1.11848,1.11848,0,0,0-.65223-.38651.45509.45509,0,0,0-.43483.43482c0,.20534.19325.38651.57977.56769a5.34354,5.34354,0,0,1,1.60644,1.02668,1.568,1.568,0,0,1,.47106,1.14745,1.73613,1.73613,0,0,1-.761,1.43735,2.51822,2.51822,0,0,1-1.59436.50729,7.13724,7.13724,0,0,1-.88173-.08455c-.39859-.04831-.62808-.07247-.6764-.07247a1.07193,1.07193,0,0,0-.18118.02416c-.12078.01208-.20533.02416-.26572.02416a.67476.67476,0,0,1-.459-.145,2.20934,2.20934,0,0,1-.47106-.72471,2.17943,2.17943,0,0,1-.21741-.84549c0-.37444.14494-.56769.4469-.56769a.49622.49622,0,0,1,.314.1087,6.77266,6.77266,0,0,1,.616.616,2.51728,2.51728,0,0,0,.42275.37443.629.629,0,0,0,.36235.09663.48342.48342,0,0,0,.32612-.1087.35809.35809,0,0,0,.12079-.28989c0-.18118-.157-.35027-.48314-.50729a4.356,4.356,0,0,1-1.43735-1.0146,1.84389,1.84389,0,0,1-.4469-1.20785,1.87187,1.87187,0,0,1,.4469-1.26824A2.28549,2.28549,0,0,1,18.4147,23.03473Z"/><path class="cls-1" d="M27.88425,26.09059l-.82134,2.2466a8.78692,8.78692,0,0,1-.616,1.36487,4.10715,4.10715,0,0,1-.70056.90589,2.72857,2.72857,0,0,1-1.94464.773,2.17858,2.17858,0,0,1-1.48566-.48314,1.2024,1.2024,0,0,1-.43482-.94213,1.11277,1.11277,0,0,1,.302-.79718.99772.99772,0,0,1,.74887-.32612.93117.93117,0,0,1,.72471.302.80507.80507,0,0,1,.1691.24157c.02415.07248.07247.22949.13286.459.04831.18118.14494.2778.314.2778a.41818.41818,0,0,0,.32612-.16909.601.601,0,0,0,.13287-.41067,2.76812,2.76812,0,0,0-.32612-.97836L22.9079,25.378a3.39718,3.39718,0,0,0-.35027-.616,1.93022,1.93022,0,0,0-.51938-.302.471.471,0,0,1-.21741-.19326.5254.5254,0,0,1-.08455-.2778c0-.36236.36235-.616,1.09914-.74887a9.70968,9.70968,0,0,1,1.66684-.13286,3.39158,3.39158,0,0,1,1.03875.13286.59487.59487,0,0,1,.36236.97836.6075.6075,0,0,0-.13287.35028,1.02815,1.02815,0,0,0,.06039.314,5.91454,5.91454,0,0,0,.27781.54353c.157.28988.28988.43483.41067.43483.13286,0,.26573-.13287.39859-.38651a1.58333,1.58333,0,0,0,.20534-.73679.62412.62412,0,0,0-.157-.459.82151.82151,0,0,1-.24157-.48314c0-.20533.14495-.37443.42275-.5073a2.84632,2.84632,0,0,1,1.1233-.19325c.88174,0,1.31656.20533,1.31656.62808a.54409.54409,0,0,1-.13286.37443,1.24166,1.24166,0,0,1-.48314.26573.95135.95135,0,0,0-.47107.37444A7.54534,7.54534,0,0,0,27.88425,26.09059Z"/><path class="cls-1" d="M34.96226,20.619a8.17226,8.17226,0,0,1,1.41318.12079,2.08,2.08,0,0,1,.8455.2778.56053.56053,0,0,1,.25365.48314.452.452,0,0,1-.09663.302,1.45857,1.45857,0,0,1-.39859.26572.67742.67742,0,0,0-.41067.43483,18.41978,18.41978,0,0,0-.09662,1.94464c-.01208,1.09915-.02416,1.75139-.03624,1.9688a5.45846,5.45846,0,0,1-.07247.64016,2.6346,2.6346,0,0,1-.72471,1.42527,3.12472,3.12472,0,0,1-1.14746.66431,4.59607,4.59607,0,0,1-1.47358.24157,5.39122,5.39122,0,0,1-1.377-.18117,4.50531,4.50531,0,0,1-1.19577-.49522,1.97755,1.97755,0,0,1-.918-1.64268,1.44348,1.44348,0,0,1,.38652-1.02667,1.34086,1.34086,0,0,1,.97836-.41067,1.4403,1.4403,0,0,1,.97836.3382,1.09312,1.09312,0,0,1,.39859.85757,2.22724,2.22724,0,0,1-.07247.43483.4528.4528,0,0,0-.01208.13286.41356.41356,0,0,0,.14494.32612.538.538,0,0,0,.37443.12079.75748.75748,0,0,0,.66432-.37444,1.73093,1.73093,0,0,0,.25365-.97836l-.01208-.56769-.01208-1.52189c-.03623-.918-.06039-1.4615-.08455-1.6306a.74585.74585,0,0,0-.14494-.39859.48672.48672,0,0,0-.1691-.157c-.04832-.02416-.18118-.06039-.38652-.12079a.43319.43319,0,0,1-.25365-.1691.4881.4881,0,0,1-.1087-.302.62627.62627,0,0,1,.26573-.53145,2.2626,2.2626,0,0,1,.85757-.32612A6.69579,6.69579,0,0,1,34.96226,20.619Z"/><path class="cls-1" d="M43.52592,26.44086H40.615c-.13286,0-.19325.0604-.19325.1691a1.0108,1.0108,0,0,0,.43482.76095,1.44305,1.44305,0,0,0,.94213.36236,2.37225,2.37225,0,0,0,.66431-.10871,2.16052,2.16052,0,0,0,.60393-.27781.68183.68183,0,0,1,.3382-.14494.39682.39682,0,0,1,.314.19326.62735.62735,0,0,1,.157.41067,1.10738,1.10738,0,0,1-.55562.85757,3.65435,3.65435,0,0,1-2.27075.73679,3.23552,3.23552,0,0,1-2.18622-.76094,2.98868,2.98868,0,0,1-.70055-.89381,3.16481,3.16481,0,0,1-.36235-1.47358,3.01683,3.01683,0,0,1,.62808-1.87217,3.30619,3.30619,0,0,1,1.389-1.075,3.43806,3.43806,0,0,1,1.36487-.26572,3.08684,3.08684,0,0,1,2.005.66431,2.49633,2.49633,0,0,1,.66432.79719,2.09894,2.09894,0,0,1,.28989,1.01459,1.26053,1.26053,0,0,1-.1691.66432A.54642.54642,0,0,1,43.52592,26.44086ZM40.772,25.28133h.62809q.39858,0,.39859-.36236a.75.75,0,0,0-.19326-.54353.63173.63173,0,0,0-.5073-.20533.64343.64343,0,0,0-.54353.2778.87546.87546,0,0,0-.18118.51938.35244.35244,0,0,0,.08455.26573A.89112.89112,0,0,0,40.772,25.28133Z"/><path class="cls-1" d="M48.12783,24.66532v2.08959a.94653.94653,0,0,0,.18118.60392.573.573,0,0,0,.47106.24157,1.46879,1.46879,0,0,0,.64016-.21741.35941.35941,0,0,1,.18118-.06039.35561.35561,0,0,1,.2778.18117A.66373.66373,0,0,1,50,27.89029a.989.989,0,0,1-.42275.73679,3.20452,3.20452,0,0,1-2.1379.74886,2.23086,2.23086,0,0,1-1.59436-.55561,1.9386,1.9386,0,0,1-.60393-1.47358v-2.8626a.16655.16655,0,0,0-.21741-.21742h-.616a.32617.32617,0,0,1-.22949-.06039.46452.46452,0,0,1-.04831-.27781v-.2778a.30927.30927,0,0,1,.14494-.27781l2.83845-1.78762a.5759.5759,0,0,1,.26573-.06039h.5073a.23339.23339,0,0,1,.20534.07247.51617.51617,0,0,1,.04831.27781v.83341a.36474.36474,0,0,0,.06039.24157.38152.38152,0,0,0,.25365.0604h1.14746c.157,0,.25365.02415.302.08455a.598.598,0,0,1,.07248.36235v.36236a.69326.69326,0,0,1-.08455.41067.39536.39536,0,0,1-.314.1087H48.454a.32622.32622,0,0,0-.22949.06039A.33.33,0,0,0,48.12783,24.66532Z"/></svg>