<svg id="Слой_1" data-name="Слой 1" xmlns="http://www.w3.org/2000/svg" viewBox="0 0 52 52"><defs><style>.cls-1{fill:#005daa;}</style></defs><title>UA</title><path id="Globe" class="cls-1" d="M52,.01087V51.98031H41.2292a34.32359,34.32359,0,0,0,1.17741-19.83366,34.5043,34.5043,0,0,0-14.9579-20.86821A34.50839,34.50839,0,0,0,2.07156,6.73577L.00007,7.24622V.01085H52ZM14.31508,8.15878a15.212,15.212,0,0,0-9.66-1.19185l1.14932.13163.16293-.08106a16.03324,16.03324,0,0,1,4.51056.252,18.11648,18.11648,0,0,0-1.81305.61558,5.76876,5.76876,0,0,1,.9928.49761,22.76149,22.76149,0,0,1,2.46556-.67257,12.02357,12.02357,0,0,1,2.82433,1.44707,32.276,32.276,0,0,0-3.57715.57706,4.08231,4.08231,0,0,1,.69825.81384,31.81412,31.81412,0,0,1,4.09964-.43742,7.12862,7.12862,0,0,1,1.671,2.10119,31.97853,31.97853,0,0,0-4.80914.05858,5.38605,5.38605,0,0,1,.38043,1.13406,36.599,36.599,0,0,1,5.12777.20146,8.85411,8.85411,0,0,1,.62682,2.67343,40.64213,40.64213,0,0,0-5.47206-.71912,11.55717,11.55717,0,0,1-.05056,1.51208,38.43,38.43,0,0,1,5.62055,1.0177,13.47987,13.47987,0,0,1-.40211,2.95675,46.0196,46.0196,0,0,0-5.68476-1.58994A13.20846,13.20846,0,0,1,12.38,21.79483a44.49515,44.49515,0,0,1,5.58525,2.35881,16.72242,16.72242,0,0,1-1.12443,2.52014,57.43481,57.43481,0,0,0-5.49695-2.789,26.62087,26.62087,0,0,1-1.92783,2.99046c1.79138,1.08831,3.48324,2.26973,5.16467,3.53541-.50323.7392-1.22877,1.62445-1.66377,2.15336-1.61241-1.34114-4.92148-3.97364-4.92148-3.97364a18.03131,18.03131,0,0,1-3.03059,2.99687c1.35719,1.38929,3.13331,3.37491,4.24329,4.75055A11.18275,11.18275,0,0,1,7.40073,37.878C6.05319,36.223,4.43194,34.13146,3.4881,32.81923A19.44146,19.44146,0,0,1,.00164,35.11946v1.94468l2.15094,4.29948a9.44471,9.44471,0,0,1-1.51208.7721L.00164,40.88207v2.2593c8.29077-3.68149,16.72923-11.7997,19.182-20.61618.89809-3.04664,1.05379-6.96811-.41494-9.80847a10.2838,10.2838,0,0,0-4.45357-4.55794M13.0783,6.877c.36117.118.70628.2785,1.0522.42939l.19423-.0337a15.87582,15.87582,0,0,1,4.98088,1.71112c-.82427.00642-1.6766-.00562-2.49847.0626a13.68809,13.68809,0,0,1,1.004.996c1.114-.02087,2.19187.00241,3.2545.07223a9.90512,9.90512,0,0,1,2.724,2.8773,34.96536,34.96536,0,0,0-4.43513-.65572c.19583.44945.39569.91254.561,1.3925a50.0042,50.0042,0,0,1,4.96082.96231,11.885,11.885,0,0,1,1.114,3.5009,40.55313,40.55313,0,0,0-5.49213-1.62284c.04735.606.05137,1.228.05457,1.842a41.779,41.779,0,0,1,5.65668,2.03778,14.36406,14.36406,0,0,1-.40292,3.55387,45.928,45.928,0,0,0-5.67271-2.48964,25.98259,25.98259,0,0,1-.95269,3.19592,60.3145,60.3145,0,0,1,5.5082,3.10042,15.70253,15.70253,0,0,1-1.38928,2.9118c-1.74164-1.191-3.48646-2.35-5.30353-3.35884a21.57129,21.57129,0,0,1-2.33072,3.80429c1.61963,1.27612,3.2778,2.60441,4.83882,4.01617a18.93646,18.93646,0,0,1-1.976,2.484c-1.13888-1.20068-3.04261-2.9102-4.627-4.24571a31.63774,31.63774,0,0,1-3.7754,3.96321c1.0185,1.069,4.03784,4.708,4.03784,4.708a17.8039,17.8039,0,0,1-2.13007,1.77774s-3.08435-3.956-3.84361-4.90946a32.684,32.684,0,0,1-5.4175,3.594c.84592,1.44065,2.94631,5.34606,2.94631,5.34606a9.7501,9.7501,0,0,1-1.66539.84753c-.992-1.64531-2.18545-4.02981-2.82113-5.3894a9.26458,9.26458,0,0,1-1.23117.5554v7.11338a41.11985,41.11985,0,0,0,17.3697-11.12554c4.56915-4.952,8.18324-10.298,9.25709-16.68749a13.47284,13.47284,0,0,0-4.875-13.13361C19.3,7.98141,16.25977,7.25025,13.0783,6.877M10.93777,10.2688C8.12309,7.42441,3.80754,7.186.00005,8.08174v.34591A13.81029,13.81029,0,0,1,2.7714,8.09859,15.16725,15.16725,0,0,0,1.02577,9.36507a4.03094,4.03094,0,0,1,.69265.21991A24.22288,24.22288,0,0,1,4.1005,8.06247,8.68106,8.68106,0,0,1,6.91761,8.54a18.817,18.817,0,0,0-3.74489,1.80262,2.20318,2.20318,0,0,1,.50966.40049A28.8358,28.8358,0,0,1,8.0268,8.90759,6.04727,6.04727,0,0,1,9.831,10.05449,35.34562,35.34562,0,0,0,4.54113,11.6677a3.65769,3.65769,0,0,1,.439.68542,45.07077,45.07077,0,0,1,5.67433-1.53937,5.25288,5.25288,0,0,1,.99841,1.5498,40.83484,40.83484,0,0,0-6.23855,1.06664,4.43012,4.43012,0,0,1,.2127.80741,44.35171,44.35171,0,0,1,6.45524-.76888,6.88587,6.88587,0,0,1,.309,1.99042,43.48926,43.48926,0,0,0-6.66231.15571c0,.25844-.03613.7753-.07064,1.09554a46.63953,46.63953,0,0,1,6.66633.23114,16.13956,16.13956,0,0,1-.45185,2.22238A40.36741,40.36741,0,0,0,5.31725,18.253a6.53217,6.53217,0,0,1-.48076,1.42942,39.4987,39.4987,0,0,1,6.26825,1.70391,19.27036,19.27036,0,0,1-.96633,1.93183,46.59084,46.59084,0,0,0-6.01383-2.22879A11.5038,11.5038,0,0,1,2.85086,23.0886c1.27692.62281,3.72563,2.00487,5.40466,3.09a17.05433,17.05433,0,0,1-1.32589,1.58833c-1.62605-1.26809-3.23927-2.45834-5.005-3.58117A18.15882,18.15882,0,0,1,.00086,26.08709v.20546L4.05957,30.6121a16.27923,16.27923,0,0,1-1.39008,1.13728l-2.66782-3.411V34.357A30.28013,30.28013,0,0,0,10.63682,23.766c1.91338-3.36607,3.36125-7.92318,1.50807-11.79329a7.06221,7.06221,0,0,0-1.20712-1.7039m12.12154.04334,1.19907.14687a12.52861,12.52861,0,0,1,3.285,2.54342,7.79039,7.79039,0,0,1,1.01046,1.23519c-.988-.2801-1.94549-.6196-2.96639-.84031a10.3712,10.3712,0,0,1,.84592,1.69187c1.13969.32825,2.27054.72153,3.37812,1.1156a14.09807,14.09807,0,0,1,1.47518,4.32436c-1.27693-.63966-2.55787-1.26168-3.87252-1.77854a13.25149,13.25149,0,0,1,.10194,2.26571A35.9926,35.9926,0,0,1,31.5796,23.205a17.3232,17.3232,0,0,1-.378,4.13415A35.47764,35.47764,0,0,0,27.041,24.72751a18.68041,18.68041,0,0,1-1.19184,3.79625,44.31683,44.31683,0,0,1,4.14057,3.07554,24.539,24.539,0,0,1-1.49362,3.25531c-1.3339-1.1453-2.69028-2.24164-4.10123-3.29945a24.12319,24.12319,0,0,1-2.89495,4.49452c1.35558,1.25125,2.64935,2.47359,3.94475,3.81392a20.82661,20.82661,0,0,1-2.17423,2.68869c-1.23279-1.32267-2.50169-2.68066-3.79064-3.948a41.61474,41.61474,0,0,1-4.43995,4.50254,41.47228,41.47228,0,0,1,3.44954,4.24893c-.78814.67578-1.52252,1.31063-2.30985,1.8885l-3.33237-4.30109a46.88863,46.88863,0,0,1-6.42955,4.12131l1.74805,2.91822h5.42071C21.8699,46.32607,29.35325,37.927,31.6583,28.55107a17.11994,17.11994,0,0,0-3.88052-15.87928,12.84953,12.84953,0,0,0-6.10451-3.54666,9.0299,9.0299,0,0,1,1.386,1.187M.00167,9.83459v1.00164l.5594-.38845a4.62991,4.62991,0,0,1,1.35719.57546c-.6477.37963-1.31225.75363-1.911,1.163v.62843c.79939-.488,1.73841-1.057,2.48241-1.43423a3.10715,3.10715,0,0,1,.77933.76085c-1.07388.42858-2.57152,1.15814-3.269,1.52733v.6477a27.52789,27.52789,0,0,1,3.76254-1.55222,3.2965,3.2965,0,0,1,.38364.97435,26.002,26.002,0,0,0-4.13817,1.309V15.639A29.01811,29.01811,0,0,1,4.314,14.51372a6.0912,6.0912,0,0,1,.10032,1.21272,39.0557,39.0557,0,0,0-4.40142.66695v.67578a34.50506,34.50506,0,0,1,4.33078-.293,6.83156,6.83156,0,0,1-.36759,1.3644A39.207,39.207,0,0,0,.008,17.997c-.008,0-.008.90131-.008.90532a27.41251,27.41251,0,0,1,3.47443.545,8.31143,8.31143,0,0,1-.62362,1.21593A20.15087,20.15087,0,0,0,0,19.88305v1.77774a17.73429,17.73429,0,0,1,1.65334.8355,6.46988,6.46988,0,0,1-.8034.94465C.47674,23.19214,0,22.916,0,22.916v2.27213a23.22262,23.22262,0,0,0,2.59157-2.907c1.81465-2.61484,3.24407-6.0074,1.94148-9.278A5.81125,5.81125,0,0,0,.00167,9.83459m30.37086,5.00577a19.56792,19.56792,0,0,1,1.03856,1.97438l1.44547.66616a18.06843,18.06843,0,0,1,2.2906,5.34687c-.79777-.50323-1.6092-1.02572-2.423-1.46714a20.42993,20.42993,0,0,1,.18059,2.56589,29.93058,29.93058,0,0,1,2.75288,2.10118,21.86484,21.86484,0,0,1-.27449,4.6767,24.19568,24.19568,0,0,0-2.97521-2.47117,21.16926,21.16926,0,0,1-1.31705,4.3067,28.22391,28.22391,0,0,1,3.102,2.93106,22.32377,22.32377,0,0,1-1.537,3.48566c-.98477-1.05862-2.057-2.159-3.1301-3.10121a43.5455,43.5455,0,0,1-3.167,4.94718c1.07145,1.09714,2.06267,2.24645,3.045,3.399a31.173,31.173,0,0,1-2.31147,2.80586c-.99361-1.1461-1.92462-2.3219-2.96316-3.43991A38.76539,38.76539,0,0,1,19.36256,48.4c1.11,1.34674,2.79141,3.582,2.79141,3.582H23.101a55.25566,55.25566,0,0,0,4.98972-5.09324c3.79144-4.63819,6.78992-9.59339,7.83651-15.34957a18.62794,18.62794,0,0,0-4.44315-16.28219ZM34.164,17.86453l-.01847.04414A19.4173,19.4173,0,0,1,37.96909,24.868l-.01445.02729L36.61831,23.884a23.05112,23.05112,0,0,1,.34271,3.06992,11.34989,11.34989,0,0,1,1.85639,1.75045,24.48264,24.48264,0,0,1-.20868,5.34687,19.99472,19.99472,0,0,0-2.0723-2.31307,22.667,22.667,0,0,1-1.26166,4.62613A22.43535,22.43535,0,0,1,37.46424,39.199a20.944,20.944,0,0,1-1.541,3.66223c-.75444-.97435-1.28817-1.7617-2.27294-2.92144A42.94253,42.94253,0,0,1,30.257,45.2602c.86037,1.01449,1.65253,2.07149,2.40136,3.14135a33.6754,33.6754,0,0,1-2.30344,2.90859c-.78334-1.07789-1.61723-2.14773-2.43185-3.21118a37.27206,37.27206,0,0,1-3.66384,3.88294H30.639a35.34768,35.34768,0,0,0,8.30765-16.00931c1.25525-6.00982.26244-12.37195-3.61086-16.9034A7.553,7.553,0,0,0,34.164,17.86453m5.44557,8.35659a28.29776,28.29776,0,0,1,.50081,3.60846,13.1006,13.1006,0,0,1,1.04015,1.38769,22.80755,22.80755,0,0,1-.40612,5.34445l-.96954-1.19426a28.93748,28.93748,0,0,1-1.31144,4.92631l1.07146,1.86041a26.57605,26.57605,0,0,1-1.52171,3.88775c-.4013-.65091-.77531-1.36762-1.18785-1.93586a45.23408,45.23408,0,0,1-3.37168,5.46l1.49844,2.4158h.34673a34.07284,34.07284,0,0,0,6.28269-17.99813,16.42422,16.42422,0,0,0-1.82109-7.61419ZM42.478,35.86266c-.1236.90373-.18461,1.81787-.34913,2.67343l-.28493-.38845a27.82407,27.82407,0,0,1-1.39248,5.26019l.44624,1.23359A35.119,35.119,0,0,1,39.47956,48.595a6.85444,6.85444,0,0,0-.64207-1.31625A44.07826,44.07826,0,0,1,36.136,51.98112h2.39252a40.298,40.298,0,0,0,3.07634-7.94968,23.482,23.482,0,0,0,.88445-8.16878Zm.14526,6.58607a72.77839,72.77839,0,0,1-2.16779,8.2057,5.60738,5.60738,0,0,1-.25362-.54977c-.358.72153-.90052,1.87646-.90052,1.87646h1.22637a33.51785,33.51785,0,0,0,2.09556-9.53239M4.558,49.94575A40.16574,40.16574,0,0,1,.00007,51.697v.2801H5.69285Zm12.46264.382c-.59232.42377-1.34355,1.09152-2.24725,1.66137H18.109s-.72074-1.08431-1.08833-1.66137"/></svg>