<svg id="Слой_1" data-name="Слой 1" xmlns="http://www.w3.org/2000/svg" viewBox="0 0 52 52"><defs><style>.cls-1{fill:#0060a9;}.cls-1,.cls-2{fill-rule:evenodd;}.cls-2{fill:#e03a3e;}</style></defs><title>UN</title><polygon class="cls-1" points="47.239 10.03 26.46 39.447 25.807 39.536 46.022 10.861 47.239 10.03 47.239 10.03"/><polygon class="cls-1" points="42.371 13.592 23.878 39.863 21.265 40.278 37.651 17.094 42.371 13.592 42.371 13.592"/><polygon class="cls-1" points="34.475 19.499 19.603 40.605 17.08 40.991 29.874 22.883 34.475 19.499 34.475 19.499"/><polygon class="cls-1" points="15.239 41.288 2 43.484 26.46 25.377 15.239 41.288 15.239 41.288"/><polygon class="cls-2" points="49.466 10.297 28.924 39.388 28.389 39.18 50 8.516 49.466 10.297 49.466 10.297"/><polygon class="cls-2" points="46.972 18.401 31.447 40.427 30.23 39.892 48.189 14.483 46.972 18.401 46.972 18.401"/><polygon class="cls-2" points="45.814 22.082 44.271 27.217 34.208 41.466 32.605 40.842 45.814 22.082 45.814 22.082"/><polygon class="cls-2" points="43.41 30.097 39.284 43.484 35.098 41.852 43.41 30.097 43.41 30.097"/></svg>