<svg id="Слой_1" data-name="Слой 1" xmlns="http://www.w3.org/2000/svg" xmlns:xlink="http://www.w3.org/1999/xlink" viewBox="0 0 52 52"><defs><style>.cls-1{fill:none;}.cls-2{clip-path:url(#clip-path);}.cls-3{fill:url(#Безымянный_градиент_11);}.cls-4{clip-path:url(#clip-path-2);}.cls-5{fill:url(#Безымянный_градиент_10);}.cls-6{clip-path:url(#clip-path-3);}.cls-7{fill:url(#Безымянный_градиент_9);}</style><clipPath id="clip-path"><path class="cls-1" d="M44.73856,7.64652c-1.58282.02083-4.41524.58315-9.851,2.43672-3.14482,1.06215-7.31014,2.83241-11.57959,4.45689,2.37423,1.10381,4.70681,2.12431,6.58121,2.95737,6.03971-2.45754,10.66322-3.85292,10.66322-3.85292a44.2029,44.2029,0,0,1-3.99871,6.852c1.562.68728,3.51969,1.52034,4.76929,1.916,4.58185-6.31046,7.5184-12.07942,5.5607-14.05795a2.36015,2.36015,0,0,0-1.97852-.7081h-.16662Z"/></clipPath><linearGradient id="Безымянный_градиент_11" x1="-986.36858" y1="-1097.27584" x2="-985.60118" y2="-1097.27584" gradientTransform="matrix(41.0744, -29.3148, 29.311, 41.0798, 72686.9892, 16194.11838)" gradientUnits="userSpaceOnUse"><stop offset="0" stop-color="#022a4c"/><stop offset="0.1923" stop-color="#013964"/><stop offset="0.5001" stop-color="#005792"/><stop offset="0.6055" stop-color="#025b95"/><stop offset="0.7087" stop-color="#08679f"/><stop offset="0.811" stop-color="#117aaf"/><stop offset="0.9122" stop-color="#1e96c5"/><stop offset="1" stop-color="#2db4dd"/></linearGradient><clipPath id="clip-path-2"><path class="cls-1" d="M27.88984,34.38788c1.60365,1.24959,2.81159.58314,4.06118-.35406,0,0-.125.125-.37487.33323a55.47359,55.47359,0,0,0,6.70616-7.24765c-1.562-.9372-3.124-1.8744-4.39441-2.62416Z"/></clipPath><linearGradient id="Безымянный_градиент_10" x1="-986.23349" y1="-1097.95845" x2="-985.46609" y2="-1097.95845" gradientTransform="matrix(41.3342, -25.9672, 25.9638, 41.3396, 69292.30103, 19817.77409)" gradientUnits="userSpaceOnUse"><stop offset="0" stop-color="#022a4c"/><stop offset="0.2294" stop-color="#013c66"/><stop offset="0.5322" stop-color="#014f81"/><stop offset="0.7992" stop-color="#005b92"/><stop offset="1" stop-color="#005f98"/></linearGradient><clipPath id="clip-path-3"><path class="cls-1" d="M6.29266,8.97943a1.5664,1.5664,0,0,1-.3124,0,1.01727,1.01727,0,0,0-.37488.18743c-5.4774,3.22813,10.809,29.303,18.03583,34.1348a5.54027,5.54027,0,0,0,4.43607.87472,3.297,3.297,0,0,0,.62479-.39571c.02083-.04165,4.81095-5.58152,4.81095-5.58152-.06248-.43736-.49984-.18744-.56232-.14579-1.85357,1.35373-3.49887.604-8.51808-4.49855-5.35244-5.43574-10.53826-14.93267-10.53826-14.93267L37.99074,29.4728a2.7919,2.7919,0,0,0,2.95738,0c.125-.08331,4.49854-5.33161,4.49854-5.33161.02083-.35406-.37487-.16661-.37487-.16661-1.39539.87472-2.47837.22909-4.74847-.68728-1.54116-.62479-17.68178-7.74749-23.42992-10.47578C9.52079,9.31266,7.47978,8.9586,6.58424,8.9586a1.58345,1.58345,0,0,1-.29158.02083"/></clipPath><linearGradient id="Безымянный_градиент_9" x1="-995.03557" y1="-1085.87323" x2="-994.2682" y2="-1085.87323" gradientTransform="matrix(-36.826, -38.8116, 38.8065, -36.8308, 5529.82266, -78573.78992)" gradientUnits="userSpaceOnUse"><stop offset="0" stop-color="#022a4c"/><stop offset="0.02255" stop-color="#022f54"/><stop offset="0.1375" stop-color="#014576"/><stop offset="0.2324" stop-color="#00528a"/><stop offset="0.2951" stop-color="#005792"/><stop offset="0.3721" stop-color="#07669e"/><stop offset="0.6081" stop-color="#1c90c0"/><stop offset="0.7934" stop-color="#28aad5"/><stop offset="0.9039" stop-color="#2db4dd"/><stop offset="1" stop-color="#2db4dd"/></linearGradient></defs><title>UU</title><g class="cls-2"><polygon class="cls-3" points="16.331 12.624 40.198 -4.433 55.797 17.414 31.909 34.471 16.331 12.624"/></g><g class="cls-4"><polygon class="cls-5" points="22.871 27.661 35.367 19.809 43.322 32.493 30.847 40.323 22.871 27.661"/></g><g class="cls-6"><polygon class="cls-7" points="21.621 67.356 -17.7 25.911 23.995 -13.659 63.316 27.786 21.621 67.356"/></g></svg>