<svg id="Слой_1" data-name="Слой 1" xmlns="http://www.w3.org/2000/svg" viewBox="0 0 52 52"><defs><style>.cls-1{fill:#0970cb;}</style></defs><title>UX</title><path id="path3445" class="cls-1" d="M21.22065,34.21671c-.70942-4.56925.5422-9.27211,1.63819-12.56384,2.25238-5.54248,1.16713-11.03891-5.06257-8.31356-1.77291.816-4.4827,3.62919-5.73183,5.98013C8.21177,26.57038,9.50711,37.531,14.22488,37.60011,16.14506,37.5265,18.72063,35.67148,21.22065,34.21671ZM7.84656,42.62588C6.13064,42.07913,3.886,39.674,3.02011,37.45427a23.30726,23.30726,0,0,1,.13235-14.05452C5.27892,17.27955,9.911,11.89319,14.40879,10.16219,18.53834,8.58045,24.92105,8.4904,29.1019,13.01858A16.48941,16.48941,0,0,1,39.85583,8.95666C46.52033,8.66238,50,11.34641,50,16.36668a8.6341,8.6341,0,0,1-2.98492,5.71948c-1.91476,1.55111-13.81927,9.0337-14.39033,9.0337l-.03318-3.53094,3.51363-2.48008c4.52883-3.1967,6.06552-4.858,6.56718-7.0996,1.28227-5.72977-4.65954-7.33176-9.05617-2.44166-4.41964,4.91573-6.0711,15.173-3.22786,20.04826,2.18583,3.748,6.52149,2.586,13.37611-1.48323l2.639-1.69274,1.86451,2.6006a68.699,68.699,0,0,1-8.17,6.01836,15.01039,15.01039,0,0,1-7.6661,1.9853c-5.25941-.08379-8.58286-1.45659-10.1337-5.09122-.12123-.01086-1.3513.99532-2.899,2.03638C15.85936,42.36234,11.50665,43.85256,7.84656,42.62588Z"/></svg>