<svg id="Слой_1" data-name="Слой 1" xmlns="http://www.w3.org/2000/svg" viewBox="0 0 52 52"><defs><style>.cls-1{fill:#db2340;}.cls-2{fill:#d22e4b;}.cls-3{fill:#c9344f;}.cls-4{fill:#facfd8;}.cls-5{fill:#c8324d;}</style></defs><title>V7</title><path class="cls-1" d="M9.9526,33.87864l-.12688-.12687c-.02282-.53546-.04162-.55431-.57208-.57394l.00375.00379v-.42689H8.8311l.0053.00384L8.68789,32.613l.00675.0063-.148-.14725.00676.00652-.147-.1477.00607.00581-.14686-.14709.00611.00586-.14845-.1462.00448.00574v-.4289H7.692l-.12711-.12513-.18405-.764-.42321.10927-.02207-.02079c.16989-.43325-.15463-.31409-.36379-.32383l.00525.00384-.14848-.14562.00675.00631-.14806-.14726.00677.00652-.147-.1477.00607.00581-.14686-.14709.00611.00586-.14845-.1462.00447.00574v-.4289H5.43267l-.12711-.12513-.18406-.764-.4232.10928-.02207-.02079c.1699-.43326-.15464-.31408-.36379-.32383l.00525.00384-.14848-.14562.00675.00631-.14806-.14726.00676.00652-.14695-.1477.00606.00581-.14685-.1471L3.753,27.689l-.14845-.1462.00447.00574v-.42878H3.173l-.12625-.12271L2.8991,26.8383l.00631.00643L2.759,26.69751l.00539.00515-.14568-.14683L2.624,26.561l-.14692-.146.00368.00478-.14463-.73428-.00421.0059.14837-.14607L2.4747,25.551l.146-.14769-.0056.00656.14934-.15565.12211-.12693h.43981v-.42581l-.00384.00537.14838-.145-.0052.00541.14559-.147-.0053.0055.145-.14813-.0055.00581.1489-.14422-.00526.0055.14516-.148-.0057.00589.14846-.14494-.00543.00586.1464-.15877.12457-.12294.15754-.14773-.00531.00383h.42755v-.42461l-.00347.00492.14539-.14777-.005.00363h.42684v-.42564l-.00418.00564.14809-.14579-.00545.00565.14591-.1471-.00543.00564.1452-.14817-.00556.00586.149-.14418-.00527.0055.14516-.148-.0057.00589.14846-.14495L6.431,21.6103l.1464-.15877.12457-.12294.15754-.14773-.00531.00383h.42755v-.42461l-.00347.00491.1454-.14776-.005.00363h.42685v-.42564l-.00419.00564.14809-.14579-.00545.00565.14591-.1471-.00544.00564.14521-.14817-.00556.00586.149-.14418-.00526.0055.14515-.148-.0057.00589.14846-.14495-.00542.00586.14652-.1585.12455-.12311.15807-.14632-.00445.003c.52735-.02134.54742-.04147.56581-.56755l-.00366.00511.14776-.14595-.0058.006.1452-.1488-.00583.00616.148-.14613-.006.00625.147-.14773-.00559.00448.544.04321c-.0141.356-.32131.74186.17387.9562l.00089.00346c.041.13544-.10888.37015.19336.36969l-.03926.02554.04007-.02757c-.045.21593.11317.18021.23537.18907l-.00127-.00126c.00481.33461.24.50032.46951.71883.09276-.17617.21177-.29793.21321-.42107.01453-1.23452.00973-2.46926.01037-3.70394l.12141-.12423.45523.05011c0,.258,0,.48541,0,.71279-.0002,1.22883-.00464,2.45769.004,3.68647.00128.18239-.11619.44405.21527.49494l.06472.132c.00853.12212-.02989.28112.18836.23853l-.03665.04546.03511-.0451.23524.18932-.00015-.00016c-.01514.20916.08269.3001.29042.276l-.00283-.00392.0964.27394.15138.00008a7.58254,7.58254,0,0,0,.16174-1.04774c.021-1.11969.01705-2.24011.00547-3.36007-.0116-1.12256-.04394-2.24491-.06718-3.36735l.01952-.02275.47545.15359c0,.36164-.01657.70764.01048,1.05021.00773.098.14181.18608.218.2787l.00031,4.77943-.20243.14525.20256.14533-.00067,1.68118-.22632.09658.21964.60985h.34506l-.0008-.00073c-.01756.20438.07557.29973.28135.28415l-.00062-.00062.065.22005.07976-.0856.14123.00629.046-.13162.00813-.56718.19817-.1472-.20281-.143-.0008-.97756a.77987.77987,0,0,0,.00021-1.13454l.00016-5.76625a.4973.4973,0,0,0,0-.85259l.00037-1.119.64308-.4946a12.04974,12.04974,0,0,1,.14411,1.26632c.01029,3.51329.00609,7.02662.0063,10.53995a2.39178,2.39178,0,0,0,.01466.5591c.02343.09532.172.16.26411.23857l.002.002.19144.22661-.00459.035.01527-.03185c-.14457.39059.15268.31214.35594.33347l.15663.119.08529.09656.03526-.0997-.00677-.00226c.30238-.16791.15373-.45544.15427-.68041.01067-4.44447.01756-8.889-.00369-13.33341a1.73881,1.73881,0,0,1,.59459-1.4182,2.71659,2.71659,0,0,0,.39435-.61408l-.00317.00639.14686-.14659-.006.00654.14673-.15939.12439-.1225.15866-.14649-.00556.00551.14575-.14707-.00536.00556.14511-.14816-.00552.00583.14894-.14419-.00525.0055.14516-.148-.00571.0059.14846-.145L19.987,8.0911l.14639-.15877.12457-.12294.15754-.14774-.0053.00383h.42754V7.24087l-.00347.00492.1454-.14776-.005.00363h.42684V6.676l-.00418.00564.14809-.14578L21.54,6.54152l.14591-.1471-.00543.00563.1452-.14816-.00556.00586.149-.14419-.00526.00551.14516-.148-.00571.00589.14846-.14494-.00542.00587.14639-.15877.12457-.12294.15754-.14774-.0053.00383h.42755V4.98767l-.00348.00492.1454-.14776-.005.00363h.42685V4.42281l-.00418.00564.14808-.14578-.00545.00564.14591-.14709-.00543.00563.1452-.14816-.00556.00586.149-.14419-.00526.00551.14516-.148-.00571.00589.14846-.14494-.00542.00586.14647-.1586.12462-.123.15754-.14777-.00608.0062.14614-.14817-.0062.00641.14618-.14854-.00613.00639.1512-.14147-.00431.00451.1445-.159.12528-.12318.15571-.14909-.00517.00374.563.02063.00871.00839.19132.22968-.039.00064.03881-.00594v.44081l.50587.03058.0086.00966.18982.2315-.04043.00794.03886-.01388c-.0549.33795.083.48137.425.419l-.00539.00568.143.14126.00468-.00459c-.08963.36645.1962.36963.42055.43231l-.02306.02826.016-.03273.14591.14137-.02711.03648.02452-.03775.14439.14123.00358-.00422c-.06758.25608.02439.35163.28358.28019-.05657.33834.08236.48035.42279.4213l-.00541.00623.14253.14148-.0276.037.02528-.038.14315.14308-.026.03633.02311-.03776.14346.14349-.02659.03459.02323-.03669.14378.14351-.02612.03384.02272-.036.14645.139-.02888.03549L29.92,5.951l.143.14126.00467-.00459c-.08963.36645.19621.36963.42055.43231l-.02306.02826.016-.03273.14591.14137L30.6,6.69333l.02448-.03775.14439.14123.00358-.00422c-.06757.25607.02439.35163.28358.28019-.05657.33834.08235.48035.42279.4213l-.00541.00622.14253.14149-.0276.037.02528-.038.14315.14309-.026.03632.02313-.03776.14347.14349-.02658.03459.02321-.03669.14379.14351-.02613.03384.02273-.036.14644.139-.02887.03549.02735-.03556.143.14126.00513-.00456c.04254.4422.11683.51688.56179.56479l-.00589.00347.14487.14043-.02783.03607.026-.03641.14277.14233-.02629.03682.02357-.03808.14408.14156.00421-.00459L33.2695,9.719l.75184.31828-.0359-.00219.036-.00356c-.14094.38729.34171.46867.38295.829,0,4.47835-.0019,9.01724.00532,13.55611a4.37692,4.37692,0,0,0,.11952.72043l.01623.15372c.07271.04276.19283.13712.211.12052.25966-.23728.50553-.48955.75472-.7382l-.09573-.09107q-.00257-5.35559-.00368-10.71117c0-.13883.02144-.27767.03289-.4165l.2034-.11333-.20373-.17583v-.5555l.38524-.42321h.386a.066.066,0,0,1,.04829.07249,4.8323,4.8323,0,0,0-.13549.81071c-.00133.31864.102.63723.10556.95645.01368,1.21668.02813,2.43414-.001,3.65028a18.4093,18.4093,0,0,1-.12354,3.55551,1.7477,1.7477,0,0,0,.06887.54372c.0141.11149.062.24207.02263.3331a1.83412,1.83412,0,0,0,.13978,1.51582c.2611-.2358.78193-.06148.72344-.625l-.00466.00908.45094-.33137c0-2.569,0-5.0653,0-7.56165,0-.30334.01328-.60743-.00391-.90979-.01372-.24132.10678-.33554.31746-.36825l-.0132.01712.14527.1401-.00273-.00218.14424.14314.01476-.0129q-.01781,3.57045-.02945,7.14094c-.00013.07049.09106.14115.13967.21174.08719.02208.21711.09142.25417.05808a5.56352,5.56352,0,0,0,.43867-.48345l.00275-.00273.26639-.41974.00225-3.09307.00007-.84536.00073-1.12516.00117-.14238c.115-.20064.25912-.18179.39071-.03094.19751.2264.37958.4662.60663.748V19.753c.60672-.46653,1.12637-.85756.91843-1.686a2.75779,2.75779,0,0,1,.05513-.827c.50815.27944,8.15263,7.83013,8.84039,8.70493L41.19919,34.6977c-.023-.09749-.06411-.23747-.08626-.38036a.81758.81758,0,0,1,.02584-.20785,1.71512,1.71512,0,0,0-.91688-1.84984v3.39817l-.99283,1.06884V31.19325l-.88152-.83419a7.30266,7.30266,0,0,0-.08726.79594c.00434,2.03926.00213,4.07881.03983,6.11758.01222.66039-.45256.90628-.94536,1.394,0-.41571,0-.66334,0-.911-.00047-2.62642-.00571-5.25286.0044-7.87924a1.138,1.138,0,0,0-.28749-.892l-.14694-.16719.00548.00488-.16805-.146-.2403-.17848-.13055-.244-.19132.0306a100.40074,100.40074,0,0,0,.068,11.38235l-.00124.00746a1.28679,1.28679,0,0,1-.81956-.31453c-.01236-.16177-.03538-.32354-.03549-.48532q-.00315-4.58028,0-9.16054c.00011-.16195.02191-.32387.03361-.48581a.64931.64931,0,0,0,.09043-.008q.29939-.2077.00019-.41567a.59356.59356,0,0,0-.09-.00851l.00056-.69612.20231-.14345-.2018-.14381L35.44,27.5269l.09269-.13382c-.03342-.467-.42286-.67533-.66593-.98324l-.50145.18385v14.632a35.4675,35.4675,0,0,1-2.49574,2.52974c-.932.7823-1.58054,1.83225-2.54847,2.55359-.95666.71295-1.50141,1.82941-2.546,2.44071l.04628.36971-.04214-.03727.04038.0393-.76974.32859-.55425-.07865.00423.00295-.14674-.145.005.0047-.14531-.14612.00457.00446-.14518-.14576.00262.00358c-.05954-.4868-.224-.64976-.71079-.70447l.00541.00394-.14617-.14676.005.00473-.14576-.146.005.00481-.14751-.14547.004.00519v-.42784h-.4347l-.12839-.12652v-.74058l-.607.0826-.01893-.01758c-.0309-.40429-.19467-.55634-.65023-.60369l.0054.00393-.14617-.14676.005.00473-.14576-.146.005.00481-.14751-.14547.00395.00519v-.42784h-.43471l-.12838-.12653V44.278l-.607.0826-.01893-.01758c-.0309-.40429-.19467-.55634-.65023-.60369l.00539.00393-.14616-.14677.005.00474-.14576-.146.005.0048-.14752-.14546.004.00519v-.42771h-.435l-.13065-.1261.47527-.64243-.18755-.19578-.34.32055-1.08985-1.09452V26.42238c-.67868-.05517-.97009.54287-1.58364.7123l.27662.20084c-.02722.30046-.07655.59484-.07708.88932q-.00837,4.67542-.0011,9.35088c.00022.20776.03283.41549.05035.62323a9.56127,9.56127,0,0,1,.07528,1.03667c-.00368.14554-.14119.28772-.29094.5684-.13474-.2947-.275-.45047-.24671-.5649.14791-.59931-.10616-1.18715-.01713-1.78055.02542-.16942.01093-.33786-.22547-.35224l-.00127-.69855c.38-.06411.221-.36505.22227-.562.01192-1.82674.007-3.65358.007-5.48039,0-.445.00733-.89014-.00189-1.33494-.00665-.32089-.01638-.32069-.27764-.51711l-.14249.01984-.09953-.07774.01965.10816-.01433.01767c-.47818.0229-.55076.10007-.61043.6491l-.0555,1.25654a.779.779,0,0,0,.00045,1.134l.00316,6.18863-.65783-.07464c0-.30241,0-.53028,0-.75815.00009-1.7768.00658-3.55363-.00419-5.33036a2.29269,2.29269,0,0,0-.29932-1.29.74665.74665,0,0,0-.11452.0053c-.06946-.04265-.1814-.13718-.20213-.1203-.41924.34138-.8403.68249-.7946,1.31234.022.3028.00382.60849.00386.91287q.00018,1.65066-.00073,3.30132c-.00047.22254.07506.49752-.29642.50866l.005.00316-.14631-.14721.00549.0053-.14724-.14617.00441.00515c.00343-.64908.01032-1.29816.00933-1.94724-.001-.66069-.00979-1.32136-.01539-2.01008-.4416.03914-.74262.1029-.68815.5647l.00039-.00039-.72783.18548.08092,1.4746-.35924.0415.00345.00353v-.4303Zm14.9685-17.034.00717.008-.15123-.14507.00721.00687-.14817-.14788L24.64,16.572V16.1781l-.56148-.13614c-.043.38637-.11186.74539-.11757,1.10541-.01547.97487-.00413,1.95017-.00342,2.92529l.00072-.00075-.59782-.05675v-5.135h-.41759l.00524.00388-.14793-.14792.00691.00657-.14474-.15087.00395.00795-.15887-.53652-.23614.39984a.13025.13025,0,0,1-.01635.1136c-.48577.069-.226.41136-.23262.64847-.0088.31377.00946.62823.00428.9422-.00264.1607-.04421.32088-.04543.48147-.00532.70055.04529,1.40532-.01573,2.1006-.06038.688.33435,1.36478.02017,2.05085-.02328.05085.02092.13329.03588.20057.15424.69375.03858.843-.69491.89567l.00025-6.18944.20063-.14413-.20073-.14388.00015-.839c.32476-.23411.32478-.47561.00005-.70971l-.02977-.56221.07169-.09293-.12227-.02893.0093.00574-.1505-.14529.00689.00673-.14723-.14872.0071.00688-.15018-.14539.00668.00645-.14675-.1488.00818.00678-.17294-.14481a7.594,7.594,0,0,0-.08816.82188q-.00949,4.82031-.0043,9.64063,0,.34939,0,.69879l-.1112-.07286-.87687.99912c0-.34,0-.59519,0-.85036q-.00114-5.77029-.00367-11.54056c-.00017-.23343-.02-.46684-.03067-.70027l-.10855-.13936-.14568-.14314-.13855-.13483-.1454-.14571-.28737-.28379-.09511.06335.05371.2337c-.0158.162-.04525.32395-.04538.48594q-.00452,5.879-.00145,11.75795c.0001.186.02769.372.04248.55793-.00915.015-.02716.03087-.02566.04467a.50822.50822,0,0,0,.02555.09l.00585,1.25592-.11455.5581.0012-.0019-.23175.24227.32812,1.03877.01036,1.42255-.00055.26814c-.01454.185-.04165.37005-.04177.55508q-.00372,5.63751.0002,11.275c.00013.18444.03058.36885.04691.55327v.38572l.32981-.37241.4269-.42809.10856-.13563a1.29547,1.29547,0,0,0,.03256-.2062q-.004-6.30293-.01144-12.60584l.00853-.13873a1.16019,1.16019,0,0,1,.99529,1.3473q.00172,5.24212-.00078,10.48425l.10517.27054.14472.01279.15319-.45311-.00287.00735.14526-.14859-.00646.00258c.36438-.14109.6066-.41922.57054-.69248-.00695-.05268-.13617-.08933-.209-.13336-.01126-.53857-.03365-1.07717-.03171-1.61569.00616-1.712.02138-3.42405.0331-5.13607l.201-.14524-.20161-.14449-.00093-.55613.22453-.18252-.22594-.24675.00374-.41555.50965-.0035.00009.00008c.00358.09284-.03119.22153.01693.27272a1.53259,1.53259,0,0,1,.26394,1.17977c.001,1.83878-.00413,3.67759.00656,5.51631a3.16982,3.16982,0,0,0,.134.63616.141.141,0,0,1,.01363.11446c.13685.32382.28151.39875.42575.19646a2.77742,2.77742,0,0,0,.25139-.61478l-.00436.00463a.34323.34323,0,0,0,.43858-.3308,4.16437,4.16437,0,0,0,.00578-.49136c.00038-1.38179-.00238-2.7636.00375-4.14537.00093-.21112-.1044-.50439.28442-.51036l-.002-.00182c.00818.11529-.02953.27667.03239.338a1.20643,1.20643,0,0,1,.249.97711c-.00289.72287.00352,1.44581-.00389,2.16863a.91906.91906,0,0,0,.31158.7785l.23489-.3429-.00547.00655.148-.14425-.00543.00615.14846-.14561-.00709.00347c.326.05788.44194-.1876.61379-.43528L25.2437,33.804l.44416-.13016.01166.01825.12985.12392-.00734.04409.01561-.04189c-.01039.279.202.19733.33343.18046a.33056.33056,0,0,0,.30432-.43571l-.0019.00368.30578.11876c0,.36514-.00021.69178.00006,1.01842.00023.28315.1333.43637.42656.432l-.00142-.00146c-.01866.20428.07424.29974.27981.28528l.00044.00045.08227.38557.2044-.11678q.05647.002.113.00215c.48485-.36556.289-.869.26376-1.33334-.01107-.20388-.09725-.40678-.09008-.608.02226-.62422.07294-1.24743.11259-1.871l-.00131.00245.145-.14759-.00708.00345.43885-.03943v5.3257c.20125.12973.27125.46524.62228.30743l.012.01268c-.11247.27395.01417.39419.30423.4641l.06072-.26686.00944-.0099a3.39549,3.39549,0,0,0,.25581-.58558c.01636-.066-.1368-.17388-.21241-.2626l-.00074-.97758c.076-.06921.21755-.13771.21832-.20775q.02022-1.8379,0-3.67606c-.00077-.07025-.142-.139-.21789-.20838l.00063-.41354c.07581-.0899.20912-.17525.21671-.27056a8.80106,8.80106,0,0,0-.00805-.8819L30.004,30.051l.14623-.148-.00609.00649.14656-.14818-.00474.00278c.34864.026.30928.25046.28344.50191a7.12323,7.12323,0,0,0-.05779,1.18149,22.57609,22.57609,0,0,1-.04723,4.72361,1.86248,1.86248,0,0,0,.02236.833,2.25951,2.25951,0,0,1-.02425,1.44583l.25974.21879.20288.218-.052.0167.05288-.012c-.04787.21592.11149.17848.23191.18863l-.00081-.0007.14168.142-.00063-.00071c.04536.338.1002.38995.286.27067l.087-.14.01137-.27056c.01292-.25512.03685-.51023.03707-.76536q.00351-3.9546-.00081-7.90917c-.00088-.67575-.017-1.35147-.026-2.02721l.73434-.85131.19346-.01144.029.44248c-.00964.01493-.0283.03066-.02707.04464a.51233.51233,0,0,0,.02412.09156l.00444.85029c-.00995.01477-.02925.03042-.02795.04414a.49281.49281,0,0,0,.025.09072c-.01353.16205-.03876.3241-.03887.48617q-.00342,5.15086.00022,10.30175c.00012.16152.02894.323.04439.48454-.01389.01821-.04306.04753-.03919.05281a.96775.96775,0,0,0,.08848.096l.40013.42949.43627.50708V40.908c.00545-.23424.01551-.46848.01566-.70272q.00425-6.89671.00643-13.79341l.128-.14934.27087-.37188-.14429-.17393.005.00679c.03552-.28667-.16274-.53433-.032-.86979a3.28519,3.28519,0,0,0,.04894-1.13662q.00227-6.22325.00072-12.44647v-.71452l-.77486-.15689-.21417.79582-.001.00091-.234.18976-.04129-.01133.04147.01483-.11363.002.11089.08679-.028.28083c-.29314.17824-.14824.46529-.14894.69627q-.01613,5.29053-.00759,10.58112v.79l-.44794.06693.00561.00386-.14944-.14639.004.00544q.01144-5.42812.01739-10.85625c0-.09837-.08155-.19676-.12508-.29514l-.13832-.13444-.26984.16623.0054-.00444-.172.25682.00072-.00077c-.20458-.016-.29979.07731-.2836.28206l.0009-.0009c-.06814.01329-.19162.01649-.19617.04136a11.51886,11.51886,0,0,0-.19595,1.27379c-.01686.2442.10145.49526.1026.74349.0093,2.00447.00613,4.009.00383,6.01353-.00023.20349-.01983.407-.03244.64865h-.52212l-.1372-.14146-.10921-.40624.00863-.28356c.07645-.09244.21873-.18431.21954-.2774q.02019-2.33065-.0008-4.66151c-.00084-.09357-.14192-.1859-.21775-.2788l.00144-.55619c.31378-.247.31513-.45487.00463-.70892l-.20275-.15276c-.09266-.01774-.21956-.08268-.27193-.0449-.20405.14725-.38448.327-.59691.51532v5.39618l-.28343.08383.00519.00266-.145-.15082.00907.00819c-.04272-.29412-.10777-.587-.12419-.88257-.06139-1.10472-.10686-2.21031-.1592-3.33483-.4849-.06-.5712.18514-.54965.53374l.00076-.00082c-.5002.07949-.6711.24577-.70338.7319-.01951.29384-.00359.59-.00359.91285l-.44732.06529.00692.00388-.17389-.14514a.088.088,0,0,1-.09327-.02871l-.07444-.31012-.516.3723-.374-.195-.003-.42141.25805-.21568-.26617-.20882a.08744.08744,0,0,1-.03052-.09209Z"/><path class="cls-2" d="M15.6776,37.10633c.2364.01438.25089.18282.22547.35224-.089.5934.165,1.18124.01713,1.78055-.02824.11443.112.2702.24671.5649.14975-.28068.28726-.42286.29094-.5684a9.56127,9.56127,0,0,0-.07528-1.03667c-.01752-.20774-.05013-.41547-.05035-.62323q-.005-4.67544.0011-9.35088c.00053-.29448.04986-.58886.07708-.88932l-.27662-.20084c.61355-.16943.905-.76747,1.58364-.7123V41.15379l1.08985,1.09452.34-.32055.18755.19578-.47527.64243-1.28772-1.21443V26.54735l-.94045.885V40.47045a3.898,3.898,0,0,1-.95376-.84353Z"/><path class="cls-2" d="M26.82131,49.11941,26.775,48.7497c1.04461-.6113,1.58936-1.72776,2.546-2.44071.96793-.72134,1.61647-1.77129,2.54847-2.55359a35.4675,35.4675,0,0,0,2.49574-2.52974v-14.632l.50145-.18385c.24307.30791.63251.51628.66593.98324q-.06435-.00085-.12869-.00258l-.83024-.78322V41.478c-.2505.25141-.49568.49875-.74223.74473q-3.26183,3.25433-6.52612,6.50616A5.77261,5.77261,0,0,1,26.82131,49.11941Z"/><path class="cls-2" d="M36.268,39.66646A100.40074,100.40074,0,0,1,36.2,28.28411l.19132-.0306.13055.244a4.734,4.734,0,0,0-.11329.72961c-.00766,3.24325-.00232,6.48653-.011,9.72977A3.96833,3.96833,0,0,1,36.268,39.66646Z"/><path class="cls-3" d="M37.06411,22.99962c.05849.56349-.46234.38917-.72344.625a1.83412,1.83412,0,0,1-.13978-1.51582c.03935-.091-.00853-.22161-.02263-.3331a1.7477,1.7477,0,0,1-.06887-.54372,18.4093,18.4093,0,0,0,.12354-3.55551c.02914-1.21614.01469-2.4336.001-3.65028-.00359-.31922-.10689-.63781-.10556-.95645a4.8323,4.8323,0,0,1,.13549-.81071,2.1845,2.1845,0,0,1,.1329.51383q.03737,3.54271.05382,7.08565c.006,1.05215.00154,2.10436.006,3.15652a1.99618,1.99618,0,0,0,.05891.315Z"/><path class="cls-3" d="M18.719,9.35133a2.71659,2.71659,0,0,1-.39435.61408,1.73881,1.73881,0,0,0-.59459,1.4182c.02125,4.44439.01436,8.88894.00369,13.33341-.00054.225.14811.5125-.15427.68041q.00834-6.64486.0154-13.28972c.0004-.53844-.01669-1.07689-.02567-1.61534C17.85816,10.01751,18.093,9.4884,18.719,9.35133Z"/><path class="cls-3" d="M13.76576,30.35642a2.29269,2.29269,0,0,1,.29932,1.29c.01077,1.77673.00428,3.55356.00419,5.33036,0,.22787,0,.45574,0,.75815l.65783.07464.03886.76562-.099.06992-.75978-.99127-.14144.09137Z"/><path class="cls-3" d="M16.749,24.71869c-.09211-.07853-.24068-.14325-.26411-.23857a2.39178,2.39178,0,0,1-.01466-.5591c-.00021-3.51333.004-7.02666-.0063-10.53995a12.04974,12.04974,0,0,0-.14411-1.26632l-.64308.4946c-.04361-.66182.38464-.93781.92352-1.12334.00593.25779.017.51558.017.77337q.00132,5.80431.00535,11.60861a4.56842,4.56842,0,0,0,.117.72865Q16.74626,24.65751,16.749,24.71869Z"/><path class="cls-3" d="M34.5292,25.13708a4.37692,4.37692,0,0,1-.11952-.72043c-.00722-4.53887-.00532-9.07776-.00532-13.55611-.04124-.36037-.52389-.44175-.38295-.829l.52954.41815v1.16q.00011,6.48426-.00072,12.96853C34.55018,24.76446,34.53652,24.95077,34.5292,25.13708Z"/><path class="cls-2" d="M15.62612,28.51334c.26126.19642.271.19622.27764.51711.00922.4448.00191.88994.00189,1.33494,0,1.82681.00487,3.65365-.007,5.48039-.00128.197.15772.49789-.22227.562-.01289-.53442-.035-1.06881-.037-1.60327Q15.62753,31.65893,15.62612,28.51334Z"/><path class="cls-3" d="M13.99987,14.10733c.02324,1.12244.05558,2.24479.06718,3.36735.01158,1.12.01557,2.24038-.00547,3.36007a7.58254,7.58254,0,0,1-.16174,1.04774l-.15138-.00008-.09641-.27394a3.403,3.403,0,0,0,.124-.63844c.0094-2.07243.00038-4.145.0132-6.21735C13.79057,14.53229,13.63277,14.2234,13.99987,14.10733Z"/><path class="cls-3" d="M12.36122,36.27661c.37148-.01114.296-.28612.29642-.50866q.00345-1.65064.00073-3.30132c0-.30438.0181-.61007-.00386-.91287-.0457-.62985.37536-.971.7946-1.31234.02073-.01688.13267.07765.20213.1203l-.769.85879v5.43284l-.13165.05382Z"/><path class="cls-3" d="M12.87784,20.7763c-.33146-.05089-.214-.31255-.21527-.49494-.00863-1.22878-.00419-2.45764-.004-3.68647,0-.22738,0-.45476,0-.71279l-.45524-.05011.54028-.58373.13422.059Z"/><path class="cls-3" d="M37.824,13.83764c-.21068.03271-.33118.12693-.31746.36825.01719.30236.00391.60645.00391.90979,0,2.49635,0,4.9927,0,7.56165l-.45094.33137a1.73435,1.73435,0,0,0,.2976-1.10928c-.01415-2.59693-.00721-5.194-.00723-7.791v-.793l.48344.40671A.5882.5882,0,0,0,37.824,13.83764Z"/><path class="cls-3" d="M11.38839,32.60422c-.05447-.4618.24655-.52556.68815-.5647.0056.68872.01438,1.34939.01539,2.01008.001.64908-.0059,1.29816-.00933,1.94724-.31113-.145-.2249-.43054-.22671-.67373-.00732-.98037-.003-1.96082-.003-3.01025Z"/><path class="cls-3" d="M12.08194,15.95622c-.00064,1.23468.00416,2.46942-.01037,3.70394-.00144.12314-.12045.2449-.21321.42107-.22952-.21851-.4647-.38422-.46951-.71883l.4625.29733c0-1.05459-.0034-2.03679.00237-3.01894C11.85517,16.39255,11.78557,16.11087,12.08194,15.95622Z"/><path class="cls-3" d="M38.22251,21.4756c-.04861-.07059-.1398-.14125-.13967-.21174q.00666-3.5705.02945-7.14094a.89823.89823,0,0,0,.11619.005l.07636,1.29654c-.00942.01511-.028.03128-.0264.04514a.50269.50269,0,0,0,.02671.09062c-.01472,1.546-.03213,3.092-.04168,4.63806-.00172.27906.02889.55833.04458.83751Z"/><path class="cls-3" d="M14.72328,15.56708c-.07615-.09262-.21023-.1807-.218-.2787-.027-.34257-.01048-.68857-.01048-1.05021l-.47545-.15359.70389-.86576Z"/><path class="cls-3" d="M10.38263,34.30541l.35924-.0415-.08092-1.4746.72783-.18548-.4214.54736v1.804Z"/><path class="cls-3" d="M36.21558,12.18651h-.386l-.38524.42321V11.35049Z"/><path class="cls-3" d="M10.95969,18.80347c-.49518-.21434-.188-.60022-.17387-.9562l-.544-.04321.71788-.78405Z"/><path class="cls-2" d="M35.44719,39.35939a1.28679,1.28679,0,0,0,.81956.31453l-.60886.66642-.2076-.12442-.00368-.29848c.01574-.01177.04666-.0286.04469-.03447a.60964.60964,0,0,0-.04528-.09021Z"/><path class="cls-2" d="M25.49556,49.37138l.55425.07865.76974-.32859L26.07021,50Z"/><path class="cls-3" d="M35.41542,24.58205l.09572.09107c-.24919.24865-.49506.50092-.75472.7382-.01816.0166-.13828-.07776-.211-.12052Z"/><path class="cls-3" d="M14.72394,31.62093a.779.779,0,0,1-.00045-1.134Z"/><path class="cls-3" d="M15.67621,20.34715a.77987.77987,0,0,1-.00021,1.13454Z"/><path class="cls-4" d="M38.22251,21.4756l.08554-.43983.6073.01446a5.56352,5.56352,0,0,1-.43867.48345C38.43962,21.567,38.3097,21.49768,38.22251,21.4756Z"/><path class="cls-2" d="M20.51443,44.36064l.607-.0826v.74057Z"/><path class="cls-2" d="M22.77377,46.61384l.607-.0826v.74058Z"/><path class="cls-3" d="M34.02134,10.03725,33.2695,9.719l.04521-.39171Z"/><path class="cls-3" d="M4.6983,28.593l.4232-.10928.18406.764Z"/><path class="cls-3" d="M6.95764,30.84618l.42321-.10927.18405.764Z"/><path class="cls-3" d="M15.67635,13.72831a.4973.4973,0,0,1,0,.85259Z"/><path class="cls-3" d="M14.779,29.23037c.05967-.549.13225-.6262.61043-.6491Z"/><path class="cls-2" d="M24.36394,48.24576c.48683.05471.65125.21767.71079.70447Z"/><path class="cls-3" d="M15.06143,23.0247h-.34506l-.21964-.60985.22632-.09658Z"/><path class="cls-2" d="M19.84527,43.73937c.45556.04735.61933.1994.65023.60369Z"/><path class="cls-3" d="M32.88922,8.90566c-.445-.04791-.51925-.12259-.56179-.56479Z"/><path class="cls-2" d="M22.10461,45.99257c.45556.04735.61933.1994.65023.60369Z"/><path class="cls-3" d="M9.25364,33.17783c.53046.01963.54926.03848.57208.57394Z"/><path class="cls-3" d="M27.04419,3.03791l-.50587-.03058V2.56652Z"/><path class="cls-3" d="M2.33615,25.68546l.14463.73428L2,26.02789Z"/><path class="cls-3" d="M9.68081,18.36465c-.01839.52608-.03846.54621-.56581.56755Z"/><path class="cls-3" d="M29.21949,5.24088c-.34043.05905-.47936-.083-.42209-.42074Z"/><path class="cls-3" d="M27.666,3.69209c-.34194.06241-.47987-.081-.425-.419Z"/><path class="cls-3" d="M31.47883,7.49408c-.34044.05905-.47936-.083-.42209-.42074Z"/><path class="cls-3" d="M7.84551,20.19522v.42564H7.41866Z"/><path class="cls-3" d="M21.40155,6.676v.42565h-.42684Z"/><path class="cls-3" d="M20.83776,7.24087v.42461h-.42754Z"/><path class="cls-3" d="M3.32631,24.70144v.42581H2.8865Z"/><path class="cls-3" d="M5.58616,22.44842v.42564H5.15932Z"/><path class="cls-3" d="M3.173,27.11979h.43606v.42878Z"/><path class="cls-3" d="M5.02237,23.01328v.42461H4.59482Z"/><path class="cls-3" d="M5.43267,29.37287h.43572v.4289Z"/><path class="cls-3" d="M7.692,31.62607h.43573v.4289Z"/><path class="cls-3" d="M8.8311,32.75473h.42629v.42689Z"/><path class="cls-3" d="M9.9526,33.87864h.43348v.4303Z"/><path class="cls-3" d="M26.33847,2.33375l-.563-.02063L26.01027,2Z"/><path class="cls-4" d="M39.18681,16.68933l-.00007.84536A.693.693,0,0,1,39.18681,16.68933Z"/><path class="cls-3" d="M28.22884,4.26675c-.22435-.06268-.51018-.06586-.42055-.43231Z"/><path class="cls-3" d="M7.28171,20.76008v.42461H6.85416Z"/><path class="cls-2" d="M18.99018,42.89207h.435v.42771Z"/><path class="cls-3" d="M23.6609,4.42281v.42565h-.42685Z"/><path class="cls-2" d="M21.24979,45.14514h.43471V45.573Z"/><path class="cls-3" d="M23.09711,4.98767v.42461h-.42755Z"/><path class="cls-3" d="M30.48818,6.52c-.22434-.06268-.51018-.06586-.42055-.43231Z"/><path class="cls-2" d="M23.50914,47.39834h.4347v.42784Z"/><path class="cls-4" d="M38.22848,14.1279a.89823.89823,0,0,1-.11619-.005l-.01476.0129-.14424-.14314.00273.00218-.14527-.14011.0132-.01711a.5882.5882,0,0,1,.00931-.11547l.35353.044Z"/><path class="cls-4" d="M39.18448,20.62776l-.26638.41974C38.92931,20.85862,38.87485,20.62828,39.18448,20.62776Z"/><path class="cls-3" d="M17.29793,25.15017q.00862.06658.01113.1337c-.20326-.02133-.50051.05712-.35594-.33347Z"/><path class="cls-3" d="M4.31244,28.24836c.20915.00975.53369-.10943.36379.32383Z"/><path class="cls-3" d="M6.57178,30.50156c.20916.00974.53368-.10942.36379.32383Z"/><path class="cls-3" d="M15.6768,22.45925l.20281.143-.19817.1472Z"/><path class="cls-3" d="M31.05535,7.07221c-.2585.072-.35046-.02355-.28289-.27962Z"/><path class="cls-3" d="M14.72372,20.63709l-.20256-.14533.20243-.14525Z"/><path class="cls-3" d="M35.44429,13.16522l.20373.17583-.2034.11333Z"/><path class="cls-2" d="M35.4471,27.81215l.2018.14381-.20231.14345Z"/><path class="cls-3" d="M28.796,4.819c-.25849.072-.35046-.02354-.28288-.27962Z"/><path class="cls-3" d="M35.53579,29.21971a.64931.64931,0,0,1-.09043.008l.00067-.43219a.59356.59356,0,0,1,.09.00851Z"/><path class="cls-3" d="M35.45029,40.21592l.2076.12442-.23679.21232Z"/><path class="cls-3" d="M13.65489,21.61239c-.20773.02408-.30556-.06686-.29042-.276Z"/><path class="cls-3" d="M11.15394,19.17662c-.30224.00046-.15239-.23425-.19336-.36969Z"/><path class="cls-3" d="M15.342,23.30812c-.20578.01558-.29891-.07977-.28135-.28415Z"/><path class="cls-3" d="M26.5385,2.57182l-.19132-.22968Z"/><path class="cls-3" d="M13.13092,21.14685c-.21825.04259-.17983-.11641-.18836-.23853Z"/><path class="cls-3" d="M11.39012,19.36366c-.1222-.00886-.28042.02686-.23537-.18907Z"/><path class="cls-3" d="M16.94244,24.94725l-.19144-.22661Z"/><path class="cls-3" d="M15.4861,23.44195l-.07976.0856-.065-.22005Z"/><path class="cls-3" d="M13.36462,21.33653l-.23524-.18932Z"/><path class="cls-3" d="M27.24261,3.27907l-.18982-.2315Z"/><path class="cls-3" d="M8.553,19.49029l-.14515.148Z"/><path class="cls-3" d="M8.41308,19.63277l-.149.14418Z"/><path class="cls-3" d="M8.26964,19.77109l-.14521.14817Z"/><path class="cls-3" d="M8.12987,19.91362l-.14591.1471Z"/><path class="cls-3" d="M7.98941,20.05507l-.14809.14579Z"/><path class="cls-3" d="M7.42364,20.61723l-.1454.14776Z"/><path class="cls-3" d="M6.85947,21.18086l-.15754.14773Z"/><path class="cls-3" d="M6.57736,21.45153l-.1464.15877Z"/><path class="cls-3" d="M6.43639,21.60443l-.14846.14495Z"/><path class="cls-3" d="M6.29363,21.74349l-.14516.148Z"/><path class="cls-3" d="M6.15374,21.886l-.149.14418Z"/><path class="cls-3" d="M6.0103,22.02429l-.14521.14817Z"/><path class="cls-3" d="M5.87053,22.16682l-.14591.1471Z"/><path class="cls-3" d="M5.73007,22.30827l-.14809.14579Z"/><path class="cls-3" d="M25.78062,2.30938l-.15571.14909Z"/><path class="cls-3" d="M25.49963,2.58165l-.1445.159Z"/><path class="cls-3" d="M25.35944,2.7361l-.1512.14147Z"/><path class="cls-3" d="M5.16429,22.87043l-.14539.14777Z"/><path class="cls-3" d="M25.21437,2.87118l-.14618.14854Z"/><path class="cls-3" d="M25.07439,3.01331l-.14614.14817Z"/><path class="cls-3" d="M24.93433,3.15528l-.15754.14777Z"/><path class="cls-3" d="M24.65217,3.42609l-.14647.1586Z"/><path class="cls-3" d="M24.51112,3.57883l-.14846.14494Z"/><path class="cls-3" d="M15.67331,23.31662l-.046.13162Z"/><path class="cls-3" d="M4.60013,23.43406l-.15754.14773Z"/><path class="cls-3" d="M4.318,23.70473l-.1464.15877Z"/><path class="cls-3" d="M4.17705,23.85764l-.14846.14494Z"/><path class="cls-3" d="M4.03429,23.99669l-.14516.148Z"/><path class="cls-3" d="M3.89439,24.13917l-.1489.14422Z"/><path class="cls-3" d="M3.751,24.27758l-.145.14813Z"/><path class="cls-3" d="M3.61125,24.42021l-.1456.147Z"/><path class="cls-3" d="M3.47086,24.56183l-.14839.145Z"/><path class="cls-3" d="M24.36837,3.71788l-.14516.148Z"/><path class="cls-3" d="M27.80361,3.839l-.143-.14126Z"/><path class="cls-3" d="M24.22847,3.86036l-.149.14419Z"/><path class="cls-3" d="M24.085,3.99869l-.1452.14816Z"/><path class="cls-3" d="M23.94526,4.14122l-.14591.14709Z"/><path class="cls-3" d="M2.76439,25.25418l-.14934.15565Z"/><path class="cls-3" d="M2.62065,25.40327l-.146.14769Z"/><path class="cls-3" d="M2.48031,25.54529l-.14837.14607Z"/><path class="cls-3" d="M23.8048,4.28267l-.14808.14578Z"/><path class="cls-3" d="M28.36774,4.40365l-.14591-.14137Z"/><path class="cls-3" d="M2.4771,26.415l.14692.146Z"/><path class="cls-3" d="M28.50954,4.54361l-.14439-.14123Z"/><path class="cls-3" d="M2.61873,26.55583l.14568.14683Z"/><path class="cls-3" d="M2.759,26.69751l.14639.14722Z"/><path class="cls-3" d="M23.239,4.84483l-.1454.14776Z"/><path class="cls-3" d="M2.8991,26.8383l.14764.15878Z"/><path class="cls-3" d="M29.35661,5.38859l-.14253-.14149Z"/><path class="cls-3" d="M22.67486,5.40845l-.15754.14774Z"/><path class="cls-3" d="M35.404,27.3905q.06433.00172.12869.00258L35.44,27.5269Z"/><path class="cls-3" d="M3.60458,27.54283l.14845.1462Z"/><path class="cls-3" d="M29.49744,5.5307l-.14315-.14308Z"/><path class="cls-3" d="M3.74692,27.68316l.14685.1471Z"/><path class="cls-3" d="M3.88771,27.82445l.14695.1477Z"/><path class="cls-3" d="M29.638,5.67276l-.14346-.14349Z"/><path class="cls-3" d="M4.0279,27.96563l.14806.14726Z"/><path class="cls-3" d="M4.16921,28.10658l.14848.14562Z"/><path class="cls-3" d="M22.39275,5.67913l-.14639.15877Z"/><path class="cls-3" d="M29.77844,5.81417l-.14378-.14351Z"/><path class="cls-3" d="M15.40375,28.5636l-.01965-.10816.09953.07774A.1244.1244,0,0,1,15.40375,28.5636Z"/><path class="cls-3" d="M22.25178,5.832l-.14846.14494Z"/><path class="cls-3" d="M29.92149,5.951,29.775,5.812Z"/><path class="cls-3" d="M22.109,5.97108l-.14516.148Z"/><path class="cls-3" d="M30.063,6.09223,29.92,5.951Z"/><path class="cls-3" d="M21.96913,6.11356l-.149.14419Z"/><path class="cls-2" d="M36.76214,28.676l.16805.146Z"/><path class="cls-3" d="M21.82569,6.25189l-.1452.14816Z"/><path class="cls-3" d="M21.68592,6.39442l-.14591.1471Z"/><path class="cls-2" d="M36.92471,28.81713l.14694.16719Z"/><path class="cls-3" d="M21.54546,6.53587l-.14809.14578Z"/><path class="cls-3" d="M30.62708,6.65685l-.14591-.14137Z"/><path class="cls-3" d="M30.76888,6.79681l-.14439-.14123Z"/><path class="cls-3" d="M20.97969,7.098l-.1454.14776Z"/><path class="cls-3" d="M5.86392,29.796l.14845.1462Z"/><path class="cls-3" d="M31.616,7.64179l-.14253-.14149Z"/><path class="cls-3" d="M6.00626,29.93637l.14686.14709Z"/><path class="cls-3" d="M6.14705,30.07765l.147.1477Z"/><path class="cls-3" d="M20.41552,7.66166l-.15754.14773Z"/><path class="cls-3" d="M6.28724,30.21883l.14806.14726Z"/><path class="cls-3" d="M31.75678,7.78391l-.14315-.14309Z"/><path class="cls-3" d="M31.89737,7.926l-.14347-.14349Z"/><path class="cls-3" d="M6.42855,30.35978l.14848.14562Z"/><path class="cls-3" d="M20.13341,7.93233,19.987,8.0911Z"/><path class="cls-3" d="M32.03779,8.06737,31.894,7.92386Z"/><path class="cls-3" d="M19.99244,8.08523l-.14846.145Z"/><path class="cls-3" d="M32.18083,8.20424l-.14644-.139Z"/><path class="cls-3" d="M19.84969,8.22428l-.14516.148Z"/><path class="cls-3" d="M32.3223,8.34543l-.143-.14126Z"/><path class="cls-3" d="M19.70978,8.36677l-.14894.14419Z"/><path class="cls-3" d="M19.56636,8.50513l-.14511.14816Z"/><path class="cls-3" d="M19.42661,8.64773l-.14575.14707Z"/><path class="cls-3" d="M19.28642,8.78929l-.15866.14649Z"/><path class="cls-3" d="M33.0282,9.04956l-.14487-.14043Z"/><path class="cls-3" d="M8.12326,32.04923l.14845.1462Z"/><path class="cls-3" d="M19.00337,9.05828l-.14673.15939Z"/><path class="cls-3" d="M8.2656,32.18957l.14686.14709Z"/><path class="cls-3" d="M8.40639,32.33085l.147.1477Z"/><path class="cls-3" d="M8.54659,32.472l.14806.14725Z"/><path class="cls-3" d="M8.68789,32.613l.14851.14559Z"/><path class="cls-3" d="M33.16914,9.19155l-.14277-.14233Z"/><path class="cls-3" d="M18.86268,9.21113l-.14686.14659Z"/><path class="cls-3" d="M33.3105,9.33185l-.14408-.14156Z"/><path class="cls-3" d="M12.07819,35.99169l.14724.14617Z"/><path class="cls-3" d="M12.21994,36.13256l.14631.14721Z"/><path class="cls-3" d="M35.446,39.79276a.60964.60964,0,0,1,.04528.09021c.002.00587-.029.0227-.04469.03447A.09291.09291,0,0,1,35.446,39.79276Z"/><path class="cls-4" d="M38.30515,15.5602a.50269.50269,0,0,1-.02671-.09062c-.0016-.01386.017-.03.02641-.04514a.53784.53784,0,0,1,.03141.09413C38.33814,15.53054,38.31622,15.54622,38.30515,15.5602Z"/><path class="cls-4" d="M39.18871,15.42179l-.00117.14238Z"/><path class="cls-2" d="M19.4212,43.31459l.14752.14546Z"/><path class="cls-2" d="M19.5637,43.45525l.14576.146Z"/><path class="cls-2" d="M19.7045,43.59653l.14616.14677Z"/><path class="cls-3" d="M10.2474,17.79958l-.147.14773Z"/><path class="cls-3" d="M10.10644,17.94106l-.148.14613Z"/><path class="cls-3" d="M9.96431,18.081l-.1452.1488Z"/><path class="cls-2" d="M21.68055,45.56779l.14751.14547Z"/><path class="cls-2" d="M21.823,45.70845l.14576.146Z"/><path class="cls-2" d="M21.96384,45.84974l.14617.14676Z"/><path class="cls-3" d="M9.82491,18.22381l-.14776.14595Z"/><path class="cls-3" d="M9.11945,18.92916l-.15807.14632Z"/><path class="cls-2" d="M23.93989,47.821l.14751.14547Z"/><path class="cls-2" d="M24.08238,47.96165l.14576.146Z"/><path class="cls-2" d="M24.22318,48.10294l.14617.14676Z"/><path class="cls-3" d="M8.83683,19.19859l-.14652.1585Z"/><path class="cls-2" d="M25.07211,48.94665l.14518.14576Z"/><path class="cls-2" d="M25.21272,49.088l.14531.14612Z"/><path class="cls-3" d="M8.69573,19.35123l-.14846.14495Z"/><path class="cls-2" d="M25.35305,49.22937l.14674.145Z"/><path class="cls-5" d="M33.82113,25.72354a1.45616,1.45616,0,0,1-.25522-.37286,1.75778,1.75778,0,0,1-.013-.48793q-.00054-6.66318-.00071-13.32638c0-.2743,0-.54859,0-.89246l-.70246.55116.21417-.79582.77486.15689v.71452q.00014,6.22323-.00072,12.44647a3.28519,3.28519,0,0,1-.04894,1.13662C33.65839,25.18921,33.85665,25.43687,33.82113,25.72354Z"/><path class="cls-5" d="M22.25494,14.57665v7.25407l-.84731.80134-.11984-.06232.03879-.67326c.73349-.05268.84915-.20192.69491-.89567-.015-.06728-.05916-.14972-.03588-.20057.31418-.68607-.08055-1.36288-.02017-2.05085.061-.69528.01041-1.4.01573-2.1006.00122-.16059.04279-.32077.04543-.48147.00518-.314-.01308-.62843-.00428-.9422C22.029,14.988,21.76917,14.64562,22.25494,14.57665Z"/><path class="cls-5" d="M32.588,24.5045l-.60823-.61128.44794-.06693v-.79q.00007-5.29056.00759-10.58112c.0007-.231-.1442-.518.14894-.69627l.06783.28567c-.00907.01519-.02713.03152-.02537.04533a.50474.50474,0,0,0,.02753.08991c-.01427.18571-.04086.3714-.041.55711q-.00405,5.6204-.00076,11.24078c.00009.1622.02747.3244.04214.48659l-.05935-.02276Z"/><path class="cls-3" d="M30.28594,29.76406l.45445-.39972.00632,9.28113-.0245.02321-.25974-.21879a2.25951,2.25951,0,0,0,.02425-1.44583,1.86248,1.86248,0,0,1-.02236-.833,22.57609,22.57609,0,0,0,.04723-4.72361,7.12323,7.12323,0,0,1,.05779-1.18149C30.59522,30.01452,30.63458,29.79,30.28594,29.76406Z"/><path class="cls-5" d="M30.77494,22.46134l-.10465.13507-.22878-.1292L30.305,22.333l-.14472-.14835-.13834-.1341-.00509-.00481a.37253.37253,0,0,0-.00833-.1273l.02667-.02829h.52212c.01261-.24169.03221-.44516.03244-.64865.0023-2.00452.00547-4.00906-.00383-6.01353-.00115-.24823-.11946-.49929-.1026-.74349a11.51886,11.51886,0,0,1,.19595-1.27379c.00455-.02487.128-.02807.19617-.04136a.74234.74234,0,0,1-.01261.122,3.60032,3.60032,0,0,0-.11986.64863q-.01233,3.49413-.00221,6.98833C30.74172,21.43931,30.763,21.95032,30.77494,22.46134Z"/><path class="cls-5" d="M31.68056,23.16646l.00119-.28024a3.45375,3.45375,0,0,0,.034-.34646q.00251-4.55346.00152-9.1069c.00008-.276.00973-.55208.01493-.82812.04353.09838.12511.19677.12508.29514q-.00165,5.42813-.01739,10.85625l-.154-.16467Z"/><path class="cls-5" d="M29.79744,21.05886l.001-5.21771c.07583.0929.21691.18523.21775.2788q.02093,2.33066.0008,4.66151C30.01617,20.87455,29.87389,20.96642,29.79744,21.05886Z"/><path class="cls-3" d="M23.67517,31.61232l.52692.46781v3.45154h.29709l-.23489.3429a.91906.91906,0,0,1-.31158-.7785c.00741-.72282.001-1.44576.00389-2.16863a1.20643,1.20643,0,0,0-.249-.97711C23.64564,31.889,23.68335,31.72761,23.67517,31.61232Z"/><path class="cls-5" d="M28.92055,15.28407v5.61119l-.47107-.52154.28343-.08384V14.8937c.21243-.18827.39286-.36807.59691-.51532.05237-.03778.17927.02716.27193.0449l-.16274.28049-.4136.4135Z"/><path class="cls-5" d="M24.64,16.572l-.40747-.26049c-.01429.25575-.03572.47364-.037.69164-.00438.77161.00093,1.54328-.00344,2.31489-.00155.27267.05037.56725-.2346.75458-.00071-.97512-.01205-1.95042.00342-2.92529.00571-.36.07453-.719.11757-1.10541l.56148.13614Z"/><path class="cls-5" d="M28.31876,20.23374c-.377-.09611-.41954-.37848-.41722-.70642.00745-1.05142.00277-2.10292.00277-3.22167l-.41859.24443c-.02155-.3486.06475-.59377.54965-.53374.05234,1.12452.09781,2.23011.1592,3.33483C28.211,19.64674,28.276,19.93962,28.31876,20.23374Z"/><path class="cls-3" d="M21.83682,29.7863l.4214.34651v7.25845a3.16916,3.16916,0,0,1-.134-.63616c-.01069-1.83872-.00554-3.67753-.00656-5.51631a1.53259,1.53259,0,0,0-.26394-1.17977C21.80563,30.00783,21.8404,29.87914,21.83682,29.7863Z"/><path class="cls-3" d="M29.79751,35.70491l.00045-4.09219c.07587.06943.21712.13813.21789.20838q.0202,1.83792,0,3.67606C30.01506,35.5672,29.87353,35.6357,29.79751,35.70491Z"/><path class="cls-3" d="M28.3073,31.737l.581-.63694v5.57125l.48016.65939c-.351.15781-.421-.1777-.62228-.30743v-5.3257Z"/><path class="cls-5" d="M23.95828,20.07191l-.68217.75559c-.02138-.293-.04419-.46273-.04452-.63252-.00288-1.44827-.011-2.89666.0048-4.34476a1.41771,1.41771,0,0,0-.29352-.9701h.41759v5.135Z"/><path class="cls-3" d="M22.94463,37.092a1.73576,1.73576,0,0,0,.28884-1.11344c-.01627-1.5677-.0066-3.13567-.0066-4.83493l.45029.47048c-.38882.006-.28349.29924-.28442.51036-.00613,1.38177-.00337,2.76358-.00375,4.14537a4.16437,4.16437,0,0,1-.00578.49136A.34323.34323,0,0,1,22.94463,37.092Z"/><path class="cls-5" d="M27.48648,16.54926l-.46734.58374v1.87163l-.68695-.74533.44732-.06529c0-.32282-.01592-.619.00359-.91285C26.81538,16.795,26.98628,16.62875,27.48648,16.54926Z"/><path class="cls-3" d="M27.88438,35.691q.00885-1.58139.01853-3.1628c.00186-.25037-.06089-.53139.26774-.64961-.03965.62361-.09033,1.24682-.11259,1.871-.00717.20125.079.40415.09008.608C28.17334,34.822,28.36923,35.32549,27.88438,35.691Z"/><path class="cls-3" d="M24.77764,35.258a1.52343,1.52343,0,0,0,.30616-1.10724c-.02716-.34708-.00559-.69795-.00559-1.22483l.60965.74793-.44416.13016.14773,1.0187C25.21958,35.07038,25.10364,35.31586,24.77764,35.258Z"/><path class="cls-3" d="M26.47349,33.56664l.55087-.62478c0,.61685-.02058,1.04771.008,1.47532a4.17126,4.17126,0,0,0,.17353.71866c-.29326.00435-.42633-.14887-.42656-.432-.00027-.32664-.00006-.65328-.00006-1.01842Z"/><path class="cls-5" d="M26.072,18.08933l-.96444.74516v-.87794l.374.195.516-.3723Z"/><path class="cls-3" d="M22.27185,37.50572l.67714-.41832a2.77742,2.77742,0,0,1-.25139.61478C22.55336,37.90447,22.4087,37.82954,22.27185,37.50572Z"/><path class="cls-3" d="M29.79859,31.19918c.01323-.39429-.25009-.83839.20866-1.15246a8.80106,8.80106,0,0,1,.00805.8819C30.00771,31.02393,29.8744,31.10928,29.79859,31.19918Z"/><path class="cls-4" d="M18.42334,25.681a5.98653,5.98653,0,0,1,.10507.61345c.016.22116-.00426.445-.0087.66759l-.32812-1.03877Z"/><path class="cls-3" d="M20.9633,39.058l.36156-.82584c.07281.044.202.08068.209.13336C21.5699,38.63878,21.32768,38.91691,20.9633,39.058Z"/><path class="cls-5" d="M21.32688,14.58l.00005-.70971C21.65166,14.10439,21.65164,14.34589,21.32688,14.58Z"/><path class="cls-3" d="M29.75486,37.53067l.04339-.84818c.07561.08872.22877.19656.21241.2626A3.39621,3.39621,0,0,1,29.75486,37.53067Z"/><path class="cls-5" d="M29.79987,15.285l-.05965-.56545.06428-.14348C30.115,14.83009,30.11365,15.03791,29.79987,15.285Z"/><path class="cls-3" d="M25.83764,33.8182l.63775-.25524a.33056.33056,0,0,1-.30432.43571C26.03965,34.01554,25.82725,34.09726,25.83764,33.8182Z"/><path class="cls-3" d="M21.32708,29.78972l-.02665-.398.1039-.0695.4324.464Z"/><path class="cls-3" d="M20.42429,39.36644l.40308-.16978-.15319.45311-.14472-.01279Z"/><path class="cls-3" d="M29.38046,37.34333l.365.19724-.06072.26686C29.39463,37.73752,29.268,37.61728,29.38046,37.34333Z"/><path class="cls-4" d="M33.10327,40.9308l.43627-.02277v.52985Z"/><path class="cls-5" d="M22.6663,14.59973l-.395-.13668.23614-.39984Z"/><path class="cls-4" d="M18.53669,25.12478c.219.21861.20678.27825-.11455.5581Z"/><path class="cls-3" d="M21.32475,30.63454l-.00141-.42927.22594.24675Z"/><path class="cls-5" d="M25.10453,17.53514l-.00812-.4245.26617.20882Z"/><path class="cls-4" d="M18.86407,10.91912l-.32877.01326-.05371-.2337.09511-.06335Z"/><path class="cls-3" d="M27.48472,35.42011l.28667.26879-.2044.11678Z"/><path class="cls-4" d="M18.53486,41.03607l.32981.01331-.32981.37241Z"/><path class="cls-3" d="M21.32625,31.4804l-.00057-.28973.20161.14449Z"/><path class="cls-5" d="M21.32684,15.707l-.00011-.288.20073.14388Z"/><path class="cls-3" d="M31.29816,39.22055l.28106.14208a.57223.57223,0,0,0,.00494.12859C31.39836,39.6105,31.34352,39.5586,31.29816,39.22055Z"/><path class="cls-5" d="M29.75722,21.73512l.03159-.3927.10921.40624-.02081.01844A.87063.87063,0,0,1,29.75722,21.73512Z"/><path class="cls-5" d="M31.15817,12.88814l-.2836.28206C30.85838,12.96545,30.95359,12.87211,31.15817,12.88814Z"/><path class="cls-4" d="M29.8045,14.576l-.06428.14348-.30121-.01575.16274-.28048Z"/><path class="cls-3" d="M27.20447,35.13438l.27981.28528C27.27871,35.43412,27.18581,35.33866,27.20447,35.13438Z"/><path class="cls-2" d="M35.53579,29.21971,35.536,28.804Q35.83565,29.012,35.53579,29.21971Z"/><path class="cls-3" d="M30.86557,38.67393l.05952.21277-.20288-.218.0245-.02321A.59765.59765,0,0,0,30.86557,38.67393Z"/><path class="cls-4" d="M18.53007,28.38457l-.00056.26814Z"/><path class="cls-5" d="M31.32943,12.63209l-.04.22339a.26465.26465,0,0,1-.132.03343Z"/><path class="cls-4" d="M32.42714,27.5276l.17341-.12868.02005.11724Z"/><path class="cls-3" d="M30.926,38.89136l.23191.18863C31.0375,39.06984,30.87814,39.10728,30.926,38.89136Z"/><path class="cls-5" d="M31.59387,12.4703l-.26984.16623Z"/><path class="cls-5" d="M32.84872,11.196l-.234.18976Z"/><path class="cls-5" d="M28.45467,20.37637l-.145-.15082Z"/><path class="cls-5" d="M29.898,21.74866l.1372.14146-.02667.02829a.39309.39309,0,0,0-.12649-.01115l-.00363-.00369q.00036-.06825-.00122-.13647Z"/><path class="cls-4" d="M18.531,23.7342a.53392.53392,0,0,1,.03377.0943c.002.01112-.02184.02677-.03388.04036a.50822.50822,0,0,1-.02555-.09C18.50379,23.76507,18.5218,23.74916,18.531,23.7342Z"/><path class="cls-5" d="M31.98533,23.89708l-.14944-.14639Z"/><path class="cls-3" d="M17.46569,25.40283a1.052,1.052,0,0,0,.12055-.00314l-.03526.0997Z"/><path class="cls-5" d="M33.96046,25.89068l-.14429-.17393Z"/><path class="cls-4" d="M33.56163,26.4119l.128-.14934Z"/><path class="cls-4" d="M19.42125,27.67362l.00853-.13873Z"/><path class="cls-4" d="M32.64956,27.95864a.54015.54015,0,0,1,.03315.09633c.00181.011-.0233.02645-.0361.03987a.51233.51233,0,0,1-.02412-.09156C32.62126,27.9893,32.63992,27.97357,32.64956,27.95864Z"/><path class="cls-4" d="M32.65105,28.94513a.53473.53473,0,0,1,.03241.09528c.00177.011-.02281.02626-.03535.03958a.49281.49281,0,0,1-.025-.09072C32.6218,28.97555,32.6411,28.9599,32.65105,28.94513Z"/><path class="cls-3" d="M30.14412,29.90946l.14656-.14818Z"/><path class="cls-3" d="M30.004,30.051l.14623-.148Z"/><path class="cls-3" d="M28.16934,31.88109l.145-.14759Z"/><path class="cls-4" d="M19.148,11.19966l-.13855-.13483Z"/><path class="cls-4" d="M19.40225,11.48216l-.10855-.13936Z"/><path class="cls-5" d="M32.61491,11.38924a.7114.7114,0,0,1-.00274.0888l-.11089-.08679Z"/><path class="cls-3" d="M25.69952,33.69209l.12985.12392Z"/><path class="cls-5" d="M20.69007,12.6306l-.17294-.14481Z"/><path class="cls-3" d="M24.63627,35.40012l.14846-.14561Z"/><path class="cls-3" d="M24.49371,35.53822l.148-.14425Z"/><path class="cls-5" d="M20.82864,12.77262l-.14675-.1488Z"/><path class="cls-5" d="M20.97214,12.91156l-.15018-.14539Z"/><path class="cls-5" d="M21.11227,13.0534l-.14723-.14872Z"/><path class="cls-5" d="M21.25588,13.192l-.1505-.14529Z"/><path class="cls-5" d="M21.29716,13.30808a.12527.12527,0,0,1-.05058-.12186l.12227.02893Z"/><path class="cls-3" d="M37.81075,13.85476l.14527.1401Z"/><path class="cls-3" d="M37.95329,13.99268l.14424.14314Z"/><path class="cls-3" d="M20.8245,39.204l.14526-.14859Z"/><path class="cls-3" d="M31.15712,39.07929l.14167.142Z"/><path class="cls-5" d="M22.80709,14.74265l-.14474-.15087Z"/><path class="cls-5" d="M22.94811,14.884l-.14793-.14792Z"/><path class="cls-4" d="M31.58416,39.49122a.57223.57223,0,0,1-.00494-.12859.2332.2332,0,0,1,.092-.01142Z"/><path class="cls-4" d="M32.65385,40.35245l.04929.14886a.96775.96775,0,0,1-.08848-.096C32.61079,40.4,32.64,40.37066,32.65385,40.35245Z"/><path class="cls-4" d="M19.29157,40.62129l.10856-.13563Z"/><path class="cls-5" d="M24.78425,16.71438l-.14817-.14788Z"/><path class="cls-5" d="M24.92827,16.85258l-.15123-.14507Z"/><path class="cls-5" d="M25.06589,17.01855l-.14479-.174Z"/><path class="cls-5" d="M26.33911,18.26318l-.17389-.14514Z"/><path class="cls-4" d="M31.68056,23.16646l.00536.425A.25554.25554,0,0,1,31.68056,23.16646Z"/><path class="cls-4" d="M29.87721,21.7671q.00157.06822.00122.13647l-.12121-.16845A.87063.87063,0,0,0,29.87721,21.7671Z"/><path class="cls-4" d="M29.88206,21.90726a.39309.39309,0,0,1,.12649.01115.37253.37253,0,0,1,.00833.1273Z"/><path class="cls-4" d="M30.022,22.05052l.13834.1341Z"/><path class="cls-4" d="M30.305,22.333l.13648.13424Z"/><path class="cls-4" d="M32.65457,24.46426l-.06662.04024.00727-.063Z"/><path class="cls-4" d="M32.65418,12.17978a.50474.50474,0,0,1-.02753-.08991c-.00176-.01381.0163-.03014.02537-.04533a.53355.53355,0,0,1,.03438.09371C32.68852,12.14974,32.66565,12.16581,32.65418,12.17978Z"/><path class="cls-4" d="M28.92055,15.28407l.10486-.1668Z"/></svg>