<svg id="Слой_1" data-name="Слой 1" xmlns="http://www.w3.org/2000/svg" viewBox="0 0 52 52"><defs><style>.cls-1{fill:#393b8f;}</style></defs><title>VL</title><path class="cls-1" d="M36.69849,23.42458c6.9415-.6,7.53228-8.52922.19381-8.52922H26.18463c2.77847.19386,3.36925,1.38461,2.97233,2.57542l-1.38461,5.16H26.58154l.79384-3.17539L21.22771,21.44c.59078,0,1.58766.39691,1.38461,1.38461-3.36925,0-19.23694,1.58767-17.25231,9.12925.6,2.77841,5.16,3.76611,8.52923,4.163V35.72c-2.17845-.39692-4.76306-1.98458-4.95692-4.36614-.39692-2.38155,1.19075-3.96921,3.16614-5.15078a28.69331,28.69331,0,0,1,10.11695-2.18769L18.84615,34.73227c-.59078,1.78159-2.17844,1.98464-3.5723,2.37232H31.74157c10.70767,0,15.0738-3.76612,15.0738-7.14461C46.81537,26.19381,40.46466,23.61845,36.69849,23.42458ZM23.80307,35.92308H22.41846l3.76617-12.10153h1.19075ZM33.5231,16.28c2.77847-.19381,4.3569,1.39386,3.3692,3.57231-.79384,1.78153-3.17539,2.57542-5.35384,2.97233ZM27.96616,35.92308l3.37849-11.90772a8.202,8.202,0,0,1,4.163,1.79077C38.87693,28.5846,35.50768,35.12924,27.96616,35.92308ZM42.6431,30.56924c-.59078,3.16615-6.73845,4.75381-9.12,4.94768,7.73539-1.78153,9.32305-8.32617.9877-11.29845C42.24619,25.60308,43.04,28.5846,42.6431,30.56924Z"/><path class="cls-1" d="M26,2A24.08235,24.08235,0,0,0,2,26,24.21528,24.21528,0,0,0,26,50,24,24,0,0,0,26,2Zm0,46.41228A22.514,22.514,0,1,1,48.60614,26,22.51885,22.51885,0,0,1,26,48.41228Z"/></svg>