<svg id="Слой_1" data-name="Слой 1" xmlns="http://www.w3.org/2000/svg" viewBox="0 0 52 52"><defs><style>.cls-1{fill:#d09b2b;}</style></defs><title>VN</title><path class="cls-1" d="M25.9983,37.60175a15.39459,15.39459,0,0,1-9.38058,2.77212c-5.02441,0-10.39039-2.55787-12.071-2.50869A3.22331,3.22331,0,0,0,3.104,38.126c-.70072.29152-1.16-.173-1.09849-.56812a5.71624,5.71624,0,0,1,1.059-1.66749,9.89779,9.89779,0,0,1,2.16185-1.97218,7.87292,7.87292,0,0,1,5.56618-1.48484,2.03171,2.03171,0,0,1,1.25039.706c1.62446,1.55773,4.552,3.52025,6.80341,3.92329.238.02634,1.26093.1282,1.27761-.16333.01054-.173-.274-.23971-.37055-.26167a15.85893,15.85893,0,0,1-7.69642-4.40184,18.26812,18.26812,0,0,1-3.78367-5.09728c-.7332-1.41987-1.76319-4.22886-3.63439-5.16929-.418-.20372-.43026-.96765.44255-1.16873A14.23163,14.23163,0,0,1,13.778,22.68133a4.73374,4.73374,0,0,1,2.35327,2.23911s.10185.05971.1282.50841c.23269,6.33451,3.02149,8.45948,4.36935,9.43767.54529.42411,1.22756.605,1.41547.41709.08254-.0922-.13874-.28977-.28538-.38636-3.88728-2.5605-4.63892-5.899-4.84878-9.47981-.20372-3.56063,1.29781-6.65589,2.24878-9.18389a5.889,5.889,0,0,0,.27132-3.36834c-.27659-.93691.01669-1.15556.53124-1.23371.52334-.07639,1.31713.99926,1.59373,1.33469a15.10064,15.10064,0,0,1,1.9634,3.15672,22.00652,22.00652,0,0,1,2.0916,9.205c-.03688,2.96793-.58481,3.14793-1.99677,3.83635a2.62972,2.62972,0,0,0-1.83783,2.32341c0,.93692.70071,1.63149,1.97393,2.1759.08518.02459.23533.072.30031.08956.55934.137,1.03.0123,1.03-.20108,0-.19054-.555-.26079-.555-.26079-1.24337-.30645-2.10565-1.008-2.10565-1.8071,0-1.08619,1.52612-2.18907,3.47986-2.18907h.09922l.10888-.00263c1.94584,0,3.47107,1.09936,3.47107,2.18994,0,.79994-.85964,1.49977-2.10125,1.8071,0,0-.55408.072-.55408.259.00439.21425.46451.33982,1.02736.202.07025-.01581.21426-.06147.30646-.09132,1.2741-.5409,1.96779-1.239,1.96779-2.1759a2.625,2.625,0,0,0-1.837-2.32078c-1.41284-.68578-1.9511-.87106-1.99589-3.83811A22.08418,22.08418,0,0,1,28.47714,16.122a14.70757,14.70757,0,0,1,1.96954-3.15672c.27309-.33455,1.06688-1.40933,1.59548-1.33557.51983.07991.80433.29855.52685,1.23284a5.86811,5.86811,0,0,0,.27221,3.36921c.94219,2.52976,2.45162,5.62238,2.24527,9.18389-.2046,3.58084-.95624,6.91931-4.84528,9.47718-.15542.09834-.36177.29416-.27748.38987.17913.19054.86316.007,1.40845-.41534,1.347-.97731,4.13227-3.104,4.36584-9.44029.03249-.44607.13786-.51017.13786-.51017a4.68927,4.68927,0,0,1,2.34273-2.23472,14.25413,14.25413,0,0,1,8.70183-1.88438c.87281.20548.85877.96941.44431,1.16874-1.87647.94482-2.903,3.74942-3.63615,5.16928a18.14909,18.14909,0,0,1-3.78191,5.10168,15.91977,15.91977,0,0,1-7.70081,4.40184c-.09132.01932-.38109.08518-.36792.26167.0123.28977,1.03527.187,1.282.16333,2.24526-.403,5.16665-2.36644,6.80164-3.925a2.05647,2.05647,0,0,1,1.253-.706,7.90367,7.90367,0,0,1,5.56,1.4866,9.30529,9.30529,0,0,1,2.1557,1.96955,5.84947,5.84947,0,0,1,1.06424,1.67012c.06059.39514-.396.857-1.10024.56724a3.243,3.243,0,0,0-1.44181-.259c-1.68329-.05092-7.04752,2.50957-12.07368,2.50606A15.47042,15.47042,0,0,1,25.9983,37.60175Z"/></svg>