<svg id="Слой_1" data-name="Слой 1" xmlns="http://www.w3.org/2000/svg" viewBox="0 0 52 52"><defs><style>.cls-1{fill:#757575;}.cls-2{fill:#fbe666;}</style></defs><title>VY</title><g id="_757575ff" data-name="#757575ff"><path class="cls-1" d="M25.84164,18.26489a1.06274,1.06274,0,0,1,1.00184.20436,1.13049,1.13049,0,0,1,.32374.82872q.00187,4.46888.00062,8.93776a2.33455,2.33455,0,0,1-.19811,1.33495.997.997,0,0,1-1.80243-.64747q.00187-4.62262.00062-9.24588a2.42993,2.42993,0,0,1,.06875-.82372A.944.944,0,0,1,25.84164,18.26489Z"/><path class="cls-1" d="M17.90384,23.884a3.093,3.093,0,0,1,2.22553-1.25433,3.4395,3.4395,0,0,1,2.6674.69185,3.40741,3.40741,0,0,1,1.025,2.34865,1.81087,1.81087,0,0,1-.10875,1.02184.77627.77627,0,0,1-.70122.31c-1.28745.00249-2.57552-.00188-3.863.00187a1.499,1.499,0,0,0,.78184,1.19308,3.08284,3.08284,0,0,0,2.07617-.0825,1.94746,1.94746,0,0,1,.81372-.13624.83992.83992,0,0,1,.6206.89058.95355.95355,0,0,1-.52686.65185,3.9486,3.9486,0,0,1-1.46619.40749,4.15958,4.15958,0,0,1-2.80864-.51186,3.3117,3.3117,0,0,1-1.39119-2.40053,4.46719,4.46719,0,0,1,.6556-3.13174m1.89242.4456a1.569,1.569,0,0,0-.64685,1.32932c.93872.00063,1.87805-.00125,2.81676.00063a1.54683,1.54683,0,0,0-.68122-1.32245A1.76152,1.76152,0,0,0,19.79626,24.32964Z"/><path class="cls-1" d="M10.14978,22.68283a1.03579,1.03579,0,0,1,1.00995.22312,1.14449,1.14449,0,0,1,.305.82747c.00188,1.1062-.00062,2.21178.00063,3.31736a1.21581,1.21581,0,0,0,.50873,1.04371,1.56619,1.56619,0,0,0,1.0412.17562,1.1034,1.1034,0,0,0,.78185-.43748,1.68338,1.68338,0,0,0,.23061-.97121q.00095-1.62556,0-3.2505a.97441.97441,0,0,1,.58873-.895,1.02678,1.02678,0,0,1,1.16433.25561,1.29836,1.29836,0,0,1,.24811.89372c-.00687.99746.0075,1.99554-.00687,2.99363a3.26429,3.26429,0,0,1-.90184,2.363,3.5966,3.5966,0,0,1-2.61052.76246,3.1795,3.1795,0,0,1-2.31178-.93433,3.33917,3.33917,0,0,1-.73247-2.18866c.00125-1.08371-.00188-2.16742.00125-3.2505A.989.989,0,0,1,10.14978,22.68283Z"/><path class="cls-1" d="M34.71,22.69346a4.29581,4.29581,0,0,1,2.78926.43311,2.58077,2.58077,0,0,1,1.12433,1.56618,4.9346,4.9346,0,0,1,.15375,1.29433q-.00189,1.43619,0,2.87238a1.12523,1.12523,0,0,1-.34.86559,1.047,1.047,0,0,1-1.31557.0275,1.0352,1.0352,0,0,1-.36187-.82872c.00313-.95871,0-1.91742.00188-2.87613a2.07425,2.07425,0,0,0-.23937-1.24745,1.18566,1.18566,0,0,0-.95371-.46623,1.39767,1.39767,0,0,0-1.01933.315,1.33359,1.33359,0,0,0-.33561.95934c.00187,1.08621-.00063,2.17241.00187,3.258a1.18255,1.18255,0,0,1-.21749.735,1.02508,1.02508,0,0,1-1.50119.08313,1.06636,1.06636,0,0,1-.28249-.75872c-.00062-.72935.00063-1.45807,0-2.18741a7.70639,7.70639,0,0,1,.135-1.99555A2.64514,2.64514,0,0,1,33.387,23.18406,3.18465,3.18465,0,0,1,34.71,22.69346Z"/><path class="cls-1" d="M41.18978,23.4803a3.66921,3.66921,0,0,1,2.50865-.83872,5.18888,5.18888,0,0,1,2.54489.61685,1.12453,1.12453,0,0,1,.61123.97934q0,3.09456.00063,6.19038a3.38409,3.38409,0,0,1-1.04246,2.54864,3.98115,3.98115,0,0,1-2.67865.80372,4.37436,4.37436,0,0,1-2.07616-.59,1.63738,1.63738,0,0,1-.56811-.56061.84642.84642,0,0,1,.53-1.18,1.97706,1.97706,0,0,1,1.02495.25249,3.21773,3.21773,0,0,0,1.4062.28686,1.61361,1.61361,0,0,0,1.15433-.405,1.54243,1.54243,0,0,0,.36-1.09558c-.00125-.36-.00313-.71935-.00062-1.07933a2.85235,2.85235,0,0,1-2.08554.56935,2.88183,2.88183,0,0,1-2.008-.97184,4.13839,4.13839,0,0,1-.85247-2.96238,3.60446,3.60446,0,0,1,1.17121-2.56427m2.10491.87a1.47018,1.47018,0,0,0-.81871.41373,2.30841,2.30841,0,0,0-.48311,1.59744,2.47155,2.47155,0,0,0,.35936,1.46744,1.43467,1.43467,0,0,0,1.27683.43623,1.26221,1.26221,0,0,0,1.06745-.65622,5.173,5.173,0,0,0,.26812-2.31116c-.01375-.22937.06874-.52561-.16062-.67435A2.04148,2.04148,0,0,0,43.29469,24.35027Z"/><path class="cls-1" d="M2.102,23.21344A1.07644,1.07644,0,0,1,3.26818,22.731a.91731.91731,0,0,1,.67309.69247Q4.53376,25.423,5.125,27.42327a.84812.84812,0,0,0,.10062.22061c.41373-1.36557.815-2.73489,1.21995-4.10358a1.067,1.067,0,0,1,.505-.73872,1.09384,1.09384,0,0,1,1.35932.39,1.15168,1.15168,0,0,1,.00375.97309C7.75175,25.729,7.20052,27.297,6.64054,28.862a2.36652,2.36652,0,0,1-.46436.85559,1.29934,1.29934,0,0,1-.915.25624,1.43247,1.43247,0,0,1-1.01558-.28436A2.27979,2.27979,0,0,1,3.75,28.80634c-.5556-1.56994-1.10683-3.14113-1.66493-4.70919A1.09043,1.09043,0,0,1,2.102,23.21344Z"/><path class="cls-1" d="M29.34963,22.77845a1.02617,1.02617,0,0,1,1.2112.345,1.245,1.245,0,0,1,.18624.73935q-.00375,2.5002-.00062,5.001a1.16468,1.16468,0,0,1-.26.78185,1.02026,1.02026,0,0,1-1.47119.02625,1.11,1.11,0,0,1-.27-.74247q.00093-2.59584,0-5.19229A1.00008,1.00008,0,0,1,29.34963,22.77845Z"/></g><g id="_fbe666ff" data-name="#fbe666ff"><path class="cls-2" d="M48.22637,18.97173a1.63255,1.63255,0,0,1,.98121.00125,1.15343,1.15343,0,0,1,.7731.88622,1.44855,1.44855,0,0,1-.1875,1.03495,1.41656,1.41656,0,0,1-1.8993.26687A1.2904,1.2904,0,0,1,48.22637,18.97173Z"/></g></svg>