<svg id="Слой_1" data-name="Слой 1" xmlns="http://www.w3.org/2000/svg" viewBox="0 0 52 52"><defs><style>.cls-1{fill:#b71488;}.cls-2{fill:#482a7f;}</style></defs><title>W6</title><path class="cls-1" d="M35.89554,18.73205H49L39.89674,30.46971H46.4046l-.53185,3.30444h-12.978l8.863-11.73739H35.89554Z"/><path class="cls-2" d="M25.99372,17.06085H40.25035l-10.218,13.07959h5.60984l-2.74747,3.63372h-10.535l9.79975-13.0796L25.12,20.682Z"/><path class="cls-1" d="M24.30969,30.45688H20.76445l2.41846-14.9662h3.57037ZM21.942,31.92576a2.29178,2.29178,0,1,1-2.29178,2.29178A2.28857,2.28857,0,0,1,21.942,31.92576Z"/><path class="cls-2" d="M3,17.89632,4.96278,33.77415H7.97617l4.52022-9.00249.67084,9.00249h2.96314l7.87544-15.87783H19.58689l-3.79861,8.54654-.60776-8.54654H11.71144L7.68486,26.44286l-.65854-8.54654Z"/></svg>