<svg id="Слой_1" data-name="Слой 1" xmlns="http://www.w3.org/2000/svg" viewBox="0 0 52 52"><defs><style>.cls-1{fill:#dc0b28;}.cls-2{fill:#cf0b2d;}.cls-3{fill:#4967aa;}.cls-4{fill:#2d67b6;}.cls-5{fill:#f8f9fb;}.cls-6{fill:#f6e90e;}.cls-7{fill:#f0e615;}.cls-8{fill:#f0e616;}.cls-9{fill:#f2e714;}.cls-10{fill:#f2e813;}.cls-11{fill:#f3e813;}.cls-12{fill:#f4e911;}</style></defs><title>WK</title><path class="cls-1" d="M3,48.78531a.319.319,0,0,0,.18891-.00212q13.89194.0011,27.78387.00694a7.78729,7.78729,0,0,1,.925.10813c-.31853.03222-.637.09235-.95561.09259q-13.729.0105-27.458.00915C3.3228,49,3.1614,48.98805,3,48.98167Z"/><path class="cls-2" d="M31.89781,48.89826a7.78729,7.78729,0,0,0-.925-.10813q-13.89193-.00984-27.78387-.00694a17.66485,17.66485,0,0,0,1.54024-5.819c.31869-2.94961.555-5.9083.83149-8.86262.23706-2.53283.43176-5.071.73319-7.59607A49.10743,49.10743,0,0,1,9.4392,13.13005a18.30253,18.30253,0,0,1,4.26774-6.35251A13.38578,13.38578,0,0,1,21.09948,3.231a20.74239,20.74239,0,0,1,2.98531-.21969q12.12587-.02571,24.25181-.00971H49c-.20455.80942-.44347,1.53637-.566,2.28289-.30043,1.83055-.57817,3.66616-.80821,5.507-.33543,2.6843-.59932,5.37774-.93377,8.06218-.36257,2.91012-.714,5.82368-1.17364,8.71892a52.2722,52.2722,0,0,1-2.94716,11.33122,19.94742,19.94742,0,0,1-4.134,6.78942A9.98211,9.98211,0,0,1,31.89781,48.89826ZM36.3979,21.7751l-.423.0027-2.27178-.11114c.43611-1.25154,1.50665-2.2525,1.04044-3.7415a2.002,2.002,0,0,0-1.58269-.07537c-.64415.19213-1.26327.47-1.8937.70944-.402.1527-.80493.303-1.28825.4847-.0161-.33095-.03614-.52168-.03291-.712a17.92536,17.92536,0,0,0-.37747-4.06392,7.58341,7.58341,0,0,0-1.51569-3.53582,2.24929,2.24929,0,0,0-2.2061-.99073,1.98511,1.98511,0,0,0-.93867,1.85332c-.011,1.56152-.05819,3.12566-.17294,4.68249-.06992.94861-.29382,1.88561-.45709,2.87973a2.69858,2.69858,0,0,1-.34-.16594c-.75581-.55218-1.48459-1.14668-2.269-1.65319a8.6426,8.6426,0,0,0-2.799-1.271c-.41751-.09247-.83013-.20951-1.14511.29655-.10149,1.77581,1.37522,2.94064,1.88743,4.45807-1.732.16511-3.39761.28535-5.05194.49648a15.66666,15.66666,0,0,0-2.81391.61222,2.63973,2.63973,0,0,0-1.94941,1.82928,1.316,1.316,0,0,0,1.04653,1.06117c.52706.13588,1.05276.2792,1.5841.39572a19.73547,19.73547,0,0,1,4.95894,1.7963,2.07157,2.07157,0,0,1,.3915.36405c-1.82275,1.36216-2.09089,1.64049-2.48312,2.52363.03593.68918.53877.83806,1.00147.94454a11.68236,11.68236,0,0,0,1.80518.24431c.56763.03951,1.14006.00846,1.80058.00846-1.04445,2.11951-2.03891,4.12711-3.02241,6.1402a18.07538,18.07538,0,0,0-.74846,1.68877,4.82,4.82,0,0,0-.15415.97917,1.64759,1.64759,0,0,0,1.31846.16208,8.943,8.943,0,0,0,3.08077-1.3193,20.09842,20.09842,0,0,0,3.743-3.38385c.16367-.17276.34789-.3256.53594-.50005.4072,1.0368.54614,2.14535,1.51184,2.77179,1.15756-.53375,1.29917-1.69666,1.83022-2.69009.2453.34807.40926.621.61183.86052A20.127,20.127,0,0,0,30.40307,37.845a12.31649,12.31649,0,0,0,3.62576,2.18528,4.08331,4.08331,0,0,0,3.29436.00972,1.35248,1.35248,0,0,0,.17559-1.76847,5.97471,5.97471,0,0,0-.61876-.8694c-.52786-.61544-1.09208-1.19918-1.61467-1.819A12.83255,12.83255,0,0,1,33.135,31.90052c1.22256.14439,2.34368.60139,3.43831.05338a1.33354,1.33354,0,0,0,.19114-1.65432c-.355-.69114-.73134-1.37106-1.11271-2.08244a4.07037,4.07037,0,0,1,.6222-.22991,14.85937,14.85937,0,0,0,5.67487-2.54376,3.22624,3.22624,0,0,0,1.55551-2.194,1.91734,1.91734,0,0,0-1.02954-1.49687h-4.92l-.40554.0106Z"/><path class="cls-3" d="M37.55474,21.75256h4.92a1.91734,1.91734,0,0,1,1.02954,1.49687,3.22624,3.22624,0,0,1-1.55551,2.194,14.85937,14.85937,0,0,1-5.67487,2.54376,4.07037,4.07037,0,0,0-.6222.22991c.38137.71138.7577,1.3913,1.11271,2.08244a1.33354,1.33354,0,0,1-.19114,1.65432c-1.09463.548-2.21575.091-3.43831-.05338a12.83255,12.83255,0,0,0,2.13038,3.68264c.52259.61981,1.08681,1.20355,1.61467,1.819a5.97471,5.97471,0,0,1,.61876.8694A1.35248,1.35248,0,0,1,37.32319,40.04a4.08331,4.08331,0,0,1-3.29436-.00972A12.31649,12.31649,0,0,1,30.40307,37.845a20.127,20.127,0,0,1-1.79369-2.03819c-.20257-.23952-.36653-.51245-.61183-.86052-.53105.99343-.67266,2.15634-1.83022,2.69009-.9657-.62644-1.10464-1.735-1.51184-2.77179-.18805.17445-.37227.32729-.53594.50005a20.09842,20.09842,0,0,1-3.743,3.38385,8.943,8.943,0,0,1-3.08077,1.3193,1.64759,1.64759,0,0,1-1.31846-.16208,4.82,4.82,0,0,1,.15415-.97917,18.07538,18.07538,0,0,1,.74846-1.68877c.9835-2.01309,1.978-4.02069,3.02241-6.1402-.66052,0-1.23295.03105-1.80058-.00846a11.68236,11.68236,0,0,1-1.80518-.24431c-.4627-.10648-.96554-.25536-1.00147-.94454.39223-.88314.66037-1.16147,2.48312-2.52363a2.07157,2.07157,0,0,0-.3915-.36405,19.73547,19.73547,0,0,0-4.95894-1.7963c-.53134-.11652-1.057-.25984-1.5841-.39572a1.316,1.316,0,0,1-1.04653-1.06117,2.63973,2.63973,0,0,1,1.94941-1.82928,15.66666,15.66666,0,0,1,2.81391-.61222c1.65433-.21113,3.32-.33137,5.05194-.49648-.51221-1.51743-1.98892-2.68226-1.88743-4.45807.315-.50606.7276-.389,1.14511-.29655a8.6426,8.6426,0,0,1,2.799,1.271c.78438.50651,1.51316,1.101,2.269,1.65319a2.69858,2.69858,0,0,0,.34.16594c.16327-.99412.38717-1.93112.45709-2.87973.11475-1.55683.16191-3.121.17294-4.68249a1.98511,1.98511,0,0,1,.93867-1.85332,2.24929,2.24929,0,0,1,2.2061.99073A7.58341,7.58341,0,0,1,29.56858,14.268a17.92536,17.92536,0,0,1,.37747,4.06392c-.00323.19033.01681.38106.03291.712.48332-.18174.88623-.332,1.28825-.4847.63043-.23947,1.24955-.51731,1.8937-.70944a2.002,2.002,0,0,1,1.58269.07537c.46621,1.489-.60433,2.49-1.04044,3.7415l2.27178.11114-2.23988.17432.00319.07049h7.01324a16.04766,16.04766,0,0,0-2.38327-.14213A5.89065,5.89065,0,0,1,37.55474,21.75256ZM16.9937,38.98771a4.60114,4.60114,0,0,0,2.49038-.93894A22.26456,22.26456,0,0,0,23.952,33.8757c.31483-.34813.64445-.68256,1.03223-1.09187a3.20242,3.20242,0,0,1,.34.59723c.20644.78186.37777,1.57328.58881,2.35376a3.16431,3.16431,0,0,0,.393.64092c.16926-.41316.29221-.66875.37984-.93618.2017-.6156.39727-1.23377.57317-1.8573a.57531.57531,0,0,1,.72043-.48387c.1705.20333.41022.46047.61709.74229.36474.49688.70455,1.0124,1.06341,1.51382a9.59066,9.59066,0,0,0,5.28022,3.88685,1.85889,1.85889,0,0,0,1.20547.02148.848.848,0,0,0,.054-1.17311,9.3933,9.3933,0,0,0-.80908-.97064,18.86688,18.86688,0,0,1-3.57038-5.66039c-.25408-.571-.20888-.63965.33667-1.15,1.093.408,2.15685,1.14783,3.38533.62008a1.16852,1.16852,0,0,0-.32509-1.32934,8.631,8.631,0,0,0-2.14423-1.65553,3.85464,3.85464,0,0,1-.56816-.53369c1.147-.226,2.11541-.42683,3.08776-.6058a15.06618,15.06618,0,0,0,3.85372-1.1775,5.38018,5.38018,0,0,0,2.69217-2.57038,27.19871,27.19871,0,0,0-10.17945.14958L31.5137,22.588c.3246-.39855.63639-.73276.89226-1.1062.457-.66692.882-1.35634,1.3167-2.03874a.73724.73724,0,0,0,.04821-.89162,6.57366,6.57366,0,0,0-3.95959,2.14959L31.12249,24.11c1.5429,1.0503,1.42793,3.25029-.35,4.71283,0,.41168.00756.83446-.00148,1.25687a2.00037,2.00037,0,0,1-2.43731,1.84886,10.02482,10.02482,0,0,1-1.95088-.78863,2.41391,2.41391,0,0,1-2.74.78823,2.73481,2.73481,0,0,1-1.823-2.91444l-1.7486-1.51417c-.77465.381-1.66856.80353-2.5449,1.26049a4.83963,4.83963,0,0,0-.949.66233c-.13944.1229-.18387.35614-.34537.69464a22.55842,22.55842,0,0,0,4.6959-.14729l.48776.70736c-.98424,1.69241-1.96126,3.29811-2.86146,4.94674C17.96541,36.702,17.488,37.84244,16.96071,38.955l-.06667.16362Zm5.43139-14.99963c-.12752-1.25961-.08692-2.41244,1.2056-3.04719,1.307-.64186,2.18137.16631,3.11191,1.00951.28322-.99839,1.08445-1.1982,1.87394-1.441A24.20025,24.20025,0,0,0,28.557,15.8262a21.89864,21.89864,0,0,0-.72522-3.41681,2.91917,2.91917,0,0,0-.6042-1.08885c-.51549-.615-.86126-.57413-1.528.12806,0,1.35788.04214,2.76439-.01217,4.16707a12.38506,12.38506,0,0,1-.72064,3.90491c-.16354.436-.34545.7622-.86824.81-1.65693-1.28339-3.08423-2.94526-5.29939-3.62579l-.3446.40743c.22144.33549.4001.637.6082.91609a14.03144,14.03144,0,0,1,2.08679,3.83643c.0937.27324.24382.54686-.06918.84975a1.576,1.576,0,0,1-.40884-.13152,4.73,4.73,0,0,0-2.965-.67452,30.669,30.669,0,0,0-5.93125,1.23936c-.25459.0687-.5834.15546-.60783.66507a3.3064,3.3064,0,0,0,.741.42845c2.49284.718,4.99175,1.41459,7.49171,2.107a5.19215,5.19215,0,0,0,.77758.09278C20.4549,25.16652,20.89491,24.07369,22.42509,23.98808Zm5.57933,2.83105c.14458-1.657-.32975-2.49735-1.52019-2.73484a1.92587,1.92587,0,0,0-1.97491,1.37053,1.87983,1.87983,0,0,0,.9171,2.38119C26.38739,28.33924,27.21585,28.02534,28.00442,26.81913Zm2.06932-1.913c-1.09866.669-1.197,1.85751-.19257,2.958.231-.10323.58157-.15273.75466-.35653A1.83854,1.83854,0,0,0,30.07374,24.9061ZM27.31435,22.476a1.82544,1.82544,0,0,0,1.66159,1.38253.86124.86124,0,0,0,.99437-.70122,1.9292,1.9292,0,0,0-1.672-1.41395C27.84718,21.66675,27.49256,21.89708,27.31435,22.476Zm-4.26811,1.09154a1.40311,1.40311,0,0,0,2.14326-.24635c.47847-.53574.46907-.81675-.04662-1.393C23.71252,21.85176,23.087,22.32575,23.04624,23.56754Zm-1.22359,4.19134h.66355c.84494-1.17025.73734-2.13072-.27973-2.85528-.59308.07749-.75427.58005-.87854,1.028A1.85422,1.85422,0,0,0,21.82265,27.75888ZM27.25438,30.436c.65759.55157.65459.54234,1.31069.32409a1.60829,1.60829,0,0,0,1.20649-1.4287.98091.98091,0,0,0-1.3312-.47912A1.50249,1.50249,0,0,0,27.25438,30.436ZM23.04781,29.4359c-.15782.714.2738,1.10073.7731,1.41053a1.238,1.238,0,0,0,1.65892-.08029c.21392-.76714-.2579-1.18177-.79-1.49924A1.18189,1.18189,0,0,0,23.04781,29.4359Z"/><path class="cls-4" d="M37.55474,21.75256a5.89065,5.89065,0,0,0,.81348.12792,16.04766,16.04766,0,0,1,2.38327.14213H33.73825l-.00319-.07049,2.23988-.17432.423-.00269.7513-.012Z"/><path class="cls-3" d="M37.1492,21.76316l-.7513.012Z"/><path class="cls-5" d="M16.9607,38.955c.52729-1.11255,1.00471-2.253,1.59345-3.33118.9002-1.64863,1.87722-3.25433,2.86146-4.94674l-.48776-.70736a22.55842,22.55842,0,0,1-4.6959.14729c.1615-.3385.20593-.57174.34537-.69464a4.83963,4.83963,0,0,1,.949-.66233c.87634-.457,1.77025-.87945,2.5449-1.26049l1.7486,1.51417a2.73481,2.73481,0,0,0,1.823,2.91444,2.41391,2.41391,0,0,0,2.74-.78823,10.02482,10.02482,0,0,0,1.95088.78863A2.00037,2.00037,0,0,0,30.771,30.07969c.009-.42241.00148-.84519.00148-1.25687,1.778-1.46254,1.89292-3.66253.35-4.71283l-1.31121-3.40894a6.57366,6.57366,0,0,1,3.95959-2.14959.73724.73724,0,0,1-.04821.89162c-.43471.6824-.85973,1.37182-1.3167,2.03874-.25587.37344-.56766.70765-.89226,1.1062l.44516.61808a27.19871,27.19871,0,0,1,10.17945-.14958,5.38018,5.38018,0,0,1-2.69217,2.57038,15.06618,15.06618,0,0,1-3.85372,1.1775c-.97235.179-1.94076.37985-3.08776.6058a3.85464,3.85464,0,0,0,.56816.53369,8.631,8.631,0,0,1,2.14423,1.65553,1.16852,1.16852,0,0,1,.32509,1.32934c-1.22848.52775-2.29236-.21207-3.38533-.62008-.54555.51036-.59075.579-.33667,1.15a18.86688,18.86688,0,0,0,3.57038,5.66039,9.3933,9.3933,0,0,1,.80908.97064.848.848,0,0,1-.054,1.17311,1.85889,1.85889,0,0,1-1.20547-.02148A9.59066,9.59066,0,0,1,29.6599,35.3545c-.35886-.50142-.69867-1.01694-1.06341-1.51382-.20687-.28182-.44659-.539-.61709-.74229a.57531.57531,0,0,0-.72043.48387c-.1759.62353-.37147,1.2417-.57317,1.8573-.08763.26743-.21058.523-.37984.93618a3.16431,3.16431,0,0,1-.393-.64092c-.211-.78048-.38237-1.5719-.58881-2.35376a3.20242,3.20242,0,0,0-.34-.59723c-.38778.40931-.7174.74374-1.03223,1.09187a22.26456,22.26456,0,0,1-4.46789,4.17307,4.60114,4.60114,0,0,1-2.49038.93894Z"/><path class="cls-5" d="M22.42509,23.98808c-1.53018.08561-1.97019,1.17844-2.24735,2.453a5.19215,5.19215,0,0,1-.77758-.09278c-2.5-.69241-4.99887-1.389-7.49171-2.107a3.3064,3.3064,0,0,1-.741-.42845c.02443-.50961.35324-.59637.60783-.66507a30.669,30.669,0,0,1,5.93125-1.23936,4.73,4.73,0,0,1,2.965.67452,1.576,1.576,0,0,0,.40884.13152c.313-.30289.16288-.57651.06918-.84975a14.03144,14.03144,0,0,0-2.08679-3.83643c-.2081-.27907-.38676-.5806-.6082-.91609l.3446-.40743c2.21516.68053,3.64246,2.3424,5.29939,3.62579.52279-.04781.7047-.374.86824-.81a12.38506,12.38506,0,0,0,.72064-3.90491c.05431-1.40268.01217-2.80919.01217-4.16707.66673-.70219,1.0125-.743,1.528-.12806a2.91917,2.91917,0,0,1,.6042,1.08885A21.89864,21.89864,0,0,1,28.557,15.8262a24.20025,24.20025,0,0,1,.05952,4.68323c-.78949.24277-1.59072.44258-1.87394,1.441-.93054-.8432-1.80491-1.65137-3.11191-1.00951C22.33817,21.57564,22.29757,22.72847,22.42509,23.98808Z"/><path class="cls-6" d="M28.00442,26.81913c-.78857,1.20621-1.617,1.52011-2.578,1.01688a1.87983,1.87983,0,0,1-.9171-2.38119,1.92587,1.92587,0,0,1,1.97491-1.37053C27.67467,24.32178,28.149,25.16214,28.00442,26.81913Z"/><path class="cls-7" d="M30.07374,24.9061a1.83854,1.83854,0,0,1,.56209,2.60149c-.17309.2038-.52366.2533-.75466.35653C28.87678,26.76361,28.97508,25.5751,30.07374,24.9061Z"/><path class="cls-8" d="M27.31435,22.476c.17821-.57892.53283-.80925.984-.73264a1.9292,1.9292,0,0,1,1.672,1.41395.86124.86124,0,0,1-.99437.70122A1.82544,1.82544,0,0,1,27.31435,22.476Z"/><path class="cls-9" d="M23.04624,23.56754c.04075-1.24179.66628-1.71578,2.09664-1.6393.51569.5762.52509.85721.04662,1.393A1.40311,1.40311,0,0,1,23.04624,23.56754Z"/><path class="cls-10" d="M21.82265,27.75888a1.85422,1.85422,0,0,1-.49472-1.82731c.12427-.44792.28546-.95048.87847-1.028,1.01714.72461,1.12474,1.68508.2798,2.85533Z"/><path class="cls-11" d="M27.25438,30.436a1.50249,1.50249,0,0,1,1.186-1.58373.98091.98091,0,0,1,1.3312.47912,1.60829,1.60829,0,0,1-1.20649,1.4287C27.909,30.97831,27.912,30.98754,27.25438,30.436Z"/><path class="cls-12" d="M23.04781,29.4359a1.18189,1.18189,0,0,1,1.642-.169c.53209.31747,1.00391.7321.79,1.49924a1.238,1.238,0,0,1-1.65892.08029C23.32161,30.53663,22.89,30.14987,23.04781,29.4359Z"/><path class="cls-5" d="M16.9937,38.98771l-.09966.1309.06666-.16362Z"/></svg>