<svg id="Слой_1" data-name="Слой 1" xmlns="http://www.w3.org/2000/svg" viewBox="0 0 52 52"><defs><style>.cls-1{fill:#99258e;}.cls-2{fill:#fff;}</style></defs><title>WW</title><path class="cls-1" d="M50,26.00005A24,24,0,1,1,25.99955,2.0016,24.00033,24.00033,0,0,1,50,26.00005"/><path class="cls-2" d="M37.77837,36.84793v-.4601a5.36277,5.36277,0,0,0-1.36442-.17921c-.85067,0-1.326.3747-1.326.93867v.01507c0,.58125.55151.91959,1.16812.91959a1.378,1.378,0,0,0,1.52233-1.234m-3.09931.33793v-.02009c0-.83319.71767-1.30735,1.75961-1.30735a4.94918,4.94918,0,0,1,1.33327.17319v-.17319a1.15983,1.15983,0,0,0-1.32664-1.23,2.67461,2.67461,0,0,0-1.26175.32327l-.14365-.33694a3.23423,3.23423,0,0,1,1.4297-.34858,1.72277,1.72277,0,0,1,1.269.44222,1.52086,1.52086,0,0,1,.41187,1.13716v2.507h-.37852v-.66844a1.842,1.842,0,0,1-1.54042.76267,1.3978,1.3978,0,0,1-1.55246-1.261m4.69657,1.16672h.38818V34.32947h-.38818Zm-.046-5.0739h.48159v-.53081h-.48159Zm1.72063,1.05079h.386v1.13959a1.90584,1.90584,0,0,1,1.78331-1.20288v.42654h-.04119a1.79238,1.79238,0,0,0-1.74212,2.011v1.64891h-.386Z"/><path class="cls-2" d="M13.14513,26.76081s-.27033-.02411-.33783-.03857c-.06661-.01427-.22161-.06429-.22553-.133l-.00071-.0014.0001-.00061-.0001-.0006.00071-.0014c.00392-.06872.15892-.11874.22553-.133.0675-.01446.33783-.03858.33783-.03858l5.732-.25436,1.27732-4.19962a.10385.10385,0,0,1,.00643-.02365.61755.61755,0,0,0,.0216-.16224.58728.58728,0,0,0-.58717-.589H16.73668a.58837.58837,0,0,0-.562.41438.33848.33848,0,0,0-.01185.055l-.99453,3.79221-1.138-3.8119-.04-.12969a.5882.5882,0,0,0-.53825-.35653H10.84747a.583.583,0,0,0-.55774.41328l-1.14481,3.8432-.95334-3.75057c-.00542-.01793-.01206-.03743-.01637-.055a.58777.58777,0,0,0-.56065-.41438H4.69768a.58817.58817,0,0,0-.588.589.48441.48441,0,0,0,.02722.17158l2.80487,9.36.01056.039a.59241.59241,0,0,0,.55793.3952h2.76037a.5864.5864,0,0,0,.55975-.41247L12.139,27.24923l1.26174,4.04743.00513.0215.01416.03556.00764.02512a.59149.59149,0,0,0,.54267.36063h2.78045a.58733.58733,0,0,0,.5471-.37812l.02671-.08237.00111-.00924,1.30614-4.29937Z"/><path class="cls-2" d="M24.2322,25.9217A1.7885,1.7885,0,0,1,25.446,24.5926c.02532-.28571.17882-2.00815.22342-2.1193a.18873.18873,0,0,1,.17641-.12347H25.878a.18866.18866,0,0,1,.1764.12347c.0446.11115.1983,1.83359.22342,2.1193a1.78856,1.78856,0,0,1,1.21392,1.329l4.25959.189-.00181-.05319a5.61,5.61,0,0,0-5.86047-5.12151,5.658,5.658,0,0,0-5.898,5.174Z"/><path class="cls-2" d="M27.39711,27.188a1.62311,1.62311,0,0,1-3.07027,0l-4.31625-.165a5.62328,5.62328,0,0,0,5.84108,4.88826,5.68211,5.68211,0,0,0,5.87294-4.88866Z"/><path class="cls-2" d="M47.06383,21.18478h-2.86a.58954.58954,0,0,0-.56217.41208.393.393,0,0,0-.01245.05731l-.99172,3.79221-1.14019-3.81014-.042-.13145a.57847.57847,0,0,0-.53724-.35653H38.31682a.59114.59114,0,0,0-.56337.41328l-1.14119,3.84817-.95454-3.75554c-.00342-.01793-.01066-.03743-.01528-.05731a.58878.58878,0,0,0-.56095-.41208H32.16562a.588.588,0,0,0-.58848.589.61094.61094,0,0,0,.02672.17655l1.26355,4.20976,5.7128.25356s.27024.02412.33774.03858c.06671.01427.22161.06429.22563.133l.0006.0014v.00121l-.0006.0014c-.004.06872-.15892.11874-.22563.133-.0675.01446-.33774.03857-.33774.03857l-5.46749.209,1.29812,4.33373.01.03717a.5881.5881,0,0,0,.55553.39881h2.76a.58837.58837,0,0,0,.562-.41247l1.307-4.07777,1.26133,4.04743c.003.00864.00643.01266.00985.0215l.01145.03556a.10344.10344,0,0,0,.00683.02512.59341.59341,0,0,0,.54387.36063h2.77865a.589.589,0,0,0,.5487-.37812l.02592-.08237.00221-.00924,2.82768-9.31009L47.627,21.936a.58738.58738,0,0,0-.56316-.75122Z"/></svg>