<svg id="Слой_1" data-name="Слой 1" xmlns="http://www.w3.org/2000/svg" xmlns:xlink="http://www.w3.org/1999/xlink" viewBox="0 0 52 52"><defs><style>.cls-1{fill:url(#radial-gradient);}.cls-2{fill:url(#radial-gradient-2);}.cls-3{fill:url(#linear-gradient);}.cls-4{fill:url(#linear-gradient-2);}.cls-5{fill:url(#linear-gradient-3);}</style><radialGradient id="radial-gradient" cx="950.67454" cy="10.62628" r="17.84428" gradientTransform="translate(-866.21514) scale(0.92308 1)" gradientUnits="userSpaceOnUse"><stop offset="0" stop-color="#e3e3e3"/><stop offset="0.01343" stop-color="#e2e2e2"/><stop offset="0.44526" stop-color="#bababa"/><stop offset="0.78911" stop-color="#a2a2a2"/><stop offset="1" stop-color="#999"/></radialGradient><radialGradient id="radial-gradient-2" cx="950.67411" cy="10.62805" r="17.84434" xlink:href="#radial-gradient"/><linearGradient id="linear-gradient" x1="-2285.02801" y1="2.70979" x2="-2310.74554" y2="12.44836" gradientTransform="matrix(-1, 0, 0, 1, -2266.3789, 0)" gradientUnits="userSpaceOnUse"><stop offset="0.49438" stop-color="#a29061"/><stop offset="0.55273" stop-color="#a59467"/><stop offset="0.62774" stop-color="#af9f77"/><stop offset="0.71152" stop-color="#c0b291"/><stop offset="0.76596" stop-color="#cdc1a6"/><stop offset="0.89326" stop-color="#d3c9b2"/><stop offset="0.93026" stop-color="#ccc1a7"/><stop offset="0.99608" stop-color="#bbad88"/><stop offset="1" stop-color="#baac86"/></linearGradient><linearGradient id="linear-gradient-2" x1="-2283.65228" y1="6.90129" x2="-2309.29443" y2="16.61132" xlink:href="#linear-gradient"/><linearGradient id="linear-gradient-3" x1="-2282.23839" y1="11.43628" x2="-2307.76178" y2="21.10133" xlink:href="#linear-gradient"/></defs><title>WY</title><path class="cls-1" d="M13.00861,48.73752C13.00861,32.24538,2,30.65946,2,18.82323c0,0,.12851-6.057,3.741-10.06558C1.01,17.704,24.02076,32.24538,24.02076,40.81744,24.02076,49.12225,13.00861,48.73752,13.00861,48.73752Z"/><path class="cls-2" d="M18.14791,3.8018C9.20046,3.14917,6.29942,8.10627,6.29942,8.10627,1.39193,17.50928,24.5573,32.43305,24.5573,40.3502c0,2.72148-.2553,4.605-2.08355,5.77985,0,0,10.1522-5.03309,10.1522-11.55671,0-10.15684-17.89461-17.80381-18.06652-25.53557A5.33692,5.33692,0,0,1,18.14791,3.8018Z"/><path class="cls-3" d="M50,3.25971c-2.49329,2.23616-6.53623,3.16945-12.30113,3.16945-5.76384,0-16.343-2.44957-18.32509-2.42388-3.96147.052-6.08958,5.28452-2.71351,9.27325a10.26517,10.26517,0,0,1,3.31748-2.65485c4.60381-1.71394,10.70013.9333,20.69479-.96723C46.89135,8.47346,48.98086,5.85137,50,3.25971Z"/><path class="cls-4" d="M40.903,10.11315a15.10832,15.10832,0,0,0,6.53137-2.60747c-.80915,2.23262-2.97583,5.62488-8.17881,7.63649-4.10612,1.5882-14.151-.58365-15.739,4.9401a62.36693,62.36693,0,0,1-6.5778-6.4868,10.17469,10.17469,0,0,1,3.26784-2.51508c4.60381-1.71574,10.70013.93383,20.6964-.96724"/><path class="cls-5" d="M29.90222,26.74331a4.96375,4.96375,0,0,1,1.28147-3.29339c1.79474-1.945,11.58373-3.294,13.40822-11.12283h0A13.037,13.037,0,0,1,39.52551,15.51c-4.423,1.53736-10.53768.366-13.87893,2.4876A4.47651,4.47651,0,0,0,23.855,20.41262,57.34353,57.34353,0,0,1,29.90222,26.74331Z"/></svg>