<svg id="Слой_1" data-name="Слой 1" xmlns="http://www.w3.org/2000/svg" viewBox="0 0 52 52"><defs><style>.cls-1{fill:#ba0102;}.cls-2{fill:#2d2c30;}</style></defs><title>WZ</title><path class="cls-1" d="M49.994,17.19841a3.90391,3.90391,0,0,1-1.97465,3.67435,11.25523,11.25523,0,0,1-4.73827,1.51431,51.57716,51.57716,0,0,1-12.5153-.24231c-3.29834-.36509-6.58151-.86622-9.87885-1.24164a20.30542,20.30542,0,0,0-6.55631.28109,12.06492,12.06492,0,0,0-5.67525,2.75423L2,19.20774a7.24084,7.24084,0,0,1,2.27322-1.36261,22.05741,22.05741,0,0,1,9.78067-1.336c5.288.34977,10.42061,1.63316,15.597,2.64974A65.08136,65.08136,0,0,0,40.8191,20.69949a18.68177,18.68177,0,0,0,3.1317-.12424C46.378,20.21649,48.72036,19.70116,49.994,17.19841Z"/><path class="cls-1" d="M16.63205,29.4868l-4.83652-3.42072a9.834,9.834,0,0,1,5.26318-2.107,40.73846,40.73846,0,0,1,10.2379.39611c2.87969.35234,5.75168.78205,8.64888.96379a23.59648,23.59648,0,0,0,9.85227-1.12231,5.455,5.455,0,0,1-1.89666,1.9487,10.51726,10.51726,0,0,1-5.16245,1.40241,73.84756,73.84756,0,0,1-9.006-.36891,37.54456,37.54456,0,0,0-7.36046.04772A11.25793,11.25793,0,0,0,16.63205,29.4868Z"/><path class="cls-2" d="M39.71068,29.84974a7.07322,7.07322,0,0,1-3.65441,1.47884c-2.00848.34729-4.02975.62-6.04114.95136a9.04871,9.04871,0,0,0-2.45686.78616,4.28721,4.28721,0,0,0-2.282,2.49152l-5.26349-3.67345a7.2182,7.2182,0,0,1,4.6579-2.27141,28.21774,28.21774,0,0,1,5.63818-.03176A65.00557,65.00557,0,0,0,39.71068,29.84974Z"/></svg>