<svg id="Слой_1" data-name="Слой 1" xmlns="http://www.w3.org/2000/svg" xmlns:xlink="http://www.w3.org/1999/xlink" viewBox="0 0 52 52"><defs><style>.cls-1{fill:url(#radial-gradient);}.cls-2{fill:#19468a;}</style><radialGradient id="radial-gradient" cx="-327.01989" cy="26.97994" r="25.43071" gradientTransform="matrix(0.08733, -0.99817, 2.08628, 0.08733, 6.44024, -301.79895)" gradientUnits="userSpaceOnUse"><stop offset="0" stop-color="#fff"/><stop offset="0.05388" stop-color="#cbf0fc"/><stop offset="0.11066" stop-color="#9de3f9"/><stop offset="0.16754" stop-color="#76d8f7"/><stop offset="0.22347" stop-color="#58cff5"/><stop offset="0.27818" stop-color="#42c9f4"/><stop offset="0.33114" stop-color="#35c5f3"/><stop offset="0.38037" stop-color="#31c4f3"/><stop offset="0.45114" stop-color="#29bdef"/><stop offset="0.55996" stop-color="#14a8e5"/><stop offset="0.63804" stop-color="#0096db"/></radialGradient></defs><title>X9</title><path class="cls-1" d="M6.21284,25.27654s-1.50626-1.9163,3.83361-7.46191l-.68454-.95822s-9.995,9.65317-4.9291,14.23976,19.85316,4.79189,29.43755.6842A79.24546,79.24546,0,0,0,49,23.49631l-.47894-1.09509S20.24719,36.64057,6.21284,25.27654Z"/><path class="cls-2" d="M38.95489,17.38953s-8.0621-7.53652-13.67051-6.66-5.66695,8.47072-4.79049,9.873,3.44669,5.37479,11.45045,5.84216c0,0-13.37809,4.43966-22.6087-1.05174,0,0,.93443-17.87766,20.03807-15.54069,0,0,5.31636.93474,10.16525,6.71813Z"/><path class="cls-2" d="M12.3058,35.819s13.76038,3.0122,29.8483-6.36669c0,0-3.01206,13.69214-16.49866,12.87066C25.65544,42.32292,16.96112,43.144,12.3058,35.819Z"/></svg>