<svg id="Слой_1" data-name="Слой 1" xmlns="http://www.w3.org/2000/svg" viewBox="0 0 52 52"><defs><style>.cls-1{fill:#0079b3;}.cls-2{fill:#004b86;}</style></defs><title>XK</title><path class="cls-1" d="M13.89916,21.93806c-.73853,1.16056-2.3211,2.69037-.94954,3.53441,1.1078.05275,1.89908.26376,1.89908,1.1078-.05275.94954-1.1078,1.00229-1.2133,1.63533-.211.844,1.055.94953,1.37156,1.52981-.05275.58028-1.055.73853-.89679,1.63532.31651.36928.68578.26376.94954.47477.844.79129-.422,1.79358-.52752,2.53211-.211,1.3188,2.05734,2.69037,3.74541,2.69037,3.79817,0,8.38762-2.3211,12.344.05275-1.47706.31652-5.01147-.15825-5.117,2.05734-.05275.633.79128,1.47706,1.16055,2.05733A18.31433,18.31433,0,0,1,29.46109,49c2.3211-8.54588,4.43119-18.19955,6.64679-27.16744C31.72944,19.93348,28.5643,17.0321,23.44733,15.555a16.92293,16.92293,0,0,0-6.594-.58028c0,.8968-.58027,1.16056-.633,1.79358-.05275.79128,1.26606,1.2133,1.89908,1.63532a3.10768,3.10768,0,0,1,1.42432,1.95185c-.633-.26377-.47477-.79129-1.47707-.844-.26376,0-.73853.26377-1.2133.31652-.36927.05276-1.00229-.58028-1.16055-.58028-.73853.211-1.42431,2.1101-1.79358,2.69036"/><path class="cls-1" d="M20.07118,6.53439a12.80758,12.80758,0,0,0-.94954,1.68808,28.08017,28.08017,0,0,1,3.4289.47477c6.54128,1.31881,9.0734,6.27752,14.55964,8.17661.79128-2.63762,1.58256-6.43579,2.26835-9.23165.211-.79129.36926-1.26606-.05275-1.79358-.79129-.68577-2.32111-.36927-2.95413-1.1078-.36927-.422-.05275-.844-.52753-1.00229C34.31431,3.211,32.73174,4.1078,31.72944,3c-.633.47477-1.95183.211-2.95412.31652-.68578.05275-1.31881.94953-1.79358,0-1.31881.15825-1.95184,1.68808-3.27065,1.68808-.26376,0-.58027-.26376-.844-.211-1.055,0-1.31881,1.79358-2.26835,2.11009-.36927-.05277-.26377-.52755-.52753-.36929"/><path class="cls-2" d="M23.39457,36.3922a7.09424,7.09424,0,0,1,2.69037-.31651,7.11415,7.11415,0,0,1,4.43119,1.1078,8.511,8.511,0,0,1-1.84633.211,13.30594,13.30594,0,0,0-2.11009.36928,1.6041,1.6041,0,0,0-1.055,1.95184,31.72329,31.72329,0,0,1-2.11009-3.32341"/></svg>