<svg id="Слой_1" data-name="Слой 1" xmlns="http://www.w3.org/2000/svg" viewBox="0 0 52 52"><defs><style>.cls-1{fill:#00b0aa;}</style></defs><title>XY</title><path id="_Составной_контур_" data-name="&lt;Составной контур&gt;" class="cls-1" d="M47.05041,27.582v.02522c0,1.68041-1.239,2.72447-3.23316,2.72447A5.74041,5.74041,0,0,1,40.495,29.27027a.87537.87537,0,0,1-.35378-.71006.86643.86643,0,0,1,.88324-.87041.907.907,0,0,1,.53937.17121,3.77736,3.77736,0,0,0,2.292.80656c.82287,0,1.31421-.32509,1.31421-.86989V27.772c0-.54577-.3899-.79566-1.8145-1.16034-1.65615-.42309-2.92338-.88919-2.92338-2.68787v-.02525c0-1.55918,1.26723-2.64779,3.08073-2.64779a5.14269,5.14269,0,0,1,2.80417.78231A.87447.87447,0,0,1,45.85,23.65157a.89939.89939,0,0,1-.479-.13606,3.74188,3.74188,0,0,0-1.88375-.60122c-.71306,0-1.17423.31669-1.17423.80607v.02574c0,.61457.41367.808,1.9412,1.19845,1.67841.43792,2.79623,1.05346,2.79623,2.6374m-21.5831-6.309a4.277,4.277,0,0,0-4.156,4.54441v3.54638a.94561.94561,0,0,0,1.89121,0V25.8174a2.29561,2.29561,0,1,1,4.535,0v3.54638a.94561.94561,0,0,0,1.89121,0V25.8174A4.2779,4.2779,0,0,0,25.46731,21.273m-4.82943.043a.946.946,0,0,0-1.26673.429L16.9,26.7541l-2.47806-5.00954a.94591.94591,0,0,0-1.69575.83869l3.11984,6.306-1.32413,2.6844a.94526.94526,0,1,0,1.69525.83676l4.85071-9.82813a.94585.94585,0,0,0-.43-1.26625M6.40932,23.368a.94388.94388,0,1,0,.94411.94465.94407.94407,0,0,0-.94411-.94465m1.42557-4.27721c-.0767-.002-.15537-.00743-.23255-.01187-.13262-.00792-.28305-.01683-.44485-.01683-2.49241,0-4.0224,1.54979-4.14956,4.1669A1.08847,1.08847,0,0,0,3,23.35668v5.974a.94536.94536,0,1,0,1.89072,0v-5.7429c0-2.36178,1.29445-2.63492,2.26677-2.63492.1049,0,.21474.00694.332.01337.097.00644.193.01136.29.01483a.94551.94551,0,1,0,.05542-1.89021m2.79179.02325a.94534.94534,0,0,0-.94511.94512v9.27146a.94535.94535,0,1,0,1.8907,0V20.05919a.94544.94544,0,0,0-.94559-.94512m24.267,2.1594a4.36466,4.36466,0,0,0-4.36828,4.45239l-.00051.03911v.05295l.00051.03908a4.356,4.356,0,0,0,4.37124,4.4529,5.22929,5.22929,0,0,0,.87089-.06237.94521.94521,0,1,0-.34837-1.85805,3.97787,3.97787,0,0,1-.52252.0292,2.45717,2.45717,0,0,1-2.48153-2.62749,2.48707,2.48707,0,1,1,4.96454.02673v3.54637a.94511.94511,0,1,0,1.89022,0V25.81792a4.37308,4.37308,0,0,0-4.37619-4.54445m13.26118,1.82541A.84357.84357,0,0,0,49,22.2562v-.00347a.83567.83567,0,0,0-.83924-.83825.84461.84461,0,0,0-.84512.84172v.00544a.83605.83605,0,0,0,.8392.83724m0-.13014a.69747.69747,0,0,1-.70511-.7071V22.2562a.70759.70759,0,1,1,1.41518-.00347v.00347a.70377.70377,0,0,1-.71007.71254m-.34342-.37163a.099.099,0,0,0,.09749.09749.10118.10118,0,0,0,.1-.09749v-.20485h.15983l.20881.25731a.08946.08946,0,0,0,.08311.045.0951.0951,0,0,0,.09055-.096.1011.1011,0,0,0-.02574-.0668L48.38,22.35417a.27536.27536,0,0,0,.1801-.27266V22.078a.26741.26741,0,0,0-.07421-.195.37745.37745,0,0,0-.2771-.09749h-.29987a.098.098,0,0,0-.09749.09749Zm.19746-.37459v-.26323h.19347c.09649,0,.15835.045.15835.13014v.005c0,.07372-.05346.12814-.15439.12814Z"/></svg>