<svg id="Слой_1" data-name="Слой 1" xmlns="http://www.w3.org/2000/svg" viewBox="0 0 52 52"><defs><style>.cls-1{fill:#e71b02;stroke:#e71b02;stroke-width:0.47035px;}</style></defs><title>YO</title><path class="cls-1" d="M41.8394,29.84669c-4.75055-1.81086-9.50109-1.05829-14.25165-.23518-4.4213.75257-8.81909,1.55216-13.26391,2.11658a18.05942,18.05942,0,0,1-5.12683-.3998,5.36587,5.36587,0,0,1-2.21065-1.29346c3.43357,1.62271,6.58492.61145,9.80683-.65849,3.83336-1.52865,7.64321-3.12784,11.57064-4.2802C33.89046,23.44991,38.14714,26.08388,41.8394,29.84669Z"/><path class="cls-1" d="M12.30133,22.81494A198.15165,198.15165,0,0,0,50,20.20448,109.99581,109.99581,0,0,1,12.30133,22.81494Z"/><path class="cls-1" d="M8.60907,26.954c-4.092-.96422-5.15034-.3998-6.5614,3.6217-.23517-2.02251.3998-3.59818,1.90492-4.32723A4.20046,4.20046,0,0,1,8.60907,26.954Z"/></svg>