<svg id="Слой_1" data-name="Слой 1" xmlns="http://www.w3.org/2000/svg" viewBox="0 0 52 52"><defs><style>.cls-1{fill:#254884;}.cls-1,.cls-2{fill-rule:evenodd;}.cls-2{fill:#38a5dd;}</style></defs><title>ZI</title><path class="cls-1" d="M42.603,21.47359c-2.13343-.5227-4.62108.67319-6.48081,1.77253-2.76134,1.63541-6.1536,5.05064-8.38992,7.57224-.84064.95049-5.56031,5.55432-6.85344,5.4155-1.16759-.12553-.48677-1.9147-.61993-2.86355-.0722-.525-.21675-1.34843-.69978-1.54418-.85565-.34822-1.77621,1.41667-2.14113,2.05188-.57432.99045-1.14094,2.217-2.27062,2.50435-1.27014.32327-2.22493-1.62006-2.727-2.70045-.44109-.96215-2.993-12.11306-8.3173-11.324C3.88592,22.3902,3,22.554,3,22.83162V26.9257c3.04635-.8596,4.84915,1.411,6.4386,4.82986a45.40523,45.40523,0,0,1,2.23632,6.36333,6.667,6.667,0,0,0,.70381,2.32523c.66555.77574,1.49085.3802,2.06886-.33226.94319-1.1663,1.58972-3.0167,2.96275-3.59272,1.42629-.59893,1.16759,2.20373,1.28146,3.1832.0686.563.27765,1.31971.86731,1.22084.84794-.14046,1.4642-1.22985,2.02317-1.89.67319-.79708,1.3654-1.57085,2.06157-2.33321A75.12018,75.12018,0,0,1,34.825,26.86843c1.373-.93352,2.97443-1.93,4.59449-1.93a2.53846,2.53846,0,0,1,.85564.13882c.32361.11217.27431.07992.46407-.26237.50607-.90324,1.00818-1.81051,1.51356-2.71538.11851-.2094.23633-.41648.3502-.62594"/><path class="cls-2" d="M46.14409,16.21594c-2.32789-.502-5.03591.65021-7.06284,1.71328-3.00871,1.57643-6.70159,4.87377-9.13565,7.30789-.92021.91654-1.76454,1.909-2.70774,2.79727-.95854.89922-2.533,2.56122-3.94025,2.4301-1.27417-.12157-.80642-2.14113-.95091-3.05569-.07991-.508-.23571-1.30274-.76442-1.49284-.92785-.33464-1.932,1.369-2.33116,1.98125-.62757.95656-.97381,2.43241-2.202,2.71006-1.38067.31365-2.42274-1.56511-2.96678-2.60717-.48275-.92991-1.76851-7.15373-3.89832-9.02117a6.81745,6.81745,0,0,0-5.98245-1.71525C3.96986,17.313,3,17.45179,3,17.7201v3.75949c3.31636-.82933,6.10034,1.36138,7.83059,4.66076a40.75509,40.75509,0,0,1,2.43809,6.14193c.228.69412.25868,1.71723.768,2.24594.7188.74743,1.62041.36526,2.25166-.32129,1.03075-1.12593,1.7306-2.91148,3.22514-3.46848,1.55542-.57828,1.27007,2.12777,1.39962,3.073.07221.54165.30029,1.2741.9432,1.17891.92424-.13521,1.59709-1.18859,2.2057-1.8255.73408-.77008,1.48718-1.51547,2.24757-2.2516,3.19854-3.10165,7.58357-7.21066,11.36072-9.48891a10.30239,10.30239,0,0,1,5.00127-1.86342,3.13262,3.13262,0,0,1,.93556.13283c.34959.11053.29633.07787.50607-.25106.55134-.8746,1.09866-1.74757,1.65-2.6202.12587-.20175.251-.40515.38088-.60657"/><path class="cls-1" d="M49,11.19c-2.47967-.50409-5.37022.65021-7.53031,1.7113a36.37963,36.37963,0,0,0-8.6679,6.25246c-.98111.91653-1.87869,1.911-2.88652,2.79931-1.02312.89759-2.70039,2.56122-4.20257,2.4284-1.35776-.12185-.85967-2.13943-1.01179-3.056-.08359-.50573-.251-1.30076-.81371-1.49087-.99277-.33457-2.0615,1.369-2.48731,1.98166-.66555.95615-1.03443,2.43208-2.3465,2.70775-1.47593.31358-2.58256-1.56314-3.16459-2.60725-.517-.92785-2.95873-6.09829-5.22935-7.96376a7.59758,7.59758,0,0,0-6.378-1.71525C4.03443,12.287,3,12.42583,3,12.69585v3.75779c3.53674-.82933,7.57586.306,9.42032,3.60533a39.17752,39.17752,0,0,1,2.60158,6.14227c.24335.69384.27363,1.717.81767,2.24361.768.74949,1.7306.36725,2.39976-.32121,1.099-1.12566,1.84842-2.91121,3.44189-3.46651,1.6543-.57834,1.354,2.12777,1.49086,3.071.07991.544.31958,1.27614,1.00777,1.18089.98513-.13514,1.70032-1.1886,2.35052-1.82544.7797-.77009,1.5821-1.51554,2.39608-2.25364a62.953,62.953,0,0,1,11.037-8.4315A11.46082,11.46082,0,0,1,45.3031,14.535a3.5448,3.5448,0,0,1,.99679.13282c.37222.11053.31563.07821.536-.251q.879-1.31192,1.76128-2.62218c.13248-.20142.26967-.40317.40283-.60459"/></svg>