<svg id="Слой_1" data-name="Слой 1" xmlns="http://www.w3.org/2000/svg" viewBox="0 0 18 18"><defs><style>.cls-1,.cls-2{fill:none;}.cls-1,.cls-2,.cls-4,.cls-5{stroke:#323232;stroke-width:2px;}.cls-1,.cls-2,.cls-4{stroke-linecap:round;}.cls-1,.cls-4{stroke-linejoin:round;}.cls-2,.cls-5{stroke-miterlimit:10;}.cls-3,.cls-4,.cls-5{fill:#323232;}</style></defs><title>adults</title><polyline class="cls-1" points="10 8 7 4 4 4 1 9"/><line class="cls-2" x1="7" y1="17" x2="7" y2="11"/><line class="cls-2" x1="4" y1="17" x2="4" y2="11"/><circle class="cls-3" cx="5.5" cy="1.5" r="1.5"/><rect class="cls-4" x="4" y="5" width="3" height="6"/><line class="cls-2" x1="15" y1="17" x2="15" y2="12"/><line class="cls-2" x1="12" y1="17" x2="12" y2="12"/><circle class="cls-3" cx="13.5" cy="2.5" r="1.5"/><polygon class="cls-5" points="16 12 11 12 13.2 7 13.8 7 16 12"/><polyline class="cls-1" points="10 8 13 5 14 5 17 8"/><polygon class="cls-4" points="15 6 12 6 13 7 14 7 15 6"/></svg>