<svg id="Слой_1" data-name="Слой 1" xmlns="http://www.w3.org/2000/svg" viewBox="0 0 44 44"><defs><style>.cls-1,.cls-2{fill:none;stroke:#323232;stroke-linejoin:round;stroke-width:2px;}.cls-1{stroke-linecap:round;}</style></defs><title>baggage_44</title><rect class="cls-1" x="2.99998" y="21" width="34.00002" height="22" rx="2"/><rect class="cls-1" x="34" y="29" width="9" height="6" rx="1"/><line class="cls-1" x1="27.99998" y1="14" x2="27.99998" y2="10"/><rect class="cls-1" x="11.99999" y="1.00002" width="16" height="21.99997" rx="4" transform="translate(7.99999 31.99999) rotate(-90)"/><path class="cls-1" d="M18,1h3a1,1,0,0,1,1,1V2a2,2,0,0,1-2,2H19a2,2,0,0,1-2-2V2A1,1,0,0,1,18,1Z" transform="translate(39 5) rotate(-180)"/><polygon class="cls-1" points="23 7 19 9 21 11 25 9 23 7"/><rect class="cls-1" x="11.99998" y="8" width="3" height="6"/><rect class="cls-1" x="19.99998" y="14" width="4" height="3"/><circle class="cls-1" cx="1.99998" cy="39" r="1"/><circle class="cls-1" cx="1.99998" cy="25" r="1"/><line class="cls-2" x1="30.99998" y1="29" x2="30.99998" y2="30"/><line class="cls-2" x1="30.99998" y1="31" x2="30.99998" y2="33"/><line class="cls-2" x1="30.99998" y1="34" x2="30.99998" y2="35"/><path class="cls-1" d="M3,24H5a1,1,0,0,0,1-1V21"/><path class="cls-1" d="M34,21v2a1,1,0,0,0,1,1h2"/><path class="cls-1" d="M37,40H35a1,1,0,0,0-1,1v2"/><path class="cls-1" d="M6,43V41a1,1,0,0,0-1-1H3"/><path class="cls-2" d="M30,21v1a2,2,0,0,1-2,2H12a2,2,0,0,1-2-2V21"/><path class="cls-2" d="M10,43V42a2,2,0,0,1,2-2H28a2,2,0,0,1,2,2v1"/><line class="cls-1" x1="6.99998" y1="28" x2="6.99998" y2="36"/><line class="cls-1" x1="10.99998" y1="28" x2="10.99998" y2="36"/><line class="cls-1" x1="14.99998" y1="28" x2="14.99998" y2="36"/><line class="cls-1" x1="18.99998" y1="28" x2="18.99998" y2="36"/><line class="cls-1" x1="22.99998" y1="28" x2="22.99998" y2="36"/><line class="cls-1" x1="26.99998" y1="28" x2="26.99998" y2="36"/></svg>