<svg id="Слой_1" data-name="Слой 1" xmlns="http://www.w3.org/2000/svg" viewBox="0 0 18 18"><defs><style>.cls-1,.cls-2{fill:none;stroke:#1964f5;stroke-linecap:round;stroke-width:2px;}.cls-1{stroke-linejoin:round;}.cls-2{stroke-miterlimit:10;}.cls-3{fill:#1964f5;}</style></defs><title>bathB</title><path class="cls-1" d="M16,11v3a2.00583,2.00583,0,0,1-2,2H7V11Z"/><line class="cls-1" x1="14" y1="16" x2="14" y2="17"/><line class="cls-2" x1="16" y1="11" x2="17" y2="11"/><rect class="cls-1" x="1" y="1" width="3" height="16"/><rect class="cls-1" x="4" y="1" width="3" height="16"/><path class="cls-1" d="M11,4V3.5A2.5,2.5,0,0,1,13.5,1h0A2.5,2.5,0,0,1,16,3.5V11"/><line class="cls-1" x1="10" y1="4" x2="13" y2="4"/><circle class="cls-3" cx="9.5" cy="6.5" r="0.5"/><circle class="cls-3" cx="11.5" cy="6.5" r="0.5"/><circle class="cls-3" cx="13.5" cy="6.5" r="0.5"/><circle class="cls-3" cx="12.5" cy="8.5" r="0.5"/><circle class="cls-3" cx="10.5" cy="8.5" r="0.5"/></svg>