<svg id="Слой_1" data-name="Слой 1" xmlns="http://www.w3.org/2000/svg" viewBox="0 0 18 18"><defs><style>.cls-1{fill:#323232;}.cls-1,.cls-2{stroke:#323232;stroke-linecap:round;stroke-linejoin:round;stroke-width:2px;}.cls-2{fill:none;}</style></defs><title>beach</title><circle class="cls-1" cx="9" cy="7" r="2"/><line class="cls-2" x1="9" y1="2" x2="9" y2="1"/><line class="cls-2" x1="12.53554" y1="3.46447" x2="13.24264" y2="2.75736"/><line class="cls-2" x1="14" y1="7" x2="15" y2="7"/><line class="cls-2" x1="3" y1="7" x2="4" y2="7"/><line class="cls-2" x1="4.75736" y1="2.75736" x2="5.46447" y2="3.46447"/><path class="cls-2" d="M1,12c1,0,1,1,2,1s2-1,3-1,2,1,3,1,2-1,3-1,2,1,3,1,1-1,2-1"/><path class="cls-2" d="M1,16c1,0,1,1,2,1s2-1,3-1,2,1,3,1,2-1,3-1,2,1,3,1,1-1,2-1"/></svg>