<svg id="Слой_1" data-name="Слой 1" xmlns="http://www.w3.org/2000/svg" viewBox="0 0 18 18"><defs><style>.cls-1{fill:none;}.cls-1,.cls-2{stroke:#1964f5;stroke-linecap:round;stroke-linejoin:round;stroke-width:2px;}.cls-2,.cls-3{fill:#1964f5;}</style></defs><title>callCenterB</title><path class="cls-1" d="M3,7C3,3,5.134,1,9,1s6,2,6,6"/><path class="cls-1" d="M16,12c-.0002,4-2.00025,4.99965-5,5"/><path class="cls-2" d="M17,7h0a0,0,0,0,1,0,0v5a0,0,0,0,1,0,0h0a2,2,0,0,1-2-2V9A2,2,0,0,1,17,7Z" transform="translate(32 19) rotate(-180)"/><path class="cls-2" d="M3,7H3A0,0,0,0,1,3,7v5a0,0,0,0,1,0,0H3a2,2,0,0,1-2-2V9A2,2,0,0,1,3,7Z"/><rect class="cls-1" x="10" y="16" width="1" height="1" rx="0.5"/><path class="cls-1" d="M11.00625,11.00208A2.28491,2.28491,0,0,1,9,12a2.18466,2.18466,0,0,1-1.96875-.99792"/><circle class="cls-3" cx="7" cy="7" r="1"/><circle class="cls-3" cx="11" cy="7" r="1"/></svg>