<svg id="Слой_1" data-name="Слой 1" xmlns="http://www.w3.org/2000/svg" viewBox="0 0 18 18"><defs><style>.cls-1,.cls-3{fill:none;stroke:#fff;stroke-linejoin:round;stroke-width:2px;}.cls-1{stroke-linecap:round;}.cls-2{fill:#fff;}</style></defs><title>cameraW</title><circle class="cls-1" cx="10" cy="9.65426" r="3"/><path class="cls-1" d="M14,4.65426h1a2,2,0,0,1,2,2v7a2,2,0,0,1-2,2H3a2,2,0,0,1-2-2v-7a2,2,0,0,1,2-2H6a9.61294,9.61294,0,0,1,2-2,6.64407,6.64407,0,0,1,4,0A11.29131,11.29131,0,0,1,14,4.65426Z"/><circle class="cls-2" cx="4" cy="7.65426" r="1"/><rect class="cls-3" x="3" y="3.65426" width="2" height="1"/></svg>