<svg id="Слой_1" data-name="Слой 1" xmlns="http://www.w3.org/2000/svg" viewBox="0 0 44 44"><defs><style>.cls-1,.cls-2{fill:none;stroke:#403e3e;stroke-linejoin:round;stroke-width:2px;}.cls-1{stroke-linecap:round;}</style></defs><title>cardPayment</title><path class="cls-1" d="M38,28V41a2,2,0,0,1-2,2H8a2,2,0,0,1-2-2V28"/><line class="cls-2" x1="34.99999" y1="30" x2="34.99999" y2="32"/><line class="cls-2" x1="34.99999" y1="27" x2="34.99999" y2="29"/><line class="cls-2" x1="34.99999" y1="33" x2="34.99999" y2="35"/><line class="cls-2" x1="34.99999" y1="36" x2="34.99999" y2="38"/><line class="cls-2" x1="34.99999" y1="39" x2="34.99999" y2="41"/><line class="cls-2" x1="8.99999" y1="30" x2="8.99999" y2="32"/><line class="cls-2" x1="8.99999" y1="27" x2="8.99999" y2="29"/><line class="cls-2" x1="8.99999" y1="33" x2="8.99999" y2="35"/><line class="cls-2" x1="8.99999" y1="36" x2="8.99999" y2="38"/><line class="cls-2" x1="8.99999" y1="39" x2="8.99999" y2="41"/><line class="cls-1" x1="21.99999" y1="35" x2="21.99999" y2="37"/><rect class="cls-2" x="3.99999" y="1" width="36" height="24" rx="2"/><line class="cls-2" x1="34.99999" y1="12" x2="29.99999" y2="12"/><line class="cls-2" x1="13.99999" y1="12" x2="8.99999" y2="12"/><line class="cls-2" x1="20.99999" y1="12" x2="15.99999" y2="12"/><line class="cls-2" x1="27.99999" y1="12" x2="22.99999" y2="12"/><rect class="cls-2" x="23.99999" y="17" width="10" height="4"/><line class="cls-2" x1="3.99999" y1="8" x2="39.99999" y2="8"/><line class="cls-2" x1="3.99999" y1="5" x2="39.99999" y2="5"/><path class="cls-2" d="M18,43V36a4,4,0,0,1,4-4h0a4,4,0,0,1,4,4v7"/></svg>