<svg id="Слой_1" data-name="Слой 1" xmlns="http://www.w3.org/2000/svg" viewBox="0 0 18 18"><defs><style>.cls-1{fill:none;stroke:#1964f5;stroke-linecap:round;stroke-linejoin:round;stroke-width:2px;}</style></defs><title>carryonB</title><line class="cls-1" x1="8" y1="7" x2="10" y2="7"/><rect class="cls-1" x="7" y="10" width="4" height="4"/><line class="cls-1" x1="14" y1="11" x2="11" y2="11"/><line class="cls-1" x1="7" y1="11" x2="4" y2="11"/><path class="cls-1" d="M10.00341,1H7.99659A.99659.99659,0,0,0,7,1.99659V4h4V1.99659A.99659.99659,0,0,0,10.00341,1Z"/><path class="cls-1" d="M7.99545,4h2.00909A3.99545,3.99545,0,0,1,14,7.99545V15a2,2,0,0,1-2,2H6a2,2,0,0,1-2-2V7.99545A3.99545,3.99545,0,0,1,7.99545,4Z"/></svg>