<svg id="Слой_1" data-name="Слой 1" xmlns="http://www.w3.org/2000/svg" viewBox="0 0 18 18"><defs><style>.cls-1{fill:none;stroke:#323232;stroke-linecap:round;stroke-linejoin:round;stroke-width:2px;}</style></defs><title>country</title><circle class="cls-1" cx="9" cy="9" r="8"/><path class="cls-1" d="M2,7C3,6,6,5,6,6A3.67367,3.67367,0,0,1,5,9c-1,1,0,1,0,2s-1,2,0,2,4,0,4,1-2,2-3,2"/><path class="cls-1" d="M14,15c-1,0-1-2-2-2s-1-1,0-2,0-1-1-2,0-3,1-3,1,1,2,1h2"/><path class="cls-1" d="M7,2A2.15078,2.15078,0,0,0,9,4a2.15078,2.15078,0,0,0,2-2"/></svg>