<svg id="Слой_1" data-name="Слой 1" xmlns="http://www.w3.org/2000/svg" viewBox="0 0 18 18"><defs><style>.cls-1,.cls-2{fill:none;stroke:#1964f5;stroke-linejoin:round;stroke-width:2px;}.cls-2{stroke-linecap:round;}.cls-3{fill:#1964f5;}</style></defs><title>dateStartB</title><polyline class="cls-1" points="15 3 17 3 17 17 1 17 1 3 3 3"/><line class="cls-1" x1="7.00004" y1="3" x2="11" y2="3"/><line class="cls-2" x1="5" y1="1" x2="5" y2="4"/><line class="cls-2" x1="13" y1="1" x2="13" y2="4"/><rect class="cls-3" x="13" y="6.9998" width="2" height="2" transform="translate(28 15.9996) rotate(-180)"/><rect class="cls-3" x="10" y="6.9998" width="2" height="2" transform="translate(22 15.9996) rotate(-180)"/><rect class="cls-3" x="7" y="6.9998" width="2" height="2" transform="translate(16 15.9996) rotate(-180)"/><rect class="cls-3" x="2.99999" y="5.99979" width="3" height="3" rx="1.5" transform="translate(8.99997 14.99958) rotate(-180)"/><rect class="cls-3" x="13" y="9.9998" width="2" height="2" transform="translate(28 21.9996) rotate(-180)"/><rect class="cls-3" x="10" y="9.9998" width="2" height="2" transform="translate(22 21.9996) rotate(-180)"/><rect class="cls-3" x="7" y="9.9998" width="2" height="2" transform="translate(16 21.9996) rotate(-180)"/><rect class="cls-3" x="4" y="9.9998" width="2" height="2" transform="translate(10 21.9996) rotate(-180)"/><rect class="cls-3" x="13" y="12.9998" width="2" height="2" transform="translate(28 27.9996) rotate(-180)"/><rect class="cls-3" x="10" y="12.9998" width="2" height="2" transform="translate(22 27.9996) rotate(-180)"/><rect class="cls-3" x="7" y="12.9998" width="2" height="2" transform="translate(16 27.9996) rotate(-180)"/><rect class="cls-3" x="4" y="12.9998" width="2" height="2" transform="translate(10 27.9996) rotate(-180)"/></svg>