<svg id="Слой_1" data-name="Слой 1" xmlns="http://www.w3.org/2000/svg" viewBox="0 0 18 18"><defs><style>.cls-1,.cls-2{fill:none;stroke:#323232;stroke-linejoin:round;stroke-width:2px;}.cls-2{stroke-linecap:round;}.cls-3{fill:#323232;}</style></defs><title>date</title><polyline class="cls-1" points="15 3 17 3 17 17 1 17 1 3 3 3"/><line class="cls-1" x1="7.00004" y1="3" x2="11" y2="3"/><line class="cls-2" x1="5" y1="1" x2="5" y2="4"/><line class="cls-2" x1="13" y1="1" x2="13" y2="4"/><rect class="cls-3" x="2.99999" y="6.9998" width="2" height="2"/><rect class="cls-3" x="5.99999" y="6.9998" width="2" height="2"/><rect class="cls-3" x="8.99999" y="6.9998" width="2" height="2"/><rect class="cls-3" x="12" y="5.99979" width="3" height="3"/><rect class="cls-3" x="2.99999" y="9.9998" width="2" height="2"/><rect class="cls-3" x="5.99999" y="9.9998" width="2" height="2"/><rect class="cls-3" x="8.99999" y="9.9998" width="2" height="2"/><rect class="cls-3" x="11.99999" y="9.9998" width="2" height="2"/><rect class="cls-3" x="2.99999" y="12.9998" width="2" height="2"/><rect class="cls-3" x="5.99999" y="12.9998" width="2" height="2"/><rect class="cls-3" x="8.99999" y="12.9998" width="2" height="2"/><rect class="cls-3" x="11.99999" y="12.9998" width="2" height="2"/></svg>