<svg id="Слой_1" data-name="Слой 1" xmlns="http://www.w3.org/2000/svg" viewBox="0 0 18 18"><defs><style>.cls-1{fill:none;stroke:#fff;stroke-linecap:round;stroke-linejoin:round;stroke-width:2px;}</style></defs><title>divingW</title><path class="cls-1" d="M17,1V11a6.45235,6.45235,0,0,1-6,6H8"/><path class="cls-1" d="M11,14a2.17213,2.17213,0,0,1-1.93441-.72127C8.82157,12.94165,8.37684,12.1765,8,12a1.6115,1.6115,0,0,0-1,0c-.37685.17651-.82158.94166-1.06561,1.27873A2.17206,2.17206,0,0,1,4,14a3.193,3.193,0,0,1-3-3V10A3.193,3.193,0,0,1,4,7h7a3.193,3.193,0,0,1,3,3v1A3.193,3.193,0,0,1,11,14Z"/><rect class="cls-1" x="7" y="16" width="1" height="1"/><path class="cls-1" d="M1,3C2,3,2,4,3,4S5,3,6,3,8,4,9,4s2-1,3-1,1,1,2,1"/></svg>