<svg id="Слой_1" data-name="Слой 1" xmlns="http://www.w3.org/2000/svg" xmlns:xlink="http://www.w3.org/1999/xlink" viewBox="0 0 24 14"><defs><style>.cls-1{fill:none;}.cls-2{clip-path:url(#clip-path);}.cls-3{fill:#d00027;}.cls-4{fill:#fff;}</style><clipPath id="clip-path"><rect class="cls-1" width="24" height="14"/></clipPath></defs><title>flag_turkey</title><g class="cls-2"><rect class="cls-3" width="24" height="14"/><g class="cls-2"><path class="cls-4" d="M7.00367,3.51613a3.48547,3.48547,0,1,1-3.51,3.51343,3.50645,3.50645,0,0,1,3.51-3.51343"/><path class="cls-3" d="M7.88475,4.24447A2.77385,2.77385,0,0,1,10.6796,7.02956a2.80155,2.80155,0,0,1-5.60306,0A2.7742,2.7742,0,0,1,7.88475,4.24447"/><polygon class="cls-4" points="9.965 7.03 11.635 7.518 11.895 6.728 9.965 7.03"/><polygon class="cls-4" points="9.965 7.03 11.635 6.485 11.895 7.275 9.965 7.03"/><polygon class="cls-4" points="11.165 5.334 11.165 7.095 12.031 7.095 11.165 5.334"/><polygon class="cls-4" points="11.165 5.334 12.183 6.793 11.499 7.275 11.165 5.334"/><polygon class="cls-4" points="11.165 8.669 12.183 7.275 11.499 6.793 11.165 8.669"/><polygon class="cls-4" points="11.165 8.669 11.165 6.908 12.031 6.908 11.165 8.669"/><polygon class="cls-4" points="13.124 6 11.456 6.547 11.727 7.334 13.124 6"/><polygon class="cls-4" points="13.124 6 12.077 7.397 11.393 6.849 13.124 6"/><polygon class="cls-4" points="13.124 8.06 12.077 6.606 11.393 7.154 13.124 8.06"/><polygon class="cls-4" points="13.124 8.06 11.456 7.518 11.727 6.666 13.124 8.06"/></g></g></svg>