<svg id="Слой_1" data-name="Слой 1" xmlns="http://www.w3.org/2000/svg" viewBox="0 0 44 44"><defs><style>.cls-1{fill:none;stroke:#1964f5;stroke-linecap:round;stroke-linejoin:round;stroke-width:2px;}</style></defs><title>flightTime_44B</title><line class="cls-1" x1="2.99998" y1="22" x2="4.99998" y2="22"/><line class="cls-1" x1="38.99998" y1="22" x2="41.99998" y2="22"/><line class="cls-1" x1="8.99998" y1="35" x2="8.99998" y2="35"/><line class="cls-1" x1="34.99998" y1="9" x2="34.99998" y2="9"/><line class="cls-1" x1="8.99998" y1="9" x2="8.99998" y2="9"/><line class="cls-1" x1="34.99998" y1="35" x2="34.99998" y2="35"/><line class="cls-1" x1="21.99998" y1="41" x2="21.99998" y2="39"/><line class="cls-1" x1="21.99998" y1="5.00005" x2="21.99998" y2="3"/><polyline class="cls-1" points="24.011 17.005 12.015 14.976 9.008 17.969 17.999 21.991"/><polyline class="cls-1" points="27.004 20.012 28.975 32.017 25.968 35.009 21.989 26"/><path class="cls-1" d="M13.97993,29.98108l1.99054,4.00469,2.00472-1.99525.00709-3L31.013,16.02127s2.25464-2.74654,1.00945-3.99762-4.00235.99055-4.00235.99055L14.98937,25.98345l-3-.00708L9.98466,27.97164l3.99527,2.00944"/><line class="cls-1" x1="14.98229" y1="28.98344" x2="11.97521" y2="31.97635"/><line class="cls-1" x1="27.99406" y1="24.01417" x2="28.99642" y2="23.01653"/><line class="cls-1" x1="28.98461" y1="28.01652" x2="29.98697" y2="27.01888"/><line class="cls-1" x1="16.01535" y1="14.98585" x2="17.01771" y2="13.98821"/><line class="cls-1" x1="20.01298" y1="15.99529" x2="21.01534" y2="14.99766"/><circle class="cls-1" cx="21.99998" cy="22" r="19"/><polyline class="cls-1" points="8.019 35.026 10.97 43 32.97 43.052 36.019 35.026"/><polyline class="cls-1" points="36 8.993 33.048 1.019 11.048 0.967 8 8.993"/><rect class="cls-1" x="40.99998" y="20" width="2" height="4"/><rect class="cls-1" x="0.99998" y="20" width="2" height="4"/></svg>