<svg id="Слой_1" data-name="Слой 1" xmlns="http://www.w3.org/2000/svg" viewBox="0 0 44 44"><defs><style>.cls-1{fill:none;}.cls-1,.cls-3{stroke:#fff;stroke-linecap:round;stroke-linejoin:round;stroke-width:2px;}.cls-2,.cls-3{fill:#fff;}</style></defs><title>flight_44W</title><polyline class="cls-1" points="8 22 5 16 8 16 11 19 38 19 39 20 41 21 41 22 40 23 38 24 27 24"/><line class="cls-1" x1="18.99998" y1="24" x2="9.99998" y2="24"/><path class="cls-1" d="M21,19l-4-4h4l8,4"/><path class="cls-1" d="M16,28l5-6h8l-8,6Z"/><line class="cls-1" x1="25.99998" y1="26" x2="23.99998" y2="26"/><circle class="cls-2" cx="31.49998" cy="21.5" r="0.5"/><circle class="cls-2" cx="33.49998" cy="21.5" r="0.5"/><circle class="cls-2" cx="35.49998" cy="21.5" r="0.5"/><circle class="cls-2" cx="16.49998" cy="21.5" r="0.5"/><circle class="cls-2" cx="18.49998" cy="21.5" r="0.5"/><circle class="cls-2" cx="14.49998" cy="21.5" r="0.5"/><polygon class="cls-1" points="8 22 5 25 8 25 12 22 8 22"/><line class="cls-1" x1="37.99998" y1="21" x2="39.99998" y2="21"/><path class="cls-1" d="M19,10a2.39733,2.39733,0,0,0-2-4,10.08214,10.08214,0,0,0-3.001,1A3.49035,3.49035,0,0,0,15,5a2.15078,2.15078,0,0,0-2-2,3.49137,3.49137,0,0,0-2,1A4.69574,4.69574,0,0,0,6.5,1C4,1,1,3,1,6"/><path class="cls-1" d="M7.92088,5.79078a1.812,1.812,0,0,0-3.53553.70711"/><circle class="cls-3" cx="35.99998" cy="8" r="2"/><line class="cls-1" x1="35.99998" y1="3" x2="35.99998" y2="1"/><line class="cls-1" x1="35.99998" y1="15" x2="35.99998" y2="13"/><line class="cls-1" x1="39.99998" y1="4" x2="40.99998" y2="3"/><line class="cls-1" x1="40.99998" y1="8" x2="42.99998" y2="8"/><line class="cls-1" x1="28.99998" y1="8" x2="30.99998" y2="8"/><line class="cls-1" x1="30.99998" y1="3" x2="31.99998" y2="4"/><line class="cls-1" x1="39.99998" y1="12" x2="40.99998" y2="13"/><line class="cls-1" x1="30.99998" y1="13" x2="31.99998" y2="12"/><path class="cls-1" d="M26,42c2,0,2,1,3,1s2-1,3-1,2,1,3,1,2-1,3-1,2,1,3,1,1-1,2-1"/><polyline class="cls-1" points="15 43 8 30 1 43"/><polyline class="cls-1" points="14 40 19 33 25 43"/><line class="cls-1" x1="0.99998" y1="43" x2="25.99998" y2="43"/><path class="cls-1" d="M24,39a3.49137,3.49137,0,0,1,2-1c2,0,2,1,3,1s2-1,3-1,2,1,3,1,2-1,3-1,2,1,3,1,1-1,2-1"/><polyline class="cls-1" points="5 36 7 38 8 37 10 38 11 37"/><polyline class="cls-1" points="16 38 17 39 19 38 20 39 21 38"/></svg>