<svg id="Слой_1" data-name="Слой 1" xmlns="http://www.w3.org/2000/svg" viewBox="0 0 18 18"><defs><style>.cls-1{fill:#fff;}</style></defs><title>googlePlusW</title><path class="cls-1" d="M.00351,9.0073A5.681,5.681,0,0,1,5.42619,3.29807,5.7186,5.7186,0,0,1,9.53282,4.70684c-.467.51351-.94222,1.02109-1.4498,1.49628a4.01653,4.01653,0,0,0-3.38049-.66087,3.612,3.612,0,1,0,2.43282,6.7961,3.16,3.16,0,0,0,1.85676-2.16507c-1.09205-.02176-2.18435-.00816-3.2764-.03832C5.713,9.48522,5.71027,8.83794,5.713,8.1882c1.82116-.00272,3.645-.00816,5.46892.00816a6.46256,6.46256,0,0,1-1.15782,4.57342A5.64028,5.64028,0,0,1,3.8587,14.41342,5.71545,5.71545,0,0,1,.00351,9.0073ZM14.73175,6.54975h1.62436c.003.54343.00816,1.08958.01113,1.63276.54318.00544,1.08933.00816,1.63276.01088V9.82071l-1.63276.00816c-.00544.54615-.00816,1.08934-.01113,1.63549-.54318-.00272-1.08686,0-1.62732,0-.0052-.54615-.0052-1.08934-.01088-1.63277-.54318-.00568-1.08933-.00816-1.63276-.01112V8.19314q.81514-.00408,1.63276-.01087C14.72063,7.63933,14.72607,7.09318,14.73175,6.54975Z"/></svg>