<svg id="Слой_1" data-name="Слой 1" xmlns="http://www.w3.org/2000/svg" viewBox="0 0 44 44"><defs><style>.cls-1,.cls-2{fill:none;stroke:#403e3e;stroke-linejoin:round;stroke-width:2px;}.cls-1{stroke-linecap:round;}</style></defs><title>hotel_44</title><line class="cls-1" x1="0.99998" y1="43" x2="8.99998" y2="43"/><line class="cls-1" x1="15.99998" y1="33" x2="27.99998" y2="33"/><line class="cls-1" x1="16.99998" y1="36" x2="26.99998" y2="36"/><line class="cls-1" x1="19.99998" y1="39" x2="23.99998" y2="39"/><line class="cls-2" x1="26.99998" y1="33" x2="26.99998" y2="43"/><line class="cls-2" x1="16.99998" y1="33" x2="16.99998" y2="43"/><line class="cls-1" x1="19.99998" y1="39" x2="19.99998" y2="43"/><line class="cls-1" x1="23.99998" y1="39" x2="23.99998" y2="43"/><rect class="cls-2" x="23.99998" y="9" width="4" height="4"/><rect class="cls-2" x="23.99998" y="17" width="4" height="4"/><rect class="cls-2" x="23.99998" y="25" width="4" height="4"/><rect class="cls-2" x="15.99998" y="9" width="4" height="4"/><rect class="cls-2" x="15.99998" y="17" width="4" height="4"/><rect class="cls-2" x="15.99998" y="25" width="4" height="4"/><rect class="cls-2" x="11.99998" y="5" width="20" height="38"/><line class="cls-1" x1="4.99998" y1="43" x2="4.99998" y2="36"/><path class="cls-2" d="M1,35c0,3,1,4,4,4s4-1,4-4-2-5-4-5S1,32,1,35Z"/><line class="cls-2" x1="5.99998" y1="26" x2="3.99998" y2="26"/><line class="cls-2" x1="5.99998" y1="23" x2="3.99998" y2="23"/><line class="cls-2" x1="5.99998" y1="20" x2="3.99998" y2="20"/><line class="cls-2" x1="5.99998" y1="17" x2="3.99998" y2="17"/><line class="cls-2" x1="8.99998" y1="26" x2="6.99998" y2="26"/><line class="cls-2" x1="8.99998" y1="23" x2="6.99998" y2="23"/><line class="cls-2" x1="8.99998" y1="20" x2="6.99998" y2="20"/><line class="cls-2" x1="8.99998" y1="17" x2="6.99998" y2="17"/><line class="cls-2" x1="14.99998" y1="1" x2="12.99998" y2="1"/><line class="cls-2" x1="18.99998" y1="1" x2="16.99998" y2="1"/><line class="cls-2" x1="22.99998" y1="1" x2="20.99998" y2="1"/><line class="cls-2" x1="26.99998" y1="1" x2="24.99998" y2="1"/><line class="cls-2" x1="30.99998" y1="1" x2="28.99998" y2="1"/><polyline class="cls-1" points="12 13 1 13 1 28"/><line class="cls-1" x1="4.99998" y1="11" x2="4.99998" y2="13"/><line class="cls-1" x1="42.99998" y1="43" x2="34.99998" y2="43"/><line class="cls-1" x1="38.99998" y1="43" x2="38.99998" y2="36"/><path class="cls-2" d="M43,35c0,3-1,4-4,4s-4-1-4-4,2-5,4-5S43,32,43,35Z"/><line class="cls-2" x1="37.99998" y1="26" x2="39.99998" y2="26"/><line class="cls-2" x1="37.99998" y1="23" x2="39.99998" y2="23"/><line class="cls-2" x1="37.99998" y1="20" x2="39.99998" y2="20"/><line class="cls-2" x1="37.99998" y1="17" x2="39.99998" y2="17"/><line class="cls-2" x1="34.99998" y1="26" x2="36.99998" y2="26"/><line class="cls-2" x1="34.99998" y1="23" x2="36.99998" y2="23"/><line class="cls-2" x1="34.99998" y1="20" x2="36.99998" y2="20"/><line class="cls-2" x1="34.99998" y1="17" x2="36.99998" y2="17"/><polyline class="cls-1" points="32 13 43 13 43 28"/><line class="cls-1" x1="38.99998" y1="11" x2="38.99998" y2="13"/></svg>