<svg id="Слой_1" data-name="Слой 1" xmlns="http://www.w3.org/2000/svg" viewBox="0 0 18 18"><defs><style>.cls-1,.cls-3,.cls-4{fill:none;stroke:#323232;stroke-width:2px;}.cls-1,.cls-4{stroke-miterlimit:10;}.cls-2{fill:#323232;}.cls-3,.cls-4{stroke-linecap:round;}.cls-3{stroke-linejoin:round;}</style></defs><title>hotel</title><rect class="cls-1" x="3" y="4" width="12" height="13"/><rect class="cls-2" x="4.99999" y="6.00001" width="2" height="2"/><rect class="cls-2" x="1.99999" y="0.00001" width="2" height="2"/><rect class="cls-2" x="4.99999" y="0.00001" width="2" height="2"/><rect class="cls-2" x="7.99999" y="0.00001" width="2" height="2"/><rect class="cls-2" x="10.99999" y="0.00001" width="2" height="2"/><rect class="cls-2" x="13.99999" y="0.00001" width="2" height="2"/><rect class="cls-2" x="7.99999" y="6.00001" width="2" height="2"/><rect class="cls-2" x="10.99999" y="6.00001" width="2" height="2"/><rect class="cls-2" x="4.99999" y="9.00001" width="2" height="2"/><rect class="cls-2" x="7.99999" y="9.00001" width="2" height="2"/><rect class="cls-2" x="10.99999" y="9.00001" width="2" height="2"/><rect class="cls-3" x="6.99997" y="12.99986" width="4" height="4"/><rect class="cls-4" x="1" y="15" width="1" height="2"/><rect class="cls-4" x="16" y="15" width="1" height="2"/></svg>