<svg id="Слой_1" data-name="Слой 1" xmlns="http://www.w3.org/2000/svg" viewBox="0 0 44 44"><defs><style>.cls-1,.cls-2{fill:none;stroke:#fff;stroke-linejoin:round;stroke-width:2px;}.cls-1{stroke-linecap:round;}</style></defs><title>infrastructureW</title><polyline class="cls-1" points="11 43 2 43 2 1 17 1 17 32"/><line class="cls-1" x1="38.99987" y1="11.99988" x2="38.99987" y2="4.99988"/><line class="cls-2" x1="3.99987" y1="6.99988" x2="14.99987" y2="6.99988"/><line class="cls-2" x1="3.99987" y1="10.99988" x2="14.99987" y2="10.99988"/><line class="cls-2" x1="3.99987" y1="14.99988" x2="14.99987" y2="14.99988"/><line class="cls-2" x1="3.99987" y1="18.99988" x2="14.99987" y2="18.99988"/><line class="cls-2" x1="3.99987" y1="22.99988" x2="14.99987" y2="22.99988"/><line class="cls-2" x1="3.99987" y1="26.99988" x2="14.99987" y2="26.99988"/><line class="cls-2" x1="3.99987" y1="30.99988" x2="5.99987" y2="30.99988"/><line class="cls-2" x1="3.99987" y1="34.99988" x2="5.99987" y2="34.99988"/><line class="cls-2" x1="19.99987" y1="10.99988" x2="21.99987" y2="10.99988"/><line class="cls-2" x1="19.99987" y1="14.99988" x2="21.99987" y2="14.99988"/><line class="cls-2" x1="19.99987" y1="18.99988" x2="21.99987" y2="18.99988"/><line class="cls-2" x1="19.99987" y1="22.99988" x2="21.99987" y2="22.99988"/><line class="cls-2" x1="19.99987" y1="26.99988" x2="21.99987" y2="26.99988"/><line class="cls-2" x1="6.99987" y1="30.99988" x2="8.99987" y2="30.99988"/><line class="cls-2" x1="13.99987" y1="35.99988" x2="15.99987" y2="35.99988"/><line class="cls-2" x1="16.99987" y1="35.99988" x2="18.99987" y2="35.99988"/><line class="cls-2" x1="19.99987" y1="35.99988" x2="21.99987" y2="35.99988"/><line class="cls-2" x1="6.99987" y1="34.99988" x2="8.99987" y2="34.99988"/><line class="cls-2" x1="3.99987" y1="38.99988" x2="5.99987" y2="38.99988"/><line class="cls-2" x1="6.99987" y1="38.99988" x2="8.99987" y2="38.99988"/><line class="cls-2" x1="27.99987" y1="15.99988" x2="29.99987" y2="15.99988"/><line class="cls-2" x1="30.99987" y1="15.99988" x2="32.99987" y2="15.99988"/><line class="cls-2" x1="33.99987" y1="15.99988" x2="35.99987" y2="15.99988"/><line class="cls-2" x1="27.99987" y1="19.99988" x2="29.99987" y2="19.99988"/><line class="cls-2" x1="30.99987" y1="19.99988" x2="32.99987" y2="19.99988"/><line class="cls-2" x1="33.99987" y1="19.99988" x2="35.99987" y2="19.99988"/><line class="cls-2" x1="36.99987" y1="15.99988" x2="38.99987" y2="15.99988"/><line class="cls-2" x1="36.99987" y1="19.99988" x2="38.99987" y2="19.99988"/><polyline class="cls-1" points="16 43 16 40 20 40 20 43"/><polyline class="cls-1" points="32 43 32 40 36 40 36 43"/><polyline class="cls-2" points="16 6 28 6 28 12"/><path class="cls-2" d="M38.99987,28.99988c0,3-5,8-5,8s-5-5-5-8a4.72387,4.72387,0,0,1,5-5A4.72387,4.72387,0,0,1,38.99987,28.99988Z"/><circle class="cls-2" cx="33.99987" cy="28.99988" r="2"/><polyline class="cls-1" points="25 25 25 12 42 12 42 43 24 43"/><rect class="cls-1" x="10.99984" y="31.99993" width="14.00006" height="11"/><line class="cls-1" x1="42.99987" y1="42.99988" x2="0.99987" y2="42.99988"/></svg>