<svg id="Слой_1" data-name="Слой 1" xmlns="http://www.w3.org/2000/svg" viewBox="0 0 44 44"><defs><style>.cls-1,.cls-2{fill:none;stroke:#323232;stroke-linejoin:round;stroke-width:2px;}.cls-1{stroke-linecap:round;}</style></defs><title>infrastructure</title><polyline class="cls-1" points="11 43 2 43 2 1 17 1 17 32"/><line class="cls-1" x1="38.99999" y1="12" x2="38.99999" y2="5"/><line class="cls-2" x1="3.99999" y1="7" x2="14.99999" y2="7"/><line class="cls-2" x1="3.99999" y1="11" x2="14.99999" y2="11"/><line class="cls-2" x1="3.99999" y1="15" x2="14.99999" y2="15"/><line class="cls-2" x1="3.99999" y1="19" x2="14.99999" y2="19"/><line class="cls-2" x1="3.99999" y1="23" x2="14.99999" y2="23"/><line class="cls-2" x1="3.99999" y1="27" x2="14.99999" y2="27"/><line class="cls-2" x1="3.99999" y1="31" x2="5.99999" y2="31"/><line class="cls-2" x1="3.99999" y1="35" x2="5.99999" y2="35"/><line class="cls-2" x1="19.99999" y1="11" x2="21.99999" y2="11"/><line class="cls-2" x1="19.99999" y1="15" x2="21.99999" y2="15"/><line class="cls-2" x1="19.99999" y1="19" x2="21.99999" y2="19"/><line class="cls-2" x1="19.99999" y1="23" x2="21.99999" y2="23"/><line class="cls-2" x1="19.99999" y1="27" x2="21.99999" y2="27"/><line class="cls-2" x1="6.99999" y1="31" x2="8.99999" y2="31"/><line class="cls-2" x1="13.99999" y1="36" x2="15.99999" y2="36"/><line class="cls-2" x1="16.99999" y1="36" x2="18.99999" y2="36"/><line class="cls-2" x1="19.99999" y1="36" x2="21.99999" y2="36"/><line class="cls-2" x1="6.99999" y1="35" x2="8.99999" y2="35"/><line class="cls-2" x1="3.99999" y1="39" x2="5.99999" y2="39"/><line class="cls-2" x1="6.99999" y1="39" x2="8.99999" y2="39"/><line class="cls-2" x1="27.99999" y1="16" x2="29.99999" y2="16"/><line class="cls-2" x1="30.99999" y1="16" x2="32.99999" y2="16"/><line class="cls-2" x1="33.99999" y1="16" x2="35.99999" y2="16"/><line class="cls-2" x1="27.99999" y1="20" x2="29.99999" y2="20"/><line class="cls-2" x1="30.99999" y1="20" x2="32.99999" y2="20"/><line class="cls-2" x1="33.99999" y1="20" x2="35.99999" y2="20"/><line class="cls-2" x1="36.99999" y1="16" x2="38.99999" y2="16"/><line class="cls-2" x1="36.99999" y1="20" x2="38.99999" y2="20"/><polyline class="cls-1" points="16 43 16 40 20 40 20 43"/><polyline class="cls-1" points="32 43 32 40 36 40 36 43"/><polyline class="cls-2" points="16 6 28 6 28 12"/><path class="cls-2" d="M39,29c0,3-5,8-5,8s-5-5-5-8a4.72387,4.72387,0,0,1,5-5A4.72387,4.72387,0,0,1,39,29Z"/><circle class="cls-2" cx="33.99999" cy="29" r="2"/><polyline class="cls-1" points="25 25 25 12 42 12 42 43 24 43"/><rect class="cls-1" x="10.99996" y="32.00006" width="14.00006" height="11"/><line class="cls-1" x1="42.99999" y1="43" x2="0.99999" y2="43"/></svg>