<svg id="Слой_1" data-name="Слой 1" xmlns="http://www.w3.org/2000/svg" viewBox="0 0 18 18"><defs><style>.cls-1{fill:#1964f5;}</style></defs><title>instagramB</title><path class="cls-1" d="M8.99459,4.87977a4.10133,4.10133,0,1,0,4.10825,4.10132A4.10479,4.10479,0,0,0,8.99459,4.87977Zm0,6.76528a2.664,2.664,0,1,1,2.66847-2.664,2.66622,2.66622,0,0,1-2.66847,2.664Z"/><circle class="cls-1" cx="13.26522" cy="4.72847" r="0.95724"/><path class="cls-1" d="M16.57781,3.75583a4.08856,4.08856,0,0,0-2.3383-2.33435,5.88144,5.88144,0,0,0-1.94316-.37285C11.44114,1.01081,11.1705,1,9,1s-2.44655,0-3.29635.04863a5.88144,5.88144,0,0,0-1.94316.37285,4.08856,4.08856,0,0,0-2.3383,2.33435,5.85435,5.85435,0,0,0-.37348,1.93988C1.01083,6.54948,1,6.81966,1,8.98649s0,2.44242.04871,3.29078a5.85446,5.85446,0,0,0,.37348,1.93989,4.08854,4.08854,0,0,0,2.3383,2.33434,5.88143,5.88143,0,0,0,1.94316.39987C6.55886,16.98919,6.8295,17,9,17s2.44655,0,3.29635-.04863a5.88144,5.88144,0,0,0,1.94316-.37285,4.08858,4.08858,0,0,0,2.3383-2.33435,5.85435,5.85435,0,0,0,.37348-1.93988c.03788-.85377.04871-1.124.04871-3.29078s0-2.44242-.04871-3.29078A5.85431,5.85431,0,0,0,16.57781,3.75583Zm-1.08255,8.4566a4.41319,4.41319,0,0,1-.276,1.49679,2.65,2.65,0,0,1-1.521,1.51841,4.43424,4.43424,0,0,1-1.48308.27558c-.84439.03782-1.08255.04863-3.24764.04863s-2.387,0-3.24763-.04863a4.43424,4.43424,0,0,1-1.48308-.27558,2.6446,2.6446,0,0,1-1.52639-1.51841,4.41344,4.41344,0,0,1-.27605-1.48058c-.03789-.843-.04871-1.08072-.04871-3.24215s0-2.383.04871-3.24215a4.41372,4.41372,0,0,1,.27605-1.49679,2.64459,2.64459,0,0,1,1.52639-1.5184,4.43425,4.43425,0,0,1,1.48308-.27559c.84439-.03782,1.08255-.04863,3.24763-.04863s2.387,0,3.24764.04863a4.43425,4.43425,0,0,1,1.48308.27559,2.65,2.65,0,0,1,1.521,1.5184,4.41344,4.41344,0,0,1,.276,1.48058c.03789.843.04872,1.08072.04872,3.24215s0,2.39379-.03789,3.24215Z"/></svg>