<svg id="Слой_1" data-name="Слой 1" xmlns="http://www.w3.org/2000/svg" viewBox="0 0 44 44"><defs><style>.cls-1{fill:none;stroke:#1964f5;stroke-linecap:round;stroke-linejoin:round;stroke-width:2px;}</style></defs><title>insurance_44B</title><polygon class="cls-1" points="24 21 24 15 20 15 20 21 14 21 14 25 20 25 20 31 24 31 24 25 30 25 30 21 24 21"/><path class="cls-1" d="M22,43S1,32,1,11L9,1s7,5,13,5S35,1,35,1l8,10C43,32,22,43,22,43Z"/><path class="cls-1" d="M22,39S5,29,5,12l5-6s7,4,12,4S34,6,34,6l5,6C39,29,22,39,22,39Z"/></svg>