<svg id="Слой_1" data-name="Слой 1" xmlns="http://www.w3.org/2000/svg" viewBox="0 0 44 44"><defs><style>.cls-1,.cls-2,.cls-3{fill:none;stroke:#fff;stroke-width:2px;}.cls-1,.cls-2{stroke-miterlimit:10;}.cls-2,.cls-3{stroke-linecap:round;}.cls-3{stroke-linejoin:round;}</style></defs><title>intertaimentW</title><path class="cls-1" d="M16.75,24a8,8,0,1,1,0-4"/><circle class="cls-1" cx="34.99999" cy="22" r="8"/><line class="cls-2" x1="0.99999" y1="43" x2="42.99999" y2="43"/><polyline class="cls-3" points="37 32 40 32 43 37 1 37 4 32 7 32"/><line class="cls-3" x1="32.99999" y1="32" x2="10.99999" y2="32"/><rect class="cls-1" x="6.99997" y="19.99974" width="16.00002" height="4" rx="2"/><circle class="cls-1" cx="8.99999" cy="22" r="2"/><circle class="cls-1" cx="34.99999" cy="22" r="1"/><circle class="cls-1" cx="20.99999" cy="22" r="2"/><line class="cls-3" x1="18.99999" y1="20" x2="12.99999" y2="5"/><line class="cls-3" x1="20.99999" y1="27" x2="20.99999" y2="23.99974"/><line class="cls-3" x1="20.99999" y1="20" x2="20.99999" y2="16.99974"/><line class="cls-3" x1="19.99999" y1="27" x2="21.99999" y2="27"/><line class="cls-3" x1="19.99999" y1="17" x2="21.99999" y2="17"/><line class="cls-3" x1="15.99999" y1="12" x2="28.99999" y2="12"/><line class="cls-3" x1="15.99999" y1="12" x2="9.99999" y2="20"/><line class="cls-3" x1="28.99999" y1="12" x2="22.99999" y2="20"/><line class="cls-3" x1="16.99999" y1="5" x2="10.99999" y2="5"/><polyline class="cls-3" points="34 22 27 6 26 5 32 5"/><path class="cls-3" d="M32,5a2,2,0,0,1,0,4"/><line class="cls-3" x1="28.99999" y1="5" x2="30.99999" y2="2"/><line class="cls-2" x1="42.99999" y1="43" x2="42.99999" y2="37"/><line class="cls-2" x1="0.99999" y1="43" x2="0.99999" y2="37"/><polyline class="cls-3" points="11 30 11 34 7 34 7 30"/><polyline class="cls-3" points="33 30 33 34 37 34 37 30"/><line class="cls-2" x1="35.99999" y1="40" x2="35.99999" y2="40"/><line class="cls-2" x1="32.99999" y1="40" x2="32.99999" y2="40"/><line class="cls-2" x1="38.99999" y1="40" x2="38.99999" y2="40"/><line class="cls-2" x1="4.99999" y1="40" x2="11.99999" y2="40"/></svg>