<svg xmlns="http://www.w3.org/2000/svg" xmlns:xlink="http://www.w3.org/1999/xlink" viewBox="0 0 158 48"><defs><style>.cls-1{fill:#fff;}.cls-1,.cls-2,.cls-4{fill-rule:evenodd;}.cls-2{fill:#3a3f4c;}.cls-3{mask:url(#mask);}.cls-4{fill:#00be64;}.cls-5{mask:url(#mask-2-2);}.cls-6{mask:url(#mask-3);}.cls-7{mask:url(#mask-4-2);}</style><mask id="mask" x="146.70298" y="11.76859" width="11.29702" height="17.78841" maskUnits="userSpaceOnUse"><g id="mask-2"><polygon id="path-1" class="cls-1" points="146.703 11.769 158 11.769 158 29.557 146.703 29.557 146.703 11.769"/></g></mask><mask id="mask-2-2" x="12.69448" y="1.45639" width="18.18611" height="6.25277" maskUnits="userSpaceOnUse"><g id="mask-4"><polygon id="path-3" class="cls-1" points="12.694 1.457 30.881 1.457 30.881 7.709 12.694 7.709 12.694 1.457"/></g></mask><mask id="mask-3" x="0.00032" y="8.83708" width="40.29968" height="37.70653" maskUnits="userSpaceOnUse"><g id="mask-6"><polygon id="path-5" class="cls-1" points="0 8.837 40.3 8.837 40.3 46.543 0 46.543 0 8.837"/></g></mask><mask id="mask-4-2" x="0" y="20.11105" width="37.83314" height="26.43223" maskUnits="userSpaceOnUse"><g id="mask-8"><polygon id="path-7" class="cls-1" points="0 20.111 37.833 20.111 37.833 46.543 0 46.543 0 20.111"/></g></mask></defs><title>logo_pokupaj</title><g id="Слой_2" data-name="Слой 2"><polygon id="Fill-1" class="cls-2" points="54.415 29.557 54.415 11.794 68.405 11.794 68.405 29.557 65.914 29.557 65.914 13.958 56.906 13.958 56.906 29.557 54.415 29.557"/><path id="Fill-2" class="cls-2" d="M74.66953,23.16658a4.49646,4.49646,0,0,0,1.27019,3.28384,4.34473,4.34473,0,0,0,6.20245-.013,4.48281,4.48281,0,0,0,1.28318-3.27086,4.39889,4.39889,0,0,0-1.28318-3.24569,4.38914,4.38914,0,0,0-6.20245,0,4.42066,4.42066,0,0,0-1.27019,3.24569m-2.49088,0a6.2912,6.2912,0,0,1,1.98767-4.74314,7.20673,7.20673,0,0,1,9.73708-.01218,6.28109,6.28109,0,0,1,1.98767,4.75532,6.36206,6.36206,0,0,1-1.98767,4.78048,7.13735,7.13735,0,0,1-9.72409,0,6.33778,6.33778,0,0,1-2.00066-4.78048"/><polygon id="Fill-4" class="cls-2" points="89.464 29.557 89.464 16.826 91.905 16.826 91.905 21.959 93.691 21.959 97.163 16.826 99.931 16.826 95.679 22.89 95.679 22.94 100.434 29.557 97.541 29.557 93.742 24.047 91.905 24.047 91.905 29.557 89.464 29.557"/><path id="Fill-6" class="cls-2" d="M102.59694,32.19909a2.33893,2.33893,0,0,0,1.4593.55353q1.53519,0,2.31476-1.887l.629-1.4585-5.33319-12.5802h2.74168l3.19537,8.32728.478,1.53479h.05032a15.205,15.205,0,0,1,.42854-1.50881l3.09391-8.35326h2.64185l-5.98818,15.02a4.63986,4.63986,0,0,1-1.6476,2.2271,4.22262,4.22262,0,0,1-2.47871.767,4.38879,4.38879,0,0,1-2.13863-.60385l-.30193-.17612Z"/><polygon id="Fill-8" class="cls-2" points="117.316 29.557 117.316 16.826 128.436 16.826 128.436 29.557 125.995 29.557 125.995 18.914 119.756 18.914 119.756 29.557 117.316 29.557"/><path id="Fill-10" class="cls-2" d="M134.22333,25.88366a1.92428,1.92428,0,0,0,.6282,1.435,2.44128,2.44128,0,0,0,1.76123.60385,2.96109,2.96109,0,0,0,2.46571-1.25883,4.50215,4.50215,0,0,0,.95691-2.792v-.478h-.629q-5.18385,0-5.183,2.49007m-2.44056.20129a3.61489,3.61489,0,0,1,.78-2.36508,4.29054,4.29054,0,0,1,2.07533-1.37084,14.247,14.247,0,0,1,2.40322-.56651,17.31887,17.31887,0,0,1,2.33911-.15016h.655V21.38a2.46793,2.46793,0,0,0-2.7928-2.792A6.10724,6.10724,0,0,0,133.669,19.82l-.98126-1.78639a6.2436,6.2436,0,0,1,2.11429-1.08189,8.64152,8.64152,0,0,1,2.64184-.42692A5.09444,5.09444,0,0,1,141.1676,17.808a4.95,4.95,0,0,1,1.30834,3.69777v8.05133h-2.28959V28.2739l.07466-1.00642h-.0495a4.81774,4.81774,0,0,1-1.69873,1.86188,4.44,4.44,0,0,1-2.47871.72965,4.56935,4.56935,0,0,1-2.99328-1.03158,3.36556,3.36556,0,0,1-1.258-2.74248"/><g class="cls-3"><path id="Fill-12" class="cls-2" d="M152.31375,15.36653a4.10138,4.10138,0,0,1-2.62967-.86763A2.84322,2.84322,0,0,1,148.59,12.146v-.37741h1.96251v.35225a1.50245,1.50245,0,0,0,.52756,1.22068,1.86946,1.86946,0,0,0,1.23367.44072,1.90323,1.90323,0,0,0,1.258-.44072,1.532,1.532,0,0,0,.52837-1.245v-.3279h1.93735V12.146a2.85806,2.85806,0,0,1-1.0819,2.3529,4.08855,4.08855,0,0,1-2.64184.86763ZM146.703,29.557V16.82665h2.33991v7.59763a11.66572,11.66572,0,0,1-.07548,1.71172h.04951a15.194,15.194,0,0,1,1.133-1.71172l5.485-7.59763H158V29.557h-2.36508V21.95856q0-.35184.03815-.99424c.02435-.42692.03733-.65742.03733-.69151h-.05032q-.02556.05113-1.10706,1.68575L149.04289,29.557Z"/></g><path id="Fill-15" class="cls-4" d="M56.47214,37.51508a2.67059,2.67059,0,0,1,1.91381.74507l-.46424.68582a2.05843,2.05843,0,0,0-1.409-.58436A1.74,1.74,0,0,0,54.74094,40.174a1.76339,1.76339,0,0,0,1.80181,1.83184,2.27236,2.27236,0,0,0,1.5705-.685l.39282.71586a2.85687,2.85687,0,0,1-2.03393.81568,2.66929,2.66929,0,1,1,0-5.33725"/><path id="Fill-17" class="cls-4" d="M62.11148,42.006a1.82349,1.82349,0,0,0,0-3.6442,1.82352,1.82352,0,0,0,0,3.6442m-.00974-4.49073a2.66967,2.66967,0,1,1-2.73924,2.65889,2.65861,2.65861,0,0,1,2.73924-2.65889"/><path id="Fill-19" class="cls-4" d="M72.41459,35.50111a3.79742,3.79742,0,0,1,2.5972.93662l-.50321.74588a3.25817,3.25817,0,0,0-2.05423-.77592,2.55508,2.55508,0,0,0-2.628,2.71977,2.64045,2.64045,0,0,0,2.64834,2.809,3.16654,3.16654,0,0,0,2.18489-.92768l.53324.71585a3.7633,3.7633,0,0,1-2.74816,1.12816,3.67616,3.67616,0,0,1-.03-7.35171"/><path id="Fill-21" class="cls-4" d="M78.63806,42.02658a1.58806,1.58806,0,0,0,.03976-3.16209,1.48023,1.48023,0,0,0-1.47959,1.5705,1.45128,1.45128,0,0,0,1.43983,1.59159m-.1607-5.90052,1.82209-.78565.32222.80513-1.95358.81569a2.26629,2.26629,0,0,0-1.5705,2.03474h.01948a2.03962,2.03962,0,0,1,1.80262-.9074A2.1304,2.1304,0,0,1,81.0843,40.435a2.3024,2.3024,0,0,1-2.40648,2.41783c-1.72145,0-2.49656-1.28967-2.49656-3.05172a3.4063,3.4063,0,0,1,2.2961-3.675"/><path id="Fill-23" class="cls-4" d="M85.999,39.61a1.23879,1.23879,0,0,0-1.23855-1.33919A1.48028,1.48028,0,0,0,83.27033,39.61Zm-1.21825-2.09481a2.173,2.173,0,0,1,2.20438,2.38618,2.9712,2.9712,0,0,1-.03978.41312H83.2403a1.6795,1.6795,0,0,0,1.7523,1.69143,2.30647,2.30647,0,0,0,1.49989-.5933l.41312.715a3.05248,3.05248,0,0,1-1.97307.72478,2.60293,2.60293,0,0,1-2.70921-2.66862,2.505,2.505,0,0,1,2.55744-2.66863Z"/><path id="Fill-25" class="cls-4" d="M90.80255,42.006c.80594,0,1.46985-.65417,1.46985-1.81236,0-1.10787-.59411-1.82291-1.439-1.82291-.76536,0-1.47067.54378-1.47067,1.83265,0,.90658.50321,1.80262,1.43983,1.80262Zm-2.38619-4.3698H89.323v.45289a2.39626,2.39626,0,0,1-.03084.38309h.0211a1.86224,1.86224,0,0,1,1.71091-.95691c1.37977,0,2.23522,1.08758,2.23522,2.66863a2.38113,2.38113,0,0,1-2.305,2.66862,1.87053,1.87053,0,0,1-1.581-.866H89.353a2.273,2.273,0,0,1,.03977.44234v2.31638h-.97639Z"/><path id="Fill-27" class="cls-4" d="M96.956,42.02658a1.58811,1.58811,0,0,0,.04058-3.16209A1.48023,1.48023,0,0,0,95.517,40.435a1.45069,1.45069,0,0,0,1.439,1.59159m-.1607-5.90052,1.8221-.78565.32221.80513-1.95358.81569A2.2686,2.2686,0,0,0,95.41551,38.996h.02028a2.03878,2.03878,0,0,1,1.80263-.9074A2.13039,2.13039,0,0,1,99.403,40.435a2.30283,2.30283,0,0,1-2.40647,2.41783c-1.72146,0-2.49737-1.28967-2.49737-3.05172a3.4063,3.4063,0,0,1,2.29609-3.675"/><path id="Fill-29" class="cls-4" d="M102.38372,42.0765a1.52832,1.52832,0,0,0,1.36922-1.62082V40.265h-.25161c-.72478,0-2.07371.06006-2.07371.99586a.85943.85943,0,0,0,.9561.81569m1.10787-2.51767h.26135v-.10064a.99361.99361,0,0,0-1.1168-1.11761,2.555,2.555,0,0,0-1.4309.49428l-.392-.715a3.24524,3.24524,0,0,1,1.90326-.60466,1.81516,1.81516,0,0,1,2.01365,1.99417v3.22215h-.91633v-.51376a2.58161,2.58161,0,0,1,.03-.40256h-.01948a1.88153,1.88153,0,0,1-1.67195,1.03725,1.56908,1.56908,0,0,1-1.702-1.51043c0-1.60134,1.98361-1.78315,3.04116-1.78315"/><polygon id="Fill-31" class="cls-4" points="106.423 37.636 107.399 37.636 107.399 39.711 109.977 39.711 109.977 37.636 110.954 37.636 110.954 42.731 109.977 42.731 109.977 40.546 107.399 40.546 107.399 42.731 106.423 42.731 106.423 37.636"/><polygon id="Fill-33" class="cls-4" points="112.716 37.636 113.693 37.636 113.693 39.691 114.408 39.691 115.797 37.636 116.905 37.636 115.203 40.063 115.203 40.083 117.107 42.731 115.948 42.731 114.428 40.527 113.693 40.527 113.693 42.731 112.716 42.731 112.716 37.636"/><path id="Fill-35" class="cls-4" d="M120.43048,42.006a1.82349,1.82349,0,1,0-1.7523-1.83184,1.76612,1.76612,0,0,0,1.7523,1.83184m-.01056-4.49073a2.66966,2.66966,0,1,1-2.73843,2.65889,2.65813,2.65813,0,0,1,2.73843-2.65889"/><path id="Fill-37" class="cls-4" d="M124.83143,37.63634H125.919l1.29861,2.87965c.14122.30273.28245.685.28245.685h.02028s.151-.37254.28164-.685l1.32944-2.87965h1.06729l.44234,5.09457h-.94636l-.22157-3.03061c-.00975-.30192.01055-.87574.01055-.87574h-.0203s-.13148.35224-.32221.74507l-1.20851,2.54769h-.836L125.889,39.58018c-.16152-.37254-.32222-.75562-.32222-.75562h-.0203s.03.57382.01055.87574l-.22157,3.03061h-.94635Z"/><g class="cls-5"><path id="Fill-39" class="cls-2" d="M23.81051,1.45639a7.90885,7.90885,0,0,0-2.02338.26216,7.90245,7.90245,0,0,0-2.02257-.26216c-3.899,0-7.07008,2.805-7.07008,6.25277h.96259c0-2.917,2.73924-5.28937,6.10749-5.28937.08928,0,.17531.00731.26378.01055a6.12489,6.12489,0,0,0-3.28709,5.27882H17.703a5.40906,5.40906,0,0,1,4.0841-4.985,5.40809,5.40809,0,0,1,4.0841,4.985h.96259a6.1249,6.1249,0,0,0-3.28708-5.27882c.08765-.00324.1745-.01055.26377-.01055,3.36744,0,6.10749,2.37239,6.10749,5.28937h.96259c0-3.44779-3.17183-6.25277-7.07008-6.25277"/></g><g class="cls-6"><polygon id="Fill-42" class="cls-2" points="0 46.544 3.211 8.837 38.458 8.837 40.3 30.473 0 46.544"/></g><g class="cls-7"><polygon id="Fill-45" class="cls-4" points="27.254 20.111 26.433 35.773 37.833 46.543 0 46.543 27.254 20.111"/></g></g></svg>