<svg id="Слой_1" data-name="Слой 1" xmlns="http://www.w3.org/2000/svg" viewBox="0 0 200 40"><defs><style>.cls-1,.cls-2{fill:#00529b;}.cls-1{fill-rule:evenodd;}</style></defs><title>logo_nordavia</title><polygon class="cls-1" points="23.33 0.533 23.325 18.165 16.509 18.165 16.517 10.618 6.891 10.618 6.885 18.165 0 18.165 0.008 0.533 6.755 0.533 6.816 7.935 16.441 7.935 16.377 0.533 23.33 0.533"/><path class="cls-1" d="M98.39957,18.1404h-26.487l.02955-2.761h2.53031L81.96713.47225h6.46516L96.84749,15.45h1.47635Zm-9.24707-2.761L83.2278,4.47013h-.1412L77.70366,15.3794Z"/><path class="cls-1" d="M61.28343,3.166V9.00462h2.99763a5.53517,5.53517,0,0,0,3.12474-.737A2.618,2.618,0,0,0,68.59714,6.0309a2.554,2.554,0,0,0-1.14-2.156,6.07246,6.07246,0,0,0-3.17608-.70884Zm0,15.011H54.83369V.48969H65.84342c3.47137,0,5.555.3025,7.09036,1.25488A4.81231,4.81231,0,0,1,75.29206,6.004a4.95125,4.95125,0,0,1-2.35828,4.3145c-1.55982,1.00875-3.69088,1.36511-6.78994,1.36511H61.28343Z"/><path class="cls-1" d="M39.01463-.0006c3.00276,0,7.24182.73959,10.06871,2.97376A8.26974,8.26974,0,0,1,52.35572,9.3334a8.26269,8.26269,0,0,1-3.27238,6.36154c-2.82689,2.23671-7.066,2.97376-10.06871,2.97376-3.00022,0-7.23671-.737-10.06617-2.97376A8.26664,8.26664,0,0,1,25.67608,9.3334a8.27374,8.27374,0,0,1,3.27238-6.3602C31.77792.739,36.01441-.0006,39.01463-.0006m0,2.129a5.61775,5.61775,0,0,0-4.88482,2.3201,7.982,7.982,0,0,0-1.34028,4.8849,7.982,7.982,0,0,0,1.34028,4.88491,5.61916,5.61916,0,0,0,4.88482,2.32132A5.61667,5.61667,0,0,0,43.902,14.21827,7.97336,7.97336,0,0,0,45.24227,9.3334,7.97328,7.97328,0,0,0,43.902,4.4485a5.61525,5.61525,0,0,0-4.88737-2.3201"/><polygon class="cls-1" points="157.496 13.795 157.434 0.439 150.691 0.439 150.678 18.071 157.566 18.071 167.197 5.167 167.19 18.071 174.003 18.071 174.014 0.439 167.061 0.439 157.496 13.795"/><path class="cls-1" d="M109.02445.38775,100.14452,18.0713h3.22615l2.52906-5.13228h8.92743l2.75115,5.13228h7.193L114.99918.38775Zm-1.93464,10.153L110.11694,4.401h.09758l3.29676,6.13974Z"/><path class="cls-1" d="M190.23038.38775h-5.97856L175.37827,18.0713H178.598l2.5303-5.13228h8.92487L192.807,18.0713H200Zm-7.91321,10.153L185.3456,4.401h.09759l3.2993,6.13974Z"/><path class="cls-1" d="M146.56953,9.74a6.71526,6.71526,0,0,0-2.13368-.83062A5.75551,5.75551,0,0,0,145.8262,8.289a3.9558,3.9558,0,0,0,1.9758-3.48647,3.84811,3.84811,0,0,0-1.97575-3.44289C144.536.58412,142.78877.34316,139.87459.34316h-12.644V18.07157h13.092c3.05926,0,4.89122-.2525,6.2469-1.06261a4.04321,4.04321,0,0,0,2.06946-3.61078A4.15533,4.15533,0,0,0,146.56949,9.74m-8.007-7.23314a4.6607,4.6607,0,0,1,2.66254.664,2.48188,2.48188,0,0,1,.95516,2.01883,2.53747,2.53747,0,0,1-.99622,2.09445,4.25407,4.25407,0,0,1-2.62148.69343h-4.4188l-.009-5.47068ZM141.745,15.09652a4.83758,4.83758,0,0,1-2.7961.70884h-4.80522V9.9604H138.949a4.42284,4.42284,0,0,1,2.75115.7383,2.75466,2.75466,0,0,1,1.04755,2.24058,2.69705,2.69705,0,0,1-1.00259,2.15723"/><path class="cls-1" d="M27.54465,34.9354l1.93465,1.93039a.41276.41276,0,0,0,.5837.0043l.0043-.0043.3556-.35119a.41657.41657,0,0,0,.00054-.58912l-.00054-.00054L28.139,33.64851V31.80277l1.06425.77929-.131-1.17156,1.65994.95367.78824,2.9481a.41111.41111,0,0,0,.50287.29179l.00295-.00079.48656-.13077a.40912.40912,0,0,0,.29542-.49747l-.00272-.01013-.71379-2.66609,2.64845-.70113a.4202.4202,0,0,0,.294-.51146l-.13225-.482a.41979.41979,0,0,0-.51094-.29608l-3.11446.83573-1.60089-.92417,1.2029-.52808-1.07194-.47813,1.64837-.946,2.954.78574a.42662.42662,0,0,0,.51351-.29607l.12839-.48326a.42174.42174,0,0,0-.29272-.51012l-2.67541-.714.70742-2.64038a.41388.41388,0,0,0-.29187-.50735l-.00085-.00023-.48013-.12819a.41586.41586,0,0,0-.51052.292l-.00042.00156-.8396,3.11215-1.5996.92035.14508-1.30616L28.139,27.578V25.7194l2.28385-2.27391a.41652.41652,0,0,0,.00058-.589l-.00058-.00057-.3556-.35636a.41739.41739,0,0,0-.588,0l-1.93465,1.9368L25.59585,22.4816a.42758.42758,0,0,0-.59439,0l-.35048.35249a.40546.40546,0,0,0-.01642.57318l.01642.01643,2.15676,2.16364v1.89194l-.94487-.68959.14635,1.319-1.61114-.92931-.837-3.11215a.41131.41131,0,0,0-.502-.29387l-.00125.00033-.48782.12818a.419.419,0,0,0-.29272.50758l.70738,2.64048-2.66771.714a.412.412,0,0,0-.29172.50437l.00158.00576.122.48325a.426.426,0,0,0,.51351.29607l2.95015-.78574,1.64067.946-1.06554.4653,1.21189.53449-1.60859.9306-3.11318-.83574a.42344.42344,0,0,0-.51094.29608l-.12453.482a.41514.41514,0,0,0,.29009.51041l.00391.001,2.642.70114-.71635,2.66609a.41629.41629,0,0,0,.29143.5076l.49039.13077a.418.418,0,0,0,.50966-.291l.78825-2.9481,1.64324-.94851L25.85523,32.572l.95257-.687v1.90215L24.651,35.9455a.401.401,0,0,0-.019.56678l.019.019.35048.35248a.41812.41812,0,0,0,.59129.0031l.0031-.0031Z"/><rect class="cls-2" x="26.19291" y="19.94518" width="2.7593" height="2.7593" transform="translate(-7.00543 25.72445) rotate(-44.96986)"/><rect class="cls-2" x="26.19291" y="36.66983" width="2.7593" height="2.7593" transform="translate(-18.83016 30.64701) rotate(-45.0072)"/><rect class="cls-2" x="33.46016" y="24.06673" width="2.7579" height="2.76159" transform="translate(1.23188 52.50107) rotate(-74.97929)"/><rect class="cls-2" x="33.4119" y="32.43201" width="2.76221" height="2.76053" transform="translate(-7.55567 10.13923) rotate(-14.97567)"/><rect class="cls-2" x="18.83104" y="24.11602" width="2.76113" height="2.75869" transform="matrix(0.96612, -0.2581, 0.2581, 0.96612, -5.89553, 6.08042)"/><rect class="cls-2" x="18.95016" y="32.49953" width="2.75975" height="2.76391" transform="translate(-17.66138 44.74049) rotate(-74.98624)"/><path class="cls-1" d="M63.39857,26.24172a2.84268,2.84268,0,0,1,1.9963.58191,1.54888,1.54888,0,0,1,.4031,1.35486,3.29769,3.29769,0,0,1-1.3377,2.22776,4.37318,4.37318,0,0,1-2.44432.73829H60.19681L59.008,34.8874H57.79614l2.746-8.64566Zm-2.89492,3.912h1.79473a2.26908,2.26908,0,0,0,1.36466-.41785,2.241,2.241,0,0,0,.8229-1.3574,1.00751,1.00751,0,0,0-.208-.82678,1.44945,1.44945,0,0,0-1.03857-.3217H61.44594Z"/><path class="cls-1" d="M66.75108,32.30663a1.93975,1.93975,0,0,0-.01669,1.34716,1.41257,1.41257,0,0,0,1.22472.4935,3.51389,3.51389,0,0,0,.96926-.14614,4.69736,4.69736,0,0,0,.78055-.28712l.12066.70884c-.208.09357-.53534.24354-.83318.34223a4.5285,4.5285,0,0,1-1.49176.24609,1.9668,1.9668,0,0,1-1.83581-.8639c-.58285-1.00109.10911-3.498,1.4327-4.59524a3.28678,3.28678,0,0,1,2.08743-.79083,1.6885,1.6885,0,0,1,1.53413.7165,3.01981,3.01981,0,0,1-.13352,2.39823l-.08472.26917H66.796Zm2.85-.95367.06674-.2448a1.60986,1.60986,0,0,0,.0475-1.18693.7559.7559,0,0,0-.70992-.36918,1.61545,1.61545,0,0,0-1.11305.40635,2.72367,2.72367,0,0,0-.79851,1.25871l-.0398.13585Z"/><polygon class="cls-1" points="76.563 28.885 76.295 29.751 73.832 29.751 72.198 34.887 71.109 34.887 73.012 28.885 76.563 28.885"/><polygon class="cls-1" points="81.06 34.887 79.97 34.887 81.463 30.194 77.099 34.887 75.813 34.887 77.714 28.885 78.803 28.885 77.323 33.579 81.675 28.885 82.959 28.885 81.06 34.887"/><path class="cls-1" d="M88.86979,29.53871a2.18353,2.18353,0,0,1,.208,1.4343,5.19078,5.19078,0,0,1-1.6997,3.26088,3.5962,3.5962,0,0,1-2.18759.778,1.84361,1.84361,0,0,1-1.69973-.778,2.17282,2.17282,0,0,1-.21309-1.39585,5.20961,5.20961,0,0,1,1.70483-3.29933,3.59841,3.59841,0,0,1,2.18887-.77675,1.88718,1.88718,0,0,1,1.69845.77675m-1.12073,2.0752a2.29971,2.29971,0,0,0,.09113-1.65606,1.04232,1.04232,0,0,0-.91535-.405,1.87685,1.87685,0,0,0-1.23756.49092,3.66,3.66,0,0,0-.88581,1.57016l-.17587.54349c-.14124.43326-.39543,1.18439-.09372,1.65481a.97518.97518,0,0,0,.90505.41014,1.89069,1.89069,0,0,0,1.17469-.41014,3.13,3.13,0,0,0,.9577-1.65481Z"/><polygon class="cls-1" points="94.301 34.887 93.212 34.887 94.076 32.183 91.352 32.183 90.488 34.887 89.401 34.887 91.302 28.885 92.391 28.885 91.62 31.318 94.343 31.318 95.113 28.885 96.202 28.885 94.301 34.887"/><path class="cls-1" d="M99.91082,34.1474h-.05007a3.3185,3.3185,0,0,1-.86654.61781,2.23836,2.23836,0,0,1-1.131.24609,1.85978,1.85978,0,0,1-1.18881-.3089,1.15512,1.15512,0,0,1-.398-1.09978A2.40113,2.40113,0,0,1,97.446,31.862a4.31634,4.31634,0,0,1,2.31079-.50883h.94231l.24263-.7755a.7053.7053,0,0,0-.11937-.82674,1.1452,1.1452,0,0,0-.77929-.19868,2.02094,2.02094,0,0,0-.95128.19868,1.09849,1.09849,0,0,0-.5597.71522l-.9847-.05129a1.5785,1.5785,0,0,1,.873-1.26,4.34716,4.34716,0,0,1,1.93081-.39348,2.00673,2.00673,0,0,1,1.6137.55371,1.21633,1.21633,0,0,1,.1515.86523,3.88317,3.88317,0,0,1-.22339.82545l-1.23243,3.88256H99.672Zm.54693-2.05346h-.986a2.34017,2.34017,0,0,0-1.35054.31149,1.39624,1.39624,0,0,0-.6419.98825.61484.61484,0,0,0,.1425.54478.94232.94232,0,0,0,.73689.25892,1.7961,1.7961,0,0,0,.98722-.27433,2.79922,2.79922,0,0,0,.70865-.54345Z"/><path class="cls-1" d="M106.66292,34.88785h-1.09l1.633-5.13611h-1.74208l-.23107.664c-.27472.80241-.55076,1.58174-.882,2.347a3.72075,3.72075,0,0,1-1.37492,1.81758,3.498,3.498,0,0,1-1.38263.46913l-.00513-.86519a2.90718,2.90718,0,0,0,1.0039-.4076,2.7923,2.7923,0,0,0,.86658-1.21c.25673-.59478.75743-1.9291,1-2.69306l.321-.98825h3.7846Z"/><path class="cls-1" d="M112.12927,31.094a2.60693,2.60693,0,0,1,1.56109.38581,1.22718,1.22718,0,0,1,.43264,1.19593,2.44059,2.44059,0,0,1-1.09248,1.66885,3.39489,3.39489,0,0,1-1.92443.5435h-2.5727l1.89743-6.0026h1.11689L110.8532,31.094Zm-2.20294,2.93015h1.53409a1.51505,1.51505,0,0,0,.95258-.29479,1.44789,1.44789,0,0,0,.56357-.96647.65091.65091,0,0,0-.18872-.59219,1.057,1.057,0,0,0-.715-.20763h-1.49562Z"/><polygon class="cls-1" points="119.669 34.887 118.579 34.887 119.446 32.183 116.724 32.183 115.858 34.887 114.768 34.887 116.669 28.885 117.759 28.885 116.989 31.318 119.712 31.318 120.482 28.885 121.571 28.885 119.669 34.887"/><path class="cls-1" d="M125.1361,31.09369a2.23783,2.23783,0,0,1,1.6702.496,1.427,1.427,0,0,1,.31581,1.16131,2.26046,2.26046,0,0,1-1.08609,1.59323,3.40378,3.40378,0,0,1-1.92439.5435h-2.574l1.90127-6.00263h1.11434L123.86,31.09369Zm-2.20428,2.93014h1.5354a1.52243,1.52243,0,0,0,.94873-.29478,1.49634,1.49634,0,0,0,.56228-.93956.68835.68835,0,0,0-.17328-.60627,1.08878,1.08878,0,0,0-.72663-.2205H123.5827Zm7.58335-5.13869-1.89748,6.00262h-1.08993l1.9-6.00263Z"/><path class="cls-1" d="M132.21474,32.30663a1.947,1.947,0,0,0-.0167,1.34716,1.41194,1.41194,0,0,0,1.226.4935,3.52153,3.52153,0,0,0,.96926-.14614,4.79914,4.79914,0,0,0,.778-.28712l.12455.70884c-.21054.09357-.53792.24354-.83575.34223a4.53422,4.53422,0,0,1-1.49178.24609,1.96249,1.96249,0,0,1-1.8345-.8639c-.58156-1.00109.10782-3.498,1.43141-4.59524a3.2856,3.2856,0,0,1,2.09-.79083,1.69257,1.69257,0,0,1,1.53283.7165,3.037,3.037,0,0,1-.13481,2.39823l-.08474.26917H132.2558Zm2.85-.95367.06673-.2448a1.63611,1.63611,0,0,0,.04881-1.18693.75753.75753,0,0,0-.70865-.36918,1.613,1.613,0,0,0-1.11563.40635,2.75467,2.75467,0,0,0-.79849,1.25871l-.03979.13585Z"/><path class="cls-1" d="M143.16194,34.1474h-.05006a3.26358,3.26358,0,0,1-.86783.61781,2.22756,2.22756,0,0,1-1.13358.24609,1.85486,1.85486,0,0,1-1.18493-.30892,1.15223,1.15223,0,0,1-.398-1.09978,2.40055,2.40055,0,0,1,1.167-1.74067,4.33272,4.33272,0,0,1,2.31464-.50882h.9423l.24263-.7755a.71293.71293,0,0,0-.11809-.82674,1.15975,1.15975,0,0,0-.78183-.19869,2.04428,2.04428,0,0,0-.95512.19869,1.09966,1.09966,0,0,0-.55461.71522l-.9834-.0513a1.56949,1.56949,0,0,1,.87041-1.26,4.34237,4.34237,0,0,1,1.92952-.39348,2.011,2.011,0,0,1,1.61629.55372,1.24254,1.24254,0,0,1,.15278.86523,4.04477,4.04477,0,0,1-.22468.82545l-1.2324,3.88257h-.99238Zm.54947-2.05346h-.98982a2.34865,2.34865,0,0,0-1.35054.31149,1.4106,1.4106,0,0,0-.6406.98825.6157.6157,0,0,0,.14507.54478.93461.93461,0,0,0,.73176.25892,1.80031,1.80031,0,0,0,.9885-.27433,2.78225,2.78225,0,0,0,.71-.54345Z"/><path class="cls-1" d="M147.59486,28.8853h2.77169a1.46425,1.46425,0,0,1,1.27093.44476,1.06819,1.06819,0,0,1,.19515.82419,1.805,1.805,0,0,1-.579,1.08824,1.83672,1.83672,0,0,1-.82289.46018l-.00255.03587a.92939.92939,0,0,1,.58028.39351,1.10512,1.10512,0,0,1,.14249.71909,2.13034,2.13034,0,0,1-.97695,1.53046,2.90414,2.90414,0,0,1-1.75622.50629h-2.7255Zm-.56233,5.213h1.48023a1.62342,1.62342,0,0,0,.923-.24737,1.3193,1.3193,0,0,0,.56229-.93828.5655.5655,0,0,0-.18485-.51911,1.00658,1.00658,0,0,0-.63292-.18459h-1.55082Zm.85632-2.68151h1.389a1.50207,1.50207,0,0,0,.88068-.2243,1.23391,1.23391,0,0,0,.52637-.86136.50731.50731,0,0,0-.199-.50887,1.09947,1.09947,0,0,0-.5995-.1461H148.437Z"/><polygon class="cls-1" points="157.354 34.887 156.264 34.887 157.755 30.194 153.392 34.887 152.105 34.887 154.006 28.885 155.097 28.885 153.616 33.579 157.965 28.885 159.253 28.885 157.354 34.887"/><path class="cls-1" d="M162.961,34.1474h-.05007a3.20154,3.20154,0,0,1-.86782.61781,2.22377,2.22377,0,0,1-1.131.24609,1.84888,1.84888,0,0,1-1.18494-.30892,1.14975,1.14975,0,0,1-.39926-1.09978,2.39349,2.39349,0,0,1,1.1695-1.74067,4.32047,4.32047,0,0,1,2.31338-.50882h.93976l.24518-.7755a.71255.71255,0,0,0-.122-.82674,1.1458,1.1458,0,0,0-.78178-.19869,2.0155,2.0155,0,0,0-.94745.19869,1.10683,1.10683,0,0,0-.56616.71522l-.98082-.0513a1.593,1.593,0,0,1,.873-1.26,4.33957,4.33957,0,0,1,1.93205-.39348,1.99754,1.99754,0,0,1,1.61116.55372,1.21333,1.21333,0,0,1,.15663.86523,4.216,4.216,0,0,1-.22465.82545l-1.235,3.88256h-.98725Zm.55206-2.05346H162.522a2.333,2.333,0,0,0-1.3493.31149,1.38672,1.38672,0,0,0-.6406.98825.61451.61451,0,0,0,.14124.54478.93984.93984,0,0,0,.73431.25892,1.79162,1.79162,0,0,0,.9885-.27433,2.75963,2.75963,0,0,0,.70994-.54345Z"/><path class="cls-1" d="M169.715,34.88785h-1.09l1.63428-5.13611H168.5159l-.23238.664c-.27342.80241-.552,1.58174-.88067,2.347a3.72559,3.72559,0,0,1-1.37363,1.81758,3.51017,3.51017,0,0,1-1.38393.46913l-.00387-.86519a2.97035,2.97035,0,0,0,1.00648-.4076,2.80393,2.80393,0,0,0,.86275-1.21c.25673-.59478.75868-1.9291.99876-2.69306l.32224-.98825h3.78589Z"/><polygon class="cls-1" points="176.83 34.887 175.738 34.887 177.235 30.194 172.871 34.887 171.581 34.887 173.482 28.885 174.572 28.885 173.092 33.579 177.443 28.885 178.732 28.885 176.83 34.887"/><polygon class="cls-1" points="183.602 34.887 182.512 34.887 183.376 32.183 180.653 32.183 179.79 34.887 178.699 34.887 180.603 28.885 181.689 28.885 180.918 31.318 183.643 31.318 184.414 28.885 185.503 28.885 183.602 34.887"/><polygon class="cls-1" points="190.713 34.887 189.628 34.887 191.119 30.194 186.757 34.887 185.468 34.887 187.37 28.885 188.456 28.885 186.975 33.579 191.332 28.885 192.615 28.885 190.713 34.887"/><polygon class="cls-1" points="197.83 34.887 196.741 34.887 198.237 30.194 193.869 34.887 192.583 34.887 194.482 28.885 195.573 28.885 194.095 33.579 198.446 28.885 199.732 28.885 197.83 34.887"/></svg>