<?xml version="1.0" encoding="utf-8"?>
<!-- Generator: Adobe Illustrator 23.0.3, SVG Export Plug-In . SVG Version: 6.00 Build 0)  -->
<svg version="1.1" id="Слой_1" xmlns="http://www.w3.org/2000/svg" xmlns:xlink="http://www.w3.org/1999/xlink" x="0px" y="0px"
	 viewBox="0 0 110 110" style="enable-background:new 0 0 110 110;" xml:space="preserve">
<style type="text/css">
	.st0{fill:#FFFFFF;}
</style>
<title>logo_unicornHorseW</title>
<path class="st0" d="M109.9,52.5c-0.8-1.3-1.9-2.3-3.3-2.8c-0.5-0.2-0.9-0.5-1.4-0.8c-2.5-2-5-3.9-7.7-5.6c-0.4-0.3-0.9-0.6-1.4-0.8
	C95.5,42.1,94.8,42,94,42c-0.5,0.1-1.1,0.2-1.6,0.4c-2.5,0.7-4.9,1.6-7.2,2.8c-0.4,0.3-0.6,0.8-0.5,1.2c0.2,1.5,0.4,3.1,0.4,4.6
	c0,0.4,0,0.8,0.4,0.8c0,0,0.8,0.2,0.8,0.2c0.4,0.1,0.5-0.3,0.7-0.6c2-3.2,5.3-6.7,8.8-4.6c1.4,0.7,2.7,1.6,3.9,2.6
	c0.8,0.7,1.6,1.2,2.5,1.7c0.5,0.2,0.6-0.3,0.9-0.4c0.4-0.1,0.6,0.8,0.3,1c-0.3,0.3-0.4,0.7-0.2,1c0.1,0.2,0.2,0.5,0.3,0.8
	c0.1,0.4,0.6,0.7,1,0.7c1.5-0.3,3.4-0.8,4.8-0.9C109.9,53.2,110.1,52.9,109.9,52.5z"/>
<path class="st0" d="M76.1,104.4c-0.4-0.4-0.8-0.7-1.2-1c-0.5-0.4-1.1-1-1.3-1.2c-1.2-0.9-2.6-1.6-3.8-2.5c-2.8-2-6.1-4-6.2-7.8
	c-0.1-3.6,2.1-6.6,1.5-10.3c-0.4-3-1.7-5.9-3.9-8.1c-0.4-0.3-0.9-0.5-1.4-0.4c-1.7,0.2-3.3,0.7-4.7,1.6c-1.3,0.8-4.4,4-4.1,5.8
	c0.3,1.8,3.9,3.4,5.1,4.8c1.8,1.8,2.8,4.2,2.8,6.8c-0.1,2.9-0.9,4,1.6,5.9c1.4,1.1,3.3,1.7,4.8,2.7c1.4,1,2.2,2.4,3.5,3.4
	c0.4,0.3,1.8,0.6,2.1,0.9c0.4,0.5,0.1,1.1,0.4,1.6c0.9,1.5-0.2,0.6,1.5,1.3c1,0.4,2.8,0.1,4.2,0c0.3,0,0.6-0.3,0.6-0.6
	c0-0.1,0-0.1,0-0.2C77.2,106,76.7,105.1,76.1,104.4z"/>
<path class="st0" d="M91,53.8c-3.2-0.5-7.7-0.8-10.9-1.2c-2.9-0.4-3.5-4.3-3-4.9c1-1.2,1,1.9,2.1,3c1,0.9,2.3,1.3,3.7,1.1
	c0.4,0,0.8-0.3,0.8-0.8c0,0,0,0,0,0c-0.3-4.5-1.7-7.4-4.6-10.9c-1.9-2.3-1.8-7.6-2.5-8.4c-0.4-0.4-2-1.9-2-1.9
	c-0.8-0.7-1.2-1.8-0.9-2.9l0.1-0.5c0.1-0.3,0.2-0.6,0.3-0.7c0,0,0.1,0,0.1,0.1c0.1,1.3,0.5,2.6,1.2,3.7c0.9,1.1,2.7,1,3.5,2
	c0.6,0.8,0.1,2.1,0.8,2.8c1.3,1.4,1,0.4,1.7-0.3c0.3-0.3-0.5-2.6,0.8-1.3c0.8,0.8-0.2,2.3,0.7,2.9c1,0.7,1.4-0.2,2.1-0.9
	c1.5-1.5,1.1-1.9,0.5-4c-0.5-1.7-2.4-5.7-2-7.9c0.1-0.5,0.4-1,0.9-1.3c1.2-0.8,3.4-1.2,4.4-1.5c0.9-0.3,10.1-3.4,12.5-4.8
	c0.2-0.1,0.3-0.3,0.2-0.5c-0.1-0.2-0.2-0.2-0.4-0.2c-1.1,0.1-2.7,0.3-3.7,0.6c-0.4,0.1-1.7,0.3-0.2,1c0.2,0.1,0.6,0.3-0.2,0.1
	c-0.7-0.2-1-1-2.6-0.5c-0.4,0.1-1,0.2-0.1,0.8c0.1,0.1,0.3,0.2,0.4,0.3c0.5,0.2,0.4,0.4-0.4,0.1c-1-0.4-1.3-1-3.1-0.6
	c-0.4,0.1-1.1,0.4-0.8,0.7c0.4,0.4,0.8,0.8,1.3,1.2c0.4,0.3-0.1,0.2-0.4,0.1c-0.4-0.2-0.8-0.4-1.1-0.8c-0.5-0.6-0.8-1-2.6-0.3
	c-0.4,0.2,0,0.7,0.1,1.1c0.2,0.4,0.4,0.7,0.7,1c0.6,0.3,0.2,0.3-0.2,0.3s-1.5-1.9-2.6-1.7c-1.2,0.2-3.2,0.3-2.6-0.5
	c0.5-0.8,0.8-1.7,0.8-2.7c0.2-1.7-1.2-4.5-2.7-5.8c-0.3-0.3-0.6-0.1-0.6,0.3c-0.1,1.9-0.8,3.6-2.9,2.4C75,10.6,73.9,9,71.7,7.9
	c-0.4-0.2-0.8,0.1-0.7,0.5c0.4,1.6,2.7,2.6-0.5,2.8c-1.4,0.1-3.1-0.9-4.5-1c-1.6-0.1-3.2,0-4.8,0.3c-0.4,0.1-0.5,0.4-0.1,0.6
	c1.7,1.1,3.5,1.8,1.2,3.1c-3.1,1.7-6.5,2.3-8.3,5.6c-0.1,0.1-0.1,0.3,0,0.4c0.1,0.2,0.7,0.1,1.2,0.1c0.2,0,0.4,0,0.6,0
	c0.4,0,0.6,0.3,0.4,0.7c-1.5,2.8-2.2,5.9-2.2,9c0,0.2,0.3,0.5,0.4,0.4c1.7-2.5,3.2-3.2,3.4-2.8c0.3,0.7-0.7,2.7-0.6,4.5
	c0.2,3.2,1.9,6,4.7,7.6c0.4,0.2,0.8,0,0.7-0.4c-0.4-1.3-1.6-3.6-0.6-4.6c0.1-0.1,0.2-0.2,0.3-0.3c0.2-0.1,0.3,0.6,0.4,1.1
	c0.3,1.8,1.3,5.7,4.7,6c0.4,0,0.2,0.8,0,0.9c-1.5,0.7-5.3-0.6-7.5-2c-3.5-2.2-6.2-5.5-7.8-9.3c-1.5-3.6,0.1-9.5-2.8-12.5
	c-2.5-2.7-6.9-2.2-10.2-2.6c-8.6-1.1-17-3.6-24.8-7.5c-4.3-2-9.6-4.3-13.2-7.5C0.3,0.8,0.1,0.9,0,1.3C-0.7,16,11.5,23.8,24.8,24.1
	c0.4,0,0.5,0.1,0,0.2c-5.4,1.1-12.5,0.4-21.8-5.6c-0.4-0.2-0.6-0.1-0.5,0.3c6.1,18.3,26.9,13.3,28,13.1c0.4-0.1,0.5,0,0.1,0.2
	c-4.4,2-12.4,2.2-17.2,2.1c-0.4,0-0.6,0.3-0.3,0.6c7.9,9.3,22,4.6,25.5,4c0.4-0.1,0.4,0.1,0.1,0.3c-2.6,1.6-8.2,4.6-12.6,4.7
	c-0.4,0-0.6,0.4-0.3,0.7c3.1,3.1,10,3.3,13.9,3.1c6.3-0.4,6.9-1.6,8-1.9c0.3-0.1,0.5-0.1,0.3,0.2c-2,2.2-4.2,4.1-8.2,4.3
	c-0.4,0-0.5,0.4-0.1,0.5c9.9,3.7,16.5,0.9,18.1,0.2c0.4-0.2,0.6,0.1,0.3,0.4c-2.8,3.4-7.1,5.9-10.9,8c-2.7,1.4-5.1,3.1-7.3,5.2
	c-0.2,0.3-0.6,0.3-0.8,0.1c-0.1,0-0.1-0.1-0.1-0.2c-1.1-1.5-4.1-6-8.6-7.8c-2.7-1.1-7.3-1.7-9.9-0.6c-5.5,2.5-6.6,7.2-6.2,12.2
	c0.1,1.9,0.8,3.8,1,5.7c0,2-0.1,3.9-0.5,5.9c0,0.4,0.3,0.6,0.6,0.4c1.2-1,3.2-3.3,3.6-4.6c0.1-0.4,0.1-0.4,0.1,0
	c0.1,1.2,0.1,3.3,0.1,4c-0.2,1.7-0.6,3.4-1.3,4.9c-0.2,0.4,0,0.6,0.4,0.4c4.7-2.3,7.5-11,7.5-16c0-0.4,0.2-0.6,0.4-0.2
	c0.9,2.6-0.1,6.2-0.2,8.1c0,0.4,0.2,0.5,0.5,0.2c2.5-3.3,1.3-7.6,4.2-10.4c3.3-3.1,5.5-0.2,6.5,1.2c0.3,0.3,0.4,0.8,0.3,1.3
	c-1.4,3.9,1.3,8.1,0.1,11.9c-1.1,3.8-6.3,4-8.5,6.8c-2.3,2.9,0.8,7.3,1.7,10.2c0.6,1.9,0.6,3.7,1.1,5.5c0.6,2.2,0.8,1.5,2.1,1.6
	c0.4,0,0.8,0.6,0.6,0.9c-0.4,0.7-1.3,1.3-1,2.3c0.3,1,3.6,0.6,5.3,0.4c0.4,0,0.6-0.3,0.6-0.7c0-0.1,0-0.1,0-0.2
	c-1.5-5.2-8.2-11-6-16.8c1.1-3,5-3.3,7.7-3.9c3.7-0.9,5.5-2.2,7.4-5.6c1.5-2.7,2.3-6,4.8-7.9c2.8-2.2,7.1-2.3,10.5-2.9
	c7.4-1.3,13.7-3.5,17.7-10c0.2-0.4,0-0.7-0.4-0.6c-1.9,0.2-3.9,0.8-6.9,0.2c-0.7-0.1-3.4-2.2-2.3-3.3c0.7-0.7,1.4,1,2.3,1.5
	c2.9,1.7,10.6-1.2,13.3-1.2c2.8,0,3.1,2.4,1.5,4.5c-0.9,1.2-3,2.1-3.5,3.5c-0.2,0.5,0.4,2.9,0.1,3c-0.6,0.3-1.3-2-2.9-0.8
	c-0.9,0.7-1.2,3.5-1,5.1c0,0.4,0.4,0.6,0.8,0.6c0.1,0,0.1,0,0.2,0c1.9-0.9,3.7-2,5.3-3.4c2.2-2,3-5,4.5-7.6
	C94.7,58.3,97.4,54.8,91,53.8z M80.2,22.9c0.8,0.3,2,0.8,2,1.4c-0.1,1.8-2.5,0.5-2.8-0.9C79.3,22.9,79.8,22.7,80.2,22.9z"/>
</svg>
