<svg id="Слой_1" data-name="Слой 1" xmlns="http://www.w3.org/2000/svg" viewBox="0 0 110 110"><defs><style>.cls-1{fill:#1a1f71;}</style></defs><title>logo_visa</title><path class="cls-1" d="M46.81782,44.40754,37.91533,65.64647h-5.8085L27.72549,48.696a2.32817,2.32817,0,0,0-1.30472-1.86525A22.99742,22.99742,0,0,0,21,45.02408l.12939-.61654h9.351a2.56218,2.56218,0,0,1,2.5339,2.16441l2.31506,12.29129L41.0445,44.40755Z"/><polygon class="cls-1" points="54.67 44.408 50.127 65.647 44.632 65.647 49.175 44.408 54.67 44.408"/><path class="cls-1" d="M69.57552,58.71214c.023-5.60444-7.74929-5.91531-7.6985-8.41968.01868-.76112.74376-1.57174,2.33113-1.77885a10.37683,10.37683,0,0,1,5.419.95086l.96259-4.50638a14.81363,14.81363,0,0,0-5.13939-.93822c-5.43206,0-9.25331,2.88514-9.2837,7.01987-.0356,3.05838,2.72927,4.763,4.80857,5.78158,2.14183,1.0403,2.86,1.70894,2.85,2.63853-.01519,1.425-1.71024,2.05585-3.28633,2.0793a11.48158,11.48158,0,0,1-5.64351-1.34206L53.898,64.85278a16.67745,16.67745,0,0,0,6.109,1.12715C65.78163,65.97993,69.55859,63.12779,69.57552,58.71214Z"/><path class="cls-1" d="M84.5614,44.40762H79.87313A2.50252,2.50252,0,0,0,77.533,45.96419L69.288,65.647H75.06l1.14483-3.17422h7.04969l.66406,3.17422H89ZM77.78532,58.12187l2.8953-7.97671,1.66016,7.97671Z"/></svg>