<svg id="Слой_1" data-name="Слой 1" xmlns="http://www.w3.org/2000/svg" viewBox="0 0 160 36"><defs><style>.cls-1{fill:#231f20;}.cls-2{fill:#fbb040;}</style></defs><title>logo_unicorn_simple</title><path class="cls-1" d="M45.96057,27.41706c0,3.16842-2.11228,4.48147-4.99549,4.48147-2.85445,0-4.93828-1.31306-4.93828-4.48147V19.08171H32.03041v8.33535A7.22523,7.22523,0,0,0,34.48526,33.326a10.02776,10.02776,0,0,0,6.47982,1.96944A10.0567,10.0567,0,0,0,47.47351,33.326,7.15851,7.15851,0,0,0,49.957,27.41706V19.08171H45.96057Z"/><polygon class="cls-1" points="67.785 28.701 52.542 18.796 52.542 35.01 56.567 35.01 56.567 25.647 71.81 35.295 71.81 19.082 67.785 19.082 67.785 28.701"/><rect class="cls-1" x="74.40487" y="19.08171" width="3.99637" height="15.92835"/><path class="cls-1" d="M83.63159,21.13706a7.18328,7.18328,0,0,0-2.97315,5.93739,7.10267,7.10267,0,0,0,2.99986,5.93739,13.33028,13.33028,0,0,0,8.19718,2.28359,15.85673,15.85673,0,0,0,7.28615-1.51279V30.3001a16.52465,16.52465,0,0,1-7.04506,1.59843c-2.49138,0-4.36652-.45664-5.59874-1.3987a4.28627,4.28627,0,0,1-1.82146-3.4541,4.236,4.236,0,0,1,1.82146-3.42529,9.022,9.022,0,0,1,5.51838-1.42715,17.3077,17.3077,0,0,1,7.12542,1.62688V20.33759a15.612,15.612,0,0,0-7.36652-1.54123c-3.42882,0-6.13434.77045-8.14352,2.34074Z"/><path class="cls-1" d="M119.01,21.11a11.95636,11.95636,0,0,0-7.71-2.30994A11.91959,11.91959,0,0,0,103.60986,21.11,7.232,7.232,0,0,0,100.72,27.05005a7.296,7.296,0,0,0,2.88989,5.96,12.15924,12.15924,0,0,0,7.69019,2.29,12.19919,12.19919,0,0,0,7.79-2.29,7.23658,7.23658,0,0,0,2.83984-5.96A7.1264,7.1264,0,0,0,119.01,21.11Zm-2.86011,9.48a9.56171,9.56171,0,0,1-9.66992,0,4.29261,4.29261,0,0,1,0-7.05994,9.36889,9.36889,0,0,1,9.64014,0,4.04831,4.04831,0,0,1,1.8999,3.52A4.13592,4.13592,0,0,1,116.1499,30.59Z"/><path class="cls-1" d="M135.98,29.39a5.3529,5.3529,0,0,0,3.6499-4.88,5.47548,5.47548,0,0,0-5.50976-5.45c-.13013.01-.26026.01-.39014.0199H123.48V35.01h4.02V29.96h4.2L135.24,35.01h4.61987Zm-3.28-2.86h-5.2V22.51h5.2c2.02,0,2.74,1,2.74,2C135.43994,25.53,134.72,26.53,132.7,26.53Z"/><polygon class="cls-1" points="155.693 19.082 155.693 28.121 141.874 18.796 141.874 35.01 145.899 35.01 145.899 26.298 159.717 35.295 159.717 19.082 155.693 19.082"/><path class="cls-2" d="M35.43622,17.18216a2.218,2.218,0,0,0-1.05481-.90428,1.90429,1.90429,0,0,1-.43721-.24929,29.53668,29.53668,0,0,0-2.44768-1.80509,3.39587,3.39587,0,0,0-.43884-.26443,1.43534,1.43534,0,0,0-.70212-.11207,3.289,3.289,0,0,0-.49908.11541,10.73655,10.73655,0,0,0-2.30488.89608.42667.42667,0,0,0-.17194.39677,10.40588,10.40588,0,0,1,.12733,1.48341c-.00138.14169-.00248.24277.13752.26469.00479.00074.26452.0495.26936.05027.14.02225.16046-.08078.23622-.20054.64864-1.02527,1.69672-2.13035,2.80836-1.48081a7.18006,7.18006,0,0,1,1.23822.82394,5.04874,5.04874,0,0,0,.7937.55267c.15657.07635.20424-.10124.29516-.12321.13775-.03327.188.24276.11042.31792a.28565.28565,0,0,0-.06444.32073c.0302.0797.06087.16827.08763.24948a.31013.31013,0,0,0,.3294.21c.47845-.08058,1.08928-.24549,1.54969-.29776C35.439,17.41009,35.50907,17.30371,35.43622,17.18216Z"/><path class="cls-2" d="M24.61022,33.77524a3.95743,3.95743,0,0,0-.3938-.3154c-.15346-.13636-.33747-.33462-.41039-.38793-.37959-.27757-.81889-.5161-1.21081-.79055-.899-.62956-1.96391-1.27986-1.98347-2.50116-.01825-1.13937.6673-2.12343.4906-3.3009a4.57693,4.57693,0,0,0-1.23589-2.57749.59814.59814,0,0,0-.44869-.125,4.05829,4.05829,0,0,0-1.51807.50764c-.40135.2534-1.41966,1.27879-1.30817,1.8457.11132.56607,1.233,1.09982,1.632,1.52706a2.95045,2.95045,0,0,1,.88761,2.16122c-.02319.93233-.27482,1.287.51283,1.88231.46142.34873,1.04416.53689,1.52436.862.45556.30839.71579.7569,1.12723,1.07947.12864.10085.58655.20477.66648.29749.12618.14637.03387.36295.13625.52342.29681.4652-.05886.203.48183.42024a3.69244,3.69244,0,0,0,1.3332-.0103.20016.20016,0,0,0,.19617-.26142A3.29877,3.29877,0,0,0,24.61022,33.77524Z"/><path class="cls-2" d="M29.377,17.60556c-1.02866-.15677-2.47037-.25575-3.49795-.3835a1.32409,1.32409,0,0,1-.9654-1.56033c.31676-.377.32645.6109.67813.96082a1.54564,1.54564,0,0,0,1.16753.35874.24474.24474,0,0,0,.24647-.243q0-.00783-.00039-.01564a5.45009,5.45009,0,0,0-1.473-3.48258c-.59419-.72144-.56763-2.423-.80844-2.68478-.13-.14132-.64634-.60234-.64634-.60234a.879.879,0,0,1-.28461-.91178l.04664-.16731c.02575-.09239.05358-.19836.08272-.21167.01182-.00541.02336.00175.02894.04066a2.68883,2.68883,0,0,0,.39546,1.17959c.29927.33809.85539.31108,1.11388.64845.204.26618.023.65941.26.90277.42083.43214.33222.14062.549-.09931.08629-.09547-.166-.82415.24061-.4069.24235.24872-.04843.74459.22548.93408.31634.21885.4626-.07833.68727-.29269.4924-.46982.35358-.60928.158-1.26577a6.90994,6.90994,0,0,1-.63612-2.51543.78165.78165,0,0,1,.27477-.41489,6.53349,6.53349,0,0,1,1.4149-.49182,36.62963,36.62963,0,0,0,3.9929-1.52736.12093.12093,0,0,0-.07139-.22861c-.34071.04748-.85285.08961-1.19865.17716-.13738.03479-.545.09248-.06024.32434.07828.03744.19011.1013-.07988.02615-.22229-.06189-.32243-.33164-.84253-.16095-.13464.04419-.32388.05645-.04588.26021a1.4314,1.4314,0,0,0,.12869.09561c.14417.07165.14161.126-.113.03042-.31986-.12013-.4088-.30642-.99733-.18338-.13871.029-.34293.123-.25754.23607a3.25514,3.25514,0,0,0,.40061.372c.14284.09328-.04218.05273-.13315.032a.87171.87171,0,0,1-.35914-.2494c-.16595-.20271-.26383-.3261-.8383-.10457-.13222.051-.0156.23141.0437.3601a.75036.75036,0,0,0,.22814.30519c.19315.08585.05445.09761-.07869.08585s-.47214-.60807-.82274-.55281c-.37567.0592-1.02075.103-.8442-.16017A2.036,2.036,0,0,0,26.9514,5.165a2.67761,2.67761,0,0,0-.857-1.84428c-.10551-.09459-.20037-.03641-.20578.10519-.02356.61628-.24356,1.142-.915.75716a21.55624,21.55624,0,0,0-1.76691-1.24448c-.129-.05858-.268.02117-.23473.15892.1245.51589.87939.83651-.15187.90221a11.58788,11.58788,0,0,1-1.43739-.31581,6.05274,6.05274,0,0,0-1.52245.10272c-.1397.02377-.16258.11646-.04444.19471.54941.36391,1.1276.56267.3698.98239-.99809.55282-2.09084.72925-2.65256,1.78917a.13058.13058,0,0,0,.00616.1347c.04336.06511.23615.03762.37744.02669.06663-.00515.13309-.0087.19578-.01033.14166-.00365.19133.10327.12068.2261a6.05374,6.05374,0,0,0-.68941,2.882c.0001.05985.086.15634.112.11833.55156-.80612,1.01452-1.01317,1.07423-.88886.10466.21788-.21831.84841-.20446,1.44043a2.94118,2.94118,0,0,0,1.50167,2.42015c.12289.07056.24789.00282.20941-.13355-.11745-.41632-.507-1.14484-.20489-1.48048.03036-.03373.05764-.07541.08291-.08521.06168-.02392.08794.19782.11493.33694.11.56671.41379,1.81052,1.49987,1.93207.1257.01407.06821.27074.00133.30213a3.624,3.624,0,0,1-2.40779-.65243,6.47525,6.47525,0,0,1-2.49158-2.9622c-.48806-1.16319.01628-3.02626-.90107-4.00655-.80318-.85829-2.19816-.70627-3.27307-.825A25.55144,25.55144,0,0,1,4.73276,3.14431,17.58913,17.58913,0,0,1,.49866.73885C.3929.64449.29977.67843.29266.81993.056,5.5266,3.94839,7.996,8.19924,8.10426c.14166.00361.14534.02967.0067.059-1.71826.36373-4.00659.12015-6.964-1.79637-.11892-.07706-.1927-.02764-.14757.1067C3.06108,12.328,9.6853,10.73121,10.0631,10.67115c.13995-.02224.15383.01175.02513.07106a15.03289,15.03289,0,0,1-5.51017.67372c-.14167-.00307-.18794.08454-.09623.19256,2.53511,2.98565,7.03816,1.48632,8.16157,1.27094.13917-.02667.14.02894.02011.10448a9.4259,9.4259,0,0,1-4.021,1.4908c-.14169.00274-.18231.13788-.08218.23814.9893.99072,3.18568,1.06554,4.4501.97977a5.01906,5.01906,0,0,0,2.5486-.61379c.10377-.03345.15084-.02331.08006.05337a3.617,3.617,0,0,1-2.62755,1.37523c-.14149.00787-.16531.11351-.03269.16343a7.61566,7.61566,0,0,0,5.80246.06914c.13257-.05.17668.02138.08771.13168a11.27574,11.27574,0,0,1-3.47888,2.54552,9.12408,9.12408,0,0,0-2.32179,1.67443.18953.18953,0,0,1-.31168-.01889,6.88275,6.88275,0,0,0-2.75824-2.51018,4.72851,4.72851,0,0,0-3.17169-.1762c-1.74737.793-2.10284,2.30342-1.98221,3.90738.04663.61982.25371,1.21332.307,1.831a9.58949,9.58949,0,0,1-.151,1.874c-.01529.14088.08225.20758.193.1192a4.02264,4.02264,0,0,0,1.143-1.48487c.03613-.137.03723-.14351.04575-.00206.02329.38676.03036,1.05943.01864,1.27357a4.96709,4.96709,0,0,1-.40477,1.57024c-.05264.13157.00252.19768.12973.13524,1.51822-.74527,2.39912-3.51977,2.38494-5.11413-.00126-.1417.07322-.19063.121-.05723A6.5151,6.5151,0,0,1,8.57247,25.015c-.00987.14136.07057.175.15621.06215.808-1.06515.43126-2.43924,1.34317-3.31341,1.04221-.99909,1.75451-.06289,2.08531.37088a.45156.45156,0,0,1,.09687.40238c-.4354,1.2488.406,2.57782.042,3.80091-.36024,1.21034-2.01139,1.268-2.709,2.16507-.72213.92847.257,2.31916.53947,3.26929.176.5919.19708,1.18933.34415,1.77161.17915.70921.26923.46405.6687.50216.14107.01346.25581.17807.1809.29836-.13822.22193-.4236.40675-.31155.75034.1006.30847,1.13964.18338,1.70507.13053a.20776.20776,0,0,0,.19445-.26776c-.49-1.64823-2.611-3.5213-1.92583-5.36638.35055-.944,1.60341-1.06222,2.45723-1.2614a3.12948,3.12948,0,0,0,2.3583-1.78555,7.62424,7.62424,0,0,1,1.54163-2.54034c.89779-.70778,2.27109-.7332,3.35881-.91962,2.3646-.40526,4.38347-1.12442,5.66256-3.20551.0742-.12073.01517-.219-.12591-.20568a6.37366,6.37366,0,0,1-2.20439.05953c-.2128-.04207-1.08457-.7137-.7351-1.05649.21261-.20854.46133.31784.74759.482.93673.53706,3.38772-.39358,4.2465-.38718.8995.00671.99525.7754.47332,1.43091-.29576.37144-.97086.67-1.12114,1.12774-.05144.15669.11326.93852.04216.97224-.17851.08469-.42873-.6369-.93743-.26371-.28431.20858-.37845,1.13021-.33076,1.64029a.219.219,0,0,0,.29332.18314A7.2259,7.2259,0,0,0,28.41088,22.77a8.58432,8.58432,0,0,0,1.433-2.41579C30.585,19.03816,31.4249,17.91768,29.377,17.60556ZM25.94243,7.7153c.26547.09414.653.24639.64613.45573-.01893.5778-.7878.16762-.89811-.29637C25.65767,7.7368,25.8089,7.66793,25.94243,7.7153Z"/></svg>