<svg id="Слой_1" data-name="Слой 1" xmlns="http://www.w3.org/2000/svg" viewBox="0 0 110 110"><defs><style>.cls-1{fill:#7673c0;}.cls-2{fill:#eb001b;}.cls-3{fill:#00a1df;}</style></defs><title>logo_maestro</title><path d="M41.55816,81.14929V77.65188a2.07433,2.07433,0,0,0-2.19165-2.215,2.15852,2.15852,0,0,0-1.9585.991,2.04677,2.04677,0,0,0-1.842-.991,1.84292,1.84292,0,0,0-1.63208.82775v-.68782H32.72146V81.1493h1.2241V78.06a1.30327,1.30327,0,0,1,1.364-1.48047c.8044,0,1.21249.52455,1.21249,1.46881v3.101h1.2241V78.06a1.3141,1.3141,0,0,1,1.364-1.48047c.82762,0,1.224.52455,1.224,1.46881v3.101ZM48.38978,78.363V75.5768H47.17729v.67614a2.114,2.114,0,0,0-1.76038-.81607,2.92972,2.92972,0,0,0,0,5.8524,2.1139,2.1139,0,0,0,1.76038-.81613v.67615h1.21249Zm-4.51161,0a1.67159,1.67159,0,1,1-.00362.13482Q43.87363,78.43033,43.87817,78.363Zm30.45455-2.93264a3.14091,3.14091,0,0,1,1.19584.22409,2.91759,2.91759,0,0,1,.95127.61678,2.8238,2.8238,0,0,1,.62846.9281,3.09548,3.09548,0,0,1,0,2.32742,2.82164,2.82164,0,0,1-.62846.92827,2.91554,2.91554,0,0,1-.95127.61666,3.30181,3.30181,0,0,1-2.39163,0,2.88376,2.88376,0,0,1-.94852-.61666,2.84819,2.84819,0,0,1-.62554-.92827,3.09842,3.09842,0,0,1,0-2.32742,2.85078,2.85078,0,0,1,.62554-.9281,2.886,2.886,0,0,1,.94857-.61678A3.14041,3.14041,0,0,1,74.33272,75.43034Zm0,1.1464a1.80945,1.80945,0,0,0-.69232.13093,1.63788,1.63788,0,0,0-.5528.36647,1.7087,1.7087,0,0,0-.36666.56454,2.0275,2.0275,0,0,0,0,1.4489,1.7072,1.7072,0,0,0,.36666.56442,1.63707,1.63707,0,0,0,.5528.36657,1.89582,1.89582,0,0,0,1.38469,0,1.67074,1.67074,0,0,0,.55572-.36657,1.691,1.691,0,0,0,.36963-.56442,2.02761,2.02761,0,0,0,0-1.4489,1.6925,1.6925,0,0,0-.36963-.56454,1.67123,1.67123,0,0,0-.55572-.36647A1.8097,1.8097,0,0,0,74.33272,76.57674ZM54.98708,78.363a2.67184,2.67184,0,0,0-2.4054-2.914q-.12013-.01147-.24093-.01209a2.92864,2.92864,0,0,0,.08161,5.85234,3.38714,3.38714,0,0,0,2.28494-.78109l-.59454-.89769a2.65512,2.65512,0,0,1-1.62046.58287,1.54771,1.54771,0,0,1-1.66716-1.364h4.13865C54.97547,78.67779,54.98708,78.52631,54.98708,78.363Zm-4.15021-.48955a1.43463,1.43463,0,0,1,1.48053-1.35228,1.38411,1.38411,0,0,1,1.41067,1.35228Zm9.2561-.87429a3.59179,3.59179,0,0,0-1.737-.478c-.66459,0-1.06089.24482-1.06089.65291,0,.37307.41965.47785.94432.54778l.57119.08161c1.21249.17489,1.94683.68782,1.94683,1.6671,0,1.06089-.93259,1.81876-2.54137,1.81876a4.02031,4.02031,0,0,1-2.41318-.723l.57119-.94419a2.969,2.969,0,0,0,1.85366.58291c.82763,0,1.27069-.24476,1.27069-.6762,0-.31476-.31481-.48964-.97922-.58287l-.57122-.08152c-1.24734-.17494-1.92348-.73451-1.92348-1.64386,0-1.10753.90923-1.78368,2.3199-1.78368a4.16693,4.16693,0,0,1,2.27331.583Zm5.82578-.31482H63.937v2.5182c0,.55945.19818.93258.80441.93258a2.23933,2.23933,0,0,0,1.07256-.31475l.34966,1.03759a2.84859,2.84859,0,0,1-1.5155.43133c-1.4339,0-1.93516-.76944-1.93516-2.06359V76.68432H61.582V75.5768H62.713l-.0004-1.69037h1.224l.00036,1.69034h1.98179Zm4.19592-1.24745a2.58909,2.58909,0,0,1,.86277.15166L70.60437,76.731a1.97526,1.97526,0,0,0-.75775-.13992c-.79277,0-1.1892.513-1.1892,1.4339v3.12435H67.44507V75.5768h1.2008v.67614A1.64342,1.64342,0,0,1,70.11467,75.43687Zm8.3937,4.90125a.557.557,0,0,1,.2196.04355.57063.57063,0,0,1,.17944.11891.55818.55818,0,0,1,.12089.17676.545.545,0,0,1,0,.43022.56291.56291,0,0,1-.12089.176.58178.58178,0,0,1-.17944.11955.54835.54835,0,0,1-.2196.04424.56509.56509,0,0,1-.524-.33979.54634.54634,0,0,1,0-.43022.56189.56189,0,0,1,.12037-.17675.55491.55491,0,0,1,.18008-.11891A.57316.57316,0,0,1,78.50837,80.33812Zm0,.98687a.41287.41287,0,0,0,.1673-.034.44017.44017,0,0,0,.13584-.09241.432.432,0,0,0-.13584-.7034.41763.41763,0,0,0-.1673-.03339.43538.43538,0,0,0-.17057.03339.42625.42625,0,0,0-.13794.09158.43252.43252,0,0,0,.30851.7382Zm.03264-.692a.23427.23427,0,0,1,.153.0443.14752.14752,0,0,1,.05364.12025.14.14,0,0,1-.0428.10524.20369.20369,0,0,1-.12171.051l.16859.19439H78.62l-.15633-.193h-.05031v.193h-.1101V80.633Zm-.12773.09661v.13729h.12643a.12447.12447,0,0,0,.06935-.01709.05809.05809,0,0,0,.02574-.05226.05723.05723,0,0,0-.02574-.05107.12546.12546,0,0,0-.06935-.01687Z"/><g id="_Группа_" data-name=" Группа "><rect class="cls-1" x="45.80702" y="33.04644" width="18.38778" height="33.04337"/><path id="_Контур_" data-name=" Контур " class="cls-2" d="M46.97463,49.56812A20.97821,20.97821,0,0,1,55.001,33.04643a21.01461,21.01461,0,1,0,0,33.04337A20.97825,20.97825,0,0,1,46.97463,49.56812Z"/><path class="cls-3" d="M86.99606,62.59006v-.6765h.27278v-.13782h-.69471v.13782H86.847v.6765Zm1.34873,0v-.81563h-.213l-.24494.561-.245-.561h-.21308v.81566h.15039v-.61526l.22969.53044h.15591l.2297-.53178v.6166Z"/><path class="cls-3" d="M89.001,49.56812a21.01383,21.01383,0,0,1-34,16.52169,21.0176,21.0176,0,0,0,0-33.04338,21.01383,21.01383,0,0,1,34,16.52169Z"/></g></svg>