<svg id="Слой_1" data-name="Слой 1" xmlns="http://www.w3.org/2000/svg" xmlns:xlink="http://www.w3.org/1999/xlink" viewBox="0 0 110 110"><defs><style>.cls-1{fill:#20aa4d;}.cls-2{fill:url(#Безымянный_градиент_6);}</style><linearGradient id="Безымянный_градиент_6" x1="68.94833" y1="-1659.33321" x2="89" y2="-1659.33321" gradientTransform="matrix(1, 0, 0, -1, 0, -1610)" gradientUnits="userSpaceOnUse"><stop offset="0.00985" stop-color="#00a7e3"/><stop offset="0.33663" stop-color="#009edc"/><stop offset="0.87478" stop-color="#0085c9"/><stop offset="1" stop-color="#007ec4"/></linearGradient></defs><title>logo_mir</title><path class="cls-1" d="M58.85973,47.436l-4.29536,9.30719h-.43685V45.41008H48.0247V64.58932H53.205a3.48661,3.48661,0,0,0,3.1655-2.02588l4.2966-9.30711h.43559v11.333H67.2054V45.41008H62.02649a3.487,3.487,0,0,0-3.16676,2.0259"/><path class="cls-1" d="M35.96467,47.93082l-2.54216,8.8133H32.987l-2.54215-8.8133a3.48878,3.48878,0,0,0-3.35047-2.52117H21v19.1806h6.10127V53.25581h.43694l3.48686,11.33444h4.35929l3.487-11.33444h.43549V64.59025h6.10272V45.40965h-6.0944a3.48878,3.48878,0,0,0-3.35046,2.52117"/><path class="cls-1" d="M69.82059,54.12824V64.59035h6.09015V58.48762h6.55078A6.53586,6.53586,0,0,0,88.62,54.12824Z"/><path class="cls-2" d="M82.46179,45.41008H68.94833a9.58919,9.58919,0,0,0,9.42686,7.84625h10.494A6.64227,6.64227,0,0,0,89,51.94839a6.53861,6.53861,0,0,0-6.53821-6.53831"/></svg>