<svg id="Слой_1" data-name="Слой 1" xmlns="http://www.w3.org/2000/svg" viewBox="0 0 32 32"><defs><style>.cls-1{fill:#fbb040;}</style></defs><title>logo_unicornHorseColorS</title><path class="cls-1" d="M31.97346,15.2647a2.01738,2.01738,0,0,0-.95939-.82247,1.73171,1.73171,0,0,1-.39765-.22674,26.86573,26.86573,0,0,0-2.22624-1.64178,3.088,3.088,0,0,0-.39914-.24051,1.30553,1.30553,0,0,0-.6386-.10193,2.99162,2.99162,0,0,0-.45393.105,9.7646,9.7646,0,0,0-2.09635.815.38806.38806,0,0,0-.15639.36087,9.46444,9.46444,0,0,1,.11581,1.34921c-.00125.12887-.00225.2208.12508.24073.00436.00068.24059.045.245.04573.12729.02024.14594-.07348.21485-.1824.59-.93251,1.54322-1.93761,2.55429-1.34684a6.53072,6.53072,0,0,1,1.1262.7494,4.59222,4.59222,0,0,0,.72189.50267c.14241.06944.18576-.09208.26846-.11206.12528-.03026.171.22079.10043.28915a.25981.25981,0,0,0-.05861.29172c.02747.07249.05537.15305.07971.22691a.28207.28207,0,0,0,.29959.191c.43517-.07329.99073-.22328,1.40949-.27082C31.976,15.472,32.03971,15.37525,31.97346,15.2647Z"/><path class="cls-1" d="M22.12688,30.35661a3.59558,3.59558,0,0,0-.35817-.28687c-.13958-.124-.30694-.30435-.37326-.35284-.34525-.25245-.74481-.4694-1.10127-.719-.81767-.57261-1.78623-1.16407-1.804-2.27488-.01659-1.03629.60693-1.93132.44622-3.00228a4.16287,4.16287,0,0,0-1.12408-2.3443.544.544,0,0,0-.4081-.11369,3.69121,3.69121,0,0,0-1.38073.46171c-.365.23048-1.29122,1.1631-1.18982,1.67872.10125.51486,1.12145,1.00032,1.48436,1.38891a2.6835,2.6835,0,0,1,.8073,1.96569c-.02109.848-.24995,1.17057.46644,1.712.41968.31718.9497.48832,1.38645.784.41435.28049.651.68842,1.02525.98181.117.09172.53349.18624.60618.27057.11477.13313.03081.33012.12393.47607.26995.42311-.05354.18463.43824.38222a3.3582,3.3582,0,0,0,1.21258-.00937.182.182,0,0,0,.17842-.23777A2.99971,2.99971,0,0,0,22.12688,30.35661Z"/><path class="cls-1" d="M26.46239,15.6498c-.9356-.14259-2.24688-.23262-3.18149-.34881a1.20429,1.20429,0,0,1-.87806-1.41916c.2881-.3429.29691.55563.61677.87389a1.40586,1.40586,0,0,0,1.06191.32629.22262.22262,0,0,0,.22417-.221q0-.00711-.00036-.01421a4.9569,4.9569,0,0,0-1.33973-3.16751c-.54044-.65618-.51628-2.20385-.7353-2.44189-.11824-.12854-.58787-.54785-.58787-.54785a.79949.79949,0,0,1-.25886-.82929l.04242-.15217c.02342-.084.04873-.18042.07524-.19252.01075-.00492.02124.00159.02632.037a2.44555,2.44555,0,0,0,.35968,1.07287c.2722.30749.778.28294,1.01311.58978.1855.2421.02092.59976.23648.82109.38275.393.30216.1279.49937-.09031.07849-.08684-.151-.74959.21885-.37009.22042.22622-.044.67722.20508.84957.28772.199.42074-.07124.62509-.26621.44785-.42731.32159-.55416.1437-1.15125a6.28514,6.28514,0,0,1-.57857-2.28786.711.711,0,0,1,.24992-.37737,5.94259,5.94259,0,0,1,1.28689-.44732,33.3138,33.3138,0,0,0,3.63166-1.38918.11.11,0,0,0-.06493-.20793c-.30988.04319-.77569.0815-1.09021.16114-.125.03164-.49569.08411-.05479.295.0712.03405.17291.09213-.07265.02377-.20218-.05628-.29326-.30163-.7663-.14638-.12246.0402-.29458.05135-.04173.23667a1.30042,1.30042,0,0,0,.11705.08695c.13112.06517.12879.1146-.10278.02768-.29092-.10926-.37182-.27871-.9071-.16679-.12616.02638-.31191.11187-.23424.21471a2.96131,2.96131,0,0,0,.36436.33835c.12992.08485-.03836.048-.1211.0291a.79271.79271,0,0,1-.32665-.22683c-.15094-.18436-.24-.2966-.76246-.09511-.12026.04638-.01419.21047.03975.32753a.68248.68248,0,0,0,.2075.27757c.17567.07808.04952.08878-.07157.07808s-.42943-.55306-.74831-.50279c-.34168.05385-.9284.09368-.76783-.14568a1.8518,1.8518,0,0,0,.24144-.77658,2.43543,2.43543,0,0,0-.77947-1.67743c-.096-.086-.18224-.03311-.18716.09568-.02143.56052-.22153,1.03868-.83222.68866a19.61057,19.61057,0,0,0-1.60706-1.1319c-.11733-.05328-.24376.01926-.2135.14455.11324.46921.79984.76083-.13813.82058a10.53794,10.53794,0,0,1-1.30735-.28723,5.50509,5.50509,0,0,0-1.38471.09342c-.12706.02162-.14787.10593-.04042.1771.49971.331,1.02559.51176.33635.89351-.9078.50281-1.90168.66327-2.41259,1.6273a.11881.11881,0,0,0,.00561.12252c.03944.05922.21478.03421.34329.02427.0606-.00468.121-.00791.17807-.00938.12884-.00332.174.09391.10976.20564a5.50606,5.50606,0,0,0-.627,2.62127c.00009.05442.07822.14219.10187.10761.50166-.73319.92274-.92151.977-.80844.09519.19817-.19856.77165-.186,1.31011a2.675,2.675,0,0,0,1.36582,2.2012c.11177.06418.22546.00257.19046-.12147-.10683-.37865-.46113-1.04126-.18635-1.34654.02761-.03068.05242-.06858.07541-.07749.0561-.02176.08.17992.10453.30646.1.51544.37635,1.64672,1.36418,1.75727.11432.0128.062.24625.0012.2748a3.29612,3.29612,0,0,1-2.18995-.59341,5.88941,5.88941,0,0,1-2.26617-2.69421c-.4439-1.05795.01481-2.75247-.81955-3.64407-.73051-.78064-1.99929-.64238-2.977-.75037A23.23976,23.23976,0,0,1,4.04774,2.49685,15.99754,15.99754,0,0,1,.1967.309C.1005.2232.0158.25407.00933.38276c-.21522,4.28085,3.325,6.52686,7.19127,6.62532.12885.00328.1322.027.0061.05366-1.56281.33082-3.64412.10928-6.334-1.63385C.76457,5.3578.69746,5.40275.73851,5.52494c1.78878,5.32479,7.81371,3.87242,8.15733,3.8178.12729-.02022.13991.01069.02286.06464a13.6728,13.6728,0,0,1-5.01167.61276c-.12885-.00279-.17093.0769-.08752.17514,2.30576,2.71553,6.40142,1.35186,7.42319,1.156.12658-.02426.12733.02632.01829.095A8.57322,8.57322,0,0,1,7.60377,12.8022c-.12887.00249-.16582.1254-.07474.21659.89979.90109,2.89747.96914,4.0475.89113a4.56495,4.56495,0,0,0,2.318-.55826c.09439-.03042.1372-.0212.07282.04854A3.28976,3.28976,0,0,1,11.57754,14.651c-.12869.00715-.15036.10324-.02974.14864a6.92669,6.92669,0,0,0,5.27751.06288c.12058-.04547.1607.01945.07978.11977a10.25568,10.25568,0,0,1-3.16415,2.31523,8.29845,8.29845,0,0,0-2.11173,1.52294.17241.17241,0,0,1-.28349-.01718A6.25992,6.25992,0,0,0,8.837,16.52022,4.30068,4.30068,0,0,0,5.95227,16.36,3.20872,3.20872,0,0,0,4.1494,19.91383c.04241.56375.23075,1.10356.27922,1.66535a8.7213,8.7213,0,0,1-.13734,1.70441c-.0139.12814.07481.1888.17554.10842a3.65851,3.65851,0,0,0,1.03959-1.35053c.03287-.12461.03387-.13053.04162-.00188.02118.35177.02761.96359.017,1.15835a4.51781,4.51781,0,0,1-.36815,1.42818c-.04788.11967.00229.17981.118.123,1.38087-.67785,2.18207-3.20134,2.16918-4.65146-.00115-.12888.06659-.17338.11005-.05205a5.92572,5.92572,0,0,1-.054,2.34324c-.009.12857.06419.15917.14208.05653.7349-.96879.39224-2.21856,1.22165-3.01365.94792-.9087,1.59578-.0572,1.89665.33733a.41069.41069,0,0,1,.08811.366c-.396,1.13582.36927,2.3446.0382,3.457-.32765,1.10084-1.82942,1.15328-2.46392,1.96919-.6568.84448.23375,2.10935.49067,2.97352.16007.53835.17925,1.08173.313,1.61134.16294.645.24487.42206.6082.45672.12831.01224.23267.162.16454.27137-.12572.20185-.38528.36995-.28337.68246.0915.28056,1.03654.16679,1.55082.11873a.18894.18894,0,0,0,.17685-.24354c-.44567-1.49912-2.37478-3.20273-1.7516-4.88089.31884-.85859,1.45835-.96612,2.23493-1.14728a2.84636,2.84636,0,0,0,2.14494-1.624A6.93453,6.93453,0,0,1,15.514,21.4692a6.74233,6.74233,0,0,1,3.05494-.83643c2.15068-.36859,3.9869-1.02269,5.15027-2.9155.06749-.10981.0138-.19919-.11452-.18708a5.79693,5.79693,0,0,1-2.005.05415c-.19354-.03826-.98645-.64913-.66859-.96091.19337-.18967.41959.28909.68.43839.852.48848,3.08123-.358,3.86232-.35215.81812.0061.90521.70525.4305,1.30146-.269.33783-.883.60938-1.01971,1.02571-.04679.14252.103.85361.03835.88428-.16237.077-.39-.57928-.85262-.23985-.25859.18971-.34422,1.028-.30084,1.49189a.19916.19916,0,0,0,.26678.16657,6.57207,6.57207,0,0,0,1.54784-.99268,7.808,7.808,0,0,0,1.30336-2.19724C27.56116,16.95279,28.325,15.93368,26.46239,15.6498ZM23.33857,6.65431c.24145.08562.59392.2241.58767.4145-.01722.52552-.71653.15245-.81686-.26956C23.07957,6.67387,23.21712,6.61123,23.33857,6.65431Z"/></svg>