<svg xmlns="http://www.w3.org/2000/svg" xmlns:xlink="http://www.w3.org/1999/xlink" viewBox="0 0 158 48"><defs><style>.cls-1{fill:#fff;fill-rule:evenodd;}.cls-2{mask:url(#mask);}.cls-3{mask:url(#mask-2-2);}.cls-4{mask:url(#mask-3);}</style><mask id="mask" x="12.67217" y="1.71738" width="18.15542" height="6.24303" maskUnits="userSpaceOnUse"><g id="mask-2"><polygon id="path-1" class="cls-1" points="12.672 1.718 30.828 1.718 30.828 7.96 12.672 7.96 12.672 1.718"/></g></mask><mask id="mask-2-2" x="0.00032" y="9.08602" width="40.23166" height="37.64289" maskUnits="userSpaceOnUse"><g id="mask-4"><polygon id="path-3" class="cls-1" points="0 9.086 40.232 9.086 40.232 46.729 0 46.729 0 9.086"/></g></mask><mask id="mask-3" x="146.35913" y="12.00966" width="11.28039" height="17.76163" maskUnits="userSpaceOnUse"><g id="mask-6"><polygon id="path-5" class="cls-1" points="146.359 12.01 157.639 12.01 157.639 29.771 146.359 29.771 146.359 12.01"/></g></mask></defs><title>logo_pokupajW</title><g id="Слой_2" data-name="Слой 2"><g class="cls-2"><path id="Fill-1" class="cls-1" d="M19.73031,2.67916c.08832,0,.17583.0081.26333.01134a6.11517,6.11517,0,0,0-3.28153,5.26991h.961A5.39967,5.39967,0,0,1,21.75028,2.983a5.40065,5.40065,0,0,1,4.07721,4.97741h.961A6.11437,6.11437,0,0,0,23.50611,2.6905c.08831-.00324.175-.01134.26333-.01134,3.36256,0,6.098,2.36919,6.098,5.28125h.96015c0-3.442-3.16567-6.243-7.05814-6.243a7.88945,7.88945,0,0,0-2.01916.26252,7.89574,7.89574,0,0,0-2.02-.26252c-3.89166,0-7.05814,2.80106-7.05814,6.243h.96177c0-2.91206,2.73462-5.28125,6.09637-5.28125"/></g><g class="cls-3"><path id="Fill-4" class="cls-1" d="M26.83034,22.96328l-.68547,13.10589,9.56751,9.03922H3.99813Zm1.14814,12.6084L40.232,30.685,38.39351,9.086H3.2057L.00032,46.72891h39.786Z"/></g><polygon id="Fill-7" class="cls-1" points="54.228 12.034 68.196 12.034 68.196 29.772 65.709 29.772 65.709 14.195 56.715 14.195 56.715 29.772 54.228 29.772 54.228 12.034"/><path id="Fill-9" class="cls-1" d="M78.81891,27.96248a4.40748,4.40748,0,0,0,4.37214-4.57228,4.37426,4.37426,0,1,0-8.74348,0,4.39116,4.39116,0,0,0,4.37134,4.57228m-.02512-11.20423a6.6597,6.6597,0,1,1-6.8337,6.632,6.631,6.631,0,0,1,6.8337-6.63195"/><polygon id="Fill-11" class="cls-1" points="89.217 17.059 91.654 17.059 91.654 22.185 93.438 22.185 96.905 17.059 99.668 17.059 95.423 23.114 95.423 23.164 100.171 29.771 97.281 29.771 93.488 24.269 91.654 24.269 91.654 29.771 89.217 29.771 89.217 17.059"/><path id="Fill-13" class="cls-1" d="M103.78494,32.96168a2.62842,2.62842,0,0,0,2.31166-1.88385l.62794-1.45684-5.32581-12.56221h2.73785l3.19079,8.31647a14.59419,14.59419,0,0,1,.47725,1.53138h.05023s.201-.8532.427-1.50626l3.0895-8.34159h2.63819l-5.97888,14.99865a4.31312,4.31312,0,0,1-4.12014,2.98985,4.41742,4.41742,0,0,1-2.43726-.77947l.854-1.85873a2.74684,2.74684,0,0,0,1.45766.5526"/><polygon id="Fill-15" class="cls-1" points="117.021 17.059 128.126 17.059 128.126 29.771 125.689 29.771 125.689 19.144 119.458 19.144 119.458 29.771 117.021 29.771 117.021 17.059"/><path id="Fill-17" class="cls-1" d="M136.28772,28.13814c2.13584,0,3.41685-2.16014,3.41685-4.0448V23.6161h-.62876c-1.80849,0-5.1751.15071-5.1751,2.48668a2.14424,2.14424,0,0,0,2.387,2.03536m2.763-6.2803h.65387v-.252a2.47965,2.47965,0,0,0-2.78971-2.78809,6.36694,6.36694,0,0,0-3.56675,1.23159l-.9796-1.785a8.10269,8.10269,0,0,1,4.7473-1.50627c3.19159,0,5.0252,1.75826,5.0252,4.97416v8.03937h-2.28655v-1.281a6.40711,6.40711,0,0,1,.07536-1.00552h-.04942a4.69093,4.69093,0,0,1-4.1712,2.58795c-2.21038,0-4.24494-1.38148-4.24494-3.76931,0-3.99375,4.94905-4.44588,7.58644-4.44588"/><g class="cls-4"><path id="Fill-19" class="cls-1" d="M148.243,12.38643v-.37677h1.96v.35165a1.64675,1.64675,0,0,0,1.75907,1.6586,1.67228,1.67228,0,0,0,1.78337-1.68371v-.32654h1.93409v.37677c0,2.05967-1.75826,3.21591-3.71746,3.21591-1.93489,0-3.71908-1.15624-3.71908-3.21591Zm-1.88384,4.67275h2.33678v7.58724c0,.67819-.05105,1.58243-.07536,1.708H148.67c.10047-.22606.70411-1.10519,1.13112-1.708l5.47652-7.58724h2.3619V29.7713h-2.3619V22.18486c0-.60283.07535-1.48277.07535-1.68371h-.05023a19.74129,19.74129,0,0,1-1.10519,1.68371l-5.50164,7.58644h-2.33678Z"/></g><path id="Fill-22" class="cls-1" d="M56.28049,37.71562a2.66481,2.66481,0,0,1,1.91059.74381l-.46347.68467a2.05447,2.05447,0,0,0-1.4058-.58339A1.73724,1.73724,0,0,0,54.55222,40.37,1.76041,1.76041,0,0,0,56.351,42.19876a2.26851,2.26851,0,0,0,1.56785-.68385l.39217.71464a2.85065,2.85065,0,0,1-2.03051.81431,2.66476,2.66476,0,1,1,0-5.32824"/><path id="Fill-24" class="cls-1" d="M61.91113,42.19893a1.82042,1.82042,0,1,0-1.74935-1.82875,1.7625,1.7625,0,0,0,1.74935,1.82875m-.01054-4.48315a2.66517,2.66517,0,1,1-2.73461,2.6544,2.65413,2.65413,0,0,1,2.73461-2.6544"/><path id="Fill-26" class="cls-1" d="M72.196,35.705a3.78964,3.78964,0,0,1,2.59282.935l-.50235.74463a3.24873,3.24873,0,0,0-2.05-.77461,2.55076,2.55076,0,0,0-2.62361,2.71517,2.63535,2.63535,0,0,0,2.64305,2.8043,3.16121,3.16121,0,0,0,2.18121-.92612l.53315.71464A3.76041,3.76041,0,0,1,72.226,43.04435a3.67,3.67,0,0,1-.03-7.33931"/><path id="Fill-28" class="cls-1" d="M78.409,42.21951a1.58543,1.58543,0,0,0,.04051-3.15676,1.47726,1.47726,0,0,0-1.4771,1.56784A1.44826,1.44826,0,0,0,78.409,42.21951m-.16043-5.89057,1.819-.78433.32168.80378-1.95029.8143A2.2625,2.2625,0,0,0,76.87113,39.194h.02026a2.03529,2.03529,0,0,1,1.79958-.90587,2.1268,2.1268,0,0,1,2.161,2.34245,2.299,2.299,0,0,1-2.40241,2.41376c-1.71855,0-2.49316-1.2875-2.49316-3.04657a3.40057,3.40057,0,0,1,2.29222-3.66884"/><path id="Fill-30" class="cls-1" d="M85.75754,39.807a1.23669,1.23669,0,0,0-1.23645-1.33692A1.477,1.477,0,0,0,83.03426,39.807Zm-1.2162-2.09127a2.16991,2.16991,0,0,1,2.20147,2.38215,2.96976,2.96976,0,0,1-.04052.41242H83.00348a1.67711,1.67711,0,0,0,1.74934,1.68858,2.30088,2.30088,0,0,0,1.49735-.5923l.41243.71383a3.04567,3.04567,0,0,1-1.96974.72356A2.59832,2.59832,0,0,1,81.989,40.37982a2.50055,2.50055,0,0,1,2.5523-2.66412Z"/><path id="Fill-32" class="cls-1" d="M90.55337,42.19893c.80458,0,1.46737-.65307,1.46737-1.80931,0-1.106-.59311-1.81983-1.4374-1.81983-.76326,0-1.46737.54287-1.46737,1.82956,0,.90505.50236,1.79958,1.4374,1.79958ZM88.17121,37.8365h.90506v.45213a2.392,2.392,0,0,1-.03079.38244h.02025a1.86037,1.86037,0,0,1,1.70883-.95529c1.37744,0,2.23064,1.08574,2.23064,2.66412A2.37654,2.37654,0,0,1,90.70488,43.044a1.86976,1.86976,0,0,1-1.57918-.86454h-.01945a2.26942,2.26942,0,0,1,.0397.44159v2.31247h-.97474Z"/><path id="Fill-34" class="cls-1" d="M96.696,42.21951a1.58543,1.58543,0,0,0,.04051-3.15676,1.47773,1.47773,0,0,0-1.47709,1.56784A1.44825,1.44825,0,0,0,96.696,42.21951m-.16043-5.89057,1.81984-.78433.32085.80378-1.95028.8143a2.26279,2.26279,0,0,0-1.567,2.03132h.01945a2.03617,2.03617,0,0,1,1.79958-.90587,2.12681,2.12681,0,0,1,2.161,2.34245,2.299,2.299,0,0,1-2.40242,2.41376c-1.71855,0-2.49234-1.2875-2.49234-3.04657a3.4,3.4,0,0,1,2.2914-3.66884"/><path id="Fill-36" class="cls-1" d="M102.11459,42.26934a1.52515,1.52515,0,0,0,1.3669-1.61809v-.1904h-.25037c-.72437,0-2.071.06-2.071.99418a.858.858,0,0,0,.95448.81431m1.106-2.51342h.2609v-.10047a.99193.99193,0,0,0-1.11491-1.11572,2.54817,2.54817,0,0,0-1.42767.49344l-.39217-.71383a3.23983,3.23983,0,0,1,1.9-.60364,1.81209,1.81209,0,0,1,2.01025,1.9908v3.21671h-.914v-.51289a2.647,2.647,0,0,1,.02917-.40188h-.01945a1.87737,1.87737,0,0,1-1.66912,1.0355,1.56642,1.56642,0,0,1-1.69911-1.50788c0-1.59864,1.98027-1.78014,3.036-1.78014"/><polygon id="Fill-38" class="cls-1" points="106.147 37.837 107.122 37.837 107.122 39.908 109.695 39.908 109.695 37.837 110.67 37.837 110.67 42.923 109.695 42.923 109.695 40.741 107.122 40.741 107.122 42.923 106.147 42.923 106.147 37.837"/><polygon id="Fill-40" class="cls-1" points="112.43 37.837 113.405 37.837 113.405 39.887 114.119 39.887 115.506 37.837 116.612 37.837 114.913 40.259 114.913 40.28 116.812 42.923 115.657 42.923 114.138 40.722 113.405 40.722 113.405 42.923 112.43 42.923 112.43 37.837"/><path id="Fill-42" class="cls-1" d="M120.13089,42.19893a1.82042,1.82042,0,0,0,0-3.63806,1.82045,1.82045,0,0,0,0,3.63806m-.01054-4.48315a2.66515,2.66515,0,1,1-2.73381,2.6544,2.65365,2.65365,0,0,1,2.73381-2.6544"/><path id="Fill-44" class="cls-1" d="M124.52482,37.83667h1.08574l1.2956,2.87479c.141.30222.28278.68385.28278.68385h.02027s.15069-.3719.28034-.68385l1.328-2.87479h1.06468l.4424,5.086h-.94476l-.22121-3.0255c-.01053-.30142.00973-.87427.00973-.87427h-.02026s-.13045.35165-.32086.74382L127.62,42.31009h-.83376l-1.20567-2.53286c-.16123-.3719-.32166-.75435-.32166-.75435h-.02026s.03.57285.01053.87427l-.222,3.0255h-.94476Z"/></g></svg>