<svg id="Слой_1" data-name="Слой 1" xmlns="http://www.w3.org/2000/svg" viewBox="0 0 300 27"><defs><style>.cls-1{fill:#006937;}</style></defs><title>logo_sberInsrH</title><rect class="cls-1" x="35.88681" y="21.96049" width="264.11319" height="1.44477"/><path class="cls-1" d="M46.14605,16.37825l.45253.86375a9.27559,9.27559,0,0,1-4.91505,1.31629c-4.31857,0-6.80661-2.30322-6.80661-7.25895,0-4.75062,1.99477-7.62935,7.09479-7.62935a12.12246,12.12246,0,0,1,4.195.65789c-.04128.96651-.04128,2.0356,0,3.00247h-.92546l-.24685-.905c-.32875-1.06907-.96651-1.80957-2.91994-1.80957-3.06423,0-3.84569,2.26215-3.84569,6.14861,0,3.70164.7611,6.45754,4.31881,6.45754A7.45323,7.45323,0,0,0,46.14605,16.37825Z"/><path class="cls-1" d="M52.6001,9.08274h-.8v-3.42c0-.62.11987-.84,1.03-.84h1.97c1.87988,0,2.38989.14,2.84009,1.62l.18994.6h.77978c-.03979-1.05-.03979-2.08,0-3.13H47.89014v.46009c.71972.15991.82983.36987.82983,1.1499v11.18c0,.78992-.11011.99-.82983,1.16v.44995H53.6499c3.52,0,5.7002-.94995,5.7002-4.81006C59.3501,9.53269,56.55005,9.08274,52.6001,9.08274ZM53.51,17.40268h-.42993c-1.03,0-1.28-.31994-1.28-1.25v-6.17h1.26c2.41992,0,3.06006,1.32007,3.06006,3.66016C56.12012,16.15268,55.37988,17.40268,53.51,17.40268Z"/><path class="cls-1" d="M65.59982,4.82118c-.61666,0-.71961.16461-.71961.65847V9.94191h1.91251a5.67016,5.67016,0,0,0,2.54975-.432v1.81a5.67053,5.67053,0,0,0-2.54975-.43178H64.88021v5.36689c0,.8632.34958,1.15166,2.24144,1.15166h.41128c1.87123,0,2.365-.12348,2.77625-1.91231l.12337-.53455h.90475c-.041,1.11032-.041,2.24144,0,3.35167H60.973v-.45223c.71976-.16461.82252-.37011.82252-1.15222V5.52034c0-.7811-.10276-.98657-.82252-1.15119V3.91666H71.00834c-.04127,1.049-.04127,2.07689,0,3.1258h-.78145l-.185-.59639c-.45249-1.48043-.96689-1.62489-2.838-1.62489Z"/><path class="cls-1" d="M79.1499,3.91269h-5.96v.46009c.72.15991.82007.36987.82007,1.1499v11.18c0,.78992-.1001.99-.82007,1.16v.44995h4.73v-.44995c-.72-.17-.81982-.37012-.81982-1.16v-4.09H78.53c3.48,0,5.61987-1.05,5.61987-4.56006C84.1499,4.59275,82.01,3.91269,79.1499,3.91269Zm-.58984,7.80005h-1.46v-6.11c0-.68006.27978-.78.8999-.78h.33008c1.92993,0,2.58984,1.21,2.58984,3.1C80.91992,10.1727,80.47,11.71274,78.56006,11.71274Z"/><path class="cls-1" d="M90.1499,9.08274h-.7998v-3.42c0-.62.12988-.84,1.02978-.84H92.3501c1.87988,0,2.38989.14,2.83984,1.62l.18994.6h.78c-.03979-1.05-.03979-2.08,0-3.13h-10.72v.46009c.72.15991.83008.36987.83008,1.1499v11.18c0,.78992-.11011.99-.83008,1.16v.44995H91.2c3.52,0,5.7-.94995,5.7-4.81006C96.8999,9.53269,94.1001,9.08274,90.1499,9.08274Zm.91016,8.31994h-.43018c-1.02978,0-1.27978-.31994-1.27978-1.25v-6.17h1.25976c2.42017,0,3.06006,1.32007,3.06006,3.66016C93.66992,16.15268,92.92993,17.40268,91.06006,17.40268Z"/><path class="cls-1" d="M109.5,14.6727l-3.02-8.62a8.59967,8.59967,0,0,1-.53-2.14h-4.11987v.46009c.74.15991.82983.54992.82983.84a6.55389,6.55389,0,0,1-.7,2.31995l-2.65991,6.54a30.6968,30.6968,0,0,1-1.99,4.24h2.60986c.02-.33008.15015-.94995.31006-1.77.18994-.82007.54-1.99,1.01-3.42993h4.56006l.61987,1.83a27.5891,27.5891,0,0,1,.97022,3.37h3.65991A25.8896,25.8896,0,0,1,109.5,14.6727Zm-7.92993-2.5299,1.99-5.8L105.49,12.1428Z"/><path class="cls-1" d="M121.61707,10.88818h-5.55252v5.81891c0,.78211.10313.98761.82291,1.15222v.45223h-4.72963v-.45223c.7194-.16461.82213-.37011.82213-1.15222V5.52034c0-.7811-.10273-.98657-.82213-1.15119V3.91666h4.72963v.45249c-.71978.16462-.82291.37009-.82291,1.15119V9.94191h5.55252V5.52034c0-.7811-.10274-.98657-.8225-1.15119V3.91666h4.72961v.45249c-.7194.16462-.82217.37009-.82217,1.15119V16.70709c0,.78211.10277.98761.82217,1.15222v.45223h-4.72961v-.45223c.71976-.16461.8225-.37011.8225-1.15222Z"/><path class="cls-1" d="M128.62975,5.52034c0-.7811-.10313-.98657-.82288-1.15119V3.91666H132.537v.45249c-.72035.16462-.82262.37009-.82262,1.15119V16.70709c0,.78211.10227.98761.82262,1.15222v.45223h-4.73008v-.45223c.71975-.16461.82288-.37011.82288-1.15222Z"/><path class="cls-1" d="M136.27924,11.99859a61.70648,61.70648,0,0,0,5.05885,6.313h-4.83275a26.04441,26.04441,0,0,0-2.36424-4.27741l-2.18052-3.26973,1.89216-2.44691A26.85675,26.85675,0,0,0,136.835,3.91666h3.3722v.02071a26.258,26.258,0,0,0-4.298,3.80426l-1.50067,1.60376Z"/><path class="cls-1" d="M157.02348,17.20274c-3.57655,0-4.34151-2.77038-4.34151-6.4924,0-3.90672.786-6.18079,3.866-6.18079,1.96378,0,2.60573.74451,2.93573,1.81919l.24859.90933h.93032c-.042-.97156-.042-2.04663,0-3.01837a12.20128,12.20128,0,0,0-4.21776-.66091c-5.12674,0-7.13212,2.89409-7.13212,7.66946,0,4.98254,2.50112,7.29765,6.84153,7.29765a9.33283,9.33283,0,0,0,4.94259-1.3231l-.45484-.86791a7.50251,7.50251,0,0,1-3.61857.84785"/><path class="cls-1" d="M268.53077,10.81831H262.935v5.8645c0,.788.104.99465.82927,1.16111v.45523h-4.76657v-.45523c.72635-.16646.82891-.37309.82891-1.16111V5.40925c0-.7882-.10256-.99466-.82891-1.1604v-.456h4.76657v.456c-.72522.16574-.82927.3722-.82927,1.1604v4.456h5.59582v-4.456c0-.7882-.10331-.99466-.82927-1.1604v-.456h4.76655v.456c-.7252.16574-.82812.3722-.82812,1.1604V16.68281c0,.788.10292.99465.82812,1.16111v.45523H267.7015v-.45523c.726-.16646.82927-.37309.82927-1.16111Z"/><path class="cls-1" d="M287.887,4.24811V3.79288h-4.76615v.45523c.72519.16648.82831.37368.82831,1.16114V7.37264l-5.827,5.34683.00039-7.31022c0-.78746.10422-.99466.82924-1.16114V3.79288h-4.76656v.45523c.7252.16648.82892.37368.82892,1.16114V16.68263c0,.78746-.10372.99558-.82892,1.16037v.45615h4.76656V17.843c-.725-.16479-.82924-.37291-.82924-1.16037v-2.4805l5.83858-5.374-.012,7.85452c0,.78746-.10312.99558-.82831,1.16037v.45615H287.887V17.843c-.725-.16479-.82926-.37291-.82926-1.16037V5.40925c0-.78746.10425-.99466.82926-1.16114"/><path class="cls-1" d="M239.37012,10.36277c1.55981-.31006,2.91992-1.18006,2.91992-3.20008,0-2.97-2.51-3.29992-5.38013-3.29992h-5.56982v.44995c.72.16992.82983.37.82983,1.15991V16.69272c0,.77991-.10986.99-.82983,1.15v.46h5.47c3.60986,0,6-.81006,6-4.36A3.49133,3.49133,0,0,0,239.37012,10.36277Zm-4.11011-4.75c0-.62012.11987-.8501.88989-.8501h.6001c1.58008,0,2.40991.71,2.40991,2.64,0,1.94007-.86987,2.54-2.53979,2.54H235.26Zm1.77,11.78h-.55c-1.03,0-1.22-.27-1.22-1.20008v-5.34h1.28c2.29,0,3.08984,1.06994,3.08984,3.24C239.62988,16.34275,238.71,17.3928,237.03,17.3928Z"/><path class="cls-1" d="M200.78,14.65268l-3.03-8.65a8.42622,8.42622,0,0,1-.54-2.13989h-4.12988v.44995c.75.16992.82983.56006.82983.85a6.63451,6.63451,0,0,1-.7,2.33l-2.65991,6.56006a31.912,31.912,0,0,1-2,4.25h2.61987c.02-.33008.14014-.95.3-1.78.18994-.82.54-2,1.02-3.43994h4.57007l.61987,1.83a24.53769,24.53769,0,0,1,.97,3.39h3.67017A27.8267,27.8267,0,0,1,200.78,14.65268Zm-7.97-2.53991,2.01-5.82007L196.75,12.11277Z"/><path class="cls-1" d="M255.73,14.65268l-3.03-8.65a9.46176,9.46176,0,0,1-.54-2.13989H248.04v.44995c.74.16992.81982.56006.81982.85a6.39868,6.39868,0,0,1-.7,2.33L245.5,14.05271a31.87785,31.87785,0,0,1-2,4.25h2.62012a16.76624,16.76624,0,0,1,.30981-1.78c.19019-.82.54-2,1.01-3.43994H252.02l.62012,1.83a27.756,27.756,0,0,1,.96972,3.39H257.28A26.17649,26.17649,0,0,1,255.73,14.65268Zm-7.96-2.53991,2-5.82007L251.71,12.11277Z"/><path class="cls-1" d="M183.56006,3.83274h-5.99v.44995c.72.17.82983.37.82983,1.16v11.24c0,.78992-.10986,1-.82983,1.16v.46h4.76v-.46c-.73-.16-.83008-.37012-.83008-1.16v-4.11h1.43994c3.5,0,5.65015-1.05005,5.65015-4.59009C188.59009,4.51267,186.43994,3.83274,183.56006,3.83274Zm-.59009,7.83H181.5v-6.14c0-.67993.29-.79.90991-.79H182.74c1.93994,0,2.6001,1.22009,2.6001,3.13013C185.34009,10.11277,184.89014,11.66269,182.97,11.66269Z"/><path class="cls-1" d="M175.80246,3.82759H162.38062c.04164,1.05519.04164,2.08824,0,3.14343h.78576l.18524-.60052c.45523-1.48772.97254-1.6334,2.85341-1.6334h.3225c.75652.00149.9652.16179,1.01281.57633V16.6873c0,.78522-.10273.99239-.82683,1.15813v.45372h4.75454v-.45372c-.72389-.16574-.8255-.37291-.8255-1.15813V5.47617c.01706-.53713.17624-.73758,1.02557-.73907h.30955c1.8822,0,2.39948.14568,2.854,1.6334l.18562.60052h.7852c-.04068-1.05519-.04068-2.08824,0-3.14343"/><path class="cls-1" d="M299.09254,14.93746l-.1241.53568c-.41155,1.79427-.90708,1.91893-2.784,1.91893h-.41267c-1.89757,0-2.24875-.28889-2.24875-1.15605V10.853h1.919a5.69351,5.69351,0,0,1,2.55771.43348V9.47066a5.69413,5.69413,0,0,1-2.55771.43309h-1.919V5.42782c0-.495.1039-.66035.72184-.66035H295.854c1.87736,0,2.39256.14473,2.84666,1.62966l.18506.59829h.78481c-.042-1.052-.042-2.08322,0-3.135h-10.0663v.453c.72183.16571.82457.37217.82457,1.15588V16.69033c0,.78424-.10274.99013-.82457,1.15436v.45446H300c-.04143-1.11368-.04143-2.24872,0-3.36169Z"/><path class="cls-1" d="M216.16469,18.29915c-2.05977-1.94182-5.2977-7.74014-5.2977-7.74014s3.4813-5.8941,4.84324-6.67855V3.86h-3.38346A21.15187,21.15187,0,0,1,210.189,9.39639,36.98629,36.98629,0,0,1,207.7404,3.86h-4.84812c2.05977,1.94221,5.15711,7.48271,5.15711,7.48271s-3.17645,5.29474-5.18034,6.9364v.02h3.383a23.82226,23.82226,0,0,1,2.52437-5.53825c.34613.70629,1.17332,2.43437,2.54011,5.53825Z"/><path class="cls-1" d="M223.24,3.58274c-5.29,0-6.86011,2.68994-6.86011,7.46,0,5.17993,2.07007,7.5,6.57007,7.5,5.29,0,6.86011-2.68994,6.86011-7.46C229.81006,5.8928,227.75,3.58274,223.24,3.58274Zm3.17993,7.83c-.02,3.9-.47,6.16-3.35986,6.16-2.93994,0-3.3501-3.14-3.31006-6.86.02-3.91.48-6.16,3.37012-6.16C226.05005,4.55271,226.46,7.69272,226.41992,11.41269Z"/><path class="cls-1" d="M27.72967,12.95963A13.86484,13.86484,0,0,1,0,12.95963c0-.31128.01174-.62008.032-.92517L8.427,16.862,26.20757,6.63532A13.8205,13.8205,0,0,1,27.72967,12.95963Z"/><path class="cls-1" d="M8.427,13.37364.61066,8.87946a13.8413,13.8413,0,0,0-.375,1.52829L8.427,15.11943l17.01619-9.789a14.09321,14.09321,0,0,0-.90648-1.22212Z"/><path class="cls-1" d="M23.48035,2.97149A13.95436,13.95436,0,0,0,22.264,1.92857L8.427,9.88728,1.82065,6.08737a13.58941,13.58941,0,0,0-.6774,1.35356L8.427,11.62983Z"/><path class="cls-1" d="M8.427,8.14366,20.86389.989A14.00613,14.00613,0,0,0,19.24324.17627L8.427,6.39849,3.61016,3.628a14.28594,14.28594,0,0,0-.96642,1.18765Z"/></svg>