<svg id="Слой_1" data-name="Слой 1" xmlns="http://www.w3.org/2000/svg" viewBox="0 0 138 27"><defs><style>.cls-1{fill:#1a9f29;}</style></defs><title>logo_sberMain</title><path class="cls-1" d="M36.15939,16.36681A5.50648,5.50648,0,0,0,38.25982,17.786a7.94029,7.94029,0,0,0,3.00874.51091,13.06,13.06,0,0,0,1.58952-.11353,4.39865,4.39865,0,0,0,1.30568-.34062c.39738-.11353.738-.28384,1.0786-.39738.28385-.1703.56769-.28384.79476-.39738l-.39738-.85152-.68122.34061c-.22708.11354-.45415.1703-.738.28384a4.30283,4.30283,0,0,1-.90829.17031,7.6212,7.6212,0,0,1-1.19214.05676,3.8353,3.8353,0,0,1-2.10044-.51091A4.09635,4.09635,0,0,1,38.714,15.23144a6.80045,6.80045,0,0,1-.62446-1.9869,17.27428,17.27428,0,0,1-.17031-2.49781c0-.68123.05677-1.41922.11354-2.15721a5.092,5.092,0,0,1,.51092-1.93013A3.93414,3.93414,0,0,1,39.679,5.24017a3.63068,3.63068,0,0,1,2.04367-.56768,3.48954,3.48954,0,0,1,2.04366.62445A2.96086,2.96086,0,0,1,44.845,7.22707h.90829V4.44541c-.28384-.11353-.56768-.22707-.90829-.34061a6.03031,6.03031,0,0,0-1.07861-.22707c-.39737-.05677-.738-.05677-1.13537-.11354-.34061,0-.68122-.05677-.96506-.05677a8.88876,8.88876,0,0,0-3.179.51092,5.84358,5.84358,0,0,0-2.1572,1.476,6.11715,6.11715,0,0,0-1.24891,2.32751,10.68037,10.68037,0,0,0-.39738,3.12227,9.52821,9.52821,0,0,0,.39738,2.952A4.478,4.478,0,0,0,36.15939,16.36681Z"/><path class="cls-1" d="M91.679,17.84279a4.83247,4.83247,0,0,0,1.87337-.56768,3.166,3.166,0,0,0,1.30568-1.41922,5.36516,5.36516,0,0,0,.51091-2.55458,5.19166,5.19166,0,0,0-.34062-1.9869A3.12688,3.12688,0,0,0,93.94979,9.952a5.48457,5.48457,0,0,0-1.93013-.738,14.24884,14.24884,0,0,0-2.8952-.22707H87.93231V5.63755c0-.34061.05678-.56768.22708-.68122a1.8285,1.8285,0,0,1,.9083-.11354h1.70305a8.8101,8.8101,0,0,1,1.30568.05677,1.46018,1.46018,0,0,1,.79476.28385,1.54975,1.54975,0,0,1,.51091.68122,7.22287,7.22287,0,0,1,.39738,1.19214h.738V3.9345H84.07205v.45415a1.1551,1.1551,0,0,0,.28384.05676.92428.92428,0,0,1,.34062.17031.92446.92446,0,0,1,.17031.34061c0,.17031.05677.34061.05677.56769V16.36681a1.582,1.582,0,0,1-.05677.56769.34328.34328,0,0,1-.17031.34061.4852.4852,0,0,1-.34062.1703.75964.75964,0,0,1-.28384.05677v.45415h5.27948A15.22266,15.22266,0,0,0,91.679,17.84279ZM88.21616,16.821a.51535.51535,0,0,1-.17031-.39738c0-.17031-.05677-.39738-.05677-.68122V9.83843h1.19214a2.844,2.844,0,0,1,2.32752.85153A4.36538,4.36538,0,0,1,92.19,13.41485a6.36167,6.36167,0,0,1-.22707,1.9869,2.70015,2.70015,0,0,1-.62446,1.13537,3.388,3.388,0,0,1-.85153.51091,6.25514,6.25514,0,0,1-1.02184.11354c-.34061-.05677-.62445-.05677-.79475-.11354A1.14085,1.14085,0,0,1,88.21616,16.821Z"/><path class="cls-1" d="M76.74891,17.50218a1.15492,1.15492,0,0,0-.28384-.05677.60209.60209,0,0,1-.51092-.51091c0-.17031-.05678-.34061-.05678-.56769v-3.917h1.41922a12.59018,12.59018,0,0,0,2.10043-.1703,5.37676,5.37676,0,0,0,1.75983-.62446A3.11837,3.11837,0,0,0,82.369,10.29258a5.29329,5.29329,0,0,0,.45415-2.32751,5.41045,5.41045,0,0,0-.39737-2.15721A3.457,3.457,0,0,0,81.29039,4.559,3.74848,3.74848,0,0,0,79.64411,4.048c-.62446-.05677-1.24891-.11354-1.93013-.11354H72.15067v.45415a1.15469,1.15469,0,0,0,.28384.05677.92408.92408,0,0,1,.34061.1703.92431.92431,0,0,1,.17031.34061c0,.17031.05677.34061.05677.56769V16.31a1.582,1.582,0,0,1-.05677.56769.34325.34325,0,0,1-.17031.34061.4852.4852,0,0,1-.34061.17031.7597.7597,0,0,1-.28384.05677v.45414h4.59825v-.39738ZM75.95415,5.524a.72.72,0,0,1,.05677-.34061.295.295,0,0,1,.11353-.22708.47991.47991,0,0,1,.34062-.11354c.1703,0,.34061-.05676.62445-.05676a6.25512,6.25512,0,0,1,1.02184.11353,2.62081,2.62081,0,0,1,.85153.51092,3.09529,3.09529,0,0,1,.56768.96507,5.55189,5.55189,0,0,1,.17031,1.476A5.81164,5.81164,0,0,1,79.19,10.57642a1.9261,1.9261,0,0,1-1.81659.96506H75.95416V5.524Z"/><path class="cls-1" d="M70.27729,14.72052H69.369a10.44357,10.44357,0,0,1-.34061,1.30568,1.3739,1.3739,0,0,1-.45415.738,1.123,1.123,0,0,1-.79476.28384,9.6744,9.6744,0,0,1-1.41922.05677,8.045,8.045,0,0,1-1.30568-.05677,1.88662,1.88662,0,0,1-.738-.22707.57888.57888,0,0,1-.28384-.45415,3.24789,3.24789,0,0,1-.05677-.79476v-4.428h2.441c.22707,0,.45415.05677.68122.05677a2.84925,2.84925,0,0,1,.68122.11354,1.7002,1.7002,0,0,1,.56769.22707V9.72489a1.69978,1.69978,0,0,1-.56769.22707,2.84933,2.84933,0,0,1-.68122.11354,2.76377,2.76377,0,0,1-.68122.05677H63.976v-4.655a1.51915,1.51915,0,0,1,.11354-.62446c.11353-.11353.28384-.11353.56768-.11353H66.19a8.81017,8.81017,0,0,1,1.30568.05677,1.46017,1.46017,0,0,1,.79476.28384,1.54984,1.54984,0,0,1,.51092.68122,7.22382,7.22382,0,0,1,.39738,1.19214h.738V3.9345H60.17249v.45415a1.155,1.155,0,0,0,.28384.05676.92422.92422,0,0,1,.34061.17031.92431.92431,0,0,1,.17031.34061c0,.17031.05677.34061.05677.56769V16.31a1.582,1.582,0,0,1-.05677.56769.34326.34326,0,0,1-.17031.34061.4852.4852,0,0,1-.34061.17031.75979.75979,0,0,1-.28384.05676v.45415h10.1048Z"/><path class="cls-1" d="M54.83624,17.84279a4.83247,4.83247,0,0,0,1.87337-.56768,3.64639,3.64639,0,0,0,1.36244-1.41922,5.36515,5.36515,0,0,0,.51092-2.55458,5.19166,5.19166,0,0,0-.34061-1.9869A3.12691,3.12691,0,0,0,57.16376,9.952a5.48449,5.48449,0,0,0-1.93013-.738,14.2489,14.2489,0,0,0-2.8952-.22707H51.14629V5.63755c0-.34061.05677-.56768.22708-.68122a1.82848,1.82848,0,0,1,.90829-.11354h1.70306a8.81017,8.81017,0,0,1,1.30568.05677,1.46025,1.46025,0,0,1,.79476.28385,1.54984,1.54984,0,0,1,.51092.68122,7.223,7.223,0,0,1,.39737,1.19214h.738V3.9345H47.286v.45415a1.1551,1.1551,0,0,0,.28384.05676.92413.92413,0,0,1,.34061.17031.92431.92431,0,0,1,.17031.34061c0,.17031.05677.34061.05677.56769V16.31a1.75006,1.75006,0,0,1-.05677.56769.34326.34326,0,0,1-.17031.34061.48515.48515,0,0,1-.34061.17031.75976.75976,0,0,1-.28384.05676v.51092h5.27948A14.47514,14.47514,0,0,0,54.83624,17.84279ZM51.37336,16.821a.51539.51539,0,0,1-.17031-.39738c0-.17031-.05676-.39738-.05676-.68122V9.83843h1.19214a2.844,2.844,0,0,1,2.32751.85153,4.36538,4.36538,0,0,1,.68122,2.72489,6.361,6.361,0,0,1-.22708,1.9869,2.70014,2.70014,0,0,1-.62445,1.13537,3.38816,3.38816,0,0,1-.85153.51091,6.25514,6.25514,0,0,1-1.02184.11354c-.34061-.05677-.56768-.05677-.79476-.11354A1.14094,1.14094,0,0,1,51.37336,16.821Z"/><rect class="cls-1" x="34.56987" y="21.93013" width="102.9214" height="1.36245"/><path class="cls-1" d="M129.25983,12.67686c.28384.39738.51091.738.79475,1.0786.22708.34061.51092.68122.738,1.02183a11.51148,11.51148,0,0,0,.738,1.02184,12.84883,12.84883,0,0,1,.738,1.13537,9.86622,9.86622,0,0,1,.56769,1.0786l4.76855.05677c-.51091-.51092-.96506-1.02184-1.476-1.53275-.45415-.51092-.85153-.96507-1.13537-1.24891q-.68122-.76638-1.19215-1.36245c-.39737-.45415-.738-.85153-1.07859-1.24891s-.68123-.85152-.96507-1.24891-.62446-.90829-.9083-1.36244l.22707-.28384c.34062-.45415.738-.9083,1.19214-1.476a19.68762,19.68762,0,0,1,1.41922-1.64628,19.15942,19.15942,0,0,1,1.476-1.53275A16.10007,16.10007,0,0,1,136.46943,4.048h-3.29257a8.493,8.493,0,0,1-.51092,1.02184,11.52519,11.52519,0,0,1-.79475,1.30567c-.28385.45415-.62446.96507-.90831,1.476-.34061.51091-.62445.96506-.96506,1.41921s-.62446.9083-.9083,1.24891c-.28384.39738-.51091.68122-.68122.96506Z"/><path class="cls-1" d="M128.86245,17.50218a1.15492,1.15492,0,0,0-.28384-.05677.60212.60212,0,0,1-.51093-.51091c0-.17031-.05677-.34061-.05677-.56769V5.58079a1.582,1.582,0,0,1,.05677-.56769.34327.34327,0,0,1,.17031-.34061.92428.92428,0,0,1,.34062-.17031.75964.75964,0,0,1,.28384-.05677V3.9345H124.2642v.45415a1.1551,1.1551,0,0,0,.28384.05676.92428.92428,0,0,1,.34062.17031.92446.92446,0,0,1,.17031.34061c0,.17031.05677.34061.05677.56769V16.31a1.582,1.582,0,0,1-.05677.56769.34328.34328,0,0,1-.17031.34061.4852.4852,0,0,1-.34062.17031.75976.75976,0,0,1-.28384.05676v.45415h4.59826v-.39738Z"/><path class="cls-1" d="M98.321,16.25327c.17031-.79475.51092-1.93013.96507-3.34934h4.48471l.62446,1.81659a15.65214,15.65214,0,0,1,.62445,2.04367,5.14091,5.14091,0,0,1,.28385,1.24891h3.57642c-.17031-.28384-.34062-.68122-.56769-1.13537a15.80756,15.80756,0,0,1-.79475-1.9869l-3.23581-9.19651a4.71373,4.71373,0,0,1-.28384-1.02183c-.05677-.28384-.05677-.51092-.11354-.68122H99.85372v.45415a1.1551,1.1551,0,0,0,.28384.05676.92428.92428,0,0,1,.34062.17031.92446.92446,0,0,1,.17031.34061v.28384a2.16175,2.16175,0,0,1-.17031.9083l-2.27074,5.56332c-.39738,1.02183-.79476,1.93013-1.0786,2.61135s-.56769,1.30568-.738,1.75983c-.22707.45415-.39737.85153-.56768,1.13537s-.28384.51092-.39738.738h2.55459C98.03712,17.61572,98.15066,17.048,98.321,16.25327ZM101.55677,6.262l1.87336,5.67685H99.56987Z"/><path class="cls-1" d="M114.27292,17.50218h-.11353a1.15493,1.15493,0,0,0-.28385-.05677.60212.60212,0,0,1-.51092-.51091c0-.17031-.05677-.34061-.05677-.56769v-5.393h5.44979V16.31a1.58169,1.58169,0,0,1-.05678.56769.34327.34327,0,0,1-.1703.34061.48522.48522,0,0,1-.34062.17031.75979.75979,0,0,1-.28384.05676v.45415h4.59826v-.45415a1.15522,1.15522,0,0,0-.28385-.05676.60214.60214,0,0,1-.51092-.51092c0-.17031-.05677-.34061-.05677-.56769V5.46725a1.582,1.582,0,0,1,.05677-.56769.34326.34326,0,0,1,.17031-.34061.92417.92417,0,0,1,.34061-.1703.75967.75967,0,0,1,.28385-.05677V3.9345h-4.48472v.45415a1.1551,1.1551,0,0,0,.28385.05676.92431.92431,0,0,1,.34061.17031.92431.92431,0,0,1,.17031.34061c0,.17031.05677.34061.05677.56769v4.48471h-5.44979V5.524a1.58169,1.58169,0,0,1,.05678-.56769.34327.34327,0,0,1,.1703-.34061.92437.92437,0,0,1,.34062-.17031.75979.75979,0,0,1,.28384-.05676V3.9345h-4.59825v.45415a1.15522,1.15522,0,0,0,.28385.05676.92431.92431,0,0,1,.34061.17031.92431.92431,0,0,1,.17031.34061c0,.17031.05677.34061.05677.56769V16.36681a1.75006,1.75006,0,0,1-.05677.56769.34326.34326,0,0,1-.17031.34061.48519.48519,0,0,1-.34061.1703.75967.75967,0,0,1-.28385.05677v.45415h4.59826v-.45415Z"/><path class="cls-1" d="M25.20306,5.5524l-.85153-1.19214L8.62664,13.38646l-7.607-4.37118a6.93311,6.93311,0,0,0-.34061,1.476l8.00437,4.59825Z"/><path class="cls-1" d="M8.62664,16.79258.452,12.08079a4.88389,4.88389,0,0,0-.05676.90829,13.51092,13.51092,0,1,0,27.02183,0,13.04286,13.04286,0,0,0-1.476-6.131Z"/><path class="cls-1" d="M23.27292,3.22489c-.39738-.39738-.79476-.68122-1.19213-1.02183L8.62664,9.98035,2.155,6.29039c-.22707.39738-.45415.85153-.68122,1.30568l7.09607,4.08734Z"/><path class="cls-1" d="M20.71834,1.29476A13.83453,13.83453,0,0,0,19.12882.5L8.62664,6.57424,3.91485,3.90611c-.34062.34061-.62446.738-.96507,1.13537L8.56987,8.27729Z"/></svg>