<svg id="Слой_1" data-name="Слой 1" xmlns="http://www.w3.org/2000/svg" viewBox="0 0 110 110"><defs><style>.cls-1{fill:#231f20;}.cls-2{fill:#ff5f00;}.cls-3{fill:#eb001b;}.cls-4{fill:#f79e1b;}</style></defs><title>logo_mastercard</title><g id="Layer_1-2" data-name="Layer 1-2"><path class="cls-1" d="M33.37245,81.15329V77.651A2.07806,2.07806,0,0,0,31.1777,75.433a2.15974,2.15974,0,0,0-1.96126.99231,2.04885,2.04885,0,0,0-1.84453-.99231,1.84452,1.84452,0,0,0-1.63438.82888v-.68879H24.52341v5.58027H25.7492V78.083a1.30751,1.30751,0,0,1,1.36588-1.48262c.80552,0,1.21412.52533,1.21412,1.471v3.10534H29.555V78.083a1.31333,1.31333,0,0,1,1.36588-1.48262c.82887,0,1.22579.52533,1.22579,1.471v3.10534ZM51.50833,75.573H49.512V73.88028H48.28624V75.573h-1.109v1.109h1.1324v2.56833c0,1.29583.502,2.06633,1.93792,2.06633a2.84844,2.84844,0,0,0,1.51764-.432l-.35022-1.039a2.24144,2.24144,0,0,1-1.074.3152c-.58371,0-.80552-.37358-.80552-.93393V76.682H51.52Zm10.355-.14009a1.64606,1.64606,0,0,0-1.471.81719V75.573H59.18994v5.58026h1.21412V78.02462c0-.92227.39692-1.43593,1.16742-1.43593a1.9788,1.9788,0,0,1,.75882.14009l.37358-1.16742a2.59734,2.59734,0,0,0-.8639-.15177Zm-15.65511.5837a4.17355,4.17355,0,0,0-2.27647-.5837c-1.41258,0-2.33484.6771-2.33484,1.78614,0,.91059.67711,1.471,1.92624,1.64606l.58371.08172c.66543.0934.98064.26851.98064.58371,0,.432-.44362.67711-1.27249.67711a2.97106,2.97106,0,0,1-1.8562-.58371l-.58371.94561a4.02755,4.02755,0,0,0,2.41656.7238c1.611,0,2.545-.75882,2.545-1.82118s-.73548-1.4943-1.9496-1.66941l-.58371-.08172c-.52534-.07-.94561-.17511-.94561-.54869s.39694-.65375,1.06236-.65375a3.59546,3.59546,0,0,1,1.75113.47864ZM78.72671,75.433a1.6461,1.6461,0,0,0-1.471.8172v-.67711H76.05332v5.58027h1.21412V78.02462c0-.92227.39692-1.43593,1.16742-1.43593a1.9788,1.9788,0,0,1,.75882.14009l.37358-1.16742a2.59734,2.59734,0,0,0-.8639-.15177ZM63.08329,78.35148A2.81933,2.81933,0,0,0,65.797,81.27264H65.797q.13161.00483.26325-.00261a2.91852,2.91852,0,0,0,2.008-.66543l-.58371-.98062a2.45159,2.45159,0,0,1-1.45928.502,1.792,1.792,0,0,1,0-3.57231,2.4516,2.4516,0,0,1,1.45928.502l.58371-.98063a2.91863,2.91863,0,0,0-2.008-.66543,2.81934,2.81934,0,0,0-2.97431,2.6553q-.00746.13149-.0026.26325Zm11.37066,0V75.573H73.23983v.6771a2.11882,2.11882,0,0,0-1.75113-.81719,2.91855,2.91855,0,0,0,0,5.83709,2.11885,2.11885,0,0,0,1.75113-.81719V81.13H74.454Zm-4.51791,0a1.67521,1.67521,0,1,1-.00355.13224q-.00086-.06617.00351-.13224ZM55.28492,75.433a2.91884,2.91884,0,0,0,.08172,5.8371h0a3.39135,3.39135,0,0,0,2.31733-.75882l-.58371-.89891a2.65591,2.65591,0,0,1-1.62271.58371,1.54684,1.54684,0,0,1-1.66941-1.36588h4.14433v-.467a2.65286,2.65286,0,0,0-2.65-2.91854Zm0,1.0857a1.38339,1.38339,0,0,1,1.41256,1.3536h0v.00061H53.779a1.43594,1.43594,0,0,1,1.48262-1.35421ZM85.702,78.36316V73.33159H84.53462v2.91854a2.11881,2.11881,0,0,0-1.75112-.81719,2.91855,2.91855,0,0,0,0,5.83709,2.11884,2.11884,0,0,0,1.75112-.81719V81.13H85.702ZM87.72753,80.342a.56127.56127,0,0,1,.52533.33272.54281.54281,0,0,1,0,.43193.55771.55771,0,0,1-.30352.29187.549.549,0,0,1-.22181.0467.58373.58373,0,0,1-.52534-.33857.54863.54863,0,0,1,0-.43193A.56651.56651,0,0,1,87.745,80.342Zm0,.98648a.41439.41439,0,0,0,.16927-.035A.43766.43766,0,0,0,88.031,81.2a.42015.42015,0,0,0-.30352-.71211.438.438,0,0,0-.16928.035.42054.42054,0,0,0,.18679.80552Zm.035-.69462a.23353.23353,0,0,1,.15176.0467.14593.14593,0,0,1,.05252.12258.14012.14012,0,0,1-.04086.10506.20436.20436,0,0,1-.12259.05254l.16928.19262H87.8384l-.15761-.19262h-.05253v.19262h-.11091v-.51366Zm-.12842.09923v.14009h.12842a.12265.12265,0,0,0,.07,0,.05833.05833,0,0,0,0-.05253.05835.05835,0,0,0,0-.05254.12248.12248,0,0,0-.07,0ZM81.2133,78.36321a1.67534,1.67534,0,1,1-.00354.13223q-.00083-.06619.00355-.13228Zm-40.99393,0V75.573H39.00525v.6771a2.11882,2.11882,0,0,0-1.75113-.81719,2.91855,2.91855,0,0,0,0,5.83709,2.11885,2.11885,0,0,0,1.75113-.81719V81.13h1.21412Zm-4.51793,0a1.55978,1.55978,0,1,1-.015.1441q-.00144-.07211.00336-.1441Z"/><g id="_Group_" data-name=" Group "><rect class="cls-2" x="45.80547" y="33.04976" width="18.38686" height="33.04382"/><path id="_Path_" data-name=" Path " class="cls-3" d="M46.97289,49.57459a20.97857,20.97857,0,0,1,8.026-16.52483,21.01355,21.01355,0,1,0,0,33.04381A20.97854,20.97854,0,0,1,46.97289,49.57459Z"/><path class="cls-4" d="M89,49.57459a21.01355,21.01355,0,0,1-34.0011,16.519,21.01349,21.01349,0,0,0,0-33.04381A21.01355,21.01355,0,0,1,89,49.56875Z"/><path class="cls-4" d="M86.99205,62.59131v-.6771h.27434v-.14009h-.69462v.14009h.29769v.67711Zm1.34836,0v-.81718h-.21013l-.24516.58371L87.64,61.77413h-.18679v.81718H87.605v-.61288l.22765.53118h.1576l.22765-.53118v.61872Z"/></g></g></svg>