<svg id="Слой_1" data-name="Слой 1" xmlns="http://www.w3.org/2000/svg" viewBox="0 0 76 76"><defs><style>.cls-1{fill:#fbb040;}</style></defs><title>logo_unicornHorseColor</title><path class="cls-1" d="M75.937,36.25365a4.79132,4.79132,0,0,0-2.27853-1.95336,4.11291,4.11291,0,0,1-.94444-.5385,63.80372,63.80372,0,0,0-5.28731-3.89924,7.33567,7.33567,0,0,0-.948-.5712,3.10069,3.10069,0,0,0-1.51667-.24209,7.10644,7.10644,0,0,0-1.07808.2493,23.19209,23.19209,0,0,0-4.97885,1.93567.92166.92166,0,0,0-.37141.85708,22.47971,22.47971,0,0,1,.27505,3.20436c-.003.30607-.00536.52442.29706.57175.01035.00162.5714.10694.58185.10861.30231.04806.34662-.17452.51027-.4332,1.40115-2.21472,3.66514-4.60184,6.06643-3.19874a15.50877,15.50877,0,0,1,2.67472,1.77982,10.90713,10.90713,0,0,0,1.7145,1.19384c.33822.16492.44119-.21869.63758-.26615.29756-.07187.40611.52439.23853.68675a.61706.61706,0,0,0-.13921.69282c.06526.17216.13151.36348.18932.53891a.66992.66992,0,0,0,.71154.45362c1.03352-.17406,2.353-.53029,3.34754-.6432C75.94305,36.746,76.09432,36.51621,75.937,36.25365Z"/><path class="cls-1" d="M52.55135,72.09694a8.54441,8.54441,0,0,0-.85066-.6813c-.3315-.29456-.729-.72283-.8865-.838-.82-.59956-1.76891-1.11482-2.61551-1.70767-1.942-1.35993-4.24231-2.76467-4.28456-5.40284-.03942-2.46119,1.44145-4.58689,1.05976-7.1304A9.88691,9.88691,0,0,0,42.30419,50.769a1.29208,1.29208,0,0,0-.96923-.27,8.76676,8.76676,0,0,0-3.27923,1.09657c-.867.54738-3.06666,2.76236-2.82582,3.987.24046,1.22278,2.66344,2.37575,3.52533,3.29865a6.37336,6.37336,0,0,1,1.91736,4.66853c-.05009,2.014-.59365,2.78009,1.10778,4.066.99673.7533,2.25553,1.15975,3.29282,1.862.98408.66616,1.54621,1.635,2.435,2.3318.27788.21785,1.267.44233,1.43969.64262.27256.31617.07316.784.29431,1.13065.64115,1.00489-.12714.4385,1.04082.90777a7.97567,7.97567,0,0,0,2.87989-.02225.4324.4324,0,0,0,.42376-.5647A7.12525,7.12525,0,0,0,52.55135,72.09694Z"/><path class="cls-1" d="M62.84817,37.16827c-2.22205-.33865-5.33633-.55246-7.556-.82841a2.86023,2.86023,0,0,1-2.0854-3.37052c.68425-.81437.70518,1.31962,1.46485,2.0755a3.33885,3.33885,0,0,0,2.522.77492.52868.52868,0,0,0,.53241-.525q.00012-.01689-.00084-.03376a11.77277,11.77277,0,0,0-3.18188-7.52284c-1.28353-1.55841-1.22615-5.23414-1.74633-5.79949-.28082-.30527-1.39618-1.30113-1.39618-1.30113A1.89876,1.89876,0,0,1,50.786,18.668l.10075-.36141c.05562-.1996.11574-.42849.17869-.45724.02553-.01168.05046.00378.06251.08784a5.80853,5.80853,0,0,0,.85424,2.54807c.64647.7303,1.84776.672,2.40613,1.40074.44056.575.04969,1.42441.56164,1.95008.90905.93348.71764.30376,1.186-.2145.1864-.20623-.35858-1.78028.51975-.879.52351.53727-.10462,1.60841.48706,2.01774.68334.47274.99928-.16921,1.4846-.63225,1.06365-1.01488.76378-1.31613.3413-2.73424a14.92652,14.92652,0,0,1-1.3741-5.43366,1.68851,1.68851,0,0,1,.59354-.89624,14.11438,14.11438,0,0,1,3.05637-1.0624,79.1174,79.1174,0,0,0,8.6252-3.2993.26123.26123,0,0,0-.15421-.49383c-.736.10257-1.84227.19357-2.58924.38271-.29676.07513-1.17728.19975-.13013.70062.1691.08088.41066.21882-.17255.05647-.48018-.13367-.69649-.71639-1.82-.34765-.29084.09545-.69962.12194-.0991.56208a3.08878,3.08878,0,0,0,.278.20651c.31143.15478.30589.27218-.2441.06574-.69094-.2595-.88306-.66193-2.15436-.39613-.29964.06264-.74078.2657-.55632.50994a7.0313,7.0313,0,0,0,.86537.80357c.30855.20152-.09112.11391-.28763.06913a1.88288,1.88288,0,0,1-.77579-.53874c-.35847-.43786-.56991-.70442-1.81084-.22588-.28561.11016-.0337.49987.0944.77788a1.62078,1.62078,0,0,0,.49281.65923c.41723.18545.11762.21085-.17.18545s-1.01988-1.31351-1.77723-1.19415c-.8115.12791-2.205.2225-1.82358-.346a4.39816,4.39816,0,0,0,.5734-1.84437A5.78408,5.78408,0,0,0,55.75738,6.311c-.22792-.20433-.43283-.07865-.44452.22722-.05089,1.33125-.52612,2.46688-1.97652,1.63557a46.56784,46.56784,0,0,0-3.81676-2.68824c-.27866-.12654-.57892.04573-.507.34329.26894,1.11439,1.8996,1.807-.32806,1.94889a25.02906,25.02906,0,0,1-3.105-.68219,13.07513,13.07513,0,0,0-3.28869.22189c-.30177.05134-.3512.25157-.096.4206,1.18679.78609,2.43576,1.21544.79881,2.12209-2.156,1.19417-4.51649,1.57528-5.72988,3.86485a.2821.2821,0,0,0,.01331.291c.09366.14064.51012.08126.81532.05765.14393-.01112.28749-.01879.42291-.02229.306-.00789.4133.22305.26068.4884a13.07705,13.07705,0,0,0-1.48921,6.22551c.00021.12926.18577.33771.24193.25559,1.19144-1.74133,2.1915-2.18859,2.32048-1.92006.22608.47065-.47157,1.83268-.44166,3.11152a6.35326,6.35326,0,0,0,3.24381,5.22785c.26546.15242.53548.00611.45235-.28849-.2537-.8993-1.09518-2.473-.44258-3.198.06558-.07286.12451-.16288.17909-.184.13324-.05168.19.42731.24827.72783.23761,1.22417.89384,3.911,3.23992,4.17353.27153.03039.14734.58483.00287.65264a7.82831,7.82831,0,0,1-5.20115-1.40934A13.9874,13.9874,0,0,1,35.748,21.51547c-1.05428-2.51265.03516-6.53713-1.94643-8.65469-1.735-1.854-4.74832-1.52564-7.07027-1.78211A55.19416,55.19416,0,0,1,9.61338,5.93,37.99483,37.99483,0,0,1,.46715.73392C.2387.53009.03752.60341.02217.90907-.489,11.07608,7.919,16.41034,17.10144,16.64419c.306.0078.31395.06409.01447.12745-3.71167.78569-8.65477.25954-15.04317-3.8804-.25689-.16646-.41626-.0597-.31877.23049,4.24835,12.64637,18.55755,9.197,19.37365,9.06729.30231-.048.33229.02538.05429.1535A32.4733,32.4733,0,0,1,9.2792,23.79784c-.306-.00663-.406.18262-.20787.416,5.47618,6.44938,15.20337,3.21065,17.63008,2.7454.30063-.05761.30242.06251.04344.22569A20.36129,20.36129,0,0,1,18.059,30.40522c-.30607.00591-.39382.29784-.17752.51441,2.137,2.14009,6.88149,2.30171,9.61281,2.11643a10.84209,10.84209,0,0,0,5.50531-1.32586c.22416-.07226.32584-.05036.173.11528a7.81318,7.81318,0,0,1-5.67586,2.97068c-.30564.017-.35709.2452-.07062.353a16.451,16.451,0,0,0,12.53409.14935c.28637-.108.38165.04619.18947.28445a24.35717,24.35717,0,0,1-7.51485,5.49866,19.70919,19.70919,0,0,0-5.01538,3.617.40946.40946,0,0,1-.67327-.04081,14.86731,14.86731,0,0,0-5.95816-5.42232,10.21415,10.21415,0,0,0-6.85128-.38062c-3.77455,1.7129-4.54241,4.97568-4.28184,8.44045.10073,1.33891.548,2.621.66317,3.9552a20.71353,20.71353,0,0,1-.32618,4.048c-.033.30432.17767.4484.4169.25748a8.68926,8.68926,0,0,0,2.469-3.20751c.078-.29594.08043-.31.09883-.00445.05031.83545.06558,2.28851.04027,2.75108a10.72953,10.72953,0,0,1-.87436,3.39193c-.11371.28421.00544.427.28023.29213,3.27956-1.60988,5.18242-7.60317,5.15179-11.0472-.00272-.30609.15817-.41179.26138-.12363a14.07364,14.07364,0,0,1-.1282,5.5652c-.02132.30536.15244.378.33743.13425,1.74539-2.30086.93158-5.26908,2.90143-7.15741,2.25131-2.15817,3.79-.13585,4.50455.80115a.97546.97546,0,0,1,.20925.8692c-.94052,2.69757.877,5.56843.09072,8.21047-.77816,2.6145-4.34487,2.739-5.8518,4.67684-1.5599,2.00562.55515,5.0097,1.16533,7.06211.38018,1.27858.42572,2.56911.74341,3.82691.387,1.532.58157,1.00242,1.44448,1.08474.30473.02907.55258.38465.39077.64449-.29858.4794-.915.87863-.673,1.62083.21731.66634,2.46177.39613,3.68318.282a.44876.44876,0,0,0,.42-.5784c-1.05846-3.5604-5.6401-7.60648-4.16005-11.5921.75724-2.03917,3.46358-2.29454,5.308-2.7248a6.76013,6.76013,0,0,0,5.09424-3.857,16.46958,16.46958,0,0,1,3.33013-5.48748c1.93935-1.5289,4.90586-1.58381,7.25548-1.9865,5.10785-.87542,9.46889-2.4289,12.23189-6.92433.16028-.26079.03277-.47307-.272-.4443a13.76823,13.76823,0,0,1-4.76178.1286c-.45967-.09088-2.34282-1.54169-1.58791-2.28216.45926-.45048.99653.68657,1.61489,1.04118,2.02346,1.16012,7.31793-.85018,9.173-.83636,1.943.0145,2.14987,1.675,1.02243,3.091-.63888.80236-2.09718,1.44729-2.42181,2.43607-.11112.33847.24466,2.02733.09107,2.10017-.38561.18294-.92611-1.37579-2.025-.56965-.61415.45056-.8175,2.44141-.71449,3.54324a.47307.47307,0,0,0,.63361.39561,15.60874,15.60874,0,0,0,3.67611-2.35764,18.54326,18.54326,0,0,0,3.09548-5.21843C65.45776,40.26288,67.272,37.84249,62.84817,37.16827ZM55.4291,15.804c.57345.20335,1.41056.53223,1.39572.98443-.04089,1.24811-1.70175.36207-1.94-.64019C54.814,15.85043,55.14066,15.70166,55.4291,15.804Z"/></svg>