<svg id="Слой_1" data-name="Слой 1" xmlns="http://www.w3.org/2000/svg" viewBox="0 0 77 48"><defs><style>.cls-1{fill:#00703c;}.cls-2{fill:#006937;}</style></defs><title>logo_sberInsrV</title><path class="cls-1" d="M17.05382,34.78936l.23126.44855a4.682,4.682,0,0,1-2.51215.68355c-2.20705,0-3.47871-1.19615-3.47871-3.76964,0-2.467,1.01942-3.962,3.626-3.962a6.10679,6.10679,0,0,1,2.144.34167c-.021.5019-.021,1.05713,0,1.55923h-.47288l-.12617-.47c-.16812-.55523-.49393-.93977-1.49247-.93977-1.5661,0-1.96548,1.17475-1.96548,3.193,0,1.92231.38894,3.35344,2.20727,3.35344A3.762,3.762,0,0,0,17.05382,34.78936Z"/><path class="cls-1" d="M20.35377,31.0017h-.40684V29.22784c0-.32354.06267-.43831.52174-.43831h1.01214c.94973,0,1.22079.073,1.45058.84515l.09375.30265h.39665c-.02089-.54263-.02089-1.07481,0-1.61731H17.94353v.22953c.37551.09388.42773.19833.42773.60517v5.8018c0,.407-.05222.5113-.42773.60517v.22967h2.94268c1.8052,0,2.91109-.49054,2.91109-2.49406C23.7973,31.23123,22.36787,31.0017,20.35377,31.0017Zm.45932,4.32H20.594c-.52173,0-.64707-.167-.64707-.647V31.47121h.63663c1.24168,0,1.56522.67842,1.56522,1.8992C22.14878,34.67476,21.773,35.32171,20.81309,35.32171Z"/><path class="cls-1" d="M26.99645,28.78764c-.31527,0-.36777.08548-.36777.34189v2.31731h.97747a2.8574,2.8574,0,0,0,1.30318-.22427v.94a2.8578,2.8578,0,0,0-1.30318-.22427h-.97747v2.78705c0,.44857.17869.59808,1.14562.59808h.21018c.95637,0,1.20873-.06405,1.41881-.99308l.06313-.27759h.46244c-.021.57665-.021,1.164,0,1.74064H24.63171v-.235c.36777-.08548.42038-.19213.42038-.598V29.15073c0-.40572-.05261-.51237-.42038-.59785v-.235h5.129c-.02107.54473-.02107,1.07853,0,1.62329h-.3994l-.09468-.30978c-.23125-.76878-.494-.84377-1.45042-.84377Z"/><path class="cls-1" d="M33.919,28.32H30.87211v.22953c.36532.09388.428.19833.428.60517v5.8018c0,.407-.06267.5113-.428.60517v.22967h2.42094v-.22967c-.36532-.09387-.41754-.1982-.41754-.60517V32.83823h.73064c1.77386,0,2.86956-.55307,2.86956-2.36872C36.47571,28.67476,35.38,28.32,33.919,28.32Zm-.3024,4.0487h-.74108V29.1965c0-.35475.14623-.407.45932-.407h.16687c.99125,0,1.32524.62606,1.32524,1.607C34.82694,31.56522,34.5974,32.36872,33.61659,32.36872Z"/><path class="cls-1" d="M39.54348,31.0017h-.4071V29.22784c0-.32354.06267-.43831.52174-.43831h1.0124c.95991,0,1.22078.073,1.45032.84515l.094.30265h.3964c-.02089-.54263-.02089-1.07481,0-1.61731H37.14343v.22953c.36532.09388.41754.19833.41754.60517v5.8018c0,.407-.05222.5113-.41754.60517v.22967h2.94268c1.79475,0,2.91134-.49054,2.91134-2.49406C42.99745,31.23123,41.56776,31.0017,39.54348,31.0017Zm.46951,4.32h-.22953c-.52174,0-.64708-.167-.64708-.647V31.47121H39.773c1.24168,0,1.56522.67842,1.56522,1.8992C41.33823,34.67476,40.96247,35.32171,40.013,35.32171Z"/><path class="cls-1" d="M49.43563,33.9026,47.8913,29.426A4.6563,4.6563,0,0,1,47.62,28.32H45.51214v.22953c.38621.09388.42774.2922.42774.43831a3.271,3.271,0,0,1-.36507,1.21034l-1.35657,3.3913a15.86169,15.86169,0,0,1-1.01214,2.20186h1.33568c.01044-.167.07286-.49054.15642-.9184.094-.42773.27131-1.033.51129-1.78431h2.33739l.31309.94961a14.20494,14.20494,0,0,1,.4904,1.7531h1.87832A11.74983,11.74983,0,0,1,49.43563,33.9026Zm-4.059-1.31479,1.02259-3.00523.99126,3.00523Z"/><path class="cls-1" d="M55.62653,31.93826H52.78867v3.02206c0,.40592.05272.51257.42061.598v.235H50.792v-.235c.36767-.08548.42014-.19213.42014-.598V29.15073c0-.40572-.05247-.51237-.42014-.59785v-.235h2.41726v.235c-.36789.08548-.42061.19213-.42061.59785v2.29611h2.83786V29.15073c0-.40572-.0525-.51237-.42038-.59785v-.235H57.6234v.235c-.36766.08548-.42013.19213-.42013.59785v5.80959c0,.40592.05247.51257.42013.598v.235H55.20615v-.235c.36788-.08548.42038-.19213.42038-.598Z"/><path class="cls-1" d="M59.21065,29.15073c0-.40572-.05269-.51237-.42058-.59785v-.235h2.41748v.235c-.36811.08548-.42038.19213-.42038.59785v5.80959c0,.40592.05227.51257.42038.598v.235H58.79007v-.235c.36789-.08548.42058-.19213.42058-.598Z"/><path class="cls-1" d="M63.12031,32.51491a31.94234,31.94234,0,0,0,2.58547,3.27845h-2.47A13.58707,13.58707,0,0,0,62.02743,33.572L60.913,31.874l.967-1.27069a13.96269,13.96269,0,0,0,1.52427-2.28539h1.72338v.01071a13.48368,13.48368,0,0,0-2.19648,1.97564l-.76717.83284Z"/><rect class="cls-1" x="0.32093" y="37.66806" width="76.41911" height="0.74761"/><path class="cls-1" d="M4.14645,47.30668c-1.81674,0-2.20513-1.42974-2.20513-3.35068,0-2.01638.39918-3.19,1.96376-3.19.99753,0,1.32368.38429,1.49123.939l.1262.46927h.47262c-.02142-.50141-.02142-1.05641,0-1.55785a6.114,6.114,0,0,0-2.14255-.34116c-2.60414,0-3.62265,1.49379-3.62265,3.95827C.22993,46.80524,1.50033,48,3.705,48a4.68547,4.68547,0,0,0,2.51054-.68261l-.23094-.44809a3.7642,3.7642,0,0,1-1.83814.43738"/><path class="cls-1" d="M60.78545,44.01168H57.94337v3.02671c0,.40686.05271.51329.42105.59922v.23523h-2.421v-.23523c.369-.08593.42106-.19236.42106-.59922V41.22c0-.40664-.052-.51329-.42106-.59877v-.23524h2.421v.23524c-.36834.08548-.42105.19213-.42105.59877V43.52h2.84208V41.22c0-.40664-.05227-.51329-.42108-.59877v-.23524h2.42128v.23524c-.36856.08548-.42083.19213-.42083.59877v5.81844c0,.40686.05227.51329.42083.59922v.23523H60.36437v-.23523c.36881-.08593.42108-.19236.42108-.59922Z"/><path class="cls-1" d="M70.61749,40.62071v-.23477h-2.421v.23477c.36855.08595.421.19307.421.59924v1.01334l-2.9599,2.75958L65.65776,41.22c0-.40617.05285-.51329.42116-.59924v-.23477H63.65756v.23477c.36859.08595.42118.19307.42118.59924v5.81844c0,.40639-.05259.51374-.42118.599v.23546h2.42136v-.23546c-.36831-.08525-.42116-.1926-.42116-.599v-1.28l2.9655-2.77378-.00582,4.0538c0,.40639-.0524.51374-.421.599v.23546h2.421v-.23546c-.36821-.08525-.42125-.1926-.42125-.599V41.22c0-.40617.053-.51329.42125-.59924"/><path class="cls-1" d="M45.97121,43.77386a1.61316,1.61316,0,0,0,1.49236-1.64865c0-1.534-1.28371-1.70087-2.74448-1.70087H41.8913v.22953c.37551.08356.42774.18788.42774.59486V47.04c0,.407-.05223.51143-.42774.59473v.24011h2.77556c1.83654,0,3.05758-.41742,3.05758-2.24351A1.79517,1.79517,0,0,0,45.97121,43.77386Zm-2.087-2.45215c0-.313.06267-.42786.44888-.42786h.30239c.81394,0,1.23149.35488,1.23149,1.35657s-.43818,1.3148-1.29391,1.3148h-.68885Zm.90794,6.08344H44.5c-.52174,0-.61574-.13553-.61574-.61562V44.02429h.64707c1.16857,0,1.57567.56352,1.57567,1.68011C46.107,46.86252,45.63748,47.40515,44.7922,47.40515Z"/><path class="cls-1" d="M26.37466,45.98616l-1.54433-4.45567a4.63924,4.63924,0,0,1-.27106-1.10615H22.46162v.22953c.37576.08356.41754.29221.41754.43831a3.35639,3.35639,0,0,1-.35487,1.2l-1.34613,3.39131a17.7942,17.7942,0,0,1-1.02259,2.19128h1.33568a9.23806,9.23806,0,0,1,.15668-.91827c.09375-.42786.27106-1.033.51129-1.77386h2.32694l.31309.94947a13.634,13.634,0,0,1,.49041,1.74266h1.86761A13.71809,13.71809,0,0,1,26.37466,45.98616Zm-4.04857-1.30435,1.01214-3.00535.99125,3.00535Z"/><path class="cls-1" d="M54.2877,45.98616l-1.54432-4.45567a4.63924,4.63924,0,0,1-.27106-1.10615H50.37466v.22953c.37576.08356.41754.29221.41754.43831a3.35639,3.35639,0,0,1-.35487,1.2L49.0912,45.68351a16.2614,16.2614,0,0,1-1.02259,2.19128H49.4043a9.23415,9.23415,0,0,1,.15667-.91827c.09375-.42786.27106-1.033.5113-1.77386H52.3992l.3131.94947a13.6338,13.6338,0,0,1,.4904,1.74266h1.86761A13.71809,13.71809,0,0,1,54.2877,45.98616Zm-4.04857-1.30435,1.02259-3.00535.98081,3.00535Z"/><path class="cls-1" d="M17.63043,40.40345H14.58356v.24c.36506.08356.41729.18788.41729.59485V47.04c0,.407-.05223.51143-.41729.59473v.24011h2.4105v-.24011c-.36532-.0833-.41755-.18775-.41755-.59473V44.92179h.74083c1.77386,0,2.85912-.55307,2.85912-2.36872C20.17646,40.75832,19.0912,40.40345,17.63043,40.40345Zm-.30264,4.0487h-.75128V41.28006c0-.35487.146-.4071.45907-.4071h.17757c.9808,0,1.31453.62619,1.31453,1.607C18.52768,43.64865,18.2984,44.45215,17.32779,44.45215Z"/><path class="cls-1" d="M13.68522,40.40364H6.86761c.02123.54476.02123,1.07786,0,1.6226h.39918l.09421-.31c.231-.76784.49383-.84308,1.44918-.84308h.16387c.38427.00072.49018.08362.51446.29743v5.87013c0,.40522-.05212.51213-.41991.59783v.23429h2.41484v-.23429c-.36766-.0857-.41911-.19261-.41911-.59783V41.25467c.0086-.27741.08953-.38079.52077-.38151h.15724c.95614,0,1.21872.07524,1.44962.84308l.09433.31h.39893c-.02063-.54474-.02063-1.07784,0-1.6226"/><path class="cls-1" d="M76.30924,46.13777l-.06313.27644c-.209.926-.4606.99028-1.41413.99028h-.20949c-.96394,0-1.14216-.149-1.14216-.59666V44.0296h.97449a2.84977,2.84977,0,0,1,1.2994.22382v-.93718a2.85292,2.85292,0,0,1-1.2994.22335h-.97449v-2.3101c0-.25524.05272-.34069.36675-.34069h.817c.95374,0,1.21537.07474,1.44608.84118l.094.30884h.39871c-.02132-.54312-.02132-1.07528,0-1.618H71.48965v.23361c.36675.08548.41889.19214.41889.59646v5.7914c0,.40477-.05214.511-.41889.59574v.23476h5.28042c-.021-.575-.021-1.16076,0-1.73507Z"/><path class="cls-1" d="M34.18681,47.87284a23.96753,23.96753,0,0,1-2.691-3.99486s1.7684-3.04207,2.46015-3.44685v-.01071H32.23717a10.995,10.995,0,0,1-1.08584,2.8574,19.25047,19.25047,0,0,1-1.24345-2.8574H27.44524a22.77088,22.77088,0,0,1,2.61943,3.86186,19.76155,19.76155,0,0,1-2.63121,3.58007v.01049h1.71826a12.39653,12.39653,0,0,1,1.2823-2.85857c.17581.36474.59606,1.25648,1.29018,2.85857Z"/><path class="cls-1" d="M37.78006,40.27824c-2.68181,0-3.48531,1.38778-3.48531,3.8505C34.29475,46.8,35.34868,48,37.63383,48c2.68181,0,3.48531-1.38791,3.48531-3.85037C41.11914,41.46782,40.06522,40.27824,37.78006,40.27824Zm-.094,7.22091c-1.49211,0-1.70075-1.62789-1.68012-3.53741.0107-2.02441.24024-3.18266,1.71145-3.18266,1.4921,0,1.70075,1.61745,1.67986,3.53741C39.38706,46.33033,39.15727,47.49915,37.68606,47.49915Z"/><path class="cls-2" d="M50.24865,10.69152a11.596,11.596,0,0,1-23.192,0c0-.26033.00982-.51861.02674-.77378l7.02128,4.03757,14.871-8.5532A11.55863,11.55863,0,0,1,50.24865,10.69152Z"/><path class="cls-2" d="M34.10462,11.03779,27.56733,7.279a11.5804,11.5804,0,0,0-.31363,1.27822l6.85092,3.94065L48.33634,4.31072a11.785,11.785,0,0,0-.75817-1.0221Z"/><path class="cls-2" d="M46.69468,2.33782a11.67762,11.67762,0,0,0-1.01734-.87226L34.10462,8.122l-5.5253-3.17813a11.37032,11.37032,0,0,0-.56655,1.13207l6.09185,3.50345Z"/><path class="cls-2" d="M34.10462,6.66365,44.50637.67975A11.711,11.711,0,0,0,43.15092,0l-9.0463,5.204L30.076,2.88692a11.95445,11.95445,0,0,0-.80828.99331Z"/></svg>