<svg xmlns="http://www.w3.org/2000/svg" viewBox="0 0 48 48"><defs><style>.cls-1{fill:#02797e;}.cls-2{fill:#fff;}</style></defs><title>logo_pci_symb</title><g id="Слой_2" data-name="Слой 2"><polyline class="cls-1" points="48 28.166 10.831 39.83 0 10.345 39.02 8.17 48 28.166"/><path class="cls-2" d="M19.90357,22.24108a3.95034,3.95034,0,0,1-1.89778,3.42526,7.10713,7.10713,0,0,1-2.17551.83318,12.96559,12.96559,0,0,1-2.82353.27772h-.7406V30.5728H7.45227V17.93635h5.64706a10.03026,10.03026,0,0,1,4.999,1.06461,3.5125,3.5125,0,0,1,1.80521,3.24012m-4.62874.04629c0-1.1109-.83317-1.66635-2.45323-1.66635h-.60173V24h.55544a3.42816,3.42816,0,0,0,1.8515-.41659A1.39506,1.39506,0,0,0,15.27483,22.28737Z"/><path class="cls-2" d="M31.84571,30.57281a13.65288,13.65288,0,0,1-2.5458.23143,11.88839,11.88839,0,0,1-3.56413-.46287,8.52745,8.52745,0,0,1-2.68467-1.29605,5.40876,5.40876,0,0,1-1.66634-2.03664,6.483,6.483,0,0,1-.55545-2.68467,5.85677,5.85677,0,0,1,.60173-2.68467,6.65628,6.65628,0,0,1,1.71264-2.08293,8.84323,8.84323,0,0,1,2.63838-1.34233,10.94862,10.94862,0,0,1,3.33269-.46287,15.17487,15.17487,0,0,1,2.59209.18515,7.14908,7.14908,0,0,1,1.38862.41658v3.379a5.65,5.65,0,0,0-1.62006-.648,6.49242,6.49242,0,0,0-1.89778-.27773,4.1558,4.1558,0,0,0-2.68466.87946,3.18945,3.18945,0,0,0-1.01833,2.5921,3.35374,3.35374,0,0,0,.324,1.52748,3.28754,3.28754,0,0,0,.87946,1.06461,3.78778,3.78778,0,0,0,1.296.648,5.87862,5.87862,0,0,0,1.57377.23144,7.19023,7.19023,0,0,0,1.71263-.18515,9.58321,9.58321,0,0,0,1.75893-.55545v3.19383c-.74061.18515-.83318.23143-1.57378.3703"/><rect class="cls-2" x="35.40984" y="17.93635" width="4.86017" height="12.68274"/><path class="cls-2" d="M40.77917,13.95564A2.48675,2.48675,0,0,1,39.946,15.946a3.174,3.174,0,0,1-2.08293.7406,2.949,2.949,0,0,1-2.08294-.7406,2.48679,2.48679,0,0,1-.83317-1.99036,2.58492,2.58492,0,0,1,.83317-2.03664,3.29942,3.29942,0,0,1,4.16587,0,2.52068,2.52068,0,0,1,.83317,2.03664"/></g></svg>