<svg xmlns="http://www.w3.org/2000/svg" viewBox="0 0 106 64"><defs><style>.cls-1{fill:#00344d;}.cls-2{fill:#77787b;}.cls-3{fill:#f6921e;}.cls-4{fill:#f05b4e;}.cls-5{fill:#fff;}</style></defs><title>logo_unique</title><g id="Слой_2" data-name="Слой 2"><circle class="cls-1" cx="53.00006" cy="22.66425" r="22.66425"/><path class="cls-2" d="M15.96689,59.95626a36.47656,36.47656,0,0,1-7.82.87114A38.3356,38.3356,0,0,1,.193,59.95627V49.38787H2.36006v8.80351a34.78026,34.78026,0,0,0,5.87706.5355,33.15833,33.15833,0,0,0,5.56244-.51344V49.38787h2.16733Z"/><path class="cls-2" d="M20.3013,50.25956a36.47251,36.47251,0,0,1,7.82-.87169,38.346,38.346,0,0,1,7.95389.87168V60.8274H33.90815V52.02445a34.73285,34.73285,0,0,0-5.87706-.536,33.09957,33.09957,0,0,0-5.56272.514v8.825H20.3013Z"/><path class="cls-2" d="M39.40461,49.38787H41.572V60.78321H39.40462Z"/><path class="cls-2" d="M52.51931,64V60.76059a40.01732,40.01732,0,0,1-6.85971-.849v-9.652a36.47925,36.47925,0,0,1,7.82054-.87168,38.34351,38.34351,0,0,1,7.95392.87168v9.652a35.42051,35.42051,0,0,1-6.74767.849V64Zm0-5.33993V56.09083l2.16708.0221v2.54715a32.91237,32.91237,0,0,0,4.58034-.49134V52.02445a34.728,34.728,0,0,0-5.87709-.536,33.10164,33.10164,0,0,0-5.56271.514v6.14373a35.99537,35.99537,0,0,0,4.69238.514Z"/><path class="cls-2" d="M82.32409,59.95626a36.47473,36.47473,0,0,1-7.81974.87114,38.34189,38.34189,0,0,1-7.95392-.87114V49.38787h2.16734v8.80351a34.77839,34.77839,0,0,0,5.87654.5355,33.15729,33.15729,0,0,0,5.563-.51344V49.38787h2.16679Z"/><path class="cls-2" d="M85.028,53.92349h4.17843V49.76768a77.50813,77.50813,0,0,1,8.45652-.37981,68.44947,68.44947,0,0,1,8.14408.40244v2.21206a70.98541,70.98541,0,0,0-8.88429-.55867,48.92892,48.92892,0,0,0-5.54951.28767v2.19212h10.85821v2.18943H91.37322v2.23469a49.97653,49.97653,0,0,0,5.59424.29036,65.13934,65.13934,0,0,0,8.75014-.5813v2.21205a52.67234,52.67234,0,0,1-8.05465.51448,58.26472,58.26472,0,0,1-8.45653-.51448v-4.1558H85.028Z"/><polygon class="cls-3" points="66.469 17.544 66.469 7.96 59.038 7.96 59.038 10.36 66.469 17.544"/><path class="cls-3" d="M65.45031,33.30878a17.23886,17.23886,0,0,0,.67341-2.63807l-1.66144,1.68275Z"/><path class="cls-4" d="M64.027,32.79427l-8.33477,8.44092c4.56525-.69335,7.8526-3.09181,9.52324-7.29233Z"/><path class="cls-4" d="M59.03776,26.92946c0,.06035-.00163.11852-.00215.17818l4.98115,4.81511,2.26053-2.2895a25.71644,25.71644,0,0,0,.19179-3.19268V18.40573L59.03776,11.2218Z"/><path class="cls-5" d="M63.58144,32.36369,59.014,27.94808c-.24243,5.11879-2.3629,7.53718-6.03842,7.53718-3.81342,0-5.96461-2.88438-5.96461-8.55581V7.9603H39.53094V26.34279c0,10.51141,4.889,15.10681,13.20037,15.10681.68042,0,1.33608-.03341,1.97232-.09428Z"/></g></svg>