<svg id="Слой_1" data-name="Слой 1" xmlns="http://www.w3.org/2000/svg" viewBox="0 0 156 64"><defs><style>.cls-1,.cls-2{fill:#fff;}.cls-1,.cls-3{fill-rule:evenodd;}.cls-3{fill:#eb2027;}</style></defs><title>logo_mvideo</title><path class="cls-1" d="M32.26219,62.85452l-.25447.001a30.85537,30.85537,0,1,1,0-61.71073l.27745.001h91.98435a30.8554,30.8554,0,0,1-.023,61.70856H32.26219Z"/><path class="cls-2" d="M32.26179,64h-.25433a32,32,0,1,1,0-64h92.26226a32.00109,32.00109,0,0,1-.01371,64ZM32.00746,2.29a29.71,29.71,0,1,0,0,59.42h92.23941a29.71115,29.71115,0,0,0,.01371-59.42Z"/><path class="cls-3" d="M32.26219,62.85452l-.25447.001a30.85537,30.85537,0,1,1,0-61.71073l.27745.001h91.98435a30.8554,30.8554,0,0,1-.023,61.70856H32.26219Z"/><path class="cls-2" d="M57.88079,14.81073h.39911l.612.9643H59.263l-.63787-.98914a.55948.55948,0,0,0,.58465-.59938c0-.44259-.26511-.65051-.79679-.65051h-.8766v2.239H57.881v-.9643Zm0-.98867h.4787c.23947,0,.50506.0521.50506.33888,0,.33816-.26583.36421-.55828.36421h-.42572v-.70309Z"/><path class="cls-2" d="M58.30627,16.63442a1.99353,1.99353,0,0,0,1.99318-1.97926A1.94967,1.94967,0,0,0,58.30627,12.728a1.97906,1.97906,0,0,0-2.0459,1.92717,2.02222,2.02222,0,0,0,2.0459,1.97926Zm0-3.59359a1.61446,1.61446,0,1,1-1.62066,1.61433A1.59956,1.59956,0,0,1,58.30627,13.04083Z"/><path class="cls-2" d="M55.8448,43.15693A2.151,2.151,0,1,1,53.693,41.01341,2.14943,2.14943,0,0,1,55.8448,43.15693Z"/><path class="cls-2" d="M82.5132,17.13056c-3.17142-1.7617-17.28016,2.22167-21.80738,17.43179-.53288.14593-3.09329.8097-3.09329.8097l-1.11922,3.006,3.9699-1.20743s-.43564,7.29186,6.22142,7.50966c5.22749-.19464,7.96182-7.60663,6.28746-12.82106-.31881.16811-4.49626,2.17222-4.49626,2.17222s.9678,5.72288-1.35556,6.42331c-.75227.096-1.63518-2.19489-.82581-5.62664C77.39989,29.07054,84.44059,18.20944,82.5132,17.13056Zm-4.429,3.47662c2.12912-.19151-8.10793,10.67224-10.72324,11.20287C66.51458,31.3279,73.848,21.64577,78.08419,20.60718Z"/><path class="cls-2" d="M76.41346,31.01434v2.14811s2.83229-1.83455,3.05-1.49615c.07184.96527-3.50837,9.12689-3.58167,10.35724-.07305.74891.62892,3.57405,3.94354,2.10107,1.62333-.69947,5.974-4.25593,5.974-4.25593a6.95328,6.95328,0,0,0-.40347,3.26509c.29462,1.451,2.10034,1.8331,3.72778,1.23227a11.6346,11.6346,0,0,0,4.28653-2.801c-.12143-.31476-.58174-1.76291-.58174-1.76291s-1.4586,1.37265-1.81781,1.19368c-.36041-.17993,4.14188-13.33723,4.14188-13.33723s-4.61647-.17824-5.07679-.17824c-.76051,3.45635-5.071,12.22483-8.04527,12.61171-1.01909-.0726,3.60586-10.35773,3.77687-11.51716.33841-1.52147-.80259-2.22094-2.156-1.90714C82.22366,27.15133,76.41346,31.01434,76.41346,31.01434Z"/><path class="cls-2" d="M108.13132,27.33392s-.55949,1.37675-.664,1.61409c-.58392-1.00531-2.60346-2.96431-6.77292-.36975-4.3521,2.80632-6.2115,7.59891-5.62589,12.68117.6369,4.20961,5.20258,4.7113,8.28136,1.13724-.3176.92813-3.58385,10.93539-3.58385,10.93539l5.07075.02629,8.28571-25.919-4.99117-.1054ZM102.572,39.85566c-.71648.39629-1.83063,1.05716-1.98859-1.45755-.08055-2.96456,2.31247-6.27884,2.76941-6.79838,1.19445-1.34974,2.68449-1.37458,2.64652.7629C105.84159,34.82381,104.2456,38.71552,102.572,39.85566Z"/><path class="cls-2" d="M26.70113,44.33975c-2.53574-2.672-.56361-7.59119-.13836-11.94865-.56506.563-6.20425,13.63462-11.2791,13.07-4.51053-1.40208-3.94693-6.46432-2.53743-10.25883h7.32927c-2.25514,6.18356.84589,3.65413,2.961-.28076,4.229-8.57407,4.51125-9.27643,9.16329-22.20942h8.03535c-2.39616,7.31-4.65276,14.47858-5.638,22.06856,0,.28076.14.562.42234.42162,1.69033-.28076,10.99488-21.08279,11.84-22.49018h7.75234c0,.70285-8.5975,24.17663-7.18777,26.42506.7056,1.26484,1.693-1.12349,2.53743-2.10854l1.26993,1.2658c-2.53743,2.81236-5.497,7.8705-9.72665,7.02824a3.3439,3.3439,0,0,1-1.55-.84323c-4.37216-3.79451,3.52265-17.51307,2.678-18.41346-.26269.02919-.52563.72649-.98812,1.68621-2.39738,4.92042-7.89216,17.85123-12.40607,17.85123A4.37756,4.37756,0,0,1,26.70113,44.33975Z"/><path class="cls-2" d="M118.03769,40.484c9.39793-4.92476,11.654-11.17224,8.761-12.92-4.27614-2.38278-15.9829,1.87965-14.65516,13.556-.58635.34347-1.80886,1.0058-1.80886,1.0058l.8517,2.32948s1.7254-1.0316,2.17072-1.33985c5.98122,4.83528,12.54418-3.09311,12.54418-3.09311l-1.14776-1.76243c.00023,0-4.96674,4.76412-6.71585,2.22408Zm1.24622-7.14884c1.35386-2.38278,3.53257-4.23566,4.594-3.49422,1.06191.74168-1.08923,4.50049-6.15151,8.49472C117.52392,37.98759,117.92957,35.71841,119.28391,33.33514Z"/><path class="cls-2" d="M133.43764,27.749l5.443-.15823s-7.64591,6.0157-6.53176,11.70168c.87878,3.45635,4.11334,1.7728,5.89414-2.14449.34275-.768,2.4951-5.98361,1.14052-5.98361-1.35411,0-2.76795,2.67415-2.76795,2.67415l-1.48109-1.4824s3.0004-4.26339,6.41662-5.40474c.4083-.12832,2.87559-.631,2.9034,2.8893.10813,1.64134-1.66977,10.64378-7.85635,13.81986-5.675,2.9098-8.165-.57477-8.614-1.61481C124.8752,34.34986,133.43764,27.749,133.43764,27.749Z"/></svg>