<svg id="Слой_1" data-name="Слой 1" xmlns="http://www.w3.org/2000/svg" viewBox="0 0 600 600"><defs><style>.cls-1{fill:#fff;}</style></defs><title>mask_horseW_1</title><path class="cls-1" d="M590.00511,290.586c-7.66723.88952-17.84576,3.62458-25.80178,4.95872a5.15787,5.15787,0,0,1-5.48934-3.49117c-.4445-1.3564-.95561-2.824-1.44447-4.15824a4.74024,4.74024,0,0,1,1.0667-5.33671c1.289-1.24525.46675-5.84825-1.84461-5.29233-1.5112.35572-2.289,3.31323-4.91137,2.04573-3.667-1.77891-10.223-6.62648-13.20093-9.206-7.00055-6.026-12.112-8.739-20.60149-13.72-18.51245-10.807-35.95807,7.6049-46.75879,24.6605-1.24453,2.00122-1.60018,3.71348-3.91141,3.35762-.089-.02212-4.42251-.845-4.48925-.845-2.33347-.378-2.31122-2.04573-2.289-4.40281a171.29845,171.29845,0,0,0-2.13353-24.70489,7.1243,7.1243,0,0,1,2.86682-6.60435c10.0452-6.11508,26.44636-11.49631,38.35827-14.943a56.25057,56.25057,0,0,1,8.31168-1.91232,23.9469,23.9469,0,0,1,11.68973,1.8678,58.50172,58.50172,0,0,1,7.31157,4.403c11.20088,7.516,27.802,19.1012,40.73623,30.06385a32.23165,32.23165,0,0,0,7.26722,4.15825,36.72124,36.72124,0,0,1,17.55671,15.05425C593.51651,288.56233,592.33858,290.31912,590.00511,290.586Z"/><path class="cls-1" d="M416.81519,581.15218c-7.15613.6227-17.0456,2.22367-22.17929.15568-9.00074-3.60233-3.08914.7561-8.02289-6.98234-1.71114-2.69055-.15558-6.29288-2.26673-8.71673-1.33351-1.55659-8.95625-3.291-11.08978-4.95873-6.84483-5.38137-11.1785-12.85285-18.75688-17.98951-8.00051-5.40349-17.69-8.53879-25.37952-14.34266-13.11195-9.91746-8.91176-15.83248-8.53386-31.35362.35552-14.25363-5.20043-25.72782-14.77887-35.97888-6.62264-7.11576-25.31292-16.01041-27.1574-25.43873-1.84461-9.45058,15.0899-26.52831,21.77928-30.73107,7.68934-4.86983,16.44552-6.96008,25.26843-8.44989a9.99772,9.99772,0,0,1,7.46716,2.068c11.46755,10.74034,18.31238,27.95148,20.557,42.9167,2.9558,19.61274-8.46726,36.00114-8.15609,54.99119.33327,20.32433,18.0457,31.15356,33.00226,41.64933,6.5338,4.55849,13.84551,8.5388,20.157,13.16406,1.22228.88952,4.28917,4.1805,6.82272,6.44868,1.77787,1.57872,5.06695,3.44665,6.556,5.24782a54.58094,54.58094,0,0,1,7.97826,13.94242C420.92654,578.99529,419.17091,580.92987,416.81519,581.15218Z"/><path class="cls-1" d="M544.35751,85.742c-5.66717.80048-14.201,1.48981-19.95705,2.95751-2.26673.578-9.0672,1.53433-1.00009,5.40349,1.31126.62255,3.17812,1.66775-1.33338.4225-3.68909-1.02293-5.35587-5.51478-14.001-2.66842-2.24463.73384-5.40037.9339-.77792,4.33617a25.576,25.576,0,0,0,2.15578,1.57871c2.378,1.20087,2.35572,2.11251-1.889.51154-5.33376-2.00135-6.80047-5.11454-16.60123-3.04641-2.31123.46688-5.71153,2.04573-4.28918,3.91354a54.84445,54.84445,0,0,0,6.66714,6.20411c2.378,1.55659-.68893.86712-2.22238.53365a14.57476,14.57476,0,0,1-5.9782-4.15824c-2.75573-3.38-4.378-5.42575-13.93436-1.73452-2.20013.845-.26667,3.847.71118,6.00392.66669,1.42318,2.378,4.44733,3.80031,5.07,3.22248,1.423.91112,1.62323-1.31126,1.423-2.20013-.17779-7.84492-10.11764-13.68979-9.20587-6.24488,1.00055-16.979,1.73439-14.04545-2.66842.33342-.51154,3.1335-4.6919,4.42252-14.20925,1.2-8.89466-6.6004-23.83762-14.26763-30.70881-1.75577-1.57885-3.33357-.60043-3.42255,1.75665-.4,10.2512-4.06686,19.01244-15.22324,12.60828-11.46741-6.5821-17.5346-15.34334-29.42427-20.72457-2.13353-.97842-4.44475.35572-3.88916,2.64616,2.0668,8.58332,14.62329,13.92017-2.53354,15.00974-7.35607.46688-16.40117-4.62526-23.93506-5.248-8.48937-.71146-16.95662.28908-25.335,1.71226-2.31123.40025-2.71137,1.93458-.73342,3.2466,9.13394,6.04831,18.75687,9.36154,6.156,16.34388-16.62335,9.206-34.80252,12.14126-44.15865,29.79717a2.18619,2.18619,0,0,0,.11109,2.24592c.71118,1.08957,3.93366.62255,6.28937.44462,1.089-.08889,2.20014-.13341,3.24459-.17779,2.35571-.04452,3.178,1.73439,2.02244,3.78026-8.57835,14.87618-11.5119,33.91088-11.4898,47.98658,0,1.00068,1.44461,2.60179,1.86686,1.9791,9.17844-13.43089,16.89-16.87768,17.89012-14.80955,1.73352,3.62445-3.64473,14.12022-3.40017,23.99329.37777,16.98884,10.88957,32.19863,24.97951,40.2928,2.04455,1.17861,4.13359.04452,3.48915-2.22367-1.9557-6.93782-8.445-19.05682-3.4003-24.6605.489-.55591.9556-1.24524,1.37786-1.40078,1.02234-.40038,1.4446,3.291,1.91135,5.60354,1.82223,9.42832,6.88932,30.15289,24.95726,32.1765,2.089.22231,1.13344,4.514.02225,5.02551-7.80057,3.669-27.9798-3.3355-40.06954-10.8515-18.31238-11.40741-33.069-29.28576-41.46952-49.34313-8.134-19.36817.26667-50.38832-15.00106-66.70994-13.37876-14.29815-36.58039-11.76327-54.47051-13.74223-45.80318-5.07-90.31748-20.25769-131.89809-39.6925C58.32336,42.02463,30.2992,30.10582,10.8089,12.69449,9.05327,11.138,7.49758,11.69395,7.38649,14.051,3.45284,92.43521,68.23508,133.55075,138.97342,135.35191c2.35571.06664,2.42245.5114.11109.97842-28.602,6.07056-66.67135,2.00122-115.89694-29.90832-1.97795-1.28976-3.22248-.467-2.46681,1.77891,32.73559,97.50778,142.98774,70.9127,149.27711,69.912,2.33347-.378,2.55565.17793.42225,1.17861-23.26837,10.71808-66.138,11.76314-91.71759,11.20722-2.35571-.04451-3.13349,1.42318-1.6,3.22434,42.20294,49.72112,117.14147,24.7494,135.83175,21.14708,2.33347-.44476,2.33347.48914.33328,1.75664C199.6,225.23241,169.42,240.99825,146.35173,241.443c-2.35572.04438-3.0224,2.2903-1.35562,3.98031,16.44552,16.4773,53.00367,17.7448,74.04966,16.2995,33.49126-2.26818,36.53591-8.31662,42.42513-10.20668,1.73352-.55592,2.51129-.40024,1.3335.88952-10.66752,11.54083-22.60168,21.72511-43.73638,22.90372-2.35585.11116-2.75587,1.89006-.53349,2.71281,52.51481,19.76841,87.584,4.53636,96.56236,1.15634,2.20014-.845,2.93356.35573,1.46685,2.17915-14.75662,18.323-37.625,31.48717-57.91517,42.40531-21.97935,11.82991-33.73582,22.6814-38.625,27.88484a3.17163,3.17163,0,0,1-5.20042-.31135c-5.68928-7.983-21.5571-31.82063-45.91428-41.80487-14.24552-5.8705-38.736-9.31716-52.78148-2.93525C87.05869,319.78268,81.125,344.95458,83.14729,371.66081c.77778,10.3177,4.22257,20.213,5.11144,30.48636.91125,10.58467-1.40011,20.79135-2.5113,31.22034-.26667,2.33482,1.35576,3.44665,3.20023,1.979,6.4672-5.15892,17.0901-17.4112,19.02355-24.72714.60009-2.29031.62234-2.40146.75567-.04438.4,6.44854.51111,17.6559.31117,21.21371-.489,9.09471-3.33357,17.6559-6.73387,26.15032-.86676,2.20141.04449,3.291,2.15577,2.24592,25.26843-12.40809,39.93608-58.6159,39.69165-85.16647-.02225-2.35708,1.22228-3.17982,2.0223-.95616,4.91151,13.72011-.28892,32.82132-.97785,42.91671-.17769,2.35721,1.15568,2.91313,2.60028,1.02293,13.44536-17.72254,7.17824-40.60414,22.33487-55.16912,17.35677-16.633,29.20209-1.04505,34.71354,6.18186,1.4446,1.8678,2.40021,4.46945,1.62229,6.69311-7.245,20.79135,6.75612,42.939.68894,63.30781-6.00045,20.1464-33.469,21.10256-45.092,36.04565-12.0009,15.45437,4.28917,38.62505,8.97836,54.43528,2.93356,9.87307,3.28921,19.81279,5.73377,29.50807,2.978,11.80765,4.48925,7.73831,11.13414,8.36087,2.35572.22244,4.24468,2.97977,3.00016,4.98112-2.289,3.69122-7.0449,6.75989-5.17805,12.497,1.66679,5.13666,18.97906,3.04641,28.37968,2.15689a3.44573,3.44573,0,0,0,3.24472-4.44733c-8.15609-27.4622-43.46971-58.638-32.0689-89.36909,5.84487-15.72132,26.69079-17.70028,40.91392-21.01366,19.80147-4.62512,29.22433-11.82991,39.24728-29.73039,7.93377-14.187,12.37853-31.84289,25.6462-42.294,14.95656-11.80765,37.80267-12.23015,55.915-15.32108,39.35837-6.76,72.96072-18.72322,94.2289-53.39021,1.24452-2.00136.26667-3.64685-2.089-3.4244-10.22289.97842-21.00151,4.09147-36.69149,1.00054-3.53351-.71145-18.0457-11.89655-12.22308-17.58913,3.53364-3.49117,7.66723,5.29234,12.4454,8.00514,15.57876,8.96144,56.38172-6.53758,70.6716-6.42629,14.95656.11116,16.55674,12.89723,7.86717,23.81537-4.91137,6.18185-16.15673,11.16284-18.64579,18.79-.86662,2.60165,1.86686,15.63243.68893,16.18835-2.95566,1.40092-7.13374-10.60693-15.601-4.403-4.73367,3.49117-6.28937,18.83451-5.51159,27.32893a3.65611,3.65611,0,0,0,4.88926,3.04641c9.20068-3.49117,23.20164-13.56444,28.33532-18.16744,11.93416-10.78472,16.179-26.63946,23.84621-40.24828,12.33418-21.90305,26.31289-40.55963-7.77832-45.76306-17.11234-2.62391-41.114-4.2694-58.20409-6.38191-15.51229-1.93458-18.51245-23.10391-16.06789-25.99464,5.267-6.27076,5.42261,10.18442,11.26748,16.01041,5.37811,5.33685,12.42315,5.9594,19.44581,5.9594a4.05972,4.05972,0,0,0,4.08923-4.29165c-1.37786-24.149-9.13408-39.31438-24.5129-57.99322-9.88961-12.03-9.4451-40.35943-13.44536-44.71786-2.17788-2.35708-10.77848-10.02875-10.77848-10.02875a14.68444,14.68444,0,0,1-4.73367-15.18754s.35552-1.24524.77777-2.77958c.44451-1.55659.889-3.31337,1.37787-3.53568.20007-.0889.4.02225.489.68933.68893,4.84757,2.5779,15.12089,6.57815,19.635,4.97811,5.62581,14.24552,5.181,18.5347,10.807,3.40017,4.42507.37776,10.96265,4.33366,15.032,7.00041,7.18239,5.5337,2.33482,9.134-1.66775,1.44446-1.57885-2.75573-13.72,4.00025-6.76,4.04474,4.13612-.8,12.38583,3.75582,15.54353,5.267,3.64671,7.71173-1.312,11.44531-4.86983,8.20058-7.82734,5.88922-10.1399,2.62239-21.08043-2.64464-8.91679-12.84542-30.17515-10.57855-41.89377a13.07344,13.07344,0,0,1,4.5781-6.91557c6.24487-4.225,18.11243-6.24849,23.535-8.1832,4.88913-1.73439,53.95928-17.856,66.47128-25.43873A2.01428,2.01428,0,0,0,544.35751,85.742ZM430.08272,131.52714c-.53335-2.29031,1.978-3.4244,4.20033-2.64617,4.42251,1.55659,10.86746,4.11386,10.75637,7.58278C444.72826,146.09225,431.92734,139.26558,430.08272,131.52714Z"/></svg>