<svg id="horse" xmlns="http://www.w3.org/2000/svg" viewBox="0 0 600 600"><defs><style>.cls-1{fill:#ccc;}</style></defs><title>mask_horseW</title><path id="leg_top" class="cls-1" d="M594.51059,286.443a37.19551,37.19551,0,0,0-17.68867-15.16424,31.93368,31.93368,0,0,1-7.33173-4.1805c-13.03492-11.02806-29.7485-22.69418-41.04627-30.27037a56.96034,56.96034,0,0,0-7.35908-4.43431,24.07225,24.07225,0,0,0-11.774-1.87941,55.17183,55.17183,0,0,0-8.36947,1.93541c-12.00271,3.452-28.52566,8.87773-38.65155,15.02683a7.1555,7.1555,0,0,0-2.88325,6.65365,174.52117,174.52117,0,0,1,2.1352,24.87594c-.02312,2.37618-.04161,4.07124,2.30622,4.43864.0802.0126,4.43582.83013,4.51692.84317,2.34686.37312,2.69083-1.3548,3.96133-3.363,10.87726-17.19313,28.453-35.72478,47.09458-24.83236,8.55386,4.99821,13.70855,7.74222,20.76441,13.817a84.66463,84.66463,0,0,0,13.30982,9.268c2.62561,1.28038,3.42494-1.69777,4.94976-2.0661,2.30995-.5579,3.15251,4.07082,1.85153,5.33129a4.79053,4.79053,0,0,0-1.08051,5.37836c.50657,1.33667,1.02089,2.82182,1.46964,4.18365a5.201,5.201,0,0,0,5.52384,3.52207c8.02344-1.35138,18.26659-4.11675,25.9875-4.99337C594.55792,290.26522,595.73219,288.48134,594.51059,286.443Z"/><path id="leg_bottom" class="cls-1" d="M412.96449,564.70005c-1.51517-1.83057-4.82753-3.71053-6.60382-5.289-2.57335-2.28669-5.65918-5.61148-6.88194-6.50566-6.36553-4.65446-13.73249-8.65449-20.30471-13.25688-15.07618-10.55735-32.93369-21.46255-33.26175-41.943-.306-19.10661,11.19026-35.60883,8.22707-55.35456-2.26479-15.09134-9.164-32.41609-20.72515-43.223A10.03011,10.03011,0,0,0,325.89,397.0309c-8.88593,1.516-17.70406,3.61744-25.45733,8.51292-6.73029,4.24942-23.80687,21.44455-21.93729,30.95142,1.86681,9.49264,20.67648,18.44332,27.36869,25.60782,9.64531,10.32582,15.24177,21.88911,14.88465,36.24249-.38887,15.63475-4.60851,21.58273,8.59992,31.56532,7.73779,5.848,17.51,9.00347,25.56277,14.45484,7.63939,5.17154,12.00334,12.69278,18.90291,18.10212,2.15721,1.69128,9.83613,3.43384,11.17656,4.98876,2.116,2.45456.56795,6.08649,2.28485,8.77743,4.9774,7.8013-.987,3.40358,8.08008,7.04727,5.17153,2.07828,15.12806.46534,22.357-.17269,2.36715-.20886,4.134-2.16274,3.28968-4.38386A55.32276,55.32276,0,0,0,412.96449,564.70005Z"/><path id="body" class="cls-1" d="M548.37,85.38a2.026,2.026,0,0,0-2.16-1.13c-5.71.8-14.3,1.5-20.1,2.97-2.3.58-9.14,1.55-1.01,5.44,1.31.63,3.19,1.7-1.34.44-3.73-1.04-5.4-5.56-14.13-2.7-2.25.74005-5.43.95-.77,4.36005a24.21927,24.21927,0,0,0,2.16,1.61c2.42,1.2,2.38,2.11-1.89.51-5.37-2.02-6.86-5.14-16.73-3.08-2.32.49-5.75,2.06-4.32,3.96A55.14179,55.14179,0,0,0,494.8,104c2.4,1.56-.7.88-2.23.54a14.56866,14.56866,0,0,1-6.02-4.19c-2.79-3.4-4.43-5.46-14.06-1.75-2.22.86-.26,3.88.73,6.04.67,1.45,2.39,4.48,3.83,5.12,3.24,1.44.91,1.63-1.32,1.44-2.23-.2-7.92-10.2-13.8-9.27-6.3.99-17.12,1.72-14.16-2.69.35-.52,3.16-4.74,4.46-14.32,1.21-8.95-6.66-24.01-14.38-30.93-1.77-1.58-3.36-.61-3.45,1.77-.39,10.33-4.08,19.15-15.34,12.69995-11.55-6.62-17.66-15.44-29.63-20.87-2.16-.99-4.49.35-3.94,2.66,2.09,8.65,14.75,14.03-2.54,15.13-7.41.47-16.52-4.66-24.11-5.3-8.56-.71-17.09.29-25.53,1.73-2.34.4-2.72,1.95-.74,3.26,9.21,6.11,18.91,9.44,6.2,16.48-16.74,9.27-35.06,12.23-44.48,30a2.18724,2.18724,0,0,0,.1,2.26c.73,1.09,3.96.63,6.33.45,1.12006-.09,2.23-.15,3.28-.18,2.38-.06,3.21,1.74,2.03,3.8-8.63,14.99-11.59,34.16-11.57,48.32.01,1.01,1.45,2.63,1.88,1.99,9.25-13.52,17.02-16.99,18.02-14.91,1.75,3.66-3.66,14.23-3.43,24.16.4,17.1,10.98,32.43,25.18,40.58,2.06,1.19,4.16.05,3.51-2.24-1.97-6.98-8.5-19.2-3.43-24.82.51-.57.96-1.27,1.39-1.43,1.03-.4,1.47,3.31,1.92,5.65,1.85,9.5,6.94,30.36,25.16,32.4,2.1.23,1.14,4.54.02,5.06-7.86,3.69-28.19-3.35-40.38-10.94a108.56871,108.56871,0,0,1-41.78-49.67c-8.19-19.51.27-50.75-15.11-67.19C253.94,90.45,230.55,93,212.52,91.01c-46.14-5.1-90.99-20.4-132.89-39.97C56.49,40.23,28.26,28.22,8.63,10.7,6.85,9.12,5.29,9.68,5.17,12.06,1.2,90.99,66.48,132.4,137.76,134.21c2.38.06,2.44.5.11.99-28.81,6.1-67.18,2.02-116.78-30.12-1.99-1.29-3.23-.47-2.47,1.79,32.98,98.17,144.06,71.39,150.4,70.39,2.34-.38,2.58.19.42,1.19-23.43,10.8-66.63,11.86-92.4,11.3-2.38-.05-3.16,1.41-1.62,3.23,42.52,50.06,118.03,24.92,136.87,21.31,2.33-.45,2.35.48.33,1.75-13.78,8.68-44.19,24.55-67.42,25-2.38.05-3.06,2.31-1.38,3.99,16.59,16.62,53.42,17.87,74.62,16.43,33.74-2.28,36.81-8.38,42.74-10.29,1.74-.56,2.53-.39,1.34.9-10.74,11.63-22.76,21.88-44.06,23.06-2.37.13-2.77,1.9-.55,2.74,52.92005,19.92,88.26,4.57,97.31,1.16,2.22-.84,2.96.36,1.47,2.21-14.87,18.43-37.9,31.69-58.34,42.68-22.16,11.92-34.01,22.85-38.94,28.08a3.17183,3.17183,0,0,1-4.46.55,3.28975,3.28975,0,0,1-.76-.86c-5.75-8.03-21.73-32.04-46.26-42.1-14.37-5.89-39.04-9.37-53.18-2.95-29.31,13.29-35.27,38.62-33.25,65.52.79,10.4,4.26,20.35,5.15,30.71.92,10.66-1.39,20.93-2.53,31.42-.26,2.36,1.38,3.48,3.24,2,6.5-5.19,17.22-17.53,19.16-24.9.61-2.3.63-2.41.77-.04.39,6.49.51,17.77.31,21.36-.5,9.15-3.36,17.78-6.78,26.33-.89,2.21.04,3.32,2.17,2.27,25.46-12.5,40.23-59.02,40-85.76-.03-2.38,1.22-3.2,2.03-.96,4.94,13.8-.29,33.05-1,43.2-.17,2.38,1.18,2.94,2.62,1.05,13.55-17.87,7.23-40.91,22.52-55.57,17.48-16.75,29.43006-1.05,34.97,6.22,1.44,1.89,2.41,4.51,1.63,6.75-7.3,20.94,6.81,43.23.7,63.74-6.04,20.3-33.73,21.26-45.43,36.31-12.11005,15.57,4.31,38.89,9.05,54.82,2.95,9.93,3.3,19.94,5.77,29.71,3,11.88995,4.51,7.78,11.21,8.42,2.37.23,4.29,2.99,3.04,5-2.31995,3.73-7.11,6.82-5.23,12.59,1.69,5.17,19.11,3.07,28.6,2.19a3.48323,3.48323,0,0,0,3.4-3.56,3.22189,3.22189,0,0,0-.14-.93c-8.22-27.64-43.79-59.05-32.3-90,5.88-15.83,26.89-17.81,41.21-21.15,19.95-4.65,29.46-11.92,39.55-29.94,8-14.3,12.48-32.07,25.85-42.6,15.05005-11.87,38.08-12.3,56.32-15.42,39.66-6.8,73.51-18.86,94.96-53.76,1.25-2.02.26-3.67-2.11-3.45-10.29.98-21.16,4.13-36.97,1-3.57-.7-18.18-11.97-12.32-17.72,3.56-3.49,7.73,5.33,12.53,8.09,15.71,9,56.81-6.6,71.21-6.5,15.09.12,16.69,13.01,7.94,24-4.96,6.23-16.28,11.24-18.8,18.91-.86,2.63,1.9,15.74.71,16.3-3,1.43-7.19-10.68-15.72-4.42-4.77,3.5-6.35,18.96-5.55,27.51a3.67908,3.67908,0,0,0,4.03,3.28,3.96908,3.96908,0,0,0,.88995-.21c9.26-3.52,23.37006-13.65,28.54-18.3,12.04-10.85,16.32-26.82,24.03-40.51,12.43-22.07,26.51-40.86-7.83-46.1-17.25-2.63-41.43-4.29-58.66-6.43-15.61-1.94-18.64-23.25-16.19-26.16,5.31-6.33,5.48,10.24,11.37,16.11,5.41,5.37,12.5,6.01,19.58,6.01a4.10153,4.10153,0,0,0,4.14-4.07c0-.09-.01-.18-.01-.26-1.39-24.31-9.21-39.59-24.7-58.4-9.97-12.1-9.52-40.64-13.56-45.03-2.18-2.37-10.84-10.1-10.84-10.1a14.74132,14.74132,0,0,1-4.77-15.29l.78-2.8c.43-1.55.9-3.33,1.39-3.55.2-.09.39.03.48.68.71,4.89,2.61005,15.23,6.64,19.78,5.01,5.67,14.34,5.22,18.68,10.87,3.42,4.47.38,11.06,4.35,15.14,7.06,7.25,5.57995,2.36,9.21-1.66,1.45-1.6-2.78-13.82,4.04-6.83,4.06,4.18-.82,12.49,3.78,15.67,5.3,3.67,7.76-1.32,11.52-4.91,8.26-7.88,5.93-10.22,2.65-21.23-2.67-8.97-12.94-30.39-10.66-42.18a13.09253,13.09253,0,0,1,4.6-6.96c6.3-4.25,18.26-6.31,23.73-8.24,4.92-1.75,54.37-17.98,66.96-25.62005A2.02428,2.02428,0,0,0,548.37,85.38ZM431.08,130.36c-.55-2.31,1.99-3.47,4.22-2.67,4.46,1.58,10.95,4.13,10.84,7.64C445.82,145.02,432.93,138.14,431.08,130.36Z"/></svg>