<svg id="Слой_1" data-name="Слой 1" xmlns="http://www.w3.org/2000/svg" viewBox="0 0 44 44"><defs><style>.cls-1,.cls-2{fill:none;stroke:#1964f5;stroke-linejoin:round;stroke-width:2px;}.cls-1{stroke-linecap:round;}</style></defs><title>mealBigB</title><circle class="cls-1" cx="22" cy="22" r="13"/><circle class="cls-1" cx="22" cy="22" r="8"/><path class="cls-1" d="M17,22a5.00021,5.00021,0,0,1,5-5"/><line class="cls-1" x1="3.99999" y1="6" x2="3.99999" y2="15"/><path class="cls-1" d="M40,35V23h3V35a.9992.9992,0,0,1-1,1H41A.9992.9992,0,0,1,40,35Z"/><path class="cls-1" d="M39,23h4V6c-2.57984,1.58287-4,6.27887-4,10Z"/><polyline class="cls-1" points="33 9 24 1 20 1 11 9"/><polyline class="cls-1" points="11 35 20 43 24 43 33 35"/><path class="cls-1" d="M7,6v8a.9992.9992,0,0,1-1,1H2a.9992.9992,0,0,1-1-1V6"/><path class="cls-2" d="M4,36H4a1.9867,1.9867,0,0,1-2-2L3,15H5L6,34A1.9867,1.9867,0,0,1,4,36Z"/></svg>