<svg id="Слой_1" data-name="Слой 1" xmlns="http://www.w3.org/2000/svg" viewBox="0 0 44 44"><defs><style>.cls-1,.cls-2{fill:none;stroke:#fff;stroke-linejoin:round;stroke-width:2px;}.cls-1{stroke-linecap:round;}</style></defs><title>mealBigW</title><circle class="cls-1" cx="22.00012" cy="21.99987" r="13"/><circle class="cls-1" cx="22.00012" cy="21.99987" r="8"/><path class="cls-1" d="M17.00013,21.99987a5.00022,5.00022,0,0,1,5-5"/><line class="cls-1" x1="4.00011" y1="5.99987" x2="4.00011" y2="14.99987"/><path class="cls-1" d="M40.00011,34.99987v-12h3v12a.9992.9992,0,0,1-1,1h-1A.9992.9992,0,0,1,40.00011,34.99987Z"/><path class="cls-1" d="M39.00011,22.99987h4v-17c-2.57984,1.58287-4,6.27887-4,10Z"/><polyline class="cls-1" points="33 9 24 1 20 1 11 9"/><polyline class="cls-1" points="11 35 20 43 24 43 33 35"/><path class="cls-1" d="M7.00011,5.99987v8a.9992.9992,0,0,1-1,1h-4a.9992.9992,0,0,1-1-1v-8"/><path class="cls-2" d="M4.00011,35.99987h0a1.9867,1.9867,0,0,1-2-2l1-19h2l1,19A1.9867,1.9867,0,0,1,4.00011,35.99987Z"/></svg>