<svg id="Слой_1" data-name="Слой 1" xmlns="http://www.w3.org/2000/svg" viewBox="0 0 18 18"><defs><style>.cls-1{fill:#1964f5;}.cls-2{fill:none;stroke:#1964f5;stroke-linecap:round;stroke-linejoin:round;stroke-width:2px;}</style></defs><title>mealB</title><circle class="cls-1" cx="4.5" cy="5.5" r="0.5"/><circle class="cls-1" cx="6.5" cy="5.5" r="0.5"/><circle class="cls-1" cx="8.5" cy="6.5" r="0.5"/><circle class="cls-1" cx="7.5" cy="3.5" r="0.5"/><circle class="cls-1" cx="9.5" cy="4.5" r="0.5"/><circle class="cls-1" cx="13.5" cy="5.5" r="0.5"/><circle class="cls-1" cx="11.5" cy="6.5" r="0.5"/><circle class="cls-1" cx="11.5" cy="3.5" r="0.5"/><path class="cls-2" d="M16,7C16-.99976,2-.99976,2,7V8A1,1,0,0,0,3,9H15a1,1,0,0,0,1-1Z"/><line class="cls-2" x1="7" y1="9" x2="11" y2="14"/><line class="cls-2" x1="11" y1="14" x2="14" y2="9"/><path class="cls-2" d="M11.6,13H15a2.01456,2.01456,0,0,0,2-2,2.00588,2.00588,0,0,0-2-2H3a1.95529,1.95529,0,0,0-1.41.59A1.95529,1.95529,0,0,0,1,11a2.00588,2.00588,0,0,0,2,2h7.2"/><path class="cls-2" d="M11.6,13H15a1.00294,1.00294,0,0,1,1,1v2a1.00294,1.00294,0,0,1-1,1H3a1.00294,1.00294,0,0,1-1-1V14a1.00294,1.00294,0,0,1,1-1h7.2"/></svg>