<svg id="Слой_1" data-name="Слой 1" xmlns="http://www.w3.org/2000/svg" viewBox="0 0 18 18"><defs><style>.cls-1{fill:none;stroke:#323232;stroke-linecap:round;stroke-linejoin:round;stroke-width:2px;}</style></defs><title>member</title><path class="cls-1" d="M2,12.99979V17.0001H16V12.99979a1.9763,1.9763,0,0,0-1-2c-1.22465-.58785-3.47359-1.99989-6-1.99989-2.52626,0-4.77532,1.412-6,1.99989A1.97613,1.97613,0,0,0,2,12.99979Z"/><line class="cls-1" x1="6" y1="17.0001" x2="6" y2="13.9999"/><line class="cls-1" x1="12" y1="17.0001" x2="12" y2="13.9999"/><path class="cls-1" d="M12,5.0001c0,1.38072-1,3.9998-3,3.9998S6,6.38082,6,5.0001c0-3,1.61929-4.0002,3-4.0002S12,2.0001,12,5.0001Z"/></svg>