<svg id="Слой_1" data-name="Слой 1" xmlns="http://www.w3.org/2000/svg" viewBox="0 0 18 18"><defs><style>.cls-1{fill:none;stroke:#fff;stroke-linecap:round;stroke-linejoin:round;stroke-width:2px;}</style></defs><title>memberW</title><path class="cls-1" d="M2,12.99969V17H16V12.99969a1.97629,1.97629,0,0,0-1-2c-1.22465-.58785-3.47359-1.9999-6-1.9999-2.52626,0-4.77532,1.41206-6,1.9999A1.97612,1.97612,0,0,0,2,12.99969Z"/><line class="cls-1" x1="6" y1="17" x2="6" y2="13.99979"/><line class="cls-1" x1="12" y1="17" x2="12" y2="13.99979"/><path class="cls-1" d="M12,5c0,1.38071-1,3.99979-3,3.99979S6,6.38071,6,5C6,2,7.61929.99979,9,.99979S12,2,12,5Z"/></svg>