<svg id="Слой_1" data-name="Слой 1" xmlns="http://www.w3.org/2000/svg" viewBox="0 0 18 18"><defs><style>.cls-1{fill:none;stroke:#1964f5;stroke-linecap:round;stroke-linejoin:round;stroke-width:2px;}</style></defs><title>nightsB</title><line class="cls-1" x1="15" y1="2" x2="15" y2="2"/><line class="cls-1" x1="15.5" y1="14.5" x2="15.5" y2="14.5"/><line class="cls-1" x1="17" y1="6" x2="15" y2="8"/><line class="cls-1" x1="15" y1="6" x2="17" y2="8"/><line class="cls-1" x1="12.5" y1="10.5" x2="12.5" y2="10.5"/><path class="cls-1" d="M12,2C11,1,8,1,8,1,5,1,1,4,1,9a7.88739,7.88739,0,0,0,8,8,4.93754,4.93754,0,0,0,3-1c-3-1-5-3-5-6H9L7,7C7,5,9,3,12,2Z"/><path class="cls-1" d="M7,13a3.49137,3.49137,0,0,1-2-1"/><line class="cls-1" x1="4" y1="6" x2="5" y2="6"/></svg>