<svg id="Слой_1" data-name="Слой 1" xmlns="http://www.w3.org/2000/svg" viewBox="0 0 18 18"><defs><style>.cls-1{fill:#1964f5;}</style></defs><title>odnoklassnikiB</title><path class="cls-1" d="M8.99976,1a4.12887,4.12887,0,1,0,4.12959,4.12994A4.13395,4.13395,0,0,0,8.99976,1Zm0,5.83859a1.70918,1.70918,0,1,1,1.70972-1.70865A1.71147,1.71147,0,0,1,8.99976,6.83859Z"/><path class="cls-1" d="M10.67046,12.62585A7.73067,7.73067,0,0,0,13.0682,11.633a1.20993,1.20993,0,0,0-1.28714-2.04915l-.00137.00086a5.24373,5.24373,0,0,1-5.55941,0,1.20865,1.20865,0,0,0-1.66687.37848L4.55228,9.965a1.20964,1.20964,0,0,0,.3791,1.668,7.73821,7.73821,0,0,0,2.39734.99281l-2.3084,2.3088a1.20985,1.20985,0,0,0,1.71129,1.71069h0l2.26788-2.26827,2.26927,2.26847a1.20806,1.20806,0,0,0,1.70845.00125l.00125-.00125a1.20766,1.20766,0,0,0,.00261-1.70789l-.00261-.00261-2.308-2.30919Z"/></svg>