<svg id="Слой_1" data-name="Слой 1" xmlns="http://www.w3.org/2000/svg" viewBox="0 0 18 18"><defs><style>.cls-1{fill:none;stroke:#1964f5;stroke-linecap:round;stroke-linejoin:round;stroke-width:2px;}</style></defs><title>poolB</title><line class="cls-1" x1="1" y1="5" x2="5" y2="5"/><line class="cls-1" x1="13" y1="5" x2="17" y2="5"/><line class="cls-1" x1="5" y1="9" x2="13" y2="9"/><line class="cls-1" x1="5" y1="5" x2="13" y2="5"/><path class="cls-1" d="M5,12V2.5A1.5,1.5,0,0,1,6.5,1h0A1.5,1.5,0,0,1,8,2.5"/><path class="cls-1" d="M13,12V2.5A1.5,1.5,0,0,1,14.5,1h0A1.5,1.5,0,0,1,16,2.5"/><path class="cls-1" d="M17,17c-1,0-1-1-2-1s-2,1-3,1-2-1-3-1-2,1-3,1-2-1-3-1-1,1-2,1"/><path class="cls-1" d="M17,13c-1,0-1-1-2-1s-2,1-3,1-2-1-3-1-2,1-3,1-2-1-3-1-1,1-2,1"/></svg>