<svg id="Слой_1" data-name="Слой 1" xmlns="http://www.w3.org/2000/svg" viewBox="0 0 44 44"><defs><style>.cls-1,.cls-2{fill:none;stroke:#323232;stroke-linejoin:round;stroke-width:2px;}.cls-2{stroke-linecap:round;}</style></defs><title>rooms</title><path class="cls-1" d="M12,14H32a4,4,0,0,1,4,4v8a0,0,0,0,1,0,0H8a0,0,0,0,1,0,0V18A4,4,0,0,1,12,14Z"/><rect class="cls-1" x="23.99999" y="20" width="8.00002" height="6" rx="2"/><rect class="cls-1" x="11.99997" y="20" width="8.00002" height="6" rx="2"/><path class="cls-1" d="M7,43V42a2,2,0,0,1,2-2H35a2,2,0,0,1,2,2v1h3V30a4,4,0,0,0-4-4H8a4,4,0,0,0-4,4V43Z"/><path class="cls-2" d="M7,33v2a2,2,0,0,0,2,2H35a2,2,0,0,0,2-2V33"/><line class="cls-1" x1="17.99999" y1="17" x2="19.99999" y2="17"/><line class="cls-1" x1="20.99999" y1="17" x2="22.99999" y2="17"/><line class="cls-1" x1="23.99999" y1="17" x2="25.99999" y2="17"/><path class="cls-1" d="M34,4h2a3,3,0,0,1,3,3V7a0,0,0,0,1,0,0H31a0,0,0,0,1,0,0V7A3,3,0,0,1,34,4Z"/><path class="cls-1" d="M8,4h2a3,3,0,0,1,3,3V7a0,0,0,0,1,0,0H5A0,0,0,0,1,5,7V7A3,3,0,0,1,8,4Z"/><path class="cls-2" d="M35,4V3a2,2,0,0,1,2-2h4a2,2,0,0,1,2,2V43H1V3A2,2,0,0,1,3,1H7A2,2,0,0,1,9,3V4"/></svg>