<svg id="Слой_1" data-name="Слой 1" xmlns="http://www.w3.org/2000/svg" xmlns:xlink="http://www.w3.org/1999/xlink" viewBox="0 0 364 179"><defs><style>.cls-1{fill:none;}.cls-2{opacity:0.1;}.cls-3{clip-path:url(#clip-path);}.cls-4{clip-path:url(#clip-path-2);}.cls-5{clip-path:url(#clip-path-3);}.cls-6{fill:url(#Безымянный_градиент_2);}.cls-7{clip-path:url(#clip-path-4);}.cls-8{clip-path:url(#clip-path-5);}.cls-9{fill:url(#Безымянный_градиент_3);}.cls-10{clip-path:url(#clip-path-6);}.cls-11{clip-path:url(#clip-path-7);}.cls-12{fill:url(#Безымянный_градиент_3-2);}.cls-13{clip-path:url(#clip-path-8);}.cls-14{clip-path:url(#clip-path-9);}.cls-15{fill:url(#Безымянный_градиент_4);}</style><clipPath id="clip-path"><rect class="cls-1" width="364" height="179"/></clipPath><clipPath id="clip-path-2"><rect class="cls-1" x="-36.47573" width="400.47472" height="179.00024"/></clipPath><clipPath id="clip-path-3"><polygon class="cls-1" points="258.859 0 225.653 19.172 225.656 27.657 -36.475 179 42.804 179 209.061 83.009 231.182 83.009 231.184 87.927 258.872 71.941 325.24 71.941 325.261 127.51 364 105.143 364 101.19 363.963 0 258.859 0"/></clipPath><linearGradient id="Безымянный_градиент_2" x1="-1633.01085" y1="-441.53784" x2="-1632.68818" y2="-441.53784" gradientTransform="matrix(-590.16197, -0.00414, -0.00414, 590.16197, -963371.7399, 260661.58019)" gradientUnits="userSpaceOnUse"><stop offset="0" stop-color="#b8b8b8"/><stop offset="0.44121" stop-color="#acacac"/><stop offset="1" stop-color="#9f9f9f"/></linearGradient><clipPath id="clip-path-4"><rect class="cls-1" x="-81.50088" y="11.06806" width="307.15679" height="167.93217"/></clipPath><clipPath id="clip-path-5"><polygon class="cls-1" points="209.067 11.068 -81.5 179 -36.475 179 225.656 27.657 225.65 11.068 209.067 11.068"/></clipPath><linearGradient id="Безымянный_градиент_3" x1="-1632.27233" y1="-438.12074" x2="-1631.94963" y2="-438.12074" gradientTransform="matrix(-379.05535, -0.00295, -0.00295, 379.05535, -618440.58322, 166162.23122)" gradientUnits="userSpaceOnUse"><stop offset="0" stop-color="#9f9f9f"/><stop offset="0.15563" stop-color="#9b9b9b"/><stop offset="0.35751" stop-color="#909090"/><stop offset="0.58486" stop-color="#7c7c7c"/><stop offset="0.82907" stop-color="#616161"/><stop offset="1" stop-color="#4c4c4c"/></linearGradient><clipPath id="clip-path-6"><rect class="cls-1" x="103.25777" y="71.9412" width="222.00813" height="107.05904"/></clipPath><clipPath id="clip-path-7"><polygon class="cls-1" points="258.872 71.941 231.184 87.927 231.19 105.137 103.258 179 254.831 179 325.265 138.334 325.24 71.941 258.872 71.941"/></clipPath><linearGradient id="Безымянный_градиент_3-2" x1="-1633.18252" y1="-444.57007" x2="-1632.85982" y2="-444.57007" gradientTransform="matrix(-1278.23802, -0.01028, -0.01028, 1278.23802, -2087131.69866, 568375.04483)" xlink:href="#Безымянный_градиент_3"/><clipPath id="clip-path-8"><rect class="cls-1" x="42.80326" y="83.00892" width="188.38641" height="95.99133"/></clipPath><clipPath id="clip-path-9"><polygon class="cls-1" points="209.061 83.009 42.804 179 103.258 179 231.19 105.137 231.182 83.009 209.061 83.009"/></clipPath><linearGradient id="Безымянный_градиент_4" x1="-1632.39428" y1="-440.75696" x2="-1632.07159" y2="-440.75696" gradientTransform="matrix(-512.71985, -0.00423, -0.00423, 512.71985, -836671.23086, 226108.93491)" gradientUnits="userSpaceOnUse"><stop offset="0" stop-color="#cfcfcf"/><stop offset="0.25465" stop-color="#bebebe"/><stop offset="0.56131" stop-color="#adadad"/><stop offset="0.82077" stop-color="#a3a3a3"/><stop offset="1" stop-color="#9f9f9f"/></linearGradient></defs><title>sberLinesG</title><g class="cls-2"><g class="cls-3"><g class="cls-4"><g class="cls-5"><rect class="cls-6" x="-55.50944" y="-77.2237" width="438.54376" height="333.44745" transform="translate(-22.55864 78.87704) rotate(-25.39449)"/></g></g><g class="cls-7"><g class="cls-8"><rect class="cls-9" x="-102.93605" y="-53.69106" width="350.02774" height="297.45023" transform="translate(-37.46245 47.83646) rotate(-29.51204)"/></g></g><g class="cls-10"><g class="cls-11"><rect class="cls-12" x="91.49484" y="22.7132" width="245.53331" height="205.51481" transform="translate(-34.02849 127.1858) rotate(-30.74885)"/></g></g><g class="cls-13"><g class="cls-14"><rect class="cls-15" x="31.88129" y="39.34793" width="210.23097" height="183.313" transform="translate(-49.31694 96.11205) rotate(-33.11177)"/></g></g></g></g><rect class="cls-1" x="80" y="161.60249" width="384.94092" height="272.39752"/></svg>