<svg id="Слой_1" data-name="Слой 1" xmlns="http://www.w3.org/2000/svg" viewBox="0 0 18 18"><defs><style>.cls-1{fill:#323232;}</style></defs><title>sberIconK</title><path class="cls-1" d="M16.52521,3.70588,15.958,2.91176,5.48319,8.92437.416,6.01261a4.61766,4.61766,0,0,0-.22689.98319l5.33193,3.063Z"/><path class="cls-1" d="M5.48319,11.19328.03782,8.05462A3.25249,3.25249,0,0,0,0,8.65966a9,9,0,0,0,18,0,8.68824,8.68824,0,0,0-.98319-4.084Z"/><path class="cls-1" d="M15.2395,2.15546c-.26471-.2647-.52942-.45378-.79412-.68067L5.48319,6.65546l-4.31092-2.458c-.15126.2647-.30252.56723-.45378.86975L5.44538,7.78992Z"/><path class="cls-1" d="M13.53782.86975A9.21551,9.21551,0,0,0,12.479.34034L5.48319,4.38655,2.34454,2.60924c-.22689.22689-.416.4916-.64286.75631L5.44538,5.521Z"/></svg>