<svg id="Слой_1" data-name="Слой 1" xmlns="http://www.w3.org/2000/svg" viewBox="0 0 18 18"><defs><style>.cls-1,.cls-2{fill:none;stroke:#323232;stroke-linejoin:round;stroke-width:2px;}.cls-1{stroke-linecap:round;}</style></defs><title>square</title><polyline class="cls-1" points="2 1 17 1 17 16"/><line class="cls-2" x1="17" y1="11" x2="14" y2="11"/><line class="cls-2" x1="7" y1="1" x2="7" y2="6"/><line class="cls-2" x1="17" y1="6" x2="13" y2="6"/><line class="cls-1" x1="13" y1="6" x2="12" y2="5"/><line class="cls-2" x1="10" y1="6" x2="6" y2="6"/><line class="cls-1" x1="14" y1="16" x2="2" y2="16"/><line class="cls-1" x1="2" y1="16" x2="2" y2="4"/><line class="cls-1" x1="14" y1="16" x2="13" y2="17"/><line class="cls-1" x1="14" y1="16" x2="13" y2="15"/><line class="cls-1" x1="2" y1="4" x2="3" y2="5"/><line class="cls-1" x1="2" y1="4" x2="1" y2="5"/><polyline class="cls-1" points="11 13 11 9 9 11 7 9 7 13"/></svg>