<svg id="Слой_1" data-name="Слой 1" xmlns="http://www.w3.org/2000/svg" viewBox="0 0 18 18"><defs><style>.cls-1,.cls-2{fill:none;stroke:#fff;stroke-width:2px;}.cls-1{stroke-linecap:round;stroke-linejoin:round;}.cls-2{stroke-miterlimit:10;}.cls-3{fill:#fff;}</style></defs><title>transferW</title><path class="cls-1" d="M3,1H15a2,2,0,0,1,2,2V16a0,0,0,0,1,0,0H1a0,0,0,0,1,0,0V3A2,2,0,0,1,3,1Z"/><rect class="cls-2" x="2.99999" y="16.00004" width="1" height="1"/><rect class="cls-2" x="13.99999" y="16.00004" width="1" height="1"/><polyline class="cls-1" points="4 10 4 7 8 7 8 10"/><polyline class="cls-1" points="11 10 11 7 14 7 14 10"/><rect class="cls-3" x="6" y="12" width="5.99999" height="2" rx="1"/><rect class="cls-3" x="2.99999" y="11.99999" width="2" height="2" rx="1"/><rect class="cls-3" x="12.99999" y="11.99999" width="2" height="2" rx="1"/><line class="cls-2" x1="1" y1="10" x2="17" y2="10"/><line class="cls-2" x1="1" y1="4" x2="17" y2="4"/></svg>