<svg id="Слой_1" data-name="Слой 1" xmlns="http://www.w3.org/2000/svg" viewBox="0 0 44 44"><defs><style>.cls-1,.cls-4,.cls-5{fill:none;}.cls-1,.cls-2,.cls-5{stroke:#333;}.cls-1,.cls-2,.cls-3,.cls-4{stroke-linecap:round;stroke-linejoin:round;}.cls-1,.cls-2,.cls-3,.cls-4,.cls-5{stroke-width:2px;}.cls-2,.cls-3,.cls-6{fill:#323232;}.cls-3,.cls-4{stroke:#323232;}.cls-5{stroke-miterlimit:10;}</style></defs><title>transfer_44</title><rect class="cls-1" x="3.99989" y="1" width="36.00009" height="39" rx="2"/><rect class="cls-2" x="6.99999" y="40" width="5" height="3"/><rect class="cls-3" x="31.99999" y="40" width="5" height="3"/><polyline class="cls-4" points="25 4 25 7 19 7 19 4"/><polygon class="cls-4" points="27 37 17 37 16 36 28 36 27 37"/><polyline class="cls-5" points="4 31 16 33 28 33 40 31"/><circle class="cls-6" cx="30.99999" cy="37" r="1"/><circle class="cls-6" cx="12.99999" cy="37" r="1"/><polyline class="cls-1" points="37 23 24 23 7 26"/><line class="cls-1" x1="29.99999" y1="26" x2="21.99999" y2="30"/><path class="cls-1" d="M10,25c0-7,0-8,6-8s6,1,6,6"/><line class="cls-4" x1="12.99998" y1="24" x2="12.99995" y2="21"/><line class="cls-4" x1="18.99995" y1="23" x2="18.99989" y2="21"/><path class="cls-4" d="M17.99995,13.5c0,.8629-.66667,2.49973-2,2.49973S14,14.36289,14,13.5c0-1.87489,1.07952-2.5,2-2.5S17.99995,11.6251,17.99995,13.5Z"/><path class="cls-1" d="M26,23c0-1.66,1.79-3,4-3s4,1.34,4,3"/><path class="cls-4" d="M32,17.5c0,.8629-.66667,2.49973-2,2.49973S28,18.36289,28,17.5c0-1.87489,1.07952-2.5,2-2.5S32,15.6251,32,17.5Z"/><polygon class="cls-4" points="10 37 8 37 7 35 9 35 10 37"/><polygon class="cls-4" points="34 37 36 37 37 35 35 35 34 37"/><path class="cls-1" d="M37,28l-9,2H16L7,28V6A2,2,0,0,1,9,4H35a2,2,0,0,1,2,2Z"/><line class="cls-1" x1="21.99999" y1="26" x2="33.99999" y2="26"/><rect class="cls-4" x="0.99999" y="9" width="3" height="8" rx="1"/><rect class="cls-4" x="39.99999" y="9" width="3" height="8" rx="1"/></svg>