<svg id="Слой_1" data-name="Слой 1" xmlns="http://www.w3.org/2000/svg" viewBox="0 0 18 18"><defs><style>.cls-1{fill:#1964f5;fill-rule:evenodd;}</style></defs><title>vkB</title><path id="Logo" class="cls-1" d="M16.63285,4.89232c.11123-.37089,0-.64342-.52934-.64342H14.3531a.75593.75593,0,0,0-.76153.495A14.64251,14.64251,0,0,1,11.44042,8.323c-.408.408-.59342.53777-.816.53777-.11125,0-.27231-.1298-.27231-.50066V4.89232c0-.44507-.12917-.64342-.50009-.64342H7.10142a.422.422,0,0,0-.4454.40234c0,.42191.63047.51921.69546,1.70607V8.935c0,.56515-.10206.66761-.3246.66761-.59339,0-2.03683-2.17939-2.89292-4.67318-.16778-.48471-.33605-.6805-.78341-.6805H1.60015C1.1,4.2489,1,4.48433,1,4.74394c0,.46362.59343,2.76312,2.76309,5.80438a6.81958,6.81958,0,0,0,5.3388,3.20278c1.11264,0,1.25029-.25,1.25029-.68078V11.50058c0-.50012.1054-.59992.45774-.59992.25961,0,.70468.1298,1.74318,1.13119,1.18682,1.18683,1.38249,1.71925,2.05006,1.71925h1.75041c.50011,0,.75017-.25.60592-.74353a7.51513,7.51513,0,0,0-1.47639-2.05129c-.408-.48214-1.01994-1.00136-1.2054-1.261-.25962-.33376-.18544-.48215,0-.77883A21.91935,21.91935,0,0,0,16.63285,4.89232Z"/></svg>